<?xml version="1.0" encoding="UTF-8" standalone="no"?>
<!DOCTYPE svg PUBLIC "-//W3C//DTD SVG 1.1//EN" "http://www.w3.org/Graphics/SVG/1.1/DTD/svg11.dtd">
<svg width="100%" height="100%" viewBox="0 0 471 131" version="1.1" xmlns="http://www.w3.org/2000/svg" xmlns:xlink="http://www.w3.org/1999/xlink" xml:space="preserve" xmlns:serif="http://www.serif.com/" style="fill-rule:evenodd;clip-rule:evenodd;stroke-linejoin:round;stroke-miterlimit:2;">
    <g>
        <path d="M39.726,23.907L39.726,43.745" style="fill:none;stroke:black;stroke-width:2.48px;"/>
        <path d="M43.135,23.907L43.135,43.745" style="fill:none;stroke:black;stroke-width:0.77px;"/>
        <path d="M46.39,30.418C45.914,30.418 45.478,30.835 45.478,31.371C45.478,31.827 45.934,32.263 46.39,32.263C46.926,32.263 47.342,31.827 47.342,31.371C47.342,30.835 46.926,30.418 46.39,30.418Z" style="fill-rule:nonzero;"/>
        <path d="M46.39,35.378C45.914,35.378 45.478,35.794 45.478,36.33C45.478,36.786 45.934,37.223 46.39,37.223C46.926,37.223 47.342,36.786 47.342,36.33C47.342,35.794 46.926,35.378 46.39,35.378Z" style="fill-rule:nonzero;"/>
        <path d="M188.972,23.907L188.972,43.745" style="fill:none;stroke:black;stroke-width:0.77px;"/>
        <path d="M282.89,23.907L282.89,43.745" style="fill:none;stroke:black;stroke-width:0.77px;"/>
        <path d="M376.653,23.907L376.653,43.745" style="fill:none;stroke:black;stroke-width:0.77px;"/>
        <path d="M470.571,23.907L470.571,43.745" style="fill:none;stroke:black;stroke-width:0.77px;"/>
        <path d="M53.449,11.088C53.465,11.216 53.688,11.264 53.959,11.264C54.374,11.264 54.901,11.136 54.901,10.945C54.917,10.258 54.901,9.811 55.061,8.933C55.652,8.726 56.306,8.407 57.056,8.135C57.152,9.38 57.184,10.689 57.232,10.945C57.232,11.04 57.455,11.072 57.727,11.072C58.206,11.072 58.876,10.961 58.876,10.769C58.876,8.231 58.86,0.106 57.056,0.106C55.412,0.106 53.449,5.805 53.449,10.849L53.449,11.088ZM56.386,3.761C56.881,3.761 56.897,5.246 56.96,6.14C56.514,6.379 55.923,6.619 55.412,6.826C55.604,5.932 55.891,3.793 56.386,3.761Z" style="fill-rule:nonzero;"/>
        <path d="M59.688,5.549C59.975,6.124 60.135,7.864 60.135,9.157C60.135,9.668 60.103,10.115 60.055,10.386C60.039,10.434 60.039,10.466 60.039,10.498C60.039,10.929 60.566,11.232 60.965,11.232C61.189,11.232 61.38,11.136 61.396,10.913C61.508,9.779 61.891,6.81 62.402,6.762C62.641,6.73 62.753,9.205 62.817,10.625C62.833,11.025 63.248,11.216 63.647,11.216C64.014,11.216 64.381,11.056 64.397,10.753C64.493,9.556 65.69,6.475 65.882,6.491C66.233,6.523 66.744,10.594 66.744,10.641C66.76,11.056 67.127,11.312 67.446,11.312C67.67,11.312 67.877,11.168 67.877,10.849C67.877,9.492 67.414,7.146 67.047,5.677C66.919,5.198 66.456,4.703 65.978,4.703C65.626,4.703 65.259,4.959 65.02,5.645L63.854,8.534C63.854,8.135 63.36,5.517 63.328,5.326C63.168,4.687 62.913,4.416 62.625,4.416C62.051,4.416 61.364,5.485 61.109,6.667C61.077,6.236 60.646,5.31 60.614,5.23C60.534,5.054 60.422,4.991 60.279,4.991C60.007,4.991 59.672,5.246 59.672,5.469C59.672,5.501 59.672,5.533 59.688,5.549Z" style="fill-rule:nonzero;"/>
        <path d="M67.972,10.737C67.86,11.072 67.812,11.36 67.812,11.567C67.812,11.902 67.94,12.062 68.115,12.062C68.339,12.062 68.642,11.823 68.897,11.328C70.893,7.592 71.627,4.991 73.926,1.974C73.974,1.894 73.99,1.814 73.99,1.734C73.99,1.463 73.734,1.255 73.431,1.255C73.239,1.255 73.016,1.335 72.84,1.527C70.909,4.368 69.392,7.257 67.972,10.737Z" style="fill-rule:nonzero;"/>
        <path d="M75.65,8.135C75.41,8.071 75.203,7.976 74.995,7.944C75.059,9.093 75.059,9.668 75.091,10.578C75.49,11.056 76.256,11.184 78.076,11.184C78.475,11.184 78.906,11.184 79.401,11.168C81.077,10.498 81.923,7.241 81.923,4.48C81.923,0.872 80.71,0.074 78.858,0.074C77.454,0.074 76.368,0.888 75.171,2.341C75.075,3.011 75.155,3.745 75.043,4.911C75.203,4.911 75.442,4.671 75.554,4.591C75.586,5.118 75.682,6.268 75.682,7.289C75.682,7.592 75.666,7.88 75.65,8.135ZM76.464,3.985C77.358,3.203 78.507,2.82 79.225,2.82C80.183,2.82 80.582,3.825 80.582,4.847C80.582,6.172 79.656,8.518 77.645,8.518C77.374,8.518 77.086,8.486 76.751,8.407C76.783,7.976 76.815,7.417 76.815,6.842C76.815,5.884 76.735,4.831 76.464,3.985Z" style="fill-rule:nonzero;"/>
        <path d="M195.545,8.917C195.497,8.965 195.465,9.029 195.465,9.109C195.465,9.54 196.263,10.386 196.71,10.386C197.014,10.386 201.643,5.262 204.532,2.245C204.564,2.213 204.58,2.181 204.58,2.149C204.58,1.798 203.638,0.872 203.319,0.872C203.271,0.872 203.239,0.888 203.207,0.92C200.861,2.883 197.652,6.555 195.545,8.917ZM201.85,8.295C201.802,8.359 201.786,8.423 201.786,8.47C201.786,8.885 202.537,9.54 203.016,9.54C203.399,9.54 204.756,7.704 204.756,7.592C204.756,7.209 204.037,6.347 203.59,6.347C202.952,6.347 202.313,7.545 201.85,8.295ZM196.231,2.915C196.199,2.963 196.183,3.011 196.183,3.075C196.183,3.442 196.87,4.144 197.205,4.144C197.524,3.825 197.812,3.522 198.051,3.251C198.498,2.804 198.929,2.293 198.929,2.117C198.929,1.702 198.323,1 197.939,1C197.445,1 196.599,2.596 196.231,2.915Z" style="fill-rule:nonzero;"/>
        <path d="M289.463,8.917C289.415,8.965 289.383,9.029 289.383,9.109C289.383,9.54 290.181,10.386 290.628,10.386C290.932,10.386 295.561,5.262 298.45,2.245C298.482,2.213 298.498,2.181 298.498,2.149C298.498,1.798 297.556,0.872 297.237,0.872C297.189,0.872 297.157,0.888 297.125,0.92C294.779,2.883 291.57,6.555 289.463,8.917ZM295.768,8.295C295.721,8.359 295.705,8.423 295.705,8.47C295.705,8.885 296.455,9.54 296.934,9.54C297.317,9.54 298.674,7.704 298.674,7.592C298.674,7.209 297.955,6.347 297.508,6.347C296.87,6.347 296.231,7.545 295.768,8.295ZM290.149,2.915C290.118,2.963 290.102,3.011 290.102,3.075C290.102,3.442 290.788,4.144 291.123,4.144C291.442,3.825 291.73,3.522 291.969,3.251C292.416,2.804 292.847,2.293 292.847,2.117C292.847,1.702 292.241,1 291.857,1C291.363,1 290.517,2.596 290.149,2.915Z" style="fill-rule:nonzero;"/>
        <path d="M383.071,8.917C383.023,8.965 382.991,9.029 382.991,9.109C382.991,9.54 383.789,10.386 384.236,10.386C384.54,10.386 389.169,5.262 392.058,2.245C392.09,2.213 392.106,2.181 392.106,2.149C392.106,1.798 391.164,0.872 390.845,0.872C390.797,0.872 390.765,0.888 390.733,0.92C388.387,2.883 385.178,6.555 383.071,8.917ZM389.377,8.295C389.329,8.359 389.313,8.423 389.313,8.47C389.313,8.885 390.063,9.54 390.542,9.54C390.925,9.54 392.282,7.704 392.282,7.592C392.282,7.209 391.563,6.347 391.116,6.347C390.478,6.347 389.839,7.545 389.377,8.295ZM383.758,2.915C383.726,2.963 383.71,3.011 383.71,3.075C383.71,3.442 384.396,4.144 384.731,4.144C385.051,3.825 385.338,3.522 385.577,3.251C386.024,2.804 386.455,2.293 386.455,2.117C386.455,1.702 385.849,1 385.466,1C384.971,1 384.125,2.596 383.758,2.915Z" style="fill-rule:nonzero;"/>
        <path d="M161.23,103.257L161.23,123.095" style="fill:none;stroke:black;stroke-width:0.77px;"/>
        <path d="M260.573,103.257L260.573,123.095" style="fill:none;stroke:black;stroke-width:0.77px;"/>
        <path d="M359.915,103.257L359.915,123.095" style="fill:none;stroke:black;stroke-width:0.77px;"/>
        <path d="M466.232,103.257L466.232,123.095" style="fill:none;stroke:black;stroke-width:0.77px;"/>
        <path d="M469.641,103.257L469.641,123.095" style="fill:none;stroke:black;stroke-width:2.48px;"/>
        <path d="M462.977,109.768C462.501,109.768 462.065,110.185 462.065,110.721C462.065,111.177 462.521,111.613 462.977,111.613C463.513,111.613 463.929,111.177 463.929,110.721C463.929,110.185 463.513,109.768 462.977,109.768Z" style="fill-rule:nonzero;"/>
        <path d="M462.977,114.728C462.501,114.728 462.065,115.144 462.065,115.68C462.065,116.136 462.521,116.573 462.977,116.573C463.513,116.573 463.929,116.136 463.929,115.68C463.929,115.144 463.513,114.728 462.977,114.728Z" style="fill-rule:nonzero;"/>
        <path d="M24.067,90.039C24.418,89.72 24.578,89.273 24.578,88.858C24.578,88.523 24.466,88.188 24.243,87.932C23.477,88.156 22.679,88.251 21.992,88.251C20.124,88.251 19.63,87.549 19.63,86.208C19.63,85.123 20.763,82.106 21.848,82.106C22.631,82.106 23.11,84.58 23.652,84.58C24.291,84.58 24.323,83.351 24.323,82.872C24.323,80.701 23.365,79.456 22.2,79.456C20.524,79.456 18.353,82.377 18.353,85.841C18.353,87.725 18.879,90.518 21.465,90.518C22.343,90.518 23.349,90.311 24.067,90.039Z" style="fill-rule:nonzero;"/>
        <path d="M25.694,84.899C25.982,85.474 26.141,87.214 26.141,88.507C26.141,89.018 26.109,89.465 26.061,89.736C26.045,89.784 26.045,89.816 26.045,89.848C26.045,90.279 26.572,90.582 26.971,90.582C27.195,90.582 27.386,90.486 27.402,90.263C27.514,89.129 27.897,86.16 28.408,86.112C28.647,86.08 28.759,88.555 28.823,89.975C28.839,90.374 29.254,90.566 29.653,90.566C30.02,90.566 30.387,90.406 30.403,90.103C30.499,88.906 31.696,85.825 31.888,85.841C32.239,85.873 32.75,89.943 32.75,89.991C32.766,90.406 33.133,90.662 33.452,90.662C33.676,90.662 33.883,90.518 33.883,90.199C33.883,88.842 33.42,86.495 33.053,85.027C32.925,84.548 32.462,84.053 31.984,84.053C31.632,84.053 31.265,84.309 31.026,84.995L29.861,87.884C29.861,87.485 29.366,84.867 29.334,84.676C29.174,84.037 28.919,83.766 28.631,83.766C28.057,83.766 27.37,84.835 27.115,86.017C27.083,85.586 26.652,84.66 26.62,84.58C26.54,84.404 26.428,84.34 26.285,84.34C26.013,84.34 25.678,84.596 25.678,84.819C25.678,84.851 25.678,84.883 25.694,84.899Z" style="fill-rule:nonzero;"/>
        <path d="M33.978,90.087C33.866,90.422 33.818,90.71 33.818,90.917C33.818,91.252 33.946,91.412 34.121,91.412C34.345,91.412 34.648,91.173 34.903,90.678C36.899,86.942 37.633,84.34 39.932,81.323C39.98,81.244 39.996,81.164 39.996,81.084C39.996,80.813 39.74,80.605 39.437,80.605C39.245,80.605 39.022,80.685 38.846,80.876C36.915,83.718 35.398,86.607 33.978,90.087Z" style="fill-rule:nonzero;"/>
        <path d="M41.624,80.238C41.416,82.6 41.209,86.464 41.209,88.65C41.209,90.055 41.336,90.534 41.799,90.534C42.582,90.534 42.326,87.757 42.486,87.15C45.024,85.985 45.519,86.719 45.519,84.963L45.519,84.787C45.519,84.293 45.503,84.053 45.184,84.053C44.577,84.053 42.725,84.724 42.406,84.771L42.406,84.564C42.406,83.941 42.502,82.984 42.518,82.425C43.38,81.994 45.008,81.914 45.758,81.754C46.173,81.691 46.205,80.733 46.205,80.03C46.205,79.663 46.109,79.408 45.423,79.408C44.178,79.408 41.656,79.935 41.624,80.238Z" style="fill-rule:nonzero;"/>
        <path d="M167.958,88.267C167.911,88.315 167.879,88.379 167.879,88.459C167.879,88.89 168.677,89.736 169.124,89.736C169.427,89.736 174.056,84.612 176.946,81.595C176.978,81.563 176.993,81.531 176.993,81.499C176.993,81.148 176.052,80.222 175.732,80.222C175.685,80.222 175.653,80.238 175.621,80.27C173.274,82.233 170.066,85.905 167.958,88.267ZM174.264,87.645C174.216,87.709 174.2,87.772 174.2,87.82C174.2,88.235 174.95,88.89 175.429,88.89C175.812,88.89 177.169,87.054 177.169,86.942C177.169,86.559 176.451,85.697 176.004,85.697C175.365,85.697 174.727,86.895 174.264,87.645ZM168.645,82.265C168.613,82.313 168.597,82.361 168.597,82.425C168.597,82.792 169.283,83.494 169.619,83.494C169.938,83.175 170.225,82.872 170.465,82.6C170.912,82.154 171.343,81.643 171.343,81.467C171.343,81.052 170.736,80.35 170.353,80.35C169.858,80.35 169.012,81.946 168.645,82.265Z" style="fill-rule:nonzero;"/>
        <path d="M267.301,88.267C267.253,88.315 267.221,88.379 267.221,88.459C267.221,88.89 268.019,89.736 268.466,89.736C268.769,89.736 273.399,84.612 276.288,81.595C276.32,81.563 276.336,81.531 276.336,81.499C276.336,81.148 275.394,80.222 275.075,80.222C275.027,80.222 274.995,80.238 274.963,80.27C272.617,82.233 269.408,85.905 267.301,88.267ZM273.606,87.645C273.558,87.709 273.542,87.772 273.542,87.82C273.542,88.235 274.293,88.89 274.772,88.89C275.155,88.89 276.511,87.054 276.511,86.942C276.511,86.559 275.793,85.697 275.346,85.697C274.708,85.697 274.069,86.895 273.606,87.645ZM267.987,82.265C267.955,82.313 267.939,82.361 267.939,82.425C267.939,82.792 268.626,83.494 268.961,83.494C269.28,83.175 269.568,82.872 269.807,82.6C270.254,82.154 270.685,81.643 270.685,81.467C270.685,81.052 270.078,80.35 269.695,80.35C269.2,80.35 268.354,81.946 267.987,82.265Z" style="fill-rule:nonzero;"/>
        <path d="M366.643,88.267C366.595,88.315 366.563,88.379 366.563,88.459C366.563,88.89 367.362,89.736 367.809,89.736C368.112,89.736 372.741,84.612 375.63,81.595C375.662,81.563 375.678,81.531 375.678,81.499C375.678,81.148 374.736,80.222 374.417,80.222C374.369,80.222 374.337,80.238 374.305,80.27C371.959,82.233 368.75,85.905 366.643,88.267ZM372.949,87.645C372.901,87.709 372.885,87.772 372.885,87.82C372.885,88.235 373.635,88.89 374.114,88.89C374.497,88.89 375.854,87.054 375.854,86.942C375.854,86.559 375.136,85.697 374.689,85.697C374.05,85.697 373.412,86.895 372.949,87.645ZM367.33,82.265C367.298,82.313 367.282,82.361 367.282,82.425C367.282,82.792 367.968,83.494 368.303,83.494C368.623,83.175 368.91,82.872 369.149,82.6C369.596,82.154 370.027,81.643 370.027,81.467C370.027,81.052 369.421,80.35 369.038,80.35C368.543,80.35 367.697,81.946 367.33,82.265Z" style="fill-rule:nonzero;"/>
        <path d="M31.445,31.057L31.445,30.218L30.185,30.218L30.185,25.719L27.686,27.939L27.686,30.218L24.987,30.218C25.287,29.458 26.107,28.418 27.446,27.079C28.666,25.859 29.366,24.78 29.566,23.88L26.147,23.88C25.987,25.839 24.827,28.698 23.608,30.258L23.608,31.057L27.686,31.057C27.686,31.757 27.666,32.157 27.626,32.257C27.506,32.477 27.127,32.617 26.507,32.657L26.467,33.217L31.385,33.217L31.305,32.637C30.345,32.557 30.165,32.457 30.165,31.957C30.165,31.897 30.165,31.777 30.185,31.577L30.185,31.057L31.445,31.057Z" style="fill-rule:nonzero;"/>
        <path d="M31.445,41.109L31.445,40.27L30.185,40.27L30.185,35.771L27.686,37.991L27.686,40.27L24.987,40.27C25.287,39.51 26.107,38.47 27.446,37.131C28.666,35.911 29.366,34.832 29.566,33.932L26.147,33.932C25.987,35.891 24.827,38.75 23.608,40.31L23.608,41.109L27.686,41.109C27.686,41.809 27.666,42.209 27.626,42.309C27.506,42.529 27.127,42.669 26.507,42.709L26.467,43.269L31.385,43.269L31.305,42.689C30.345,42.609 30.165,42.509 30.165,42.009C30.165,41.949 30.165,41.829 30.185,41.629L30.185,41.109L31.445,41.109Z" style="fill-rule:nonzero;"/>
        <path d="M0.051,43.745L470.881,43.745" style="fill:none;stroke:black;stroke-width:0.46px;"/>
        <path d="M0.051,38.786L470.881,38.786" style="fill:none;stroke:black;stroke-width:0.46px;"/>
        <path d="M0.051,33.826L470.881,33.826" style="fill:none;stroke:black;stroke-width:0.46px;"/>
        <path d="M0.051,28.867L470.881,28.867" style="fill:none;stroke:black;stroke-width:0.46px;"/>
        <path d="M0.051,23.907L470.881,23.907" style="fill:none;stroke:black;stroke-width:0.46px;"/>
        <path d="M14.145,43.086L14.899,46.756C14.939,46.974 14.959,47.173 14.959,47.371C14.959,49.315 12.975,50.942 10.833,50.942C10.178,50.942 9.543,50.783 8.948,50.486C10.476,50.327 11.626,49.395 11.626,48.026C11.626,46.816 10.634,45.546 9.365,45.546C7.916,45.546 6.925,46.657 6.925,48.105C6.925,50.129 8.571,51.458 10.555,51.458C13.213,51.458 15.475,49.732 15.475,47.252C15.475,46.697 14.602,42.769 14.622,42.908C16.744,41.876 18.192,40.051 18.192,38.127C18.192,35.489 16.07,33.465 13.431,33.465C13.392,33.465 13.114,33.485 12.638,33.525L11.765,29.339C14.721,26.839 16.07,24.181 16.07,21.265C16.07,19.023 15.177,16.643 13.372,14.143C11.329,15.79 10.158,19.083 10.158,22.594C10.158,23.844 10.317,25.054 10.595,26.205C6.072,29.994 3.81,33.485 3.81,36.679C3.81,40.428 7.678,43.543 11.884,43.543C12.816,43.543 13.511,43.404 14.145,43.086ZM14.086,17.02C14.741,17.694 15.078,18.488 15.078,19.42C15.078,21.344 13.709,23.507 11.031,25.887C10.892,25.312 10.852,24.677 10.852,23.983C10.852,20.65 12.082,16.98 13.729,16.98C13.868,16.98 13.987,17 14.086,17.02ZM14.503,42.273L13.094,35.647C13.372,35.627 13.53,35.608 13.59,35.608C15.296,35.608 16.486,37.214 16.486,38.861C16.486,40.17 15.792,41.321 14.503,42.273ZM12.598,35.727L14.026,42.551C13.332,42.928 12.558,43.086 11.626,43.086C8.412,43.086 5.635,40.686 5.635,37.77C5.635,35.132 7.599,32.414 11.309,29.637L12.142,33.604C10.079,34.04 8.333,35.786 8.333,37.75C8.333,39.416 9.523,40.587 11.309,40.865C10.218,40.19 9.682,39.337 9.682,38.325C9.682,36.957 10.952,35.945 12.598,35.727Z" style="fill-rule:nonzero;"/>
        <path d="M0.051,123.095L470.881,123.095" style="fill:none;stroke:black;stroke-width:0.46px;"/>
        <path d="M0.051,118.135L470.881,118.135" style="fill:none;stroke:black;stroke-width:0.46px;"/>
        <path d="M0.051,113.176L470.881,113.176" style="fill:none;stroke:black;stroke-width:0.46px;"/>
        <path d="M0.051,108.217L470.881,108.217" style="fill:none;stroke:black;stroke-width:0.46px;"/>
        <path d="M0.051,103.257L470.881,103.257" style="fill:none;stroke:black;stroke-width:0.46px;"/>
        <path d="M14.145,122.436L14.899,126.106C14.939,126.324 14.959,126.523 14.959,126.721C14.959,128.665 12.975,130.292 10.833,130.292C10.178,130.292 9.543,130.133 8.948,129.836C10.476,129.677 11.626,128.745 11.626,127.376C11.626,126.166 10.634,124.896 9.365,124.896C7.916,124.896 6.925,126.007 6.925,127.455C6.925,129.479 8.571,130.808 10.555,130.808C13.213,130.808 15.475,129.082 15.475,126.602C15.475,126.047 14.602,122.119 14.622,122.258C16.744,121.226 18.192,119.401 18.192,117.477C18.192,114.838 16.07,112.815 13.431,112.815C13.392,112.815 13.114,112.835 12.638,112.875L11.765,108.689C14.721,106.189 16.07,103.531 16.07,100.615C16.07,98.373 15.177,95.993 13.372,93.493C11.329,95.14 10.158,98.433 10.158,101.944C10.158,103.194 10.317,104.404 10.595,105.555C6.072,109.344 3.81,112.835 3.81,116.029C3.81,119.778 7.678,122.893 11.884,122.893C12.816,122.893 13.511,122.754 14.145,122.436ZM14.086,96.37C14.741,97.044 15.078,97.838 15.078,98.77C15.078,100.694 13.709,102.857 11.031,105.237C10.892,104.662 10.852,104.027 10.852,103.333C10.852,100 12.082,96.33 13.729,96.33C13.868,96.33 13.987,96.35 14.086,96.37ZM14.503,121.623L13.094,114.997C13.372,114.977 13.53,114.958 13.59,114.958C15.296,114.958 16.486,116.564 16.486,118.211C16.486,119.52 15.792,120.671 14.503,121.623ZM12.598,115.077L14.026,121.901C13.332,122.278 12.558,122.436 11.626,122.436C8.412,122.436 5.635,120.036 5.635,117.12C5.635,114.481 7.599,111.764 11.309,108.986L12.142,112.954C10.079,113.39 8.333,115.136 8.333,117.1C8.333,118.766 9.523,119.937 11.309,120.214C10.218,119.54 9.682,118.687 9.682,117.675C9.682,116.306 10.952,115.295 12.598,115.077Z" style="fill-rule:nonzero;"/>
        <path d="M66.28,38.841C68.323,38.841 70.842,37.135 70.842,35.389C70.842,34.338 69.91,33.664 68.581,33.664C66.577,33.664 64.058,35.33 64.058,37.115C64.058,38.206 65.03,38.841 66.28,38.841Z" style="fill-rule:nonzero;"/>
        <path d="M81.933,36.361C83.976,36.361 86.495,34.655 86.495,32.91C86.495,31.858 85.563,31.184 84.234,31.184C82.23,31.184 79.711,32.85 79.711,34.636C79.711,35.727 80.683,36.361 81.933,36.361Z" style="fill-rule:nonzero;"/>
        <path d="M97.741,33.882C99.784,33.882 102.303,32.176 102.303,30.43C102.303,29.379 101.371,28.704 100.042,28.704C98.038,28.704 95.519,30.371 95.519,32.156C95.519,33.247 96.491,33.882 97.741,33.882Z" style="fill-rule:nonzero;"/>
        <path d="M113.239,31.402C115.282,31.402 117.801,29.696 117.801,27.95C117.801,26.899 116.869,26.224 115.54,26.224C113.536,26.224 111.017,27.891 111.017,29.676C111.017,30.767 111.989,31.402 113.239,31.402Z" style="fill-rule:nonzero;"/>
        <path d="M128.892,28.922C130.935,28.922 133.454,27.216 133.454,25.471C133.454,24.419 132.522,23.745 131.193,23.745C129.189,23.745 126.67,25.411 126.67,27.197C126.67,28.288 127.642,28.922 128.892,28.922Z" style="fill-rule:nonzero;"/>
        <path d="M144.7,26.443C146.743,26.443 149.262,24.737 149.262,22.991C149.262,21.94 148.33,21.265 147.001,21.265C144.997,21.265 142.478,22.931 142.478,24.717C142.478,25.808 143.45,26.443 144.7,26.443Z" style="fill-rule:nonzero;"/>
        <path d="M139.556,25.252L137.651,25.887L137.651,22.455L139.556,21.821L139.556,25.252ZM139.556,17.04L139.556,20.015L137.651,20.65L137.651,17.675L137.155,17.675L137.155,20.789L136.124,21.126L136.124,22.931L137.155,22.594L137.155,26.026L136.124,26.363L136.124,28.169L137.155,27.831L137.155,30.668L137.651,30.668L137.651,27.692L139.556,27.058L139.556,30.033L140.051,30.033L140.051,26.919L141.083,26.582L141.083,24.776L140.051,25.114L140.051,21.682L141.083,21.344L141.083,19.539L140.051,19.876L140.051,17.04L139.556,17.04Z" style="fill-rule:nonzero;"/>
        <path d="M160.353,23.963C162.396,23.963 164.915,22.257 164.915,20.511C164.915,19.46 163.983,18.785 162.654,18.785C160.65,18.785 158.131,20.452 158.131,22.237C158.131,23.328 159.103,23.963 160.353,23.963Z" style="fill-rule:nonzero;"/>
        <path d="M171.924,18.948L182.463,18.948" style="fill:none;stroke:black;stroke-width:0.77px;"/>
        <path d="M176.006,21.483C178.049,21.483 180.568,19.777 180.568,18.032C180.568,16.98 179.636,16.306 178.307,16.306C176.303,16.306 173.784,17.972 173.784,19.757C173.784,20.849 174.756,21.483 176.006,21.483Z" style="fill-rule:nonzero;"/>
        <path d="M205.691,30.694L205.691,27.797L196.566,36.903L196.566,39.799L205.691,30.694Z" style="fill-rule:nonzero;"/>
        <path d="M227.388,30.694L227.388,27.797L218.263,36.903L218.263,39.799L227.388,30.694Z" style="fill-rule:nonzero;"/>
        <path d="M249.086,30.694L249.086,27.797L239.96,36.903L239.96,39.799L249.086,30.694Z" style="fill-rule:nonzero;"/>
        <path d="M270.628,30.694L270.628,27.797L261.503,36.903L261.503,39.799L270.628,30.694Z" style="fill-rule:nonzero;"/>
        <path d="M299.609,30.694L299.609,27.797L290.484,36.903L290.484,39.799L299.609,30.694Z" style="fill-rule:nonzero;"/>
        <path d="M321.152,30.694L321.152,27.797L312.026,36.903L312.026,39.799L321.152,30.694Z" style="fill-rule:nonzero;"/>
        <path d="M342.849,30.694L342.849,27.797L333.724,36.903L333.724,39.799L342.849,30.694Z" style="fill-rule:nonzero;"/>
        <path d="M364.546,30.694L364.546,27.797L355.421,36.903L355.421,39.799L364.546,30.694Z" style="fill-rule:nonzero;"/>
        <path d="M393.217,30.694L393.217,27.797L384.092,36.903L384.092,39.799L393.217,30.694Z" style="fill-rule:nonzero;"/>
        <path d="M414.915,30.694L414.915,27.797L405.789,36.903L405.789,39.799L414.915,30.694Z" style="fill-rule:nonzero;"/>
        <path d="M436.612,30.694L436.612,27.797L427.487,36.903L427.487,39.799L436.612,30.694Z" style="fill-rule:nonzero;"/>
        <path d="M458.309,30.694L458.309,27.797L449.184,36.903L449.184,39.799L458.309,30.694Z" style="fill-rule:nonzero;"/>
        <path d="M26.708,128.054L37.246,128.054" style="fill:none;stroke:black;stroke-width:0.77px;"/>
        <path d="M30.789,130.589C32.832,130.589 35.352,128.883 35.352,127.138C35.352,126.086 34.419,125.412 33.09,125.412C31.087,125.412 28.567,127.078 28.567,128.864C28.567,129.955 29.539,130.589 30.789,130.589Z" style="fill-rule:nonzero;"/>
        <path d="M47.372,128.11C49.415,128.11 51.935,126.404 51.935,124.658C51.935,123.607 51.002,122.932 49.673,122.932C47.67,122.932 45.15,124.599 45.15,126.384C45.15,127.475 46.122,128.11 47.372,128.11Z" style="fill-rule:nonzero;"/>
        <path d="M63.955,125.63C65.998,125.63 68.518,123.924 68.518,122.178C68.518,121.127 67.585,120.453 66.256,120.453C64.252,120.453 61.733,122.119 61.733,123.904C61.733,124.995 62.705,125.63 63.955,125.63Z" style="fill-rule:nonzero;"/>
        <path d="M55.844,126.681L58.641,124.618C59.871,123.726 60.347,122.714 60.387,121.96C60.387,120.849 59.375,120.016 58.185,120.016C57.351,120.016 56.737,120.333 56.34,120.988L56.479,114.739L55.844,114.739L55.844,126.681ZM57.689,120.81C58.324,120.81 58.8,121.266 58.8,121.881C58.8,122.912 57.431,124.896 56.399,125.551C56.34,125.214 56.3,124.559 56.3,123.587C56.3,123.051 56.34,122.397 56.419,121.643C56.717,121.087 57.133,120.81 57.689,120.81Z" style="fill-rule:nonzero;"/>
        <path d="M80.693,123.15C82.736,123.15 85.255,121.444 85.255,119.699C85.255,118.647 84.323,117.973 82.994,117.973C80.99,117.973 78.471,119.639 78.471,121.425C78.471,122.516 79.443,123.15 80.693,123.15Z" style="fill-rule:nonzero;"/>
        <path d="M97.276,120.671C99.319,120.671 101.838,118.965 101.838,117.219C101.838,116.168 100.906,115.493 99.577,115.493C97.573,115.493 95.054,117.159 95.054,118.945C95.054,120.036 96.026,120.671 97.276,120.671Z" style="fill-rule:nonzero;"/>
        <path d="M113.859,118.191C115.902,118.191 118.421,116.485 118.421,114.739C118.421,113.688 117.489,113.013 116.16,113.013C114.156,113.013 111.637,114.68 111.637,116.465C111.637,117.556 112.609,118.191 113.859,118.191Z" style="fill-rule:nonzero;"/>
        <path d="M130.441,115.711C132.485,115.711 135.004,114.005 135.004,112.26C135.004,111.208 134.072,110.534 132.743,110.534C130.739,110.534 128.22,112.2 128.22,113.985C128.22,115.077 129.192,115.711 130.441,115.711Z" style="fill-rule:nonzero;"/>
        <path d="M122.33,116.763L125.127,114.7C126.357,113.807 126.834,112.795 126.873,112.041C126.873,110.931 125.861,110.097 124.671,110.097C123.838,110.097 123.223,110.415 122.826,111.069L122.965,104.821L122.33,104.821L122.33,116.763ZM124.175,110.891C124.81,110.891 125.286,111.347 125.286,111.962C125.286,112.994 123.917,114.977 122.886,115.632C122.826,115.295 122.787,114.64 122.787,113.668C122.787,113.132 122.826,112.478 122.906,111.724C123.203,111.169 123.62,110.891 124.175,110.891Z" style="fill-rule:nonzero;"/>
        <path d="M147.179,113.232C149.223,113.232 151.742,111.526 151.742,109.78C151.742,108.729 150.81,108.054 149.48,108.054C147.477,108.054 144.958,109.72 144.958,111.506C144.958,112.597 145.93,113.232 147.179,113.232Z" style="fill-rule:nonzero;"/>
        <path d="M178.105,110.044L178.105,107.147L168.979,116.253L168.979,119.149L178.105,110.044Z" style="fill-rule:nonzero;"/>
        <path d="M201.042,110.044L201.042,107.147L191.917,116.253L191.917,119.149L201.042,110.044Z" style="fill-rule:nonzero;"/>
        <path d="M223.979,110.044L223.979,107.147L214.854,116.253L214.854,119.149L223.979,110.044Z" style="fill-rule:nonzero;"/>
        <path d="M247.071,110.044L247.071,107.147L237.946,116.253L237.946,119.149L247.071,110.044Z" style="fill-rule:nonzero;"/>
        <path d="M277.447,110.044L277.447,107.147L268.322,116.253L268.322,119.149L277.447,110.044Z" style="fill-rule:nonzero;"/>
        <path d="M300.384,110.044L300.384,107.147L291.259,116.253L291.259,119.149L300.384,110.044Z" style="fill-rule:nonzero;"/>
        <path d="M323.321,110.044L323.321,107.147L314.196,116.253L314.196,119.149L323.321,110.044Z" style="fill-rule:nonzero;"/>
        <path d="M346.413,110.044L346.413,107.147L337.288,116.253L337.288,119.149L346.413,110.044Z" style="fill-rule:nonzero;"/>
        <path d="M376.789,110.044L376.789,107.147L367.664,116.253L367.664,119.149L376.789,110.044Z" style="fill-rule:nonzero;"/>
        <path d="M399.727,110.044L399.727,107.147L390.601,116.253L390.601,119.149L399.727,110.044Z" style="fill-rule:nonzero;"/>
        <path d="M422.664,110.044L422.664,107.147L413.538,116.253L413.538,119.149L422.664,110.044Z" style="fill-rule:nonzero;"/>
        <path d="M445.756,110.044L445.756,107.147L436.63,116.253L436.63,119.149L445.756,110.044Z" style="fill-rule:nonzero;"/>
    </g>
</svg>
