<svg clip-rule="evenodd" fill-rule="evenodd" stroke-linejoin="round" stroke-miterlimit="2" viewBox="0 0 471 131" xmlns="http://www.w3.org/2000/svg"><path d="m39.726 23.907v19.838" fill="none" stroke="#000" stroke-width="2.48"/><path d="m43.135 23.907v19.838" fill="none" stroke="#000" stroke-width=".77"/><path d="m46.39 30.418c-.476 0-.912.417-.912.953 0 .456.456.892.912.892.536 0 .952-.436.952-.892 0-.536-.416-.953-.952-.953z" fill-rule="nonzero"/><path d="m46.39 35.378c-.476 0-.912.416-.912.952 0 .456.456.893.912.893.536 0 .952-.437.952-.893 0-.536-.416-.952-.952-.952z" fill-rule="nonzero"/><path d="m188.972 23.907v19.838" fill="none" stroke="#000" stroke-width=".77"/><path d="m282.89 23.907v19.838" fill="none" stroke="#000" stroke-width=".77"/><path d="m376.653 23.907v19.838" fill="none" stroke="#000" stroke-width=".77"/><path d="m470.571 23.907v19.838" fill="none" stroke="#000" stroke-width=".77"/><path d="m53.449 11.088c.016.128.239.176.51.176.415 0 .942-.128.942-.319.016-.687 0-1.134.16-2.012.591-.207 1.245-.526 1.995-.798.096 1.245.128 2.554.176 2.81 0 .095.223.127.495.127.479 0 1.149-.111 1.149-.303 0-2.538-.016-10.663-1.82-10.663-1.644 0-3.607 5.699-3.607 10.743zm2.937-7.327c.495 0 .511 1.485.574 2.379-.446.239-1.037.479-1.548.686.192-.894.479-3.033.974-3.065z" fill-rule="nonzero"/><path d="m59.688 5.549c.287.575.447 2.315.447 3.608 0 .511-.032.958-.08 1.229-.016.048-.016.08-.016.112 0 .431.527.734.926.734.224 0 .415-.096.431-.319.112-1.134.495-4.103 1.006-4.151.239-.032.351 2.443.415 3.863.016.4.431.591.83.591.367 0 .734-.16.75-.463.096-1.197 1.293-4.278 1.485-4.262.351.032.862 4.103.862 4.15.016.415.383.671.702.671.224 0 .431-.144.431-.463 0-1.357-.463-3.703-.83-5.172-.128-.479-.591-.974-1.069-.974-.352 0-.719.256-.958.942l-1.166 2.889c0-.399-.494-3.017-.526-3.208-.16-.639-.415-.91-.703-.91-.574 0-1.261 1.069-1.516 2.251-.032-.431-.463-1.357-.495-1.437-.08-.176-.192-.239-.335-.239-.272 0-.607.255-.607.478 0 .032 0 .064.016.08z" fill-rule="nonzero"/><path d="m67.972 10.737c-.112.335-.16.623-.16.83 0 .335.128.495.303.495.224 0 .527-.239.782-.734 1.996-3.736 2.73-6.337 5.029-9.354.048-.08.064-.16.064-.24 0-.271-.256-.479-.559-.479-.192 0-.415.08-.591.272-1.931 2.841-3.448 5.73-4.868 9.21z" fill-rule="nonzero"/><path d="m75.65 8.135c-.24-.064-.447-.159-.655-.191.064 1.149.064 1.724.096 2.634.399.478 1.165.606 2.985.606.399 0 .83 0 1.325-.016 1.676-.67 2.522-3.927 2.522-6.688 0-3.608-1.213-4.406-3.065-4.406-1.404 0-2.49.814-3.687 2.267-.096.67-.016 1.404-.128 2.57.16 0 .399-.24.511-.32.032.527.128 1.677.128 2.698 0 .303-.016.591-.032.846zm.814-4.15c.894-.782 2.043-1.165 2.761-1.165.958 0 1.357 1.005 1.357 2.027 0 1.325-.926 3.671-2.937 3.671-.271 0-.559-.032-.894-.111.032-.431.064-.99.064-1.565 0-.958-.08-2.011-.351-2.857z" fill-rule="nonzero"/><path d="m195.545 8.917c-.048.048-.08.112-.08.192 0 .431.798 1.277 1.245 1.277.304 0 4.933-5.124 7.822-8.141.032-.032.048-.064.048-.096 0-.351-.942-1.277-1.261-1.277-.048 0-.08.016-.112.048-2.346 1.963-5.555 5.635-7.662 7.997zm6.305-.622c-.048.064-.064.128-.064.175 0 .415.751 1.07 1.23 1.07.383 0 1.74-1.836 1.74-1.948 0-.383-.719-1.245-1.166-1.245-.638 0-1.277 1.198-1.74 1.948zm-5.619-5.38c-.032.048-.048.096-.048.16 0 .367.687 1.069 1.022 1.069.319-.319.607-.622.846-.893.447-.447.878-.958.878-1.134 0-.415-.606-1.117-.99-1.117-.494 0-1.34 1.596-1.708 1.915z" fill-rule="nonzero"/><path d="m289.463 8.917c-.048.048-.08.112-.08.192 0 .431.798 1.277 1.245 1.277.304 0 4.933-5.124 7.822-8.141.032-.032.048-.064.048-.096 0-.351-.942-1.277-1.261-1.277-.048 0-.08.016-.112.048-2.346 1.963-5.555 5.635-7.662 7.997zm6.305-.622c-.047.064-.063.128-.063.175 0 .415.75 1.07 1.229 1.07.383 0 1.74-1.836 1.74-1.948 0-.383-.719-1.245-1.166-1.245-.638 0-1.277 1.198-1.74 1.948zm-5.619-5.38c-.031.048-.047.096-.047.16 0 .367.686 1.069 1.021 1.069.319-.319.607-.622.846-.893.447-.447.878-.958.878-1.134 0-.415-.606-1.117-.99-1.117-.494 0-1.34 1.596-1.708 1.915z" fill-rule="nonzero"/><path d="m383.071 8.917c-.048.048-.08.112-.08.192 0 .431.798 1.277 1.245 1.277.304 0 4.933-5.124 7.822-8.141.032-.032.048-.064.048-.096 0-.351-.942-1.277-1.261-1.277-.048 0-.08.016-.112.048-2.346 1.963-5.555 5.635-7.662 7.997zm6.306-.622c-.048.064-.064.128-.064.175 0 .415.75 1.07 1.229 1.07.383 0 1.74-1.836 1.74-1.948 0-.383-.719-1.245-1.166-1.245-.638 0-1.277 1.198-1.739 1.948zm-5.619-5.38c-.032.048-.048.096-.048.16 0 .367.686 1.069 1.021 1.069.32-.319.607-.622.846-.893.447-.447.878-.958.878-1.134 0-.415-.606-1.117-.989-1.117-.495 0-1.341 1.596-1.708 1.915z" fill-rule="nonzero"/><path d="m161.23 103.257v19.838" fill="none" stroke="#000" stroke-width=".77"/><path d="m260.573 103.257v19.838" fill="none" stroke="#000" stroke-width=".77"/><path d="m359.915 103.257v19.838" fill="none" stroke="#000" stroke-width=".77"/><path d="m466.232 103.257v19.838" fill="none" stroke="#000" stroke-width=".77"/><path d="m469.641 103.257v19.838" fill="none" stroke="#000" stroke-width="2.48"/><path d="m462.977 109.768c-.476 0-.912.417-.912.953 0 .456.456.892.912.892.536 0 .952-.436.952-.892 0-.536-.416-.953-.952-.953z" fill-rule="nonzero"/><path d="m462.977 114.728c-.476 0-.912.416-.912.952 0 .456.456.893.912.893.536 0 .952-.437.952-.893 0-.536-.416-.952-.952-.952z" fill-rule="nonzero"/><path d="m24.067 90.039c.351-.319.511-.766.511-1.181 0-.335-.112-.67-.335-.926-.766.224-1.564.319-2.251.319-1.868 0-2.362-.702-2.362-2.043 0-1.085 1.133-4.102 2.218-4.102.783 0 1.262 2.474 1.804 2.474.639 0 .671-1.229.671-1.708 0-2.171-.958-3.416-2.123-3.416-1.676 0-3.847 2.921-3.847 6.385 0 1.884.526 4.677 3.112 4.677.878 0 1.884-.207 2.602-.479z" fill-rule="nonzero"/><path d="m25.694 84.899c.288.575.447 2.315.447 3.608 0 .511-.032.958-.08 1.229-.016.048-.016.08-.016.112 0 .431.527.734.926.734.224 0 .415-.096.431-.319.112-1.134.495-4.103 1.006-4.151.239-.032.351 2.443.415 3.863.016.399.431.591.83.591.367 0 .734-.16.75-.463.096-1.197 1.293-4.278 1.485-4.262.351.032.862 4.102.862 4.15.016.415.383.671.702.671.224 0 .431-.144.431-.463 0-1.357-.463-3.704-.83-5.172-.128-.479-.591-.974-1.069-.974-.352 0-.719.256-.958.942l-1.165 2.889c0-.399-.495-3.017-.527-3.208-.16-.639-.415-.91-.703-.91-.574 0-1.261 1.069-1.516 2.251-.032-.431-.463-1.357-.495-1.437-.08-.176-.192-.24-.335-.24-.272 0-.607.256-.607.479 0 .032 0 .064.016.08z" fill-rule="nonzero"/><path d="m33.978 90.087c-.112.335-.16.623-.16.83 0 .335.128.495.303.495.224 0 .527-.239.782-.734 1.996-3.736 2.73-6.338 5.029-9.355.048-.079.064-.159.064-.239 0-.271-.256-.479-.559-.479-.192 0-.415.08-.591.271-1.931 2.842-3.448 5.731-4.868 9.211z" fill-rule="nonzero"/><path d="m41.624 80.238c-.208 2.362-.415 6.226-.415 8.412 0 1.405.127 1.884.59 1.884.783 0 .527-2.777.687-3.384 2.538-1.165 3.033-.431 3.033-2.187v-.176c0-.494-.016-.734-.335-.734-.607 0-2.459.671-2.778.718v-.207c0-.623.096-1.58.112-2.139.862-.431 2.49-.511 3.24-.671.415-.063.447-1.021.447-1.724 0-.367-.096-.622-.782-.622-1.245 0-3.767.527-3.799.83z" fill-rule="nonzero"/><path d="m167.958 88.267c-.047.048-.079.112-.079.192 0 .431.798 1.277 1.245 1.277.303 0 4.932-5.124 7.822-8.141.032-.032.047-.064.047-.096 0-.351-.941-1.277-1.261-1.277-.047 0-.079.016-.111.048-2.347 1.963-5.555 5.635-7.663 7.997zm6.306-.622c-.048.064-.064.127-.064.175 0 .415.75 1.07 1.229 1.07.383 0 1.74-1.836 1.74-1.948 0-.383-.718-1.245-1.165-1.245-.639 0-1.277 1.198-1.74 1.948zm-5.619-5.38c-.032.048-.048.096-.048.16 0 .367.686 1.069 1.022 1.069.319-.319.606-.622.846-.894.447-.446.878-.957.878-1.133 0-.415-.607-1.117-.99-1.117-.495 0-1.341 1.596-1.708 1.915z" fill-rule="nonzero"/><path d="m267.301 88.267c-.048.048-.08.112-.08.192 0 .431.798 1.277 1.245 1.277.303 0 4.933-5.124 7.822-8.141.032-.032.048-.064.048-.096 0-.351-.942-1.277-1.261-1.277-.048 0-.08.016-.112.048-2.346 1.963-5.555 5.635-7.662 7.997zm6.305-.622c-.048.064-.064.127-.064.175 0 .415.751 1.07 1.23 1.07.383 0 1.739-1.836 1.739-1.948 0-.383-.718-1.245-1.165-1.245-.638 0-1.277 1.198-1.74 1.948zm-5.619-5.38c-.032.048-.048.096-.048.16 0 .367.687 1.069 1.022 1.069.319-.319.607-.622.846-.894.447-.446.878-.957.878-1.133 0-.415-.607-1.117-.99-1.117-.495 0-1.341 1.596-1.708 1.915z" fill-rule="nonzero"/><path d="m366.643 88.267c-.048.048-.08.112-.08.192 0 .431.799 1.277 1.246 1.277.303 0 4.932-5.124 7.821-8.141.032-.032.048-.064.048-.096 0-.351-.942-1.277-1.261-1.277-.048 0-.08.016-.112.048-2.346 1.963-5.555 5.635-7.662 7.997zm6.306-.622c-.048.064-.064.127-.064.175 0 .415.75 1.07 1.229 1.07.383 0 1.74-1.836 1.74-1.948 0-.383-.718-1.245-1.165-1.245-.639 0-1.277 1.198-1.74 1.948zm-5.619-5.38c-.032.048-.048.096-.048.16 0 .367.686 1.069 1.021 1.069.32-.319.607-.622.846-.894.447-.446.878-.957.878-1.133 0-.415-.606-1.117-.989-1.117-.495 0-1.341 1.596-1.708 1.915z" fill-rule="nonzero"/><path d="m31.445 31.057v-.839h-1.26v-4.499l-2.499 2.22v2.279h-2.699c.3-.76 1.12-1.8 2.459-3.139 1.22-1.22 1.92-2.299 2.12-3.199h-3.419c-.16 1.959-1.32 4.818-2.539 6.378v.799h4.078c0 .7-.02 1.1-.06 1.2-.12.22-.499.36-1.119.4l-.04.56h4.918l-.08-.58c-.96-.08-1.14-.18-1.14-.68 0-.06 0-.18.02-.38v-.52z" fill-rule="nonzero"/><path d="m31.445 41.109v-.839h-1.26v-4.499l-2.499 2.22v2.279h-2.699c.3-.76 1.12-1.8 2.459-3.139 1.22-1.22 1.92-2.299 2.12-3.199h-3.419c-.16 1.959-1.32 4.818-2.539 6.378v.799h4.078c0 .7-.02 1.1-.06 1.2-.12.22-.499.36-1.119.4l-.04.56h4.918l-.08-.58c-.96-.08-1.14-.18-1.14-.68 0-.06 0-.18.02-.38v-.52z" fill-rule="nonzero"/><path d="m.051 43.745h470.83" fill="none" stroke="#000" stroke-width=".46"/><path d="m.051 38.786h470.83" fill="none" stroke="#000" stroke-width=".46"/><path d="m.051 33.826h470.83" fill="none" stroke="#000" stroke-width=".46"/><path d="m.051 28.867h470.83" fill="none" stroke="#000" stroke-width=".46"/><path d="m.051 23.907h470.83" fill="none" stroke="#000" stroke-width=".46"/><path d="m14.145 43.086.754 3.67c.04.218.06.417.06.615 0 1.944-1.984 3.571-4.126 3.571-.655 0-1.29-.159-1.885-.456 1.528-.159 2.678-1.091 2.678-2.46 0-1.21-.992-2.48-2.261-2.48-1.449 0-2.44 1.111-2.44 2.559 0 2.024 1.646 3.353 3.63 3.353 2.658 0 4.92-1.726 4.92-4.206 0-.555-.873-4.483-.853-4.344 2.122-1.032 3.57-2.857 3.57-4.781 0-2.638-2.122-4.662-4.761-4.662-.039 0-.317.02-.793.06l-.873-4.186c2.956-2.5 4.305-5.158 4.305-8.074 0-2.242-.893-4.622-2.698-7.122-2.043 1.647-3.214 4.94-3.214 8.451 0 1.25.159 2.46.437 3.611-4.523 3.789-6.785 7.28-6.785 10.474 0 3.749 3.868 6.864 8.074 6.864.932 0 1.627-.139 2.261-.457zm-.059-26.066c.655.674.992 1.468.992 2.4 0 1.924-1.369 4.087-4.047 6.467-.139-.575-.179-1.21-.179-1.904 0-3.333 1.23-7.003 2.877-7.003.139 0 .258.02.357.04zm.417 25.253-1.409-6.626c.278-.02.436-.039.496-.039 1.706 0 2.896 1.606 2.896 3.253 0 1.309-.694 2.46-1.983 3.412zm-1.905-6.546 1.428 6.824c-.694.377-1.468.535-2.4.535-3.214 0-5.991-2.4-5.991-5.316 0-2.638 1.964-5.356 5.674-8.133l.833 3.967c-2.063.436-3.809 2.182-3.809 4.146 0 1.666 1.19 2.837 2.976 3.115-1.091-.675-1.627-1.528-1.627-2.54 0-1.368 1.27-2.38 2.916-2.598z" fill-rule="nonzero"/><path d="m.051 123.095h470.83" fill="none" stroke="#000" stroke-width=".46"/><path d="m.051 118.135h470.83" fill="none" stroke="#000" stroke-width=".46"/><path d="m.051 113.176h470.83" fill="none" stroke="#000" stroke-width=".46"/><path d="m.051 108.217h470.83" fill="none" stroke="#000" stroke-width=".46"/><path d="m.051 103.257h470.83" fill="none" stroke="#000" stroke-width=".46"/><path d="m14.145 122.436.754 3.67c.04.218.06.417.06.615 0 1.944-1.984 3.571-4.126 3.571-.655 0-1.29-.159-1.885-.456 1.528-.159 2.678-1.091 2.678-2.46 0-1.21-.992-2.48-2.261-2.48-1.449 0-2.44 1.111-2.44 2.559 0 2.024 1.646 3.353 3.63 3.353 2.658 0 4.92-1.726 4.92-4.206 0-.555-.873-4.483-.853-4.344 2.122-1.032 3.57-2.857 3.57-4.781 0-2.639-2.122-4.662-4.761-4.662-.039 0-.317.02-.793.06l-.873-4.186c2.956-2.5 4.305-5.158 4.305-8.074 0-2.242-.893-4.622-2.698-7.122-2.043 1.647-3.214 4.94-3.214 8.451 0 1.25.159 2.46.437 3.611-4.523 3.789-6.785 7.28-6.785 10.474 0 3.749 3.868 6.864 8.074 6.864.932 0 1.627-.139 2.261-.457zm-.059-26.066c.655.674.992 1.468.992 2.4 0 1.924-1.369 4.087-4.047 6.467-.139-.575-.179-1.21-.179-1.904 0-3.333 1.23-7.003 2.877-7.003.139 0 .258.02.357.04zm.417 25.253-1.409-6.626c.278-.02.436-.039.496-.039 1.706 0 2.896 1.606 2.896 3.253 0 1.309-.694 2.46-1.983 3.412zm-1.905-6.546 1.428 6.824c-.694.377-1.468.535-2.4.535-3.214 0-5.991-2.4-5.991-5.316 0-2.639 1.964-5.356 5.674-8.134l.833 3.968c-2.063.436-3.809 2.182-3.809 4.146 0 1.666 1.19 2.837 2.976 3.114-1.091-.674-1.627-1.527-1.627-2.539 0-1.369 1.27-2.38 2.916-2.598z" fill-rule="nonzero"/><path d="m66.28 38.841c2.043 0 4.562-1.706 4.562-3.452 0-1.051-.932-1.725-2.261-1.725-2.004 0-4.523 1.666-4.523 3.451 0 1.091.972 1.726 2.222 1.726z" fill-rule="nonzero"/><path d="m81.933 36.361c2.043 0 4.562-1.706 4.562-3.451 0-1.052-.932-1.726-2.261-1.726-2.004 0-4.523 1.666-4.523 3.452 0 1.091.972 1.725 2.222 1.725z" fill-rule="nonzero"/><path d="m97.741 33.882c2.043 0 4.562-1.706 4.562-3.452 0-1.051-.932-1.726-2.261-1.726-2.004 0-4.523 1.667-4.523 3.452 0 1.091.972 1.726 2.222 1.726z" fill-rule="nonzero"/><path d="m113.239 31.402c2.043 0 4.562-1.706 4.562-3.452 0-1.051-.932-1.726-2.261-1.726-2.004 0-4.523 1.667-4.523 3.452 0 1.091.972 1.726 2.222 1.726z" fill-rule="nonzero"/><path d="m128.892 28.922c2.043 0 4.562-1.706 4.562-3.451 0-1.052-.932-1.726-2.261-1.726-2.004 0-4.523 1.666-4.523 3.452 0 1.091.972 1.725 2.222 1.725z" fill-rule="nonzero"/><path d="m144.7 26.443c2.043 0 4.562-1.706 4.562-3.452 0-1.051-.932-1.726-2.261-1.726-2.004 0-4.523 1.666-4.523 3.452 0 1.091.972 1.726 2.222 1.726z" fill-rule="nonzero"/><path d="m139.556 25.252-1.905.635v-3.432l1.905-.634zm0-8.212v2.975l-1.905.635v-2.975h-.496v3.114l-1.031.337v1.805l1.031-.337v3.432l-1.031.337v1.806l1.031-.338v2.837h.496v-2.976l1.905-.634v2.975h.495v-3.114l1.032-.337v-1.806l-1.032.338v-3.432l1.032-.338v-1.805l-1.032.337v-2.836z" fill-rule="nonzero"/><path d="m160.353 23.963c2.043 0 4.562-1.706 4.562-3.452 0-1.051-.932-1.726-2.261-1.726-2.004 0-4.523 1.667-4.523 3.452 0 1.091.972 1.726 2.222 1.726z" fill-rule="nonzero"/><path d="m171.924 18.948h10.539" fill="none" stroke="#000" stroke-width=".77"/><path d="m176.006 21.483c2.043 0 4.562-1.706 4.562-3.451 0-1.052-.932-1.726-2.261-1.726-2.004 0-4.523 1.666-4.523 3.451 0 1.092.972 1.726 2.222 1.726z" fill-rule="nonzero"/><path d="m205.691 30.694v-2.897l-9.125 9.106v2.896z" fill-rule="nonzero"/><path d="m227.388 30.694v-2.897l-9.125 9.106v2.896z" fill-rule="nonzero"/><path d="m249.086 30.694v-2.897l-9.126 9.106v2.896z" fill-rule="nonzero"/><path d="m270.628 30.694v-2.897l-9.125 9.106v2.896z" fill-rule="nonzero"/><path d="m299.609 30.694v-2.897l-9.125 9.106v2.896z" fill-rule="nonzero"/><path d="m321.152 30.694v-2.897l-9.126 9.106v2.896z" fill-rule="nonzero"/><path d="m342.849 30.694v-2.897l-9.125 9.106v2.896z" fill-rule="nonzero"/><path d="m364.546 30.694v-2.897l-9.125 9.106v2.896z" fill-rule="nonzero"/><path d="m393.217 30.694v-2.897l-9.125 9.106v2.896z" fill-rule="nonzero"/><path d="m414.915 30.694v-2.897l-9.126 9.106v2.896z" fill-rule="nonzero"/><path d="m436.612 30.694v-2.897l-9.125 9.106v2.896z" fill-rule="nonzero"/><path d="m458.309 30.694v-2.897l-9.125 9.106v2.896z" fill-rule="nonzero"/><path d="m26.708 128.054h10.538" fill="none" stroke="#000" stroke-width=".77"/><g fill-rule="nonzero"><path d="m30.789 130.589c2.043 0 4.563-1.706 4.563-3.451 0-1.052-.933-1.726-2.262-1.726-2.003 0-4.523 1.666-4.523 3.452 0 1.091.972 1.725 2.222 1.725z"/><path d="m47.372 128.11c2.043 0 4.563-1.706 4.563-3.452 0-1.051-.933-1.726-2.262-1.726-2.003 0-4.523 1.667-4.523 3.452 0 1.091.972 1.726 2.222 1.726z"/><path d="m63.955 125.63c2.043 0 4.563-1.706 4.563-3.452 0-1.051-.933-1.725-2.262-1.725-2.004 0-4.523 1.666-4.523 3.451 0 1.091.972 1.726 2.222 1.726z"/><path d="m55.844 126.681 2.797-2.063c1.23-.892 1.706-1.904 1.746-2.658 0-1.111-1.012-1.944-2.202-1.944-.834 0-1.448.317-1.845.972l.139-6.249h-.635zm1.845-5.871c.635 0 1.111.456 1.111 1.071 0 1.031-1.369 3.015-2.401 3.67-.059-.337-.099-.992-.099-1.964 0-.536.04-1.19.119-1.944.298-.556.714-.833 1.27-.833z"/><path d="m80.693 123.15c2.043 0 4.562-1.706 4.562-3.451 0-1.052-.932-1.726-2.261-1.726-2.004 0-4.523 1.666-4.523 3.452 0 1.091.972 1.725 2.222 1.725z"/><path d="m97.276 120.671c2.043 0 4.562-1.706 4.562-3.452 0-1.051-.932-1.726-2.261-1.726-2.004 0-4.523 1.666-4.523 3.452 0 1.091.972 1.726 2.222 1.726z"/><path d="m113.859 118.191c2.043 0 4.562-1.706 4.562-3.452 0-1.051-.932-1.726-2.261-1.726-2.004 0-4.523 1.667-4.523 3.452 0 1.091.972 1.726 2.222 1.726z"/><path d="m130.441 115.711c2.044 0 4.563-1.706 4.563-3.451 0-1.052-.932-1.726-2.261-1.726-2.004 0-4.523 1.666-4.523 3.451 0 1.092.972 1.726 2.221 1.726z"/><path d="m122.33 116.763 2.797-2.063c1.23-.893 1.707-1.905 1.746-2.659 0-1.11-1.012-1.944-2.202-1.944-.833 0-1.448.318-1.845.972l.139-6.248h-.635zm1.845-5.872c.635 0 1.111.456 1.111 1.071 0 1.032-1.369 3.015-2.4 3.67-.06-.337-.099-.992-.099-1.964 0-.536.039-1.19.119-1.944.297-.555.714-.833 1.269-.833z"/><path d="m147.179 113.232c2.044 0 4.563-1.706 4.563-3.452 0-1.051-.932-1.726-2.262-1.726-2.003 0-4.522 1.666-4.522 3.452 0 1.091.972 1.726 2.221 1.726z"/><path d="m178.105 110.044v-2.897l-9.126 9.106v2.896z"/><path d="m201.042 110.044v-2.897l-9.125 9.106v2.896z"/><path d="m223.979 110.044v-2.897l-9.125 9.106v2.896z"/><path d="m247.071 110.044v-2.897l-9.125 9.106v2.896z"/><path d="m277.447 110.044v-2.897l-9.125 9.106v2.896z"/><path d="m300.384 110.044v-2.897l-9.125 9.106v2.896z"/><path d="m323.321 110.044v-2.897l-9.125 9.106v2.896z"/><path d="m346.413 110.044v-2.897l-9.125 9.106v2.896z"/><path d="m376.789 110.044v-2.897l-9.125 9.106v2.896z"/><path d="m399.727 110.044v-2.897l-9.126 9.106v2.896z"/><path d="m422.664 110.044v-2.897l-9.126 9.106v2.896z"/><path d="m445.756 110.044v-2.897l-9.126 9.106v2.896z"/></g></svg>