<?xml version="1.0" encoding="UTF-8" standalone="no"?><!DOCTYPE svg PUBLIC "-//W3C//DTD SVG 1.1//EN" "http://www.w3.org/Graphics/SVG/1.1/DTD/svg11.dtd"><svg width="100%" height="100%" viewBox="0 0 471 52" version="1.1" xmlns="http://www.w3.org/2000/svg" xmlns:xlink="http://www.w3.org/1999/xlink" xml:space="preserve" xmlns:serif="http://www.serif.com/" style="fill-rule:evenodd;clip-rule:evenodd;stroke-linejoin:round;stroke-miterlimit:2;"><g><path d="M466.232,17.093l-0,19.837" style="fill:none;stroke:#000;stroke-width:0.77px;"/><path d="M469.641,17.093l-0,19.837" style="fill:none;stroke:#000;stroke-width:2.48px;"/><path d="M64.15,44.068c-0.871,-0.525 -2.029,-0.848 -2.995,-0.848c-2.614,0 -5.156,2.363 -5.156,5.096c0,1.539 1.206,3.294 3.652,3.294c1.158,0 1.921,-0.346 3.031,-1.027l0.537,-1.981l-0.644,-0c-0.668,1.778 -1.552,2.554 -2.828,2.554c-1.48,0 -2.447,-1.074 -2.447,-2.721c-0,-1.957 1.432,-4.761 3.867,-4.761c1.277,-0 2.255,0.859 2.183,2.148c0.096,0.012 0.263,0.048 0.418,0.119l0.382,-1.873Z" style="fill-rule:nonzero;"/><path d="M47.714,11.088c0.016,0.128 0.24,0.176 0.511,0.176c0.415,-0 0.942,-0.128 0.942,-0.32c0.016,-0.686 -0,-1.133 0.16,-2.011c0.59,-0.207 1.245,-0.527 1.995,-0.798c0.096,1.245 0.128,2.554 0.176,2.809c0,0.096 0.223,0.128 0.494,0.128c0.479,-0 1.15,-0.112 1.15,-0.303c-0,-2.538 -0.016,-10.663 -1.82,-10.663c-1.644,-0 -3.608,5.698 -3.608,10.743l0,0.239Zm2.938,-7.327c0.494,0 0.51,1.485 0.574,2.379c-0.447,0.239 -1.037,0.478 -1.548,0.686c0.191,-0.894 0.479,-3.033 0.974,-3.065Z" style="fill-rule:nonzero;"/><path d="M53.954,5.549c0.287,0.575 0.447,2.315 0.447,3.608c0,0.51 -0.032,0.957 -0.08,1.229c-0.016,0.048 -0.016,0.08 -0.016,0.111c0,0.431 0.527,0.735 0.926,0.735c0.223,-0 0.415,-0.096 0.431,-0.32c0.112,-1.133 0.495,-4.102 1.006,-4.15c0.239,-0.032 0.351,2.442 0.415,3.863c0.016,0.399 0.431,0.591 0.83,0.591c0.367,-0 0.734,-0.16 0.75,-0.463c0.096,-1.197 1.293,-4.278 1.485,-4.262c0.351,0.032 0.862,4.102 0.862,4.15c0.015,0.415 0.383,0.671 0.702,0.671c0.223,0 0.431,-0.144 0.431,-0.463c0,-1.357 -0.463,-3.704 -0.83,-5.172c-0.128,-0.479 -0.591,-0.974 -1.07,-0.974c-0.351,-0 -0.718,0.255 -0.957,0.942l-1.166,2.889c-0,-0.399 -0.495,-3.017 -0.527,-3.209c-0.159,-0.638 -0.415,-0.909 -0.702,-0.909c-0.575,0 -1.261,1.069 -1.516,2.25c-0.032,-0.431 -0.463,-1.357 -0.495,-1.436c-0.08,-0.176 -0.192,-0.24 -0.335,-0.24c-0.272,0 -0.607,0.256 -0.607,0.479c-0,0.032 -0,0.064 0.016,0.08Z" style="fill-rule:nonzero;"/><path d="M62.237,10.737c-0.111,0.335 -0.159,0.622 -0.159,0.83c-0,0.335 0.127,0.495 0.303,0.495c0.223,0 0.527,-0.24 0.782,-0.734c1.996,-3.736 2.73,-6.338 5.029,-9.355c0.047,-0.08 0.063,-0.159 0.063,-0.239c-0,-0.272 -0.255,-0.479 -0.558,-0.479c-0.192,0 -0.415,0.08 -0.591,0.271c-1.931,2.842 -3.448,5.731 -4.869,9.211Z" style="fill-rule:nonzero;"/><path d="M69.915,8.135c-0.239,-0.064 -0.447,-0.16 -0.654,-0.192c0.064,1.15 0.064,1.724 0.096,2.634c0.399,0.479 1.165,0.607 2.985,0.607c0.399,-0 0.83,-0 1.325,-0.016c1.676,-0.671 2.522,-3.927 2.522,-6.689c0,-3.607 -1.213,-4.405 -3.065,-4.405c-1.405,0 -2.49,0.814 -3.687,2.266c-0.096,0.671 -0.016,1.405 -0.128,2.57c0.159,-0 0.399,-0.239 0.511,-0.319c0.032,0.527 0.127,1.676 0.127,2.698c-0,0.303 -0.016,0.591 -0.032,0.846Zm0.815,-4.15c0.893,-0.783 2.043,-1.166 2.761,-1.166c0.958,0 1.357,1.006 1.357,2.028c-0,1.324 -0.926,3.671 -2.937,3.671c-0.272,0 -0.559,-0.032 -0.894,-0.112c0.032,-0.431 0.064,-0.989 0.064,-1.564c0,-0.958 -0.08,-2.011 -0.351,-2.857Z" style="fill-rule:nonzero;"/><path d="M0.051,36.93l470.83,0" style="fill:none;stroke:#000;stroke-width:0.46px;"/><path d="M0.051,31.971l470.83,0" style="fill:none;stroke:#000;stroke-width:0.46px;"/><path d="M0.051,27.012l470.83,-0" style="fill:none;stroke:#000;stroke-width:0.46px;"/><path d="M0.051,22.052l470.83,0" style="fill:none;stroke:#000;stroke-width:0.46px;"/><path d="M0.051,17.093l470.83,-0" style="fill:none;stroke:#000;stroke-width:0.46px;"/><path d="M14.145,36.272l0.754,3.67c0.04,0.218 0.06,0.416 0.06,0.615c-0,1.944 -1.984,3.571 -4.126,3.571c-0.655,-0 -1.29,-0.159 -1.885,-0.457c1.528,-0.158 2.678,-1.091 2.678,-2.46c0,-1.21 -0.992,-2.479 -2.261,-2.479c-1.449,0 -2.44,1.111 -2.44,2.559c0,2.023 1.646,3.352 3.63,3.352c2.658,0 4.92,-1.725 4.92,-4.205c0,-0.556 -0.873,-4.483 -0.853,-4.345c2.122,-1.031 3.57,-2.856 3.57,-4.78c-0,-2.639 -2.122,-4.662 -4.761,-4.662c-0.039,-0 -0.317,0.02 -0.793,0.059l-0.873,-4.185c2.956,-2.5 4.305,-5.158 4.305,-8.074c-0,-2.242 -0.893,-4.622 -2.698,-7.122c-2.043,1.647 -3.214,4.94 -3.214,8.451c-0,1.25 0.159,2.46 0.437,3.61c-4.523,3.789 -6.785,7.281 -6.785,10.474c-0,3.75 3.868,6.864 8.074,6.864c0.932,-0 1.627,-0.139 2.261,-0.456Zm-0.059,-26.066c0.655,0.674 0.992,1.467 0.992,2.4c0,1.924 -1.369,4.086 -4.047,6.467c-0.139,-0.575 -0.179,-1.21 -0.179,-1.905c0,-3.332 1.23,-7.002 2.877,-7.002c0.139,0 0.258,0.02 0.357,0.04Zm0.417,25.253l-1.409,-6.626c0.278,-0.02 0.436,-0.04 0.496,-0.04c1.706,-0 2.896,1.607 2.896,3.254c0,1.309 -0.694,2.459 -1.983,3.412Zm-1.905,-6.547l1.428,6.824c-0.694,0.377 -1.468,0.536 -2.4,0.536c-3.214,0 -5.991,-2.4 -5.991,-5.316c0,-2.639 1.964,-5.357 5.674,-8.134l0.833,3.968c-2.063,0.436 -3.809,2.182 -3.809,4.146c0,1.666 1.19,2.836 2.976,3.114c-1.091,-0.674 -1.627,-1.527 -1.627,-2.539c0,-1.369 1.27,-2.381 2.916,-2.599Z" style="fill-rule:nonzero;"/><path d="M60.545,32.027c2.044,0 4.563,-1.706 4.563,-3.452c0,-1.051 -0.932,-1.726 -2.262,-1.726c-2.003,0 -4.522,1.666 -4.522,3.452c0,1.091 0.972,1.726 2.221,1.726Z" style="fill-rule:nonzero;"/><path d="M111.224,29.547c2.043,0 4.563,-1.706 4.563,-3.452c0,-1.051 -0.933,-1.726 -2.262,-1.726c-2.004,-0 -4.523,1.667 -4.523,3.452c-0,1.091 0.972,1.726 2.222,1.726Z" style="fill-rule:nonzero;"/><path d="M161.747,27.067c2.044,-0 4.563,-1.706 4.563,-3.451c-0,-1.052 -0.932,-1.726 -2.261,-1.726c-2.004,-0 -4.523,1.666 -4.523,3.451c0,1.092 0.972,1.726 2.221,1.726Z" style="fill-rule:nonzero;"/><path d="M212.426,24.588c2.043,-0 4.563,-1.706 4.563,-3.452c-0,-1.051 -0.933,-1.726 -2.262,-1.726c-2.003,-0 -4.523,1.666 -4.523,3.452c-0,1.091 0.972,1.726 2.222,1.726Z" style="fill-rule:nonzero;"/><path d="M263.105,22.108c2.043,-0 4.562,-1.706 4.562,-3.452c-0,-1.051 -0.932,-1.726 -2.261,-1.726c-2.004,0 -4.523,1.667 -4.523,3.452c-0,1.091 0.972,1.726 2.222,1.726Z" style="fill-rule:nonzero;"/><path d="M313.628,19.628c2.043,-0 4.563,-1.706 4.563,-3.451c0,-1.052 -0.933,-1.726 -2.262,-1.726c-2.003,0 -4.523,1.666 -4.523,3.451c0,1.091 0.972,1.726 2.222,1.726Z" style="fill-rule:nonzero;"/><path d="M308.484,18.438l-1.904,0.635l-0,-3.432l1.904,-0.635l0,3.432Zm0,-8.213l0,2.976l-1.904,0.635l-0,-2.976l-0.496,0l0,3.115l-1.032,0.337l0,1.805l1.032,-0.337l0,3.432l-1.032,0.337l0,1.805l1.032,-0.337l0,2.837l0.496,0l-0,-2.976l1.904,-0.635l0,2.976l0.496,-0l0,-3.115l1.032,-0.337l-0,-1.805l-1.032,0.337l0,-3.432l1.032,-0.337l-0,-1.805l-1.032,0.337l0,-2.837l-0.496,-0Z" style="fill-rule:nonzero;"/><path d="M364.307,17.149c2.043,-0 4.562,-1.706 4.562,-3.452c-0,-1.051 -0.932,-1.726 -2.261,-1.726c-2.004,0 -4.523,1.666 -4.523,3.452c-0,1.091 0.972,1.726 2.222,1.726Z" style="fill-rule:nonzero;"/><path d="M410.749,12.134l10.538,-0" style="fill:none;stroke:#000;stroke-width:0.77px;"/><path d="M414.83,14.669c2.044,-0 4.563,-1.706 4.563,-3.452c0,-1.051 -0.932,-1.726 -2.262,-1.726c-2.003,0 -4.522,1.667 -4.522,3.452c0,1.091 0.972,1.726 2.221,1.726Z" style="fill-rule:nonzero;"/></g></svg>