<svg clip-rule="evenodd" fill-rule="evenodd" stroke-linejoin="round" stroke-miterlimit="2" viewBox="0 0 471 90" xmlns="http://www.w3.org/2000/svg"><g fill="none" stroke="#000"><path d="m470.571 9.822v19.838" stroke-width=".77"/><path d="m470.571 61.741v19.837" stroke-width=".77"/><path d="m.051 29.66h470.83" stroke-width=".46"/><path d="m.051 24.701h470.83" stroke-width=".46"/><path d="m.051 19.741h470.83" stroke-width=".46"/><path d="m.051 14.782h470.83" stroke-width=".46"/><path d="m.051 9.822h470.83" stroke-width=".46"/></g><path d="m14.145 29.001.754 3.67c.04.219.06.417.06.615 0 1.944-1.984 3.571-4.126 3.571-.655 0-1.29-.159-1.885-.456 1.528-.159 2.678-1.091 2.678-2.46 0-1.21-.992-2.48-2.261-2.48-1.449 0-2.44 1.111-2.44 2.559 0 2.024 1.646 3.353 3.63 3.353 2.658 0 4.92-1.726 4.92-4.206 0-.555-.873-4.483-.853-4.344 2.122-1.032 3.57-2.857 3.57-4.781 0-2.638-2.122-4.662-4.761-4.662-.039 0-.317.02-.793.06l-.873-4.186c2.956-2.5 4.305-5.158 4.305-8.074 0-2.241-.893-4.622-2.698-7.122-2.043 1.647-3.214 4.94-3.214 8.451 0 1.25.159 2.46.437 3.611-4.523 3.789-6.785 7.28-6.785 10.474 0 3.749 3.868 6.864 8.074 6.864.932 0 1.627-.139 2.261-.457zm-.059-26.066c.655.674.992 1.468.992 2.4 0 1.924-1.369 4.087-4.047 6.467-.139-.575-.179-1.21-.179-1.904 0-3.333 1.23-7.003 2.877-7.003.139 0 .258.02.357.04zm.417 25.253-1.409-6.626c.278-.02.436-.039.496-.039 1.706 0 2.896 1.606 2.896 3.253 0 1.309-.694 2.46-1.983 3.412zm-1.905-6.546 1.428 6.824c-.694.377-1.468.535-2.4.535-3.214 0-5.991-2.4-5.991-5.316 0-2.638 1.964-5.356 5.674-8.133l.833 3.967c-2.063.436-3.809 2.182-3.809 4.146 0 1.666 1.19 2.837 2.976 3.115-1.091-.675-1.627-1.528-1.627-2.54 0-1.368 1.27-2.38 2.916-2.598z" fill-rule="nonzero"/><path d="m.051 81.578h470.83" fill="none" stroke="#000" stroke-width=".46"/><path d="m.051 76.619h470.83" fill="none" stroke="#000" stroke-width=".46"/><path d="m.051 71.66h470.83" fill="none" stroke="#000" stroke-width=".46"/><path d="m.051 66.7h470.83" fill="none" stroke="#000" stroke-width=".46"/><path d="m.051 61.741h470.83" fill="none" stroke="#000" stroke-width=".46"/><path d="m14.145 80.92.754 3.67c.04.218.06.416.06.615 0 1.944-1.984 3.57-4.126 3.57-.655 0-1.29-.158-1.885-.456 1.528-.159 2.678-1.091 2.678-2.46 0-1.21-.992-2.479-2.261-2.479-1.449 0-2.44 1.111-2.44 2.559 0 2.023 1.646 3.352 3.63 3.352 2.658 0 4.92-1.726 4.92-4.205 0-.556-.873-4.484-.853-4.345 2.122-1.031 3.57-2.856 3.57-4.781 0-2.638-2.122-4.661-4.761-4.661-.039 0-.317.019-.793.059l-.873-4.186c2.956-2.499 4.305-5.157 4.305-8.073 0-2.242-.893-4.623-2.698-7.122-2.043 1.646-3.214 4.939-3.214 8.451 0 1.249.159 2.46.437 3.61-4.523 3.789-6.785 7.28-6.785 10.474 0 3.75 3.868 6.864 8.074 6.864.932 0 1.627-.139 2.261-.456zm-.059-26.067c.655.675.992 1.468.992 2.401 0 1.924-1.369 4.086-4.047 6.467-.139-.576-.179-1.21-.179-1.905 0-3.332 1.23-7.002 2.877-7.002.139 0 .258.019.357.039zm.417 25.253-1.409-6.625c.278-.02.436-.04.496-.04 1.706 0 2.896 1.607 2.896 3.253 0 1.31-.694 2.46-1.983 3.412zm-1.905-6.546 1.428 6.824c-.694.377-1.468.536-2.4.536-3.214 0-5.991-2.401-5.991-5.317 0-2.638 1.964-5.356 5.674-8.133l.833 3.967c-2.063.437-3.809 2.183-3.809 4.147 0 1.666 1.19 2.836 2.976 3.114-1.091-.674-1.627-1.528-1.627-2.539 0-1.369 1.27-2.381 2.916-2.599z" fill-rule="nonzero"/></svg>