<svg clip-rule="evenodd" fill-rule="evenodd" stroke-linejoin="round" stroke-miterlimit="2" viewBox="0 0 474 85" xmlns="http://www.w3.org/2000/svg"><path d="m5.345 9.882v67.101" fill="none" stroke="#000" stroke-width=".78"/><path d="m1.307 9.882v67.101" fill="none" stroke="#000" stroke-width="2.49"/><path d="m9.11 2.392c0-.14-.079-.199-.258-.199-.159 0-1.074.676-1.948 1.292-1.909 1.332-4.195 2.068-6.84 2.445v4.553h2.486v-1.769c1.192-.557 2.564-1.591 4.552-3.579 1.332-1.372 2.008-2.286 2.008-2.743z" fill-rule="nonzero"/><path d="m9.11 84.503c0-.458-.676-1.372-2.008-2.744-1.988-1.988-3.36-3.022-4.552-3.579v-1.769h-2.486v4.553c2.645.378 4.931 1.113 6.84 2.445.874.617 1.789 1.293 1.948 1.293.179 0 .258-.06.258-.199z" fill-rule="nonzero"/><g fill="none" stroke="#000"><path d="m136.285 9.882v67.101" stroke-width=".78"/><path d="m246.721 9.882v67.101" stroke-width=".78"/><path d="m357.157 9.882v67.101" stroke-width=".78"/><path d="m470.855 9.882v67.101" stroke-width=".78"/><path d="m473.496 9.882v67.101" stroke-width=".78"/><path d="m5.035 29.764h468.772" stroke-width=".47"/><path d="m5.035 24.794h468.772" stroke-width=".47"/><path d="m5.035 19.823h468.772" stroke-width=".47"/><path d="m5.035 14.853h468.772" stroke-width=".47"/><path d="m5.035 9.882h468.772" stroke-width=".47"/></g><path d="m19.161 29.104.755 3.678c.04.219.06.418.06.617 0 1.948-1.988 3.578-4.136 3.578-.656 0-1.292-.159-1.888-.457 1.531-.159 2.684-1.093 2.684-2.465 0-1.213-.994-2.486-2.267-2.486-1.451 0-2.445 1.114-2.445 2.565 0 2.028 1.65 3.36 3.638 3.36 2.664 0 4.931-1.73 4.931-4.215 0-.556-.875-4.493-.855-4.354 2.127-1.034 3.579-2.863 3.579-4.791 0-2.645-2.128-4.672-4.772-4.672-.04 0-.318.019-.795.059l-.875-4.195c2.962-2.505 4.314-5.169 4.314-8.092 0-2.246-.895-4.632-2.704-7.137-2.048 1.65-3.221 4.95-3.221 8.469 0 1.253.159 2.466.438 3.619-4.533 3.797-6.8 7.296-6.8 10.497 0 3.758 3.877 6.879 8.092 6.879.935 0 1.63-.139 2.267-.457zm-.06-26.124c.656.676.994 1.471.994 2.405 0 1.929-1.372 4.096-4.056 6.482-.139-.577-.179-1.213-.179-1.909 0-3.34 1.233-7.018 2.883-7.018.139 0 .259.02.358.04zm.418 25.309-1.412-6.64c.278-.02.437-.04.497-.04 1.71 0 2.903 1.61 2.903 3.26 0 1.313-.696 2.466-1.988 3.42zm-1.909-6.561 1.431 6.839c-.696.378-1.471.537-2.405.537-3.221 0-6.005-2.406-6.005-5.328 0-2.644 1.969-5.368 5.687-8.152l.835 3.977c-2.068.437-3.818 2.187-3.818 4.155 0 1.67 1.193 2.843 2.983 3.121-1.094-.676-1.631-1.53-1.631-2.544 0-1.372 1.273-2.386 2.923-2.605z" fill-rule="nonzero"/><path d="m5.035 76.983h468.772" fill="none" stroke="#000" stroke-width=".47"/><path d="m5.035 72.013h468.772" fill="none" stroke="#000" stroke-width=".47"/><path d="m5.035 67.042h468.772" fill="none" stroke="#000" stroke-width=".47"/><path d="m5.035 62.072h468.772" fill="none" stroke="#000" stroke-width=".47"/><path d="m5.035 57.101h468.772" fill="none" stroke="#000" stroke-width=".47"/><path d="m19.161 76.323.755 3.678c.04.219.06.418.06.616 0 1.949-1.988 3.579-4.136 3.579-.656 0-1.292-.159-1.888-.457 1.531-.159 2.684-1.094 2.684-2.465 0-1.213-.994-2.486-2.267-2.486-1.451 0-2.445 1.114-2.445 2.565 0 2.028 1.65 3.36 3.638 3.36 2.664 0 4.931-1.73 4.931-4.215 0-.557-.875-4.493-.855-4.354 2.127-1.034 3.579-2.863 3.579-4.791 0-2.645-2.128-4.673-4.772-4.673-.04 0-.318.02-.795.06l-.875-4.195c2.962-2.505 4.314-5.169 4.314-8.092 0-2.246-.895-4.632-2.704-7.137-2.048 1.65-3.221 4.95-3.221 8.469 0 1.253.159 2.466.438 3.619-4.533 3.797-6.8 7.296-6.8 10.497 0 3.758 3.877 6.879 8.092 6.879.935 0 1.63-.139 2.267-.457zm-.06-26.124c.656.676.994 1.471.994 2.405 0 1.929-1.372 4.096-4.056 6.482-.139-.577-.179-1.213-.179-1.909 0-3.34 1.233-7.018 2.883-7.018.139 0 .259.02.358.04zm.418 25.309-1.412-6.641c.278-.019.437-.039.497-.039 1.71 0 2.903 1.61 2.903 3.26 0 1.312-.696 2.466-1.988 3.42zm-1.909-6.561 1.431 6.839c-.696.378-1.471.537-2.405.537-3.221 0-6.005-2.406-6.005-5.328 0-2.645 1.969-5.368 5.687-8.152l.835 3.977c-2.068.437-3.818 2.187-3.818 4.155 0 1.67 1.193 2.843 2.983 3.121-1.094-.676-1.631-1.531-1.631-2.545 0-1.371 1.273-2.385 2.923-2.604z" fill-rule="nonzero"/><path d="m40.294 31.473v-16.62" fill="none" stroke="#000" stroke-width=".47"/><path d="m35.841 34.79c2.048 0 4.573-1.71 4.573-3.459 0-1.054-.934-1.73-2.266-1.73-2.008 0-4.533 1.67-4.533 3.46 0 1.093.974 1.729 2.226 1.729z" fill-rule="nonzero"/><path d="m66.078 31.473v-16.62" fill="none" stroke="#000" stroke-width=".47"/><path d="m61.625 34.79c2.048 0 4.573-1.71 4.573-3.459 0-1.054-.934-1.73-2.266-1.73-2.008 0-4.533 1.67-4.533 3.46 0 1.093.974 1.729 2.226 1.729z" fill-rule="nonzero"/><path d="m91.862 31.473v-16.62" fill="none" stroke="#000" stroke-width=".47"/><path d="m87.409 34.79c2.048 0 4.573-1.71 4.573-3.459 0-1.054-.934-1.73-2.266-1.73-2.008 0-4.533 1.67-4.533 3.46 0 1.093.974 1.729 2.226 1.729z" fill-rule="nonzero"/><path d="m117.49 31.473v-16.62" fill="none" stroke="#000" stroke-width=".47"/><path d="m113.038 34.79c2.048 0 4.573-1.71 4.573-3.459 0-1.054-.935-1.73-2.267-1.73-2.008 0-4.533 1.67-4.533 3.46 0 1.093.974 1.729 2.227 1.729z" fill-rule="nonzero"/><path d="m150.73 31.473v-16.62" fill="none" stroke="#000" stroke-width=".47"/><path d="m146.278 34.79c2.047 0 4.572-1.71 4.572-3.459 0-1.054-.934-1.73-2.266-1.73-2.008 0-4.533 1.67-4.533 3.46 0 1.093.974 1.729 2.227 1.729z" fill-rule="nonzero"/><path d="m176.514 31.473v-16.62" fill="none" stroke="#000" stroke-width=".47"/><path d="m172.062 34.79c2.047 0 4.572-1.71 4.572-3.459 0-1.054-.934-1.73-2.266-1.73-2.008 0-4.533 1.67-4.533 3.46 0 1.093.974 1.729 2.227 1.729z" fill-rule="nonzero"/><path d="m202.298 31.473v-16.62" fill="none" stroke="#000" stroke-width=".47"/><path d="m197.846 34.79c2.047 0 4.572-1.71 4.572-3.459 0-1.054-.934-1.73-2.266-1.73-2.008 0-4.533 1.67-4.533 3.46 0 1.093.974 1.729 2.227 1.729z" fill-rule="nonzero"/><path d="m227.927 31.473v-16.62" fill="none" stroke="#000" stroke-width=".47"/><path d="m223.474 34.79c2.048 0 4.573-1.71 4.573-3.459 0-1.054-.934-1.73-2.266-1.73-2.008 0-4.533 1.67-4.533 3.46 0 1.093.974 1.729 2.226 1.729z" fill-rule="nonzero"/><path d="m261.166 26.502v-16.62" fill="none" stroke="#000" stroke-width=".47"/><path d="m256.714 29.82c2.048 0 4.573-1.71 4.573-3.46 0-1.053-.935-1.729-2.267-1.729-2.008 0-4.533 1.67-4.533 3.459 0 1.094.974 1.73 2.227 1.73z" fill-rule="nonzero"/><path d="m286.95 24.017v-16.62" fill="none" stroke="#000" stroke-width=".47"/><path d="m282.498 27.335c2.048 0 4.573-1.71 4.573-3.46 0-1.053-.935-1.729-2.267-1.729-2.008 0-4.533 1.67-4.533 3.459 0 1.093.974 1.73 2.227 1.73z" fill-rule="nonzero"/><path d="m312.734 31.473v-16.62" fill="none" stroke="#000" stroke-width=".47"/><path d="m308.282 34.79c2.048 0 4.573-1.71 4.573-3.459 0-1.054-.935-1.73-2.267-1.73-2.008 0-4.533 1.67-4.533 3.46 0 1.093.974 1.729 2.227 1.729z" fill-rule="nonzero"/><path d="m329.82 34.735h10.562" fill="none" stroke="#000" stroke-width=".78"/><path d="m338.363 33.958v-16.62" fill="none" stroke="#000" stroke-width=".47"/><path d="m333.911 37.275c2.047 0 4.572-1.709 4.572-3.459 0-1.054-.934-1.73-2.266-1.73-2.008 0-4.533 1.67-4.533 3.46 0 1.093.974 1.729 2.227 1.729z" fill-rule="nonzero"/><path d="m371.603 26.502v-16.62" fill="none" stroke="#000" stroke-width=".47"/><path d="m367.15 29.82c2.048 0 4.573-1.71 4.573-3.46 0-1.053-.934-1.729-2.266-1.729-2.009 0-4.533 1.67-4.533 3.459 0 1.094.974 1.73 2.226 1.73z" fill-rule="nonzero"/><path d="m397.387 24.017v-16.62" fill="none" stroke="#000" stroke-width=".47"/><path d="m392.934 27.335c2.048 0 4.573-1.71 4.573-3.46 0-1.053-.934-1.729-2.266-1.729-2.009 0-4.533 1.67-4.533 3.459 0 1.093.974 1.73 2.226 1.73z" fill-rule="nonzero"/><path d="m416.647 15.63v16.619" fill="none" stroke="#000" stroke-width=".47"/><path d="m418.718 17.394c2.048 0 4.573-1.71 4.573-3.46 0-1.053-.934-1.729-2.266-1.729-2.009 0-4.533 1.67-4.533 3.459 0 1.094.974 1.73 2.226 1.73z" fill-rule="nonzero"/><path d="m442.276 18.115v16.62" fill="none" stroke="#000" stroke-width=".47"/><path d="m444.347 19.879c2.048 0 4.573-1.71 4.573-3.459 0-1.054-.935-1.73-2.267-1.73-2.008 0-4.533 1.67-4.533 3.459 0 1.094.974 1.73 2.227 1.73z" fill-rule="nonzero"/><path d="m33.77 57.878v16.62" fill="none" stroke="#000" stroke-width=".47"/><path d="m35.841 59.642c2.048 0 4.573-1.709 4.573-3.459 0-1.054-.934-1.73-2.266-1.73-2.008 0-4.533 1.67-4.533 3.46 0 1.093.974 1.729 2.226 1.729z" fill-rule="nonzero"/><path d="m59.554 62.848v16.62" fill="none" stroke="#000" stroke-width=".47"/><path d="m61.625 64.613c2.048 0 4.573-1.71 4.573-3.46 0-1.053-.934-1.729-2.266-1.729-2.008 0-4.533 1.67-4.533 3.459 0 1.094.974 1.73 2.226 1.73z" fill-rule="nonzero"/><path d="m85.338 65.334v16.619" fill="none" stroke="#000" stroke-width=".47"/><path d="m87.409 67.098c2.048 0 4.573-1.71 4.573-3.459 0-1.054-.934-1.73-2.266-1.73-2.008 0-4.533 1.67-4.533 3.459 0 1.094.974 1.73 2.226 1.73z" fill-rule="nonzero"/><path d="m110.967 55.393v16.62" fill="none" stroke="#000" stroke-width=".47"/><path d="m113.038 57.157c2.048 0 4.573-1.71 4.573-3.459 0-1.054-.935-1.73-2.267-1.73-2.008 0-4.533 1.67-4.533 3.459 0 1.094.974 1.73 2.227 1.73z" fill-rule="nonzero"/><path d="m144.206 57.878v16.62" fill="none" stroke="#000" stroke-width=".47"/><path d="m146.278 59.642c2.047 0 4.572-1.709 4.572-3.459 0-1.054-.934-1.73-2.266-1.73-2.008 0-4.533 1.67-4.533 3.46 0 1.093.974 1.729 2.227 1.729z" fill-rule="nonzero"/><path d="m169.99 55.393v16.62" fill="none" stroke="#000" stroke-width=".47"/><path d="m172.062 57.157c2.047 0 4.572-1.71 4.572-3.459 0-1.054-.934-1.73-2.266-1.73-2.008 0-4.533 1.67-4.533 3.459 0 1.094.974 1.73 2.227 1.73z" fill-rule="nonzero"/><path d="m195.774 62.848v16.62" fill="none" stroke="#000" stroke-width=".47"/><path d="m197.846 64.613c2.047 0 4.572-1.71 4.572-3.46 0-1.053-.934-1.729-2.266-1.729-2.008 0-4.533 1.67-4.533 3.459 0 1.094.974 1.73 2.227 1.73z" fill-rule="nonzero"/><path d="m221.403 65.334v16.619" fill="none" stroke="#000" stroke-width=".47"/><path d="m223.474 67.098c2.048 0 4.573-1.71 4.573-3.459 0-1.054-.934-1.73-2.266-1.73-2.008 0-4.533 1.67-4.533 3.459 0 1.094.974 1.73 2.226 1.73z" fill-rule="nonzero"/><path d="m261.166 78.692v-16.62" fill="none" stroke="#000" stroke-width=".47"/><path d="m256.714 82.009c2.048 0 4.573-1.71 4.573-3.459 0-1.054-.935-1.73-2.267-1.73-2.008 0-4.533 1.67-4.533 3.459 0 1.094.974 1.73 2.227 1.73z" fill-rule="nonzero"/><path d="m286.95 78.692v-16.62" fill="none" stroke="#000" stroke-width=".47"/><path d="m282.498 82.009c2.048 0 4.573-1.71 4.573-3.459 0-1.054-.935-1.73-2.267-1.73-2.008 0-4.533 1.67-4.533 3.459 0 1.094.974 1.73 2.227 1.73z" fill-rule="nonzero"/><path d="m312.734 78.692v-16.62" fill="none" stroke="#000" stroke-width=".47"/><path d="m308.282 82.009c2.048 0 4.573-1.71 4.573-3.459 0-1.054-.935-1.73-2.267-1.73-2.008 0-4.533 1.67-4.533 3.459 0 1.094.974 1.73 2.227 1.73z" fill-rule="nonzero"/><path d="m338.363 78.692v-16.62" fill="none" stroke="#000" stroke-width=".47"/><path d="m333.911 82.009c2.047 0 4.572-1.71 4.572-3.459 0-1.054-.934-1.73-2.266-1.73-2.008 0-4.533 1.67-4.533 3.459 0 1.094.974 1.73 2.227 1.73z" fill-rule="nonzero"/><path d="m371.603 78.692v-16.62" fill="none" stroke="#000" stroke-width=".47"/><path d="m367.15 82.009c2.048 0 4.573-1.71 4.573-3.459 0-1.054-.934-1.73-2.266-1.73-2.009 0-4.533 1.67-4.533 3.459 0 1.094.974 1.73 2.226 1.73z" fill-rule="nonzero"/><path d="m397.387 78.692v-16.62" fill="none" stroke="#000" stroke-width=".47"/><path d="m392.934 82.009c2.048 0 4.573-1.71 4.573-3.459 0-1.054-.934-1.73-2.266-1.73-2.009 0-4.533 1.67-4.533 3.459 0 1.094.974 1.73 2.226 1.73z" fill-rule="nonzero"/><path d="m423.171 78.692v-16.62" fill="none" stroke="#000" stroke-width=".47"/><path d="m418.718 82.009c2.048 0 4.573-1.71 4.573-3.459 0-1.054-.934-1.73-2.266-1.73-2.009 0-4.533 1.67-4.533 3.459 0 1.094.974 1.73 2.226 1.73z" fill-rule="nonzero"/><path d="m448.799 78.692v-16.62" fill="none" stroke="#000" stroke-width=".47"/><path d="m444.347 82.009c2.048 0 4.573-1.71 4.573-3.459 0-1.054-.935-1.73-2.267-1.73-2.008 0-4.533 1.67-4.533 3.459 0 1.094.974 1.73 2.227 1.73z" fill-rule="nonzero"/></svg>