<svg clip-rule="evenodd" fill-rule="evenodd" stroke-linejoin="round" stroke-miterlimit="2" viewBox="0 0 233 38" xmlns="http://www.w3.org/2000/svg"><g fill="none" stroke="#000"><path d="m119.592 9.733v19.881" stroke-width=".78"/><path d="m229.873 9.733v19.881" stroke-width=".78"/><path d="m232.513 9.733v19.881" stroke-width=".78"/><path d="m.146 29.614h232.678" stroke-width=".47"/><path d="m.146 24.644h232.678" stroke-width=".47"/><path d="m.146 19.673h232.678" stroke-width=".47"/><path d="m.146 14.703h232.678" stroke-width=".47"/><path d="m.146 9.733h232.678" stroke-width=".47"/></g><path d="m14.272 28.954.756 3.678c.04.219.059.418.059.617 0 1.948-1.988 3.578-4.135 3.578-.656 0-1.292-.159-1.889-.457 1.531-.159 2.684-1.093 2.684-2.465 0-1.213-.994-2.486-2.266-2.486-1.451 0-2.446 1.114-2.446 2.565 0 2.028 1.651 3.36 3.639 3.36 2.664 0 4.93-1.73 4.93-4.215 0-.556-.874-4.493-.854-4.354 2.127-1.034 3.578-2.863 3.578-4.791 0-2.645-2.127-4.672-4.771-4.672-.04 0-.318.019-.796.059l-.874-4.195c2.962-2.505 4.314-5.169 4.314-8.092 0-2.246-.895-4.632-2.704-7.137-2.048 1.65-3.221 4.95-3.221 8.469 0 1.253.159 2.466.438 3.619-4.533 3.797-6.8 7.296-6.8 10.497 0 3.758 3.877 6.879 8.092 6.879.934 0 1.63-.139 2.266-.457zm-.059-26.124c.656.676.994 1.471.994 2.405 0 1.929-1.372 4.096-4.056 6.482-.139-.577-.179-1.213-.179-1.909 0-3.34 1.233-7.018 2.883-7.018.139 0 .258.02.358.04zm.417 25.309-1.411-6.64c.278-.02.437-.04.497-.04 1.709 0 2.902 1.61 2.902 3.26 0 1.313-.695 2.466-1.988 3.42zm-1.908-6.561 1.431 6.839c-.696.378-1.471.537-2.406.537-3.22 0-6.004-2.406-6.004-5.328 0-2.644 1.968-5.368 5.686-8.152l.835 3.977c-2.067.437-3.817 2.187-3.817 4.155 0 1.67 1.193 2.843 2.982 3.121-1.093-.676-1.63-1.53-1.63-2.544 0-1.372 1.272-2.386 2.923-2.605z" fill-rule="nonzero"/><path d="m54.044 6.005 13.514 3.728v-2.486l-13.514-3.727z"/><path d="m81.071 12.218 13.358-1.243v-2.485l-13.358 1.243z"/><path d="m127.513 32.099h40.54v2.486h-40.54z"/><path d="m28.882 15.48v16.619" fill="none"/><path d="m28.882 15.48v16.619" fill="none" stroke="#000" stroke-width=".47"/><path d="m30.953 17.244c2.048 0 4.573-1.71 4.573-3.46 0-1.053-.935-1.729-2.267-1.729-2.008 0-4.533 1.67-4.533 3.459 0 1.094.975 1.73 2.227 1.73z" fill-rule="nonzero"/><path d="m54.044 16.411v-12.736" fill="none"/><path d="m54.044 16.411v-12.736" fill="none" stroke="#000" stroke-width=".47"/><path d="m49.592 19.729c2.048 0 4.573-1.71 4.573-3.459 0-1.054-.935-1.73-2.267-1.73-2.008 0-4.533 1.67-4.533 3.459 0 1.094.975 1.73 2.227 1.73z" fill-rule="nonzero"/><path d="m67.558 23.867v-16.464" fill="none"/><path d="m67.558 23.867v-16.464" fill="none" stroke="#000" stroke-width=".47"/><path d="m63.105 27.185c2.048 0 4.573-1.71 4.573-3.46 0-1.053-.934-1.729-2.266-1.729-2.008 0-4.533 1.67-4.533 3.459 0 1.093.974 1.73 2.226 1.73z" fill-rule="nonzero"/><path d="m81.071 26.352v-16.464" fill="none"/><path d="m81.071 26.352v-16.464" fill="none" stroke="#000" stroke-width=".47"/><path d="m76.619 29.67c2.048 0 4.572-1.71 4.572-3.46 0-1.053-.934-1.729-2.266-1.729-2.008 0-4.533 1.67-4.533 3.459 0 1.094.974 1.73 2.227 1.73z" fill-rule="nonzero"/><path d="m94.429 23.867v-15.222" fill="none"/><path d="m94.429 23.867v-15.222" fill="none" stroke="#000" stroke-width=".47"/><path d="m89.977 27.185c2.047 0 4.572-1.71 4.572-3.46 0-1.053-.934-1.729-2.266-1.729-2.008 0-4.533 1.67-4.533 3.459 0 1.093.974 1.73 2.227 1.73z" fill-rule="nonzero"/><path d="m106.492 23.586c-.815-1.312-2.485-2.763-2.485-3.817 0-.696.616-1.79 1.869-3.301l-3.539-4.851c-.219.04-.338.12-.338.259 0-.02 1.451 1.73 1.451 2.783 0 1.034-.676 2.167-2.048 3.42 1.551 1.909 2.426 2.823 3.042 3.777-.417-.218-.815-.338-1.193-.338-1.212 0-1.988 1.154-1.988 2.327 0 1.431 2.386 3.161 2.843 3.161.08 0 .139-.04.159-.12-.835-.815-1.252-1.57-1.252-2.266 0-.915.775-1.432 1.789-1.432.537 0 1.114.14 1.69.398z" fill-rule="nonzero"/><path d="m127.513 15.48v18.949" fill="none"/><path d="m127.513 15.48v18.949" fill="none" stroke="#000" stroke-width=".47"/><path d="m129.585 17.244c2.047 0 4.572-1.71 4.572-3.46 0-1.053-.934-1.729-2.266-1.729-2.008 0-4.533 1.67-4.533 3.459 0 1.094.974 1.73 2.227 1.73z" fill-rule="nonzero"/><path d="m141.027 17.965v16.464" fill="none"/><path d="m141.027 17.965v16.464" fill="none" stroke="#000" stroke-width=".47"/><path d="m143.098 19.729c2.048 0 4.573-1.71 4.573-3.459 0-1.054-.935-1.73-2.267-1.73-2.008 0-4.533 1.67-4.533 3.459 0 1.094.974 1.73 2.227 1.73z" fill-rule="nonzero"/><path d="m154.54 15.48v18.949" fill="none"/><path d="m154.54 15.48v18.949" fill="none" stroke="#000" stroke-width=".47"/><path d="m156.611 17.244c2.048 0 4.573-1.71 4.573-3.46 0-1.053-.934-1.729-2.266-1.729-2.009 0-4.533 1.67-4.533 3.459 0 1.094.974 1.73 2.226 1.73z" fill-rule="nonzero"/><path d="m168.053 8.024v26.405" fill="none"/><path d="m168.053 8.024v26.405" fill="none" stroke="#000" stroke-width=".47"/><path d="m170.125 9.788c2.047 0 4.572-1.71 4.572-3.459 0-1.054-.934-1.73-2.266-1.73-2.008 0-4.533 1.67-4.533 3.46 0 1.093.974 1.729 2.227 1.729z" fill-rule="nonzero"/><path d="m186.524 16.369c-1.014.895-1.968 1.332-2.823 1.332-.119 0-.199-.02-.258-.06.218-.397.318-.735.318-1.033 0-.656-.378-.975-1.133-.975-.656 0-1.372.438-1.372 1.014 0 .975.616 1.452 1.849 1.452.676 0 1.531-.179 2.565-.517l-3.182 6.998h.835z" fill-rule="nonzero"/><path d="m194.924 10.509v16.62" fill="none"/><path d="m194.924 10.509v16.62" fill="none" stroke="#000" stroke-width=".47"/><path d="m196.996 12.273c2.048 0 4.573-1.709 4.573-3.459 0-1.054-.935-1.73-2.267-1.73-2.008 0-4.533 1.67-4.533 3.46 0 1.093.974 1.729 2.227 1.729z" fill-rule="nonzero"/><path d="m194.968 27.065c.179 0 .278 0 .258-.02-.02-.039-.02-.099-.02-.159 0-.059 0-.119.02-.178.617-1.551 1.313-2.943 2.187-4.017.716-.874 1.531-1.67 2.267-2.544.775-.915 1.133-1.989 1.133-3.003 0-.536-.06-1.053-.199-1.59-.258-1.014-1.053-2.962-1.531-2.962-.059 0-.079.059-.079.178 0 .1.04.239.119.378.696 1.293 1.034 2.386 1.034 3.241 0 1.213-.457 2.326-1.312 3.28-.179.179-.756.656-1.73 1.432-1.233.994-1.312 1.014-2.147 1.014z" fill-rule="nonzero"/><path d="m213.511 23.586c-.815-1.312-2.485-2.763-2.485-3.817 0-.696.616-1.79 1.869-3.301l-3.539-4.851c-.219.04-.338.12-.338.259 0-.02 1.451 1.73 1.451 2.783 0 1.034-.676 2.167-2.047 3.42 1.55 1.909 2.425 2.823 3.041 3.777-.417-.218-.815-.338-1.192-.338-1.213 0-1.989 1.154-1.989 2.327 0 1.431 2.386 3.161 2.843 3.161.08 0 .14-.04.16-.12-.836-.815-1.253-1.57-1.253-2.266 0-.915.775-1.432 1.789-1.432.537 0 1.114.14 1.69.398z" fill-rule="nonzero"/></svg>