<svg clip-rule="evenodd" fill-rule="evenodd" stroke-linejoin="round" stroke-miterlimit="2" viewBox="0 0 502 32" xmlns="http://www.w3.org/2000/svg"><g fill="none" stroke="#000"><path d="m136.48 7.314v17.022" stroke-width=".66"/><path d="m138.741 7.314v17.022" stroke-width=".66"/><path d="m257.235 7.314v17.022" stroke-width=".66"/><path d="m259.496 7.314v17.022" stroke-width=".66"/><path d="m378.124 7.314v17.022" stroke-width=".66"/><path d="m380.384 7.314v17.022" stroke-width=".66"/><path d="m498.879 7.314v17.022" stroke-width=".66"/><path d="m501.14 7.314v17.022" stroke-width=".66"/><path d="m.032 24.336h501.374" stroke-width=".4"/><path d="m.032 20.081h501.374" stroke-width=".4"/><path d="m.032 15.825h501.374" stroke-width=".4"/><path d="m.032 11.569h501.374" stroke-width=".4"/><path d="m.032 7.314h501.374" stroke-width=".4"/></g><path d="m12.127 23.771.647 3.15c.034.187.051.357.051.527 0 1.668-1.703 3.064-3.541 3.064-.562 0-1.107-.136-1.617-.391 1.31-.136 2.298-.936 2.298-2.111 0-1.038-.851-2.128-1.941-2.128-1.242 0-2.094.953-2.094 2.196 0 1.736 1.413 2.877 3.116 2.877 2.281 0 4.221-1.481 4.221-3.609 0-.477-.749-3.847-.732-3.728 1.822-.885 3.064-2.451 3.064-4.102 0-2.264-1.821-4.001-4.085-4.001-.034 0-.272.017-.681.051l-.749-3.591c2.536-2.145 3.694-4.426 3.694-6.929 0-1.923-.766-3.966-2.315-6.111-1.754 1.413-2.758 4.239-2.758 7.252 0 1.072.136 2.111.375 3.098-3.882 3.251-5.822 6.247-5.822 8.988 0 3.217 3.319 5.89 6.928 5.89.8 0 1.396-.119 1.941-.392zm-.051-22.368c.561.579.851 1.26.851 2.06 0 1.651-1.175 3.507-3.473 5.55-.119-.494-.153-1.039-.153-1.635 0-2.859 1.055-6.009 2.468-6.009.119 0 .222.017.307.034zm.357 21.67-1.208-5.685c.238-.017.374-.034.425-.034 1.464 0 2.485 1.379 2.485 2.791 0 1.124-.595 2.111-1.702 2.928zm-1.634-5.617 1.226 5.856c-.596.323-1.26.459-2.06.459-2.758 0-5.141-2.059-5.141-4.562 0-2.264 1.685-4.596 4.868-6.979l.715 3.404c-1.77.375-3.268 1.873-3.268 3.558 0 1.43 1.021 2.434 2.553 2.673-.936-.579-1.395-1.311-1.395-2.179 0-1.175 1.089-2.043 2.502-2.23z" fill-rule="nonzero"/><path d="m30.221 21.544v-14.23" fill="none" stroke="#000" stroke-width=".4"/><path d="m26.409 24.384c1.753 0 3.915-1.464 3.915-2.962 0-.902-.8-1.481-1.941-1.481-1.719 0-3.881 1.43-3.881 2.962 0 .936.834 1.481 1.907 1.481z" fill-rule="nonzero"/><path d="m57.617 19.416v-14.23" fill="none" stroke="#000" stroke-width=".4"/><path d="m53.805 22.256c1.753 0 3.915-1.464 3.915-2.962 0-.902-.8-1.481-1.941-1.481-1.719 0-3.881 1.43-3.881 2.962 0 .937.834 1.481 1.907 1.481z" fill-rule="nonzero"/><path d="m79.294 16.49v14.23" fill="none" stroke="#000" stroke-width=".4"/><path d="m81.068 18.001c1.753 0 3.915-1.464 3.915-2.962 0-.903-.8-1.481-1.941-1.481-1.719 0-3.881 1.43-3.881 2.962 0 .936.834 1.481 1.907 1.481z" fill-rule="nonzero"/><path d="m74.108 18.903 2.4-1.771c1.055-.766 1.464-1.634 1.498-2.281 0-.953-.868-1.668-1.89-1.668-.715 0-1.242.273-1.583.834l.119-5.362h-.544zm1.583-5.039c.545 0 .953.392.953.919 0 .885-1.175 2.588-2.06 3.149-.051-.289-.085-.851-.085-1.685 0-.459.034-1.021.102-1.668.256-.477.613-.715 1.09-.715z" fill-rule="nonzero"/><path d="m106.69 14.362v14.23" fill="none" stroke="#000" stroke-width=".4"/><path d="m108.464 15.873c1.753 0 3.915-1.464 3.915-2.962 0-.902-.8-1.481-1.941-1.481-1.719 0-3.881 1.43-3.881 2.962 0 .936.834 1.481 1.907 1.481z" fill-rule="nonzero"/><path d="m151.109 19.416v-14.23" fill="none" stroke="#000" stroke-width=".4"/><path d="m147.297 22.256c1.753 0 3.915-1.464 3.915-2.962 0-.902-.8-1.481-1.94-1.481-1.72 0-3.882 1.43-3.882 2.962 0 .937.835 1.481 1.907 1.481z" fill-rule="nonzero"/><path d="m178.372 17.288v-14.23" fill="none" stroke="#000" stroke-width=".4"/><path d="m174.56 20.128c1.753 0 3.915-1.464 3.915-2.962 0-.902-.8-1.481-1.94-1.481-1.72 0-3.881 1.43-3.881 2.962 0 .937.834 1.481 1.906 1.481z" fill-rule="nonzero"/><path d="m200.183 14.362v14.23" fill="none" stroke="#000" stroke-width=".4"/><path d="m201.956 15.873c1.753 0 3.915-1.464 3.915-2.962 0-.902-.8-1.481-1.94-1.481-1.72 0-3.881 1.43-3.881 2.962 0 .936.834 1.481 1.906 1.481z" fill-rule="nonzero"/><path d="m227.446 12.234v14.23" fill="none" stroke="#000" stroke-width=".4"/><path d="m229.219 13.745c1.753 0 3.915-1.464 3.915-2.962 0-.902-.8-1.481-1.94-1.481-1.72 0-3.881 1.43-3.881 2.962 0 .936.834 1.481 1.906 1.481z" fill-rule="nonzero"/><path d="m271.864 23.671v-14.23" fill="none" stroke="#000" stroke-width=".4"/><path d="m268.052 26.512c1.754 0 3.916-1.464 3.916-2.962 0-.902-.801-1.481-1.941-1.481-1.719 0-3.881 1.43-3.881 2.962 0 .936.834 1.481 1.906 1.481z" fill-rule="nonzero"/><path d="m299.26 21.544v-14.23" fill="none" stroke="#000" stroke-width=".4"/><path d="m295.448 24.384c1.754 0 3.916-1.464 3.916-2.962 0-.902-.801-1.481-1.941-1.481-1.719 0-3.881 1.43-3.881 2.962 0 .936.834 1.481 1.906 1.481z" fill-rule="nonzero"/><path d="m291.034 23.363-1.634.545v-2.945l1.634-.545zm0-7.048v2.554l-1.634.544v-2.553h-.426v2.673l-.885.289v1.549l.885-.289v2.945l-.885.289v1.549l.885-.289v2.434h.426v-2.553l1.634-.545v2.553h.426v-2.672l.885-.29v-1.549l-.885.29v-2.945l.885-.29v-1.549l-.885.29v-2.435z" fill-rule="nonzero"/><path d="m326.523 17.288v-14.23" fill="none" stroke="#000" stroke-width=".4"/><path d="m322.711 20.128c1.754 0 3.916-1.464 3.916-2.962 0-.902-.801-1.481-1.941-1.481-1.719 0-3.881 1.43-3.881 2.962 0 .937.834 1.481 1.906 1.481z" fill-rule="nonzero"/><path d="m348.334 16.49v14.23" fill="none" stroke="#000" stroke-width=".4"/><path d="m350.107 18.001c1.754 0 3.916-1.464 3.916-2.962 0-.903-.801-1.481-1.941-1.481-1.719 0-3.881 1.43-3.881 2.962 0 .936.834 1.481 1.906 1.481z" fill-rule="nonzero"/><path d="m392.753 25.799v-14.23" fill="none" stroke="#000" stroke-width=".4"/><path d="m388.941 28.64c1.753 0 3.915-1.464 3.915-2.962 0-.902-.8-1.481-1.941-1.481-1.719 0-3.881 1.43-3.881 2.962 0 .936.834 1.481 1.907 1.481z" fill-rule="nonzero"/><path d="m420.016 23.671v-14.23" fill="none" stroke="#000" stroke-width=".4"/><path d="m416.204 26.512c1.753 0 3.915-1.464 3.915-2.962 0-.902-.8-1.481-1.941-1.481-1.719 0-3.881 1.43-3.881 2.962 0 .936.834 1.481 1.907 1.481z" fill-rule="nonzero"/><path d="m447.412 19.416v-14.23" fill="none" stroke="#000" stroke-width=".4"/><path d="m443.6 22.256c1.753 0 3.915-1.464 3.915-2.962 0-.902-.8-1.481-1.941-1.481-1.719 0-3.881 1.43-3.881 2.962 0 .937.834 1.481 1.907 1.481z" fill-rule="nonzero"/><path d="m474.675 17.288v-14.23" fill="none" stroke="#000" stroke-width=".4"/><path d="m470.863 20.128c1.753 0 3.915-1.464 3.915-2.962 0-.902-.8-1.481-1.941-1.481-1.719 0-3.881 1.43-3.881 2.962 0 .937.834 1.481 1.907 1.481z" fill-rule="nonzero"/></svg>