<svg clip-rule="evenodd" fill-rule="evenodd" stroke-linejoin="round" stroke-miterlimit="2" viewBox="0 0 199 40" xmlns="http://www.w3.org/2000/svg"><g fill="none" stroke="#000"><path d="m194.959 11.733v19.881" stroke-width=".78"/><path d="m197.599 11.733v19.881" stroke-width=".78"/><g stroke-width=".47"><path d="m.026 31.614h197.884"/><path d="m.026 26.644h197.884"/><path d="m.026 21.673h197.884"/><path d="m.026 16.703h197.884"/><path d="m.026 11.733h197.884"/></g></g><path d="m14.151 30.954.756 3.678c.04.219.06.418.06.617 0 1.948-1.989 3.578-4.136 3.578-.656 0-1.292-.159-1.889-.457 1.531-.159 2.684-1.093 2.684-2.465 0-1.213-.994-2.485-2.266-2.485-1.451 0-2.446 1.113-2.446 2.564 0 2.028 1.651 3.36 3.639 3.36 2.664 0 4.93-1.729 4.93-4.215 0-.556-.874-4.493-.854-4.354 2.127-1.034 3.578-2.863 3.578-4.791 0-2.644-2.127-4.672-4.771-4.672-.04 0-.318.02-.796.059l-.874-4.195c2.962-2.505 4.314-5.169 4.314-8.092 0-2.246-.895-4.632-2.704-7.137-2.048 1.65-3.221 4.95-3.221 8.47 0 1.252.159 2.465.438 3.618-4.533 3.797-6.8 7.297-6.8 10.497 0 3.758 3.877 6.88 8.092 6.88.934 0 1.63-.14 2.266-.458zm-.059-26.124c.656.676.994 1.471.994 2.405 0 1.929-1.372 4.096-4.056 6.482-.139-.577-.179-1.213-.179-1.909 0-3.34 1.233-7.018 2.883-7.018.139 0 .258.02.358.04zm.417 25.309-1.411-6.64c.278-.02.437-.04.497-.04 1.71 0 2.902 1.61 2.902 3.26 0 1.313-.695 2.466-1.988 3.42zm-1.908-6.561 1.431 6.839c-.696.378-1.471.537-2.406.537-3.22 0-6.004-2.405-6.004-5.328 0-2.644 1.968-5.368 5.686-8.151l.835 3.976c-2.067.437-3.817 2.187-3.817 4.155 0 1.67 1.193 2.843 2.982 3.122-1.093-.676-1.63-1.531-1.63-2.545 0-1.372 1.272-2.386 2.923-2.605z" fill-rule="nonzero"/><path d="m36.061 36.585h10.562" fill="none" stroke="#000" stroke-width=".78"/><g fill-rule="nonzero"><path d="m40.152 39.126c2.047 0 4.572-1.71 4.572-3.46 0-1.054-.934-1.729-2.266-1.729-2.008 0-4.533 1.67-4.533 3.459 0 1.093.974 1.73 2.227 1.73z"/><path d="m56.616 36.64c2.048 0 4.573-1.709 4.573-3.459 0-1.054-.935-1.73-2.267-1.73-2.008 0-4.533 1.67-4.533 3.46 0 1.093.975 1.729 2.227 1.729z"/><path d="m72.925 31.67c2.048 0 4.573-1.71 4.573-3.459 0-1.054-.934-1.73-2.266-1.73-2.008 0-4.533 1.67-4.533 3.459 0 1.094.974 1.73 2.226 1.73z"/><path d="m89.39 29.185c2.048 0 4.573-1.71 4.573-3.46 0-1.053-.935-1.729-2.267-1.729-2.008 0-4.533 1.67-4.533 3.459 0 1.094.974 1.73 2.227 1.73z"/><path d="m105.854 21.729c2.048 0 4.573-1.71 4.573-3.459 0-1.054-.934-1.73-2.266-1.73-2.009 0-4.533 1.67-4.533 3.459 0 1.094.974 1.73 2.226 1.73z"/><path d="m122.319 19.244c2.048 0 4.572-1.71 4.572-3.459 0-1.054-.934-1.73-2.266-1.73-2.008 0-4.533 1.67-4.533 3.459 0 1.094.974 1.73 2.227 1.73z"/><path d="m138.628 14.274c2.048 0 4.573-1.71 4.573-3.46 0-1.054-.935-1.73-2.267-1.73-2.008 0-4.533 1.67-4.533 3.46 0 1.093.974 1.73 2.227 1.73z"/><path d="m155.092 11.788c2.048 0 4.573-1.709 4.573-3.459 0-1.054-.934-1.73-2.266-1.73-2.008 0-4.533 1.67-4.533 3.46 0 1.093.974 1.729 2.226 1.729z"/></g><path d="m167.466 6.762h10.562" fill="none" stroke="#000" stroke-width=".78"/><path d="m167.466 1.792h10.562" fill="none" stroke="#000" stroke-width=".78"/><path d="m171.557 4.333c2.048 0 4.573-1.71 4.573-3.46 0-1.053-.935-1.729-2.267-1.729-2.008 0-4.533 1.67-4.533 3.459 0 1.094.974 1.73 2.227 1.73z" fill-rule="nonzero"/></svg>