<?xml version="1.0" encoding="UTF-8" standalone="no"?>
<!DOCTYPE svg PUBLIC "-//W3C//DTD SVG 1.1//EN" "http://www.w3.org/Graphics/SVG/1.1/DTD/svg11.dtd">
<svg width="100%" height="100%" viewBox="0 0 474 85" version="1.1" xmlns="http://www.w3.org/2000/svg" xmlns:xlink="http://www.w3.org/1999/xlink" xml:space="preserve" xmlns:serif="http://www.serif.com/" style="fill-rule:evenodd;clip-rule:evenodd;stroke-linejoin:round;stroke-miterlimit:2;">
    <g>
        <path d="M5.345,9.882L5.345,76.983" style="fill:none;stroke:black;stroke-width:0.78px;"/>
        <path d="M1.307,9.882L1.307,76.983" style="fill:none;stroke:black;stroke-width:2.49px;"/>
        <path d="M9.11,2.392C9.11,2.252 9.031,2.193 8.852,2.193C8.693,2.193 7.778,2.869 6.904,3.485C4.995,4.817 2.709,5.553 0.064,5.93L0.064,10.483L2.55,10.483L2.55,8.714C3.742,8.157 5.114,7.123 7.102,5.135C8.434,3.763 9.11,2.849 9.11,2.392Z" style="fill-rule:nonzero;"/>
        <path d="M9.11,84.503C9.11,84.045 8.434,83.131 7.102,81.759C5.114,79.771 3.742,78.737 2.55,78.18L2.55,76.411L0.064,76.411L0.064,80.964C2.709,81.342 4.995,82.077 6.904,83.409C7.778,84.026 8.693,84.702 8.852,84.702C9.031,84.702 9.11,84.642 9.11,84.503Z" style="fill-rule:nonzero;"/>
        <path d="M136.285,9.882L136.285,76.983" style="fill:none;stroke:black;stroke-width:0.78px;"/>
        <path d="M246.721,9.882L246.721,76.983" style="fill:none;stroke:black;stroke-width:0.78px;"/>
        <path d="M357.157,9.882L357.157,76.983" style="fill:none;stroke:black;stroke-width:0.78px;"/>
        <path d="M470.855,9.882L470.855,76.983" style="fill:none;stroke:black;stroke-width:0.78px;"/>
        <path d="M473.496,9.882L473.496,76.983" style="fill:none;stroke:black;stroke-width:0.78px;"/>
        <path d="M5.035,29.764L473.807,29.764" style="fill:none;stroke:black;stroke-width:0.47px;"/>
        <path d="M5.035,24.794L473.807,24.794" style="fill:none;stroke:black;stroke-width:0.47px;"/>
        <path d="M5.035,19.823L473.807,19.823" style="fill:none;stroke:black;stroke-width:0.47px;"/>
        <path d="M5.035,14.853L473.807,14.853" style="fill:none;stroke:black;stroke-width:0.47px;"/>
        <path d="M5.035,9.882L473.807,9.882" style="fill:none;stroke:black;stroke-width:0.47px;"/>
        <path d="M19.161,29.104L19.916,32.782C19.956,33.001 19.976,33.2 19.976,33.399C19.976,35.347 17.988,36.977 15.84,36.977C15.184,36.977 14.548,36.818 13.952,36.52C15.483,36.361 16.636,35.427 16.636,34.055C16.636,32.842 15.642,31.569 14.369,31.569C12.918,31.569 11.924,32.683 11.924,34.134C11.924,36.162 13.574,37.494 15.562,37.494C18.226,37.494 20.493,35.764 20.493,33.279C20.493,32.723 19.618,28.786 19.638,28.925C21.765,27.891 23.217,26.062 23.217,24.134C23.217,21.489 21.089,19.462 18.445,19.462C18.405,19.462 18.127,19.481 17.65,19.521L16.775,15.326C19.737,12.821 21.089,10.157 21.089,7.234C21.089,4.988 20.194,2.602 18.385,0.097C16.337,1.747 15.164,5.047 15.164,8.566C15.164,9.819 15.323,11.032 15.602,12.185C11.069,15.982 8.802,19.481 8.802,22.682C8.802,26.44 12.679,29.561 16.894,29.561C17.829,29.561 18.524,29.422 19.161,29.104ZM19.101,2.98C19.757,3.656 20.095,4.451 20.095,5.385C20.095,7.314 18.723,9.481 16.039,11.867C15.9,11.29 15.86,10.654 15.86,9.958C15.86,6.618 17.093,2.94 18.743,2.94C18.882,2.94 19.002,2.96 19.101,2.98ZM19.519,28.289L18.107,21.649C18.385,21.629 18.544,21.609 18.604,21.609C20.314,21.609 21.507,23.219 21.507,24.869C21.507,26.182 20.811,27.335 19.519,28.289ZM17.61,21.728L19.041,28.567C18.345,28.945 17.57,29.104 16.636,29.104C13.415,29.104 10.631,26.698 10.631,23.776C10.631,21.132 12.6,18.408 16.318,15.624L17.153,19.601C15.085,20.038 13.335,21.788 13.335,23.756C13.335,25.426 14.528,26.599 16.318,26.877C15.224,26.201 14.687,25.347 14.687,24.333C14.687,22.961 15.96,21.947 17.61,21.728Z" style="fill-rule:nonzero;"/>
        <path d="M5.035,76.983L473.807,76.983" style="fill:none;stroke:black;stroke-width:0.47px;"/>
        <path d="M5.035,72.013L473.807,72.013" style="fill:none;stroke:black;stroke-width:0.47px;"/>
        <path d="M5.035,67.042L473.807,67.042" style="fill:none;stroke:black;stroke-width:0.47px;"/>
        <path d="M5.035,62.072L473.807,62.072" style="fill:none;stroke:black;stroke-width:0.47px;"/>
        <path d="M5.035,57.101L473.807,57.101" style="fill:none;stroke:black;stroke-width:0.47px;"/>
        <path d="M19.161,76.323L19.916,80.001C19.956,80.22 19.976,80.419 19.976,80.617C19.976,82.566 17.988,84.196 15.84,84.196C15.184,84.196 14.548,84.037 13.952,83.739C15.483,83.58 16.636,82.645 16.636,81.274C16.636,80.061 15.642,78.788 14.369,78.788C12.918,78.788 11.924,79.902 11.924,81.353C11.924,83.381 13.574,84.713 15.562,84.713C18.226,84.713 20.493,82.983 20.493,80.498C20.493,79.941 19.618,76.005 19.638,76.144C21.765,75.11 23.217,73.281 23.217,71.353C23.217,68.708 21.089,66.68 18.445,66.68C18.405,66.68 18.127,66.7 17.65,66.74L16.775,62.545C19.737,60.04 21.089,57.376 21.089,54.453C21.089,52.207 20.194,49.821 18.385,47.316C16.337,48.966 15.164,52.266 15.164,55.785C15.164,57.038 15.323,58.251 15.602,59.404C11.069,63.201 8.802,66.7 8.802,69.901C8.802,73.659 12.679,76.78 16.894,76.78C17.829,76.78 18.524,76.641 19.161,76.323ZM19.101,50.199C19.757,50.875 20.095,51.67 20.095,52.604C20.095,54.533 18.723,56.7 16.039,59.086C15.9,58.509 15.86,57.873 15.86,57.177C15.86,53.837 17.093,50.159 18.743,50.159C18.882,50.159 19.002,50.179 19.101,50.199ZM19.519,75.508L18.107,68.867C18.385,68.848 18.544,68.828 18.604,68.828C20.314,68.828 21.507,70.438 21.507,72.088C21.507,73.4 20.811,74.554 19.519,75.508ZM17.61,68.947L19.041,75.786C18.345,76.164 17.57,76.323 16.636,76.323C13.415,76.323 10.631,73.917 10.631,70.995C10.631,68.35 12.6,65.627 16.318,62.843L17.153,66.82C15.085,67.257 13.335,69.007 13.335,70.975C13.335,72.645 14.528,73.818 16.318,74.096C15.224,73.42 14.687,72.565 14.687,71.551C14.687,70.18 15.96,69.166 17.61,68.947Z" style="fill-rule:nonzero;"/>
        <path d="M40.294,31.473L40.294,14.853" style="fill:none;stroke:black;stroke-width:0.47px;"/>
        <path d="M35.841,34.79C37.889,34.79 40.414,33.08 40.414,31.331C40.414,30.277 39.48,29.601 38.148,29.601C36.14,29.601 33.615,31.271 33.615,33.061C33.615,34.154 34.589,34.79 35.841,34.79Z" style="fill-rule:nonzero;"/>
        <path d="M66.078,31.473L66.078,14.853" style="fill:none;stroke:black;stroke-width:0.47px;"/>
        <path d="M61.625,34.79C63.673,34.79 66.198,33.08 66.198,31.331C66.198,30.277 65.264,29.601 63.932,29.601C61.924,29.601 59.399,31.271 59.399,33.061C59.399,34.154 60.373,34.79 61.625,34.79Z" style="fill-rule:nonzero;"/>
        <path d="M91.862,31.473L91.862,14.853" style="fill:none;stroke:black;stroke-width:0.47px;"/>
        <path d="M87.409,34.79C89.457,34.79 91.982,33.08 91.982,31.331C91.982,30.277 91.048,29.601 89.716,29.601C87.708,29.601 85.183,31.271 85.183,33.061C85.183,34.154 86.157,34.79 87.409,34.79Z" style="fill-rule:nonzero;"/>
        <path d="M117.49,31.473L117.49,14.853" style="fill:none;stroke:black;stroke-width:0.47px;"/>
        <path d="M113.038,34.79C115.086,34.79 117.611,33.08 117.611,31.331C117.611,30.277 116.676,29.601 115.344,29.601C113.336,29.601 110.811,31.271 110.811,33.061C110.811,34.154 111.785,34.79 113.038,34.79Z" style="fill-rule:nonzero;"/>
        <path d="M150.73,31.473L150.73,14.853" style="fill:none;stroke:black;stroke-width:0.47px;"/>
        <path d="M146.278,34.79C148.325,34.79 150.85,33.08 150.85,31.331C150.85,30.277 149.916,29.601 148.584,29.601C146.576,29.601 144.051,31.271 144.051,33.061C144.051,34.154 145.025,34.79 146.278,34.79Z" style="fill-rule:nonzero;"/>
        <path d="M176.514,31.473L176.514,14.853" style="fill:none;stroke:black;stroke-width:0.47px;"/>
        <path d="M172.062,34.79C174.109,34.79 176.634,33.08 176.634,31.331C176.634,30.277 175.7,29.601 174.368,29.601C172.36,29.601 169.835,31.271 169.835,33.061C169.835,34.154 170.809,34.79 172.062,34.79Z" style="fill-rule:nonzero;"/>
        <path d="M202.298,31.473L202.298,14.853" style="fill:none;stroke:black;stroke-width:0.47px;"/>
        <path d="M197.846,34.79C199.893,34.79 202.418,33.08 202.418,31.331C202.418,30.277 201.484,29.601 200.152,29.601C198.144,29.601 195.619,31.271 195.619,33.061C195.619,34.154 196.593,34.79 197.846,34.79Z" style="fill-rule:nonzero;"/>
        <path d="M227.927,31.473L227.927,14.853" style="fill:none;stroke:black;stroke-width:0.47px;"/>
        <path d="M223.474,34.79C225.522,34.79 228.047,33.08 228.047,31.331C228.047,30.277 227.113,29.601 225.781,29.601C223.773,29.601 221.248,31.271 221.248,33.061C221.248,34.154 222.222,34.79 223.474,34.79Z" style="fill-rule:nonzero;"/>
        <path d="M261.166,26.502L261.166,9.882" style="fill:none;stroke:black;stroke-width:0.47px;"/>
        <path d="M256.714,29.82C258.762,29.82 261.287,28.11 261.287,26.36C261.287,25.307 260.352,24.631 259.02,24.631C257.012,24.631 254.487,26.301 254.487,28.09C254.487,29.184 255.461,29.82 256.714,29.82Z" style="fill-rule:nonzero;"/>
        <path d="M286.95,24.017L286.95,7.397" style="fill:none;stroke:black;stroke-width:0.47px;"/>
        <path d="M282.498,27.335C284.546,27.335 287.071,25.625 287.071,23.875C287.071,22.822 286.136,22.146 284.804,22.146C282.796,22.146 280.271,23.816 280.271,25.605C280.271,26.698 281.245,27.335 282.498,27.335Z" style="fill-rule:nonzero;"/>
        <path d="M312.734,31.473L312.734,14.853" style="fill:none;stroke:black;stroke-width:0.47px;"/>
        <path d="M308.282,34.79C310.33,34.79 312.855,33.08 312.855,31.331C312.855,30.277 311.92,29.601 310.588,29.601C308.58,29.601 306.055,31.271 306.055,33.061C306.055,34.154 307.029,34.79 308.282,34.79Z" style="fill-rule:nonzero;"/>
        <path d="M329.82,34.735L340.382,34.735" style="fill:none;stroke:black;stroke-width:0.78px;"/>
        <path d="M338.363,33.958L338.363,17.338" style="fill:none;stroke:black;stroke-width:0.47px;"/>
        <path d="M333.911,37.275C335.958,37.275 338.483,35.566 338.483,33.816C338.483,32.762 337.549,32.086 336.217,32.086C334.209,32.086 331.684,33.756 331.684,35.546C331.684,36.639 332.658,37.275 333.911,37.275Z" style="fill-rule:nonzero;"/>
        <path d="M371.603,26.502L371.603,9.882" style="fill:none;stroke:black;stroke-width:0.47px;"/>
        <path d="M367.15,29.82C369.198,29.82 371.723,28.11 371.723,26.36C371.723,25.307 370.789,24.631 369.457,24.631C367.448,24.631 364.924,26.301 364.924,28.09C364.924,29.184 365.898,29.82 367.15,29.82Z" style="fill-rule:nonzero;"/>
        <path d="M397.387,24.017L397.387,7.397" style="fill:none;stroke:black;stroke-width:0.47px;"/>
        <path d="M392.934,27.335C394.982,27.335 397.507,25.625 397.507,23.875C397.507,22.822 396.573,22.146 395.241,22.146C393.232,22.146 390.708,23.816 390.708,25.605C390.708,26.698 391.682,27.335 392.934,27.335Z" style="fill-rule:nonzero;"/>
        <path d="M416.647,15.63L416.647,32.249" style="fill:none;stroke:black;stroke-width:0.47px;"/>
        <path d="M418.718,17.394C420.766,17.394 423.291,15.684 423.291,13.934C423.291,12.881 422.357,12.205 421.025,12.205C419.016,12.205 416.492,13.875 416.492,15.664C416.492,16.758 417.466,17.394 418.718,17.394Z" style="fill-rule:nonzero;"/>
        <path d="M442.276,18.115L442.276,34.735" style="fill:none;stroke:black;stroke-width:0.47px;"/>
        <path d="M444.347,19.879C446.395,19.879 448.92,18.169 448.92,16.42C448.92,15.366 447.985,14.69 446.653,14.69C444.645,14.69 442.12,16.36 442.12,18.149C442.12,19.243 443.094,19.879 444.347,19.879Z" style="fill-rule:nonzero;"/>
        <path d="M33.77,57.878L33.77,74.498" style="fill:none;stroke:black;stroke-width:0.47px;"/>
        <path d="M35.841,59.642C37.889,59.642 40.414,57.933 40.414,56.183C40.414,55.129 39.48,54.453 38.148,54.453C36.14,54.453 33.615,56.123 33.615,57.913C33.615,59.006 34.589,59.642 35.841,59.642Z" style="fill-rule:nonzero;"/>
        <path d="M59.554,62.848L59.554,79.468" style="fill:none;stroke:black;stroke-width:0.47px;"/>
        <path d="M61.625,64.613C63.673,64.613 66.198,62.903 66.198,61.153C66.198,60.1 65.264,59.424 63.932,59.424C61.924,59.424 59.399,61.094 59.399,62.883C59.399,63.977 60.373,64.613 61.625,64.613Z" style="fill-rule:nonzero;"/>
        <path d="M85.338,65.334L85.338,81.953" style="fill:none;stroke:black;stroke-width:0.47px;"/>
        <path d="M87.409,67.098C89.457,67.098 91.982,65.388 91.982,63.639C91.982,62.585 91.048,61.909 89.716,61.909C87.708,61.909 85.183,63.579 85.183,65.368C85.183,66.462 86.157,67.098 87.409,67.098Z" style="fill-rule:nonzero;"/>
        <path d="M110.967,55.393L110.967,72.013" style="fill:none;stroke:black;stroke-width:0.47px;"/>
        <path d="M113.038,57.157C115.086,57.157 117.611,55.447 117.611,53.698C117.611,52.644 116.676,51.968 115.344,51.968C113.336,51.968 110.811,53.638 110.811,55.427C110.811,56.521 111.785,57.157 113.038,57.157Z" style="fill-rule:nonzero;"/>
        <path d="M144.206,57.878L144.206,74.498" style="fill:none;stroke:black;stroke-width:0.47px;"/>
        <path d="M146.278,59.642C148.325,59.642 150.85,57.933 150.85,56.183C150.85,55.129 149.916,54.453 148.584,54.453C146.576,54.453 144.051,56.123 144.051,57.913C144.051,59.006 145.025,59.642 146.278,59.642Z" style="fill-rule:nonzero;"/>
        <path d="M169.99,55.393L169.99,72.013" style="fill:none;stroke:black;stroke-width:0.47px;"/>
        <path d="M172.062,57.157C174.109,57.157 176.634,55.447 176.634,53.698C176.634,52.644 175.7,51.968 174.368,51.968C172.36,51.968 169.835,53.638 169.835,55.427C169.835,56.521 170.809,57.157 172.062,57.157Z" style="fill-rule:nonzero;"/>
        <path d="M195.774,62.848L195.774,79.468" style="fill:none;stroke:black;stroke-width:0.47px;"/>
        <path d="M197.846,64.613C199.893,64.613 202.418,62.903 202.418,61.153C202.418,60.1 201.484,59.424 200.152,59.424C198.144,59.424 195.619,61.094 195.619,62.883C195.619,63.977 196.593,64.613 197.846,64.613Z" style="fill-rule:nonzero;"/>
        <path d="M221.403,65.334L221.403,81.953" style="fill:none;stroke:black;stroke-width:0.47px;"/>
        <path d="M223.474,67.098C225.522,67.098 228.047,65.388 228.047,63.639C228.047,62.585 227.113,61.909 225.781,61.909C223.773,61.909 221.248,63.579 221.248,65.368C221.248,66.462 222.222,67.098 223.474,67.098Z" style="fill-rule:nonzero;"/>
        <path d="M261.166,78.692L261.166,62.072" style="fill:none;stroke:black;stroke-width:0.47px;"/>
        <path d="M256.714,82.009C258.762,82.009 261.287,80.299 261.287,78.55C261.287,77.496 260.352,76.82 259.02,76.82C257.012,76.82 254.487,78.49 254.487,80.279C254.487,81.373 255.461,82.009 256.714,82.009Z" style="fill-rule:nonzero;"/>
        <path d="M286.95,78.692L286.95,62.072" style="fill:none;stroke:black;stroke-width:0.47px;"/>
        <path d="M282.498,82.009C284.546,82.009 287.071,80.299 287.071,78.55C287.071,77.496 286.136,76.82 284.804,76.82C282.796,76.82 280.271,78.49 280.271,80.279C280.271,81.373 281.245,82.009 282.498,82.009Z" style="fill-rule:nonzero;"/>
        <path d="M312.734,78.692L312.734,62.072" style="fill:none;stroke:black;stroke-width:0.47px;"/>
        <path d="M308.282,82.009C310.33,82.009 312.855,80.299 312.855,78.55C312.855,77.496 311.92,76.82 310.588,76.82C308.58,76.82 306.055,78.49 306.055,80.279C306.055,81.373 307.029,82.009 308.282,82.009Z" style="fill-rule:nonzero;"/>
        <path d="M338.363,78.692L338.363,62.072" style="fill:none;stroke:black;stroke-width:0.47px;"/>
        <path d="M333.911,82.009C335.958,82.009 338.483,80.299 338.483,78.55C338.483,77.496 337.549,76.82 336.217,76.82C334.209,76.82 331.684,78.49 331.684,80.279C331.684,81.373 332.658,82.009 333.911,82.009Z" style="fill-rule:nonzero;"/>
        <path d="M371.603,78.692L371.603,62.072" style="fill:none;stroke:black;stroke-width:0.47px;"/>
        <path d="M367.15,82.009C369.198,82.009 371.723,80.299 371.723,78.55C371.723,77.496 370.789,76.82 369.457,76.82C367.448,76.82 364.924,78.49 364.924,80.279C364.924,81.373 365.898,82.009 367.15,82.009Z" style="fill-rule:nonzero;"/>
        <path d="M397.387,78.692L397.387,62.072" style="fill:none;stroke:black;stroke-width:0.47px;"/>
        <path d="M392.934,82.009C394.982,82.009 397.507,80.299 397.507,78.55C397.507,77.496 396.573,76.82 395.241,76.82C393.232,76.82 390.708,78.49 390.708,80.279C390.708,81.373 391.682,82.009 392.934,82.009Z" style="fill-rule:nonzero;"/>
        <path d="M423.171,78.692L423.171,62.072" style="fill:none;stroke:black;stroke-width:0.47px;"/>
        <path d="M418.718,82.009C420.766,82.009 423.291,80.299 423.291,78.55C423.291,77.496 422.357,76.82 421.025,76.82C419.016,76.82 416.492,78.49 416.492,80.279C416.492,81.373 417.466,82.009 418.718,82.009Z" style="fill-rule:nonzero;"/>
        <path d="M448.799,78.692L448.799,62.072" style="fill:none;stroke:black;stroke-width:0.47px;"/>
        <path d="M444.347,82.009C446.395,82.009 448.92,80.299 448.92,78.55C448.92,77.496 447.985,76.82 446.653,76.82C444.645,76.82 442.12,78.49 442.12,80.279C442.12,81.373 443.094,82.009 444.347,82.009Z" style="fill-rule:nonzero;"/>
    </g>
</svg>
