<?xml version="1.0" encoding="UTF-8" standalone="no"?>
<!DOCTYPE svg PUBLIC "-//W3C//DTD SVG 1.1//EN" "http://www.w3.org/Graphics/SVG/1.1/DTD/svg11.dtd">
<svg width="100%" height="100%" viewBox="0 0 210 38" version="1.1" xmlns="http://www.w3.org/2000/svg" xmlns:xlink="http://www.w3.org/1999/xlink" xml:space="preserve" xmlns:serif="http://www.serif.com/" style="fill-rule:evenodd;clip-rule:evenodd;stroke-linejoin:round;stroke-miterlimit:2;">
    <g>
        <path d="M116.509,9.654L116.509,29.536" style="fill:none;stroke:black;stroke-width:0.78px;"/>
        <path d="M206.131,9.654L206.131,29.536" style="fill:none;stroke:black;stroke-width:0.78px;"/>
        <path d="M208.772,9.654L208.772,29.536" style="fill:none;stroke:black;stroke-width:0.78px;"/>
        <path d="M30.081,16.862L30.081,16.02L28.818,16.02L28.818,11.512L26.314,13.736L26.314,16.02L23.609,16.02C23.909,15.259 24.731,14.217 26.073,12.875C27.295,11.652 27.997,10.57 28.197,9.669L24.771,9.669C24.61,11.632 23.448,14.498 22.226,16.06L22.226,16.862L26.314,16.862C26.314,17.563 26.294,17.964 26.253,18.064C26.133,18.284 25.753,18.425 25.131,18.465L25.091,19.026L30.02,19.026L29.94,18.445C28.978,18.365 28.798,18.264 28.798,17.764C28.798,17.703 28.798,17.583 28.818,17.383L28.818,16.862L30.081,16.862Z" style="fill-rule:nonzero;"/>
        <path d="M30.081,26.936L30.081,26.095L28.818,26.095L28.818,21.586L26.314,23.81L26.314,26.095L23.609,26.095C23.909,25.333 24.731,24.291 26.073,22.949C27.295,21.727 27.997,20.645 28.197,19.743L24.771,19.743C24.61,21.707 23.448,24.572 22.226,26.135L22.226,26.936L26.314,26.936C26.314,27.637 26.294,28.038 26.253,28.138C26.133,28.359 25.753,28.499 25.131,28.539L25.091,29.1L30.02,29.1L29.94,28.519C28.978,28.439 28.798,28.339 28.798,27.838C28.798,27.778 28.798,27.658 28.818,27.457L28.818,26.936L30.081,26.936Z" style="fill-rule:nonzero;"/>
        <path d="M0.015,29.536L209.082,29.536" style="fill:none;stroke:black;stroke-width:0.47px;"/>
        <path d="M0.015,24.565L209.082,24.565" style="fill:none;stroke:black;stroke-width:0.47px;"/>
        <path d="M0.015,19.595L209.082,19.595" style="fill:none;stroke:black;stroke-width:0.47px;"/>
        <path d="M0.015,14.625L209.082,14.625" style="fill:none;stroke:black;stroke-width:0.47px;"/>
        <path d="M0.015,9.654L209.082,9.654" style="fill:none;stroke:black;stroke-width:0.47px;"/>
        <path d="M14.14,28.876L14.896,32.554C14.936,32.773 14.956,32.971 14.956,33.17C14.956,35.119 12.967,36.749 10.82,36.749C10.164,36.749 9.528,36.59 8.931,36.292C10.462,36.133 11.615,35.198 11.615,33.826C11.615,32.614 10.621,31.341 9.349,31.341C7.898,31.341 6.904,32.455 6.904,33.906C6.904,35.934 8.554,37.266 10.542,37.266C13.206,37.266 15.473,35.536 15.473,33.051C15.473,32.494 14.598,28.558 14.618,28.697C16.745,27.663 18.196,25.834 18.196,23.905C18.196,21.261 16.069,19.233 13.425,19.233C13.385,19.233 13.107,19.253 12.629,19.293L11.755,15.098C14.717,12.593 16.069,9.929 16.069,7.006C16.069,4.759 15.174,2.374 13.365,-0.131C11.317,1.519 10.144,4.819 10.144,8.338C10.144,9.591 10.303,10.803 10.582,11.957C6.049,15.754 3.782,19.253 3.782,22.454C3.782,26.212 7.659,29.333 11.874,29.333C12.808,29.333 13.504,29.194 14.14,28.876ZM14.081,2.751C14.737,3.427 15.075,4.223 15.075,5.157C15.075,7.086 13.703,9.253 11.019,11.638C10.88,11.062 10.84,10.426 10.84,9.73C10.84,6.39 12.073,2.712 13.723,2.712C13.862,2.712 13.981,2.731 14.081,2.751ZM14.498,28.061L13.087,21.42C13.365,21.4 13.524,21.38 13.584,21.38C15.294,21.38 16.486,22.991 16.486,24.641C16.486,25.953 15.791,27.106 14.498,28.061ZM12.59,21.5L14.021,28.339C13.325,28.717 12.55,28.876 11.615,28.876C8.395,28.876 5.611,26.47 5.611,23.548C5.611,20.903 7.58,18.18 11.297,15.396L12.132,19.372C10.065,19.81 8.315,21.559 8.315,23.528C8.315,25.198 9.508,26.371 11.297,26.649C10.204,25.973 9.667,25.118 9.667,24.104C9.667,22.732 10.939,21.718 12.59,21.5Z" style="fill-rule:nonzero;"/>
        <path d="M44.593,31.244L44.593,14.625" style="fill:none;stroke:black;stroke-width:0.47px;"/>
        <path d="M40.141,34.562C42.188,34.562 44.713,32.852 44.713,31.103C44.713,30.049 43.779,29.373 42.447,29.373C40.439,29.373 37.914,31.043 37.914,32.832C37.914,33.926 38.888,34.562 40.141,34.562Z" style="fill-rule:nonzero;"/>
        <path d="M64.319,26.274L64.319,9.654" style="fill:none;stroke:black;stroke-width:0.47px;"/>
        <path d="M59.867,29.592C61.915,29.592 64.44,27.882 64.44,26.132C64.44,25.078 63.505,24.402 62.173,24.402C60.165,24.402 57.64,26.073 57.64,27.862C57.64,28.955 58.614,29.592 59.867,29.592Z" style="fill-rule:nonzero;"/>
        <path d="M84.046,23.789L84.046,7.169" style="fill:none;stroke:black;stroke-width:0.47px;"/>
        <path d="M79.593,27.106C81.641,27.106 84.166,25.397 84.166,23.647C84.166,22.593 83.232,21.917 81.9,21.917C79.892,21.917 77.367,23.587 77.367,25.377C77.367,26.47 78.341,27.106 79.593,27.106Z" style="fill-rule:nonzero;"/>
        <path d="M97.248,17.886L97.248,34.506" style="fill:none;stroke:black;stroke-width:0.47px;"/>
        <path d="M99.32,19.651C101.367,19.651 103.892,17.941 103.892,16.191C103.892,15.138 102.958,14.462 101.626,14.462C99.618,14.462 97.093,16.132 97.093,17.921C97.093,19.015 98.067,19.651 99.32,19.651Z" style="fill-rule:nonzero;"/>
        <path d="M130.954,26.274L130.954,9.654" style="fill:none;stroke:black;stroke-width:0.47px;"/>
        <path d="M126.502,29.592C128.549,29.592 131.074,27.882 131.074,26.132C131.074,25.078 130.14,24.402 128.808,24.402C126.8,24.402 124.275,26.073 124.275,27.862C124.275,28.955 125.249,29.592 126.502,29.592Z" style="fill-rule:nonzero;"/>
        <path d="M142.137,34.506L152.699,34.506" style="fill:none;stroke:black;stroke-width:0.78px;"/>
        <path d="M150.68,33.73L150.68,17.11" style="fill:none;stroke:black;stroke-width:0.47px;"/>
        <path d="M146.228,37.047C148.276,37.047 150.801,35.337 150.801,33.588C150.801,32.534 149.866,31.858 148.534,31.858C146.526,31.858 144.001,33.528 144.001,35.318C144.001,36.411 144.975,37.047 146.228,37.047Z" style="fill-rule:nonzero;"/>
        <path d="M170.406,31.244L170.406,14.625" style="fill:none;stroke:black;stroke-width:0.47px;"/>
        <path d="M165.954,34.562C168.002,34.562 170.527,32.852 170.527,31.103C170.527,30.049 169.592,29.373 168.26,29.373C166.252,29.373 163.727,31.043 163.727,32.832C163.727,33.926 164.702,34.562 165.954,34.562Z" style="fill-rule:nonzero;"/>
        <path d="M190.133,31.244L190.133,14.625" style="fill:none;stroke:black;stroke-width:0.47px;"/>
        <path d="M185.68,34.562C187.728,34.562 190.253,32.852 190.253,31.103C190.253,30.049 189.319,29.373 187.987,29.373C185.979,29.373 183.454,31.043 183.454,32.832C183.454,33.926 184.428,34.562 185.68,34.562Z" style="fill-rule:nonzero;"/>
    </g>
</svg>
