<svg clip-rule="evenodd" fill-rule="evenodd" stroke-linejoin="round" stroke-miterlimit="2" viewBox="0 0 207 38" xmlns="http://www.w3.org/2000/svg"><g fill="none" stroke="#000" stroke-width=".78"><path d="m114.958 9.731v19.882"/><path d="m203.028 9.731v19.882"/><path d="m205.668 9.731v19.882"/></g><path d="m30.084 16.939v-.842h-1.263v-4.508l-2.504 2.224v2.284h-2.705c.3-.761 1.122-1.803 2.464-3.146 1.222-1.222 1.924-2.304 2.124-3.206h-3.426c-.161 1.964-1.323 4.829-2.545 6.392v.802h4.088c0 .701-.02 1.102-.06 1.202-.121.22-.501.361-1.123.401l-.04.561h4.929l-.08-.581c-.961-.08-1.142-.181-1.142-.682 0-.06 0-.18.02-.38v-.521z" fill-rule="nonzero"/><path d="m30.084 27.013v-.841h-1.263v-4.509l-2.504 2.224v2.285h-2.705c.3-.762 1.122-1.804 2.464-3.146 1.222-1.223 1.924-2.305 2.124-3.206h-3.426c-.161 1.963-1.323 4.829-2.545 6.392v.801h4.088c0 .701-.02 1.102-.06 1.202-.121.221-.501.361-1.123.401l-.04.561h4.929l-.08-.581c-.961-.08-1.142-.18-1.142-.681 0-.06 0-.181.02-.381v-.521z" fill-rule="nonzero"/><g fill="none" stroke="#000" stroke-width=".47"><path d="m.018 29.613h205.961"/><path d="m.018 24.642h205.961"/><path d="m.018 19.672h205.961"/><path d="m.018 14.701h205.961"/><path d="m.018 9.731h205.961"/></g><path d="m14.143 28.953.756 3.678c.04.219.06.417.06.616 0 1.949-1.989 3.579-4.136 3.579-.656 0-1.292-.159-1.889-.457 1.531-.159 2.685-1.094 2.685-2.466 0-1.213-.995-2.485-2.267-2.485-1.451 0-2.445 1.113-2.445 2.565 0 2.028 1.65 3.36 3.638 3.36 2.664 0 4.931-1.73 4.931-4.215 0-.557-.875-4.493-.855-4.354 2.127-1.034 3.578-2.863 3.578-4.792 0-2.644-2.127-4.672-4.771-4.672-.04 0-.318.02-.796.06l-.874-4.195c2.962-2.505 4.314-5.169 4.314-8.092 0-2.247-.895-4.632-2.704-7.138-2.048 1.651-3.221 4.951-3.221 8.47 0 1.253.159 2.465.438 3.618-4.533 3.798-6.8 7.297-6.8 10.498 0 3.758 3.877 6.879 8.092 6.879.934 0 1.63-.139 2.266-.457zm-.059-26.125c.656.676.994 1.471.994 2.406 0 1.928-1.372 4.096-4.056 6.481-.139-.576-.179-1.212-.179-1.908 0-3.34 1.233-7.019 2.883-7.019.139 0 .258.02.358.04zm.417 25.31-1.411-6.641c.278-.02.437-.04.497-.04 1.71 0 2.903 1.611 2.903 3.261 0 1.312-.696 2.465-1.989 3.42zm-1.908-6.561 1.431 6.839c-.696.378-1.471.537-2.405.537-3.221 0-6.005-2.406-6.005-5.329 0-2.644 1.969-5.368 5.686-8.151l.835 3.976c-2.067.438-3.817 2.187-3.817 4.156 0 1.67 1.193 2.843 2.982 3.121-1.093-.676-1.63-1.531-1.63-2.545 0-1.372 1.273-2.386 2.923-2.604z" fill-rule="nonzero"/><path d="m44.596 31.321v-16.62" fill="none" stroke="#000" stroke-width=".47"/><path d="m40.144 34.639c2.047 0 4.572-1.71 4.572-3.46 0-1.053-.934-1.729-2.266-1.729-2.008 0-4.533 1.67-4.533 3.459 0 1.094.974 1.73 2.227 1.73z" fill-rule="nonzero"/><path d="m64.012 31.321v-16.62" fill="none" stroke="#000" stroke-width=".47"/><path d="m59.559 34.639c2.048 0 4.573-1.71 4.573-3.46 0-1.053-.934-1.729-2.266-1.729-2.008 0-4.533 1.67-4.533 3.459 0 1.094.974 1.73 2.226 1.73z" fill-rule="nonzero"/><path d="m83.272 31.321v-16.62" fill="none" stroke="#000" stroke-width=".47"/><path d="m78.82 34.639c2.047 0 4.572-1.71 4.572-3.46 0-1.053-.934-1.729-2.266-1.729-2.008 0-4.533 1.67-4.533 3.459 0 1.094.974 1.73 2.227 1.73z" fill-rule="nonzero"/><path d="m102.688 31.321v-16.62" fill="none" stroke="#000" stroke-width=".47"/><path d="m98.235 34.639c2.048 0 4.573-1.71 4.573-3.46 0-1.053-.934-1.729-2.266-1.729-2.008 0-4.533 1.67-4.533 3.459 0 1.094.974 1.73 2.226 1.73z" fill-rule="nonzero"/><path d="m129.404 31.321v-16.62" fill="none" stroke="#000" stroke-width=".47"/><path d="m124.951 34.639c2.048 0 4.573-1.71 4.573-3.46 0-1.053-.934-1.729-2.266-1.729-2.008 0-4.533 1.67-4.533 3.459 0 1.094.974 1.73 2.226 1.73z" fill-rule="nonzero"/><path d="m148.819 31.321v-16.62" fill="none" stroke="#000" stroke-width=".47"/><path d="m144.367 34.639c2.048 0 4.573-1.71 4.573-3.46 0-1.053-.935-1.729-2.267-1.729-2.008 0-4.533 1.67-4.533 3.459 0 1.094.974 1.73 2.227 1.73z" fill-rule="nonzero"/><path d="m168.08 31.321v-16.62" fill="none" stroke="#000" stroke-width=".47"/><path d="m163.627 34.639c2.048 0 4.573-1.71 4.573-3.46 0-1.053-.934-1.729-2.266-1.729-2.008 0-4.533 1.67-4.533 3.459 0 1.094.974 1.73 2.226 1.73z" fill-rule="nonzero"/><path d="m187.495 31.321v-16.62" fill="none" stroke="#000" stroke-width=".47"/><path d="m183.043 34.639c2.048 0 4.573-1.71 4.573-3.46 0-1.053-.935-1.729-2.267-1.729-2.008 0-4.533 1.67-4.533 3.459 0 1.094.974 1.73 2.227 1.73z" fill-rule="nonzero"/></svg>