<svg clip-rule="evenodd" fill-rule="evenodd" stroke-linejoin="round" stroke-miterlimit="2" viewBox="0 0 161 38" xmlns="http://www.w3.org/2000/svg"><g fill="none" stroke="#000"><path d="m157.717 9.651v19.882" stroke-width=".78"/><path d="m160.358 9.651v19.882" stroke-width=".78"/><g stroke-width=".47"><path d="m.062 29.533h160.607"/><path d="m.062 24.563h160.607"/><path d="m.062 19.592h160.607"/><path d="m.062 14.622h160.607"/><path d="m.062 9.651h160.607"/></g></g><path d="m14.188 28.873.756 3.678c.039.219.059.418.059.617 0 1.948-1.988 3.578-4.135 3.578-.656 0-1.292-.159-1.889-.457 1.531-.159 2.684-1.094 2.684-2.465 0-1.213-.994-2.486-2.266-2.486-1.452 0-2.446 1.114-2.446 2.565 0 2.028 1.65 3.36 3.639 3.36 2.664 0 4.93-1.73 4.93-4.215 0-.556-.875-4.493-.855-4.354 2.128-1.034 3.579-2.863 3.579-4.791 0-2.645-2.127-4.673-4.772-4.673-.039 0-.318.02-.795.06l-.875-4.195c2.963-2.505 4.315-5.169 4.315-8.092 0-2.246-.895-4.632-2.704-7.137-2.048 1.65-3.221 4.95-3.221 8.469 0 1.253.159 2.466.437 3.619-4.533 3.797-6.799 7.296-6.799 10.497 0 3.758 3.877 6.879 8.092 6.879.934 0 1.63-.139 2.266-.457zm-.06-26.124c.657.676.995 1.471.995 2.405 0 1.929-1.372 4.096-4.056 6.482-.139-.577-.179-1.213-.179-1.909 0-3.34 1.232-7.018 2.883-7.018.139 0 .258.02.357.04zm.418 25.309-1.412-6.641c.279-.019.438-.039.497-.039 1.71 0 2.903 1.61 2.903 3.26 0 1.312-.696 2.466-1.988 3.42zm-1.909-6.561 1.432 6.839c-.696.378-1.471.537-2.406.537-3.221 0-6.004-2.406-6.004-5.328 0-2.644 1.968-5.368 5.686-8.152l.835 3.977c-2.068.437-3.817 2.187-3.817 4.155 0 1.67 1.193 2.843 2.982 3.121-1.093-.676-1.63-1.531-1.63-2.545 0-1.371 1.272-2.385 2.922-2.604z" fill-rule="nonzero"/><path d="m37.962 34.503h10.562" fill="none" stroke="#000" stroke-width=".78"/><path d="m46.504 33.727v-16.62" fill="none" stroke="#000" stroke-width=".47"/><path d="m42.052 37.044c2.048 0 4.573-1.709 4.573-3.459 0-1.054-.934-1.73-2.266-1.73-2.009 0-4.533 1.67-4.533 3.46 0 1.093.974 1.729 2.226 1.729z" fill-rule="nonzero"/><path d="m75.24 31.242v-16.62" fill="none" stroke="#000" stroke-width=".47"/><path d="m70.787 34.559c2.048 0 4.573-1.71 4.573-3.459 0-1.054-.934-1.73-2.266-1.73-2.008 0-4.533 1.67-4.533 3.46 0 1.093.974 1.729 2.226 1.729z" fill-rule="nonzero"/><path d="m103.975 26.271v-16.62" fill="none" stroke="#000" stroke-width=".47"/><path d="m99.523 29.589c2.047 0 4.572-1.71 4.572-3.46 0-1.053-.934-1.729-2.266-1.729-2.008 0-4.533 1.67-4.533 3.459 0 1.094.974 1.73 2.227 1.73z" fill-rule="nonzero"/><path d="m132.71 23.786v-16.62" fill="none" stroke="#000" stroke-width=".47"/><path d="m128.258 27.104c2.048 0 4.573-1.71 4.573-3.46 0-1.054-.935-1.729-2.267-1.729-2.008 0-4.533 1.67-4.533 3.459 0 1.093.974 1.73 2.227 1.73z" fill-rule="nonzero"/></svg>