<?xml version="1.0" encoding="UTF-8" standalone="no"?>
<!DOCTYPE svg PUBLIC "-//W3C//DTD SVG 1.1//EN" "http://www.w3.org/Graphics/SVG/1.1/DTD/svg11.dtd">
<svg width="100%" height="100%" viewBox="0 0 471 90" version="1.1" xmlns="http://www.w3.org/2000/svg" xmlns:xlink="http://www.w3.org/1999/xlink" xml:space="preserve" xmlns:serif="http://www.serif.com/" style="fill-rule:evenodd;clip-rule:evenodd;stroke-linejoin:round;stroke-miterlimit:2;">
    <g>
        <path d="M470.571,9.822L470.571,29.66" style="fill:none;stroke:black;stroke-width:0.77px;"/>
        <path d="M470.571,61.741L470.571,81.578" style="fill:none;stroke:black;stroke-width:0.77px;"/>
        <path d="M0.051,29.66L470.881,29.66" style="fill:none;stroke:black;stroke-width:0.46px;"/>
        <path d="M0.051,24.701L470.881,24.701" style="fill:none;stroke:black;stroke-width:0.46px;"/>
        <path d="M0.051,19.741L470.881,19.741" style="fill:none;stroke:black;stroke-width:0.46px;"/>
        <path d="M0.051,14.782L470.881,14.782" style="fill:none;stroke:black;stroke-width:0.46px;"/>
        <path d="M0.051,9.822L470.881,9.822" style="fill:none;stroke:black;stroke-width:0.46px;"/>
        <path d="M14.145,29.001L14.899,32.671C14.939,32.89 14.959,33.088 14.959,33.286C14.959,35.23 12.975,36.857 10.833,36.857C10.178,36.857 9.543,36.698 8.948,36.401C10.476,36.242 11.626,35.31 11.626,33.941C11.626,32.731 10.634,31.461 9.365,31.461C7.916,31.461 6.925,32.572 6.925,34.02C6.925,36.044 8.571,37.373 10.555,37.373C13.213,37.373 15.475,35.647 15.475,33.167C15.475,32.612 14.602,28.684 14.622,28.823C16.744,27.791 18.192,25.966 18.192,24.042C18.192,21.404 16.07,19.38 13.431,19.38C13.392,19.38 13.114,19.4 12.638,19.44L11.765,15.254C14.721,12.754 16.07,10.096 16.07,7.18C16.07,4.939 15.177,2.558 13.372,0.058C11.329,1.705 10.158,4.998 10.158,8.509C10.158,9.759 10.317,10.969 10.595,12.12C6.072,15.909 3.81,19.4 3.81,22.594C3.81,26.343 7.678,29.458 11.884,29.458C12.816,29.458 13.511,29.319 14.145,29.001ZM14.086,2.935C14.741,3.609 15.078,4.403 15.078,5.335C15.078,7.259 13.709,9.422 11.031,11.802C10.892,11.227 10.852,10.592 10.852,9.898C10.852,6.565 12.082,2.895 13.729,2.895C13.868,2.895 13.987,2.915 14.086,2.935ZM14.503,28.188L13.094,21.562C13.372,21.542 13.53,21.523 13.59,21.523C15.296,21.523 16.486,23.129 16.486,24.776C16.486,26.085 15.792,27.236 14.503,28.188ZM12.598,21.642L14.026,28.466C13.332,28.843 12.558,29.001 11.626,29.001C8.412,29.001 5.635,26.601 5.635,23.685C5.635,21.047 7.599,18.329 11.309,15.552L12.142,19.519C10.079,19.955 8.333,21.701 8.333,23.665C8.333,25.331 9.523,26.502 11.309,26.78C10.218,26.105 9.682,25.252 9.682,24.24C9.682,22.872 10.952,21.86 12.598,21.642Z" style="fill-rule:nonzero;"/>
        <path d="M0.051,81.578L470.881,81.578" style="fill:none;stroke:black;stroke-width:0.46px;"/>
        <path d="M0.051,76.619L470.881,76.619" style="fill:none;stroke:black;stroke-width:0.46px;"/>
        <path d="M0.051,71.66L470.881,71.66" style="fill:none;stroke:black;stroke-width:0.46px;"/>
        <path d="M0.051,66.7L470.881,66.7" style="fill:none;stroke:black;stroke-width:0.46px;"/>
        <path d="M0.051,61.741L470.881,61.741" style="fill:none;stroke:black;stroke-width:0.46px;"/>
        <path d="M14.145,80.92L14.899,84.59C14.939,84.808 14.959,85.006 14.959,85.205C14.959,87.149 12.975,88.775 10.833,88.775C10.178,88.775 9.543,88.617 8.948,88.319C10.476,88.16 11.626,87.228 11.626,85.859C11.626,84.649 10.634,83.38 9.365,83.38C7.916,83.38 6.925,84.491 6.925,85.939C6.925,87.962 8.571,89.291 10.555,89.291C13.213,89.291 15.475,87.565 15.475,85.086C15.475,84.53 14.602,80.602 14.622,80.741C16.744,79.71 18.192,77.885 18.192,75.96C18.192,73.322 16.07,71.299 13.431,71.299C13.392,71.299 13.114,71.318 12.638,71.358L11.765,67.172C14.721,64.673 16.07,62.015 16.07,59.099C16.07,56.857 15.177,54.476 13.372,51.977C11.329,53.623 10.158,56.916 10.158,60.428C10.158,61.677 10.317,62.888 10.595,64.038C6.072,67.827 3.81,71.318 3.81,74.512C3.81,78.262 7.678,81.376 11.884,81.376C12.816,81.376 13.511,81.237 14.145,80.92ZM14.086,54.853C14.741,55.528 15.078,56.321 15.078,57.254C15.078,59.178 13.709,61.34 11.031,63.721C10.892,63.145 10.852,62.511 10.852,61.816C10.852,58.484 12.082,54.814 13.729,54.814C13.868,54.814 13.987,54.833 14.086,54.853ZM14.503,80.106L13.094,73.481C13.372,73.461 13.53,73.441 13.59,73.441C15.296,73.441 16.486,75.048 16.486,76.694C16.486,78.004 15.792,79.154 14.503,80.106ZM12.598,73.56L14.026,80.384C13.332,80.761 12.558,80.92 11.626,80.92C8.412,80.92 5.635,78.519 5.635,75.603C5.635,72.965 7.599,70.247 11.309,67.47L12.142,71.437C10.079,71.874 8.333,73.62 8.333,75.584C8.333,77.25 9.523,78.42 11.309,78.698C10.218,78.024 9.682,77.17 9.682,76.159C9.682,74.79 10.952,73.778 12.598,73.56Z" style="fill-rule:nonzero;"/>
    </g>
</svg>
