<svg clip-rule="evenodd" fill-rule="evenodd" stroke-linejoin="round" stroke-miterlimit="2" viewBox="0 0 123 38" xmlns="http://www.w3.org/2000/svg"><g fill="none" stroke="#000"><path d="m119.855 9.653v19.881" stroke-width=".78"/><path d="m122.496 9.653v19.881" stroke-width=".78"/><path d="m.1 29.534h122.707" stroke-width=".47"/><path d="m.1 24.564h122.707" stroke-width=".47"/><path d="m.1 19.594h122.707" stroke-width=".47"/><path d="m.1 14.623h122.707" stroke-width=".47"/><path d="m.1 9.653h122.707" stroke-width=".47"/></g><path d="m14.225 28.874.756 3.679c.04.218.06.417.06.616 0 1.948-1.989 3.579-4.136 3.579-.656 0-1.292-.159-1.889-.458 1.531-.159 2.684-1.093 2.684-2.465 0-1.213-.994-2.485-2.266-2.485-1.451 0-2.445 1.113-2.445 2.565 0 2.027 1.65 3.36 3.638 3.36 2.664 0 4.931-1.73 4.931-4.215 0-.557-.875-4.494-.855-4.354 2.127-1.034 3.578-2.863 3.578-4.792 0-2.644-2.127-4.672-4.771-4.672-.04 0-.318.02-.796.06l-.874-4.196c2.962-2.505 4.314-5.169 4.314-8.091 0-2.247-.895-4.633-2.704-7.138-2.048 1.65-3.221 4.951-3.221 8.47 0 1.252.159 2.465.438 3.618-4.533 3.798-6.8 7.297-6.8 10.498 0 3.757 3.877 6.879 8.092 6.879.934 0 1.63-.139 2.266-.458zm-.059-26.124c.656.676.994 1.471.994 2.406 0 1.928-1.372 4.095-4.056 6.481-.139-.576-.179-1.213-.179-1.909 0-3.34 1.233-7.018 2.883-7.018.139 0 .258.02.358.04zm.417 25.309-1.411-6.64c.278-.02.437-.04.497-.04 1.71 0 2.902 1.61 2.902 3.261 0 1.312-.695 2.465-1.988 3.419zm-1.908-6.561 1.431 6.84c-.696.377-1.471.536-2.406.536-3.22 0-6.004-2.405-6.004-5.328 0-2.644 1.969-5.368 5.686-8.151l.835 3.976c-2.067.437-3.817 2.187-3.817 4.155 0 1.67 1.193 2.843 2.982 3.122-1.093-.676-1.63-1.531-1.63-2.545 0-1.372 1.272-2.386 2.923-2.605z" fill-rule="nonzero"/><path d="m37.999 31.976c0 1.65 1.968 2.684 4.513 2.684 2.843 0 4.752-1.014 4.752-2.684 0-1.531-2.326-2.684-4.533-2.684-2.406 0-4.732 1.074-4.732 2.684zm7.118 1.014c-.219 1.113-1.193 1.233-2.346 1.233-1.253 0-2.605-1.452-2.605-2.963 0-1.014.636-1.531 1.909-1.531 1.332 0 1.988.497 2.584 1.69.298.597.458 1.114.458 1.571z" fill-rule="nonzero"/></svg>