<svg clip-rule="evenodd" fill-rule="evenodd" stroke-linejoin="round" stroke-miterlimit="2" viewBox="0 0 512 41" xmlns="http://www.w3.org/2000/svg"><g fill="none" stroke="#000"><path d="m172.431 11.902v19.806" stroke-width=".77"/><path d="m348.825 11.902v19.806" stroke-width=".77"/><path d="m426.191 11.902v19.806" stroke-width=".77"/><path d="m506.961 11.902v19.806" stroke-width=".77"/><path d="m510.365 11.902v19.806" stroke-width="2.48"/></g><path d="m31.867 19.106v-.839h-1.257v-4.491l-2.495 2.216v2.275h-2.695c.299-.758 1.118-1.796 2.455-3.134 1.218-1.217 1.916-2.295 2.116-3.193h-3.413c-.16 1.956-1.318 4.81-2.535 6.367v.799h4.072c0 .698-.02 1.097-.06 1.197-.12.22-.499.359-1.118.399l-.04.559h4.91l-.079-.579c-.959-.079-1.138-.179-1.138-.678 0-.06 0-.18.02-.38v-.518z" fill-rule="nonzero"/><path d="m31.867 29.141v-.838h-1.257v-4.491l-2.495 2.215v2.276h-2.695c.299-.759 1.118-1.796 2.455-3.134 1.218-1.217 1.916-2.295 2.116-3.193h-3.413c-.16 1.956-1.318 4.81-2.535 6.367v.798h4.072c0 .699-.02 1.098-.06 1.198-.12.22-.499.359-1.118.399l-.04.559h4.91l-.079-.579c-.959-.08-1.138-.179-1.138-.678 0-.06 0-.18.02-.38v-.519z" fill-rule="nonzero"/><path d="m.059 31.708h511.544" fill="none" stroke="#000" stroke-width=".46"/><path d="m.059 26.756h511.544" fill="none" stroke="#000" stroke-width=".46"/><path d="m.059 21.805h511.544" fill="none" stroke="#000" stroke-width=".46"/><path d="m.059 16.853h511.544" fill="none" stroke="#000" stroke-width=".46"/><path d="m.059 11.902h511.544" fill="none" stroke="#000" stroke-width=".46"/><path d="m14.131 31.05.753 3.664c.039.218.059.416.059.614 0 1.941-1.98 3.565-4.119 3.565-.654 0-1.288-.158-1.882-.455 1.525-.159 2.674-1.09 2.674-2.456 0-1.208-.99-2.476-2.258-2.476-1.446 0-2.436 1.109-2.436 2.555 0 2.02 1.644 3.347 3.624 3.347 2.654 0 4.912-1.723 4.912-4.199 0-.554-.871-4.476-.851-4.337 2.119-1.03 3.565-2.852 3.565-4.773 0-2.634-2.12-4.655-4.754-4.655-.039 0-.317.02-.792.06l-.871-4.179c2.951-2.496 4.297-5.15 4.297-8.061 0-2.238-.891-4.615-2.693-7.11-2.04 1.643-3.209 4.931-3.209 8.437 0 1.248.159 2.456.436 3.604-4.516 3.783-6.774 7.269-6.774 10.458 0 3.743 3.863 6.853 8.061 6.853.931 0 1.624-.139 2.258-.456zm-.059-26.025c.653.674.99 1.466.99 2.397 0 1.921-1.366 4.08-4.04 6.457-.139-.575-.178-1.209-.178-1.902 0-3.327 1.227-6.991 2.871-6.991.139 0 .258.02.357.039zm.416 25.213-1.406-6.615c.277-.02.435-.04.495-.04 1.703 0 2.891 1.605 2.891 3.248 0 1.308-.693 2.456-1.98 3.407zm-1.902-6.536 1.426 6.813c-.693.377-1.465.535-2.396.535-3.209 0-5.981-2.396-5.981-5.308 0-2.634 1.96-5.347 5.664-8.12l.832 3.961c-2.06.436-3.803 2.179-3.803 4.139 0 1.664 1.189 2.833 2.971 3.11-1.089-.674-1.624-1.525-1.624-2.535 0-1.367 1.268-2.377 2.911-2.595z" fill-rule="nonzero"/><path d="m111.776 28.304 6.189-.31v-2.476l-6.189.31z"/><path d="m93.982 32.945 23.983-1.237v-2.476l-23.983 1.238z"/><path d="m133.438 32.945 6.189 1.393v-2.476l-6.189-1.392z"/><path d="m133.438 36.659 15.473 3.714v-2.476l-15.473-3.714z"/><path d="m186.821 10.664h46.419v2.476h-46.419z"/><path d="m186.821 6.951h46.419v2.475h-46.419z"/><path d="m288.015 28.304 6.19-.31v-2.476l-6.19.31z"/><path d="m270.221 32.945 23.984-1.237v-2.476l-23.984 1.238z"/><path d="m418.145 26.78h2.476l9.902-9.902h-2.475zm4.357 0h2.476l9.903-9.902h-2.476zm-2.535-7.407c0 .693.555 1.248 1.248 1.248s1.247-.555 1.247-1.248-.554-1.248-1.247-1.248-1.248.555-1.248 1.248zm10.695 4.555c0 .694.555 1.248 1.248 1.248s1.248-.554 1.248-1.248c0-.693-.555-1.247-1.248-1.247s-1.248.554-1.248 1.247z" fill-rule="nonzero"/><path d="m422.013-2.024h8.51v12.533h-8.51z" fill="#fff"/><path d="m430.296 5.68c-.703.615-.747 1.142-.791 1.186-.176.242-.462.352-.857.352-.506 0-2.879-.901-3.736-.901-.197 0-.395.022-.593.044v-.022c1.033-.857 4.461-2.131 5.032-2.659.483-.417.725-.989.725-1.714 0-1.01-.747-3.032-3.911-3.032-2.505 0-4.087 1.099-4.087 3.098 0 .901.44 1.341 1.34 1.341.769 0 1.56-.572 1.56-1.341 0-.703-.637-1.12-1.164-1.538.242-.373.725-.549 1.45-.549 1.165 0 1.89.879 1.89 2.109 0 1.231-.198 1.582-2.549 3.208-.769.549-1.34 1.121-1.692 1.67-.417.615-.835 1.077-.945 2.065.066.066.132.088.242.088.593 0 .725-.835 1.67-.835.725 0 3.032 1.231 3.911 1.231 1.56 0 2.395-1.275 2.505-3.801z" fill-rule="nonzero"/><path d="m309.833 32.945 6.189 1.393v-2.476l-6.189-1.392z"/><path d="m309.833 36.659 15.473 3.714v-2.476l-15.473-3.714z"/><path d="m44.467 23.507v-16.557" fill="none"/><path d="m44.467 23.507v-16.557" fill="none" stroke="#000" stroke-width=".46"/><path d="m40.032 26.812c2.04 0 4.555-1.704 4.555-3.447 0-1.049-.93-1.723-2.257-1.723-2.001 0-4.516 1.664-4.516 3.447 0 1.089.97 1.723 2.218 1.723z" fill-rule="nonzero"/><path d="m65.975 20.103v16.556" fill="none"/><path d="m65.975 20.103v16.556" fill="none" stroke="#000" stroke-width=".46"/><path d="m68.039 21.86c2.04 0 4.555-1.703 4.555-3.446 0-1.05-.931-1.723-2.258-1.723-2 0-4.516 1.664-4.516 3.446 0 1.089.971 1.723 2.219 1.723z" fill-rule="nonzero"/><path d="m93.982 17.627v15.164" fill="none"/><path d="m93.982 17.627v15.164" fill="none" stroke="#000" stroke-width=".46"/><path d="m96.045 19.385c2.04 0 4.555-1.704 4.555-3.447 0-1.049-.93-1.723-2.257-1.723-2.001 0-4.516 1.664-4.516 3.446 0 1.09.97 1.724 2.218 1.724z" fill-rule="nonzero"/><path d="m103.884 13.451c-.475 0-.911.416-.911.951 0 .455.456.891.911.891.535 0 .951-.436.951-.891 0-.535-.416-.951-.951-.951z" fill-rule="nonzero"/><path d="m117.965 15.151v16.402" fill="none"/><path d="m117.965 15.151v16.402" fill="none" stroke="#000" stroke-width=".46"/><path d="m120.029 16.909c2.039 0 4.555-1.703 4.555-3.446 0-1.05-.931-1.723-2.258-1.723-2 0-4.516 1.663-4.516 3.446 0 1.089.971 1.723 2.219 1.723z" fill-rule="nonzero"/><path d="m111.93 17.959 2.793-2.06c1.228-.892 1.703-1.902 1.743-2.654 0-1.109-1.01-1.941-2.198-1.941-.832 0-1.446.317-1.842.97l.138-6.238h-.634zm1.842-5.863c.634 0 1.11.456 1.11 1.07 0 1.029-1.367 3.01-2.397 3.664-.059-.337-.099-.991-.099-1.961 0-.535.04-1.188.119-1.941.297-.555.713-.832 1.267-.832z" fill-rule="nonzero"/><path d="m133.438 15.151v21.353" fill="none"/><path d="m133.438 15.151v21.353" fill="none" stroke="#000" stroke-width=".46"/><path d="m135.502 16.909c2.04 0 4.555-1.703 4.555-3.446 0-1.05-.931-1.723-2.258-1.723-2 0-4.516 1.663-4.516 3.446 0 1.089.971 1.723 2.219 1.723z" fill-rule="nonzero"/><path d="m131.857 21.088v-10.636l-3.03 1.07v-3.981h-.495v10.635l3.03-1.049v3.961zm-3.03-7.962 2.535-.931v3.327l-2.535.911z" fill-rule="nonzero"/><path d="m148.911 27.53v12.688" fill="none"/><path d="m148.911 27.53v12.688" fill="none" stroke="#000" stroke-width=".46"/><path d="m150.975 29.287c2.04 0 4.555-1.703 4.555-3.446 0-1.049-.931-1.723-2.258-1.723-2 0-4.515 1.664-4.515 3.446 0 1.09.97 1.723 2.218 1.723z" fill-rule="nonzero"/><path d="m158.814 23.354c-.475 0-.911.416-.911.951 0 .455.456.891.911.891.535 0 .951-.436.951-.891 0-.535-.416-.951-.951-.951z" fill-rule="nonzero"/><path d="m186.821 23.507v-16.402" fill="none"/><path d="m186.821 23.507v-16.402" fill="none" stroke="#000" stroke-width=".46"/><path d="m182.385 26.812c2.04 0 4.556-1.704 4.556-3.447 0-1.049-.931-1.723-2.258-1.723-2 0-4.516 1.664-4.516 3.447 0 1.089.971 1.723 2.218 1.723z" fill-rule="nonzero"/><path d="m202.294 23.507v-16.402" fill="none"/><path d="m202.294 23.507v-16.402" fill="none" stroke="#000" stroke-width=".46"/><path d="m197.859 26.812c2.04 0 4.555-1.704 4.555-3.447 0-1.049-.931-1.723-2.258-1.723-2 0-4.516 1.664-4.516 3.447 0 1.089.971 1.723 2.219 1.723z" fill-rule="nonzero"/><path d="m217.767 23.507v-16.402" fill="none"/><path d="m217.767 23.507v-16.402" fill="none" stroke="#000" stroke-width=".46"/><path d="m213.332 26.812c2.04 0 4.555-1.704 4.555-3.447 0-1.049-.931-1.723-2.258-1.723-2 0-4.515 1.664-4.515 3.447 0 1.089.97 1.723 2.218 1.723z" fill-rule="nonzero"/><path d="m233.24 23.507v-16.402" fill="none"/><path d="m233.24 23.507v-16.402" fill="none" stroke="#000" stroke-width=".46"/><path d="m228.805 26.812c2.04 0 4.555-1.704 4.555-3.447 0-1.049-.931-1.723-2.258-1.723-2 0-4.515 1.664-4.515 3.447 0 1.089.97 1.723 2.218 1.723z" fill-rule="nonzero"/><path d="m242.369 20.103v16.556" fill="none"/><path d="m242.369 20.103v16.556" fill="none" stroke="#000" stroke-width=".46"/><path d="m244.433 21.86c2.04 0 4.555-1.703 4.555-3.446 0-1.05-.931-1.723-2.258-1.723-2 0-4.515 1.664-4.515 3.446 0 1.089.97 1.723 2.218 1.723z" fill-rule="nonzero"/><path d="m270.221 17.627v15.164" fill="none"/><path d="m270.221 17.627v15.164" fill="none" stroke="#000" stroke-width=".46"/><path d="m272.285 19.385c2.04 0 4.555-1.704 4.555-3.447 0-1.049-.931-1.723-2.258-1.723-2 0-4.516 1.664-4.516 3.446 0 1.09.971 1.724 2.219 1.724z" fill-rule="nonzero"/><path d="m280.124 13.451c-.475 0-.911.416-.911.951 0 .455.455.891.911.891.535 0 .951-.436.951-.891 0-.535-.416-.951-.951-.951z" fill-rule="nonzero"/><path d="m294.205 15.151v16.402" fill="none"/><path d="m294.205 15.151v16.402" fill="none" stroke="#000" stroke-width=".46"/><path d="m296.268 16.909c2.04 0 4.555-1.703 4.555-3.446 0-1.05-.93-1.723-2.257-1.723-2.001 0-4.516 1.663-4.516 3.446 0 1.089.97 1.723 2.218 1.723z" fill-rule="nonzero"/><path d="m288.17 17.959 2.793-2.06c1.228-.892 1.703-1.902 1.743-2.654 0-1.109-1.011-1.941-2.199-1.941-.832 0-1.446.317-1.842.97l.139-6.238h-.634zm1.842-5.863c.634 0 1.109.456 1.109 1.07 0 1.029-1.366 3.01-2.396 3.664-.06-.337-.099-.991-.099-1.961 0-.535.039-1.188.118-1.941.298-.555.713-.832 1.268-.832z" fill-rule="nonzero"/><path d="m309.833 15.151v21.353" fill="none"/><path d="m309.833 15.151v21.353" fill="none" stroke="#000" stroke-width=".46"/><path d="m311.896 16.909c2.04 0 4.555-1.703 4.555-3.446 0-1.05-.931-1.723-2.258-1.723-2 0-4.515 1.663-4.515 3.446 0 1.089.97 1.723 2.218 1.723z" fill-rule="nonzero"/><path d="m308.252 21.088v-10.636l-3.03 1.07v-3.981h-.496v10.635l3.031-1.049v3.961zm-3.03-7.962 2.535-.931v3.327l-2.535.911z" fill-rule="nonzero"/><path d="m325.306 27.53v12.688" fill="none"/><path d="m325.306 27.53v12.688" fill="none" stroke="#000" stroke-width=".46"/><path d="m327.369 29.287c2.04 0 4.556-1.703 4.556-3.446 0-1.049-.931-1.723-2.258-1.723-2.001 0-4.516 1.664-4.516 3.446 0 1.09.97 1.723 2.218 1.723z" fill-rule="nonzero"/><path d="m335.209 23.354c-.476 0-.912.416-.912.951 0 .455.456.891.912.891.534 0 .95-.436.95-.891 0-.535-.416-.951-.95-.951z" fill-rule="nonzero"/></svg>