<svg clip-rule="evenodd" fill-rule="evenodd" stroke-linejoin="round" stroke-miterlimit="2" viewBox="0 0 350 48" xmlns="http://www.w3.org/2000/svg"><g fill="none" stroke="#000"><path d="m190.546 21.623v18.449" stroke-width=".72"/><path d="m346.21 21.623v18.449" stroke-width=".72"/><path d="m348.66 21.623v18.449" stroke-width=".72"/><g stroke-width=".43"><path d="m.003 40.072h348.945"/><path d="m.003 35.459h348.945"/><path d="m.003 30.847h348.945"/><path d="m.003 26.235h348.945"/><path d="m.003 21.623h348.945"/></g></g><path d="m13.111 39.459.701 3.413c.037.203.055.388.055.572 0 1.808-1.845 3.321-3.837 3.321-.609 0-1.199-.148-1.753-.424 1.421-.148 2.491-1.015 2.491-2.288 0-1.125-.922-2.306-2.103-2.306-1.347 0-2.269 1.033-2.269 2.38 0 1.882 1.531 3.118 3.376 3.118 2.472 0 4.575-1.605 4.575-3.911 0-.517-.812-4.17-.793-4.041 1.974-.959 3.321-2.656 3.321-4.446 0-2.454-1.974-4.335-4.428-4.335-.037 0-.295.018-.738.055l-.812-3.893c2.749-2.324 4.004-4.797 4.004-7.509 0-2.084-.831-4.298-2.51-6.623-1.9 1.531-2.988 4.594-2.988 7.859 0 1.163.147 2.288.406 3.358-4.207 3.524-6.31 6.771-6.31 9.741 0 3.487 3.598 6.384 7.509 6.384.867 0 1.513-.13 2.103-.425zm-.055-24.242c.608.628.922 1.366.922 2.233 0 1.789-1.273 3.8-3.764 6.014-.129-.535-.166-1.125-.166-1.771 0-3.1 1.144-6.513 2.676-6.513.129 0 .239.019.332.037zm.387 23.486-1.31-6.162c.258-.019.406-.037.461-.037 1.587 0 2.694 1.494 2.694 3.026 0 1.217-.646 2.287-1.845 3.173zm-1.771-6.088 1.328 6.346c-.645.351-1.365.498-2.232.498-2.989 0-5.572-2.232-5.572-4.944 0-2.454 1.827-4.981 5.277-7.564l.775 3.69c-1.919.406-3.543 2.029-3.543 3.856 0 1.549 1.107 2.638 2.768 2.896-1.015-.627-1.513-1.421-1.513-2.361 0-1.273 1.181-2.214 2.712-2.417z" fill-rule="nonzero"/><path d="m51.17 37.045v-15.422" fill="none" stroke="#000" stroke-width=".43"/><path d="m47.039 40.123c1.9 0 4.243-1.586 4.243-3.21 0-.977-.867-1.605-2.103-1.605-1.864 0-4.207 1.55-4.207 3.21 0 1.015.904 1.605 2.067 1.605z" fill-rule="nonzero"/><path d="m80.285 32.433v-15.423" fill="none" stroke="#000" stroke-width=".43"/><path d="m76.153 35.511c1.901 0 4.244-1.586 4.244-3.21 0-.978-.867-1.605-2.103-1.605-1.864 0-4.207 1.55-4.207 3.21 0 1.015.904 1.605 2.066 1.605z" fill-rule="nonzero"/><path d="m68.61 36.489 2.601-1.919c1.144-.83 1.587-1.771 1.624-2.472 0-1.033-.941-1.808-2.048-1.808-.775 0-1.347.295-1.716.904l.129-5.811h-.59zm1.716-5.461c.59 0 1.033.424 1.033.996 0 .96-1.273 2.805-2.232 3.413-.056-.313-.093-.922-.093-1.826 0-.498.037-1.107.111-1.808.277-.517.664-.775 1.181-.775z" fill-rule="nonzero"/><path d="m103.49 31.568v15.422" fill="none" stroke="#000" stroke-width=".43"/><path d="m105.412 33.205c1.901 0 4.244-1.587 4.244-3.21 0-.978-.867-1.605-2.104-1.605-1.863 0-4.206 1.55-4.206 3.21 0 1.015.904 1.605 2.066 1.605z" fill-rule="nonzero"/><path d="m97.869 34.183 2.601-1.919c1.144-.83 1.587-1.771 1.624-2.472 0-1.033-.941-1.808-2.048-1.808-.775 0-1.347.295-1.716.904l.129-5.811h-.59zm1.716-5.461c.59 0 1.033.424 1.033.996 0 .96-1.273 2.804-2.232 3.413-.056-.313-.093-.922-.093-1.826 0-.498.037-1.107.111-1.808.277-.517.664-.775 1.181-.775z" fill-rule="nonzero"/><path d="m132.605 29.262v15.422" fill="none" stroke="#000" stroke-width=".43"/><path d="m134.527 30.899c1.9 0 4.243-1.587 4.243-3.21 0-.978-.867-1.605-2.103-1.605-1.863 0-4.206 1.549-4.206 3.21 0 1.015.904 1.605 2.066 1.605z" fill-rule="nonzero"/><path d="m161.72 24.65v15.422" fill="none" stroke="#000" stroke-width=".43"/><path d="m163.642 26.287c1.9 0 4.243-1.587 4.243-3.21 0-.978-.867-1.605-2.103-1.605-1.863 0-4.206 1.549-4.206 3.21 0 1.014.904 1.605 2.066 1.605z" fill-rule="nonzero"/><path d="m156.099 27.264 2.601-1.918c1.144-.83 1.587-1.771 1.623-2.472 0-1.034-.94-1.808-2.047-1.808-.775 0-1.347.295-1.716.904l.129-5.812h-.59zm1.715-5.46c.591 0 1.034.424 1.034.996 0 .959-1.273 2.804-2.233 3.413-.055-.314-.092-.923-.092-1.827 0-.498.037-1.106.111-1.808.276-.516.664-.774 1.18-.774z" fill-rule="nonzero"/><path d="m197.897 22.343v15.423" fill="none" stroke="#000" stroke-width=".43"/><path d="m199.819 23.981c1.901 0 4.244-1.587 4.244-3.211 0-.977-.868-1.605-2.104-1.605-1.863 0-4.206 1.55-4.206 3.211 0 1.014.904 1.605 2.066 1.605z" fill-rule="nonzero"/><path d="m225.138 17.01h9.801" fill="none" stroke="#000" stroke-width=".72"/><path d="m227.012 17.731v15.422" fill="none" stroke="#000" stroke-width=".43"/><path d="m228.934 19.368c1.9 0 4.243-1.586 4.243-3.21 0-.978-.867-1.605-2.103-1.605-1.863 0-4.206 1.55-4.206 3.21 0 1.015.904 1.605 2.066 1.605z" fill-rule="nonzero"/><path d="m220.238 20.346 2.601-1.919c1.144-.83 1.587-1.771 1.623-2.472 0-1.033-.94-1.808-2.047-1.808-.775 0-1.347.295-1.716.904l.129-5.811h-.59zm1.715-5.461c.591 0 1.034.425 1.034.996 0 .96-1.273 2.805-2.233 3.414-.055-.314-.092-.923-.092-1.827 0-.498.037-1.107.111-1.808.276-.516.664-.775 1.18-.775z" fill-rule="nonzero"/><path d="m254.253 17.01h9.801" fill="none" stroke="#000" stroke-width=".72"/><path d="m256.127 15.425v15.422" fill="none" stroke="#000" stroke-width=".43"/><path d="m258.049 17.062c1.9 0 4.243-1.586 4.243-3.21 0-.978-.867-1.605-2.103-1.605-1.863 0-4.206 1.55-4.206 3.21 0 1.015.904 1.605 2.066 1.605z" fill-rule="nonzero"/><path d="m249.352 18.04 2.602-1.919c1.144-.83 1.586-1.771 1.623-2.472 0-1.033-.941-1.808-2.048-1.808-.774 0-1.346.295-1.715.904l.129-5.811h-.591zm1.716-5.461c.591 0 1.033.424 1.033.996 0 .96-1.273 2.805-2.232 3.413-.055-.313-.092-.922-.092-1.826 0-.498.037-1.107.111-1.808.276-.517.664-.775 1.18-.775z" fill-rule="nonzero"/><path d="m283.368 17.01h9.801" fill="none" stroke="#000" stroke-width=".72"/><path d="m283.368 12.398h9.801" fill="none" stroke="#000" stroke-width=".72"/><path d="m285.242 13.119v17.728" fill="none" stroke="#000" stroke-width=".43"/><path d="m287.164 14.756c1.9 0 4.243-1.587 4.243-3.21 0-.978-.867-1.605-2.103-1.605-1.864 0-4.207 1.55-4.207 3.21 0 1.015.904 1.605 2.067 1.605z" fill-rule="nonzero"/><g fill="none" stroke="#000"><path d="m312.627 17.01h9.801" stroke-width=".72"/><path d="m312.627 12.398h9.801" stroke-width=".72"/><path d="m312.627 7.786h9.801" stroke-width=".72"/><path d="m314.5 8.507v22.34" stroke-width=".43"/></g><path d="m316.423 10.144c1.9 0 4.243-1.587 4.243-3.21 0-.978-.867-1.605-2.103-1.605-1.864 0-4.207 1.549-4.207 3.21 0 1.014.904 1.605 2.067 1.605z" fill-rule="nonzero"/><path d="m307.726 11.122 2.602-1.919c1.143-.83 1.586-1.771 1.623-2.472 0-1.033-.941-1.808-2.048-1.808-.775 0-1.347.295-1.716.904l.13-5.812h-.591zm1.716-5.461c.59 0 1.033.424 1.033.996 0 .959-1.273 2.804-2.232 3.413-.056-.314-.092-.922-.092-1.826 0-.499.036-1.107.11-1.808.277-.517.664-.775 1.181-.775z" fill-rule="nonzero"/></svg>