<svg clip-rule="evenodd" fill-rule="evenodd" stroke-linejoin="round" stroke-miterlimit="2" viewBox="0 0 473 38" xmlns="http://www.w3.org/2000/svg"><path d="m192.683 11.558v18.449" fill="none" stroke="#000" stroke-width=".72"/><path d="m357.427 11.558v18.449" fill="none" stroke="#000" stroke-width=".72"/><path d="m468.121 11.558v18.449" fill="none" stroke="#000" stroke-width=".72"/><path d="m471.292 11.558v18.449" fill="none" stroke="#000" stroke-width="2.31"/><path d="m28.022 18.231v-.781h-1.172v-4.183l-2.324 2.063v2.12h-2.51c.279-.706 1.041-1.673 2.287-2.919 1.134-1.134 1.785-2.138 1.971-2.975h-3.18c-.148 1.822-1.227 4.481-2.361 5.931v.744h3.793c0 .651-.019 1.023-.056 1.116-.111.204-.465.334-1.041.371l-.037.521h4.574l-.075-.539c-.892-.075-1.059-.167-1.059-.632 0-.056 0-.168.018-.354v-.483z" fill-rule="nonzero"/><path d="m28.022 27.579v-.781h-1.172v-4.183l-2.324 2.064v2.119h-2.51c.279-.706 1.041-1.673 2.287-2.919 1.134-1.134 1.785-2.138 1.971-2.975h-3.18c-.148 1.823-1.227 4.481-2.361 5.932v.743h3.793c0 .651-.019 1.023-.056 1.116-.111.204-.465.335-1.041.372l-.037.52h4.574l-.075-.539c-.892-.074-1.059-.167-1.059-.632 0-.056 0-.167.018-.353v-.484z" fill-rule="nonzero"/><g fill="none"><path d="m.122 30.007h472.323" stroke="#000" stroke-width=".43"/><path d="m.122 25.395h472.323" stroke="#000" stroke-width=".43"/><path d="m.122 20.783h472.323" stroke="#000" stroke-width=".43"/><path d="m.122 16.17h472.323" stroke="#000" stroke-width=".43"/><path d="m.122 11.558h472.323" stroke="#000" stroke-width=".43"/></g><path d="m13.23 29.395.701 3.413c.037.203.055.387.055.572 0 1.808-1.844 3.32-3.837 3.32-.609 0-1.199-.147-1.753-.424 1.421-.148 2.491-1.015 2.491-2.288 0-1.125-.922-2.306-2.103-2.306-1.347 0-2.269 1.033-2.269 2.38 0 1.882 1.531 3.118 3.376 3.118 2.472 0 4.575-1.605 4.575-3.911 0-.517-.812-4.17-.793-4.04 1.974-.96 3.321-2.657 3.321-4.447 0-2.453-1.974-4.335-4.428-4.335-.037 0-.295.018-.738.055l-.812-3.893c2.749-2.324 4.004-4.796 4.004-7.508 0-2.085-.831-4.299-2.509-6.624-1.901 1.532-2.989 4.594-2.989 7.86 0 1.162.147 2.287.406 3.357-4.207 3.524-6.31 6.771-6.31 9.742 0 3.486 3.598 6.383 7.509 6.383.867 0 1.513-.129 2.103-.424zm-.055-24.242c.609.627.922 1.365.922 2.232 0 1.789-1.273 3.8-3.763 6.014-.13-.535-.166-1.125-.166-1.771 0-3.099 1.143-6.512 2.675-6.512.129 0 .239.018.332.037zm.387 23.485-1.31-6.162c.259-.018.406-.037.462-.037 1.586 0 2.693 1.495 2.693 3.026 0 1.218-.646 2.288-1.845 3.173zm-1.771-6.088 1.328 6.346c-.645.351-1.365.499-2.232.499-2.989 0-5.572-2.233-5.572-4.945 0-2.453 1.827-4.981 5.277-7.564l.775 3.69c-1.919.406-3.542 2.029-3.542 3.856 0 1.549 1.106 2.638 2.767 2.896-1.015-.627-1.513-1.42-1.513-2.361 0-1.273 1.181-2.214 2.712-2.417z" fill-rule="nonzero"/><path d="m41.488 5.793h59.095v2.306h-59.095z"/><path d="m114.275 33.466h59.239v2.306h-59.239z"/><path d="m200.034 32.313h59.239v2.306h-59.239z"/><path d="m279.019 27.701 59.094-1.153v-2.306l-59.094 1.153z"/><path d="m41.488 26.98v-21.043" fill="none"/><path d="m41.488 26.98v-21.043" fill="none" stroke="#000" stroke-width=".43"/><path d="m37.357 30.059c1.9 0 4.243-1.587 4.243-3.21 0-.978-.867-1.605-2.103-1.605-1.864 0-4.207 1.549-4.207 3.21 0 1.014.904 1.605 2.067 1.605z" fill-rule="nonzero"/><path d="m61.234 22.368v-16.431" fill="none"/><path d="m61.234 22.368v-16.431" fill="none" stroke="#000" stroke-width=".43"/><path d="m57.103 25.446c1.9 0 4.243-1.586 4.243-3.21 0-.977-.867-1.605-2.103-1.605-1.863 0-4.206 1.55-4.206 3.21 0 1.015.904 1.605 2.066 1.605z" fill-rule="nonzero"/><path d="m49.56 26.424 2.601-1.918c1.144-.831 1.587-1.772 1.623-2.473 0-1.033-.94-1.808-2.047-1.808-.775 0-1.347.296-1.716.904l.129-5.811h-.59zm1.715-5.461c.591 0 1.033.425 1.033.997 0 .959-1.272 2.804-2.232 3.413-.055-.314-.092-.923-.092-1.827 0-.498.037-1.107.111-1.808.276-.516.664-.775 1.18-.775z" fill-rule="nonzero"/><path d="m80.981 20.062v-14.125" fill="none"/><path d="m80.981 20.062v-14.125" fill="none" stroke="#000" stroke-width=".43"/><path d="m76.849 23.14c1.9 0 4.243-1.586 4.243-3.21 0-.978-.867-1.605-2.103-1.605-1.863 0-4.206 1.55-4.206 3.21 0 1.015.904 1.605 2.066 1.605z" fill-rule="nonzero"/><path d="m69.306 24.118 2.601-1.919c1.144-.83 1.587-1.771 1.624-2.472 0-1.033-.941-1.808-2.048-1.808-.775 0-1.347.295-1.716.904l.129-5.811h-.59zm1.716-5.461c.59 0 1.033.425 1.033.997 0 .959-1.273 2.804-2.233 3.413-.055-.314-.092-.923-.092-1.827 0-.498.037-1.107.111-1.808.277-.516.664-.775 1.181-.775z" fill-rule="nonzero"/><path d="m100.583 22.368v-16.431" fill="none"/><path d="m100.583 22.368v-16.431" fill="none" stroke="#000" stroke-width=".43"/><path d="m96.451 25.446c1.9 0 4.243-1.586 4.243-3.21 0-.977-.867-1.605-2.103-1.605-1.863 0-4.206 1.55-4.206 3.21 0 1.015.904 1.605 2.066 1.605z" fill-rule="nonzero"/><path d="m114.275 21.503v14.125" fill="none"/><path d="m114.275 21.503v14.125" fill="none" stroke="#000" stroke-width=".43"/><path d="m116.197 23.14c1.901 0 4.244-1.586 4.244-3.21 0-.978-.868-1.605-2.104-1.605-1.863 0-4.206 1.55-4.206 3.21 0 1.015.904 1.605 2.066 1.605z" fill-rule="nonzero"/><path d="m134.021 19.197v16.431" fill="none"/><path d="m134.021 19.197v16.431" fill="none" stroke="#000" stroke-width=".43"/><path d="m135.943 20.834c1.901 0 4.244-1.586 4.244-3.21 0-.978-.867-1.605-2.103-1.605-1.864 0-4.207 1.55-4.207 3.21 0 1.015.904 1.605 2.066 1.605z" fill-rule="nonzero"/><path d="m153.768 21.503v14.125" fill="none"/><path d="m153.768 21.503v14.125" fill="none" stroke="#000" stroke-width=".43"/><path d="m155.69 23.14c1.9 0 4.243-1.586 4.243-3.21 0-.978-.867-1.605-2.103-1.605-1.864 0-4.207 1.55-4.207 3.21 0 1.015.904 1.605 2.067 1.605z" fill-rule="nonzero"/><path d="m173.514 19.197v16.431" fill="none"/><path d="m173.514 19.197v16.431" fill="none" stroke="#000" stroke-width=".43"/><path d="m175.436 20.834c1.9 0 4.243-1.586 4.243-3.21 0-.978-.867-1.605-2.103-1.605-1.863 0-4.206 1.55-4.206 3.21 0 1.015.904 1.605 2.066 1.605z" fill-rule="nonzero"/><path d="m200.034 14.585v19.89" fill="none"/><path d="m200.034 14.585v19.89" fill="none" stroke="#000" stroke-width=".43"/><path d="m201.956 16.222c1.9 0 4.243-1.587 4.243-3.21 0-.978-.867-1.605-2.103-1.605-1.863 0-4.206 1.55-4.206 3.21 0 1.015.904 1.605 2.066 1.605z" fill-rule="nonzero"/><path d="m194.413 17.2 2.601-1.919c1.144-.83 1.587-1.771 1.624-2.472 0-1.033-.941-1.808-2.048-1.808-.775 0-1.347.295-1.716.904l.129-5.811h-.59zm1.716-5.461c.59 0 1.033.424 1.033.996 0 .959-1.273 2.804-2.233 3.413-.055-.313-.092-.922-.092-1.826 0-.498.037-1.107.111-1.808.277-.517.664-.775 1.181-.775z" fill-rule="nonzero"/><path d="m219.78 19.197v15.278" fill="none"/><path d="m219.78 19.197v15.278" fill="none" stroke="#000" stroke-width=".43"/><path d="m221.702 20.834c1.901 0 4.244-1.586 4.244-3.21 0-.978-.867-1.605-2.103-1.605-1.864 0-4.207 1.55-4.207 3.21 0 1.015.904 1.605 2.066 1.605z" fill-rule="nonzero"/><path d="m239.526 14.585v19.89" fill="none"/><path d="m239.526 14.585v19.89" fill="none" stroke="#000" stroke-width=".43"/><path d="m241.449 16.222c1.9 0 4.243-1.587 4.243-3.21 0-.978-.867-1.605-2.103-1.605-1.864 0-4.207 1.55-4.207 3.21 0 1.015.904 1.605 2.067 1.605z" fill-rule="nonzero"/><path d="m259.273 12.279v22.196" fill="none"/><path d="m259.273 12.279v22.196" fill="none" stroke="#000" stroke-width=".43"/><path d="m261.195 13.916c1.9 0 4.243-1.587 4.243-3.21 0-.978-.867-1.605-2.103-1.605-1.864 0-4.207 1.549-4.207 3.21 0 1.014.904 1.605 2.067 1.605z" fill-rule="nonzero"/><path d="m279.019 14.585v12.972" fill="none"/><path d="m279.019 14.585v12.972" fill="none" stroke="#000" stroke-width=".43"/><path d="m280.941 16.222c1.9 0 4.243-1.587 4.243-3.21 0-.978-.867-1.605-2.103-1.605-1.863 0-4.206 1.55-4.206 3.21 0 1.015.904 1.605 2.066 1.605z" fill-rule="nonzero"/><path d="m298.621 12.279v14.989" fill="none"/><path d="m298.621 12.279v14.989" fill="none" stroke="#000" stroke-width=".43"/><path d="m300.543 13.916c1.9 0 4.243-1.587 4.243-3.21 0-.978-.867-1.605-2.103-1.605-1.863 0-4.206 1.549-4.206 3.21 0 1.014.904 1.605 2.066 1.605z" fill-rule="nonzero"/><path d="m316.493 6.946h9.801" fill="none"/><path d="m316.493 6.946h9.801" fill="none" stroke="#000" stroke-width=".72"/><path d="m318.367 7.666v19.17" fill="none"/><path d="m318.367 7.666v19.17" fill="none" stroke="#000" stroke-width=".43"/><path d="m320.289 9.304c1.9 0 4.243-1.587 4.243-3.211 0-.977-.867-1.605-2.103-1.605-1.863 0-4.206 1.55-4.206 3.211 0 1.014.904 1.605 2.066 1.605z" fill-rule="nonzero"/><path d="m311.593 10.281 2.601-1.918c1.144-.83 1.587-1.771 1.624-2.472 0-1.034-.941-1.808-2.048-1.808-.775 0-1.347.295-1.716.904l.129-5.812h-.59zm1.716-5.46c.59 0 1.033.424 1.033.996 0 .959-1.273 2.804-2.233 3.413-.055-.314-.092-.923-.092-1.827 0-.498.037-1.107.111-1.808.277-.516.664-.774 1.181-.774z" fill-rule="nonzero"/><path d="m338.113 12.279v14.125" fill="none"/><path d="m338.113 12.279v14.125" fill="none" stroke="#000" stroke-width=".43"/><path d="m340.035 13.916c1.901 0 4.244-1.587 4.244-3.21 0-.978-.868-1.605-2.104-1.605-1.863 0-4.206 1.549-4.206 3.21 0 1.014.904 1.605 2.066 1.605z" fill-rule="nonzero"/></svg>