<svg clip-rule="evenodd" fill-rule="evenodd" stroke-linejoin="round" stroke-miterlimit="2" viewBox="0 0 289 41" xmlns="http://www.w3.org/2000/svg"><path d="m152.778 8.092v18.449" fill="none" stroke="#000" stroke-width=".72"/><path d="m288.263 8.092v18.449" fill="none" stroke="#000" stroke-width=".72"/><path d="m38.66 36.288h1.451v-.534h-1.451v-.853h-.362c-.331.416-.726.885-1.334 1.099v.288h.8v3.445c0 .65.299.938 1.003.938.448 0 .928-.106 1.397-.181v-.523c-.192.032-.544.054-.757.054-.629 0-.747-.15-.747-.64z" fill-rule="nonzero"/><path d="m139.373 20.776c4.613 4.18 18.594 4.18 23.206 0" fill="none" stroke="#000" stroke-width=".29"/><path d="m139.373 20.776c4.613 3.459 18.594 3.459 23.206 0-4.612 4.901-18.593 4.901-23.206 0z"/><path d="m139.373 20.776c4.613 3.459 18.594 3.459 23.206 0-4.612 4.901-18.593 4.901-23.206 0z" fill="none" stroke="#000" stroke-width=".14"/><path d="m205.242 27.694c3.171 3.46 12.972 3.46 16.287 0" fill="none" stroke="#000" stroke-width=".29"/><path d="m205.242 27.694c3.171 2.739 12.972 2.739 16.287 0-3.315 4.18-13.116 4.18-16.287 0z"/><path d="m205.242 27.694c3.171 2.739 12.972 2.739 16.287 0-3.315 4.18-13.116 4.18-16.287 0z" fill="none" stroke="#000" stroke-width=".14"/><path d="m274.461 35.567h1.451v-.533h-1.451v-.854h-.362c-.331.416-.726.886-1.334 1.099v.288h.8v3.445c0 .651.299.939 1.003.939.448 0 .928-.107 1.397-.182v-.522c-.192.032-.544.053-.757.053-.629 0-.747-.149-.747-.64z" fill-rule="nonzero"/><path d="m28.041 14.788v-.781h-1.172v-4.183l-2.324 2.064v2.119h-2.51c.279-.706 1.041-1.673 2.287-2.919 1.134-1.134 1.785-2.138 1.971-2.975h-3.179c-.149 1.822-1.227 4.481-2.362 5.931v.744h3.793c0 .651-.018 1.023-.055 1.116-.112.204-.465.334-1.042.371l-.037.521h4.574l-.074-.539c-.893-.074-1.06-.167-1.06-.632 0-.056 0-.168.018-.354v-.483z" fill-rule="nonzero"/><path d="m28.041 24.136v-.781h-1.172v-4.183l-2.324 2.064v2.119h-2.51c.279-.706 1.041-1.673 2.287-2.919 1.134-1.134 1.785-2.138 1.971-2.975h-3.179c-.149 1.823-1.227 4.481-2.362 5.932v.743h3.793c0 .651-.018 1.023-.055 1.116-.112.204-.465.335-1.042.372l-.037.52h4.574l-.074-.539c-.893-.074-1.06-.167-1.06-.632 0-.056 0-.167.018-.353v-.484z" fill-rule="nonzero"/><g fill="none"><path d="m.141 26.541h288.41"/><path d="m.141 26.541h288.41" stroke="#000" stroke-width=".43"/><path d="m.141 21.929h288.41"/><path d="m.141 21.929h288.41" stroke="#000" stroke-width=".43"/><path d="m.141 17.317h288.41"/><path d="m.141 17.317h288.41" stroke="#000" stroke-width=".43"/><path d="m.141 12.705h288.41"/><path d="m.141 12.705h288.41" stroke="#000" stroke-width=".43"/><path d="m.141 8.092h288.41"/><path d="m.141 8.092h288.41" stroke="#000" stroke-width=".43"/></g><path d="m13.249 25.929.701 3.413c.037.203.056.387.056.572 0 1.808-1.845 3.321-3.838 3.321-.608 0-1.199-.148-1.752-.425 1.42-.147 2.49-1.014 2.49-2.287 0-1.126-.922-2.306-2.103-2.306-1.347 0-2.269 1.033-2.269 2.38 0 1.881 1.531 3.117 3.376 3.117 2.472 0 4.575-1.605 4.575-3.911 0-.516-.811-4.169-.793-4.04 1.974-.959 3.321-2.657 3.321-4.446 0-2.454-1.974-4.336-4.428-4.336-.037 0-.295.019-.738.056l-.812-3.893c2.749-2.325 4.004-4.797 4.004-7.509 0-2.085-.83-4.299-2.509-6.623-1.9 1.531-2.989 4.594-2.989 7.859 0 1.162.148 2.288.406 3.358-4.206 3.524-6.31 6.771-6.31 9.741 0 3.487 3.598 6.383 7.509 6.383.867 0 1.513-.129 2.103-.424zm-.055-24.242c.609.627.922 1.365.922 2.232 0 1.79-1.273 3.801-3.763 6.015-.129-.535-.166-1.126-.166-1.771 0-3.1 1.144-6.513 2.675-6.513.129 0 .24.019.332.037zm.387 23.486-1.309-6.162c.258-.019.405-.037.461-.037 1.586 0 2.693 1.494 2.693 3.025 0 1.218-.645 2.288-1.845 3.174zm-1.771-6.089 1.329 6.347c-.646.35-1.366.498-2.233.498-2.988 0-5.571-2.232-5.571-4.944 0-2.454 1.826-4.982 5.276-7.564l.775 3.689c-1.919.406-3.542 2.03-3.542 3.856 0 1.55 1.107 2.638 2.767 2.897-1.015-.628-1.513-1.421-1.513-2.362 0-1.273 1.181-2.214 2.712-2.417z" fill-rule="nonzero"/><path d="m89.648 1.174h52.176v2.306h-52.176z"/><path d="m190.252 8.092 17.44 2.306v-2.306l-17.44-2.306z"/><path d="m225.132 8.092h52.176v2.306h-52.176z"/><path d="m41.507 23.515v-15.423" fill="none"/><path d="m41.507 23.515v-15.423" fill="none" stroke="#000" stroke-width=".43"/><path d="m37.376 26.593c1.9 0 4.243-1.586 4.243-3.21 0-.978-.867-1.605-2.103-1.605-1.863 0-4.206 1.55-4.206 3.21 0 1.015.904 1.605 2.066 1.605z" fill-rule="nonzero"/><path d="m64.232 20.948c-.756-1.218-2.306-2.565-2.306-3.542 0-.646.572-1.661 1.734-3.063l-3.284-4.502c-.203.037-.314.111-.314.24 0-.018 1.347 1.605 1.347 2.583 0 .959-.627 2.011-1.9 3.173 1.439 1.771 2.251 2.62 2.823 3.506-.388-.203-.757-.314-1.107-.314-1.126 0-1.845 1.07-1.845 2.159 0 1.328 2.214 2.933 2.638 2.933.074 0 .129-.037.148-.111-.775-.756-1.163-1.457-1.163-2.103 0-.849.72-1.328 1.661-1.328.498 0 1.033.129 1.568.369z" fill-rule="nonzero"/><path d="m89.648 25.821v-24.503" fill="none"/><path d="m89.648 25.821v-24.503" fill="none" stroke="#000" stroke-width=".43"/><path d="m85.516 28.899c1.901 0 4.244-1.586 4.244-3.21 0-.978-.868-1.605-2.104-1.605-1.863 0-4.206 1.55-4.206 3.21 0 1.015.904 1.605 2.066 1.605z" fill-rule="nonzero"/><path d="m77.973 29.877 2.601-1.919c1.144-.83 1.587-1.771 1.624-2.472 0-1.033-.941-1.808-2.048-1.808-.775 0-1.347.295-1.716.904l.129-5.811h-.59zm1.716-5.461c.59 0 1.033.424 1.033.996 0 .96-1.273 2.805-2.232 3.413-.056-.313-.093-.922-.093-1.826 0-.498.037-1.107.111-1.808.277-.517.664-.775 1.181-.775z" fill-rule="nonzero"/><path d="m107.088 23.515v-22.197" fill="none"/><path d="m107.088 23.515v-22.197" fill="none" stroke="#000" stroke-width=".43"/><path d="m102.956 26.593c1.901 0 4.244-1.586 4.244-3.21 0-.978-.867-1.605-2.104-1.605-1.863 0-4.206 1.55-4.206 3.21 0 1.015.904 1.605 2.066 1.605z" fill-rule="nonzero"/><path d="m124.528 14.29v-12.972" fill="none"/><path d="m124.528 14.29v-12.972" fill="none" stroke="#000" stroke-width=".43"/><path d="m120.396 17.369c1.901 0 4.244-1.587 4.244-3.211 0-.977-.867-1.605-2.103-1.605-1.864 0-4.207 1.55-4.207 3.211 0 1.014.904 1.605 2.066 1.605z" fill-rule="nonzero"/><path d="m141.824 16.596v-15.278" fill="none"/><path d="m141.824 16.596v-15.278" fill="none" stroke="#000" stroke-width=".43"/><path d="m137.692 19.675c1.901 0 4.244-1.587 4.244-3.21 0-.978-.867-1.605-2.104-1.605-1.863 0-4.206 1.549-4.206 3.21 0 1.014.904 1.605 2.066 1.605z" fill-rule="nonzero"/><path d="m130.149 20.653 2.601-1.919c1.144-.83 1.587-1.771 1.624-2.472 0-1.033-.941-1.808-2.048-1.808-.775 0-1.347.295-1.716.904l.129-5.812h-.59zm1.716-5.461c.59 0 1.033.424 1.033.996 0 .959-1.273 2.804-2.232 3.413-.056-.314-.093-.923-.093-1.827 0-.498.037-1.106.111-1.808.277-.516.664-.774 1.181-.774z" fill-rule="nonzero"/><path d="m160.129 18.038v15.422" fill="none"/><path d="m160.129 18.038v15.422" fill="none" stroke="#000" stroke-width=".43"/><path d="m162.051 19.675c1.9 0 4.243-1.587 4.243-3.21 0-.978-.867-1.605-2.103-1.605-1.864 0-4.207 1.549-4.207 3.21 0 1.014.904 1.605 2.067 1.605z" fill-rule="nonzero"/><path d="m190.252 18.902v-12.972" fill="none"/><path d="m190.252 18.902v-12.972" fill="none" stroke="#000" stroke-width=".43"/><path d="m186.121 21.981c1.9 0 4.243-1.587 4.243-3.21 0-.978-.867-1.605-2.103-1.605-1.863 0-4.206 1.549-4.206 3.21 0 1.014.904 1.605 2.066 1.605z" fill-rule="nonzero"/><path d="m178.578 22.959 2.601-1.919c1.144-.83 1.587-1.771 1.623-2.472 0-1.033-.94-1.808-2.047-1.808-.775 0-1.347.295-1.716.904l.129-5.812h-.59zm1.715-5.461c.591 0 1.033.424 1.033.996 0 .959-1.272 2.804-2.232 3.413-.055-.314-.092-.922-.092-1.826 0-.499.037-1.107.111-1.808.276-.517.664-.775 1.18-.775z" fill-rule="nonzero"/><path d="m207.692 23.515v-15.278" fill="none"/><path d="m207.692 23.515v-15.278" fill="none" stroke="#000" stroke-width=".43"/><path d="m203.561 26.593c1.9 0 4.243-1.586 4.243-3.21 0-.978-.867-1.605-2.103-1.605-1.863 0-4.206 1.55-4.206 3.21 0 1.015.904 1.605 2.066 1.605z" fill-rule="nonzero"/><path d="m225.132 23.515v-15.278" fill="none"/><path d="m225.132 23.515v-15.278" fill="none" stroke="#000" stroke-width=".43"/><path d="m221.001 26.593c1.9 0 4.243-1.586 4.243-3.21 0-.978-.867-1.605-2.103-1.605-1.863 0-4.206 1.55-4.206 3.21 0 1.015.904 1.605 2.066 1.605z" fill-rule="nonzero"/><path d="m234.645 31.154h9.801" fill="none"/><path d="m234.645 31.154h9.801" fill="none" stroke="#000" stroke-width=".72"/><path d="m242.572 30.433v-22.196" fill="none"/><path d="m242.572 30.433v-22.196" fill="none" stroke="#000" stroke-width=".43"/><path d="m238.441 33.511c1.9 0 4.243-1.586 4.243-3.21 0-.977-.867-1.605-2.103-1.605-1.863 0-4.206 1.55-4.206 3.21 0 1.015.904 1.605 2.066 1.605z" fill-rule="nonzero"/><path d="m259.868 25.821v-17.584" fill="none"/><path d="m259.868 25.821v-17.584" fill="none" stroke="#000" stroke-width=".43"/><path d="m255.737 28.899c1.9 0 4.243-1.586 4.243-3.21 0-.978-.867-1.605-2.103-1.605-1.863 0-4.206 1.55-4.206 3.21 0 1.015.904 1.605 2.066 1.605z" fill-rule="nonzero"/><path d="m248.194 29.877 2.601-1.919c1.144-.83 1.587-1.771 1.623-2.472 0-1.033-.94-1.808-2.047-1.808-.775 0-1.347.295-1.716.904l.129-5.811h-.59zm1.715-5.461c.591 0 1.034.424 1.034.996 0 .96-1.273 2.805-2.233 3.413-.055-.313-.092-.922-.092-1.826 0-.498.037-1.107.111-1.808.276-.517.664-.775 1.18-.775z" fill-rule="nonzero"/><path d="m277.308 23.515v-15.278" fill="none"/><path d="m277.308 23.515v-15.278" fill="none" stroke="#000" stroke-width=".43"/><path d="m273.177 26.593c1.9 0 4.243-1.586 4.243-3.21 0-.978-.867-1.605-2.103-1.605-1.863 0-4.206 1.55-4.206 3.21 0 1.015.904 1.605 2.066 1.605z" fill-rule="nonzero"/></svg>