<?xml version="1.0" encoding="UTF-8" standalone="no"?><!DOCTYPE svg PUBLIC "-//W3C//DTD SVG 1.1//EN" "http://www.w3.org/Graphics/SVG/1.1/DTD/svg11.dtd"><svg width="100%" height="100%" viewBox="0 0 481 492" version="1.1" xmlns="http://www.w3.org/2000/svg" xmlns:xlink="http://www.w3.org/1999/xlink" xml:space="preserve" xmlns:serif="http://www.serif.com/" style="fill-rule:evenodd;clip-rule:evenodd;stroke-linejoin:round;stroke-miterlimit:2;"><g><path d="M52.418,91.109l-0,19.805" style="fill:none;stroke:#000;stroke-width:2.48px;"/><path d="M55.822,91.109l-0,19.805" style="fill:none;stroke:#000;stroke-width:0.77px;"/><path d="M59.071,97.609c-0.475,0 -0.911,0.416 -0.911,0.951c-0,0.456 0.456,0.891 0.911,0.891c0.535,-0 0.951,-0.435 0.951,-0.891c-0,-0.535 -0.416,-0.951 -0.951,-0.951Z" style="fill-rule:nonzero;"/><path d="M59.071,102.561c-0.475,0 -0.911,0.416 -0.911,0.95c-0,0.456 0.456,0.892 0.911,0.892c0.535,0 0.951,-0.436 0.951,-0.892c-0,-0.534 -0.416,-0.95 -0.951,-0.95Z" style="fill-rule:nonzero;"/><path d="M184.404,91.109l0,19.805" style="fill:none;stroke:#000;stroke-width:0.77px;"/><path d="M282.968,91.109l-0,19.805" style="fill:none;stroke:#000;stroke-width:0.77px;"/><path d="M381.532,91.109l0,19.805" style="fill:none;stroke:#000;stroke-width:0.77px;"/><path d="M480.097,91.109l-0,19.805" style="fill:none;stroke:#000;stroke-width:0.77px;"/><path d="M92.878,77.731c0.486,-0.443 0.708,-1.062 0.708,-1.638c-0,-0.464 -0.155,-0.929 -0.465,-1.283c-1.062,0.31 -2.168,0.443 -3.12,0.443c-2.589,-0 -3.275,-0.974 -3.275,-2.833c-0,-1.504 1.571,-5.686 3.076,-5.686c1.084,0 1.748,3.429 2.5,3.429c0.885,-0 0.93,-1.703 0.93,-2.367c0,-3.009 -1.328,-4.735 -2.943,-4.735c-2.323,0 -5.333,4.049 -5.333,8.85c0,2.611 0.73,6.484 4.315,6.484c1.217,-0 2.611,-0.288 3.607,-0.664Z" style="fill-rule:nonzero;"/><path d="M190.047,77.466c-0.055,0.054 -0.091,0.127 -0.091,0.217c-0,0.489 0.905,1.448 1.412,1.448c0.344,0 5.594,-5.811 8.871,-9.233c0.036,-0.036 0.054,-0.072 0.054,-0.108c-0,-0.398 -1.068,-1.448 -1.43,-1.448c-0.054,0 -0.09,0.018 -0.126,0.054c-2.662,2.227 -6.301,6.39 -8.69,9.07Zm7.151,-0.706c-0.055,0.072 -0.073,0.145 -0.073,0.199c0,0.471 0.851,1.213 1.394,1.213c0.435,-0 1.974,-2.082 1.974,-2.209c-0,-0.434 -0.815,-1.412 -1.322,-1.412c-0.724,-0 -1.448,1.358 -1.973,2.209Zm-6.373,-6.101c-0.036,0.054 -0.054,0.108 -0.054,0.181c-0,0.416 0.778,1.213 1.159,1.213c0.362,-0.362 0.687,-0.706 0.959,-1.014c0.507,-0.507 0.996,-1.086 0.996,-1.285c-0,-0.471 -0.688,-1.268 -1.123,-1.268c-0.561,-0 -1.52,1.811 -1.937,2.173Z" style="fill-rule:nonzero;"/><path d="M288.266,76.068c-0.179,-0.048 -0.334,-0.119 -0.489,-0.143c0.048,0.858 0.048,1.287 0.072,1.966c0.298,0.357 0.87,0.452 2.228,0.452c0.298,-0 0.619,-0 0.989,-0.012c1.251,-0.5 1.882,-2.93 1.882,-4.992c-0,-2.692 -0.905,-3.288 -2.287,-3.288c-1.049,-0 -1.859,0.608 -2.753,1.692c-0.071,0.5 -0.012,1.048 -0.095,1.918c0.119,0 0.298,-0.179 0.381,-0.238c0.024,0.393 0.096,1.251 0.096,2.013c0,0.227 -0.012,0.441 -0.024,0.632Zm0.607,-3.098c0.668,-0.584 1.525,-0.87 2.062,-0.87c0.714,0 1.012,0.751 1.012,1.513c-0,0.989 -0.691,2.741 -2.192,2.741c-0.202,0 -0.417,-0.024 -0.667,-0.084c0.024,-0.321 0.048,-0.738 0.048,-1.167c-0,-0.715 -0.06,-1.502 -0.263,-2.133Z" style="fill-rule:nonzero;"/><path d="M293.757,74.138c0.215,0.429 0.334,1.727 0.334,2.692c0,0.382 -0.024,0.715 -0.06,0.918c-0.011,0.035 -0.011,0.059 -0.011,0.083c-0,0.322 0.393,0.548 0.691,0.548c0.166,-0 0.309,-0.071 0.321,-0.238c0.084,-0.846 0.37,-3.062 0.751,-3.098c0.179,-0.024 0.262,1.823 0.31,2.883c0.012,0.298 0.321,0.441 0.619,0.441c0.274,0 0.548,-0.119 0.56,-0.345c0.072,-0.894 0.965,-3.193 1.108,-3.181c0.262,0.023 0.644,3.062 0.644,3.097c0.011,0.31 0.286,0.501 0.524,0.501c0.167,-0 0.322,-0.108 0.322,-0.346c-0,-1.013 -0.346,-2.764 -0.62,-3.86c-0.095,-0.358 -0.441,-0.727 -0.798,-0.727c-0.262,0 -0.536,0.191 -0.715,0.703l-0.87,2.157c0,-0.298 -0.369,-2.252 -0.393,-2.395c-0.119,-0.477 -0.31,-0.679 -0.524,-0.679c-0.429,-0 -0.942,0.798 -1.132,1.68c-0.024,-0.322 -0.346,-1.013 -0.37,-1.073c-0.059,-0.131 -0.143,-0.178 -0.25,-0.178c-0.202,0 -0.452,0.19 -0.452,0.357c0,0.024 0,0.048 0.011,0.06Z" style="fill-rule:nonzero;"/><path d="M300.596,69.527c-0.012,0.5 -0.095,1.012 -0.131,1.549c0.548,-0.167 1.168,-0.405 1.787,-0.405c0.239,-0 0.465,0.035 0.703,0.119c-0.25,0.929 -0.75,2.478 -1.358,4.575c0.131,0.131 0.25,0.238 0.357,0.238c0.072,-0 0.143,-0.048 0.227,-0.167c0.643,-1.918 1.024,-2.943 1.644,-5.385c0.024,-0.107 0.036,-0.214 0.036,-0.298c-0,-0.524 -0.453,-0.703 -1.037,-0.703c-0.774,-0 -1.763,0.298 -2.228,0.477Z" style="fill-rule:nonzero;"/><path d="M159.647,170.331l0,19.806" style="fill:none;stroke:#000;stroke-width:0.77px;"/><path d="M273.994,170.331l-0,19.806" style="fill:none;stroke:#000;stroke-width:0.77px;"/><path d="M385.555,170.331l-0,19.806" style="fill:none;stroke:#000;stroke-width:0.77px;"/><path d="M480.097,170.331l-0,19.806" style="fill:none;stroke:#000;stroke-width:0.77px;"/><path d="M50.279,159.127c0.044,0.119 0.109,0.162 0.184,0.162c0.163,0 0.358,-0.195 0.477,-0.39c0.119,-1.408 0.292,-2.805 0.292,-3.639c-0,-1.419 -0.714,-1.733 -1.332,-1.733c-0.357,0 -0.693,0.098 -0.834,0.152c-0.021,0.379 -0.141,1.072 -0.141,1.635c0.25,-0.021 0.325,-0.032 0.358,-0.032c0.043,0 0.032,0.021 0.26,0.065c-0.433,0.227 -0.802,0.325 -1.083,0.325c-0.639,-0 -0.91,-0.499 -0.91,-1.127c-0,-0.314 0.065,-0.671 0.195,-1.018c0.13,-0.563 0.801,-1.733 1.332,-1.733c0.455,0 0.531,1.462 1.105,1.462c0.271,0 0.411,-0.314 0.411,-0.877c-0,-1.332 -0.53,-2.47 -1.343,-2.47c-1.289,-0 -2.577,2.762 -2.577,4.961c0,1.311 0.422,2.73 1.841,2.73c0.639,0 1.343,-0.369 1.906,-1.354c-0.022,1.31 -0.119,2.101 -0.141,2.881Z" style="fill-rule:nonzero;"/><path d="M52.173,149.595c-0.01,0.455 -0.086,0.921 -0.119,1.408c0.499,-0.151 1.062,-0.368 1.625,-0.368c0.217,0 0.422,0.033 0.639,0.108c-0.227,0.845 -0.682,2.253 -1.235,4.16c0.119,0.119 0.228,0.216 0.325,0.216c0.065,-0 0.13,-0.043 0.206,-0.151c0.585,-1.744 0.931,-2.676 1.495,-4.896c0.021,-0.098 0.032,-0.195 0.032,-0.271c-0,-0.476 -0.411,-0.639 -0.942,-0.639c-0.704,-0 -1.603,0.271 -2.026,0.433Z" style="fill-rule:nonzero;"/><path d="M297.278,156.953c0.487,-0.442 0.708,-1.062 0.708,-1.637c-0,-0.465 -0.154,-0.929 -0.464,-1.283c-1.062,0.31 -2.169,0.442 -3.12,0.442c-2.589,0 -3.275,-0.973 -3.275,-2.832c0,-1.505 1.571,-5.686 3.076,-5.686c1.084,0 1.748,3.429 2.5,3.429c0.885,-0 0.929,-1.704 0.929,-2.367c-0,-3.01 -1.327,-4.735 -2.942,-4.735c-2.324,-0 -5.333,4.049 -5.333,8.85c-0,2.611 0.73,6.483 4.315,6.483c1.217,0 2.611,-0.287 3.606,-0.664Z" style="fill-rule:nonzero;"/><path d="M396.769,159.164c-0.055,0.055 -0.091,0.127 -0.091,0.217c0,0.489 0.905,1.449 1.412,1.449c0.344,-0 5.594,-5.811 8.871,-9.233c0.036,-0.036 0.054,-0.072 0.054,-0.109c0,-0.398 -1.068,-1.448 -1.43,-1.448c-0.054,0 -0.09,0.018 -0.127,0.054c-2.661,2.227 -6.3,6.391 -8.689,9.07Zm7.15,-0.706c-0.054,0.073 -0.072,0.145 -0.072,0.199c-0,0.471 0.851,1.213 1.394,1.213c0.435,-0 1.973,-2.082 1.973,-2.208c-0,-0.435 -0.814,-1.412 -1.321,-1.412c-0.724,-0 -1.449,1.357 -1.974,2.208Zm-6.372,-6.101c-0.036,0.055 -0.054,0.109 -0.054,0.181c0,0.417 0.778,1.213 1.158,1.213c0.362,-0.362 0.688,-0.706 0.96,-1.014c0.507,-0.506 0.996,-1.086 0.996,-1.285c-0,-0.471 -0.688,-1.267 -1.123,-1.267c-0.561,-0 -1.521,1.81 -1.937,2.172Z" style="fill-rule:nonzero;"/><path d="M154.386,249.554l0,19.806" style="fill:none;stroke:#000;stroke-width:0.77px;"/><path d="M263.008,249.554l-0,19.806" style="fill:none;stroke:#000;stroke-width:0.77px;"/><path d="M371.475,249.554l0,19.806" style="fill:none;stroke:#000;stroke-width:0.77px;"/><path d="M480.097,249.554l-0,19.806" style="fill:none;stroke:#000;stroke-width:0.77px;"/><path d="M53.059,236.729c0.022,0.177 0.332,0.244 0.708,0.244c0.575,0 1.306,-0.177 1.306,-0.443c0.022,-0.951 0,-1.571 0.221,-2.788c0.819,-0.287 1.726,-0.73 2.766,-1.106c0.132,1.726 0.177,3.54 0.243,3.894c0,0.133 0.31,0.177 0.686,0.177c0.664,0 1.593,-0.155 1.593,-0.42c0,-3.518 -0.022,-14.781 -2.522,-14.781c-2.279,0 -5.001,7.899 -5.001,14.891l-0,0.332Zm4.071,-10.156c0.686,-0 0.708,2.058 0.797,3.297c-0.62,0.332 -1.438,0.664 -2.146,0.952c0.265,-1.24 0.663,-4.205 1.349,-4.249Z" style="fill-rule:nonzero;"/><path d="M61.709,229.051c0.398,0.797 0.619,3.209 0.619,5.001c-0,0.708 -0.044,1.328 -0.11,1.704c-0.022,0.066 -0.022,0.11 -0.022,0.155c-0,0.597 0.73,1.018 1.283,1.018c0.31,0 0.575,-0.133 0.597,-0.443c0.155,-1.571 0.686,-5.687 1.394,-5.753c0.332,-0.044 0.487,3.385 0.576,5.355c0.022,0.553 0.597,0.818 1.15,0.818c0.509,0 1.018,-0.221 1.04,-0.641c0.133,-1.66 1.793,-5.93 2.058,-5.908c0.487,0.044 1.195,5.686 1.195,5.753c0.022,0.575 0.531,0.929 0.973,0.929c0.31,0 0.598,-0.199 0.598,-0.642c-0,-1.88 -0.642,-5.133 -1.151,-7.169c-0.177,-0.663 -0.818,-1.349 -1.482,-1.349c-0.487,-0 -0.996,0.354 -1.328,1.305l-1.615,4.005c0,-0.553 -0.686,-4.182 -0.73,-4.447c-0.221,-0.885 -0.575,-1.262 -0.974,-1.262c-0.796,0 -1.748,1.483 -2.102,3.12c-0.044,-0.597 -0.641,-1.88 -0.686,-1.991c-0.11,-0.244 -0.265,-0.332 -0.464,-0.332c-0.377,0 -0.841,0.354 -0.841,0.664c0,0.044 0,0.088 0.022,0.11Z" style="fill-rule:nonzero;"/><path d="M162.814,235.911c-0.054,0.055 -0.091,0.127 -0.091,0.217c0,0.489 0.906,1.449 1.413,1.449c0.344,-0 5.594,-5.811 8.87,-9.233c0.037,-0.036 0.055,-0.072 0.055,-0.109c0,-0.398 -1.068,-1.448 -1.431,-1.448c-0.054,-0 -0.09,0.018 -0.126,0.054c-2.662,2.227 -6.3,6.391 -8.69,9.07Zm7.151,-0.706c-0.054,0.073 -0.073,0.145 -0.073,0.199c-0,0.471 0.851,1.213 1.394,1.213c0.435,0 1.974,-2.082 1.974,-2.208c-0,-0.435 -0.815,-1.412 -1.322,-1.412c-0.724,0 -1.448,1.357 -1.973,2.208Zm-6.373,-6.101c-0.036,0.055 -0.054,0.109 -0.054,0.181c-0,0.417 0.779,1.213 1.159,1.213c0.362,-0.362 0.688,-0.706 0.959,-1.014c0.507,-0.506 0.996,-1.086 0.996,-1.285c-0,-0.471 -0.688,-1.267 -1.122,-1.267c-0.562,0 -1.521,1.81 -1.938,2.172Z" style="fill-rule:nonzero;"/><path d="M270.162,234.513c-0.179,-0.047 -0.333,-0.119 -0.488,-0.143c0.047,0.858 0.047,1.287 0.071,1.966c0.298,0.357 0.87,0.453 2.228,0.453c0.298,0 0.62,0 0.989,-0.012c1.251,-0.501 1.882,-2.931 1.882,-4.992c-0,-2.693 -0.905,-3.289 -2.287,-3.289c-1.049,0 -1.859,0.608 -2.752,1.692c-0.072,0.501 -0.012,1.049 -0.096,1.918c0.12,-0 0.298,-0.178 0.382,-0.238c0.023,0.393 0.095,1.251 0.095,2.014c0,0.226 -0.012,0.441 -0.024,0.631Zm0.608,-3.098c0.667,-0.583 1.525,-0.869 2.061,-0.869c0.715,-0 1.013,0.75 1.013,1.513c-0,0.989 -0.691,2.74 -2.193,2.74c-0.202,0 -0.417,-0.024 -0.667,-0.083c0.024,-0.322 0.048,-0.739 0.048,-1.168c0,-0.715 -0.06,-1.501 -0.262,-2.133Z" style="fill-rule:nonzero;"/><path d="M275.654,232.583c0.214,0.429 0.333,1.728 0.333,2.693c-0,0.381 -0.023,0.715 -0.059,0.917c-0.012,0.036 -0.012,0.06 -0.012,0.083c-0,0.322 0.393,0.549 0.691,0.549c0.167,-0 0.31,-0.072 0.322,-0.239c0.083,-0.846 0.369,-3.062 0.75,-3.097c0.179,-0.024 0.262,1.822 0.31,2.883c0.012,0.298 0.322,0.441 0.62,0.441c0.274,0 0.548,-0.12 0.56,-0.346c0.071,-0.893 0.965,-3.193 1.108,-3.181c0.262,0.024 0.643,3.062 0.643,3.098c0.012,0.309 0.286,0.5 0.524,0.5c0.167,0 0.322,-0.107 0.322,-0.345c-0,-1.013 -0.346,-2.765 -0.62,-3.861c-0.095,-0.357 -0.44,-0.726 -0.798,-0.726c-0.262,-0 -0.536,0.19 -0.715,0.703l-0.87,2.156c0,-0.298 -0.369,-2.252 -0.393,-2.395c-0.119,-0.476 -0.309,-0.679 -0.524,-0.679c-0.429,-0 -0.941,0.798 -1.132,1.68c-0.024,-0.322 -0.345,-1.013 -0.369,-1.072c-0.06,-0.131 -0.143,-0.179 -0.25,-0.179c-0.203,-0 -0.453,0.191 -0.453,0.357c-0,0.024 -0,0.048 0.012,0.06Z" style="fill-rule:nonzero;"/><path d="M282.493,227.972c-0.012,0.501 -0.096,1.013 -0.131,1.549c0.548,-0.167 1.167,-0.405 1.787,-0.405c0.238,-0 0.464,0.036 0.703,0.119c-0.251,0.929 -0.751,2.478 -1.359,4.575c0.131,0.131 0.251,0.239 0.358,0.239c0.071,0 0.143,-0.048 0.226,-0.167c0.644,-1.919 1.025,-2.943 1.644,-5.386c0.024,-0.107 0.036,-0.214 0.036,-0.297c-0,-0.525 -0.453,-0.703 -1.036,-0.703c-0.775,0 -1.764,0.297 -2.228,0.476Z" style="fill-rule:nonzero;"/><path d="M144.174,328.622l-0,19.806" style="fill:none;stroke:#000;stroke-width:0.77px;"/><path d="M267.186,328.622l0,19.806" style="fill:none;stroke:#000;stroke-width:0.77px;"/><path d="M386.639,328.622l0,19.806" style="fill:none;stroke:#000;stroke-width:0.77px;"/><path d="M475.764,328.622l0,19.806" style="fill:none;stroke:#000;stroke-width:0.77px;"/><path d="M479.168,328.622l-0,19.806" style="fill:none;stroke:#000;stroke-width:2.48px;"/><path d="M472.515,335.123c-0.476,0 -0.911,0.416 -0.911,0.95c0,0.456 0.455,0.892 0.911,0.892c0.535,-0 0.95,-0.436 0.95,-0.892c-0,-0.534 -0.415,-0.95 -0.95,-0.95Z" style="fill-rule:nonzero;"/><path d="M472.515,340.074c-0.476,0 -0.911,0.416 -0.911,0.951c0,0.455 0.455,0.891 0.911,0.891c0.535,0 0.95,-0.436 0.95,-0.891c-0,-0.535 -0.415,-0.951 -0.95,-0.951Z" style="fill-rule:nonzero;"/><path d="M47.789,308.327c-0.155,1.763 -0.31,4.646 -0.31,6.279c0,1.048 0.095,1.406 0.441,1.406c0.583,-0 0.393,-2.074 0.512,-2.526c1.894,-0.87 2.264,-0.322 2.264,-1.633l-0,-0.131c-0,-0.369 -0.012,-0.548 -0.25,-0.548c-0.453,-0 -1.835,0.501 -2.074,0.536l0,-0.154c0,-0.465 0.072,-1.18 0.084,-1.597c0.643,-0.322 1.858,-0.381 2.418,-0.5c0.31,-0.048 0.334,-0.763 0.334,-1.287c0,-0.274 -0.071,-0.465 -0.584,-0.465c-0.929,0 -2.812,0.393 -2.835,0.62Z" style="fill-rule:nonzero;"/><path d="M52.969,309.316c0.048,-0.203 0.107,-1.216 0.298,-1.216l0.131,0.012c0.226,-0 0.274,-0.512 0.274,-0.75c0,-0.477 -0.167,-0.501 -0.322,-0.501c-0.488,-0 -1.298,1.978 -1.298,3.813c-0,0.917 0.345,1.87 1.108,1.87c0.512,0 1.108,-0.488 1.513,-1.775c0.119,-0.369 0.19,-0.679 0.19,-0.917c-0,-0.536 -0.321,-0.763 -1.12,-0.763c-0.238,0 -0.536,0.108 -0.774,0.227Zm-0.072,0.846c0.215,-0.024 0.62,-0.227 0.93,-0.227c0.19,-0 0.345,0.084 0.369,0.334c-0,0.667 -0.786,1.179 -0.965,1.179c-0.286,-0 -0.417,-0.417 -0.417,-0.81c-0,-0.179 0.024,-0.357 0.083,-0.476Z" style="fill-rule:nonzero;"/><path d="M55.172,315.678c-0.083,0.25 -0.119,0.465 -0.119,0.619c0,0.251 0.095,0.37 0.226,0.37c0.167,0 0.393,-0.179 0.584,-0.548c1.489,-2.788 2.037,-4.73 3.753,-6.982c0.036,-0.06 0.048,-0.119 0.048,-0.179c0,-0.202 -0.191,-0.357 -0.417,-0.357c-0.143,-0 -0.31,0.059 -0.441,0.202c-1.442,2.121 -2.574,4.278 -3.634,6.875Z" style="fill-rule:nonzero;"/><path d="M64.393,317.68c0.047,0.131 0.119,0.178 0.202,0.178c0.179,0 0.393,-0.214 0.524,-0.429c0.132,-1.549 0.322,-3.085 0.322,-4.003c0,-1.561 -0.786,-1.906 -1.465,-1.906c-0.393,0 -0.763,0.107 -0.918,0.167c-0.024,0.417 -0.155,1.179 -0.155,1.799c0.274,-0.024 0.358,-0.036 0.394,-0.036c0.047,-0 0.035,0.024 0.286,0.071c-0.477,0.251 -0.882,0.358 -1.192,0.358c-0.703,-0 -1.001,-0.548 -1.001,-1.239c-0,-0.346 0.072,-0.739 0.215,-1.12c0.143,-0.62 0.881,-1.906 1.465,-1.906c0.501,-0 0.584,1.608 1.215,1.608c0.298,0 0.453,-0.346 0.453,-0.965c-0,-1.466 -0.584,-2.717 -1.477,-2.717c-1.418,-0 -2.836,3.039 -2.836,5.457c-0,1.442 0.465,3.003 2.026,3.003c0.703,-0 1.477,-0.405 2.097,-1.49c-0.024,1.442 -0.131,2.312 -0.155,3.17Z" style="fill-rule:nonzero;"/><path d="M169.828,317.68c0.048,0.131 0.119,0.178 0.203,0.178c0.178,0 0.393,-0.214 0.524,-0.429c0.131,-1.549 0.321,-3.085 0.321,-4.003c0,-1.561 -0.786,-1.906 -1.465,-1.906c-0.393,0 -0.763,0.107 -0.917,0.167c-0.024,0.417 -0.155,1.179 -0.155,1.799c0.274,-0.024 0.357,-0.036 0.393,-0.036c0.047,-0 0.036,0.024 0.286,0.071c-0.477,0.251 -0.882,0.358 -1.192,0.358c-0.703,-0 -1,-0.548 -1,-1.239c0,-0.346 0.071,-0.739 0.214,-1.12c0.143,-0.62 0.882,-1.906 1.465,-1.906c0.501,-0 0.584,1.608 1.216,1.608c0.298,0 0.452,-0.346 0.452,-0.965c0,-1.466 -0.583,-2.717 -1.477,-2.717c-1.418,-0 -2.836,3.039 -2.836,5.457c0,1.442 0.465,3.003 2.026,3.003c0.703,-0 1.477,-0.405 2.097,-1.49c-0.024,1.442 -0.131,2.312 -0.155,3.17Z" style="fill-rule:nonzero;"/><path d="M171.912,307.195c-0.011,0.5 -0.095,1.013 -0.131,1.549c0.548,-0.167 1.168,-0.405 1.788,-0.405c0.238,0 0.464,0.035 0.702,0.119c-0.25,0.929 -0.75,2.478 -1.358,4.575c0.131,0.131 0.25,0.238 0.358,0.238c0.071,-0 0.143,-0.047 0.226,-0.167c0.643,-1.918 1.025,-2.942 1.644,-5.385c0.024,-0.107 0.036,-0.214 0.036,-0.298c0,-0.524 -0.453,-0.703 -1.037,-0.703c-0.774,0 -1.763,0.298 -2.228,0.477Z" style="fill-rule:nonzero;"/><path d="M309.038,315.399c0.487,-0.443 0.708,-1.062 0.708,-1.637c0,-0.465 -0.155,-0.93 -0.465,-1.284c-1.062,0.31 -2.168,0.443 -3.119,0.443c-2.589,0 -3.275,-0.974 -3.275,-2.832c-0,-1.505 1.571,-5.687 3.075,-5.687c1.085,-0 1.748,3.43 2.501,3.43c0.885,0 0.929,-1.704 0.929,-2.368c-0,-3.009 -1.328,-4.735 -2.943,-4.735c-2.323,0 -5.332,4.049 -5.332,8.851c0,2.611 0.73,6.483 4.314,6.483c1.217,0 2.611,-0.288 3.607,-0.664Z" style="fill-rule:nonzero;"/><path d="M396.721,315.72c0.238,-0.217 0.347,-0.52 0.347,-0.801c-0,-0.228 -0.076,-0.455 -0.228,-0.629c-0.52,0.152 -1.061,0.217 -1.527,0.217c-1.267,0 -1.603,-0.477 -1.603,-1.386c-0,-0.737 0.769,-2.784 1.505,-2.784c0.531,0 0.856,1.679 1.224,1.679c0.434,0 0.455,-0.834 0.455,-1.159c0,-1.473 -0.65,-2.318 -1.44,-2.318c-1.138,0 -2.611,1.982 -2.611,4.333c-0,1.278 0.358,3.173 2.112,3.173c0.596,-0 1.279,-0.141 1.766,-0.325Z" style="fill-rule:nonzero;"/><path d="M435.348,317.68c0.047,0.131 0.119,0.178 0.202,0.178c0.179,0 0.394,-0.214 0.525,-0.429c0.131,-1.549 0.321,-3.085 0.321,-4.003c-0,-1.561 -0.786,-1.906 -1.465,-1.906c-0.393,0 -0.763,0.107 -0.918,0.167c-0.023,0.417 -0.154,1.179 -0.154,1.799c0.274,-0.024 0.357,-0.036 0.393,-0.036c0.047,-0 0.035,0.024 0.286,0.071c-0.477,0.251 -0.882,0.358 -1.192,0.358c-0.703,-0 -1.001,-0.548 -1.001,-1.239c0,-0.346 0.072,-0.739 0.215,-1.12c0.143,-0.62 0.882,-1.906 1.465,-1.906c0.501,-0 0.584,1.608 1.216,1.608c0.297,0 0.452,-0.346 0.452,-0.965c-0,-1.466 -0.583,-2.717 -1.477,-2.717c-1.418,-0 -2.836,3.039 -2.836,5.457c0,1.442 0.465,3.003 2.026,3.003c0.703,-0 1.477,-0.405 2.097,-1.49c-0.024,1.442 -0.131,2.312 -0.155,3.17Z" style="fill-rule:nonzero;"/><path d="M437.432,307.195c-0.012,0.5 -0.095,1.013 -0.131,1.549c0.548,-0.167 1.168,-0.405 1.787,-0.405c0.239,0 0.465,0.035 0.703,0.119c-0.25,0.929 -0.75,2.478 -1.358,4.575c0.131,0.131 0.25,0.238 0.358,0.238c0.071,-0 0.143,-0.047 0.226,-0.167c0.643,-1.918 1.025,-2.942 1.644,-5.385c0.024,-0.107 0.036,-0.214 0.036,-0.298c-0,-0.524 -0.453,-0.703 -1.037,-0.703c-0.774,0 -1.763,0.298 -2.228,0.477Z" style="fill-rule:nonzero;"/><path d="M255.581,463.548l-0,19.806" style="fill:none;stroke:#000;stroke-width:0.77px;"/><path d="M480.097,463.548l-0,19.806" style="fill:none;stroke:#000;stroke-width:0.77px;"/><path d="M42.293,98.267l-0,-0.838l-1.257,-0l-0,-4.491l-2.495,2.215l0,2.276l-2.695,-0c0.3,-0.759 1.118,-1.797 2.455,-3.134c1.218,-1.218 1.916,-2.296 2.116,-3.194l-3.413,0c-0.16,1.956 -1.318,4.811 -2.535,6.368l0,0.798l4.072,-0c0,0.699 -0.02,1.098 -0.06,1.198c-0.12,0.219 -0.499,0.359 -1.118,0.399l-0.04,0.559l4.91,0l-0.079,-0.579c-0.959,-0.08 -1.138,-0.18 -1.138,-0.679c-0,-0.06 -0,-0.179 0.02,-0.379l-0,-0.519l1.257,-0Z" style="fill-rule:nonzero;"/><path d="M42.293,108.303l-0,-0.839l-1.257,-0l-0,-4.491l-2.495,2.216l0,2.275l-2.695,-0c0.3,-0.758 1.118,-1.796 2.455,-3.133c1.218,-1.218 1.916,-2.296 2.116,-3.194l-3.413,-0c-0.16,1.956 -1.318,4.81 -2.535,6.367l0,0.799l4.072,0c0,0.698 -0.02,1.098 -0.06,1.197c-0.12,0.22 -0.499,0.36 -1.118,0.4l-0.04,0.559l4.91,0l-0.079,-0.579c-0.959,-0.08 -1.138,-0.18 -1.138,-0.679c-0,-0.06 -0,-0.18 0.02,-0.379l-0,-0.519l1.257,0Z" style="fill-rule:nonzero;"/><path d="M10.331,110.914l470.075,0" style="fill:none;stroke:#000;stroke-width:0.46px;"/><path d="M10.331,105.963l470.075,0" style="fill:none;stroke:#000;stroke-width:0.46px;"/><path d="M10.331,101.012l470.075,-0" style="fill:none;stroke:#000;stroke-width:0.46px;"/><path d="M10.331,96.06l470.075,-0" style="fill:none;stroke:#000;stroke-width:0.46px;"/><path d="M10.331,91.109l470.075,0" style="fill:none;stroke:#000;stroke-width:0.46px;"/><path d="M24.403,110.257l0.752,3.664c0.04,0.218 0.06,0.416 0.06,0.614c0,1.941 -1.981,3.565 -4.12,3.565c-0.654,0 -1.287,-0.158 -1.881,-0.456c1.525,-0.158 2.673,-1.089 2.673,-2.455c-0,-1.209 -0.99,-2.476 -2.258,-2.476c-1.445,0 -2.436,1.109 -2.436,2.555c0,2.02 1.644,3.347 3.625,3.347c2.654,-0 4.912,-1.723 4.912,-4.199c-0,-0.554 -0.872,-4.476 -0.852,-4.337c2.119,-1.03 3.565,-2.852 3.565,-4.773c0,-2.635 -2.119,-4.655 -4.753,-4.655c-0.04,0 -0.317,0.02 -0.793,0.06l-0.871,-4.179c2.951,-2.496 4.298,-5.15 4.298,-8.061c-0,-2.238 -0.891,-4.615 -2.694,-7.111c-2.04,1.644 -3.208,4.932 -3.208,8.438c0,1.247 0.158,2.456 0.435,3.604c-4.515,3.783 -6.773,7.269 -6.773,10.458c-0,3.743 3.862,6.852 8.061,6.852c0.931,0 1.624,-0.138 2.258,-0.455Zm-0.06,-26.025c0.654,0.674 0.99,1.466 0.99,2.397c0,1.921 -1.366,4.08 -4.04,6.456c-0.139,-0.574 -0.178,-1.208 -0.178,-1.901c-0,-3.327 1.228,-6.991 2.872,-6.991c0.138,-0 0.257,0.019 0.356,0.039Zm0.416,25.213l-1.406,-6.615c0.277,-0.02 0.436,-0.04 0.495,-0.04c1.703,0 2.892,1.604 2.892,3.248c-0,1.307 -0.694,2.456 -1.981,3.407Zm-1.901,-6.536l1.426,6.813c-0.693,0.376 -1.466,0.535 -2.397,0.535c-3.208,-0 -5.981,-2.397 -5.981,-5.308c0,-2.634 1.961,-5.348 5.664,-8.12l0.832,3.961c-2.06,0.436 -3.802,2.178 -3.802,4.139c0,1.664 1.188,2.832 2.97,3.11c-1.089,-0.674 -1.624,-1.525 -1.624,-2.535c-0,-1.367 1.268,-2.377 2.912,-2.595Z" style="fill-rule:nonzero;"/><path d="M127.448,70.285l-0,-5.654l-2.152,0l-0,-0.758l5.151,-0l0,0.758l-2.152,0l-0,5.654l-0.847,0Z" style="fill-rule:nonzero;"/><path d="M135.429,64.605c0.247,0.282 0.432,0.635 0.564,1.049c0.142,0.415 0.203,0.891 0.203,1.429c-0,0.521 -0.061,0.988 -0.194,1.402c-0.132,0.424 -0.326,0.777 -0.573,1.059c-0.265,0.3 -0.564,0.52 -0.917,0.661c-0.344,0.141 -0.732,0.212 -1.147,0.212c-0.441,-0 -0.829,-0.071 -1.173,-0.22c-0.353,-0.142 -0.652,-0.362 -0.899,-0.653c-0.247,-0.282 -0.433,-0.635 -0.565,-1.05c-0.132,-0.414 -0.203,-0.89 -0.203,-1.411c-0,-0.538 0.071,-1.014 0.203,-1.42c0.132,-0.414 0.326,-0.758 0.573,-1.058c0.247,-0.282 0.538,-0.494 0.891,-0.644c0.344,-0.15 0.741,-0.221 1.173,-0.221c0.432,-0 0.829,0.071 1.173,0.23c0.353,0.15 0.653,0.361 0.891,0.635Zm-0.115,2.478c-0,-0.423 -0.053,-0.802 -0.141,-1.129c-0.088,-0.326 -0.22,-0.6 -0.388,-0.811c-0.167,-0.23 -0.37,-0.388 -0.608,-0.503c-0.247,-0.106 -0.512,-0.167 -0.812,-0.167c-0.308,-0 -0.582,0.052 -0.811,0.167c-0.23,0.106 -0.432,0.273 -0.618,0.503c-0.167,0.211 -0.299,0.485 -0.388,0.82c-0.088,0.326 -0.132,0.706 -0.132,1.12c0,0.838 0.176,1.482 0.529,1.932c0.353,0.441 0.829,0.67 1.42,0.67c0.591,-0 1.067,-0.229 1.42,-0.67c0.353,-0.45 0.529,-1.094 0.529,-1.932Z" style="fill-rule:nonzero;"/><path d="M141.722,70.285l-0.961,0l-2.831,-5.53l-0,5.53l-0.794,0l0,-6.412l1.208,-0l2.575,5.08l0,-5.08l0.803,-0l0,6.412Z" style="fill-rule:nonzero;"/><path d="M145.261,70.285l-2.496,0l-0,-0.653l0.82,-0l0,-5.107l-0.82,-0l-0,-0.652l2.496,-0l0,0.652l-0.821,-0l0,5.107l0.821,-0l0,0.653Z" style="fill-rule:nonzero;"/><path d="M148.813,70.399c-0.423,-0 -0.802,-0.07 -1.155,-0.211c-0.353,-0.141 -0.653,-0.344 -0.909,-0.627c-0.255,-0.282 -0.458,-0.626 -0.599,-1.04c-0.141,-0.415 -0.212,-0.9 -0.212,-1.438c0,-0.538 0.071,-1.005 0.203,-1.402c0.141,-0.397 0.335,-0.75 0.6,-1.041c0.255,-0.291 0.555,-0.511 0.908,-0.661c0.353,-0.15 0.741,-0.221 1.173,-0.221c0.221,-0 0.423,0.018 0.609,0.044c0.185,0.035 0.361,0.071 0.52,0.124c0.141,0.044 0.282,0.097 0.423,0.158c0.15,0.062 0.291,0.142 0.432,0.212l-0,1.032l-0.07,0c-0.071,-0.071 -0.168,-0.15 -0.291,-0.247c-0.115,-0.097 -0.256,-0.194 -0.423,-0.291c-0.168,-0.088 -0.344,-0.159 -0.538,-0.22c-0.195,-0.053 -0.415,-0.089 -0.671,-0.089c-0.273,-0 -0.529,0.062 -0.767,0.168c-0.247,0.115 -0.459,0.282 -0.644,0.494c-0.185,0.22 -0.326,0.494 -0.423,0.829c-0.097,0.326 -0.15,0.697 -0.15,1.111c-0,0.441 0.053,0.82 0.159,1.138c0.105,0.317 0.246,0.582 0.432,0.802c0.176,0.212 0.388,0.371 0.626,0.477c0.247,0.114 0.503,0.167 0.767,0.167c0.247,-0 0.476,-0.035 0.688,-0.097c0.212,-0.053 0.397,-0.132 0.565,-0.22c0.15,-0.097 0.291,-0.185 0.405,-0.274c0.115,-0.097 0.203,-0.176 0.274,-0.247l0.061,0l-0,1.024c-0.141,0.061 -0.273,0.123 -0.396,0.185c-0.124,0.061 -0.283,0.123 -0.459,0.176c-0.185,0.062 -0.353,0.106 -0.52,0.141c-0.159,0.027 -0.362,0.044 -0.618,0.044Z" style="fill-rule:nonzero;"/><path d="M150.906,70.285l2.161,-6.412l1.05,-0l2.161,6.412l-0.9,0l-0.573,-1.791l-2.452,-0l-0.582,1.791l-0.865,0Zm3.661,-2.523l-0.997,-3.016l-0.979,3.016l1.976,-0Z" style="fill-rule:nonzero;"/><path d="M77.02,123.138l-0,-66.225" style="fill:none;stroke:#000;stroke-width:0.77px;"/><path d="M76.711,123.138l86.65,0" style="fill:none;stroke:#000;stroke-width:0.77px;"/><path d="M76.711,56.913l86.65,-0" style="fill:none;stroke:#000;stroke-width:0.77px;"/><path d="M163.051,123.138l-0,-66.225" style="fill:none;stroke:#000;stroke-width:0.77px;"/><path d="M140.637,32.391l0.846,-0l3.208,8.613l-1.01,-0l-1.033,-2.944l-3.274,-0l-1.077,2.944l-0.955,-0l3.295,-8.613Zm1.769,4.911l-1.329,-3.878l-1.439,3.878l2.768,0Z" style="fill-rule:nonzero;"/><path d="M150.632,37.071l0,3.933l-0.791,-0l0,-3.878c0,-0.406 -0.153,-0.747 -0.45,-1.011c-0.297,-0.274 -0.659,-0.406 -1.077,-0.406c-0.56,0 -1.032,0.231 -1.439,0.692c-0.406,0.472 -0.604,1 -0.604,1.582l-0,3.021l-0.747,-0l0,-5.877l0.692,0l0.033,1.098c0.198,-0.296 0.428,-0.549 0.692,-0.747c0.429,-0.318 0.923,-0.483 1.461,-0.483c0.626,-0 1.154,0.187 1.582,0.571c0.429,0.374 0.648,0.879 0.648,1.505Z" style="fill-rule:nonzero;"/><path d="M151.665,32.391l0.802,-0l-0,5.328l2.702,-2.592l1.121,0l-2.472,2.285l2.824,3.592l-1.088,-0l-2.329,-3.065l-0.758,0.703l-0,2.362l-0.802,-0l-0,-8.613Z" style="fill-rule:nonzero;"/><path d="M162.474,37.829l-4.472,0c-0,0.846 0.198,1.483 0.594,1.934c0.384,0.439 0.9,0.659 1.538,0.659c0.483,-0 0.944,-0.154 1.395,-0.462c0.121,-0.076 0.252,-0.175 0.395,-0.296c0.143,-0.121 0.286,-0.264 0.451,-0.429l0,0.956c-0.176,0.132 -0.341,0.253 -0.484,0.352c-0.153,0.099 -0.296,0.175 -0.428,0.241c-0.462,0.242 -0.923,0.363 -1.384,0.363c-0.802,0 -1.472,-0.275 -2.033,-0.824c-0.604,-0.582 -0.901,-1.329 -0.901,-2.252c0,-0.868 0.275,-1.604 0.813,-2.186c0.55,-0.594 1.231,-0.89 2.033,-0.89c0.78,-0 1.406,0.285 1.867,0.857c0.407,0.516 0.616,1.175 0.616,1.977Zm-4.362,-0.67l3.439,-0c-0.088,-0.494 -0.275,-0.868 -0.561,-1.11c-0.296,-0.252 -0.648,-0.373 -1.054,-0.373c-0.451,-0 -0.835,0.143 -1.154,0.428c-0.296,0.264 -0.516,0.616 -0.67,1.055Z" style="fill-rule:nonzero;"/><path d="M166.493,35.127l-0,0.791c-0.077,-0.033 -0.143,-0.055 -0.198,-0.066c-0.055,-0.022 -0.099,-0.033 -0.132,-0.044c-0.033,-0.011 -0.077,-0.011 -0.11,-0.011c-0.044,-0.011 -0.098,-0.011 -0.164,-0.011c-0.539,0 -0.978,0.263 -1.319,0.78c-0.296,0.472 -0.439,1.01 -0.439,1.593l-0,2.845l-0.791,-0l-0,-5.877l0.725,0l0.055,1.01c0.187,-0.307 0.351,-0.527 0.516,-0.659c0.33,-0.274 0.725,-0.406 1.187,-0.406c0.121,-0 0.241,-0 0.351,0.011c0.099,0.011 0.209,0.022 0.319,0.044Z" style="fill-rule:nonzero;"/><path d="M167.975,40.477l0,2.417l-0.769,0l-0,-7.767l0.714,0l0.044,1.065c0.241,-0.395 0.516,-0.692 0.835,-0.89c0.318,-0.208 0.692,-0.307 1.142,-0.307c0.736,-0 1.341,0.285 1.824,0.857c0.253,0.285 0.439,0.604 0.56,0.966c0.121,0.352 0.187,0.748 0.187,1.187c-0,0.912 -0.275,1.659 -0.824,2.252c-0.549,0.593 -1.208,0.89 -1.966,0.89c-0.385,0 -0.737,-0.077 -1.055,-0.242c-0.099,-0.033 -0.198,-0.088 -0.308,-0.165c-0.11,-0.076 -0.241,-0.164 -0.384,-0.263Zm0,-2.604l0,1.758c0.121,0.11 0.23,0.209 0.329,0.285c0.099,0.077 0.187,0.132 0.264,0.187c0.363,0.209 0.725,0.319 1.088,0.319c0.582,-0 1.065,-0.231 1.439,-0.692c0.384,-0.484 0.571,-1.066 0.571,-1.758c0,-0.648 -0.176,-1.187 -0.527,-1.615c-0.341,-0.428 -0.78,-0.648 -1.319,-0.648c-0.549,0 -0.999,0.242 -1.362,0.714c-0.318,0.428 -0.483,0.912 -0.483,1.45Z" style="fill-rule:nonzero;"/><path d="M173.247,35.127l0.802,0l-0,3.746c-0,0.417 0.121,0.769 0.363,1.054c0.263,0.33 0.637,0.495 1.12,0.495c0.56,-0 1.033,-0.22 1.428,-0.67c0.407,-0.473 0.616,-0.989 0.616,-1.549l0,-3.076l0.791,0l0,5.877l-0.693,-0l-0.054,-1c-0.121,0.165 -0.242,0.308 -0.374,0.44c-0.132,0.121 -0.275,0.231 -0.428,0.329c-0.407,0.253 -0.857,0.374 -1.352,0.374c-0.67,0 -1.208,-0.209 -1.615,-0.626c-0.406,-0.429 -0.604,-0.945 -0.604,-1.549l-0,-3.845Z" style="fill-rule:nonzero;"/><path d="M184.495,37.071l-0,3.933l-0.791,-0l-0,-3.878c-0,-0.406 -0.154,-0.747 -0.451,-1.011c-0.296,-0.274 -0.659,-0.406 -1.077,-0.406c-0.56,0 -1.032,0.231 -1.439,0.692c-0.406,0.472 -0.604,1 -0.604,1.582l-0,3.021l-0.747,-0l0,-5.877l0.692,0l0.033,1.098c0.198,-0.296 0.429,-0.549 0.692,-0.747c0.429,-0.318 0.923,-0.483 1.461,-0.483c0.627,-0 1.154,0.187 1.582,0.571c0.429,0.374 0.649,0.879 0.649,1.505Z" style="fill-rule:nonzero;"/><path d="M186.219,33.391l0.725,-0l0,1.725l1.549,-0l-0,0.714l-1.549,-0l0,3.735c0,0.308 0.055,0.527 0.176,0.659c0.11,0.132 0.308,0.198 0.582,0.198c0.165,-0 0.297,-0.022 0.418,-0.055c0.11,-0.033 0.23,-0.088 0.373,-0.143l-0,0.714c-0.121,0.033 -0.252,0.077 -0.417,0.11c-0.165,0.033 -0.341,0.044 -0.506,0.044c-0.439,0 -0.78,-0.099 -1.021,-0.297c-0.275,-0.208 -0.407,-0.538 -0.407,-0.988l-0,-3.977l-0.989,-0l-0,-0.714l0.989,-0l0.077,-1.725Z" style="fill-rule:nonzero;"/><path d="M194.447,37.829l-4.471,0c-0,0.846 0.198,1.483 0.593,1.934c0.385,0.439 0.901,0.659 1.538,0.659c0.484,-0 0.945,-0.154 1.396,-0.462c0.121,-0.076 0.252,-0.175 0.395,-0.296c0.143,-0.121 0.286,-0.264 0.451,-0.429l-0,0.956c-0.176,0.132 -0.341,0.253 -0.484,0.352c-0.154,0.099 -0.296,0.175 -0.428,0.241c-0.462,0.242 -0.923,0.363 -1.384,0.363c-0.802,0 -1.473,-0.275 -2.033,-0.824c-0.604,-0.582 -0.901,-1.329 -0.901,-2.252c0,-0.868 0.275,-1.604 0.813,-2.186c0.55,-0.594 1.231,-0.89 2.033,-0.89c0.78,-0 1.406,0.285 1.867,0.857c0.407,0.516 0.615,1.175 0.615,1.977Zm-4.361,-0.67l3.439,-0c-0.088,-0.494 -0.275,-0.868 -0.561,-1.11c-0.296,-0.252 -0.648,-0.373 -1.054,-0.373c-0.451,-0 -0.835,0.143 -1.154,0.428c-0.296,0.264 -0.516,0.616 -0.67,1.055Z" style="fill-rule:nonzero;"/><path d="M200.422,37.071l-0,3.933l-0.791,-0l-0,-3.878c-0,-0.406 -0.154,-0.747 -0.45,-1.011c-0.297,-0.274 -0.659,-0.406 -1.077,-0.406c-0.56,0 -1.032,0.231 -1.439,0.692c-0.406,0.472 -0.604,1 -0.604,1.582l0,3.021l-0.747,-0l-0,-5.877l0.692,0l0.033,1.098c0.198,-0.296 0.428,-0.549 0.692,-0.747c0.428,-0.318 0.923,-0.483 1.461,-0.483c0.626,-0 1.154,0.187 1.582,0.571c0.429,0.374 0.648,0.879 0.648,1.505Z" style="fill-rule:nonzero;"/><path d="M207.848,32.391l0.692,-0l-3.218,9.767l-0.693,-0l3.219,-9.767Z" style="fill-rule:nonzero;"/><path d="M214.099,32.38l2.066,0c0.758,0 1.395,0.099 1.911,0.286c0.209,0.077 0.418,0.187 0.604,0.307c0.187,0.121 0.374,0.264 0.539,0.429c0.406,0.406 0.714,0.89 0.922,1.45c0.209,0.56 0.319,1.153 0.319,1.769c0,1.373 -0.395,2.45 -1.175,3.23c-0.791,0.769 -1.879,1.153 -3.252,1.153l-1.934,-0l-0,-8.624Zm1.725,0.758l-0.857,0l-0,7.108l1.417,0c0.824,0 1.527,-0.286 2.099,-0.857c0.67,-0.67 0.999,-1.593 0.999,-2.779c-0,-0.231 -0.011,-0.451 -0.033,-0.659c-0.033,-0.209 -0.066,-0.407 -0.121,-0.594c-0.164,-0.56 -0.45,-1.032 -0.856,-1.428c-0.297,-0.285 -0.649,-0.494 -1.044,-0.615c-0.385,-0.121 -0.912,-0.176 -1.604,-0.176Z" style="fill-rule:nonzero;"/><path d="M224.249,41.147c-0.758,0 -1.418,-0.275 -1.989,-0.824c-0.604,-0.582 -0.912,-1.329 -0.912,-2.252c0,-0.868 0.264,-1.604 0.802,-2.186c0.55,-0.594 1.231,-0.89 2.033,-0.89c0.802,-0 1.472,0.296 2.021,0.89c0.538,0.582 0.813,1.307 0.813,2.175c-0,0.912 -0.297,1.659 -0.879,2.252c-0.538,0.56 -1.175,0.835 -1.889,0.835Zm-0.077,-0.725c0.527,-0 0.999,-0.22 1.406,-0.659c0.395,-0.451 0.593,-1.011 0.593,-1.703c0,-0.714 -0.209,-1.285 -0.637,-1.736c-0.385,-0.406 -0.835,-0.615 -1.351,-0.615c-0.528,0 -0.978,0.209 -1.352,0.637c-0.406,0.472 -0.615,1.044 -0.615,1.725c0,0.692 0.198,1.263 0.604,1.725c0.374,0.417 0.824,0.626 1.352,0.626Z" style="fill-rule:nonzero;"/><path d="M233.07,37.829l-4.471,0c-0,0.846 0.197,1.483 0.593,1.934c0.384,0.439 0.901,0.659 1.538,0.659c0.483,-0 0.945,-0.154 1.395,-0.462c0.121,-0.076 0.253,-0.175 0.396,-0.296c0.143,-0.121 0.285,-0.264 0.45,-0.429l-0,0.956c-0.176,0.132 -0.34,0.253 -0.483,0.352c-0.154,0.099 -0.297,0.175 -0.429,0.241c-0.461,0.242 -0.923,0.363 -1.384,0.363c-0.802,0 -1.472,-0.275 -2.032,-0.824c-0.605,-0.582 -0.901,-1.329 -0.901,-2.252c0,-0.868 0.274,-1.604 0.813,-2.186c0.549,-0.594 1.23,-0.89 2.032,-0.89c0.78,-0 1.406,0.285 1.868,0.857c0.406,0.516 0.615,1.175 0.615,1.977Zm-4.361,-0.67l3.438,-0c-0.088,-0.494 -0.274,-0.868 -0.56,-1.11c-0.297,-0.252 -0.648,-0.373 -1.055,-0.373c-0.45,-0 -0.835,0.143 -1.153,0.428c-0.297,0.264 -0.517,0.616 -0.67,1.055Z" style="fill-rule:nonzero;"/><rect x="233.936" y="32.391" width="0.791" height="8.613" style="fill-rule:nonzero;"/><rect x="235.714" y="37.642" width="3.592" height="0.802" style="fill-rule:nonzero;"/><path d="M245.832,37.203l0,2.768c0,0.121 0.033,0.231 0.088,0.33c0.055,0.088 0.154,0.132 0.297,0.132l0.109,0c0.033,-0.011 0.055,-0.011 0.088,-0.022c0.044,-0.011 0.088,-0.033 0.121,-0.044c0.033,-0.011 0.055,-0.022 0.077,-0.033l-0,0.615c-0.132,0.044 -0.264,0.077 -0.395,0.099c-0.132,0.011 -0.231,0.022 -0.308,0.022c-0.374,0 -0.615,-0.099 -0.736,-0.297c-0.099,-0.12 -0.143,-0.395 -0.143,-0.802c-0.099,0.165 -0.187,0.308 -0.286,0.429c-0.098,0.121 -0.186,0.22 -0.285,0.297c-0.385,0.296 -0.824,0.45 -1.329,0.45c-0.539,0 -1,-0.154 -1.396,-0.472c-0.406,-0.341 -0.615,-0.769 -0.615,-1.286c0,-0.648 0.33,-1.131 0.989,-1.439c0.242,-0.121 0.56,-0.22 0.967,-0.308c0.395,-0.087 0.867,-0.164 1.428,-0.241l0.527,-0.055c-0,-0.517 -0.132,-0.912 -0.384,-1.198c-0.264,-0.296 -0.649,-0.439 -1.154,-0.439c-0.187,0 -0.373,0.022 -0.56,0.077c-0.187,0.044 -0.385,0.121 -0.572,0.219c-0.098,0.055 -0.219,0.132 -0.34,0.209c-0.121,0.077 -0.264,0.187 -0.407,0.308l0,-0.901c0.627,-0.417 1.297,-0.626 2.011,-0.626c0.736,-0 1.296,0.23 1.692,0.692c0.34,0.406 0.516,0.912 0.516,1.516Zm-0.802,1.153l-0,-0.351l-0.373,0.044c-0.912,0.099 -1.56,0.22 -1.934,0.384c-0.494,0.198 -0.747,0.517 -0.747,0.967c-0,0.132 0.033,0.264 0.088,0.385c0.055,0.121 0.143,0.219 0.242,0.318c0.098,0.099 0.23,0.176 0.384,0.231c0.143,0.055 0.308,0.088 0.494,0.088c0.495,-0 0.934,-0.198 1.308,-0.604c0.362,-0.407 0.538,-0.901 0.538,-1.462Z" style="fill-rule:nonzero;"/><path d="M247.468,32.391l0.802,-0l0,5.328l2.703,-2.592l1.12,0l-2.472,2.285l2.824,3.592l-1.088,-0l-2.329,-3.065l-0.758,0.703l0,2.362l-0.802,-0l0,-8.613Z" style="fill-rule:nonzero;"/><path d="M253.113,32.391l0.802,-0l-0,5.328l2.703,-2.592l1.12,0l-2.471,2.285l2.823,3.592l-1.088,-0l-2.329,-3.065l-0.758,0.703l-0,2.362l-0.802,-0l0,-8.613Z" style="fill-rule:nonzero;"/><path d="M261.505,41.147c-0.758,0 -1.417,-0.275 -1.988,-0.824c-0.605,-0.582 -0.912,-1.329 -0.912,-2.252c0,-0.868 0.264,-1.604 0.802,-2.186c0.549,-0.594 1.23,-0.89 2.032,-0.89c0.802,-0 1.472,0.296 2.022,0.89c0.538,0.582 0.813,1.307 0.813,2.175c-0,0.912 -0.297,1.659 -0.879,2.252c-0.539,0.56 -1.176,0.835 -1.89,0.835Zm-0.077,-0.725c0.528,-0 1,-0.22 1.406,-0.659c0.396,-0.451 0.594,-1.011 0.594,-1.703c0,-0.714 -0.209,-1.285 -0.637,-1.736c-0.385,-0.406 -0.835,-0.615 -1.352,-0.615c-0.527,0 -0.977,0.209 -1.351,0.637c-0.406,0.472 -0.615,1.044 -0.615,1.725c-0,0.692 0.198,1.263 0.604,1.725c0.374,0.417 0.824,0.626 1.351,0.626Z" style="fill-rule:nonzero;"/><path d="M267.91,41.147c-0.758,0 -1.418,-0.275 -1.989,-0.824c-0.604,-0.582 -0.912,-1.329 -0.912,-2.252c0,-0.868 0.264,-1.604 0.802,-2.186c0.55,-0.594 1.231,-0.89 2.033,-0.89c0.802,-0 1.472,0.296 2.021,0.89c0.538,0.582 0.813,1.307 0.813,2.175c0,0.912 -0.297,1.659 -0.879,2.252c-0.538,0.56 -1.175,0.835 -1.889,0.835Zm-0.077,-0.725c0.527,-0 0.999,-0.22 1.406,-0.659c0.395,-0.451 0.593,-1.011 0.593,-1.703c0,-0.714 -0.209,-1.285 -0.637,-1.736c-0.385,-0.406 -0.835,-0.615 -1.351,-0.615c-0.528,0 -0.978,0.209 -1.352,0.637c-0.406,0.472 -0.615,1.044 -0.615,1.725c0,0.692 0.198,1.263 0.604,1.725c0.374,0.417 0.824,0.626 1.352,0.626Z" style="fill-rule:nonzero;"/><path d="M274.721,35.127l0,0.791c-0.077,-0.033 -0.143,-0.055 -0.198,-0.066c-0.055,-0.022 -0.099,-0.033 -0.132,-0.044c-0.033,-0.011 -0.077,-0.011 -0.11,-0.011c-0.044,-0.011 -0.099,-0.011 -0.165,-0.011c-0.538,0 -0.977,0.263 -1.318,0.78c-0.297,0.472 -0.439,1.01 -0.439,1.593l0,2.845l-0.791,-0l-0,-5.877l0.725,0l0.055,1.01c0.186,-0.307 0.351,-0.527 0.516,-0.659c0.329,-0.274 0.725,-0.406 1.186,-0.406c0.121,-0 0.242,-0 0.352,0.011c0.099,0.011 0.209,0.022 0.319,0.044Z" style="fill-rule:nonzero;"/><path d="M279.542,32.391l0.846,-0l0,8.613l-0.758,-0l-0.077,-0.956c-0.099,0.143 -0.209,0.275 -0.307,0.396c-0.099,0.11 -0.209,0.209 -0.308,0.285c-0.363,0.275 -0.791,0.418 -1.274,0.418c-0.758,0 -1.385,-0.297 -1.879,-0.879c-0.494,-0.582 -0.736,-1.296 -0.736,-2.131c0,-0.868 0.264,-1.604 0.78,-2.208c0.527,-0.627 1.186,-0.934 1.977,-0.934c0.33,-0 0.638,0.055 0.923,0.176c0.099,0.044 0.22,0.098 0.363,0.175c0.132,0.077 0.285,0.165 0.45,0.264l-0,-3.219Zm-0,5.768l-0,-1.692c-0.34,-0.297 -0.648,-0.505 -0.901,-0.604c-0.252,-0.099 -0.505,-0.154 -0.747,-0.154c-0.604,0 -1.087,0.253 -1.461,0.758c-0.351,0.472 -0.527,1.033 -0.527,1.659c0,0.67 0.198,1.23 0.582,1.681c0.363,0.406 0.78,0.615 1.274,0.615c0.484,-0 0.901,-0.209 1.253,-0.637c0.351,-0.429 0.527,-0.967 0.527,-1.626Z" style="fill-rule:nonzero;"/><path d="M286.527,37.829l-4.471,0c-0,0.846 0.198,1.483 0.593,1.934c0.385,0.439 0.901,0.659 1.538,0.659c0.484,-0 0.945,-0.154 1.396,-0.462c0.12,-0.076 0.252,-0.175 0.395,-0.296c0.143,-0.121 0.286,-0.264 0.451,-0.429l-0,0.956c-0.176,0.132 -0.341,0.253 -0.484,0.352c-0.154,0.099 -0.296,0.175 -0.428,0.241c-0.462,0.242 -0.923,0.363 -1.384,0.363c-0.802,0 -1.473,-0.275 -2.033,-0.824c-0.604,-0.582 -0.901,-1.329 -0.901,-2.252c0,-0.868 0.275,-1.604 0.813,-2.186c0.55,-0.594 1.231,-0.89 2.033,-0.89c0.78,-0 1.406,0.285 1.867,0.857c0.407,0.516 0.615,1.175 0.615,1.977Zm-4.361,-0.67l3.439,-0c-0.088,-0.494 -0.275,-0.868 -0.561,-1.11c-0.296,-0.252 -0.648,-0.373 -1.054,-0.373c-0.451,-0 -0.835,0.143 -1.154,0.428c-0.296,0.264 -0.516,0.616 -0.67,1.055Z" style="fill-rule:nonzero;"/><path d="M292.502,37.071l0,3.933l-0.791,-0l-0,-3.878c-0,-0.406 -0.154,-0.747 -0.45,-1.011c-0.297,-0.274 -0.659,-0.406 -1.077,-0.406c-0.56,0 -1.032,0.231 -1.439,0.692c-0.406,0.472 -0.604,1 -0.604,1.582l-0,3.021l-0.747,-0l0,-5.877l0.692,0l0.033,1.098c0.198,-0.296 0.428,-0.549 0.692,-0.747c0.428,-0.318 0.923,-0.483 1.461,-0.483c0.626,-0 1.154,0.187 1.582,0.571c0.429,0.374 0.648,0.879 0.648,1.505Z" style="fill-rule:nonzero;"/><path d="M300.379,31.974l0.725,-0c-0.352,0.56 -0.626,1.01 -0.824,1.351c-0.198,0.34 -0.319,0.56 -0.363,0.67c-0.406,0.912 -0.604,1.956 -0.604,3.109c-0,0.78 0.088,1.505 0.253,2.153c0.143,0.517 0.362,1.033 0.659,1.571c0.011,0.033 0.099,0.176 0.242,0.407c0.142,0.231 0.34,0.56 0.604,1l-0.692,-0c-0.143,-0.209 -0.286,-0.418 -0.418,-0.616c-0.143,-0.208 -0.285,-0.406 -0.428,-0.615c-0.176,-0.275 -0.33,-0.549 -0.451,-0.824c-0.131,-0.274 -0.241,-0.549 -0.34,-0.813c-0.231,-0.725 -0.352,-1.483 -0.352,-2.263c0,-0.791 0.11,-1.527 0.33,-2.208c0.088,-0.264 0.198,-0.527 0.329,-0.791c0.121,-0.275 0.275,-0.549 0.451,-0.824c0.143,-0.22 0.296,-0.439 0.439,-0.648c0.143,-0.22 0.297,-0.44 0.44,-0.659Z" style="fill-rule:nonzero;"/><path d="M303.235,33.391l0.725,-0l-0,1.725l1.549,-0l0,0.714l-1.549,-0l-0,3.735c-0,0.308 0.055,0.527 0.176,0.659c0.11,0.132 0.308,0.198 0.582,0.198c0.165,-0 0.297,-0.022 0.418,-0.055c0.109,-0.033 0.23,-0.088 0.373,-0.143l0,0.714c-0.121,0.033 -0.253,0.077 -0.417,0.11c-0.165,0.033 -0.341,0.044 -0.506,0.044c-0.439,0 -0.78,-0.099 -1.021,-0.297c-0.275,-0.208 -0.407,-0.538 -0.407,-0.988l-0,-3.977l-0.989,-0l0,-0.714l0.989,-0l0.077,-1.725Z" style="fill-rule:nonzero;"/><path d="M310.87,37.203l-0,2.768c-0,0.121 0.033,0.231 0.088,0.33c0.055,0.088 0.154,0.132 0.297,0.132l0.11,0c0.033,-0.011 0.054,-0.011 0.087,-0.022c0.044,-0.011 0.088,-0.033 0.121,-0.044c0.033,-0.011 0.055,-0.022 0.077,-0.033l-0,0.615c-0.132,0.044 -0.263,0.077 -0.395,0.099c-0.132,0.011 -0.231,0.022 -0.308,0.022c-0.373,0 -0.615,-0.099 -0.736,-0.297c-0.099,-0.12 -0.143,-0.395 -0.143,-0.802c-0.099,0.165 -0.187,0.308 -0.285,0.429c-0.099,0.121 -0.187,0.22 -0.286,0.297c-0.385,0.296 -0.824,0.45 -1.329,0.45c-0.539,0 -1,-0.154 -1.396,-0.472c-0.406,-0.341 -0.615,-0.769 -0.615,-1.286c0,-0.648 0.33,-1.131 0.989,-1.439c0.242,-0.121 0.56,-0.22 0.967,-0.308c0.395,-0.087 0.868,-0.164 1.428,-0.241l0.527,-0.055c-0,-0.517 -0.132,-0.912 -0.384,-1.198c-0.264,-0.296 -0.648,-0.439 -1.154,-0.439c-0.187,0 -0.373,0.022 -0.56,0.077c-0.187,0.044 -0.385,0.121 -0.571,0.219c-0.099,0.055 -0.22,0.132 -0.341,0.209c-0.121,0.077 -0.264,0.187 -0.406,0.308l0,-0.901c0.626,-0.417 1.296,-0.626 2.01,-0.626c0.736,-0 1.296,0.23 1.692,0.692c0.34,0.406 0.516,0.912 0.516,1.516Zm-0.802,1.153l-0,-0.351l-0.373,0.044c-0.912,0.099 -1.56,0.22 -1.934,0.384c-0.494,0.198 -0.747,0.517 -0.747,0.967c0,0.132 0.033,0.264 0.088,0.385c0.055,0.121 0.143,0.219 0.242,0.318c0.099,0.099 0.23,0.176 0.384,0.231c0.143,0.055 0.308,0.088 0.495,0.088c0.494,-0 0.933,-0.198 1.307,-0.604c0.362,-0.407 0.538,-0.901 0.538,-1.462Z" style="fill-rule:nonzero;"/><path d="M315.659,35.127l-0,0.791c-0.077,-0.033 -0.143,-0.055 -0.198,-0.066c-0.054,-0.022 -0.098,-0.033 -0.131,-0.044c-0.033,-0.011 -0.077,-0.011 -0.11,-0.011c-0.044,-0.011 -0.099,-0.011 -0.165,-0.011c-0.538,0 -0.978,0.263 -1.318,0.78c-0.297,0.472 -0.44,1.01 -0.44,1.593l-0,2.845l-0.791,-0l0,-5.877l0.725,0l0.055,1.01c0.187,-0.307 0.352,-0.527 0.517,-0.659c0.329,-0.274 0.725,-0.406 1.186,-0.406c0.121,-0 0.242,-0 0.352,0.011c0.098,0.011 0.208,0.022 0.318,0.044Z" style="fill-rule:nonzero;"/><path d="M320.723,35.786l0.219,-0.659l0.583,0l-0,5.317c-0,0.912 -0.22,1.615 -0.671,2.087c-0.45,0.473 -1.142,0.714 -2.076,0.714c-0.384,-0 -0.736,-0.066 -1.077,-0.198c-0.34,-0.142 -0.703,-0.351 -1.076,-0.637l0,-0.966c0.23,0.219 0.461,0.406 0.692,0.56c0.231,0.143 0.45,0.263 0.67,0.34c0.253,0.099 0.516,0.143 0.791,0.143c0.582,-0 1.033,-0.132 1.351,-0.395c0.396,-0.319 0.594,-0.835 0.594,-1.549l-0,-0.725c-0.275,0.461 -0.627,0.791 -1.033,0.977c-0.275,0.132 -0.582,0.198 -0.923,0.198c-0.725,0 -1.329,-0.286 -1.824,-0.868c-0.483,-0.593 -0.725,-1.274 -0.725,-2.054c-0,-0.78 0.231,-1.461 0.681,-2.055c0.528,-0.681 1.198,-1.021 2.022,-1.021c0.406,-0 0.802,0.099 1.164,0.296c0.11,0.066 0.22,0.143 0.33,0.22c0.099,0.077 0.209,0.176 0.308,0.275Zm-0,2.373l-0,-1.615c-0.121,-0.143 -0.253,-0.253 -0.374,-0.352c-0.132,-0.099 -0.264,-0.176 -0.384,-0.252c-0.143,-0.077 -0.297,-0.143 -0.451,-0.176c-0.154,-0.033 -0.308,-0.055 -0.472,-0.055c-0.55,0 -1,0.198 -1.363,0.582c-0.406,0.44 -0.604,1.022 -0.604,1.736c0,0.648 0.165,1.186 0.506,1.615c0.329,0.417 0.758,0.626 1.285,0.626c0.516,0 0.956,-0.198 1.318,-0.604c0.363,-0.385 0.539,-0.89 0.539,-1.505Z" style="fill-rule:nonzero;"/><path d="M327.708,37.829l-4.471,0c-0,0.846 0.197,1.483 0.593,1.934c0.384,0.439 0.901,0.659 1.538,0.659c0.483,-0 0.945,-0.154 1.395,-0.462c0.121,-0.076 0.253,-0.175 0.396,-0.296c0.142,-0.121 0.285,-0.264 0.45,-0.429l0,0.956c-0.176,0.132 -0.341,0.253 -0.483,0.352c-0.154,0.099 -0.297,0.175 -0.429,0.241c-0.461,0.242 -0.923,0.363 -1.384,0.363c-0.802,0 -1.472,-0.275 -2.032,-0.824c-0.605,-0.582 -0.901,-1.329 -0.901,-2.252c0,-0.868 0.274,-1.604 0.813,-2.186c0.549,-0.594 1.23,-0.89 2.032,-0.89c0.78,-0 1.406,0.285 1.868,0.857c0.406,0.516 0.615,1.175 0.615,1.977Zm-4.362,-0.67l3.439,-0c-0.088,-0.494 -0.275,-0.868 -0.56,-1.11c-0.297,-0.252 -0.648,-0.373 -1.055,-0.373c-0.45,-0 -0.835,0.143 -1.153,0.428c-0.297,0.264 -0.517,0.616 -0.671,1.055Z" style="fill-rule:nonzero;"/><path d="M329.266,33.391l0.725,-0l-0,1.725l1.549,-0l0,0.714l-1.549,-0l-0,3.735c-0,0.308 0.055,0.527 0.176,0.659c0.11,0.132 0.308,0.198 0.582,0.198c0.165,-0 0.297,-0.022 0.418,-0.055c0.11,-0.033 0.231,-0.088 0.373,-0.143l0,0.714c-0.12,0.033 -0.252,0.077 -0.417,0.11c-0.165,0.033 -0.341,0.044 -0.505,0.044c-0.44,0 -0.78,-0.099 -1.022,-0.297c-0.275,-0.208 -0.407,-0.538 -0.407,-0.988l-0,-3.977l-0.988,-0l-0,-0.714l0.988,-0l0.077,-1.725Z" style="fill-rule:nonzero;"/><path d="M332.221,40.499l0,-0.956c0.451,0.363 0.912,0.626 1.385,0.769c0.142,0.033 0.274,0.066 0.406,0.088c0.132,0.011 0.264,0.022 0.407,0.022c0.45,-0 0.813,-0.099 1.109,-0.308c0.297,-0.219 0.451,-0.461 0.451,-0.736c0,-0.143 -0.055,-0.296 -0.165,-0.45c-0.154,-0.187 -0.56,-0.363 -1.231,-0.517c-0.791,-0.197 -1.318,-0.362 -1.582,-0.494c-0.516,-0.297 -0.769,-0.703 -0.769,-1.23c-0,-0.495 0.209,-0.89 0.638,-1.209c0.428,-0.318 0.966,-0.483 1.615,-0.483c0.296,-0 0.56,0.022 0.79,0.077c0.231,0.055 0.451,0.121 0.66,0.208c0.208,0.077 0.395,0.187 0.571,0.308l0,0.956c-0.308,-0.253 -0.626,-0.462 -0.967,-0.604c-0.34,-0.154 -0.692,-0.231 -1.065,-0.231c-0.374,0 -0.693,0.088 -0.967,0.253c-0.275,0.164 -0.418,0.384 -0.418,0.659c-0,0.362 0.33,0.648 0.989,0.857c0.308,0.088 0.615,0.175 0.912,0.263c0.296,0.088 0.604,0.176 0.912,0.264c0.67,0.286 0.999,0.714 0.999,1.296c0,0.495 -0.23,0.923 -0.692,1.297c-0.472,0.362 -1.054,0.549 -1.746,0.549c-0.308,0 -0.605,-0.033 -0.901,-0.099c-0.473,-0.099 -0.912,-0.286 -1.341,-0.549Z" style="fill-rule:nonzero;"/><path d="M341.096,37.104c0,0.78 -0.121,1.538 -0.351,2.252c-0.176,0.528 -0.44,1.077 -0.791,1.637c-0.143,0.209 -0.286,0.418 -0.429,0.626c-0.143,0.198 -0.275,0.407 -0.417,0.616l-0.693,-0c0.143,-0.231 0.275,-0.462 0.418,-0.693c0.143,-0.23 0.286,-0.472 0.428,-0.703c0.143,-0.274 0.275,-0.538 0.385,-0.791c0.11,-0.252 0.198,-0.516 0.264,-0.769c0.175,-0.637 0.263,-1.362 0.263,-2.175c0,-0.428 -0.022,-0.835 -0.066,-1.197c-0.055,-0.374 -0.121,-0.725 -0.219,-1.055c-0.066,-0.253 -0.154,-0.505 -0.275,-0.758c-0.121,-0.264 -0.253,-0.538 -0.407,-0.813c-0.142,-0.22 -0.285,-0.439 -0.417,-0.648c-0.143,-0.22 -0.275,-0.44 -0.406,-0.659l0.725,-0c0.142,0.219 0.296,0.439 0.439,0.659c0.143,0.209 0.286,0.428 0.428,0.637c0.176,0.286 0.33,0.56 0.462,0.835c0.132,0.264 0.242,0.527 0.318,0.78c0.231,0.67 0.341,1.417 0.341,2.219Z" style="fill-rule:nonzero;"/><path d="M179.715,10.693l-0,8.063c-0,0.33 -0.066,0.55 -0.176,0.638c-0.132,0.087 -0.329,0.131 -0.593,0.131l-1.714,-0c-0.263,-0 -0.439,-0.022 -0.527,-0.087c-0.154,-0.11 -0.242,-0.352 -0.242,-0.682l-0,-13.842c-0,-0.264 0.022,-0.439 0.088,-0.527c0.11,-0.154 0.352,-0.242 0.681,-0.242l1.956,-0c0.219,-0 0.417,0.066 0.571,0.22c0.088,0.066 0.154,0.176 0.22,0.307l2.373,4.746c0.022,0.066 0.066,0.154 0.131,0.242c0.044,0.088 0.088,0.132 0.132,0.132c0.066,-0 0.11,-0.044 0.176,-0.154c0.044,-0.11 0.066,-0.176 0.066,-0.198l2.373,-4.702c0.11,-0.219 0.242,-0.373 0.374,-0.461c0.131,-0.088 0.285,-0.132 0.461,-0.132l1.846,-0c0.329,-0 0.549,0.066 0.637,0.198c0.088,0.11 0.132,0.307 0.132,0.571l-0,13.842c-0,0.33 -0.066,0.55 -0.176,0.638c-0.132,0.087 -0.33,0.131 -0.593,0.131l-1.714,-0c-0.33,-0 -0.55,-0.066 -0.637,-0.175c-0.088,-0.132 -0.132,-0.33 -0.132,-0.594l-0,-7.822c-0.022,-0.088 -0.066,-0.131 -0.088,-0.131l-0.066,0.043l-1.714,4.131c-0.088,0.242 -0.176,0.396 -0.264,0.462c-0.087,0.066 -0.197,0.109 -0.329,0.109l-0.747,0c-0.242,0 -0.44,-0.197 -0.593,-0.571l-1.758,-4.306c-0.066,0.022 -0.11,0.022 -0.154,0.022Z" style="fill-rule:nonzero;"/><path d="M198.235,10.605l0,8.151c0,0.242 -0.022,0.396 -0.066,0.484c-0.11,0.198 -0.308,0.285 -0.593,0.285l-1.846,-0c-0.285,-0 -0.417,-0.109 -0.417,-0.351c0,-0.11 -0.066,-0.154 -0.176,-0.154c-0.11,0.044 -0.176,0.088 -0.198,0.11c-0.198,0.176 -0.461,0.308 -0.791,0.417c-0.351,0.11 -0.681,0.154 -1.01,0.154c-0.857,-0 -1.539,-0.307 -2.088,-0.923c-0.593,-0.681 -0.901,-1.67 -0.901,-2.922c0,-1.494 0.484,-2.659 1.45,-3.493c0.572,-0.484 1.539,-0.967 2.879,-1.473l0.549,-0.197c0.154,-0.066 0.22,-0.176 0.22,-0.352c-0,-0.307 -0.132,-0.527 -0.396,-0.637c-0.285,-0.11 -0.615,-0.176 -1.01,-0.176c-0.418,0 -0.725,0.022 -0.945,0.066c-0.242,0.066 -0.462,0.132 -0.637,0.176c-0.198,0.044 -0.33,0.088 -0.44,0.132c-0.285,0.11 -0.461,0.153 -0.527,0.153c-0.286,-0 -0.418,-0.131 -0.418,-0.395l-0,-1.362c-0,-0.286 0.154,-0.506 0.484,-0.703c0.549,-0.308 1.45,-0.462 2.746,-0.462c1.67,-0 2.835,0.374 3.472,1.143c0.439,0.527 0.659,1.296 0.659,2.329Zm-2.988,5.625l-0,-2.813c-0,-0.066 -0.022,-0.132 -0.088,-0.154c-0.066,-0.022 -0.132,-0.022 -0.22,0.044l-0.373,0.242c-0.44,0.286 -0.747,0.549 -0.923,0.791c-0.242,0.352 -0.374,0.791 -0.374,1.34c-0,0.374 0.088,0.703 0.242,0.967c0.154,0.242 0.396,0.374 0.725,0.374c0.286,-0 0.527,-0.088 0.725,-0.242c0.198,-0.154 0.286,-0.352 0.286,-0.549Z" style="fill-rule:nonzero;"/><path d="M202.87,11.791l-0,3.252c-0,0.505 0.066,0.901 0.22,1.165c0.264,0.461 0.747,0.703 1.45,0.703l0.989,-0.11c0.11,-0.022 0.242,-0.044 0.396,-0.066c0.153,-0.044 0.285,-0.066 0.373,-0.066c0.154,0 0.264,0.044 0.33,0.132c0.044,0.088 0.066,0.198 0.066,0.307l0,1.758c0,0.264 -0.088,0.44 -0.286,0.55c-0.33,0.197 -1.033,0.285 -2.087,0.285c-1.956,-0 -3.252,-0.549 -3.911,-1.67c-0.352,-0.593 -0.528,-1.538 -0.528,-2.812l0,-3.779c0,-1.297 0.242,-2.263 0.703,-2.901c0.681,-0.944 1.934,-1.406 3.736,-1.406c1.054,-0 1.757,0.088 2.087,0.286c0.198,0.11 0.286,0.285 0.286,0.549l0,1.758c0,0.286 -0.132,0.439 -0.396,0.439c-0.242,0 -0.549,-0.044 -0.879,-0.11c-0.351,-0.087 -0.637,-0.131 -0.879,-0.131c-0.681,0 -1.142,0.197 -1.406,0.615c-0.176,0.286 -0.264,0.703 -0.264,1.252Z" style="fill-rule:nonzero;"/><path d="M214.362,7.309l2.395,-0c0.263,-0 0.395,0.11 0.395,0.308c-0,0.066 -0.044,0.153 -0.11,0.263l-2.812,3.45c-0.11,0.154 -0.132,0.285 -0.066,0.417l3.01,6.943c0.088,0.198 0.132,0.374 0.132,0.484c-0,0.242 -0.132,0.351 -0.396,0.351l-2.175,-0c-0.198,-0 -0.373,-0.109 -0.527,-0.307c-0.066,-0.088 -0.154,-0.286 -0.308,-0.615l-1.779,-4.351c-0.044,-0.088 -0.088,-0.132 -0.154,-0.132c-0.044,-0 -0.088,0.022 -0.132,0.088l-0.461,0.593c-0.11,0.11 -0.154,0.264 -0.154,0.44l0,3.669c0,0.264 -0.044,0.44 -0.154,0.506c-0.11,0.065 -0.264,0.109 -0.461,0.109l-1.758,-0c-0.264,-0 -0.44,-0.044 -0.506,-0.153c-0.065,-0.11 -0.109,-0.264 -0.109,-0.462l-0,-14.15c-0,-0.263 0.065,-0.439 0.175,-0.505c0.11,-0.066 0.242,-0.11 0.44,-0.11l1.758,-0c0.263,-0 0.439,0.066 0.505,0.176c0.066,0.11 0.11,0.242 0.11,0.439l0,5.713c0,0.11 0.044,0.154 0.11,0.154c0.022,0 0.087,-0.044 0.153,-0.11l2.22,-2.878c0.109,-0.132 0.175,-0.198 0.197,-0.22c0.11,-0.066 0.264,-0.11 0.462,-0.11Z" style="fill-rule:nonzero;"/><path d="M224.708,4.145l9.733,-0c0.176,-0 0.308,0.066 0.374,0.176c0.066,0.11 0.088,0.22 0.088,0.351l-0,1.956c-0,0.307 -0.154,0.461 -0.462,0.461l-2.856,-0c-0.264,-0 -0.396,0.132 -0.396,0.396l-0,11.271c-0,0.264 -0.022,0.44 -0.087,0.528c-0.11,0.154 -0.352,0.241 -0.682,0.241l-1.713,-0c-0.33,-0 -0.55,-0.066 -0.638,-0.175c-0.087,-0.132 -0.131,-0.33 -0.131,-0.594l0,-11.271c0,-0.264 -0.132,-0.396 -0.396,-0.396l-2.768,-0c-0.374,-0 -0.55,-0.154 -0.55,-0.439l-0,-2.087c-0,-0.286 0.154,-0.418 0.484,-0.418Z" style="fill-rule:nonzero;"/><path d="M235.89,18.91l-0,-14.15c-0,-0.263 0.066,-0.439 0.176,-0.505c0.11,-0.066 0.241,-0.11 0.439,-0.11l1.758,-0c0.264,-0 0.439,0.066 0.505,0.176c0.066,0.11 0.11,0.242 0.11,0.439l0,3.032c0,0.066 0.066,0.132 0.198,0.154c0.154,0 0.417,-0.132 0.747,-0.395c0.329,-0.286 0.769,-0.418 1.34,-0.418c0.769,-0 1.406,0.242 1.912,0.703c0.593,0.572 0.901,1.429 0.901,2.571l-0,8.503c-0,0.264 -0.044,0.44 -0.154,0.506c-0.11,0.065 -0.264,0.109 -0.462,0.109l-1.757,-0c-0.264,-0 -0.44,-0.044 -0.506,-0.153c-0.066,-0.11 -0.11,-0.264 -0.11,-0.462l-0,-7.866c-0,-0.285 -0.088,-0.527 -0.263,-0.725c-0.198,-0.198 -0.44,-0.307 -0.769,-0.307c-0.462,-0 -0.791,0.197 -0.945,0.615c-0.088,0.241 -0.132,0.571 -0.132,1.01l0,7.273c0,0.264 -0.044,0.44 -0.154,0.506c-0.11,0.065 -0.263,0.109 -0.461,0.109l-1.758,-0c-0.264,-0 -0.439,-0.044 -0.505,-0.153c-0.066,-0.11 -0.11,-0.264 -0.11,-0.462Z" style="fill-rule:nonzero;"/><path d="M253.4,14.23l-4.416,0c-0.11,0 -0.176,0.022 -0.198,0.088c-0.044,0.044 -0.066,0.11 -0.066,0.176l0,0.703c0,0.593 0.198,1.033 0.572,1.362c0.373,0.308 0.901,0.462 1.582,0.462c0.461,-0 0.901,-0.022 1.274,-0.088c0.374,-0.066 0.791,-0.176 1.209,-0.33c0.373,-0.11 0.549,-0 0.549,0.352l0,1.801c0,0.11 -0.022,0.22 -0.066,0.286c-0.066,0.066 -0.176,0.132 -0.352,0.198c-0.483,0.176 -0.966,0.307 -1.472,0.373c-0.505,0.066 -0.945,0.088 -1.34,0.088c-1.274,-0 -2.307,-0.242 -3.098,-0.703c-1.231,-0.725 -1.846,-1.977 -1.846,-3.735l-0,-3.713c-0,-1.165 0.22,-2.11 0.681,-2.813c0.682,-1.076 1.846,-1.604 3.494,-1.604c0.989,-0 1.824,0.198 2.461,0.615c1.098,0.704 1.648,1.978 1.648,3.802l0,2.065c0,0.264 -0.044,0.439 -0.154,0.505c-0.11,0.066 -0.264,0.11 -0.462,0.11Zm-4.46,-2.417l1.868,-0c0.088,-0 0.154,-0.066 0.22,-0.219l-0,-0.484c-0,-0.417 -0.044,-0.747 -0.154,-0.967c-0.198,-0.395 -0.506,-0.593 -0.967,-0.593c-0.374,-0 -0.681,0.132 -0.879,0.396c-0.198,0.241 -0.308,0.637 -0.308,1.164l0,0.484c0,0.153 0.066,0.219 0.22,0.219Z" style="fill-rule:nonzero;"/><path d="M262.472,18.756l-0,-13.842c-0,-0.264 0.022,-0.439 0.088,-0.527c0.11,-0.154 0.351,-0.242 0.681,-0.242l1.714,-0c0.329,-0 0.549,0.066 0.637,0.198c0.088,0.11 0.132,0.307 0.132,0.571l-0,4.175l3.098,-4.439c0.242,-0.329 0.527,-0.505 0.901,-0.505l2.439,-0c0.285,-0 0.417,0.132 0.417,0.396c0,0.109 -0.022,0.175 -0.044,0.241c-0.022,0.066 -0.088,0.132 -0.154,0.22l-3.471,4.724l4.196,8.613c0.154,0.286 0.22,0.505 0.22,0.703c-0,0.33 -0.176,0.483 -0.527,0.483l-2.263,-0c-0.198,-0 -0.374,-0.066 -0.506,-0.197c-0.131,-0.154 -0.241,-0.33 -0.351,-0.572l-2.988,-6.108l-0.967,1.318l-0,4.79c-0,0.33 -0.066,0.55 -0.176,0.638c-0.132,0.087 -0.329,0.131 -0.593,0.131l-1.714,-0c-0.33,-0 -0.549,-0.066 -0.637,-0.175c-0.088,-0.132 -0.132,-0.33 -0.132,-0.594Z" style="fill-rule:nonzero;"/><path d="M274.423,18.91l0,-10.986c0,-0.263 0.066,-0.439 0.176,-0.505c0.11,-0.066 0.241,-0.11 0.439,-0.11l1.956,-0c0.11,-0 0.219,0.044 0.307,0.132c0.066,0.066 0.11,0.176 0.11,0.285c0,0.154 0.044,0.22 0.154,0.22c0.022,0 0.088,-0.044 0.198,-0.11c0.219,-0.197 0.439,-0.329 0.659,-0.439c0.373,-0.176 0.813,-0.264 1.274,-0.264c0.769,-0 1.406,0.242 1.912,0.703c0.593,0.572 0.901,1.429 0.901,2.571l0,8.503c0,0.264 -0.044,0.44 -0.154,0.506c-0.11,0.065 -0.264,0.109 -0.462,0.109l-1.757,-0c-0.264,-0 -0.44,-0.044 -0.506,-0.153c-0.066,-0.11 -0.11,-0.264 -0.11,-0.462l-0,-7.866c-0,-0.285 -0.087,-0.527 -0.263,-0.725c-0.198,-0.198 -0.44,-0.307 -0.769,-0.307c-0.462,-0 -0.791,0.197 -0.945,0.615c-0.088,0.241 -0.132,0.571 -0.132,1.01l0,7.273c0,0.264 -0.044,0.44 -0.154,0.506c-0.11,0.065 -0.263,0.109 -0.461,0.109l-1.758,-0c-0.263,-0 -0.439,-0.044 -0.505,-0.153c-0.066,-0.11 -0.11,-0.264 -0.11,-0.462Z" style="fill-rule:nonzero;"/><path d="M287.254,4.431l-0,1.34c-0,0.198 -0.044,0.352 -0.11,0.461c-0.066,0.11 -0.242,0.154 -0.506,0.154l-1.757,-0c-0.264,-0 -0.44,-0.044 -0.506,-0.154c-0.066,-0.109 -0.11,-0.263 -0.11,-0.461l0,-1.34c0,-0.198 0.044,-0.33 0.11,-0.44c0.066,-0.11 0.242,-0.176 0.506,-0.176l1.757,0c0.198,0 0.352,0.044 0.462,0.11c0.11,0.066 0.154,0.242 0.154,0.506Zm-0,3.493l-0,10.986c-0,0.264 -0.044,0.44 -0.154,0.506c-0.11,0.065 -0.264,0.109 -0.462,0.109l-1.757,-0c-0.264,-0 -0.44,-0.044 -0.506,-0.153c-0.066,-0.11 -0.11,-0.264 -0.11,-0.462l0,-10.986c0,-0.263 0.066,-0.439 0.176,-0.505c0.11,-0.066 0.242,-0.11 0.44,-0.11l1.757,-0c0.198,-0 0.352,0.044 0.462,0.11c0.11,0.066 0.154,0.242 0.154,0.505Z" style="fill-rule:nonzero;"/><path d="M289.648,18.91l0,-8.92c0,-0.154 -0.087,-0.242 -0.241,-0.242l-0.374,-0c-0.263,-0 -0.439,-0.044 -0.505,-0.154c-0.066,-0.11 -0.11,-0.264 -0.11,-0.461l-0,-1.033c-0,-0.198 0.044,-0.33 0.11,-0.439c0.066,-0.11 0.242,-0.176 0.505,-0.176l0.528,-0l0.087,-0.088c0,-0.066 -0.043,-0.154 -0.109,-0.286c-0.066,-0.132 -0.132,-0.263 -0.176,-0.373c-0.044,-0.132 -0.066,-0.308 -0.066,-0.528c-0,-0.329 0.088,-0.659 0.286,-0.944c0.175,-0.308 0.417,-0.55 0.747,-0.703c0.307,-0.154 0.637,-0.264 1.01,-0.286c0.352,-0.044 0.659,-0.066 0.945,-0.066c0.769,-0 1.296,0.066 1.538,0.22c0.154,0.088 0.22,0.241 0.22,0.461l-0,1.362c-0,0.22 -0.088,0.33 -0.264,0.33l-0.351,-0.044l-0.418,-0.044c-0.242,0 -0.417,0.066 -0.505,0.198c-0.088,0.11 -0.132,0.22 -0.132,0.329c-0,0.308 0.176,0.462 0.549,0.462l0.506,-0c0.197,-0 0.351,0.044 0.461,0.11c0.11,0.066 0.154,0.241 0.154,0.505l-0,1.033c-0,0.263 -0.044,0.439 -0.154,0.505c-0.11,0.066 -0.264,0.11 -0.461,0.11l-0.55,-0c-0.153,-0 -0.241,0.088 -0.241,0.242l-0,8.92c-0,0.198 -0.044,0.352 -0.11,0.462c-0.066,0.109 -0.242,0.153 -0.506,0.153l-1.757,-0c-0.264,-0 -0.44,-0.044 -0.506,-0.153c-0.066,-0.11 -0.11,-0.264 -0.11,-0.462Z" style="fill-rule:nonzero;"/><path d="M302.808,14.23l-4.416,0c-0.11,0 -0.176,0.022 -0.198,0.088c-0.044,0.044 -0.066,0.11 -0.066,0.176l-0,0.703c-0,0.593 0.198,1.033 0.572,1.362c0.373,0.308 0.9,0.462 1.582,0.462c0.461,-0 0.9,-0.022 1.274,-0.088c0.373,-0.066 0.791,-0.176 1.208,-0.33c0.374,-0.11 0.55,-0 0.55,0.352l-0,1.801c-0,0.11 -0.022,0.22 -0.066,0.286c-0.066,0.066 -0.176,0.132 -0.352,0.198c-0.483,0.176 -0.967,0.307 -1.472,0.373c-0.505,0.066 -0.945,0.088 -1.34,0.088c-1.275,-0 -2.307,-0.242 -3.098,-0.703c-1.231,-0.725 -1.846,-1.977 -1.846,-3.735l0,-3.713c0,-1.165 0.22,-2.11 0.681,-2.813c0.681,-1.076 1.846,-1.604 3.494,-1.604c0.989,-0 1.823,0.198 2.461,0.615c1.098,0.704 1.648,1.978 1.648,3.802l0,2.065c0,0.264 -0.044,0.439 -0.154,0.505c-0.11,0.066 -0.264,0.11 -0.462,0.11Zm-4.46,-2.417l1.868,-0c0.088,-0 0.153,-0.066 0.219,-0.219l-0,-0.484c-0,-0.417 -0.044,-0.747 -0.153,-0.967c-0.198,-0.395 -0.506,-0.593 -0.967,-0.593c-0.374,-0 -0.681,0.132 -0.879,0.396c-0.198,0.241 -0.308,0.637 -0.308,1.164l-0,0.484c-0,0.153 0.066,0.219 0.22,0.219Z" style="fill-rule:nonzero;"/><path d="M10.331,190.137l470.075,-0" style="fill:none;stroke:#000;stroke-width:0.46px;"/><path d="M10.331,185.186l470.075,0" style="fill:none;stroke:#000;stroke-width:0.46px;"/><path d="M10.331,180.234l470.075,0" style="fill:none;stroke:#000;stroke-width:0.46px;"/><path d="M10.331,175.283l470.075,-0" style="fill:none;stroke:#000;stroke-width:0.46px;"/><path d="M10.331,170.331l470.075,-0" style="fill:none;stroke:#000;stroke-width:0.46px;"/><path d="M24.403,189.48l0.752,3.664c0.04,0.218 0.06,0.416 0.06,0.614c0,1.941 -1.981,3.565 -4.12,3.565c-0.654,-0 -1.287,-0.159 -1.881,-0.456c1.525,-0.158 2.673,-1.089 2.673,-2.456c-0,-1.208 -0.99,-2.475 -2.258,-2.475c-1.445,0 -2.436,1.109 -2.436,2.554c0,2.021 1.644,3.348 3.625,3.348c2.654,0 4.912,-1.723 4.912,-4.199c-0,-0.555 -0.872,-4.476 -0.852,-4.338c2.119,-1.029 3.565,-2.852 3.565,-4.773c0,-2.634 -2.119,-4.654 -4.753,-4.654c-0.04,-0 -0.317,0.02 -0.793,0.059l-0.871,-4.179c2.951,-2.495 4.298,-5.149 4.298,-8.061c-0,-2.238 -0.891,-4.614 -2.694,-7.11c-2.04,1.644 -3.208,4.932 -3.208,8.437c0,1.248 0.158,2.456 0.435,3.605c-4.515,3.783 -6.773,7.269 -6.773,10.457c-0,3.744 3.862,6.853 8.061,6.853c0.931,-0 1.624,-0.138 2.258,-0.455Zm-0.06,-26.025c0.654,0.673 0.99,1.466 0.99,2.396c0,1.922 -1.366,4.08 -4.04,6.457c-0.139,-0.574 -0.178,-1.208 -0.178,-1.901c-0,-3.328 1.228,-6.992 2.872,-6.992c0.138,0 0.257,0.02 0.356,0.04Zm0.416,25.213l-1.406,-6.615c0.277,-0.02 0.436,-0.04 0.495,-0.04c1.703,0 2.892,1.604 2.892,3.248c-0,1.307 -0.694,2.456 -1.981,3.407Zm-1.901,-6.536l1.426,6.813c-0.693,0.376 -1.466,0.535 -2.397,0.535c-3.208,0 -5.981,-2.397 -5.981,-5.308c0,-2.634 1.961,-5.348 5.664,-8.121l0.832,3.962c-2.06,0.435 -3.802,2.178 -3.802,4.139c0,1.664 1.188,2.832 2.97,3.109c-1.089,-0.673 -1.624,-1.525 -1.624,-2.535c-0,-1.366 1.268,-2.376 2.912,-2.594Z" style="fill-rule:nonzero;"/><path d="M333.087,149.507l0,-5.653l-2.152,0l-0,-0.759l5.151,0l-0,0.759l-2.152,0l-0,5.653l-0.847,-0Z" style="fill-rule:nonzero;"/><path d="M341.068,143.828c0.247,0.282 0.432,0.635 0.564,1.049c0.141,0.415 0.203,0.891 0.203,1.429c-0,0.52 -0.062,0.988 -0.194,1.402c-0.132,0.424 -0.326,0.776 -0.573,1.059c-0.265,0.299 -0.565,0.52 -0.918,0.661c-0.344,0.141 -0.732,0.212 -1.146,0.212c-0.441,0 -0.829,-0.071 -1.173,-0.221c-0.353,-0.141 -0.653,-0.361 -0.9,-0.652c-0.247,-0.283 -0.432,-0.635 -0.564,-1.05c-0.133,-0.415 -0.203,-0.891 -0.203,-1.411c0,-0.538 0.07,-1.014 0.203,-1.42c0.132,-0.415 0.326,-0.759 0.573,-1.058c0.247,-0.283 0.538,-0.494 0.891,-0.644c0.344,-0.15 0.741,-0.221 1.173,-0.221c0.432,0 0.829,0.071 1.173,0.23c0.353,0.149 0.653,0.361 0.891,0.635Zm-0.115,2.478c0,-0.423 -0.053,-0.803 -0.141,-1.129c-0.088,-0.326 -0.221,-0.6 -0.388,-0.811c-0.168,-0.23 -0.371,-0.389 -0.609,-0.503c-0.247,-0.106 -0.511,-0.168 -0.811,-0.168c-0.309,0 -0.582,0.053 -0.812,0.168c-0.229,0.106 -0.432,0.273 -0.617,0.503c-0.167,0.211 -0.3,0.485 -0.388,0.82c-0.088,0.326 -0.132,0.705 -0.132,1.12c-0,0.838 0.176,1.482 0.529,1.931c0.353,0.441 0.829,0.671 1.42,0.671c0.591,-0 1.067,-0.23 1.42,-0.671c0.353,-0.449 0.529,-1.093 0.529,-1.931Z" style="fill-rule:nonzero;"/><path d="M347.361,149.507l-0.962,-0l-2.831,-5.53l-0,5.53l-0.794,-0l-0,-6.412l1.209,0l2.575,5.081l0,-5.081l0.803,0l-0,6.412Z" style="fill-rule:nonzero;"/><path d="M350.899,149.507l-2.496,-0l0,-0.652l0.821,0l-0,-5.107l-0.821,-0l0,-0.653l2.496,0l-0,0.653l-0.82,-0l0,5.107l0.82,0l-0,0.652Z" style="fill-rule:nonzero;"/><path d="M354.452,149.622c-0.423,0 -0.803,-0.07 -1.155,-0.212c-0.353,-0.141 -0.653,-0.344 -0.909,-0.626c-0.256,-0.282 -0.459,-0.626 -0.6,-1.041c-0.141,-0.414 -0.211,-0.899 -0.211,-1.437c-0,-0.538 0.07,-1.006 0.203,-1.402c0.141,-0.397 0.335,-0.75 0.599,-1.041c0.256,-0.291 0.556,-0.512 0.909,-0.662c0.352,-0.15 0.741,-0.22 1.173,-0.22c0.22,-0 0.423,0.017 0.608,0.044c0.186,0.035 0.362,0.07 0.521,0.123c0.141,0.045 0.282,0.097 0.423,0.159c0.15,0.062 0.291,0.141 0.432,0.212l0,1.032l-0.07,-0c-0.071,-0.071 -0.168,-0.15 -0.291,-0.247c-0.115,-0.097 -0.256,-0.194 -0.424,-0.291c-0.167,-0.088 -0.344,-0.159 -0.538,-0.221c-0.194,-0.053 -0.414,-0.088 -0.67,-0.088c-0.273,0 -0.529,0.062 -0.767,0.168c-0.247,0.114 -0.459,0.282 -0.644,0.494c-0.185,0.22 -0.327,0.493 -0.424,0.829c-0.097,0.326 -0.15,0.696 -0.15,1.111c0,0.441 0.053,0.82 0.159,1.138c0.106,0.317 0.247,0.582 0.432,0.802c0.177,0.212 0.388,0.371 0.627,0.476c0.247,0.115 0.502,0.168 0.767,0.168c0.247,0 0.476,-0.035 0.688,-0.097c0.212,-0.053 0.397,-0.132 0.564,-0.22c0.15,-0.097 0.291,-0.186 0.406,-0.274c0.115,-0.097 0.203,-0.176 0.273,-0.247l0.062,0l0,1.023c-0.141,0.062 -0.273,0.124 -0.397,0.185c-0.123,0.062 -0.282,0.124 -0.458,0.177c-0.186,0.062 -0.353,0.106 -0.521,0.141c-0.158,0.026 -0.361,0.044 -0.617,0.044Z" style="fill-rule:nonzero;"/><path d="M356.545,149.507l2.161,-6.412l1.049,0l2.161,6.412l-0.899,-0l-0.574,-1.79l-2.451,0l-0.583,1.79l-0.864,-0Zm3.66,-2.522l-0.996,-3.016l-0.979,3.016l1.975,-0Z" style="fill-rule:nonzero;"/><path d="M279.874,202.361l-0,-66.225" style="fill:none;stroke:#000;stroke-width:0.77px;"/><path d="M279.564,202.361l88.043,-0" style="fill:none;stroke:#000;stroke-width:0.77px;"/><path d="M279.564,136.136l88.043,-0" style="fill:none;stroke:#000;stroke-width:0.77px;"/><path d="M367.297,202.361l-0,-66.225" style="fill:none;stroke:#000;stroke-width:0.77px;"/><path d="M10.331,269.36l470.075,0" style="fill:none;stroke:#000;stroke-width:0.46px;"/><path d="M10.331,264.408l470.075,0" style="fill:none;stroke:#000;stroke-width:0.46px;"/><path d="M10.331,259.457l470.075,0" style="fill:none;stroke:#000;stroke-width:0.46px;"/><path d="M10.331,254.506l470.075,-0" style="fill:none;stroke:#000;stroke-width:0.46px;"/><path d="M10.331,249.554l470.075,0" style="fill:none;stroke:#000;stroke-width:0.46px;"/><path d="M24.403,268.702l0.752,3.664c0.04,0.218 0.06,0.416 0.06,0.614c0,1.941 -1.981,3.565 -4.12,3.565c-0.654,-0 -1.287,-0.158 -1.881,-0.455c1.525,-0.159 2.673,-1.089 2.673,-2.456c-0,-1.208 -0.99,-2.476 -2.258,-2.476c-1.445,0 -2.436,1.109 -2.436,2.555c0,2.02 1.644,3.347 3.625,3.347c2.654,-0 4.912,-1.723 4.912,-4.198c-0,-0.555 -0.872,-4.477 -0.852,-4.338c2.119,-1.03 3.565,-2.852 3.565,-4.773c0,-2.634 -2.119,-4.654 -4.753,-4.654c-0.04,0 -0.317,0.019 -0.793,0.059l-0.871,-4.179c2.951,-2.495 4.298,-5.149 4.298,-8.061c-0,-2.238 -0.891,-4.615 -2.694,-7.11c-2.04,1.644 -3.208,4.931 -3.208,8.437c0,1.248 0.158,2.456 0.435,3.605c-4.515,3.783 -6.773,7.268 -6.773,10.457c-0,3.743 3.862,6.853 8.061,6.853c0.931,0 1.624,-0.139 2.258,-0.456Zm-0.06,-26.024c0.654,0.673 0.99,1.465 0.99,2.396c0,1.921 -1.366,4.08 -4.04,6.457c-0.139,-0.575 -0.178,-1.208 -0.178,-1.901c-0,-3.328 1.228,-6.992 2.872,-6.992c0.138,0 0.257,0.02 0.356,0.04Zm0.416,25.212l-1.406,-6.615c0.277,-0.02 0.436,-0.039 0.495,-0.039c1.703,-0 2.892,1.604 2.892,3.248c-0,1.307 -0.694,2.456 -1.981,3.406Zm-1.901,-6.536l1.426,6.814c-0.693,0.376 -1.466,0.534 -2.397,0.534c-3.208,-0 -5.981,-2.396 -5.981,-5.308c0,-2.634 1.961,-5.347 5.664,-8.12l0.832,3.961c-2.06,0.436 -3.802,2.179 -3.802,4.14c0,1.663 1.188,2.832 2.97,3.109c-1.089,-0.673 -1.624,-1.525 -1.624,-2.535c-0,-1.367 1.268,-2.377 2.912,-2.595Z" style="fill-rule:nonzero;"/><g><path d="M94.181,229.349l-0,-5.653l-2.152,0l-0,-0.759l5.151,0l0,0.759l-2.152,0l-0,5.653l-0.847,-0Z" style="fill-rule:nonzero;"/><path d="M102.162,223.669c0.247,0.282 0.432,0.635 0.564,1.05c0.141,0.414 0.203,0.89 0.203,1.428c0,0.521 -0.062,0.988 -0.194,1.403c-0.132,0.423 -0.326,0.776 -0.573,1.058c-0.265,0.3 -0.565,0.521 -0.918,0.662c-0.344,0.141 -0.732,0.211 -1.146,0.211c-0.441,-0 -0.829,-0.07 -1.173,-0.22c-0.353,-0.141 -0.653,-0.362 -0.9,-0.653c-0.247,-0.282 -0.432,-0.635 -0.564,-1.049c-0.133,-0.415 -0.203,-0.891 -0.203,-1.412c0,-0.538 0.07,-1.014 0.203,-1.419c0.132,-0.415 0.326,-0.759 0.573,-1.059c0.247,-0.282 0.538,-0.494 0.891,-0.644c0.344,-0.15 0.741,-0.22 1.173,-0.22c0.432,-0 0.829,0.07 1.173,0.229c0.353,0.15 0.653,0.362 0.891,0.635Zm-0.115,2.478c-0,-0.423 -0.053,-0.802 -0.141,-1.128c-0.088,-0.327 -0.221,-0.6 -0.388,-0.812c-0.168,-0.229 -0.371,-0.388 -0.609,-0.503c-0.247,-0.105 -0.511,-0.167 -0.811,-0.167c-0.309,-0 -0.582,0.053 -0.812,0.167c-0.229,0.106 -0.432,0.274 -0.617,0.503c-0.168,0.212 -0.3,0.485 -0.388,0.82c-0.088,0.327 -0.132,0.706 -0.132,1.12c0,0.838 0.176,1.482 0.529,1.932c0.353,0.441 0.829,0.67 1.42,0.67c0.591,-0 1.067,-0.229 1.42,-0.67c0.353,-0.45 0.529,-1.094 0.529,-1.932Z" style="fill-rule:nonzero;"/><path d="M108.455,229.349l-0.962,-0l-2.831,-5.53l0,5.53l-0.794,-0l-0,-6.412l1.209,0l2.575,5.08l0,-5.08l0.803,0l0,6.412Z" style="fill-rule:nonzero;"/><path d="M111.993,229.349l-2.496,-0l0,-0.653l0.82,0l0,-5.106l-0.82,-0l0,-0.653l2.496,0l-0,0.653l-0.82,-0l-0,5.106l0.82,0l-0,0.653Z" style="fill-rule:nonzero;"/><path d="M115.546,229.464c-0.423,-0 -0.803,-0.071 -1.155,-0.212c-0.353,-0.141 -0.653,-0.344 -0.909,-0.626c-0.256,-0.282 -0.459,-0.626 -0.6,-1.041c-0.141,-0.414 -0.211,-0.9 -0.211,-1.438c-0,-0.538 0.07,-1.005 0.203,-1.402c0.141,-0.397 0.335,-0.75 0.599,-1.041c0.256,-0.291 0.556,-0.511 0.909,-0.661c0.352,-0.15 0.741,-0.221 1.173,-0.221c0.22,-0 0.423,0.018 0.608,0.045c0.185,0.035 0.362,0.07 0.521,0.123c0.141,0.044 0.282,0.097 0.423,0.159c0.15,0.062 0.291,0.141 0.432,0.211l0,1.032l-0.07,-0c-0.071,-0.07 -0.168,-0.15 -0.291,-0.247c-0.115,-0.097 -0.256,-0.194 -0.424,-0.291c-0.167,-0.088 -0.344,-0.158 -0.538,-0.22c-0.194,-0.053 -0.414,-0.088 -0.67,-0.088c-0.274,-0 -0.529,0.061 -0.767,0.167c-0.247,0.115 -0.459,0.282 -0.644,0.494c-0.185,0.221 -0.327,0.494 -0.424,0.829c-0.097,0.327 -0.15,0.697 -0.15,1.111c-0,0.441 0.053,0.821 0.159,1.138c0.106,0.318 0.247,0.582 0.432,0.803c0.177,0.212 0.388,0.37 0.627,0.476c0.247,0.115 0.502,0.168 0.767,0.168c0.247,-0 0.476,-0.036 0.688,-0.097c0.211,-0.053 0.397,-0.133 0.564,-0.221c0.15,-0.097 0.291,-0.185 0.406,-0.273c0.115,-0.097 0.203,-0.177 0.273,-0.247l0.062,0l0,1.023c-0.141,0.062 -0.273,0.123 -0.397,0.185c-0.123,0.062 -0.282,0.124 -0.458,0.176c-0.186,0.062 -0.353,0.106 -0.521,0.142c-0.158,0.026 -0.361,0.044 -0.617,0.044Z" style="fill-rule:nonzero;"/><path d="M117.639,229.349l2.161,-6.412l1.049,0l2.161,6.412l-0.899,-0l-0.574,-1.79l-2.452,-0l-0.582,1.79l-0.864,-0Zm3.66,-2.522l-0.996,-3.017l-0.979,3.017l1.975,-0Z" style="fill-rule:nonzero;"/></g><path d="M40.349,280.346l-0,-66.225" style="fill:none;stroke:#000;stroke-width:0.77px;"/><path d="M40.039,280.346l90.209,-0" style="fill:none;stroke:#000;stroke-width:0.77px;"/><path d="M40.039,214.121l90.209,0" style="fill:none;stroke:#000;stroke-width:0.77px;"/><path d="M129.938,280.346l0,-66.225" style="fill:none;stroke:#000;stroke-width:0.77px;"/><path d="M10.331,348.428l470.075,-0" style="fill:none;stroke:#000;stroke-width:0.46px;"/><path d="M10.331,343.476l470.075,-0" style="fill:none;stroke:#000;stroke-width:0.46px;"/><path d="M10.331,338.525l470.075,-0" style="fill:none;stroke:#000;stroke-width:0.46px;"/><path d="M10.331,333.574l470.075,0" style="fill:none;stroke:#000;stroke-width:0.46px;"/><path d="M10.331,328.622l470.075,-0" style="fill:none;stroke:#000;stroke-width:0.46px;"/><path d="M24.403,347.77l0.752,3.664c0.04,0.218 0.06,0.416 0.06,0.614c0,1.941 -1.981,3.565 -4.12,3.565c-0.654,0 -1.287,-0.158 -1.881,-0.455c1.525,-0.159 2.673,-1.089 2.673,-2.456c-0,-1.208 -0.99,-2.476 -2.258,-2.476c-1.445,-0 -2.436,1.109 -2.436,2.555c0,2.02 1.644,3.347 3.625,3.347c2.654,0 4.912,-1.723 4.912,-4.198c-0,-0.555 -0.872,-4.477 -0.852,-4.338c2.119,-1.03 3.565,-2.852 3.565,-4.773c0,-2.634 -2.119,-4.654 -4.753,-4.654c-0.04,-0 -0.317,0.019 -0.793,0.059l-0.871,-4.179c2.951,-2.495 4.298,-5.149 4.298,-8.061c-0,-2.238 -0.891,-4.615 -2.694,-7.11c-2.04,1.644 -3.208,4.931 -3.208,8.437c0,1.248 0.158,2.456 0.435,3.605c-4.515,3.783 -6.773,7.268 -6.773,10.457c-0,3.743 3.862,6.853 8.061,6.853c0.931,-0 1.624,-0.139 2.258,-0.456Zm-0.06,-26.024c0.654,0.673 0.99,1.465 0.99,2.396c0,1.921 -1.366,4.08 -4.04,6.457c-0.139,-0.575 -0.178,-1.208 -0.178,-1.901c-0,-3.328 1.228,-6.992 2.872,-6.992c0.138,-0 0.257,0.02 0.356,0.04Zm0.416,25.212l-1.406,-6.615c0.277,-0.02 0.436,-0.039 0.495,-0.039c1.703,0 2.892,1.604 2.892,3.248c-0,1.307 -0.694,2.456 -1.981,3.406Zm-1.901,-6.536l1.426,6.814c-0.693,0.376 -1.466,0.534 -2.397,0.534c-3.208,0 -5.981,-2.396 -5.981,-5.308c0,-2.634 1.961,-5.347 5.664,-8.12l0.832,3.961c-2.06,0.436 -3.802,2.179 -3.802,4.14c0,1.663 1.188,2.832 2.97,3.109c-1.089,-0.673 -1.624,-1.525 -1.624,-2.535c-0,-1.367 1.268,-2.377 2.912,-2.595Z" style="fill-rule:nonzero;"/><path d="M329.374,309.191l-0,-5.654l-2.152,0l-0,-0.758l5.15,0l0,0.758l-2.152,0l0,5.654l-0.846,-0Z" style="fill-rule:nonzero;"/><path d="M337.354,303.511c0.247,0.282 0.432,0.635 0.565,1.049c0.141,0.415 0.202,0.891 0.202,1.429c0,0.521 -0.061,0.988 -0.194,1.403c-0.132,0.423 -0.326,0.776 -0.573,1.058c-0.264,0.3 -0.564,0.52 -0.917,0.661c-0.344,0.141 -0.732,0.212 -1.147,0.212c-0.441,-0 -0.829,-0.071 -1.173,-0.22c-0.352,-0.142 -0.652,-0.362 -0.899,-0.653c-0.247,-0.282 -0.432,-0.635 -0.565,-1.05c-0.132,-0.414 -0.203,-0.89 -0.203,-1.411c0,-0.538 0.071,-1.014 0.203,-1.42c0.133,-0.414 0.327,-0.758 0.574,-1.058c0.246,-0.282 0.538,-0.494 0.89,-0.644c0.344,-0.15 0.741,-0.221 1.173,-0.221c0.432,-0 0.829,0.071 1.173,0.23c0.353,0.15 0.653,0.361 0.891,0.635Zm-0.115,2.478c0,-0.423 -0.052,-0.802 -0.141,-1.129c-0.088,-0.326 -0.22,-0.599 -0.388,-0.811c-0.167,-0.229 -0.37,-0.388 -0.608,-0.503c-0.247,-0.106 -0.512,-0.167 -0.812,-0.167c-0.308,-0 -0.582,0.052 -0.811,0.167c-0.229,0.106 -0.432,0.274 -0.617,0.503c-0.168,0.212 -0.3,0.485 -0.389,0.82c-0.088,0.326 -0.132,0.706 -0.132,1.12c0,0.838 0.177,1.482 0.529,1.932c0.353,0.441 0.829,0.67 1.42,0.67c0.591,0 1.068,-0.229 1.42,-0.67c0.353,-0.45 0.529,-1.094 0.529,-1.932Z" style="fill-rule:nonzero;"/><path d="M343.647,309.191l-0.961,-0l-2.831,-5.53l0,5.53l-0.794,-0l0,-6.412l1.208,0l2.575,5.08l-0,-5.08l0.803,0l0,6.412Z" style="fill-rule:nonzero;"/><path d="M347.186,309.191l-2.496,-0l0,-0.653l0.82,-0l0,-5.107l-0.82,-0l0,-0.652l2.496,0l0,0.652l-0.821,-0l-0,5.107l0.821,-0l0,0.653Z" style="fill-rule:nonzero;"/><path d="M350.738,309.305c-0.423,-0 -0.802,-0.07 -1.155,-0.211c-0.353,-0.141 -0.653,-0.344 -0.908,-0.626c-0.256,-0.283 -0.459,-0.627 -0.6,-1.041c-0.141,-0.415 -0.212,-0.9 -0.212,-1.438c0,-0.538 0.071,-1.005 0.203,-1.402c0.141,-0.397 0.335,-0.75 0.6,-1.041c0.255,-0.291 0.555,-0.511 0.908,-0.661c0.353,-0.15 0.741,-0.221 1.173,-0.221c0.221,0 0.424,0.018 0.609,0.044c0.185,0.036 0.361,0.071 0.52,0.124c0.141,0.044 0.282,0.097 0.423,0.158c0.15,0.062 0.291,0.142 0.433,0.212l-0,1.032l-0.071,-0c-0.071,-0.071 -0.168,-0.15 -0.291,-0.247c-0.115,-0.097 -0.256,-0.194 -0.423,-0.291c-0.168,-0.088 -0.344,-0.159 -0.538,-0.22c-0.194,-0.053 -0.415,-0.089 -0.671,-0.089c-0.273,-0 -0.529,0.062 -0.767,0.168c-0.247,0.115 -0.459,0.282 -0.644,0.494c-0.185,0.22 -0.326,0.494 -0.423,0.829c-0.097,0.326 -0.15,0.697 -0.15,1.111c-0,0.441 0.053,0.82 0.159,1.138c0.106,0.317 0.247,0.582 0.432,0.803c0.176,0.211 0.388,0.37 0.626,0.476c0.247,0.114 0.503,0.167 0.767,0.167c0.247,-0 0.477,-0.035 0.688,-0.097c0.212,-0.053 0.397,-0.132 0.565,-0.22c0.15,-0.097 0.291,-0.185 0.405,-0.274c0.115,-0.097 0.203,-0.176 0.274,-0.247l0.062,0l-0,1.024c-0.142,0.061 -0.274,0.123 -0.397,0.185c-0.124,0.062 -0.283,0.123 -0.459,0.176c-0.185,0.062 -0.353,0.106 -0.52,0.141c-0.159,0.027 -0.362,0.044 -0.618,0.044Z" style="fill-rule:nonzero;"/><path d="M352.832,309.191l2.16,-6.412l1.05,0l2.161,6.412l-0.9,-0l-0.573,-1.791l-2.452,-0l-0.582,1.791l-0.864,-0Zm3.66,-2.523l-0.997,-3.016l-0.979,3.016l1.976,-0Z" style="fill-rule:nonzero;"/><path d="M292.562,361.89l0,-66.071" style="fill:none;stroke:#000;stroke-width:0.77px;"/><path d="M292.252,361.89l72.724,-0" style="fill:none;stroke:#000;stroke-width:0.77px;"/><path d="M292.252,295.819l72.724,0" style="fill:none;stroke:#000;stroke-width:0.77px;"/><path d="M364.667,361.89l-0,-66.071" style="fill:none;stroke:#000;stroke-width:0.77px;"/><path d="M10.331,483.354l470.075,0" style="fill:none;stroke:#000;stroke-width:0.46px;"/><path d="M10.331,478.403l470.075,-0" style="fill:none;stroke:#000;stroke-width:0.46px;"/><path d="M10.331,473.451l470.075,0" style="fill:none;stroke:#000;stroke-width:0.46px;"/><path d="M10.331,468.5l470.075,0" style="fill:none;stroke:#000;stroke-width:0.46px;"/><path d="M10.331,463.548l470.075,0" style="fill:none;stroke:#000;stroke-width:0.46px;"/><path d="M24.403,482.697l0.752,3.664c0.04,0.217 0.06,0.416 0.06,0.614c0,1.941 -1.981,3.565 -4.12,3.565c-0.654,-0 -1.287,-0.159 -1.881,-0.456c1.525,-0.158 2.673,-1.089 2.673,-2.456c-0,-1.208 -0.99,-2.476 -2.258,-2.476c-1.445,-0 -2.436,1.11 -2.436,2.555c0,2.021 1.644,3.348 3.625,3.348c2.654,0 4.912,-1.724 4.912,-4.199c-0,-0.555 -0.872,-4.476 -0.852,-4.338c2.119,-1.03 3.565,-2.852 3.565,-4.773c0,-2.634 -2.119,-4.654 -4.753,-4.654c-0.04,-0 -0.317,0.02 -0.793,0.059l-0.871,-4.179c2.951,-2.495 4.298,-5.149 4.298,-8.061c-0,-2.238 -0.891,-4.614 -2.694,-7.11c-2.04,1.644 -3.208,4.932 -3.208,8.437c0,1.248 0.158,2.456 0.435,3.605c-4.515,3.783 -6.773,7.269 -6.773,10.457c-0,3.744 3.862,6.853 8.061,6.853c0.931,0 1.624,-0.139 2.258,-0.455Zm-0.06,-26.025c0.654,0.673 0.99,1.466 0.99,2.396c0,1.922 -1.366,4.08 -4.04,6.457c-0.139,-0.574 -0.178,-1.208 -0.178,-1.901c-0,-3.328 1.228,-6.992 2.872,-6.992c0.138,-0 0.257,0.02 0.356,0.04Zm0.416,25.213l-1.406,-6.616c0.277,-0.019 0.436,-0.039 0.495,-0.039c1.703,-0 2.892,1.604 2.892,3.248c-0,1.307 -0.694,2.456 -1.981,3.407Zm-1.901,-6.536l1.426,6.813c-0.693,0.376 -1.466,0.535 -2.397,0.535c-3.208,-0 -5.981,-2.397 -5.981,-5.308c0,-2.635 1.961,-5.348 5.664,-8.121l0.832,3.961c-2.06,0.436 -3.802,2.179 -3.802,4.14c0,1.664 1.188,2.832 2.97,3.109c-1.089,-0.673 -1.624,-1.525 -1.624,-2.535c-0,-1.366 1.268,-2.376 2.912,-2.594Z" style="fill-rule:nonzero;"/><path d="M98.992,115.866l14.235,-0" style="fill:none;stroke:#000;stroke-width:0.77px;"/><path d="M101.468,115.822c0,1.644 1.961,2.674 4.496,2.674c2.832,0 4.733,-1.01 4.733,-2.674c-0,-1.525 -2.317,-2.673 -4.516,-2.673c-2.396,-0 -4.713,1.069 -4.713,2.673Zm7.09,1.01c-0.218,1.11 -1.188,1.228 -2.337,1.228c-1.248,-0 -2.594,-1.445 -2.594,-2.951c-0,-1.01 0.633,-1.525 1.901,-1.525c1.327,0 1.98,0.495 2.575,1.684c0.297,0.594 0.455,1.109 0.455,1.564Z" style="fill-rule:nonzero;"/><path d="M101.468,110.871c0,1.644 1.961,2.674 4.496,2.674c2.832,0 4.733,-1.01 4.733,-2.674c-0,-1.525 -2.317,-2.674 -4.516,-2.674c-2.396,-0 -4.713,1.07 -4.713,2.674Zm7.09,1.01c-0.218,1.109 -1.188,1.228 -2.337,1.228c-1.248,0 -2.594,-1.446 -2.594,-2.951c-0,-1.01 0.633,-1.525 1.901,-1.525c1.327,-0 1.98,0.495 2.575,1.683c0.297,0.595 0.455,1.109 0.455,1.565Z" style="fill-rule:nonzero;"/><path d="M101.468,105.919c0,1.644 1.961,2.674 4.496,2.674c2.832,-0 4.733,-1.01 4.733,-2.674c-0,-1.525 -2.317,-2.673 -4.516,-2.673c-2.396,0 -4.713,1.069 -4.713,2.673Zm7.09,1.011c-0.218,1.109 -1.188,1.228 -2.337,1.228c-1.248,-0 -2.594,-1.446 -2.594,-2.952c-0,-1.01 0.633,-1.525 1.901,-1.525c1.327,-0 1.98,0.496 2.575,1.684c0.297,0.594 0.455,1.109 0.455,1.565Z" style="fill-rule:nonzero;"/><path d="M303.393,195.089l14.235,-0" style="fill:none;stroke:#000;stroke-width:0.77px;"/><path d="M305.869,195.045c-0,1.644 1.96,2.674 4.495,2.674c2.833,-0 4.734,-1.01 4.734,-2.674c-0,-1.525 -2.317,-2.674 -4.516,-2.674c-2.396,0 -4.713,1.07 -4.713,2.674Zm7.09,1.01c-0.218,1.109 -1.188,1.228 -2.337,1.228c-1.248,-0 -2.595,-1.446 -2.595,-2.951c0,-1.01 0.634,-1.525 1.902,-1.525c1.327,0 1.98,0.495 2.574,1.683c0.298,0.595 0.456,1.11 0.456,1.565Z" style="fill-rule:nonzero;"/><path d="M305.869,190.094c-0,1.643 1.96,2.673 4.495,2.673c2.833,-0 4.734,-1.01 4.734,-2.673c-0,-1.525 -2.317,-2.674 -4.516,-2.674c-2.396,0 -4.713,1.069 -4.713,2.674Zm7.09,1.01c-0.218,1.109 -1.188,1.228 -2.337,1.228c-1.248,0 -2.595,-1.446 -2.595,-2.951c0,-1.01 0.634,-1.525 1.902,-1.525c1.327,-0 1.98,0.495 2.574,1.683c0.298,0.594 0.456,1.109 0.456,1.565Z" style="fill-rule:nonzero;"/><path d="M305.869,185.142c-0,1.644 1.96,2.674 4.495,2.674c2.833,0 4.734,-1.01 4.734,-2.674c-0,-1.525 -2.317,-2.674 -4.516,-2.674c-2.396,-0 -4.713,1.07 -4.713,2.674Zm7.09,1.01c-0.218,1.109 -1.188,1.228 -2.337,1.228c-1.248,0 -2.595,-1.446 -2.595,-2.951c0,-1.01 0.634,-1.525 1.902,-1.525c1.327,-0 1.98,0.495 2.574,1.684c0.298,0.594 0.456,1.109 0.456,1.564Z" style="fill-rule:nonzero;"/><path d="M62.94,251.986c-0,1.644 1.96,2.674 4.495,2.674c2.833,0 4.734,-1.01 4.734,-2.674c-0,-1.525 -2.317,-2.673 -4.516,-2.673c-2.396,0 -4.713,1.069 -4.713,2.673Zm7.09,1.01c-0.218,1.11 -1.188,1.228 -2.337,1.228c-1.248,-0 -2.595,-1.445 -2.595,-2.951c-0,-1.01 0.634,-1.525 1.902,-1.525c1.327,0 1.98,0.495 2.574,1.684c0.297,0.594 0.456,1.109 0.456,1.564Z" style="fill-rule:nonzero;"/><path d="M62.94,256.938c-0,1.644 1.96,2.674 4.495,2.674c2.833,-0 4.734,-1.011 4.734,-2.674c-0,-1.525 -2.317,-2.674 -4.516,-2.674c-2.396,0 -4.713,1.07 -4.713,2.674Zm7.09,1.01c-0.218,1.109 -1.188,1.228 -2.337,1.228c-1.248,-0 -2.595,-1.446 -2.595,-2.951c-0,-1.01 0.634,-1.525 1.902,-1.525c1.327,-0 1.98,0.495 2.574,1.683c0.297,0.594 0.456,1.109 0.456,1.565Z" style="fill-rule:nonzero;"/><path d="M62.94,261.889c-0,1.644 1.96,2.674 4.495,2.674c2.833,0 4.734,-1.01 4.734,-2.674c-0,-1.525 -2.317,-2.674 -4.516,-2.674c-2.396,-0 -4.713,1.07 -4.713,2.674Zm7.09,1.01c-0.218,1.109 -1.188,1.228 -2.337,1.228c-1.248,-0 -2.595,-1.446 -2.595,-2.951c-0,-1.01 0.634,-1.525 1.902,-1.525c1.327,0 1.98,0.495 2.574,1.684c0.297,0.594 0.456,1.109 0.456,1.564Z" style="fill-rule:nonzero;"/><path d="M315.152,353.379l14.236,-0" style="fill:none;stroke:#000;stroke-width:0.77px;"/><path d="M317.628,353.336c-0,1.644 1.961,2.674 4.496,2.674c2.832,-0 4.734,-1.011 4.734,-2.674c0,-1.525 -2.318,-2.674 -4.516,-2.674c-2.397,0 -4.714,1.069 -4.714,2.674Zm7.091,1.01c-0.218,1.109 -1.189,1.228 -2.337,1.228c-1.248,0 -2.595,-1.446 -2.595,-2.951c-0,-1.01 0.634,-1.525 1.901,-1.525c1.327,0 1.981,0.495 2.575,1.683c0.297,0.594 0.456,1.109 0.456,1.565Z" style="fill-rule:nonzero;"/><path d="M317.628,348.384c-0,1.644 1.961,2.674 4.496,2.674c2.832,-0 4.734,-1.01 4.734,-2.674c0,-1.525 -2.318,-2.673 -4.516,-2.673c-2.397,-0 -4.714,1.069 -4.714,2.673Zm7.091,1.01c-0.218,1.11 -1.189,1.228 -2.337,1.228c-1.248,-0 -2.595,-1.445 -2.595,-2.951c-0,-1.01 0.634,-1.525 1.901,-1.525c1.327,-0 1.981,0.495 2.575,1.684c0.297,0.594 0.456,1.109 0.456,1.564Z" style="fill-rule:nonzero;"/><path d="M317.628,343.433c-0,1.644 1.961,2.674 4.496,2.674c2.832,-0 4.734,-1.01 4.734,-2.674c0,-1.525 -2.318,-2.674 -4.516,-2.674c-2.397,0 -4.714,1.07 -4.714,2.674Zm7.091,1.01c-0.218,1.109 -1.189,1.228 -2.337,1.228c-1.248,0 -2.595,-1.446 -2.595,-2.951c-0,-1.01 0.634,-1.525 1.901,-1.525c1.327,0 1.981,0.495 2.575,1.683c0.297,0.595 0.456,1.109 0.456,1.565Z" style="fill-rule:nonzero;"/><path d="M5.504,4.83l-0.417,-0c-0.333,0.787 -0.631,1.001 -1.394,1.001l-2.502,-0c1.74,-2.109 3.956,-2.764 3.956,-4.73c-0,-1.227 -0.977,-2.216 -2.216,-2.216c-1.227,0 -2.228,0.894 -2.8,2.49l0.441,0.179c0.488,-1.156 1.227,-1.811 2.061,-1.811c0.762,0 1.394,0.715 1.394,1.585c-0,1.453 -1.752,2.621 -3.944,5.039l-0,0.429l4.837,-0l0.584,-1.966Z" style="fill-rule:nonzero;"/></g></svg>