<?xml version="1.0" encoding="UTF-8" standalone="no"?><!DOCTYPE svg PUBLIC "-//W3C//DTD SVG 1.1//EN" "http://www.w3.org/Graphics/SVG/1.1/DTD/svg11.dtd"><svg width="100%" height="100%" viewBox="0 0 481 366" version="1.1" xmlns="http://www.w3.org/2000/svg" xmlns:xlink="http://www.w3.org/1999/xlink" xml:space="preserve" xmlns:serif="http://www.serif.com/" style="fill-rule:evenodd;clip-rule:evenodd;stroke-linejoin:round;stroke-miterlimit:2;"><g><path d="M43.271,94.614l-0,19.806" style="fill:none;stroke:#000;stroke-width:2.48px;"/><path d="M46.676,94.614l-0,19.806" style="fill:none;stroke:#000;stroke-width:0.77px;"/><path d="M49.925,101.115c-0.475,-0 -0.911,0.416 -0.911,0.95c-0,0.456 0.455,0.892 0.911,0.892c0.535,0 0.951,-0.436 0.951,-0.892c-0,-0.534 -0.416,-0.95 -0.951,-0.95Z" style="fill-rule:nonzero;"/><path d="M49.925,106.066c-0.475,0 -0.911,0.416 -0.911,0.951c-0,0.455 0.455,0.891 0.911,0.891c0.535,-0 0.951,-0.436 0.951,-0.891c-0,-0.535 -0.416,-0.951 -0.951,-0.951Z" style="fill-rule:nonzero;"/><path d="M184.696,94.614l-0,19.806" style="fill:none;stroke:#000;stroke-width:0.77px;"/><path d="M279.083,94.614l0,19.806" style="fill:none;stroke:#000;stroke-width:0.77px;"/><path d="M386.003,94.614l-0,19.806" style="fill:none;stroke:#000;stroke-width:0.77px;"/><path d="M480.234,94.614l0,19.806" style="fill:none;stroke:#000;stroke-width:0.77px;"/><path d="M96.729,81.273c0.487,-0.442 0.708,-1.062 0.708,-1.637c-0,-0.465 -0.155,-0.929 -0.465,-1.283c-1.062,0.309 -2.168,0.442 -3.12,0.442c-2.588,0 -3.274,-0.973 -3.274,-2.832c0,-1.505 1.571,-5.687 3.075,-5.687c1.084,0 1.748,3.43 2.501,3.43c0.885,-0 0.929,-1.704 0.929,-2.367c0,-3.01 -1.328,-4.736 -2.943,-4.736c-2.323,-0 -5.332,4.05 -5.332,8.851c-0,2.611 0.73,6.483 4.314,6.483c1.217,0 2.611,-0.287 3.607,-0.664Z" style="fill-rule:nonzero;"/><path d="M190.339,81.008c-0.054,0.055 -0.09,0.127 -0.09,0.218c-0,0.488 0.905,1.448 1.412,1.448c0.344,0 5.594,-5.811 8.871,-9.233c0.036,-0.036 0.054,-0.072 0.054,-0.108c-0,-0.399 -1.068,-1.449 -1.43,-1.449c-0.055,0 -0.091,0.018 -0.127,0.055c-2.661,2.226 -6.3,6.39 -8.69,9.069Zm7.151,-0.706c-0.054,0.073 -0.072,0.145 -0.072,0.2c-0,0.47 0.851,1.212 1.394,1.212c0.434,-0 1.973,-2.081 1.973,-2.208c0,-0.435 -0.815,-1.412 -1.322,-1.412c-0.724,-0 -1.448,1.358 -1.973,2.208Zm-6.372,-6.101c-0.037,0.055 -0.055,0.109 -0.055,0.182c0,0.416 0.779,1.212 1.159,1.212c0.362,-0.362 0.688,-0.706 0.959,-1.013c0.507,-0.507 0.996,-1.087 0.996,-1.286c0,-0.47 -0.688,-1.267 -1.122,-1.267c-0.561,-0 -1.521,1.81 -1.937,2.172Z" style="fill-rule:nonzero;"/><path d="M301.07,77.906c-0.318,-0.085 -0.594,-0.212 -0.869,-0.254c0.084,1.526 0.084,2.289 0.127,3.497c0.53,0.636 1.547,0.806 3.964,0.806c0.53,-0 1.102,-0 1.759,-0.021c2.226,-0.891 3.35,-5.215 3.35,-8.882c0,-4.791 -1.611,-5.851 -4.07,-5.851c-1.866,-0 -3.307,1.081 -4.897,3.01c-0.127,0.89 -0.021,1.865 -0.17,3.413c0.212,-0 0.53,-0.318 0.679,-0.424c0.042,0.7 0.169,2.226 0.169,3.583c-0,0.402 -0.021,0.784 -0.042,1.123Zm1.081,-5.512c1.187,-1.038 2.713,-1.547 3.667,-1.547c1.272,-0 1.802,1.335 1.802,2.692c-0,1.76 -1.229,4.876 -3.9,4.876c-0.361,0 -0.742,-0.043 -1.188,-0.149c0.043,-0.572 0.085,-1.314 0.085,-2.077c0,-1.272 -0.106,-2.671 -0.466,-3.795Z" style="fill-rule:nonzero;"/><path d="M310.84,74.472c0.382,0.763 0.594,3.074 0.594,4.791c-0,0.678 -0.043,1.272 -0.106,1.632c-0.022,0.064 -0.022,0.106 -0.022,0.148c-0,0.573 0.7,0.975 1.23,0.975c0.297,0 0.551,-0.127 0.572,-0.423c0.149,-1.506 0.657,-5.448 1.336,-5.512c0.318,-0.042 0.466,3.243 0.551,5.13c0.021,0.53 0.572,0.784 1.102,0.784c0.488,0 0.975,-0.212 0.996,-0.614c0.128,-1.59 1.718,-5.682 1.972,-5.66c0.466,0.042 1.145,5.448 1.145,5.511c0.021,0.551 0.508,0.89 0.932,0.89c0.297,-0 0.573,-0.19 0.573,-0.614c-0,-1.802 -0.615,-4.918 -1.103,-6.869c-0.169,-0.635 -0.784,-1.293 -1.42,-1.293c-0.466,-0 -0.954,0.34 -1.272,1.251l-1.547,3.837c-0,-0.53 -0.657,-4.006 -0.7,-4.261c-0.212,-0.848 -0.551,-1.208 -0.933,-1.208c-0.763,0 -1.674,1.42 -2.013,2.989c-0.043,-0.573 -0.615,-1.802 -0.658,-1.908c-0.106,-0.233 -0.254,-0.318 -0.445,-0.318c-0.36,0 -0.805,0.339 -0.805,0.636c0,0.042 0,0.085 0.021,0.106Z" style="fill-rule:nonzero;"/><path d="M323.007,66.268c-0.021,0.89 -0.169,1.802 -0.233,2.756c0.975,-0.297 2.077,-0.721 3.18,-0.721c0.424,0 0.826,0.064 1.25,0.212c-0.445,1.654 -1.335,4.409 -2.416,8.14c0.233,0.234 0.445,0.424 0.636,0.424c0.127,0 0.254,-0.085 0.403,-0.296c1.144,-3.413 1.823,-5.236 2.925,-9.582c0.042,-0.191 0.064,-0.382 0.064,-0.53c0,-0.933 -0.806,-1.251 -1.845,-1.251c-1.378,0 -3.137,0.53 -3.964,0.848Z" style="fill-rule:nonzero;"/><path d="M137.194,173.837l0,19.805" style="fill:none;stroke:#000;stroke-width:0.77px;"/><path d="M243.185,173.837l-0,19.805" style="fill:none;stroke:#000;stroke-width:0.77px;"/><path d="M374.243,173.837l0,19.805" style="fill:none;stroke:#000;stroke-width:0.77px;"/><path d="M480.234,173.837l0,19.805" style="fill:none;stroke:#000;stroke-width:0.77px;"/><path d="M44.692,162.669c0.043,0.12 0.108,0.163 0.184,0.163c0.163,0 0.357,-0.195 0.477,-0.39c0.119,-1.408 0.292,-2.805 0.292,-3.639c0,-1.419 -0.715,-1.733 -1.332,-1.733c-0.358,0 -0.693,0.097 -0.834,0.151c-0.022,0.379 -0.141,1.073 -0.141,1.636c0.249,-0.022 0.325,-0.033 0.357,-0.033c0.044,0 0.033,0.022 0.26,0.065c-0.433,0.228 -0.801,0.325 -1.083,0.325c-0.639,0 -0.91,-0.498 -0.91,-1.126c0,-0.314 0.065,-0.672 0.195,-1.018c0.13,-0.564 0.802,-1.733 1.333,-1.733c0.455,0 0.53,1.462 1.104,1.462c0.271,-0 0.412,-0.314 0.412,-0.877c0,-1.333 -0.531,-2.47 -1.343,-2.47c-1.289,-0 -2.578,2.762 -2.578,4.961c-0,1.31 0.423,2.729 1.841,2.729c0.639,-0 1.344,-0.368 1.907,-1.354c-0.022,1.311 -0.119,2.102 -0.141,2.881Z" style="fill-rule:nonzero;"/><path d="M46.586,153.138c-0.011,0.455 -0.087,0.921 -0.119,1.408c0.498,-0.152 1.061,-0.368 1.625,-0.368c0.216,-0 0.422,0.032 0.639,0.108c-0.228,0.845 -0.683,2.253 -1.235,4.159c0.119,0.119 0.227,0.217 0.325,0.217c0.065,0 0.13,-0.043 0.206,-0.152c0.584,-1.744 0.931,-2.675 1.494,-4.895c0.022,-0.098 0.033,-0.195 0.033,-0.271c0,-0.477 -0.412,-0.639 -0.943,-0.639c-0.704,0 -1.603,0.271 -2.025,0.433Z" style="fill-rule:nonzero;"/><path d="M276.373,160.496c0.486,-0.442 0.708,-1.062 0.708,-1.637c-0,-0.465 -0.155,-0.93 -0.465,-1.284c-1.062,0.31 -2.168,0.443 -3.12,0.443c-2.589,0 -3.275,-0.974 -3.275,-2.832c0,-1.505 1.571,-5.687 3.076,-5.687c1.084,-0 1.748,3.43 2.5,3.43c0.885,0 0.93,-1.704 0.93,-2.368c-0,-3.009 -1.328,-4.735 -2.943,-4.735c-2.324,0 -5.333,4.049 -5.333,8.851c-0,2.611 0.73,6.483 4.315,6.483c1.217,0 2.611,-0.288 3.607,-0.664Z" style="fill-rule:nonzero;"/><path d="M388.241,162.707c-0.054,0.054 -0.09,0.127 -0.09,0.217c0,0.489 0.905,1.448 1.412,1.448c0.344,-0 5.594,-5.811 8.871,-9.232c0.036,-0.037 0.054,-0.073 0.054,-0.109c0,-0.398 -1.068,-1.448 -1.43,-1.448c-0.055,-0 -0.091,0.018 -0.127,0.054c-2.661,2.227 -6.3,6.391 -8.69,9.07Zm7.151,-0.706c-0.054,0.072 -0.072,0.145 -0.072,0.199c0,0.471 0.851,1.213 1.394,1.213c0.434,-0 1.973,-2.082 1.973,-2.209c0,-0.434 -0.815,-1.412 -1.322,-1.412c-0.724,0 -1.448,1.358 -1.973,2.209Zm-6.372,-6.101c-0.037,0.054 -0.055,0.109 -0.055,0.181c-0,0.416 0.779,1.213 1.159,1.213c0.362,-0.362 0.688,-0.706 0.96,-1.014c0.506,-0.507 0.995,-1.086 0.995,-1.285c0,-0.471 -0.688,-1.268 -1.122,-1.268c-0.561,0 -1.521,1.811 -1.937,2.173Z" style="fill-rule:nonzero;"/><path d="M167.057,253.059l0,19.806" style="fill:none;stroke:#000;stroke-width:0.77px;"/><path d="M267.787,253.059l-0,19.806" style="fill:none;stroke:#000;stroke-width:0.77px;"/><path d="M379.504,253.059l-0,19.806" style="fill:none;stroke:#000;stroke-width:0.77px;"/><path d="M480.234,253.059l0,19.806" style="fill:none;stroke:#000;stroke-width:0.77px;"/><path d="M68.051,240.272c0.022,0.177 0.332,0.243 0.708,0.243c0.575,-0 1.306,-0.177 1.306,-0.442c0.022,-0.952 0,-1.571 0.221,-2.788c0.819,-0.288 1.726,-0.73 2.766,-1.106c0.132,1.725 0.177,3.54 0.243,3.894c-0,0.133 0.31,0.177 0.686,0.177c0.664,0 1.593,-0.155 1.593,-0.421c-0,-3.518 -0.022,-14.78 -2.522,-14.78c-2.279,-0 -5.001,7.899 -5.001,14.891l0,0.332Zm4.071,-10.156c0.686,-0 0.708,2.058 0.797,3.297c-0.62,0.332 -1.438,0.664 -2.146,0.951c0.265,-1.239 0.663,-4.204 1.349,-4.248Z" style="fill-rule:nonzero;"/><path d="M76.701,232.594c0.398,0.797 0.619,3.208 0.619,5.001c-0,0.708 -0.044,1.327 -0.11,1.703c-0.022,0.067 -0.022,0.111 -0.022,0.155c0,0.598 0.73,1.018 1.283,1.018c0.31,0 0.575,-0.133 0.597,-0.442c0.155,-1.571 0.686,-5.687 1.394,-5.753c0.332,-0.045 0.487,3.385 0.576,5.354c0.022,0.553 0.597,0.819 1.15,0.819c0.509,-0 1.018,-0.221 1.04,-0.642c0.133,-1.659 1.792,-5.93 2.058,-5.907c0.487,0.044 1.195,5.686 1.195,5.752c0.022,0.576 0.531,0.93 0.973,0.93c0.31,0 0.598,-0.199 0.598,-0.642c0,-1.881 -0.642,-5.133 -1.151,-7.169c-0.177,-0.664 -0.818,-1.35 -1.482,-1.35c-0.487,0 -0.996,0.354 -1.328,1.306l-1.615,4.005c-0,-0.553 -0.686,-4.182 -0.73,-4.448c-0.222,-0.885 -0.576,-1.261 -0.974,-1.261c-0.796,-0 -1.748,1.483 -2.102,3.12c-0.044,-0.598 -0.642,-1.881 -0.686,-1.991c-0.11,-0.244 -0.265,-0.332 -0.464,-0.332c-0.377,0 -0.841,0.354 -0.841,0.663c0,0.045 0,0.089 0.022,0.111Z" style="fill-rule:nonzero;"/><path d="M175.485,239.454c-0.054,0.054 -0.091,0.127 -0.091,0.217c-0,0.489 0.906,1.448 1.412,1.448c0.344,0 5.594,-5.811 8.871,-9.232c0.036,-0.037 0.055,-0.073 0.055,-0.109c-0,-0.398 -1.069,-1.448 -1.431,-1.448c-0.054,0 -0.09,0.018 -0.126,0.054c-2.662,2.227 -6.3,6.391 -8.69,9.07Zm7.151,-0.706c-0.054,0.072 -0.073,0.145 -0.073,0.199c0,0.471 0.851,1.213 1.394,1.213c0.435,0 1.974,-2.082 1.974,-2.209c-0,-0.434 -0.815,-1.412 -1.322,-1.412c-0.724,0 -1.448,1.358 -1.973,2.209Zm-6.373,-6.101c-0.036,0.054 -0.054,0.109 -0.054,0.181c-0,0.416 0.779,1.213 1.159,1.213c0.362,-0.362 0.688,-0.706 0.959,-1.014c0.507,-0.507 0.996,-1.086 0.996,-1.285c-0,-0.471 -0.688,-1.268 -1.123,-1.268c-0.561,-0 -1.52,1.811 -1.937,2.173Z" style="fill-rule:nonzero;"/><path d="M290.548,236.351c-0.318,-0.084 -0.594,-0.212 -0.869,-0.254c0.085,1.526 0.085,2.289 0.127,3.498c0.53,0.636 1.548,0.805 3.964,0.805c0.53,0 1.102,0 1.76,-0.021c2.225,-0.89 3.349,-5.215 3.349,-8.882c-0,-4.791 -1.611,-5.851 -4.07,-5.851c-1.866,-0 -3.307,1.081 -4.897,3.01c-0.127,0.891 -0.021,1.866 -0.17,3.413c0.212,0 0.53,-0.318 0.679,-0.424c0.042,0.7 0.169,2.226 0.169,3.583c-0,0.403 -0.021,0.784 -0.042,1.123Zm1.081,-5.511c1.187,-1.039 2.714,-1.548 3.667,-1.548c1.272,0 1.802,1.336 1.802,2.693c-0,1.759 -1.229,4.875 -3.9,4.875c-0.361,0 -0.742,-0.042 -1.187,-0.148c0.042,-0.573 0.084,-1.314 0.084,-2.078c0,-1.272 -0.106,-2.671 -0.466,-3.794Z" style="fill-rule:nonzero;"/><path d="M300.318,232.917c0.382,0.763 0.594,3.074 0.594,4.791c-0,0.678 -0.043,1.272 -0.106,1.632c-0.021,0.064 -0.021,0.106 -0.021,0.149c0,0.572 0.699,0.975 1.229,0.975c0.297,-0 0.551,-0.127 0.572,-0.424c0.149,-1.505 0.658,-5.448 1.336,-5.512c0.318,-0.042 0.466,3.244 0.551,5.13c0.021,0.53 0.572,0.785 1.102,0.785c0.488,0 0.976,-0.212 0.997,-0.615c0.127,-1.59 1.717,-5.681 1.971,-5.66c0.467,0.042 1.145,5.448 1.145,5.512c0.021,0.551 0.509,0.89 0.933,0.89c0.296,-0 0.572,-0.191 0.572,-0.615c-0,-1.802 -0.615,-4.918 -1.102,-6.868c-0.17,-0.636 -0.785,-1.293 -1.421,-1.293c-0.466,0 -0.954,0.339 -1.272,1.251l-1.547,3.836c0,-0.53 -0.657,-4.006 -0.7,-4.26c-0.212,-0.848 -0.551,-1.209 -0.932,-1.209c-0.763,0 -1.675,1.421 -2.014,2.989c-0.043,-0.572 -0.615,-1.802 -0.657,-1.908c-0.106,-0.233 -0.255,-0.318 -0.445,-0.318c-0.361,0 -0.806,0.34 -0.806,0.636c-0,0.043 -0,0.085 0.021,0.106Z" style="fill-rule:nonzero;"/><path d="M312.485,224.714c-0.021,0.89 -0.169,1.801 -0.233,2.755c0.975,-0.296 2.078,-0.72 3.18,-0.72c0.424,-0 0.827,0.063 1.251,0.212c-0.445,1.653 -1.336,4.409 -2.417,8.14c0.233,0.233 0.445,0.424 0.636,0.424c0.127,-0 0.254,-0.085 0.403,-0.297c1.145,-3.413 1.823,-5.236 2.925,-9.582c0.043,-0.19 0.064,-0.381 0.064,-0.53c0,-0.932 -0.806,-1.25 -1.844,-1.25c-1.378,-0 -3.138,0.53 -3.965,0.848Z" style="fill-rule:nonzero;"/><path d="M133.016,332.282l0,19.806" style="fill:none;stroke:#000;stroke-width:0.77px;"/><path d="M234.675,332.282l0,19.806" style="fill:none;stroke:#000;stroke-width:0.77px;"/><path d="M367.125,332.282l0,19.806" style="fill:none;stroke:#000;stroke-width:0.77px;"/><path d="M475.902,332.282l0,19.806" style="fill:none;stroke:#000;stroke-width:0.77px;"/><path d="M479.306,332.282l-0,19.806" style="fill:none;stroke:#000;stroke-width:2.48px;"/><path d="M472.652,338.783c-0.475,0 -0.911,0.416 -0.911,0.95c-0,0.456 0.456,0.892 0.911,0.892c0.535,0 0.951,-0.436 0.951,-0.892c-0,-0.534 -0.416,-0.95 -0.951,-0.95Z" style="fill-rule:nonzero;"/><path d="M472.652,343.734c-0.475,-0 -0.911,0.416 -0.911,0.951c-0,0.455 0.456,0.891 0.911,0.891c0.535,0 0.951,-0.436 0.951,-0.891c-0,-0.535 -0.416,-0.951 -0.951,-0.951Z" style="fill-rule:nonzero;"/><path d="M44.986,311.869c-0.155,1.764 -0.309,4.647 -0.309,6.279c-0,1.049 0.095,1.406 0.44,1.406c0.584,0 0.394,-2.073 0.513,-2.526c1.894,-0.869 2.263,-0.321 2.263,-1.632l0,-0.131c0,-0.369 -0.011,-0.548 -0.25,-0.548c-0.452,-0 -1.835,0.5 -2.073,0.536l-0,-0.155c-0,-0.464 0.072,-1.179 0.084,-1.596c0.643,-0.322 1.858,-0.382 2.418,-0.501c0.31,-0.047 0.334,-0.762 0.334,-1.286c-0,-0.275 -0.072,-0.465 -0.584,-0.465c-0.929,-0 -2.812,0.393 -2.836,0.619Z" style="fill-rule:nonzero;"/><path d="M50.167,312.858c0.047,-0.202 0.107,-1.215 0.298,-1.215l0.131,0.012c0.226,-0 0.274,-0.512 0.274,-0.751c-0,-0.476 -0.167,-0.5 -0.322,-0.5c-0.488,-0 -1.299,1.978 -1.299,3.813c0,0.917 0.346,1.87 1.108,1.87c0.513,0 1.108,-0.488 1.513,-1.775c0.12,-0.37 0.191,-0.679 0.191,-0.918c0,-0.536 -0.322,-0.762 -1.12,-0.762c-0.238,-0 -0.536,0.107 -0.774,0.226Zm-0.072,0.846c0.215,-0.024 0.62,-0.226 0.93,-0.226c0.19,0 0.345,0.083 0.369,0.333c0,0.668 -0.786,1.18 -0.965,1.18c-0.286,0 -0.417,-0.417 -0.417,-0.81c0,-0.179 0.024,-0.358 0.083,-0.477Z" style="fill-rule:nonzero;"/><path d="M52.37,319.221c-0.084,0.25 -0.119,0.464 -0.119,0.619c-0,0.25 0.095,0.369 0.226,0.369c0.167,-0 0.393,-0.178 0.584,-0.548c1.489,-2.788 2.037,-4.73 3.753,-6.981c0.036,-0.06 0.047,-0.12 0.047,-0.179c0,-0.203 -0.19,-0.358 -0.417,-0.358c-0.143,0 -0.309,0.06 -0.44,0.203c-1.442,2.121 -2.574,4.277 -3.634,6.875Z" style="fill-rule:nonzero;"/><path d="M61.59,321.222c0.048,0.131 0.12,0.179 0.203,0.179c0.179,0 0.393,-0.215 0.524,-0.429c0.131,-1.549 0.322,-3.086 0.322,-4.003c-0,-1.561 -0.786,-1.907 -1.466,-1.907c-0.393,0 -0.762,0.108 -0.917,0.167c-0.024,0.417 -0.155,1.18 -0.155,1.799c0.274,-0.024 0.358,-0.035 0.393,-0.035c0.048,0 0.036,0.023 0.286,0.071c-0.476,0.25 -0.881,0.357 -1.191,0.357c-0.703,0 -1.001,-0.548 -1.001,-1.239c0,-0.345 0.072,-0.738 0.215,-1.12c0.142,-0.619 0.881,-1.906 1.465,-1.906c0.5,-0 0.584,1.609 1.215,1.609c0.298,-0 0.453,-0.346 0.453,-0.965c0,-1.466 -0.584,-2.717 -1.477,-2.717c-1.418,0 -2.836,3.038 -2.836,5.457c0,1.441 0.465,3.002 2.025,3.002c0.703,-0 1.478,-0.405 2.097,-1.489c-0.023,1.442 -0.131,2.311 -0.155,3.169Z" style="fill-rule:nonzero;"/><path d="M153.255,321.222c0.047,0.131 0.119,0.179 0.202,0.179c0.179,0 0.393,-0.215 0.524,-0.429c0.131,-1.549 0.322,-3.086 0.322,-4.003c-0,-1.561 -0.786,-1.907 -1.465,-1.907c-0.394,0 -0.763,0.108 -0.918,0.167c-0.024,0.417 -0.155,1.18 -0.155,1.799c0.274,-0.024 0.358,-0.035 0.393,-0.035c0.048,0 0.036,0.023 0.286,0.071c-0.476,0.25 -0.881,0.357 -1.191,0.357c-0.703,0 -1.001,-0.548 -1.001,-1.239c-0,-0.345 0.072,-0.738 0.215,-1.12c0.143,-0.619 0.881,-1.906 1.465,-1.906c0.5,-0 0.584,1.609 1.215,1.609c0.298,-0 0.453,-0.346 0.453,-0.965c0,-1.466 -0.584,-2.717 -1.477,-2.717c-1.418,0 -2.836,3.038 -2.836,5.457c0,1.441 0.465,3.002 2.026,3.002c0.702,-0 1.477,-0.405 2.096,-1.489c-0.023,1.442 -0.131,2.311 -0.154,3.169Z" style="fill-rule:nonzero;"/><path d="M155.339,310.738c-0.012,0.5 -0.095,1.012 -0.131,1.548c0.548,-0.166 1.168,-0.405 1.787,-0.405c0.238,0 0.465,0.036 0.703,0.119c-0.25,0.93 -0.75,2.479 -1.358,4.576c0.131,0.131 0.25,0.238 0.357,0.238c0.072,-0 0.143,-0.048 0.227,-0.167c0.643,-1.918 1.024,-2.943 1.644,-5.385c0.024,-0.107 0.036,-0.215 0.036,-0.298c0,-0.524 -0.453,-0.703 -1.037,-0.703c-0.774,0 -1.763,0.298 -2.228,0.477Z" style="fill-rule:nonzero;"/><path d="M272.814,318.942c0.487,-0.443 0.708,-1.063 0.708,-1.638c0,-0.464 -0.155,-0.929 -0.465,-1.283c-1.062,0.31 -2.168,0.442 -3.12,0.442c-2.589,0 -3.274,-0.973 -3.274,-2.832c-0,-1.504 1.571,-5.686 3.075,-5.686c1.084,-0 1.748,3.429 2.5,3.429c0.886,0 0.93,-1.704 0.93,-2.367c-0,-3.01 -1.328,-4.735 -2.943,-4.735c-2.323,-0 -5.333,4.049 -5.333,8.85c-0,2.611 0.731,6.483 4.315,6.483c1.217,-0 2.611,-0.287 3.607,-0.663Z" style="fill-rule:nonzero;"/><path d="M382.004,319.263c0.239,-0.217 0.347,-0.52 0.347,-0.802c0,-0.227 -0.076,-0.455 -0.228,-0.628c-0.519,0.152 -1.061,0.217 -1.527,0.217c-1.267,-0 -1.603,-0.477 -1.603,-1.387c0,-0.736 0.769,-2.783 1.506,-2.783c0.53,0 0.855,1.678 1.224,1.678c0.433,-0 0.455,-0.834 0.455,-1.158c0,-1.474 -0.65,-2.318 -1.441,-2.318c-1.137,0 -2.61,1.982 -2.61,4.332c0,1.278 0.357,3.174 2.112,3.174c0.596,0 1.278,-0.141 1.765,-0.325Z" style="fill-rule:nonzero;"/><path d="M430.534,321.222c0.048,0.131 0.119,0.179 0.203,0.179c0.178,0 0.393,-0.215 0.524,-0.429c0.131,-1.549 0.322,-3.086 0.322,-4.003c0,-1.561 -0.787,-1.907 -1.466,-1.907c-0.393,0 -0.762,0.108 -0.917,0.167c-0.024,0.417 -0.155,1.18 -0.155,1.799c0.274,-0.024 0.357,-0.035 0.393,-0.035c0.048,0 0.036,0.023 0.286,0.071c-0.477,0.25 -0.882,0.357 -1.192,0.357c-0.702,0 -1,-0.548 -1,-1.239c0,-0.345 0.071,-0.738 0.214,-1.12c0.143,-0.619 0.882,-1.906 1.466,-1.906c0.5,-0 0.583,1.609 1.215,1.609c0.298,-0 0.453,-0.346 0.453,-0.965c0,-1.466 -0.584,-2.717 -1.478,-2.717c-1.418,0 -2.835,3.038 -2.835,5.457c-0,1.441 0.464,3.002 2.025,3.002c0.703,-0 1.477,-0.405 2.097,-1.489c-0.024,1.442 -0.131,2.311 -0.155,3.169Z" style="fill-rule:nonzero;"/><path d="M432.619,310.738c-0.012,0.5 -0.096,1.012 -0.131,1.548c0.548,-0.166 1.167,-0.405 1.787,-0.405c0.238,0 0.464,0.036 0.703,0.119c-0.251,0.93 -0.751,2.479 -1.359,4.576c0.131,0.131 0.251,0.238 0.358,0.238c0.071,-0 0.143,-0.048 0.226,-0.167c0.644,-1.918 1.025,-2.943 1.644,-5.385c0.024,-0.107 0.036,-0.215 0.036,-0.298c-0,-0.524 -0.453,-0.703 -1.036,-0.703c-0.775,0 -1.764,0.298 -2.228,0.477Z" style="fill-rule:nonzero;"/><path d="M38.098,101.81l-0,-0.839l-1.257,0l-0,-4.491l-2.495,2.216l0,2.275l-2.695,0c0.3,-0.758 1.118,-1.796 2.455,-3.133c1.218,-1.218 1.917,-2.296 2.116,-3.194l-3.413,0c-0.16,1.956 -1.317,4.81 -2.535,6.367l0,0.799l4.072,-0c0,0.698 -0.02,1.097 -0.06,1.197c-0.12,0.22 -0.499,0.36 -1.118,0.399l-0.04,0.559l4.911,-0l-0.08,-0.578c-0.958,-0.08 -1.138,-0.18 -1.138,-0.679c-0,-0.06 -0,-0.18 0.02,-0.379l-0,-0.519l1.257,-0Z" style="fill-rule:nonzero;"/><path d="M38.098,111.845l-0,-0.838l-1.257,0l-0,-4.491l-2.495,2.216l0,2.275l-2.695,0c0.3,-0.758 1.118,-1.796 2.455,-3.134c1.218,-1.217 1.917,-2.295 2.116,-3.193l-3.413,-0c-0.16,1.956 -1.317,4.81 -2.535,6.367l0,0.798l4.072,0c0,0.699 -0.02,1.098 -0.06,1.198c-0.12,0.22 -0.499,0.359 -1.118,0.399l-0.04,0.559l4.911,0l-0.08,-0.579c-0.958,-0.08 -1.138,-0.179 -1.138,-0.678c-0,-0.06 -0,-0.18 0.02,-0.38l-0,-0.519l1.257,0Z" style="fill-rule:nonzero;"/><path d="M10.468,114.42l470.076,-0" style="fill:none;stroke:#000;stroke-width:0.46px;"/><path d="M10.468,109.468l470.076,-0" style="fill:none;stroke:#000;stroke-width:0.46px;"/><path d="M10.468,104.517l470.076,-0" style="fill:none;stroke:#000;stroke-width:0.46px;"/><path d="M10.468,99.565l470.076,0" style="fill:none;stroke:#000;stroke-width:0.46px;"/><path d="M10.468,94.614l470.076,0" style="fill:none;stroke:#000;stroke-width:0.46px;"/><path d="M24.54,113.762l0.753,3.664c0.04,0.218 0.059,0.416 0.059,0.614c-0,1.941 -1.98,3.565 -4.119,3.565c-0.654,-0 -1.288,-0.158 -1.882,-0.455c1.525,-0.159 2.674,-1.09 2.674,-2.456c-0,-1.208 -0.99,-2.476 -2.258,-2.476c-1.446,0 -2.436,1.109 -2.436,2.555c-0,2.02 1.644,3.347 3.624,3.347c2.654,-0 4.912,-1.723 4.912,-4.199c0,-0.554 -0.871,-4.476 -0.851,-4.337c2.119,-1.03 3.565,-2.852 3.565,-4.773c-0,-2.634 -2.12,-4.655 -4.754,-4.655c-0.039,0 -0.317,0.02 -0.792,0.06l-0.871,-4.179c2.951,-2.496 4.297,-5.15 4.297,-8.061c0,-2.238 -0.891,-4.615 -2.693,-7.11c-2.04,1.644 -3.209,4.931 -3.209,8.437c0,1.248 0.159,2.456 0.436,3.605c-4.516,3.782 -6.773,7.268 -6.773,10.457c0,3.743 3.862,6.853 8.06,6.853c0.931,0 1.624,-0.139 2.258,-0.456Zm-0.059,-26.024c0.653,0.673 0.99,1.465 0.99,2.396c0,1.921 -1.366,4.08 -4.04,6.457c-0.139,-0.575 -0.178,-1.208 -0.178,-1.902c0,-3.327 1.227,-6.991 2.871,-6.991c0.139,-0 0.258,0.02 0.357,0.04Zm0.416,25.212l-1.406,-6.615c0.277,-0.02 0.435,-0.04 0.495,-0.04c1.703,0 2.891,1.605 2.891,3.249c0,1.307 -0.693,2.455 -1.98,3.406Zm-1.902,-6.536l1.426,6.813c-0.693,0.377 -1.465,0.535 -2.396,0.535c-3.209,-0 -5.981,-2.396 -5.981,-5.308c0,-2.634 1.96,-5.347 5.664,-8.12l0.832,3.961c-2.06,0.436 -3.803,2.179 -3.803,4.139c-0,1.664 1.189,2.833 2.971,3.11c-1.089,-0.673 -1.624,-1.525 -1.624,-2.535c-0,-1.367 1.268,-2.377 2.911,-2.595Z" style="fill-rule:nonzero;"/><path d="M80.871,126.643l0,-66.225" style="fill:none;stroke:#000;stroke-width:0.77px;"/><path d="M80.562,126.643l84.019,0" style="fill:none;stroke:#000;stroke-width:0.77px;"/><path d="M80.562,60.418l84.019,-0" style="fill:none;stroke:#000;stroke-width:0.77px;"/><path d="M164.272,126.643l0,-66.225" style="fill:none;stroke:#000;stroke-width:0.77px;"/><rect x="229.414" y="99.522" width="5.565" height="2.377" style="fill-rule:nonzero;"/><g><path d="M355.943,83.845c-0.459,0 -0.855,-0.044 -1.182,-0.141c-0.326,-0.097 -0.635,-0.221 -0.917,-0.353l-0,-1.076l0.053,-0c0.282,0.265 0.6,0.476 0.961,0.617c0.353,0.141 0.697,0.221 1.032,0.221c0.468,0 0.82,-0.097 1.067,-0.3c0.239,-0.194 0.362,-0.45 0.362,-0.776c0,-0.256 -0.071,-0.459 -0.194,-0.626c-0.124,-0.159 -0.326,-0.274 -0.6,-0.353c-0.203,-0.062 -0.379,-0.106 -0.547,-0.141c-0.158,-0.044 -0.37,-0.088 -0.617,-0.15c-0.22,-0.062 -0.415,-0.133 -0.591,-0.221c-0.176,-0.088 -0.326,-0.211 -0.467,-0.353c-0.133,-0.141 -0.23,-0.308 -0.309,-0.493c-0.071,-0.194 -0.106,-0.415 -0.106,-0.662c0,-0.52 0.203,-0.961 0.609,-1.305c0.405,-0.353 0.917,-0.529 1.552,-0.529c0.353,0 0.697,0.035 1.014,0.105c0.318,0.071 0.618,0.177 0.891,0.309l0,1.014l-0.062,-0c-0.211,-0.185 -0.467,-0.344 -0.785,-0.485c-0.317,-0.141 -0.652,-0.211 -1.005,-0.211c-0.397,0 -0.715,0.097 -0.961,0.282c-0.247,0.185 -0.362,0.423 -0.362,0.732c-0,0.265 0.07,0.485 0.212,0.644c0.141,0.159 0.352,0.282 0.626,0.353c0.176,0.052 0.397,0.105 0.661,0.167c0.265,0.062 0.477,0.124 0.653,0.168c0.441,0.141 0.758,0.344 0.97,0.617c0.203,0.273 0.3,0.609 0.3,1.006c-0,0.246 -0.053,0.493 -0.15,0.74c-0.106,0.247 -0.247,0.45 -0.432,0.618c-0.203,0.185 -0.441,0.335 -0.697,0.432c-0.256,0.097 -0.582,0.15 -0.979,0.15Z" style="fill-rule:nonzero;"/><path d="M361.314,83.862c-0.379,-0 -0.705,-0.044 -0.987,-0.149c-0.283,-0.097 -0.521,-0.247 -0.724,-0.441c-0.22,-0.221 -0.379,-0.494 -0.467,-0.803c-0.097,-0.309 -0.141,-0.697 -0.141,-1.147l-0,-4.004l0.855,-0l0,4.004c0,0.291 0.018,0.538 0.053,0.741c0.036,0.203 0.115,0.388 0.221,0.547c0.114,0.176 0.273,0.3 0.467,0.388c0.194,0.097 0.432,0.141 0.723,0.141c0.265,0 0.503,-0.044 0.706,-0.141c0.212,-0.088 0.37,-0.212 0.485,-0.388c0.106,-0.167 0.177,-0.344 0.221,-0.538c0.035,-0.203 0.053,-0.441 0.053,-0.732l-0,-4.022l0.855,-0l0,4.004c0,0.441 -0.044,0.821 -0.141,1.138c-0.088,0.326 -0.247,0.591 -0.476,0.812c-0.203,0.202 -0.441,0.344 -0.706,0.449c-0.273,0.097 -0.608,0.141 -0.997,0.141Z" style="fill-rule:nonzero;"/><path d="M369.205,81.763c-0,0.318 -0.061,0.6 -0.185,0.847c-0.114,0.238 -0.282,0.441 -0.485,0.6c-0.238,0.185 -0.494,0.326 -0.776,0.406c-0.273,0.079 -0.626,0.114 -1.067,0.114l-1.835,0l-0,-6.412l1.703,-0c0.449,-0 0.793,0.018 1.023,0.044c0.229,0.027 0.449,0.106 0.661,0.212c0.229,0.124 0.397,0.291 0.503,0.485c0.106,0.203 0.159,0.432 0.159,0.706c0,0.3 -0.08,0.573 -0.239,0.811c-0.158,0.238 -0.379,0.423 -0.661,0.556l0,0.035c0.379,0.106 0.67,0.291 0.882,0.564c0.212,0.274 0.317,0.618 0.317,1.032Zm-1.19,-2.875c0,-0.159 -0.027,-0.291 -0.08,-0.406c-0.052,-0.114 -0.132,-0.202 -0.247,-0.264c-0.141,-0.079 -0.291,-0.132 -0.458,-0.15c-0.168,-0.018 -0.406,-0.027 -0.706,-0.027l-0.82,-0l0,1.879l0.97,0c0.274,0 0.468,-0.009 0.591,-0.035c0.124,-0.027 0.256,-0.088 0.397,-0.177c0.124,-0.079 0.221,-0.185 0.273,-0.326c0.053,-0.132 0.08,-0.3 0.08,-0.494Zm0.3,2.911c0,-0.247 -0.036,-0.441 -0.097,-0.6c-0.071,-0.159 -0.212,-0.291 -0.424,-0.397c-0.132,-0.071 -0.282,-0.115 -0.441,-0.141c-0.158,-0.018 -0.388,-0.027 -0.679,-0.027l-0.97,0l0,2.364l0.697,-0c0.37,-0 0.67,-0.009 0.882,-0.044c0.22,-0.035 0.405,-0.115 0.573,-0.22c0.159,-0.115 0.273,-0.239 0.353,-0.38c0.07,-0.15 0.106,-0.335 0.106,-0.555Z" style="fill-rule:nonzero;"/><rect x="369.832" y="80.537" width="2.425" height="0.777" style="fill-rule:nonzero;"/><path d="M378.354,80.529c0,0.591 -0.115,1.12 -0.353,1.587c-0.238,0.468 -0.556,0.838 -0.953,1.103c-0.326,0.203 -0.661,0.335 -0.996,0.405c-0.327,0.071 -0.759,0.106 -1.279,0.106l-1.473,0l-0,-6.412l1.455,-0c0.609,-0 1.076,0.044 1.42,0.133c0.344,0.097 0.635,0.22 0.882,0.379c0.406,0.264 0.732,0.635 0.953,1.085c0.229,0.449 0.344,0.987 0.344,1.614Zm-0.891,-0.009c0,-0.494 -0.08,-0.917 -0.238,-1.27c-0.168,-0.344 -0.415,-0.618 -0.732,-0.812c-0.23,-0.141 -0.468,-0.238 -0.724,-0.299c-0.264,-0.062 -0.582,-0.089 -0.97,-0.089l-0.652,-0l0,4.948l0.652,-0c0.38,-0 0.715,-0.026 0.997,-0.088c0.282,-0.062 0.547,-0.176 0.776,-0.335c0.3,-0.203 0.52,-0.468 0.67,-0.803c0.15,-0.335 0.221,-0.758 0.221,-1.252Z" style="fill-rule:nonzero;"/><path d="M383.815,78.05c0.247,0.283 0.432,0.635 0.564,1.05c0.141,0.414 0.203,0.891 0.203,1.429c0,0.52 -0.062,0.987 -0.194,1.402c-0.132,0.423 -0.326,0.776 -0.573,1.058c-0.265,0.3 -0.565,0.521 -0.918,0.662c-0.344,0.141 -0.732,0.211 -1.146,0.211c-0.441,-0 -0.829,-0.07 -1.173,-0.22c-0.353,-0.141 -0.653,-0.362 -0.9,-0.653c-0.247,-0.282 -0.432,-0.635 -0.564,-1.049c-0.133,-0.415 -0.203,-0.891 -0.203,-1.411c0,-0.538 0.07,-1.015 0.203,-1.42c0.132,-0.415 0.326,-0.759 0.573,-1.059c0.247,-0.282 0.538,-0.494 0.891,-0.644c0.344,-0.149 0.741,-0.22 1.173,-0.22c0.432,0 0.829,0.071 1.173,0.229c0.353,0.15 0.652,0.362 0.891,0.635Zm-0.115,2.479c0,-0.424 -0.053,-0.803 -0.141,-1.129c-0.088,-0.327 -0.221,-0.6 -0.388,-0.812c-0.168,-0.229 -0.371,-0.388 -0.609,-0.502c-0.247,-0.106 -0.511,-0.168 -0.811,-0.168c-0.309,-0 -0.582,0.053 -0.812,0.168c-0.229,0.105 -0.432,0.273 -0.617,0.502c-0.168,0.212 -0.3,0.485 -0.388,0.821c-0.088,0.326 -0.132,0.705 -0.132,1.12c0,0.838 0.176,1.481 0.529,1.931c0.353,0.441 0.829,0.67 1.42,0.67c0.591,0 1.067,-0.229 1.42,-0.67c0.353,-0.45 0.529,-1.093 0.529,-1.931Z" style="fill-rule:nonzero;"/><path d="M391.016,83.73l-0.856,0l0,-5.521l-1.666,3.757l-0.521,0l-1.658,-3.757l0,5.521l-0.794,0l-0,-6.412l1.165,-0l1.596,3.572l1.552,-3.572l1.182,-0l-0,6.412Z" style="fill-rule:nonzero;"/><path d="M394.555,83.73l-2.496,0l-0,-0.652l0.82,0l-0,-5.107l-0.82,0l-0,-0.653l2.496,-0l-0,0.653l-0.82,0l-0,5.107l0.82,0l-0,0.652Z" style="fill-rule:nonzero;"/><path d="M400.189,83.73l-0.961,0l-2.831,-5.53l0,5.53l-0.794,0l-0,-6.412l1.208,-0l2.576,5.08l-0,-5.08l0.802,-0l-0,6.412Z" style="fill-rule:nonzero;"/><path d="M400.791,83.73l2.161,-6.412l1.049,-0l2.161,6.412l-0.899,0l-0.574,-1.79l-2.452,0l-0.582,1.79l-0.864,0Zm3.66,-2.522l-0.996,-3.017l-0.979,3.017l1.975,0Z" style="fill-rule:nonzero;"/><path d="M411.361,83.73l-0.961,0l-2.831,-5.53l0,5.53l-0.794,0l-0,-6.412l1.208,-0l2.576,5.08l-0,-5.08l0.802,-0l-0,6.412Z" style="fill-rule:nonzero;"/><path d="M414.159,83.73l-0,-5.653l-2.152,-0l-0,-0.759l5.151,-0l-0,0.759l-2.152,-0l0,5.653l-0.847,0Z" style="fill-rule:nonzero;"/></g><rect x="430.565" y="99.522" width="5.566" height="2.377" style="fill-rule:nonzero;"/><path d="M290.688,129.274l-0,-66.225" style="fill:none;stroke:#000;stroke-width:0.77px;"/><path d="M290.378,129.274l177.014,0" style="fill:none;stroke:#000;stroke-width:0.77px;"/><path d="M290.378,63.049l177.014,0" style="fill:none;stroke:#000;stroke-width:0.77px;"/><path d="M467.082,129.274l0,-66.225" style="fill:none;stroke:#000;stroke-width:0.77px;"/><path d="M154.09,35.934l0.802,-0l-0,3.724c0.099,-0.154 0.208,-0.286 0.307,-0.395c0.099,-0.11 0.198,-0.209 0.297,-0.286c0.384,-0.297 0.824,-0.44 1.329,-0.44c0.758,-0 1.384,0.286 1.879,0.868c0.505,0.583 0.758,1.297 0.758,2.132c0,0.857 -0.253,1.582 -0.758,2.186c-0.539,0.648 -1.22,0.967 -2.033,0.967c-0.45,0 -0.835,-0.099 -1.164,-0.297c-0.209,-0.121 -0.418,-0.286 -0.615,-0.505l-0.209,0.659l-0.593,-0l-0,-8.613Zm0.802,5.416l-0,1.703c0.099,0.121 0.208,0.23 0.307,0.329c0.099,0.099 0.198,0.176 0.286,0.242c0.318,0.231 0.692,0.341 1.098,0.341c0.561,-0 1.033,-0.231 1.396,-0.693c0.362,-0.472 0.549,-1.054 0.549,-1.724c-0,-0.704 -0.209,-1.275 -0.615,-1.725c-0.352,-0.385 -0.758,-0.571 -1.22,-0.571c-0.494,0 -0.922,0.208 -1.285,0.637c-0.341,0.406 -0.516,0.901 -0.516,1.461Z" style="fill-rule:nonzero;"/><path d="M164.832,40.746l0,2.768c0,0.121 0.033,0.231 0.088,0.33c0.055,0.088 0.154,0.131 0.297,0.131l0.11,0c0.033,-0.01 0.054,-0.01 0.087,-0.021c0.044,-0.011 0.088,-0.033 0.121,-0.044c0.033,-0.011 0.055,-0.022 0.077,-0.033l-0,0.615c-0.132,0.044 -0.263,0.077 -0.395,0.099c-0.132,0.011 -0.231,0.022 -0.308,0.022c-0.373,0 -0.615,-0.099 -0.736,-0.297c-0.099,-0.121 -0.143,-0.395 -0.143,-0.802c-0.099,0.165 -0.187,0.308 -0.285,0.429c-0.099,0.12 -0.187,0.219 -0.286,0.296c-0.385,0.297 -0.824,0.451 -1.329,0.451c-0.539,0 -1,-0.154 -1.396,-0.473c-0.406,-0.34 -0.615,-0.769 -0.615,-1.285c0,-0.648 0.33,-1.132 0.989,-1.439c0.242,-0.121 0.56,-0.22 0.967,-0.308c0.395,-0.088 0.868,-0.165 1.428,-0.242l0.527,-0.055c-0,-0.516 -0.132,-0.911 -0.384,-1.197c-0.264,-0.297 -0.648,-0.439 -1.154,-0.439c-0.187,0 -0.373,0.022 -0.56,0.076c-0.187,0.044 -0.385,0.121 -0.571,0.22c-0.099,0.055 -0.22,0.132 -0.341,0.209c-0.121,0.077 -0.264,0.187 -0.406,0.307l-0,-0.9c0.626,-0.418 1.296,-0.627 2.01,-0.627c0.736,-0 1.296,0.231 1.692,0.693c0.34,0.406 0.516,0.911 0.516,1.516Zm-0.802,1.153l-0,-0.351l-0.373,0.044c-0.912,0.098 -1.56,0.219 -1.934,0.384c-0.494,0.198 -0.747,0.516 -0.747,0.967c-0,0.132 0.033,0.263 0.088,0.384c0.055,0.121 0.143,0.22 0.242,0.319c0.099,0.099 0.23,0.176 0.384,0.231c0.143,0.055 0.308,0.088 0.495,0.088c0.494,-0 0.933,-0.198 1.307,-0.605c0.362,-0.406 0.538,-0.901 0.538,-1.461Z" style="fill-rule:nonzero;"/><path d="M166.358,44.041l0,-0.955c0.451,0.362 0.912,0.626 1.385,0.769c0.142,0.033 0.274,0.066 0.406,0.088c0.132,0.011 0.264,0.022 0.407,0.022c0.45,-0 0.813,-0.099 1.109,-0.308c0.297,-0.22 0.451,-0.462 0.451,-0.736c-0,-0.143 -0.055,-0.297 -0.165,-0.451c-0.154,-0.186 -0.561,-0.362 -1.231,-0.516c-0.791,-0.198 -1.318,-0.362 -1.582,-0.494c-0.516,-0.297 -0.769,-0.703 -0.769,-1.231c0,-0.494 0.209,-0.89 0.638,-1.208c0.428,-0.319 0.966,-0.484 1.614,-0.484c0.297,-0 0.561,0.022 0.791,0.077c0.231,0.055 0.451,0.121 0.66,0.209c0.208,0.077 0.395,0.187 0.571,0.308l0,0.955c-0.308,-0.252 -0.626,-0.461 -0.967,-0.604c-0.34,-0.154 -0.692,-0.23 -1.066,-0.23c-0.373,0 -0.692,0.087 -0.966,0.252c-0.275,0.165 -0.418,0.385 -0.418,0.659c-0,0.363 0.33,0.649 0.989,0.857c0.308,0.088 0.615,0.176 0.912,0.264c0.296,0.088 0.604,0.176 0.912,0.264c0.67,0.285 0.999,0.714 0.999,1.296c-0,0.494 -0.23,0.923 -0.692,1.296c-0.472,0.363 -1.054,0.55 -1.747,0.55c-0.307,0 -0.604,-0.033 -0.9,-0.099c-0.473,-0.099 -0.912,-0.286 -1.341,-0.55Z" style="fill-rule:nonzero;"/><rect x="171.915" y="35.934" width="0.791" height="8.613" style="fill-rule:nonzero;"/><path d="M173.693,38.669l0.791,0l-0,5.878l-0.791,-0l-0,-5.878Zm0.384,-2.483c0.154,0 0.286,0.055 0.385,0.154c0.099,0.099 0.154,0.253 0.154,0.44c-0,0.186 -0.044,0.34 -0.143,0.439c-0.099,0.099 -0.231,0.154 -0.396,0.154c-0.164,-0 -0.296,-0.055 -0.384,-0.176c-0.099,-0.121 -0.143,-0.253 -0.143,-0.406c0,-0.242 0.055,-0.407 0.165,-0.484c0.11,-0.077 0.231,-0.121 0.362,-0.121Z" style="fill-rule:nonzero;"/><path d="M176.636,38.669l0.791,0l0,6.317c0,0.56 -0.165,0.978 -0.483,1.242c-0.275,0.23 -0.616,0.351 -1.044,0.351c-0.198,0 -0.363,-0.022 -0.494,-0.055c-0.132,-0.033 -0.264,-0.088 -0.396,-0.154l-0,-0.725c0.132,0.066 0.264,0.121 0.396,0.165c0.12,0.033 0.252,0.055 0.373,0.055c0.275,-0 0.494,-0.077 0.637,-0.242c0.143,-0.164 0.22,-0.395 0.22,-0.681l0,-6.273Zm0.341,-2.483c0.153,0 0.285,0.055 0.384,0.154c0.099,0.099 0.154,0.253 0.154,0.44c-0,0.186 -0.044,0.34 -0.143,0.439c-0.099,0.099 -0.231,0.154 -0.395,0.154c-0.165,-0 -0.297,-0.055 -0.385,-0.176c-0.099,-0.121 -0.143,-0.253 -0.143,-0.406c0,-0.242 0.055,-0.407 0.165,-0.484c0.11,-0.077 0.231,-0.121 0.363,-0.121Z" style="fill-rule:nonzero;"/><path d="M183.634,40.614l0,3.933l-0.791,-0l0,-3.878c0,-0.407 -0.154,-0.747 -0.451,-1.011c-0.296,-0.275 -0.659,-0.406 -1.076,-0.406c-0.561,0 -1.033,0.23 -1.44,0.692c-0.406,0.472 -0.604,0.999 -0.604,1.582l0,3.021l-0.747,-0l-0,-5.878l0.692,0l0.033,1.099c0.198,-0.297 0.429,-0.549 0.692,-0.747c0.429,-0.319 0.923,-0.484 1.462,-0.484c0.626,-0 1.153,0.187 1.582,0.572c0.428,0.373 0.648,0.879 0.648,1.505Z" style="fill-rule:nonzero;"/><path d="M189.83,41.372l-4.472,0c0,0.846 0.198,1.483 0.593,1.933c0.385,0.44 0.901,0.66 1.539,0.66c0.483,-0 0.944,-0.154 1.395,-0.462c0.121,-0.077 0.252,-0.176 0.395,-0.297c0.143,-0.12 0.286,-0.263 0.451,-0.428l0,0.956c-0.176,0.132 -0.341,0.252 -0.484,0.351c-0.154,0.099 -0.296,0.176 -0.428,0.242c-0.462,0.242 -0.923,0.363 -1.384,0.363c-0.802,0 -1.473,-0.275 -2.033,-0.824c-0.604,-0.583 -0.901,-1.33 -0.901,-2.252c0,-0.868 0.275,-1.604 0.813,-2.187c0.55,-0.593 1.231,-0.89 2.033,-0.89c0.78,-0 1.406,0.286 1.867,0.857c0.407,0.517 0.616,1.176 0.616,1.978Zm-4.362,-0.67l3.439,-0c-0.088,-0.495 -0.275,-0.868 -0.561,-1.11c-0.296,-0.253 -0.648,-0.373 -1.054,-0.373c-0.451,-0 -0.835,0.142 -1.154,0.428c-0.296,0.264 -0.516,0.615 -0.67,1.055Z" style="fill-rule:nonzero;"/><path d="M195.804,40.614l0,3.933l-0.791,-0l0,-3.878c0,-0.407 -0.153,-0.747 -0.45,-1.011c-0.297,-0.275 -0.659,-0.406 -1.077,-0.406c-0.56,0 -1.032,0.23 -1.439,0.692c-0.406,0.472 -0.604,0.999 -0.604,1.582l-0,3.021l-0.747,-0l-0,-5.878l0.692,0l0.033,1.099c0.198,-0.297 0.428,-0.549 0.692,-0.747c0.428,-0.319 0.923,-0.484 1.461,-0.484c0.626,-0 1.154,0.187 1.582,0.572c0.429,0.373 0.648,0.879 0.648,1.505Z" style="fill-rule:nonzero;"/><path d="M200.242,44.041l0,-0.955c0.451,0.362 0.912,0.626 1.384,0.769c0.143,0.033 0.275,0.066 0.407,0.088c0.132,0.011 0.264,0.022 0.406,0.022c0.451,-0 0.813,-0.099 1.11,-0.308c0.297,-0.22 0.45,-0.462 0.45,-0.736c-0,-0.143 -0.055,-0.297 -0.164,-0.451c-0.154,-0.186 -0.561,-0.362 -1.231,-0.516c-0.791,-0.198 -1.318,-0.362 -1.582,-0.494c-0.516,-0.297 -0.769,-0.703 -0.769,-1.231c0,-0.494 0.209,-0.89 0.637,-1.208c0.429,-0.319 0.967,-0.484 1.615,-0.484c0.297,-0 0.561,0.022 0.791,0.077c0.231,0.055 0.451,0.121 0.659,0.209c0.209,0.077 0.396,0.187 0.572,0.308l-0,0.955c-0.308,-0.252 -0.626,-0.461 -0.967,-0.604c-0.341,-0.154 -0.692,-0.23 -1.066,-0.23c-0.373,0 -0.692,0.087 -0.966,0.252c-0.275,0.165 -0.418,0.385 -0.418,0.659c0,0.363 0.33,0.649 0.989,0.857c0.307,0.088 0.615,0.176 0.912,0.264c0.296,0.088 0.604,0.176 0.912,0.264c0.67,0.285 0.999,0.714 0.999,1.296c-0,0.494 -0.23,0.923 -0.692,1.296c-0.472,0.363 -1.055,0.55 -1.747,0.55c-0.307,0 -0.604,-0.033 -0.9,-0.099c-0.473,-0.099 -0.912,-0.286 -1.341,-0.55Z" style="fill-rule:nonzero;"/><path d="M206.568,44.019l-0,2.417l-0.769,0l-0,-7.767l0.714,0l0.044,1.066c0.242,-0.396 0.516,-0.692 0.835,-0.89c0.319,-0.209 0.692,-0.308 1.143,-0.308c0.736,-0 1.34,0.286 1.823,0.857c0.253,0.286 0.44,0.605 0.561,0.967c0.12,0.352 0.186,0.747 0.186,1.187c-0,0.911 -0.274,1.658 -0.824,2.252c-0.549,0.593 -1.208,0.89 -1.966,0.89c-0.385,0 -0.736,-0.077 -1.055,-0.242c-0.099,-0.033 -0.197,-0.088 -0.307,-0.165c-0.11,-0.077 -0.242,-0.165 -0.385,-0.264Zm-0,-2.603l-0,1.758c0.121,0.109 0.231,0.208 0.33,0.285c0.099,0.077 0.186,0.132 0.263,0.187c0.363,0.209 0.725,0.319 1.088,0.319c0.582,-0 1.066,-0.231 1.439,-0.693c0.385,-0.483 0.571,-1.065 0.571,-1.757c0,-0.649 -0.175,-1.187 -0.527,-1.615c-0.34,-0.429 -0.78,-0.648 -1.318,-0.648c-0.55,0 -1,0.241 -1.362,0.714c-0.319,0.428 -0.484,0.911 -0.484,1.45Z" style="fill-rule:nonzero;"/><path d="M217.048,41.372l-4.471,0c-0,0.846 0.197,1.483 0.593,1.933c0.384,0.44 0.901,0.66 1.538,0.66c0.483,-0 0.945,-0.154 1.395,-0.462c0.121,-0.077 0.253,-0.176 0.396,-0.297c0.142,-0.12 0.285,-0.263 0.45,-0.428l0,0.956c-0.176,0.132 -0.341,0.252 -0.483,0.351c-0.154,0.099 -0.297,0.176 -0.429,0.242c-0.461,0.242 -0.923,0.363 -1.384,0.363c-0.802,0 -1.472,-0.275 -2.033,-0.824c-0.604,-0.583 -0.9,-1.33 -0.9,-2.252c0,-0.868 0.274,-1.604 0.813,-2.187c0.549,-0.593 1.23,-0.89 2.032,-0.89c0.78,-0 1.406,0.286 1.868,0.857c0.406,0.517 0.615,1.176 0.615,1.978Zm-4.362,-0.67l3.439,-0c-0.088,-0.495 -0.275,-0.868 -0.56,-1.11c-0.297,-0.253 -0.648,-0.373 -1.055,-0.373c-0.45,-0 -0.835,0.142 -1.153,0.428c-0.297,0.264 -0.517,0.615 -0.671,1.055Z" style="fill-rule:nonzero;"/><rect x="217.914" y="35.934" width="0.791" height="8.613" style="fill-rule:nonzero;"/><path d="M224.91,41.372l-4.471,0c-0,0.846 0.198,1.483 0.593,1.933c0.385,0.44 0.901,0.66 1.538,0.66c0.484,-0 0.945,-0.154 1.395,-0.462c0.121,-0.077 0.253,-0.176 0.396,-0.297c0.143,-0.12 0.285,-0.263 0.45,-0.428l0,0.956c-0.175,0.132 -0.34,0.252 -0.483,0.351c-0.154,0.099 -0.297,0.176 -0.429,0.242c-0.461,0.242 -0.922,0.363 -1.384,0.363c-0.802,0 -1.472,-0.275 -2.032,-0.824c-0.604,-0.583 -0.901,-1.33 -0.901,-2.252c0,-0.868 0.275,-1.604 0.813,-2.187c0.549,-0.593 1.23,-0.89 2.032,-0.89c0.78,-0 1.407,0.286 1.868,0.857c0.406,0.517 0.615,1.176 0.615,1.978Zm-4.361,-0.67l3.438,-0c-0.088,-0.495 -0.274,-0.868 -0.56,-1.11c-0.297,-0.253 -0.648,-0.373 -1.055,-0.373c-0.45,-0 -0.835,0.142 -1.153,0.428c-0.297,0.264 -0.516,0.615 -0.67,1.055Z" style="fill-rule:nonzero;"/><path d="M230.885,40.614l-0,3.933l-0.791,-0l-0,-3.878c-0,-0.407 -0.154,-0.747 -0.45,-1.011c-0.297,-0.275 -0.66,-0.406 -1.077,-0.406c-0.56,0 -1.033,0.23 -1.439,0.692c-0.407,0.472 -0.605,0.999 -0.605,1.582l-0,3.021l-0.747,-0l0,-5.878l0.693,0l0.033,1.099c0.197,-0.297 0.428,-0.549 0.692,-0.747c0.428,-0.319 0.922,-0.484 1.461,-0.484c0.626,-0 1.153,0.187 1.582,0.572c0.428,0.373 0.648,0.879 0.648,1.505Z" style="fill-rule:nonzero;"/><path d="M244.189,40.779l-0,3.768l-0.802,-0l-0,-3.955c-0,-0.418 -0.143,-0.758 -0.429,-1.011c-0.242,-0.22 -0.527,-0.329 -0.857,-0.329c-0.494,0 -0.934,0.23 -1.318,0.681c-0.385,0.45 -0.571,0.999 -0.571,1.659l0,2.955l-0.802,-0l0,-3.955c0,-0.396 -0.132,-0.714 -0.407,-0.956c-0.253,-0.253 -0.549,-0.384 -0.879,-0.384c-0.472,0 -0.901,0.208 -1.274,0.637c-0.407,0.472 -0.615,1.043 -0.615,1.735l0,2.923l-0.802,-0l-0,-5.878l0.747,0l0.033,0.934c0.208,-0.34 0.516,-0.615 0.912,-0.813c0.351,-0.165 0.703,-0.253 1.065,-0.253c0.56,-0 1.022,0.165 1.406,0.484c0.275,0.242 0.451,0.483 0.528,0.725c0.143,-0.275 0.351,-0.516 0.626,-0.736c0.428,-0.319 0.89,-0.473 1.406,-0.473c0.626,-0 1.11,0.187 1.45,0.561c0.385,0.428 0.583,0.988 0.583,1.681Z" style="fill-rule:nonzero;"/><path d="M250.405,41.372l-4.472,0c-0,0.846 0.198,1.483 0.594,1.933c0.384,0.44 0.9,0.66 1.538,0.66c0.483,-0 0.944,-0.154 1.395,-0.462c0.121,-0.077 0.253,-0.176 0.395,-0.297c0.143,-0.12 0.286,-0.263 0.451,-0.428l-0,0.956c-0.176,0.132 -0.341,0.252 -0.484,0.351c-0.153,0.099 -0.296,0.176 -0.428,0.242c-0.461,0.242 -0.923,0.363 -1.384,0.363c-0.802,0 -1.472,-0.275 -2.033,-0.824c-0.604,-0.583 -0.901,-1.33 -0.901,-2.252c0,-0.868 0.275,-1.604 0.813,-2.187c0.55,-0.593 1.231,-0.89 2.033,-0.89c0.78,-0 1.406,0.286 1.867,0.857c0.407,0.517 0.616,1.176 0.616,1.978Zm-4.362,-0.67l3.439,-0c-0.088,-0.495 -0.275,-0.868 -0.56,-1.11c-0.297,-0.253 -0.649,-0.373 -1.055,-0.373c-0.451,-0 -0.835,0.142 -1.154,0.428c-0.296,0.264 -0.516,0.615 -0.67,1.055Z" style="fill-rule:nonzero;"/><path d="M251.963,36.933l0.725,0l0,1.725l1.549,-0l-0,0.714l-1.549,0l0,3.736c0,0.307 0.055,0.527 0.176,0.659c0.11,0.132 0.308,0.198 0.582,0.198c0.165,-0 0.297,-0.022 0.418,-0.055c0.109,-0.033 0.23,-0.088 0.373,-0.143l-0,0.714c-0.121,0.033 -0.253,0.077 -0.417,0.11c-0.165,0.033 -0.341,0.044 -0.506,0.044c-0.439,0 -0.78,-0.099 -1.021,-0.297c-0.275,-0.209 -0.407,-0.538 -0.407,-0.989l0,-3.977l-0.989,0l0,-0.714l0.989,-0l0.077,-1.725Z" style="fill-rule:nonzero;"/><path d="M263.113,40.746l0,2.768c0,0.121 0.033,0.231 0.088,0.33c0.055,0.088 0.154,0.131 0.297,0.131l0.11,0c0.033,-0.01 0.055,-0.01 0.088,-0.021c0.044,-0.011 0.088,-0.033 0.121,-0.044c0.033,-0.011 0.055,-0.022 0.077,-0.033l0,0.615c-0.132,0.044 -0.264,0.077 -0.396,0.099c-0.132,0.011 -0.231,0.022 -0.308,0.022c-0.373,0 -0.615,-0.099 -0.736,-0.297c-0.099,-0.121 -0.142,-0.395 -0.142,-0.802c-0.099,0.165 -0.187,0.308 -0.286,0.429c-0.099,0.12 -0.187,0.219 -0.286,0.296c-0.384,0.297 -0.824,0.451 -1.329,0.451c-0.538,0 -1,-0.154 -1.395,-0.473c-0.407,-0.34 -0.615,-0.769 -0.615,-1.285c0,-0.648 0.329,-1.132 0.988,-1.439c0.242,-0.121 0.561,-0.22 0.967,-0.308c0.396,-0.088 0.868,-0.165 1.428,-0.242l0.528,-0.055c0,-0.516 -0.132,-0.911 -0.385,-1.197c-0.264,-0.297 -0.648,-0.439 -1.154,-0.439c-0.186,0 -0.373,0.022 -0.56,0.076c-0.187,0.044 -0.384,0.121 -0.571,0.22c-0.099,0.055 -0.22,0.132 -0.341,0.209c-0.12,0.077 -0.263,0.187 -0.406,0.307l-0,-0.9c0.626,-0.418 1.296,-0.627 2.01,-0.627c0.736,-0 1.297,0.231 1.692,0.693c0.341,0.406 0.516,0.911 0.516,1.516Zm-0.801,1.153l0,-0.351l-0.374,0.044c-0.912,0.098 -1.56,0.219 -1.934,0.384c-0.494,0.198 -0.747,0.516 -0.747,0.967c-0,0.132 0.033,0.263 0.088,0.384c0.055,0.121 0.143,0.22 0.242,0.319c0.099,0.099 0.231,0.176 0.385,0.231c0.142,0.055 0.307,0.088 0.494,0.088c0.494,-0 0.934,-0.198 1.307,-0.605c0.363,-0.406 0.539,-0.901 0.539,-1.461Z" style="fill-rule:nonzero;"/><path d="M264.75,35.934l0.802,-0l0,5.328l2.702,-2.593l1.121,0l-2.472,2.285l2.823,3.593l-1.087,-0l-2.329,-3.065l-0.758,0.703l0,2.362l-0.802,-0l0,-8.613Z" style="fill-rule:nonzero;"/><path d="M270.395,35.934l0.802,-0l-0,5.328l2.702,-2.593l1.121,0l-2.472,2.285l2.823,3.593l-1.087,-0l-2.329,-3.065l-0.758,0.703l-0,2.362l-0.802,-0l-0,-8.613Z" style="fill-rule:nonzero;"/><path d="M278.787,44.69c-0.758,0 -1.418,-0.275 -1.989,-0.824c-0.604,-0.583 -0.912,-1.33 -0.912,-2.252c-0,-0.868 0.264,-1.604 0.802,-2.187c0.55,-0.593 1.231,-0.89 2.033,-0.89c0.802,-0 1.472,0.297 2.021,0.89c0.538,0.583 0.813,1.308 0.813,2.176c-0,0.911 -0.297,1.658 -0.879,2.252c-0.538,0.56 -1.175,0.835 -1.889,0.835Zm-0.077,-0.725c0.527,-0 0.999,-0.22 1.406,-0.66c0.395,-0.45 0.593,-1.01 0.593,-1.702c0,-0.715 -0.209,-1.286 -0.637,-1.736c-0.385,-0.407 -0.835,-0.615 -1.351,-0.615c-0.528,0 -0.978,0.208 -1.352,0.637c-0.406,0.472 -0.615,1.043 -0.615,1.725c-0,0.692 0.198,1.263 0.604,1.724c0.374,0.418 0.824,0.627 1.352,0.627Z" style="fill-rule:nonzero;"/><path d="M285.191,44.69c-0.758,0 -1.417,-0.275 -1.988,-0.824c-0.605,-0.583 -0.912,-1.33 -0.912,-2.252c-0,-0.868 0.263,-1.604 0.802,-2.187c0.549,-0.593 1.23,-0.89 2.032,-0.89c0.802,-0 1.472,0.297 2.022,0.89c0.538,0.583 0.812,1.308 0.812,2.176c0,0.911 -0.296,1.658 -0.878,2.252c-0.539,0.56 -1.176,0.835 -1.89,0.835Zm-0.077,-0.725c0.527,-0 1,-0.22 1.406,-0.66c0.396,-0.45 0.594,-1.01 0.594,-1.702c0,-0.715 -0.209,-1.286 -0.638,-1.736c-0.384,-0.407 -0.835,-0.615 -1.351,-0.615c-0.527,0 -0.978,0.208 -1.351,0.637c-0.407,0.472 -0.615,1.043 -0.615,1.725c-0,0.692 0.197,1.263 0.604,1.724c0.373,0.418 0.824,0.627 1.351,0.627Z" style="fill-rule:nonzero;"/><path d="M292.002,38.669l0,0.791c-0.077,-0.033 -0.143,-0.055 -0.198,-0.066c-0.055,-0.022 -0.099,-0.033 -0.132,-0.044c-0.033,-0.011 -0.077,-0.011 -0.109,-0.011c-0.044,-0.011 -0.099,-0.011 -0.165,-0.011c-0.539,0 -0.978,0.264 -1.319,0.78c-0.296,0.473 -0.439,1.011 -0.439,1.593l0,2.846l-0.791,-0l-0,-5.878l0.725,0l0.055,1.011c0.187,-0.308 0.352,-0.527 0.516,-0.659c0.33,-0.275 0.725,-0.407 1.187,-0.407c0.121,0 0.241,0 0.351,0.011c0.099,0.011 0.209,0.022 0.319,0.044Z" style="fill-rule:nonzero;"/><path d="M296.824,35.934l0.846,-0l0,8.613l-0.759,-0l-0.076,-0.956c-0.099,0.143 -0.209,0.275 -0.308,0.395c-0.099,0.11 -0.209,0.209 -0.308,0.286c-0.362,0.275 -0.791,0.418 -1.274,0.418c-0.758,0 -1.384,-0.297 -1.879,-0.879c-0.494,-0.583 -0.736,-1.297 -0.736,-2.132c-0,-0.867 0.264,-1.604 0.78,-2.208c0.528,-0.626 1.187,-0.934 1.978,-0.934c0.329,-0 0.637,0.055 0.923,0.176c0.099,0.044 0.219,0.099 0.362,0.176c0.132,0.077 0.286,0.165 0.451,0.264l0,-3.219Zm0,5.767l0,-1.691c-0.341,-0.297 -0.649,-0.506 -0.901,-0.605c-0.253,-0.099 -0.506,-0.153 -0.747,-0.153c-0.605,0 -1.088,0.252 -1.461,0.758c-0.352,0.472 -0.528,1.032 -0.528,1.658c0,0.671 0.198,1.231 0.583,1.681c0.362,0.407 0.78,0.616 1.274,0.616c0.483,-0 0.901,-0.209 1.252,-0.638c0.352,-0.428 0.528,-0.966 0.528,-1.626Z" style="fill-rule:nonzero;"/><path d="M303.754,40.614l-0,3.933l-0.791,-0l0,-3.878c0,-0.407 -0.154,-0.747 -0.45,-1.011c-0.297,-0.275 -0.66,-0.406 -1.077,-0.406c-0.56,0 -1.033,0.23 -1.439,0.692c-0.407,0.472 -0.605,0.999 -0.605,1.582l-0,3.021l-0.747,-0l-0,-5.878l0.693,0l0.033,1.099c0.197,-0.297 0.428,-0.549 0.692,-0.747c0.428,-0.319 0.922,-0.484 1.461,-0.484c0.626,-0 1.153,0.187 1.582,0.572c0.428,0.373 0.648,0.879 0.648,1.505Z" style="fill-rule:nonzero;"/><path d="M307.533,44.69c-0.758,0 -1.417,-0.275 -1.989,-0.824c-0.604,-0.583 -0.911,-1.33 -0.911,-2.252c-0,-0.868 0.263,-1.604 0.802,-2.187c0.549,-0.593 1.23,-0.89 2.032,-0.89c0.802,-0 1.472,0.297 2.021,0.89c0.539,0.583 0.813,1.308 0.813,2.176c-0,0.911 -0.296,1.658 -0.879,2.252c-0.538,0.56 -1.175,0.835 -1.889,0.835Zm-0.077,-0.725c0.527,-0 1,-0.22 1.406,-0.66c0.396,-0.45 0.593,-1.01 0.593,-1.702c-0,-0.715 -0.208,-1.286 -0.637,-1.736c-0.384,-0.407 -0.835,-0.615 -1.351,-0.615c-0.527,0 -0.978,0.208 -1.351,0.637c-0.407,0.472 -0.616,1.043 -0.616,1.725c-0,0.692 0.198,1.263 0.605,1.724c0.373,0.418 0.824,0.627 1.351,0.627Z" style="fill-rule:nonzero;"/><path d="M311.883,36.933l0.725,0l0,1.725l1.549,-0l0,0.714l-1.549,0l0,3.736c0,0.307 0.055,0.527 0.176,0.659c0.11,0.132 0.307,0.198 0.582,0.198c0.165,-0 0.297,-0.022 0.417,-0.055c0.11,-0.033 0.231,-0.088 0.374,-0.143l0,0.714c-0.121,0.033 -0.253,0.077 -0.417,0.11c-0.165,0.033 -0.341,0.044 -0.506,0.044c-0.439,0 -0.78,-0.099 -1.022,-0.297c-0.274,-0.209 -0.406,-0.538 -0.406,-0.989l-0,-3.977l-0.989,0l-0,-0.714l0.989,-0l0.077,-1.725Z" style="fill-rule:nonzero;"/><path d="M320.111,41.372l-4.471,0c0,0.846 0.198,1.483 0.593,1.933c0.385,0.44 0.901,0.66 1.538,0.66c0.484,-0 0.945,-0.154 1.395,-0.462c0.121,-0.077 0.253,-0.176 0.396,-0.297c0.143,-0.12 0.286,-0.263 0.45,-0.428l-0,0.956c-0.175,0.132 -0.34,0.252 -0.483,0.351c-0.154,0.099 -0.297,0.176 -0.428,0.242c-0.462,0.242 -0.923,0.363 -1.385,0.363c-0.802,0 -1.472,-0.275 -2.032,-0.824c-0.604,-0.583 -0.901,-1.33 -0.901,-2.252c-0,-0.868 0.275,-1.604 0.813,-2.187c0.549,-0.593 1.23,-0.89 2.032,-0.89c0.78,-0 1.407,0.286 1.868,0.857c0.407,0.517 0.615,1.176 0.615,1.978Zm-4.361,-0.67l3.438,-0c-0.087,-0.495 -0.274,-0.868 -0.56,-1.11c-0.296,-0.253 -0.648,-0.373 -1.054,-0.373c-0.451,-0 -0.835,0.142 -1.154,0.428c-0.297,0.264 -0.516,0.615 -0.67,1.055Z" style="fill-rule:nonzero;"/><path d="M326.086,40.614l-0,3.933l-0.791,-0l0,-3.878c0,-0.407 -0.154,-0.747 -0.45,-1.011c-0.297,-0.275 -0.659,-0.406 -1.077,-0.406c-0.56,0 -1.033,0.23 -1.439,0.692c-0.407,0.472 -0.604,0.999 -0.604,1.582l0,3.021l-0.747,-0l-0,-5.878l0.692,0l0.033,1.099c0.197,-0.297 0.428,-0.549 0.692,-0.747c0.428,-0.319 0.923,-0.484 1.461,-0.484c0.626,-0 1.153,0.187 1.582,0.572c0.428,0.373 0.648,0.879 0.648,1.505Z" style="fill-rule:nonzero;"/><path d="M179.853,14.235l-0,8.064c-0,0.33 -0.066,0.549 -0.176,0.637c-0.132,0.088 -0.33,0.132 -0.593,0.132l-1.714,-0c-0.264,-0 -0.44,-0.022 -0.527,-0.088c-0.154,-0.11 -0.242,-0.351 -0.242,-0.681l-0,-13.842c-0,-0.264 0.022,-0.44 0.088,-0.528c0.11,-0.153 0.351,-0.241 0.681,-0.241l1.955,-0c0.22,-0 0.418,0.066 0.572,0.219c0.088,0.066 0.153,0.176 0.219,0.308l2.373,4.746c0.022,0.066 0.066,0.154 0.132,0.242c0.044,0.088 0.088,0.131 0.132,0.131c0.066,0 0.11,-0.043 0.176,-0.153c0.044,-0.11 0.066,-0.176 0.066,-0.198l2.373,-4.702c0.109,-0.22 0.241,-0.374 0.373,-0.461c0.132,-0.088 0.286,-0.132 0.462,-0.132l1.845,-0c0.33,-0 0.55,0.066 0.637,0.197c0.088,0.11 0.132,0.308 0.132,0.572l0,13.842c0,0.33 -0.066,0.549 -0.176,0.637c-0.131,0.088 -0.329,0.132 -0.593,0.132l-1.714,-0c-0.329,-0 -0.549,-0.066 -0.637,-0.176c-0.088,-0.132 -0.132,-0.329 -0.132,-0.593l0,-7.822c-0.022,-0.088 -0.066,-0.132 -0.088,-0.132l-0.065,0.044l-1.714,4.131c-0.088,0.242 -0.176,0.395 -0.264,0.461c-0.088,0.066 -0.198,0.11 -0.329,0.11l-0.748,0c-0.241,0 -0.439,-0.198 -0.593,-0.571l-1.758,-4.307c-0.065,0.022 -0.109,0.022 -0.153,0.022Z" style="fill-rule:nonzero;"/><path d="M198.373,14.147l0,8.152c0,0.242 -0.022,0.396 -0.066,0.483c-0.11,0.198 -0.308,0.286 -0.593,0.286l-1.846,-0c-0.286,-0 -0.418,-0.11 -0.418,-0.352c-0,-0.109 -0.066,-0.153 -0.175,-0.153c-0.11,0.044 -0.176,0.088 -0.198,0.11c-0.198,0.175 -0.462,0.307 -0.791,0.417c-0.352,0.11 -0.681,0.154 -1.011,0.154c-0.857,-0 -1.538,-0.308 -2.087,-0.923c-0.593,-0.681 -0.901,-1.67 -0.901,-2.922c0,-1.494 0.483,-2.659 1.45,-3.494c0.571,-0.483 1.538,-0.967 2.878,-1.472l0.55,-0.198c0.154,-0.066 0.219,-0.175 0.219,-0.351c0,-0.308 -0.131,-0.528 -0.395,-0.637c-0.286,-0.11 -0.615,-0.176 -1.011,-0.176c-0.417,0 -0.725,0.022 -0.945,0.066c-0.241,0.066 -0.461,0.132 -0.637,0.176c-0.197,0.043 -0.329,0.087 -0.439,0.131c-0.286,0.11 -0.462,0.154 -0.527,0.154c-0.286,-0 -0.418,-0.132 -0.418,-0.395l-0,-1.363c-0,-0.285 0.154,-0.505 0.483,-0.703c0.55,-0.307 1.451,-0.461 2.747,-0.461c1.67,-0 2.834,0.373 3.472,1.142c0.439,0.528 0.659,1.297 0.659,2.329Zm-2.989,5.625l0,-2.812c0,-0.066 -0.021,-0.132 -0.087,-0.154c-0.066,-0.022 -0.132,-0.022 -0.22,0.044l-0.374,0.242c-0.439,0.285 -0.747,0.549 -0.922,0.791c-0.242,0.351 -0.374,0.791 -0.374,1.34c-0,0.373 0.088,0.703 0.242,0.967c0.154,0.241 0.395,0.373 0.725,0.373c0.285,-0 0.527,-0.088 0.725,-0.241c0.198,-0.154 0.285,-0.352 0.285,-0.55Z" style="fill-rule:nonzero;"/><path d="M203.008,15.334l-0,3.252c-0,0.505 0.066,0.901 0.22,1.164c0.263,0.462 0.747,0.703 1.45,0.703l0.989,-0.109c0.11,-0.022 0.241,-0.044 0.395,-0.066c0.154,-0.044 0.286,-0.066 0.374,-0.066c0.153,0 0.263,0.044 0.329,0.132c0.044,0.087 0.066,0.197 0.066,0.307l-0,1.758c-0,0.264 -0.088,0.439 -0.285,0.549c-0.33,0.198 -1.033,0.286 -2.088,0.286c-1.955,-0 -3.252,-0.549 -3.911,-1.67c-0.351,-0.593 -0.527,-1.538 -0.527,-2.812l0,-3.78c0,-1.296 0.242,-2.263 0.703,-2.9c0.681,-0.945 1.934,-1.406 3.735,-1.406c1.055,-0 1.758,0.088 2.088,0.286c0.197,0.109 0.285,0.285 0.285,0.549l-0,1.758c-0,0.285 -0.132,0.439 -0.395,0.439c-0.242,0 -0.55,-0.044 -0.879,-0.11c-0.352,-0.088 -0.637,-0.132 -0.879,-0.132c-0.681,0 -1.143,0.198 -1.406,0.616c-0.176,0.285 -0.264,0.703 -0.264,1.252Z" style="fill-rule:nonzero;"/><path d="M214.499,10.852l2.395,-0c0.264,-0 0.396,0.11 0.396,0.307c-0,0.066 -0.044,0.154 -0.11,0.264l-2.812,3.45c-0.11,0.153 -0.132,0.285 -0.066,0.417l3.01,6.943c0.088,0.198 0.132,0.374 0.132,0.483c0,0.242 -0.132,0.352 -0.396,0.352l-2.175,-0c-0.198,-0 -0.374,-0.11 -0.527,-0.308c-0.066,-0.087 -0.154,-0.285 -0.308,-0.615l-1.78,-4.35c-0.044,-0.088 -0.088,-0.132 -0.154,-0.132c-0.044,-0 -0.087,0.022 -0.131,0.088l-0.462,0.593c-0.11,0.11 -0.154,0.264 -0.154,0.44l-0,3.669c-0,0.263 -0.044,0.439 -0.153,0.505c-0.11,0.066 -0.264,0.11 -0.462,0.11l-1.758,-0c-0.263,-0 -0.439,-0.044 -0.505,-0.154c-0.066,-0.11 -0.11,-0.263 -0.11,-0.461l0,-14.15c0,-0.264 0.066,-0.44 0.176,-0.505c0.11,-0.066 0.242,-0.11 0.439,-0.11l1.758,-0c0.264,-0 0.44,0.066 0.506,0.175c0.065,0.11 0.109,0.242 0.109,0.44l-0,5.713c-0,0.109 0.044,0.153 0.11,0.153c0.022,0 0.088,-0.044 0.154,-0.109l2.219,-2.879c0.11,-0.132 0.176,-0.198 0.198,-0.219c0.11,-0.066 0.264,-0.11 0.461,-0.11Z" style="fill-rule:nonzero;"/><path d="M224.845,7.688l9.734,-0c0.176,-0 0.308,0.066 0.373,0.175c0.066,0.11 0.088,0.22 0.088,0.352l-0,1.956c-0,0.307 -0.153,0.461 -0.461,0.461l-2.856,-0c-0.264,-0 -0.396,0.132 -0.396,0.395l-0,11.272c-0,0.264 -0.022,0.439 -0.088,0.527c-0.11,0.154 -0.351,0.242 -0.681,0.242l-1.714,-0c-0.329,-0 -0.549,-0.066 -0.637,-0.176c-0.088,-0.132 -0.132,-0.329 -0.132,-0.593l-0,-11.272c-0,-0.263 -0.132,-0.395 -0.395,-0.395l-2.769,-0c-0.373,-0 -0.549,-0.154 -0.549,-0.44l-0,-2.087c-0,-0.285 0.154,-0.417 0.483,-0.417Z" style="fill-rule:nonzero;"/><path d="M236.028,22.453l-0,-14.15c-0,-0.264 0.065,-0.44 0.175,-0.505c0.11,-0.066 0.242,-0.11 0.44,-0.11l1.758,-0c0.263,-0 0.439,0.066 0.505,0.175c0.066,0.11 0.11,0.242 0.11,0.44l0,3.032c0,0.066 0.066,0.132 0.197,0.154c0.154,0 0.418,-0.132 0.748,-0.396c0.329,-0.285 0.769,-0.417 1.34,-0.417c0.769,-0 1.406,0.242 1.911,0.703c0.594,0.571 0.901,1.428 0.901,2.571l0,8.503c0,0.263 -0.044,0.439 -0.154,0.505c-0.109,0.066 -0.263,0.11 -0.461,0.11l-1.758,-0c-0.263,-0 -0.439,-0.044 -0.505,-0.154c-0.066,-0.11 -0.11,-0.263 -0.11,-0.461l0,-7.866c0,-0.286 -0.088,-0.527 -0.264,-0.725c-0.197,-0.198 -0.439,-0.308 -0.769,-0.308c-0.461,-0 -0.791,0.198 -0.944,0.615c-0.088,0.242 -0.132,0.572 -0.132,1.011l0,7.273c0,0.263 -0.044,0.439 -0.154,0.505c-0.11,0.066 -0.264,0.11 -0.461,0.11l-1.758,-0c-0.264,-0 -0.44,-0.044 -0.506,-0.154c-0.066,-0.11 -0.109,-0.263 -0.109,-0.461Z" style="fill-rule:nonzero;"/><path d="M253.538,17.773l-4.416,0c-0.11,0 -0.176,0.022 -0.198,0.088c-0.044,0.044 -0.066,0.11 -0.066,0.175l0,0.704c0,0.593 0.198,1.032 0.571,1.362c0.374,0.307 0.901,0.461 1.582,0.461c0.462,-0 0.901,-0.022 1.275,-0.088c0.373,-0.066 0.791,-0.175 1.208,-0.329c0.374,-0.11 0.549,-0 0.549,0.351l-0,1.802c-0,0.11 -0.021,0.22 -0.065,0.286c-0.066,0.066 -0.176,0.131 -0.352,0.197c-0.483,0.176 -0.967,0.308 -1.472,0.374c-0.505,0.066 -0.945,0.088 -1.34,0.088c-1.275,-0 -2.307,-0.242 -3.098,-0.703c-1.231,-0.725 -1.846,-1.978 -1.846,-3.736l-0,-3.713c-0,-1.164 0.22,-2.109 0.681,-2.812c0.681,-1.077 1.846,-1.604 3.494,-1.604c0.988,-0 1.823,0.198 2.46,0.615c1.099,0.703 1.648,1.978 1.648,3.801l-0,2.066c-0,0.263 -0.044,0.439 -0.153,0.505c-0.11,0.066 -0.264,0.11 -0.462,0.11Zm-4.46,-2.417l1.867,-0c0.088,-0 0.154,-0.066 0.22,-0.22l-0,-0.483c-0,-0.418 -0.044,-0.747 -0.154,-0.967c-0.197,-0.395 -0.505,-0.593 -0.966,-0.593c-0.374,-0 -0.682,0.132 -0.879,0.395c-0.198,0.242 -0.308,0.637 -0.308,1.165l0,0.483c0,0.154 0.066,0.22 0.22,0.22Z" style="fill-rule:nonzero;"/><path d="M262.61,22.299l-0,-13.842c-0,-0.264 0.022,-0.44 0.088,-0.528c0.109,-0.153 0.351,-0.241 0.681,-0.241l1.714,-0c0.329,-0 0.549,0.066 0.637,0.197c0.088,0.11 0.132,0.308 0.132,0.572l-0,4.174l3.098,-4.438c0.241,-0.33 0.527,-0.505 0.9,-0.505l2.439,-0c0.286,-0 0.418,0.132 0.418,0.395c0,0.11 -0.022,0.176 -0.044,0.242c-0.022,0.066 -0.088,0.132 -0.154,0.22l-3.472,4.724l4.197,8.613c0.154,0.285 0.22,0.505 0.22,0.703c-0,0.329 -0.176,0.483 -0.527,0.483l-2.264,-0c-0.197,-0 -0.373,-0.066 -0.505,-0.198c-0.132,-0.154 -0.242,-0.329 -0.352,-0.571l-2.988,-6.108l-0.966,1.318l-0,4.79c-0,0.33 -0.066,0.549 -0.176,0.637c-0.132,0.088 -0.33,0.132 -0.593,0.132l-1.714,-0c-0.33,-0 -0.55,-0.066 -0.637,-0.176c-0.088,-0.132 -0.132,-0.329 -0.132,-0.593Z" style="fill-rule:nonzero;"/><path d="M274.561,22.453l0,-10.986c0,-0.264 0.066,-0.44 0.175,-0.505c0.11,-0.066 0.242,-0.11 0.44,-0.11l1.955,-0c0.11,-0 0.22,0.044 0.308,0.131c0.066,0.066 0.11,0.176 0.11,0.286c0,0.154 0.044,0.22 0.154,0.22c0.022,0 0.087,-0.044 0.197,-0.11c0.22,-0.198 0.44,-0.33 0.66,-0.439c0.373,-0.176 0.812,-0.264 1.274,-0.264c0.769,-0 1.406,0.242 1.911,0.703c0.594,0.571 0.901,1.428 0.901,2.571l-0,8.503c-0,0.263 -0.044,0.439 -0.154,0.505c-0.109,0.066 -0.263,0.11 -0.461,0.11l-1.758,-0c-0.263,-0 -0.439,-0.044 -0.505,-0.154c-0.066,-0.11 -0.11,-0.263 -0.11,-0.461l-0,-7.866c-0,-0.286 -0.088,-0.527 -0.264,-0.725c-0.197,-0.198 -0.439,-0.308 -0.769,-0.308c-0.461,-0 -0.791,0.198 -0.944,0.615c-0.088,0.242 -0.132,0.572 -0.132,1.011l0,7.273c0,0.263 -0.044,0.439 -0.154,0.505c-0.11,0.066 -0.264,0.11 -0.461,0.11l-1.758,-0c-0.264,-0 -0.44,-0.044 -0.506,-0.154c-0.065,-0.11 -0.109,-0.263 -0.109,-0.461Z" style="fill-rule:nonzero;"/><path d="M287.391,7.973l-0,1.341c-0,0.197 -0.044,0.351 -0.11,0.461c-0.066,0.11 -0.241,0.154 -0.505,0.154l-1.758,-0c-0.263,-0 -0.439,-0.044 -0.505,-0.154c-0.066,-0.11 -0.11,-0.264 -0.11,-0.461l0,-1.341c0,-0.197 0.044,-0.329 0.11,-0.439c0.066,-0.11 0.242,-0.176 0.505,-0.176l1.758,0c0.198,0 0.352,0.044 0.461,0.11c0.11,0.066 0.154,0.242 0.154,0.505Zm-0,3.494l-0,10.986c-0,0.263 -0.044,0.439 -0.154,0.505c-0.109,0.066 -0.263,0.11 -0.461,0.11l-1.758,-0c-0.263,-0 -0.439,-0.044 -0.505,-0.154c-0.066,-0.11 -0.11,-0.263 -0.11,-0.461l0,-10.986c0,-0.264 0.066,-0.44 0.176,-0.505c0.11,-0.066 0.241,-0.11 0.439,-0.11l1.758,-0c0.198,-0 0.352,0.044 0.461,0.11c0.11,0.065 0.154,0.241 0.154,0.505Z" style="fill-rule:nonzero;"/><path d="M289.786,22.453l0,-8.921c0,-0.154 -0.088,-0.241 -0.242,-0.241l-0.373,-0c-0.264,-0 -0.44,-0.044 -0.505,-0.154c-0.066,-0.11 -0.11,-0.264 -0.11,-0.462l-0,-1.032c-0,-0.198 0.044,-0.33 0.11,-0.44c0.065,-0.11 0.241,-0.176 0.505,-0.176l0.527,0l0.088,-0.087c0,-0.066 -0.044,-0.154 -0.11,-0.286c-0.066,-0.132 -0.132,-0.264 -0.176,-0.374c-0.043,-0.131 -0.065,-0.307 -0.065,-0.527c-0,-0.33 0.087,-0.659 0.285,-0.945c0.176,-0.307 0.418,-0.549 0.747,-0.703c0.308,-0.154 0.637,-0.263 1.011,-0.285c0.351,-0.044 0.659,-0.066 0.945,-0.066c0.769,-0 1.296,0.066 1.538,0.219c0.154,0.088 0.219,0.242 0.219,0.462l-0,1.362c-0,0.22 -0.087,0.33 -0.263,0.33l-0.352,-0.044l-0.417,-0.044c-0.242,0 -0.418,0.066 -0.506,0.197c-0.087,0.11 -0.131,0.22 -0.131,0.33c-0,0.308 0.175,0.461 0.549,0.461l0.505,0c0.198,0 0.352,0.044 0.462,0.11c0.11,0.066 0.153,0.242 0.153,0.506l-0,1.032c-0,0.264 -0.043,0.44 -0.153,0.506c-0.11,0.066 -0.264,0.11 -0.462,0.11l-0.549,-0c-0.154,-0 -0.242,0.087 -0.242,0.241l-0,8.921c-0,0.198 -0.044,0.351 -0.11,0.461c-0.065,0.11 -0.241,0.154 -0.505,0.154l-1.758,-0c-0.263,-0 -0.439,-0.044 -0.505,-0.154c-0.066,-0.11 -0.11,-0.263 -0.11,-0.461Z" style="fill-rule:nonzero;"/><path d="M302.946,17.773l-4.416,0c-0.11,0 -0.176,0.022 -0.198,0.088c-0.044,0.044 -0.066,0.11 -0.066,0.175l-0,0.704c-0,0.593 0.198,1.032 0.571,1.362c0.374,0.307 0.901,0.461 1.582,0.461c0.462,-0 0.901,-0.022 1.275,-0.088c0.373,-0.066 0.791,-0.175 1.208,-0.329c0.374,-0.11 0.549,-0 0.549,0.351l-0,1.802c-0,0.11 -0.022,0.22 -0.066,0.286c-0.066,0.066 -0.175,0.131 -0.351,0.197c-0.484,0.176 -0.967,0.308 -1.472,0.374c-0.506,0.066 -0.945,0.088 -1.341,0.088c-1.274,-0 -2.307,-0.242 -3.098,-0.703c-1.23,-0.725 -1.845,-1.978 -1.845,-3.736l0,-3.713c0,-1.164 0.219,-2.109 0.681,-2.812c0.681,-1.077 1.846,-1.604 3.493,-1.604c0.989,-0 1.824,0.198 2.461,0.615c1.099,0.703 1.648,1.978 1.648,3.801l0,2.066c0,0.263 -0.044,0.439 -0.154,0.505c-0.109,0.066 -0.263,0.11 -0.461,0.11Zm-4.46,-2.417l1.867,-0c0.088,-0 0.154,-0.066 0.22,-0.22l-0,-0.483c-0,-0.418 -0.044,-0.747 -0.154,-0.967c-0.198,-0.395 -0.505,-0.593 -0.967,-0.593c-0.373,-0 -0.681,0.132 -0.878,0.395c-0.198,0.242 -0.308,0.637 -0.308,1.165l-0,0.483c-0,0.154 0.066,0.22 0.22,0.22Z" style="fill-rule:nonzero;"/><path d="M10.468,193.642l470.076,-0" style="fill:none;stroke:#000;stroke-width:0.46px;"/><path d="M10.468,188.691l470.076,-0" style="fill:none;stroke:#000;stroke-width:0.46px;"/><path d="M10.468,183.74l470.076,0" style="fill:none;stroke:#000;stroke-width:0.46px;"/><path d="M10.468,178.788l470.076,-0" style="fill:none;stroke:#000;stroke-width:0.46px;"/><path d="M10.468,173.837l470.076,0" style="fill:none;stroke:#000;stroke-width:0.46px;"/><path d="M24.54,192.985l0.753,3.664c0.04,0.218 0.059,0.416 0.059,0.614c-0,1.941 -1.98,3.565 -4.119,3.565c-0.654,0 -1.288,-0.158 -1.882,-0.456c1.525,-0.158 2.674,-1.089 2.674,-2.455c-0,-1.209 -0.99,-2.476 -2.258,-2.476c-1.446,-0 -2.436,1.109 -2.436,2.555c-0,2.02 1.644,3.347 3.624,3.347c2.654,0 4.912,-1.723 4.912,-4.199c0,-0.554 -0.871,-4.476 -0.851,-4.337c2.119,-1.03 3.565,-2.852 3.565,-4.774c-0,-2.634 -2.12,-4.654 -4.754,-4.654c-0.039,-0 -0.317,0.02 -0.792,0.06l-0.871,-4.179c2.951,-2.496 4.297,-5.15 4.297,-8.061c0,-2.238 -0.891,-4.615 -2.693,-7.111c-2.04,1.644 -3.209,4.932 -3.209,8.438c0,1.247 0.159,2.456 0.436,3.604c-4.516,3.783 -6.773,7.269 -6.773,10.458c0,3.743 3.862,6.852 8.06,6.852c0.931,0 1.624,-0.138 2.258,-0.455Zm-0.059,-26.025c0.653,0.674 0.99,1.466 0.99,2.397c0,1.921 -1.366,4.08 -4.04,6.456c-0.139,-0.574 -0.178,-1.208 -0.178,-1.901c0,-3.327 1.227,-6.991 2.871,-6.991c0.139,0 0.258,0.019 0.357,0.039Zm0.416,25.213l-1.406,-6.615c0.277,-0.02 0.435,-0.04 0.495,-0.04c1.703,0 2.891,1.604 2.891,3.248c0,1.307 -0.693,2.456 -1.98,3.407Zm-1.902,-6.536l1.426,6.813c-0.693,0.376 -1.465,0.535 -2.396,0.535c-3.209,0 -5.981,-2.397 -5.981,-5.308c0,-2.634 1.96,-5.348 5.664,-8.12l0.832,3.961c-2.06,0.436 -3.803,2.178 -3.803,4.139c-0,1.664 1.189,2.832 2.971,3.11c-1.089,-0.674 -1.624,-1.525 -1.624,-2.535c-0,-1.367 1.268,-2.377 2.911,-2.595Z" style="fill-rule:nonzero;"/><rect x="81.645" y="178.745" width="5.565" height="2.376" style="fill-rule:nonzero;"/><rect x="187.636" y="178.745" width="5.566" height="2.376" style="fill-rule:nonzero;"/><path d="M258.968,205.866l-0,-66.225" style="fill:none;stroke:#000;stroke-width:0.77px;"/><path d="M258.658,205.866l95.47,-0" style="fill:none;stroke:#000;stroke-width:0.77px;"/><path d="M258.658,139.641l95.47,0" style="fill:none;stroke:#000;stroke-width:0.77px;"/><path d="M353.818,205.866l-0,-66.225" style="fill:none;stroke:#000;stroke-width:0.77px;"/><rect x="424.686" y="178.745" width="5.565" height="2.376" style="fill-rule:nonzero;"/><path d="M10.468,272.865l470.076,-0" style="fill:none;stroke:#000;stroke-width:0.46px;"/><path d="M10.468,267.914l470.076,0" style="fill:none;stroke:#000;stroke-width:0.46px;"/><path d="M10.468,262.962l470.076,-0" style="fill:none;stroke:#000;stroke-width:0.46px;"/><path d="M10.468,258.011l470.076,0" style="fill:none;stroke:#000;stroke-width:0.46px;"/><path d="M10.468,253.059l470.076,-0" style="fill:none;stroke:#000;stroke-width:0.46px;"/><path d="M24.54,272.208l0.753,3.664c0.04,0.218 0.059,0.416 0.059,0.614c-0,1.941 -1.98,3.565 -4.119,3.565c-0.654,0 -1.288,-0.159 -1.882,-0.456c1.525,-0.158 2.674,-1.089 2.674,-2.456c-0,-1.208 -0.99,-2.475 -2.258,-2.475c-1.446,0 -2.436,1.109 -2.436,2.554c-0,2.021 1.644,3.348 3.624,3.348c2.654,0 4.912,-1.723 4.912,-4.199c0,-0.555 -0.871,-4.476 -0.851,-4.338c2.119,-1.03 3.565,-2.852 3.565,-4.773c-0,-2.634 -2.12,-4.654 -4.754,-4.654c-0.039,-0 -0.317,0.02 -0.792,0.059l-0.871,-4.179c2.951,-2.495 4.297,-5.149 4.297,-8.061c0,-2.238 -0.891,-4.614 -2.693,-7.11c-2.04,1.644 -3.209,4.932 -3.209,8.437c0,1.248 0.159,2.456 0.436,3.605c-4.516,3.783 -6.773,7.269 -6.773,10.457c0,3.744 3.862,6.853 8.06,6.853c0.931,0 1.624,-0.138 2.258,-0.455Zm-0.059,-26.025c0.653,0.673 0.99,1.466 0.99,2.396c0,1.922 -1.366,4.08 -4.04,6.457c-0.139,-0.574 -0.178,-1.208 -0.178,-1.901c0,-3.328 1.227,-6.992 2.871,-6.992c0.139,-0 0.258,0.02 0.357,0.04Zm0.416,25.213l-1.406,-6.616c0.277,-0.019 0.435,-0.039 0.495,-0.039c1.703,-0 2.891,1.604 2.891,3.248c0,1.307 -0.693,2.456 -1.98,3.407Zm-1.902,-6.536l1.426,6.813c-0.693,0.376 -1.465,0.535 -2.396,0.535c-3.209,0 -5.981,-2.397 -5.981,-5.308c0,-2.634 1.96,-5.348 5.664,-8.121l0.832,3.962c-2.06,0.435 -3.803,2.178 -3.803,4.139c-0,1.664 1.189,2.832 2.971,3.109c-1.089,-0.673 -1.624,-1.525 -1.624,-2.535c-0,-1.366 1.268,-2.376 2.911,-2.594Z" style="fill-rule:nonzero;"/><path d="M55.341,283.851l-0,-66.225" style="fill:none;stroke:#000;stroke-width:0.77px;"/><path d="M55.031,283.851l88.507,-0" style="fill:none;stroke:#000;stroke-width:0.77px;"/><path d="M55.031,217.626l88.507,0" style="fill:none;stroke:#000;stroke-width:0.77px;"/><path d="M143.228,283.851l-0,-66.225" style="fill:none;stroke:#000;stroke-width:0.77px;"/><rect x="214.869" y="257.967" width="5.566" height="2.377" style="fill-rule:nonzero;"/><path d="M348.052,244.147c-0.459,0 -0.856,-0.044 -1.182,-0.141c-0.326,-0.097 -0.635,-0.221 -0.917,-0.353l0,-1.076l0.053,0c0.282,0.265 0.599,0.476 0.961,0.618c0.353,0.141 0.697,0.22 1.032,0.22c0.467,0 0.82,-0.097 1.067,-0.3c0.238,-0.194 0.362,-0.45 0.362,-0.776c0,-0.256 -0.071,-0.459 -0.194,-0.626c-0.124,-0.159 -0.327,-0.274 -0.6,-0.353c-0.203,-0.062 -0.379,-0.106 -0.547,-0.141c-0.159,-0.044 -0.37,-0.088 -0.617,-0.15c-0.221,-0.062 -0.415,-0.132 -0.591,-0.221c-0.177,-0.088 -0.327,-0.211 -0.468,-0.352c-0.132,-0.141 -0.229,-0.309 -0.308,-0.494c-0.071,-0.194 -0.106,-0.415 -0.106,-0.662c0,-0.52 0.203,-0.961 0.608,-1.305c0.406,-0.353 0.918,-0.529 1.553,-0.529c0.352,-0 0.696,0.035 1.014,0.106c0.317,0.07 0.617,0.176 0.891,0.308l-0,1.015l-0.062,-0c-0.212,-0.186 -0.467,-0.344 -0.785,-0.485c-0.317,-0.142 -0.653,-0.212 -1.005,-0.212c-0.397,-0 -0.715,0.097 -0.962,0.282c-0.247,0.185 -0.361,0.423 -0.361,0.732c0,0.265 0.07,0.485 0.211,0.644c0.141,0.159 0.353,0.282 0.626,0.353c0.177,0.053 0.397,0.106 0.662,0.167c0.265,0.062 0.476,0.124 0.653,0.168c0.441,0.141 0.758,0.344 0.97,0.617c0.203,0.274 0.3,0.609 0.3,1.006c-0,0.247 -0.053,0.494 -0.15,0.741c-0.106,0.247 -0.247,0.449 -0.432,0.617c-0.203,0.185 -0.441,0.335 -0.697,0.432c-0.256,0.097 -0.582,0.15 -0.979,0.15Z" style="fill-rule:nonzero;"/><path d="M353.423,244.165c-0.379,0 -0.705,-0.044 -0.988,-0.15c-0.282,-0.097 -0.52,-0.247 -0.723,-0.441c-0.22,-0.221 -0.379,-0.494 -0.467,-0.803c-0.097,-0.309 -0.141,-0.697 -0.141,-1.146l0,-4.005l0.855,-0l0,4.005c0,0.291 0.018,0.538 0.053,0.74c0.035,0.203 0.115,0.389 0.221,0.547c0.114,0.177 0.273,0.3 0.467,0.388c0.194,0.097 0.432,0.141 0.723,0.141c0.265,0 0.503,-0.044 0.706,-0.141c0.211,-0.088 0.37,-0.211 0.485,-0.388c0.106,-0.167 0.176,-0.344 0.22,-0.538c0.036,-0.203 0.053,-0.441 0.053,-0.732l-0,-4.022l0.856,-0l0,4.005c0,0.441 -0.044,0.82 -0.141,1.137c-0.089,0.327 -0.247,0.591 -0.477,0.812c-0.202,0.203 -0.441,0.344 -0.705,0.45c-0.274,0.097 -0.609,0.141 -0.997,0.141Z" style="fill-rule:nonzero;"/><path d="M361.314,242.066c-0,0.317 -0.062,0.599 -0.185,0.846c-0.115,0.238 -0.282,0.441 -0.485,0.6c-0.238,0.185 -0.494,0.326 -0.776,0.406c-0.274,0.079 -0.626,0.114 -1.067,0.114l-1.835,-0l0,-6.412l1.702,-0c0.45,-0 0.794,0.018 1.023,0.045c0.23,0.026 0.45,0.105 0.662,0.211c0.229,0.124 0.397,0.291 0.503,0.485c0.105,0.203 0.158,0.432 0.158,0.706c0,0.3 -0.079,0.573 -0.238,0.811c-0.159,0.238 -0.379,0.424 -0.661,0.556l-0,0.035c0.379,0.106 0.67,0.291 0.882,0.565c0.211,0.273 0.317,0.617 0.317,1.032Zm-1.19,-2.876c-0,-0.158 -0.027,-0.291 -0.08,-0.405c-0.053,-0.115 -0.132,-0.203 -0.247,-0.265c-0.141,-0.079 -0.291,-0.132 -0.458,-0.15c-0.168,-0.018 -0.406,-0.026 -0.706,-0.026l-0.82,0l-0,1.878l0.97,0c0.273,0 0.467,-0.009 0.591,-0.035c0.123,-0.026 0.256,-0.088 0.397,-0.176c0.123,-0.08 0.22,-0.186 0.273,-0.327c0.053,-0.132 0.08,-0.3 0.08,-0.494Zm0.299,2.911c0,-0.247 -0.035,-0.441 -0.097,-0.6c-0.07,-0.159 -0.211,-0.291 -0.423,-0.397c-0.132,-0.07 -0.282,-0.114 -0.441,-0.141c-0.159,-0.018 -0.388,-0.026 -0.679,-0.026l-0.97,-0l-0,2.363l0.697,0c0.37,0 0.67,-0.008 0.882,-0.044c0.22,-0.035 0.405,-0.114 0.573,-0.22c0.159,-0.115 0.273,-0.238 0.353,-0.379c0.07,-0.15 0.105,-0.336 0.105,-0.556Z" style="fill-rule:nonzero;"/><rect x="361.941" y="240.84" width="2.425" height="0.776" style="fill-rule:nonzero;"/><path d="M370.462,240.831c0,0.591 -0.114,1.12 -0.352,1.587c-0.239,0.468 -0.556,0.838 -0.953,1.103c-0.326,0.203 -0.661,0.335 -0.997,0.406c-0.326,0.07 -0.758,0.105 -1.278,0.105l-1.473,-0l-0,-6.412l1.455,-0c0.608,-0 1.076,0.045 1.42,0.133c0.344,0.097 0.635,0.22 0.882,0.379c0.406,0.265 0.732,0.635 0.952,1.085c0.23,0.45 0.344,0.988 0.344,1.614Zm-0.89,-0.009c-0,-0.494 -0.08,-0.917 -0.239,-1.27c-0.167,-0.344 -0.414,-0.617 -0.732,-0.811c-0.229,-0.142 -0.467,-0.239 -0.723,-0.3c-0.264,-0.062 -0.582,-0.089 -0.97,-0.089l-0.653,-0l0,4.948l0.653,0c0.379,0 0.714,-0.026 0.997,-0.088c0.282,-0.062 0.546,-0.176 0.776,-0.335c0.3,-0.203 0.52,-0.467 0.67,-0.803c0.15,-0.335 0.221,-0.758 0.221,-1.252Z" style="fill-rule:nonzero;"/><path d="M375.923,238.352c0.247,0.283 0.432,0.636 0.565,1.05c0.141,0.415 0.203,0.891 0.203,1.429c0,0.52 -0.062,0.988 -0.194,1.402c-0.133,0.424 -0.327,0.776 -0.574,1.059c-0.264,0.299 -0.564,0.52 -0.917,0.661c-0.344,0.141 -0.732,0.212 -1.146,0.212c-0.441,0 -0.83,-0.071 -1.174,-0.221c-0.352,-0.141 -0.652,-0.361 -0.899,-0.652c-0.247,-0.283 -0.432,-0.635 -0.565,-1.05c-0.132,-0.415 -0.202,-0.891 -0.202,-1.411c-0,-0.538 0.07,-1.014 0.202,-1.42c0.133,-0.415 0.327,-0.759 0.574,-1.059c0.247,-0.282 0.538,-0.493 0.89,-0.643c0.344,-0.15 0.741,-0.221 1.174,-0.221c0.432,0 0.829,0.071 1.173,0.229c0.352,0.15 0.652,0.362 0.89,0.635Zm-0.114,2.479c-0,-0.424 -0.053,-0.803 -0.141,-1.129c-0.089,-0.326 -0.221,-0.6 -0.389,-0.812c-0.167,-0.229 -0.37,-0.388 -0.608,-0.502c-0.247,-0.106 -0.512,-0.168 -0.811,-0.168c-0.309,0 -0.583,0.053 -0.812,0.168c-0.229,0.106 -0.432,0.273 -0.617,0.502c-0.168,0.212 -0.3,0.486 -0.388,0.821c-0.089,0.326 -0.133,0.705 -0.133,1.12c0,0.838 0.177,1.482 0.53,1.931c0.352,0.441 0.829,0.671 1.42,0.671c0.59,-0 1.067,-0.23 1.419,-0.671c0.353,-0.449 0.53,-1.093 0.53,-1.931Z" style="fill-rule:nonzero;"/><path d="M383.125,244.032l-0.856,-0l0,-5.521l-1.667,3.757l-0.52,-0l-1.658,-3.757l0,5.521l-0.794,-0l0,-6.412l1.164,-0l1.597,3.572l1.552,-3.572l1.182,-0l-0,6.412Z" style="fill-rule:nonzero;"/><path d="M386.664,244.032l-2.496,-0l-0,-0.652l0.82,-0l0,-5.107l-0.82,0l-0,-0.653l2.496,-0l0,0.653l-0.82,0l-0,5.107l0.82,-0l0,0.652Z" style="fill-rule:nonzero;"/><path d="M392.298,244.032l-0.961,-0l-2.831,-5.53l0,5.53l-0.794,-0l0,-6.412l1.208,-0l2.575,5.081l-0,-5.081l0.803,-0l0,6.412Z" style="fill-rule:nonzero;"/><path d="M392.9,244.032l2.16,-6.412l1.05,-0l2.161,6.412l-0.9,-0l-0.573,-1.79l-2.452,-0l-0.582,1.79l-0.864,-0Zm3.66,-2.522l-0.997,-3.016l-0.979,3.016l1.976,0Z" style="fill-rule:nonzero;"/><path d="M403.47,244.032l-0.961,-0l-2.831,-5.53l0,5.53l-0.794,-0l0,-6.412l1.208,-0l2.576,5.081l-0,-5.081l0.802,-0l0,6.412Z" style="fill-rule:nonzero;"/><path d="M406.268,244.032l0,-5.653l-2.152,-0l-0,-0.759l5.151,-0l-0,0.759l-2.152,-0l-0,5.653l-0.847,-0Z" style="fill-rule:nonzero;"/><rect x="427.316" y="257.967" width="5.565" height="2.377" style="fill-rule:nonzero;"/><path d="M278.773,287.719l0,-66.225" style="fill:none;stroke:#000;stroke-width:0.77px;"/><path d="M278.464,287.719l191.558,0" style="fill:none;stroke:#000;stroke-width:0.77px;"/><path d="M278.464,221.494l191.558,0" style="fill:none;stroke:#000;stroke-width:0.77px;"/><path d="M469.713,287.719l0,-66.225" style="fill:none;stroke:#000;stroke-width:0.77px;"/><path d="M10.468,352.088l470.076,0" style="fill:none;stroke:#000;stroke-width:0.46px;"/><path d="M10.468,347.136l470.076,-0" style="fill:none;stroke:#000;stroke-width:0.46px;"/><path d="M10.468,342.185l470.076,-0" style="fill:none;stroke:#000;stroke-width:0.46px;"/><path d="M10.468,337.234l470.076,-0" style="fill:none;stroke:#000;stroke-width:0.46px;"/><path d="M10.468,332.282l470.076,0" style="fill:none;stroke:#000;stroke-width:0.46px;"/><path d="M24.54,351.43l0.753,3.664c0.04,0.218 0.059,0.416 0.059,0.614c-0,1.941 -1.98,3.565 -4.119,3.565c-0.654,-0 -1.288,-0.158 -1.882,-0.455c1.525,-0.159 2.674,-1.089 2.674,-2.456c-0,-1.208 -0.99,-2.476 -2.258,-2.476c-1.446,-0 -2.436,1.109 -2.436,2.555c-0,2.02 1.644,3.347 3.624,3.347c2.654,0 4.912,-1.723 4.912,-4.198c0,-0.555 -0.871,-4.477 -0.851,-4.338c2.119,-1.03 3.565,-2.852 3.565,-4.773c-0,-2.634 -2.12,-4.654 -4.754,-4.654c-0.039,0 -0.317,0.019 -0.792,0.059l-0.871,-4.179c2.951,-2.496 4.297,-5.149 4.297,-8.061c0,-2.238 -0.891,-4.615 -2.693,-7.11c-2.04,1.644 -3.209,4.931 -3.209,8.437c0,1.248 0.159,2.456 0.436,3.605c-4.516,3.783 -6.773,7.268 -6.773,10.457c0,3.743 3.862,6.853 8.06,6.853c0.931,-0 1.624,-0.139 2.258,-0.456Zm-0.059,-26.024c0.653,0.673 0.99,1.465 0.99,2.396c0,1.921 -1.366,4.08 -4.04,6.457c-0.139,-0.575 -0.178,-1.208 -0.178,-1.902c0,-3.327 1.227,-6.991 2.871,-6.991c0.139,0 0.258,0.02 0.357,0.04Zm0.416,25.212l-1.406,-6.615c0.277,-0.02 0.435,-0.039 0.495,-0.039c1.703,0 2.891,1.604 2.891,3.248c0,1.307 -0.693,2.456 -1.98,3.406Zm-1.902,-6.536l1.426,6.814c-0.693,0.376 -1.465,0.534 -2.396,0.534c-3.209,0 -5.981,-2.396 -5.981,-5.308c0,-2.634 1.96,-5.347 5.664,-8.12l0.832,3.961c-2.06,0.436 -3.803,2.179 -3.803,4.14c-0,1.663 1.189,2.832 2.971,3.109c-1.089,-0.673 -1.624,-1.525 -1.624,-2.535c-0,-1.367 1.268,-2.377 2.911,-2.595Z" style="fill-rule:nonzero;"/><rect x="79.633" y="337.19" width="5.566" height="2.377" style="fill-rule:nonzero;"/><rect x="181.292" y="337.19" width="5.566" height="2.377" style="fill-rule:nonzero;"/><path d="M256.337,365.55l0,-66.226" style="fill:none;stroke:#000;stroke-width:0.77px;"/><path d="M256.028,365.55l84.174,0" style="fill:none;stroke:#000;stroke-width:0.77px;"/><path d="M256.028,299.324l84.174,-0" style="fill:none;stroke:#000;stroke-width:0.77px;"/><path d="M339.893,365.55l0,-66.226" style="fill:none;stroke:#000;stroke-width:0.77px;"/><rect x="415.556" y="337.19" width="5.566" height="2.377" style="fill-rule:nonzero;"/><path d="M102.843,119.371l14.236,0" style="fill:none;stroke:#000;stroke-width:0.77px;"/><path d="M105.319,119.328c0,1.643 1.961,2.673 4.496,2.673c2.832,0 4.733,-1.01 4.733,-2.673c-0,-1.525 -2.317,-2.674 -4.515,-2.674c-2.397,0 -4.714,1.069 -4.714,2.674Zm7.09,1.01c-0.217,1.109 -1.188,1.228 -2.337,1.228c-1.247,-0 -2.594,-1.446 -2.594,-2.951c-0,-1.011 0.634,-1.525 1.901,-1.525c1.327,-0 1.981,0.495 2.575,1.683c0.297,0.594 0.455,1.109 0.455,1.565Z" style="fill-rule:nonzero;"/><path d="M105.319,114.376c0,1.644 1.961,2.674 4.496,2.674c2.832,0 4.733,-1.01 4.733,-2.674c-0,-1.525 -2.317,-2.674 -4.515,-2.674c-2.397,-0 -4.714,1.07 -4.714,2.674Zm7.09,1.01c-0.217,1.109 -1.188,1.228 -2.337,1.228c-1.247,-0 -2.594,-1.446 -2.594,-2.951c-0,-1.01 0.634,-1.525 1.901,-1.525c1.327,0 1.981,0.495 2.575,1.684c0.297,0.594 0.455,1.109 0.455,1.564Z" style="fill-rule:nonzero;"/><path d="M105.319,109.425c0,1.644 1.961,2.674 4.496,2.674c2.832,-0 4.733,-1.011 4.733,-2.674c-0,-1.525 -2.317,-2.674 -4.515,-2.674c-2.397,0 -4.714,1.069 -4.714,2.674Zm7.09,1.01c-0.217,1.109 -1.188,1.228 -2.337,1.228c-1.247,-0 -2.594,-1.446 -2.594,-2.951c-0,-1.01 0.634,-1.525 1.901,-1.525c1.327,0 1.981,0.495 2.575,1.683c0.297,0.594 0.455,1.109 0.455,1.565Z" style="fill-rule:nonzero;"/><path d="M306.625,116.852c0,1.644 1.961,2.674 4.496,2.674c2.832,0 4.734,-1.01 4.734,-2.674c0,-1.525 -2.318,-2.674 -4.516,-2.674c-2.397,-0 -4.714,1.07 -4.714,2.674Zm7.091,1.01c-0.218,1.109 -1.189,1.228 -2.337,1.228c-1.248,-0 -2.595,-1.446 -2.595,-2.951c-0,-1.01 0.634,-1.525 1.901,-1.525c1.327,-0 1.981,0.495 2.575,1.683c0.297,0.594 0.456,1.109 0.456,1.565Z" style="fill-rule:nonzero;"/><path d="M306.625,111.9c0,1.644 1.961,2.674 4.496,2.674c2.832,0 4.734,-1.01 4.734,-2.674c0,-1.525 -2.318,-2.673 -4.516,-2.673c-2.397,-0 -4.714,1.069 -4.714,2.673Zm7.091,1.011c-0.218,1.109 -1.189,1.228 -2.337,1.228c-1.248,0 -2.595,-1.446 -2.595,-2.952c-0,-1.01 0.634,-1.525 1.901,-1.525c1.327,-0 1.981,0.496 2.575,1.684c0.297,0.594 0.456,1.109 0.456,1.565Z" style="fill-rule:nonzero;"/><path d="M306.625,106.949c0,1.644 1.961,2.674 4.496,2.674c2.832,-0 4.734,-1.01 4.734,-2.674c0,-1.525 -2.318,-2.674 -4.516,-2.674c-2.397,-0 -4.714,1.07 -4.714,2.674Zm7.091,1.01c-0.218,1.109 -1.189,1.228 -2.337,1.228c-1.248,0 -2.595,-1.446 -2.595,-2.951c-0,-1.01 0.634,-1.525 1.901,-1.525c1.327,-0 1.981,0.495 2.575,1.683c0.297,0.595 0.456,1.11 0.456,1.565Z" style="fill-rule:nonzero;"/><path d="M306.625,101.998c0,1.643 1.961,2.673 4.496,2.673c2.832,-0 4.734,-1.01 4.734,-2.673c0,-1.525 -2.318,-2.674 -4.516,-2.674c-2.397,0 -4.714,1.069 -4.714,2.674Zm7.091,1.01c-0.218,1.109 -1.189,1.228 -2.337,1.228c-1.248,-0 -2.595,-1.446 -2.595,-2.951c-0,-1.01 0.634,-1.525 1.901,-1.525c1.327,0 1.981,0.495 2.575,1.683c0.297,0.594 0.456,1.109 0.456,1.565Z" style="fill-rule:nonzero;"/><path d="M302.912,102.041c-0,-1.392 0.928,-2.476 2.785,-3.404c-1.393,0.928 -1.857,1.857 -1.857,3.404c-0,1.702 0.464,2.631 1.857,3.559c-1.857,-0.928 -2.785,-2.012 -2.785,-3.559Z"/><path d="M302.912,102.041c-0,-1.392 0.928,-2.476 2.785,-3.404c-1.393,0.928 -1.857,1.857 -1.857,3.404c-0,1.702 0.464,2.631 1.857,3.559c-1.857,-0.928 -2.785,-2.012 -2.785,-3.559Z" style="fill:none;stroke:#000;stroke-width:0.15px;"/><path d="M305.697,98.637c-1.702,0.928 -2.321,2.012 -2.321,3.404c0,1.547 0.619,2.631 2.321,3.559" style="fill:none;stroke:#000;stroke-width:0.31px;"/><path d="M319.623,102.041c-0,-1.392 -0.929,-2.476 -2.786,-3.404c1.393,0.928 1.857,1.857 1.857,3.404c0,1.702 -0.464,2.631 -1.857,3.559c1.857,-0.928 2.786,-2.012 2.786,-3.559Z"/><path d="M319.623,102.041c-0,-1.392 -0.929,-2.476 -2.786,-3.404c1.393,0.928 1.857,1.857 1.857,3.404c0,1.702 -0.464,2.631 -1.857,3.559c1.857,-0.928 2.786,-2.012 2.786,-3.559Z" style="fill:none;stroke:#000;stroke-width:0.15px;"/><path d="M316.837,98.637c1.703,0.928 2.321,2.012 2.321,3.404c-0,1.547 -0.618,2.631 -2.321,3.559" style="fill:none;stroke:#000;stroke-width:0.31px;"/><path d="M282.487,198.594l14.235,-0" style="fill:none;"/><path d="M282.487,198.594l14.235,-0" style="fill:none;stroke:#000;stroke-width:0.77px;"/><path d="M284.963,198.55c0,1.644 1.96,2.674 4.496,2.674c2.832,-0 4.733,-1.01 4.733,-2.674c-0,-1.525 -2.317,-2.673 -4.516,-2.673c-2.396,-0 -4.713,1.069 -4.713,2.673Zm7.09,1.01c-0.218,1.109 -1.188,1.228 -2.337,1.228c-1.248,-0 -2.594,-1.445 -2.594,-2.951c0,-1.01 0.633,-1.525 1.901,-1.525c1.327,-0 1.98,0.495 2.575,1.684c0.297,0.594 0.455,1.109 0.455,1.564Z" style="fill-rule:nonzero;"/><path d="M284.963,193.599c0,1.644 1.96,2.674 4.496,2.674c2.832,-0 4.733,-1.01 4.733,-2.674c-0,-1.525 -2.317,-2.674 -4.516,-2.674c-2.396,0 -4.713,1.07 -4.713,2.674Zm7.09,1.01c-0.218,1.109 -1.188,1.228 -2.337,1.228c-1.248,0 -2.594,-1.446 -2.594,-2.951c0,-1.01 0.633,-1.525 1.901,-1.525c1.327,-0 1.98,0.495 2.575,1.683c0.297,0.594 0.455,1.109 0.455,1.565Z" style="fill-rule:nonzero;"/><path d="M284.963,188.647c0,1.644 1.96,2.674 4.496,2.674c2.832,-0 4.733,-1.01 4.733,-2.674c-0,-1.525 -2.317,-2.673 -4.516,-2.673c-2.396,-0 -4.713,1.069 -4.713,2.673Zm7.09,1.011c-0.218,1.109 -1.188,1.228 -2.337,1.228c-1.248,0 -2.594,-1.446 -2.594,-2.952c0,-1.01 0.633,-1.525 1.901,-1.525c1.327,-0 1.98,0.496 2.575,1.684c0.297,0.594 0.455,1.109 0.455,1.565Z" style="fill-rule:nonzero;"/><path d="M77.931,255.492c-0,1.643 1.961,2.673 4.496,2.673c2.833,0 4.734,-1.01 4.734,-2.673c0,-1.525 -2.317,-2.674 -4.516,-2.674c-2.396,0 -4.714,1.069 -4.714,2.674Zm7.091,1.01c-0.218,1.109 -1.188,1.228 -2.337,1.228c-1.248,0 -2.595,-1.446 -2.595,-2.951c-0,-1.01 0.634,-1.525 1.902,-1.525c1.327,-0 1.98,0.495 2.574,1.683c0.297,0.594 0.456,1.109 0.456,1.565Z" style="fill-rule:nonzero;"/><path d="M77.931,260.443c-0,1.644 1.961,2.674 4.496,2.674c2.833,-0 4.734,-1.01 4.734,-2.674c0,-1.525 -2.317,-2.674 -4.516,-2.674c-2.396,-0 -4.714,1.07 -4.714,2.674Zm7.091,1.01c-0.218,1.109 -1.188,1.228 -2.337,1.228c-1.248,-0 -2.595,-1.446 -2.595,-2.951c-0,-1.01 0.634,-1.525 1.902,-1.525c1.327,0 1.98,0.495 2.574,1.683c0.297,0.595 0.456,1.11 0.456,1.565Z" style="fill-rule:nonzero;"/><path d="M77.931,265.394c-0,1.644 1.961,2.674 4.496,2.674c2.833,0 4.734,-1.01 4.734,-2.674c0,-1.525 -2.317,-2.673 -4.516,-2.673c-2.396,0 -4.714,1.069 -4.714,2.673Zm7.091,1.011c-0.218,1.109 -1.188,1.228 -2.337,1.228c-1.248,0 -2.595,-1.446 -2.595,-2.952c-0,-1.01 0.634,-1.525 1.902,-1.525c1.327,-0 1.98,0.496 2.574,1.684c0.297,0.594 0.456,1.109 0.456,1.565Z" style="fill-rule:nonzero;"/><path d="M294.711,275.297c-0,1.644 1.961,2.674 4.496,2.674c2.832,0 4.733,-1.01 4.733,-2.674c0,-1.525 -2.317,-2.673 -4.515,-2.673c-2.397,0 -4.714,1.069 -4.714,2.673Zm7.09,1.01c-0.218,1.11 -1.188,1.228 -2.337,1.228c-1.248,0 -2.594,-1.445 -2.594,-2.951c-0,-1.01 0.633,-1.525 1.901,-1.525c1.327,-0 1.981,0.495 2.575,1.684c0.297,0.594 0.455,1.109 0.455,1.564Z" style="fill-rule:nonzero;"/><path d="M294.711,270.346c-0,1.644 1.961,2.674 4.496,2.674c2.832,-0 4.733,-1.01 4.733,-2.674c0,-1.525 -2.317,-2.674 -4.515,-2.674c-2.397,-0 -4.714,1.07 -4.714,2.674Zm7.09,1.01c-0.218,1.109 -1.188,1.228 -2.337,1.228c-1.248,-0 -2.594,-1.446 -2.594,-2.951c-0,-1.01 0.633,-1.525 1.901,-1.525c1.327,0 1.981,0.495 2.575,1.683c0.297,0.594 0.455,1.109 0.455,1.565Z" style="fill-rule:nonzero;"/><path d="M294.711,265.394c-0,1.644 1.961,2.674 4.496,2.674c2.832,0 4.733,-1.01 4.733,-2.674c0,-1.525 -2.317,-2.673 -4.515,-2.673c-2.397,0 -4.714,1.069 -4.714,2.673Zm7.09,1.011c-0.218,1.109 -1.188,1.228 -2.337,1.228c-1.248,0 -2.594,-1.446 -2.594,-2.952c-0,-1.01 0.633,-1.525 1.901,-1.525c1.327,-0 1.981,0.496 2.575,1.684c0.297,0.594 0.455,1.109 0.455,1.565Z" style="fill-rule:nonzero;"/><path d="M294.711,260.443c-0,1.644 1.961,2.674 4.496,2.674c2.832,-0 4.733,-1.01 4.733,-2.674c0,-1.525 -2.317,-2.674 -4.515,-2.674c-2.397,-0 -4.714,1.07 -4.714,2.674Zm7.09,1.01c-0.218,1.109 -1.188,1.228 -2.337,1.228c-1.248,-0 -2.594,-1.446 -2.594,-2.951c-0,-1.01 0.633,-1.525 1.901,-1.525c1.327,0 1.981,0.495 2.575,1.683c0.297,0.595 0.455,1.11 0.455,1.565Z" style="fill-rule:nonzero;"/><path d="M290.997,260.487c0,-1.393 0.929,-2.476 2.785,-3.405c-1.392,0.929 -1.856,1.857 -1.856,3.405c-0,1.702 0.464,2.63 1.856,3.558c-1.856,-0.928 -2.785,-2.011 -2.785,-3.558Z"/><path d="M290.997,260.487c0,-1.393 0.929,-2.476 2.785,-3.405c-1.392,0.929 -1.856,1.857 -1.856,3.405c-0,1.702 0.464,2.63 1.856,3.558c-1.856,-0.928 -2.785,-2.011 -2.785,-3.558Z" style="fill:none;stroke:#000;stroke-width:0.15px;"/><path d="M293.782,257.082c-1.702,0.929 -2.321,2.012 -2.321,3.405c-0,1.547 0.619,2.63 2.321,3.558" style="fill:none;stroke:#000;stroke-width:0.31px;"/><path d="M307.708,260.487c0,-1.393 -0.928,-2.476 -2.785,-3.405c1.393,0.929 1.857,1.857 1.857,3.405c-0,1.702 -0.464,2.63 -1.857,3.558c1.857,-0.928 2.785,-2.011 2.785,-3.558Z"/><path d="M307.708,260.487c0,-1.393 -0.928,-2.476 -2.785,-3.405c1.393,0.929 1.857,1.857 1.857,3.405c-0,1.702 -0.464,2.63 -1.857,3.558c1.857,-0.928 2.785,-2.011 2.785,-3.558Z" style="fill:none;stroke:#000;stroke-width:0.15px;"/><path d="M304.923,257.082c1.702,0.929 2.321,2.012 2.321,3.405c-0,1.547 -0.619,2.63 -2.321,3.558" style="fill:none;stroke:#000;stroke-width:0.31px;"/><path d="M278.928,357.039l14.235,-0" style="fill:none;"/><path d="M278.928,357.039l14.235,-0" style="fill:none;stroke:#000;stroke-width:0.77px;"/><path d="M281.404,356.996c-0,1.644 1.961,2.674 4.496,2.674c2.832,0 4.733,-1.011 4.733,-2.674c-0,-1.525 -2.317,-2.674 -4.515,-2.674c-2.397,-0 -4.714,1.069 -4.714,2.674Zm7.09,1.01c-0.218,1.109 -1.188,1.228 -2.337,1.228c-1.248,0 -2.594,-1.446 -2.594,-2.951c-0,-1.01 0.633,-1.525 1.901,-1.525c1.327,0 1.981,0.495 2.575,1.683c0.297,0.594 0.455,1.109 0.455,1.565Z" style="fill-rule:nonzero;"/><path d="M281.404,352.044c-0,1.644 1.961,2.674 4.496,2.674c2.832,0 4.733,-1.01 4.733,-2.674c-0,-1.525 -2.317,-2.673 -4.515,-2.673c-2.397,0 -4.714,1.069 -4.714,2.673Zm7.09,1.01c-0.218,1.11 -1.188,1.228 -2.337,1.228c-1.248,-0 -2.594,-1.445 -2.594,-2.951c-0,-1.01 0.633,-1.525 1.901,-1.525c1.327,-0 1.981,0.495 2.575,1.684c0.297,0.594 0.455,1.109 0.455,1.564Z" style="fill-rule:nonzero;"/><path d="M281.404,347.093c-0,1.644 1.961,2.674 4.496,2.674c2.832,0 4.733,-1.01 4.733,-2.674c-0,-1.525 -2.317,-2.674 -4.515,-2.674c-2.397,0 -4.714,1.07 -4.714,2.674Zm7.09,1.01c-0.218,1.109 -1.188,1.228 -2.337,1.228c-1.248,-0 -2.594,-1.446 -2.594,-2.951c-0,-1.01 0.633,-1.525 1.901,-1.525c1.327,-0 1.981,0.495 2.575,1.683c0.297,0.595 0.455,1.109 0.455,1.565Z" style="fill-rule:nonzero;"/><path d="M4.474,5.635l1.049,0l0.179,-1.346l-0.406,0c-0.178,0.584 -0.345,0.762 -0.822,0.762l-0,-5.099l-0.953,-0l-3.431,4.992l0,0.691l3.264,0l0,0.834c0,0.679 -0.262,0.965 -1.072,0.965l0,0.429l3.241,0l-0,-0.429c-0.751,-0 -1.049,-0.25 -1.049,-0.941l-0,-0.858Zm-1.12,-0.584l-2.776,-0l2.753,-4.062l0.023,0l0,4.062Z" style="fill-rule:nonzero;"/></g></svg>