<svg clip-rule="evenodd" fill-rule="evenodd" stroke-linejoin="round" stroke-miterlimit="2" viewBox="0 0 245 44" xmlns="http://www.w3.org/2000/svg"><path d="m241.697 16.097v19.837" fill="none" stroke="#000" stroke-width=".77"/><path d="m244.331 16.097v19.837" fill="none" stroke="#000" stroke-width=".77"/><path d="m38.715 12.837c.06.165.151.225.256.225.225 0 .496-.27.661-.541.166-1.954.406-3.893.406-5.051 0-1.969-.992-2.405-1.849-2.405-.496 0-.962.135-1.157.21-.03.526-.196 1.489-.196 2.27.346-.03.451-.045.496-.045.06 0 .045.03.361.09-.601.316-1.112.451-1.503.451-.887 0-1.263-.691-1.263-1.563 0-.436.09-.932.271-1.413.18-.782 1.112-2.405 1.849-2.405.631 0 .736 2.029 1.533 2.029.376 0 .571-.436.571-1.218 0-1.849-.736-3.427-1.864-3.427-1.789 0-3.578 3.833-3.578 6.885 0 1.819.587 3.788 2.556 3.788.887 0 1.864-.511 2.646-1.879-.03 1.819-.166 2.917-.196 3.999z" fill-rule="nonzero"/><path d="m41.345-.392c-.015.631-.12 1.278-.165 1.954.691-.21 1.473-.511 2.255-.511.301 0 .586.045.887.15-.316 1.173-.947 3.127-1.714 5.773.165.165.316.301.451.301.09 0 .18-.06.286-.211.811-2.42 1.292-3.713 2.074-6.795.03-.135.045-.27.045-.376 0-.661-.571-.886-1.308-.886-.977 0-2.224.375-2.811.601z" fill-rule="nonzero"/><g fill="none" stroke="#000" stroke-width=".46"><path d="m.082 35.934h244.559"/><path d="m.082 30.975h244.559"/><path d="m.082 26.015h244.559"/><path d="m.082 21.056h244.559"/><path d="m.082 16.097h244.559"/></g><path d="m14.177 35.276.754 3.67c.039.218.059.416.059.615 0 1.944-1.984 3.57-4.126 3.57-.655 0-1.29-.158-1.885-.456 1.528-.159 2.678-1.091 2.678-2.46 0-1.21-.992-2.479-2.261-2.479-1.448 0-2.44 1.11-2.44 2.559 0 2.023 1.646 3.352 3.63 3.352 2.658 0 4.92-1.726 4.92-4.205 0-.556-.873-4.484-.853-4.345 2.122-1.031 3.571-2.856 3.571-4.781 0-2.638-2.123-4.661-4.761-4.661-.04 0-.318.019-.794.059l-.873-4.186c2.956-2.499 4.305-5.157 4.305-8.074 0-2.241-.893-4.622-2.698-7.121-2.043 1.646-3.214 4.939-3.214 8.451 0 1.249.159 2.459.437 3.61-4.523 3.789-6.785 7.28-6.785 10.474 0 3.749 3.869 6.864 8.074 6.864.933 0 1.627-.139 2.262-.456zm-.06-26.067c.655.675.992 1.468.992 2.401 0 1.924-1.369 4.086-4.047 6.467-.139-.576-.178-1.21-.178-1.905 0-3.332 1.23-7.002 2.876-7.002.139 0 .258.019.357.039zm.417 25.253-1.409-6.625c.278-.02.437-.04.496-.04 1.706 0 2.897 1.607 2.897 3.253 0 1.31-.695 2.46-1.984 3.412zm-1.905-6.546 1.429 6.824c-.695.377-1.468.536-2.401.536-3.213 0-5.991-2.401-5.991-5.317 0-2.638 1.964-5.356 5.674-8.133l.833 3.967c-2.063.437-3.809 2.183-3.809 4.146 0 1.667 1.191 2.837 2.976 3.115-1.091-.675-1.627-1.528-1.627-2.539 0-1.369 1.27-2.381 2.916-2.599z" fill-rule="nonzero"/><path d="m21.16 29.602 2.797-2.063c1.23-.893 1.706-1.904 1.745-2.658 0-1.111-1.011-1.944-2.202-1.944-.833 0-1.448.317-1.845.972l.139-6.249h-.634zm1.844-5.872c.635 0 1.111.457 1.111 1.072 0 1.031-1.369 3.015-2.4 3.669-.06-.337-.099-.991-.099-1.963 0-.536.039-1.191.119-1.945.297-.555.714-.833 1.269-.833z" fill-rule="nonzero"/><path d="m55.565 16.097 71.136-4.96v-2.479l-71.136 4.959z"/><path d="m144.059 37.174 71.136-4.959v-2.48l-71.136 4.959z"/><path d="m55.565 30.2v-16.428" fill="none"/><path d="m55.565 30.2v-16.428" fill="none" stroke="#000" stroke-width=".46"/><path d="m51.123 33.51c2.043 0 4.562-1.706 4.562-3.452 0-1.051-.932-1.725-2.261-1.725-2.004 0-4.523 1.666-4.523 3.451 0 1.091.972 1.726 2.222 1.726z" fill-rule="nonzero"/><path d="m79.277 27.72v-15.498" fill="none"/><path d="m79.277 27.72v-15.498" fill="none" stroke="#000" stroke-width=".46"/><path d="m74.835 31.03c2.043 0 4.562-1.706 4.562-3.451 0-1.052-.932-1.726-2.261-1.726-2.004 0-4.523 1.666-4.523 3.452 0 1.091.972 1.725 2.222 1.725z" fill-rule="nonzero"/><path d="m102.989 25.241v-14.724" fill="none"/><path d="m102.989 25.241v-14.724" fill="none" stroke="#000" stroke-width=".46"/><path d="m98.547 28.551c2.043 0 4.562-1.706 4.562-3.452 0-1.051-.932-1.726-2.261-1.726-2.004 0-4.523 1.667-4.523 3.452 0 1.091.972 1.726 2.222 1.726z" fill-rule="nonzero"/><path d="m90.436 29.602 2.797-2.063c1.23-.893 1.706-1.904 1.746-2.658 0-1.111-1.012-1.944-2.202-1.944-.834 0-1.449.317-1.845.972l.139-6.249h-.635zm1.845-5.872c.634 0 1.111.457 1.111 1.072 0 1.031-1.369 3.015-2.401 3.669-.059-.337-.099-.991-.099-1.963 0-.536.04-1.191.119-1.945.298-.555.714-.833 1.27-.833z" fill-rule="nonzero"/><path d="m126.701 22.761v-13.948" fill="none"/><path d="m126.701 22.761v-13.948" fill="none" stroke="#000" stroke-width=".46"/><path d="m122.259 26.071c2.043 0 4.562-1.706 4.562-3.452 0-1.051-.932-1.725-2.261-1.725-2.004 0-4.523 1.666-4.523 3.451 0 1.091.972 1.726 2.222 1.726z" fill-rule="nonzero"/><path d="m144.059 21.831v15.188" fill="none"/><path d="m144.059 21.831v15.188" fill="none" stroke="#000" stroke-width=".46"/><path d="m146.126 23.591c2.043 0 4.562-1.706 4.562-3.451 0-1.052-.932-1.726-2.261-1.726-2.004 0-4.523 1.666-4.523 3.452 0 1.091.972 1.725 2.222 1.725z" fill-rule="nonzero"/><path d="m167.771 19.351v16.118" fill="none"/><path d="m167.771 19.351v16.118" fill="none" stroke="#000" stroke-width=".46"/><path d="m169.838 21.112c2.043 0 4.562-1.706 4.562-3.452 0-1.051-.932-1.726-2.261-1.726-2.004 0-4.523 1.667-4.523 3.452 0 1.091.972 1.726 2.222 1.726z" fill-rule="nonzero"/><path d="m191.483 16.872v16.892" fill="none"/><path d="m191.483 16.872v16.892" fill="none" stroke="#000" stroke-width=".46"/><path d="m193.55 18.632c2.043 0 4.562-1.706 4.562-3.452 0-1.051-.932-1.726-2.261-1.726-2.004 0-4.523 1.667-4.523 3.452 0 1.091.972 1.726 2.222 1.726z" fill-rule="nonzero"/><path d="m215.195 14.392v17.668" fill="none"/><path d="m215.195 14.392v17.668" fill="none" stroke="#000" stroke-width=".46"/><path d="m217.262 16.152c2.043 0 4.562-1.706 4.562-3.451 0-1.052-.932-1.726-2.261-1.726-2.004 0-4.523 1.666-4.523 3.452 0 1.091.972 1.725 2.222 1.725z" fill-rule="nonzero"/></svg>