<svg clip-rule="evenodd" fill-rule="evenodd" stroke-linejoin="round" stroke-miterlimit="2" viewBox="0 0 245 44" xmlns="http://www.w3.org/2000/svg"><path d="m241.057 16.205v19.837" fill="none" stroke="#000" stroke-width=".77"/><path d="m243.691 16.205v19.837" fill="none" stroke="#000" stroke-width=".77"/><path d="m36.836 12.945c.06.165.15.225.255.225.226 0 .496-.27.662-.541.165-1.954.405-3.893.405-5.051 0-1.969-.992-2.405-1.849-2.405-.496 0-.962.135-1.157.21-.03.526-.196 1.489-.196 2.27.346-.03.451-.045.496-.045.061 0 .046.03.361.09-.601.316-1.112.451-1.503.451-.887 0-1.263-.691-1.263-1.563 0-.436.09-.932.271-1.413.18-.782 1.112-2.406 1.849-2.406.631 0 .736 2.03 1.533 2.03.376 0 .571-.436.571-1.218 0-1.849-.736-3.427-1.864-3.427-1.789 0-3.577 3.833-3.577 6.885 0 1.819.586 3.788 2.555 3.788.887 0 1.864-.511 2.646-1.879-.03 1.819-.165 2.917-.195 3.999z" fill-rule="nonzero"/><path d="m39.465-.284c-.015.631-.12 1.278-.165 1.954.692-.21 1.473-.511 2.255-.511.301 0 .586.045.887.15-.316 1.173-.947 3.127-1.714 5.773.166.165.316.301.451.301.09 0 .181-.06.286-.211.812-2.42 1.293-3.713 2.074-6.795.03-.135.045-.27.045-.376 0-.661-.571-.887-1.307-.887-.978 0-2.225.376-2.812.602z" fill-rule="nonzero"/><g fill="none" stroke="#000" stroke-width=".46"><path d="m.062 36.042h243.939"/><path d="m.062 31.083h243.939"/><path d="m.062 26.123h243.939"/><path d="m.062 21.164h243.939"/><path d="m.062 16.205h243.939"/></g><path d="m14.157 35.384.753 3.67c.04.218.06.416.06.615 0 1.944-1.984 3.57-4.126 3.57-.655 0-1.29-.158-1.885-.456 1.528-.159 2.678-1.091 2.678-2.46 0-1.21-.992-2.479-2.261-2.479-1.448 0-2.44 1.11-2.44 2.559 0 2.023 1.646 3.352 3.63 3.352 2.658 0 4.92-1.726 4.92-4.205 0-.556-.873-4.484-.853-4.345 2.122-1.031 3.57-2.856 3.57-4.781 0-2.638-2.122-4.662-4.761-4.662-.039 0-.317.02-.793.06l-.873-4.186c2.956-2.499 4.305-5.157 4.305-8.074 0-2.241-.893-4.622-2.698-7.121-2.043 1.646-3.214 4.939-3.214 8.451 0 1.249.159 2.459.437 3.61-4.523 3.789-6.785 7.28-6.785 10.474 0 3.749 3.869 6.864 8.074 6.864.933 0 1.627-.139 2.262-.456zm-.06-26.067c.655.675.992 1.468.992 2.401 0 1.924-1.369 4.086-4.047 6.467-.139-.576-.178-1.211-.178-1.905 0-3.333 1.23-7.002 2.876-7.002.139 0 .258.019.357.039zm.417 25.253-1.409-6.625c.278-.02.437-.04.496-.04 1.706 0 2.896 1.607 2.896 3.253 0 1.31-.694 2.46-1.983 3.412zm-1.905-6.546 1.429 6.824c-.695.377-1.468.536-2.401.536-3.213 0-5.991-2.401-5.991-5.317 0-2.638 1.964-5.356 5.674-8.133l.833 3.967c-2.063.437-3.809 2.182-3.809 4.146 0 1.667 1.19 2.837 2.976 3.115-1.091-.675-1.627-1.528-1.627-2.539 0-1.369 1.27-2.381 2.916-2.599z" fill-rule="nonzero"/><path d="m21.139 29.71 2.798-2.063c1.229-.893 1.706-1.904 1.745-2.658 0-1.111-1.011-1.944-2.202-1.944-.833 0-1.448.317-1.845.972l.139-6.249h-.635zm1.845-5.872c.635 0 1.111.457 1.111 1.071 0 1.032-1.369 3.016-2.4 3.67-.06-.337-.099-.991-.099-1.964 0-.535.039-1.19.119-1.944.297-.555.714-.833 1.269-.833z" fill-rule="nonzero"/><path d="m53.685 16.205 78.11-4.96v-2.479l-78.11 4.959z"/><path d="m147.913 37.282 67.727-4.959v-2.48l-67.727 4.959z"/><path d="m53.685 30.308v-16.428" fill="none"/><path d="m53.685 30.308v-16.428" fill="none" stroke="#000" stroke-width=".46"/><path d="m49.243 33.618c2.043 0 4.563-1.706 4.563-3.452 0-1.051-.933-1.725-2.262-1.725-2.004 0-4.523 1.666-4.523 3.451 0 1.091.972 1.726 2.222 1.726z" fill-rule="nonzero"/><path d="m86.696 27.828v-15.963" fill="none"/><path d="m86.696 27.828v-15.963" fill="none" stroke="#000" stroke-width=".46"/><path d="m82.254 31.138c2.043 0 4.562-1.706 4.562-3.451 0-1.052-.932-1.726-2.261-1.726-2.004 0-4.523 1.666-4.523 3.452 0 1.091.972 1.725 2.222 1.725z" fill-rule="nonzero"/><path d="m109.323 25.349v-14.879" fill="none"/><path d="m109.323 25.349v-14.879" fill="none" stroke="#000" stroke-width=".46"/><path d="m104.881 28.659c2.043 0 4.562-1.706 4.562-3.452 0-1.051-.932-1.726-2.261-1.726-2.004 0-4.523 1.667-4.523 3.452 0 1.091.972 1.726 2.222 1.726z" fill-rule="nonzero"/><path d="m131.795 22.869v-13.948" fill="none"/><path d="m131.795 22.869v-13.948" fill="none" stroke="#000" stroke-width=".46"/><path d="m127.353 26.179c2.043 0 4.563-1.706 4.563-3.452 0-1.051-.933-1.726-2.262-1.726-2.003 0-4.523 1.667-4.523 3.452 0 1.091.972 1.726 2.222 1.726z" fill-rule="nonzero"/><path d="m147.913 21.939v15.188" fill="none"/><path d="m147.913 21.939v15.188" fill="none" stroke="#000" stroke-width=".46"/><path d="m149.98 23.699c2.043 0 4.563-1.706 4.563-3.451 0-1.052-.933-1.726-2.262-1.726-2.003 0-4.523 1.666-4.523 3.452 0 1.091.972 1.725 2.222 1.725z" fill-rule="nonzero"/><path d="m170.54 19.459v16.118" fill="none"/><path d="m170.54 19.459v16.118" fill="none" stroke="#000" stroke-width=".46"/><path d="m172.607 21.22c2.044 0 4.563-1.706 4.563-3.452 0-1.051-.932-1.726-2.262-1.726-2.003 0-4.523 1.666-4.523 3.452 0 1.091.973 1.726 2.222 1.726z" fill-rule="nonzero"/><path d="m193.168 16.98v16.892" fill="none"/><path d="m193.168 16.98v16.892" fill="none" stroke="#000" stroke-width=".46"/><path d="m195.234 18.74c2.044 0 4.563-1.706 4.563-3.452 0-1.051-.932-1.726-2.261-1.726-2.004 0-4.523 1.667-4.523 3.452 0 1.091.972 1.726 2.221 1.726z" fill-rule="nonzero"/><path d="m215.64 14.5v17.668" fill="none"/><path d="m215.64 14.5v17.668" fill="none" stroke="#000" stroke-width=".46"/><path d="m217.707 16.26c2.043 0 4.562-1.706 4.562-3.451 0-1.052-.932-1.726-2.261-1.726-2.004 0-4.523 1.666-4.523 3.451 0 1.092.972 1.726 2.222 1.726z" fill-rule="nonzero"/></svg>