<svg clip-rule="evenodd" fill-rule="evenodd" stroke-linejoin="round" stroke-miterlimit="2" viewBox="0 0 294 38" xmlns="http://www.w3.org/2000/svg"><g fill="none" stroke="#000"><path d="m290.08 9.68v19.882" stroke-width=".78"/><path d="m292.72 9.68v19.882" stroke-width=".78"/><g stroke-width=".47"><path d="m.087 29.562h292.944"/><path d="m.087 24.591h292.944"/><path d="m.087 19.621h292.944"/><path d="m.087 14.65h292.944"/><path d="m.087 9.68h292.944"/></g></g><path d="m14.213 28.902.756 3.678c.039.219.059.417.059.616 0 1.949-1.988 3.579-4.135 3.579-.656 0-1.293-.159-1.889-.457 1.531-.16 2.684-1.094 2.684-2.466 0-1.213-.994-2.485-2.266-2.485-1.452 0-2.446 1.113-2.446 2.565 0 2.028 1.65 3.36 3.638 3.36 2.665 0 4.931-1.73 4.931-4.215 0-.557-.875-4.493-.855-4.354 2.128-1.034 3.579-2.863 3.579-4.792 0-2.644-2.127-4.672-4.772-4.672-.039 0-.318.02-.795.06l-.875-4.195c2.963-2.505 4.315-5.17 4.315-8.092 0-2.247-.895-4.633-2.704-7.138-2.048 1.651-3.221 4.951-3.221 8.47 0 1.253.159 2.465.437 3.618-4.533 3.798-6.799 7.297-6.799 10.498 0 3.758 3.877 6.879 8.092 6.879.934 0 1.63-.139 2.266-.457zm-.06-26.125c.656.676.994 1.471.994 2.406 0 1.928-1.371 4.096-4.055 6.481-.14-.576-.179-1.212-.179-1.908 0-3.34 1.232-7.019 2.883-7.019.139 0 .258.02.357.04zm.418 25.31-1.412-6.641c.279-.02.438-.04.497-.04 1.71 0 2.903 1.611 2.903 3.261 0 1.312-.696 2.465-1.988 3.42zm-1.909-6.561 1.432 6.839c-.696.378-1.472.537-2.406.537-3.221 0-6.004-2.406-6.004-5.329 0-2.644 1.968-5.368 5.686-8.151l.835 3.976c-2.068.438-3.817 2.187-3.817 4.156 0 1.67 1.193 2.843 2.982 3.121-1.094-.676-1.63-1.531-1.63-2.545 0-1.372 1.272-2.386 2.922-2.604z" fill-rule="nonzero"/><path d="m44.665 28.785v-16.62" fill="none" stroke="#000" stroke-width=".47"/><path d="m40.213 32.103c2.048 0 4.573-1.71 4.573-3.46 0-1.053-.934-1.729-2.266-1.729-2.009 0-4.534 1.67-4.534 3.459 0 1.093.975 1.73 2.227 1.73z" fill-rule="nonzero"/><path d="m32.084 33.156 2.803-2.067c1.233-.895 1.71-1.909 1.75-2.664 0-1.114-1.014-1.949-2.207-1.949-.835 0-1.451.318-1.849.974l.139-6.262h-.636zm1.849-5.885c.636 0 1.114.458 1.114 1.074 0 1.034-1.372 3.022-2.406 3.678-.06-.338-.1-.994-.1-1.968 0-.537.04-1.193.12-1.949.298-.556.715-.835 1.272-.835z" fill-rule="nonzero"/><path d="m75.886 26.3v-16.62" fill="none" stroke="#000" stroke-width=".47"/><path d="m71.434 29.617c2.047 0 4.572-1.709 4.572-3.459 0-1.054-.934-1.73-2.266-1.73-2.008 0-4.533 1.67-4.533 3.46 0 1.093.974 1.729 2.227 1.729z" fill-rule="nonzero"/><path d="m106.951 23.815v-16.62" fill="none" stroke="#000" stroke-width=".47"/><path d="m102.499 27.132c2.048 0 4.572-1.71 4.572-3.459 0-1.054-.934-1.73-2.266-1.73-2.008 0-4.533 1.67-4.533 3.46 0 1.093.974 1.729 2.227 1.729z" fill-rule="nonzero"/><path d="m138.171 21.329v-16.619" fill="none" stroke="#000" stroke-width=".47"/><path d="m133.719 24.647c2.048 0 4.573-1.71 4.573-3.459 0-1.054-.935-1.73-2.267-1.73-2.008 0-4.533 1.67-4.533 3.459 0 1.094.975 1.73 2.227 1.73z" fill-rule="nonzero"/><path d="m125.59 25.701 2.803-2.068c1.233-.895 1.71-1.909 1.75-2.664 0-1.113-1.014-1.948-2.207-1.948-.835 0-1.451.318-1.849.974l.139-6.263h-.636zm1.849-5.885c.636 0 1.113.457 1.113 1.073 0 1.034-1.371 3.022-2.405 3.679-.06-.338-.1-.995-.1-1.969 0-.537.04-1.193.12-1.948.298-.557.715-.835 1.272-.835z" fill-rule="nonzero"/><path d="m162.713 20.398v16.619" fill="none" stroke="#000" stroke-width=".47"/><path d="m164.784 22.162c2.048 0 4.573-1.71 4.573-3.46 0-1.053-.935-1.729-2.267-1.729-2.008 0-4.533 1.67-4.533 3.459 0 1.094.975 1.73 2.227 1.73z" fill-rule="nonzero"/><path d="m156.655 23.216 2.803-2.068c1.233-.895 1.71-1.909 1.75-2.664 0-1.114-1.014-1.949-2.207-1.949-.835 0-1.451.318-1.849.975l.139-6.263h-.636zm1.849-5.885c.636 0 1.113.457 1.113 1.073 0 1.034-1.371 3.022-2.405 3.678-.06-.338-.1-.994-.1-1.968 0-.537.04-1.193.12-1.948.298-.557.715-.835 1.272-.835z" fill-rule="nonzero"/><path d="m193.933 17.912v16.62" fill="none" stroke="#000" stroke-width=".47"/><path d="m196.005 19.677c2.047 0 4.572-1.71 4.572-3.46 0-1.054-.934-1.729-2.266-1.729-2.008 0-4.533 1.67-4.533 3.459 0 1.093.974 1.73 2.227 1.73z" fill-rule="nonzero"/><path d="m224.998 15.427v16.62" fill="none" stroke="#000" stroke-width=".47"/><path d="m227.07 17.191c2.047 0 4.572-1.709 4.572-3.459 0-1.054-.934-1.73-2.266-1.73-2.008 0-4.533 1.67-4.533 3.46 0 1.093.974 1.729 2.227 1.729z" fill-rule="nonzero"/><path d="m256.219 12.942v16.62" fill="none" stroke="#000" stroke-width=".47"/><g fill-rule="nonzero"><path d="m258.29 14.706c2.048 0 4.573-1.71 4.573-3.459 0-1.054-.935-1.73-2.267-1.73-2.008 0-4.533 1.67-4.533 3.46 0 1.093.974 1.729 2.227 1.729z"/><path d="m250.161 15.76 2.803-2.068c1.233-.894 1.71-1.908 1.75-2.664 0-1.113-1.014-1.948-2.207-1.948-.835 0-1.451.318-1.849.974l.139-6.263h-.636zm1.849-5.885c.636 0 1.113.457 1.113 1.074 0 1.033-1.372 3.022-2.405 3.678-.06-.338-.1-.994-.1-1.969 0-.536.04-1.193.119-1.948.299-.557.716-.835 1.273-.835z"/></g></svg>