<svg clip-rule="evenodd" fill-rule="evenodd" stroke-linejoin="round" stroke-miterlimit="2" viewBox="0 0 293 38" xmlns="http://www.w3.org/2000/svg"><g fill="none"><path d="m289.377 9.529v19.837" stroke="#000" stroke-width=".77"/><path d="m292.011 9.529v19.837" stroke="#000" stroke-width=".77"/><path d="m.028 29.366h292.293" stroke="#000" stroke-width=".46"/><path d="m.028 24.407h292.293" stroke="#000" stroke-width=".46"/><path d="m.028 19.447h292.293" stroke="#000" stroke-width=".46"/><path d="m.028 14.488h292.293" stroke="#000" stroke-width=".46"/><path d="m.028 9.529h292.293" stroke="#000" stroke-width=".46"/></g><path d="m14.123 28.708.754 3.67c.039.218.059.416.059.615 0 1.944-1.984 3.57-4.126 3.57-.655 0-1.29-.158-1.885-.456 1.528-.159 2.678-1.091 2.678-2.46 0-1.21-.991-2.479-2.261-2.479-1.448 0-2.44 1.11-2.44 2.559 0 2.023 1.646 3.352 3.63 3.352 2.658 0 4.92-1.726 4.92-4.205 0-.556-.873-4.484-.853-4.345 2.122-1.031 3.571-2.856 3.571-4.781 0-2.638-2.123-4.662-4.761-4.662-.04 0-.318.02-.794.06l-.873-4.186c2.956-2.499 4.305-5.157 4.305-8.074 0-2.241-.893-4.622-2.698-7.121-2.043 1.646-3.214 4.939-3.214 8.451 0 1.249.159 2.459.437 3.61-4.523 3.789-6.785 7.28-6.785 10.474 0 3.749 3.869 6.864 8.074 6.864.933 0 1.627-.139 2.262-.456zm-.06-26.067c.655.675.992 1.468.992 2.401 0 1.924-1.369 4.086-4.047 6.467-.139-.576-.178-1.211-.178-1.905 0-3.333 1.23-7.002 2.876-7.002.139 0 .258.019.357.039zm.417 25.253-1.409-6.625c.278-.02.437-.04.496-.04 1.706 0 2.897 1.607 2.897 3.253 0 1.31-.695 2.46-1.984 3.412zm-1.905-6.546 1.429 6.824c-.695.377-1.468.536-2.401.536-3.213 0-5.991-2.401-5.991-5.317 0-2.638 1.964-5.356 5.674-8.133l.833 3.967c-2.063.437-3.809 2.182-3.809 4.146 0 1.667 1.191 2.837 2.976 3.115-1.091-.675-1.627-1.528-1.627-2.539 0-1.369 1.27-2.381 2.916-2.599z" fill-rule="nonzero"/><path d="m44.508 31.071v-16.583" fill="none" stroke="#000" stroke-width=".46"/><path d="m40.065 34.381c2.043 0 4.563-1.706 4.563-3.452 0-1.051-.933-1.725-2.262-1.725-2.003 0-4.523 1.666-4.523 3.451 0 1.091.972 1.726 2.222 1.726z" fill-rule="nonzero"/><path d="m75.659 28.591v-16.583" fill="none" stroke="#000" stroke-width=".46"/><path d="m71.216 31.902c2.044 0 4.563-1.707 4.563-3.452 0-1.052-.932-1.726-2.262-1.726-2.003 0-4.523 1.666-4.523 3.452 0 1.091.973 1.726 2.222 1.726z" fill-rule="nonzero"/><path d="m65.275 29.366c0-1.395.93-2.479 2.79-3.409-1.395.93-1.86 1.859-1.86 3.409 0 1.705.465 2.635 1.86 3.565-1.86-.93-2.79-2.015-2.79-3.565z"/><path d="m65.275 29.366c0-1.395.93-2.479 2.79-3.409-1.395.93-1.86 1.859-1.86 3.409 0 1.705.465 2.635 1.86 3.565-1.86-.93-2.79-2.015-2.79-3.565z" fill="none" stroke="#000" stroke-width=".15"/><path d="m68.065 25.957c-1.705.93-2.325 2.014-2.325 3.409 0 1.55.62 2.635 2.325 3.565" fill="none" stroke="#000" stroke-width=".31"/><path d="m79.533 29.366c0-1.395-.93-2.479-2.789-3.409 1.394.93 1.859 1.859 1.859 3.409 0 1.705-.465 2.635-1.859 3.565 1.859-.93 2.789-2.015 2.789-3.565z"/><path d="m79.533 29.366c0-1.395-.93-2.479-2.789-3.409 1.394.93 1.859 1.859 1.859 3.409 0 1.705-.465 2.635-1.859 3.565 1.859-.93 2.789-2.015 2.789-3.565z" fill="none" stroke="#000" stroke-width=".15"/><path d="m76.744 25.957c1.704.93 2.324 2.014 2.324 3.409 0 1.55-.62 2.635-2.324 3.565" fill="none" stroke="#000" stroke-width=".31"/><path d="m106.655 26.112v-16.583" fill="none"/><path d="m106.655 26.112v-16.583" fill="none" stroke="#000" stroke-width=".46"/><path d="m102.212 29.422c2.044 0 4.563-1.706 4.563-3.452 0-1.051-.932-1.726-2.262-1.726-2.003 0-4.522 1.667-4.522 3.452 0 1.091.972 1.726 2.221 1.726z" fill-rule="nonzero"/><path d="m137.806 23.632v-16.583" fill="none"/><path d="m137.806 23.632v-16.583" fill="none" stroke="#000" stroke-width=".46"/><path d="m133.363 26.942c2.044 0 4.563-1.706 4.563-3.452 0-1.051-.932-1.725-2.261-1.725-2.004 0-4.523 1.666-4.523 3.451 0 1.091.972 1.726 2.221 1.726z" fill-rule="nonzero"/><path d="m168.802 21.152v-16.583" fill="none"/><path d="m168.802 21.152v-16.583" fill="none" stroke="#000" stroke-width=".46"/><path d="m164.359 24.462c2.044 0 4.563-1.706 4.563-3.451 0-1.052-.932-1.726-2.261-1.726-2.004 0-4.523 1.666-4.523 3.452 0 1.091.972 1.725 2.221 1.725z" fill-rule="nonzero"/><path d="m156.248 25.514 2.797-2.063c1.23-.893 1.707-1.905 1.746-2.658 0-1.111-1.012-1.945-2.202-1.945-.833 0-1.448.318-1.845.972l.139-6.248h-.635zm1.845-5.872c.635 0 1.111.456 1.111 1.071 0 1.032-1.369 3.015-2.4 3.67-.06-.337-.099-.992-.099-1.964 0-.535.039-1.19.119-1.944.297-.555.714-.833 1.269-.833z" fill-rule="nonzero"/><path d="m199.953 21.152v-16.583" fill="none"/><path d="m199.953 21.152v-16.583" fill="none" stroke="#000" stroke-width=".46"/><path d="m195.51 24.462c2.044 0 4.563-1.706 4.563-3.451 0-1.052-.932-1.726-2.261-1.726-2.004 0-4.523 1.666-4.523 3.452 0 1.091.972 1.725 2.221 1.725z" fill-rule="nonzero"/><path d="m191.86 28.648v-10.653l-3.035 1.072v-3.988h-.496v10.653l3.035-1.051v3.967zm-3.035-7.975 2.539-.932v3.333l-2.539.912z" fill-rule="nonzero"/><path d="m224.44 20.222v16.583" fill="none"/><path d="m224.44 20.222v16.583" fill="none" stroke="#000" stroke-width=".46"/><path d="m226.507 21.983c2.043 0 4.562-1.706 4.562-3.452 0-1.051-.932-1.726-2.261-1.726-2.004 0-4.523 1.667-4.523 3.452 0 1.091.972 1.726 2.222 1.726z" fill-rule="nonzero"/><path d="m220.565 19.447c0-1.394.93-2.479 2.79-3.409-1.395.93-1.86 1.86-1.86 3.409 0 1.705.465 2.635 1.86 3.565-1.86-.93-2.79-2.015-2.79-3.565z"/><path d="m220.565 19.447c0-1.394.93-2.479 2.79-3.409-1.395.93-1.86 1.86-1.86 3.409 0 1.705.465 2.635 1.86 3.565-1.86-.93-2.79-2.015-2.79-3.565z" fill="none" stroke="#000" stroke-width=".15"/><path d="m223.355 16.038c-1.705.93-2.325 2.015-2.325 3.409 0 1.55.62 2.635 2.325 3.565" fill="none" stroke="#000" stroke-width=".31"/><path d="m234.823 19.447c0-1.394-.929-2.479-2.789-3.409 1.395.93 1.86 1.86 1.86 3.409 0 1.705-.465 2.635-1.86 3.565 1.86-.93 2.789-2.015 2.789-3.565z"/><path d="m234.823 19.447c0-1.394-.929-2.479-2.789-3.409 1.395.93 1.86 1.86 1.86 3.409 0 1.705-.465 2.635-1.86 3.565 1.86-.93 2.789-2.015 2.789-3.565z" fill="none" stroke="#000" stroke-width=".15"/><path d="m232.034 16.038c1.705.93 2.324 2.015 2.324 3.409 0 1.55-.619 2.635-2.324 3.565" fill="none" stroke="#000" stroke-width=".31"/><path d="m255.591 17.743v16.583" fill="none"/><path d="m255.591 17.743v16.583" fill="none" stroke="#000" stroke-width=".46"/><path d="m257.658 19.503c2.043 0 4.562-1.706 4.562-3.452 0-1.051-.932-1.725-2.261-1.725-2.004 0-4.523 1.666-4.523 3.451 0 1.091.972 1.726 2.222 1.726z" fill-rule="nonzero"/></svg>
