<?xml version="1.0" encoding="UTF-8" standalone="no"?><!DOCTYPE svg PUBLIC "-//W3C//DTD SVG 1.1//EN" "http://www.w3.org/Graphics/SVG/1.1/DTD/svg11.dtd"><svg width="100%" height="100%" viewBox="0 0 211 41" version="1.1" xmlns="http://www.w3.org/2000/svg" xmlns:xlink="http://www.w3.org/1999/xlink" xml:space="preserve" xmlns:serif="http://www.serif.com/" style="fill-rule:evenodd;clip-rule:evenodd;stroke-linejoin:round;stroke-miterlimit:2;"><g><path d="M210.544,9.614l0,19.805" style="fill:none;stroke:#000;stroke-width:0.77px;"/><path d="M0.109,29.419l210.745,-0" style="fill:none;stroke:#000;stroke-width:0.46px;"/><path d="M0.109,24.468l210.745,0" style="fill:none;stroke:#000;stroke-width:0.46px;"/><path d="M0.109,19.516l210.745,0" style="fill:none;stroke:#000;stroke-width:0.46px;"/><path d="M0.109,14.565l210.745,0" style="fill:none;stroke:#000;stroke-width:0.46px;"/><path d="M0.109,9.614l210.745,0" style="fill:none;stroke:#000;stroke-width:0.46px;"/><path d="M14.181,28.762l0.752,3.664c0.04,0.218 0.06,0.416 0.06,0.614c0,1.941 -1.981,3.565 -4.12,3.565c-0.653,0 -1.287,-0.159 -1.881,-0.456c1.525,-0.158 2.673,-1.089 2.673,-2.456c-0,-1.208 -0.99,-2.475 -2.258,-2.475c-1.445,0 -2.436,1.109 -2.436,2.555c0,2.02 1.644,3.347 3.625,3.347c2.654,-0 4.912,-1.723 4.912,-4.199c0,-0.555 -0.872,-4.476 -0.852,-4.338c2.119,-1.029 3.565,-2.852 3.565,-4.773c0,-2.634 -2.119,-4.654 -4.753,-4.654c-0.04,0 -0.317,0.02 -0.793,0.059l-0.871,-4.179c2.951,-2.495 4.298,-5.149 4.298,-8.061c-0,-2.238 -0.891,-4.614 -2.694,-7.11c-2.04,1.644 -3.208,4.932 -3.208,8.437c-0,1.248 0.158,2.456 0.435,3.605c-4.515,3.783 -6.773,7.269 -6.773,10.457c-0,3.744 3.862,6.853 8.061,6.853c0.931,0 1.624,-0.138 2.258,-0.455Zm-0.06,-26.025c0.654,0.673 0.991,1.466 0.991,2.397c0,1.921 -1.367,4.08 -4.041,6.456c-0.138,-0.574 -0.178,-1.208 -0.178,-1.901c-0,-3.328 1.228,-6.992 2.872,-6.992c0.138,-0 0.257,0.02 0.356,0.04Zm0.416,25.213l-1.406,-6.615c0.277,-0.02 0.436,-0.04 0.495,-0.04c1.703,0 2.892,1.604 2.892,3.248c-0,1.307 -0.693,2.456 -1.981,3.407Zm-1.901,-6.536l1.426,6.813c-0.693,0.376 -1.466,0.535 -2.397,0.535c-3.208,0 -5.981,-2.397 -5.981,-5.308c0,-2.634 1.961,-5.348 5.664,-8.121l0.832,3.962c-2.06,0.435 -3.802,2.178 -3.802,4.139c0,1.664 1.188,2.832 2.97,3.109c-1.089,-0.673 -1.624,-1.525 -1.624,-2.535c-0,-1.366 1.268,-2.376 2.912,-2.594Z" style="fill-rule:nonzero;"/><path d="M46.528,34.371l10.522,-0" style="fill:none;stroke:#000;stroke-width:0.77px;"/><path d="M50.603,39.378c2.04,0 4.556,-1.704 4.556,-3.447c0,-1.049 -0.931,-1.723 -2.258,-1.723c-2.001,0 -4.516,1.664 -4.516,3.446c-0,1.09 0.971,1.724 2.218,1.724Z" style="fill-rule:nonzero;"/><path d="M41.267,40.427l2.793,-2.06c1.228,-0.891 1.703,-1.901 1.743,-2.653c0,-1.11 -1.01,-1.941 -2.199,-1.941c-0.831,-0 -1.445,0.316 -1.841,0.97l0.138,-6.239l-0.634,-0l-0,11.923Zm1.842,-5.862c0.634,0 1.109,0.455 1.109,1.069c-0,1.03 -1.366,3.011 -2.396,3.664c-0.059,-0.336 -0.099,-0.99 -0.099,-1.96c-0,-0.535 0.04,-1.189 0.119,-1.941c0.297,-0.555 0.713,-0.832 1.267,-0.832Z" style="fill-rule:nonzero;"/><path d="M70.873,34.426c2.04,0 4.555,-1.703 4.555,-3.446c0,-1.05 -0.93,-1.723 -2.257,-1.723c-2.001,-0 -4.516,1.664 -4.516,3.446c-0,1.089 0.97,1.723 2.218,1.723Z" style="fill-rule:nonzero;"/><path d="M62.775,35.476l2.793,-2.06c1.228,-0.891 1.703,-1.901 1.743,-2.654c-0,-1.109 -1.01,-1.941 -2.199,-1.941c-0.832,0 -1.446,0.317 -1.842,0.971l0.139,-6.239l-0.634,-0l0,11.923Zm1.842,-5.863c0.634,-0 1.109,0.456 1.109,1.07c-0,1.03 -1.366,3.01 -2.396,3.664c-0.06,-0.337 -0.099,-0.99 -0.099,-1.961c-0,-0.535 0.039,-1.188 0.118,-1.941c0.298,-0.554 0.713,-0.832 1.268,-0.832Z" style="fill-rule:nonzero;"/><path d="M91.298,31.95c2.04,-0 4.555,-1.703 4.555,-3.446c-0,-1.049 -0.931,-1.723 -2.258,-1.723c-2,0 -4.515,1.664 -4.515,3.446c0,1.09 0.97,1.723 2.218,1.723Z" style="fill-rule:nonzero;"/><path d="M83.2,33l2.792,-2.06c1.228,-0.891 1.704,-1.901 1.743,-2.654c0,-1.109 -1.01,-1.941 -2.198,-1.941c-0.832,0 -1.446,0.317 -1.842,0.971l0.139,-6.239l-0.634,-0l-0,11.923Zm1.842,-5.862c0.633,-0 1.109,0.455 1.109,1.069c0,1.03 -1.367,3.011 -2.397,3.664c-0.059,-0.336 -0.099,-0.99 -0.099,-1.961c-0,-0.534 0.04,-1.188 0.119,-1.941c0.297,-0.554 0.713,-0.831 1.268,-0.831Z" style="fill-rule:nonzero;"/><path d="M111.568,31.95c2.04,-0 4.555,-1.703 4.555,-3.446c0,-1.049 -0.931,-1.723 -2.258,-1.723c-2,0 -4.516,1.664 -4.516,3.446c-0,1.09 0.971,1.723 2.219,1.723Z" style="fill-rule:nonzero;"/><path d="M107.923,36.129l-0,-10.635l-3.03,1.069l-0,-3.981l-0.495,0l0,10.636l3.03,-1.05l0,3.961l0.495,0Zm-3.03,-7.961l2.535,-0.931l0,3.327l-2.535,0.911l-0,-3.307Z" style="fill-rule:nonzero;"/><path d="M131.838,29.475c2.04,0 4.555,-1.704 4.555,-3.446c0,-1.05 -0.931,-1.724 -2.258,-1.724c-2,0 -4.516,1.664 -4.516,3.447c0,1.089 0.971,1.723 2.219,1.723Z" style="fill-rule:nonzero;"/><path d="M152.107,24.523c2.04,0 4.556,-1.703 4.556,-3.446c-0,-1.05 -0.931,-1.723 -2.258,-1.723c-2.001,0 -4.516,1.664 -4.516,3.446c0,1.09 0.971,1.723 2.218,1.723Z" style="fill-rule:nonzero;"/><path d="M144.009,25.573l2.793,-2.06c1.228,-0.891 1.703,-1.901 1.743,-2.654c-0,-1.109 -1.01,-1.941 -2.199,-1.941c-0.831,-0 -1.445,0.317 -1.842,0.971l0.139,-6.239l-0.634,-0l0,11.923Zm1.842,-5.862c0.634,0 1.109,0.455 1.109,1.069c0,1.03 -1.366,3.01 -2.396,3.664c-0.06,-0.337 -0.099,-0.99 -0.099,-1.961c-0,-0.534 0.039,-1.188 0.119,-1.941c0.297,-0.554 0.713,-0.831 1.267,-0.831Z" style="fill-rule:nonzero;"/><path d="M172.532,22.048c2.04,0 4.555,-1.704 4.555,-3.447c0,-1.049 -0.931,-1.723 -2.258,-1.723c-2,0 -4.515,1.664 -4.515,3.447c-0,1.089 0.97,1.723 2.218,1.723Z" style="fill-rule:nonzero;"/><path d="M164.434,23.097l2.793,-2.059c1.228,-0.892 1.703,-1.902 1.742,-2.654c-0,-1.11 -1.01,-1.941 -2.198,-1.941c-0.832,0 -1.446,0.316 -1.842,0.97l0.139,-6.239l-0.634,-0l0,11.923Zm1.842,-5.862c0.634,0 1.109,0.455 1.109,1.069c-0,1.03 -1.367,3.011 -2.396,3.664c-0.06,-0.336 -0.099,-0.99 -0.099,-1.96c-0,-0.535 0.039,-1.189 0.118,-1.941c0.297,-0.555 0.713,-0.832 1.268,-0.832Z" style="fill-rule:nonzero;"/></g></svg>