<svg clip-rule="evenodd" fill-rule="evenodd" stroke-linejoin="round" stroke-miterlimit="2" viewBox="0 0 473 54" xmlns="http://www.w3.org/2000/svg"><path d="m44.8 26.229v19.881" fill="none" stroke="#000" stroke-width="2.49"/><path d="m48.217 26.229v19.881" fill="none" stroke="#000" stroke-width=".78"/><path d="m51.479 32.754c-.477 0-.915.418-.915.955 0 .457.458.894.915.894.537 0 .954-.437.954-.894 0-.537-.417-.955-.954-.955z" fill-rule="nonzero"/><path d="m51.479 37.725c-.477 0-.915.417-.915.954 0 .457.458.895.915.895.537 0 .954-.438.954-.895 0-.537-.417-.954-.954-.954z" fill-rule="nonzero"/><path d="m161.605 26.229v19.881" fill="none" stroke="#000" stroke-width=".78"/><path d="m261.323 26.229v19.881" fill="none" stroke="#000" stroke-width=".78"/><path d="m361.042 26.229v19.881" fill="none" stroke="#000" stroke-width=".78"/><path d="m467.285 26.229v19.881" fill="none" stroke="#000" stroke-width=".78"/><path d="m470.702 26.229v19.881" fill="none" stroke="#000" stroke-width="2.49"/><path d="m464.023 32.754c-.477 0-.915.418-.915.955 0 .457.458.894.915.894.537 0 .954-.437.954-.894 0-.537-.417-.955-.954-.955z" fill-rule="nonzero"/><path d="m464.023 37.725c-.477 0-.915.417-.915.954 0 .457.458.895.915.895.537 0 .954-.438.954-.895 0-.537-.417-.954-.954-.954z" fill-rule="nonzero"/><path d="m72.709 12.926c.376-.342.546-.82.546-1.264 0-.359-.119-.718-.358-.991-.82.239-1.675.341-2.409.341-1.999 0-2.529-.751-2.529-2.187 0-1.161 1.213-4.391 2.375-4.391.837 0 1.35 2.649 1.93 2.649.684 0 .718-1.316.718-1.828 0-2.324-1.025-3.657-2.272-3.657-1.794 0-4.118 3.127-4.118 6.834 0 2.017.564 5.007 3.332 5.007.939 0 2.016-.222 2.785-.513z" fill-rule="nonzero"/><path d="m74.775.812c-.017.718-.136 1.453-.188 2.221.786-.239 1.675-.581 2.563-.581.342 0 .667.052 1.008.171-.358 1.333-1.076 3.554-1.947 6.561.188.188.358.342.512.342.103 0 .205-.068.325-.239.922-2.751 1.469-4.22 2.358-7.723.034-.154.051-.308.051-.427 0-.752-.649-1.008-1.487-1.008-1.11 0-2.528.427-3.195.683z" fill-rule="nonzero"/><path d="m165.884 6.792c-.017 1.077-.086 1.948-.205 3.281-.633.632-.94 1.315-.94 1.896 0 .786.547 1.384 1.521 1.384 2.904 0 4.63-2.87 4.63-4.647 0-1.042-.496-1.914-1.555-2.204.888-1.538 1.23-2.648 1.23-3.4 0-1.025-.632-1.401-1.418-1.401-3.058 0-4.493 4.134-4.493 4.425 0 .512.341.752.768.752.154 0 .308-.034.462-.086zm1.196 2.119c.376-.359 1.008-.598 1.537-.598.633 0 .991.29.991 1.059 0 .957-1.452 2.204-2.614 2.204h-.154c0-.939.086-1.913.24-2.665zm.102-4.186c.034-.205.837-1.077 1.384-1.077.137 0 .342.069.342.291 0 .513-.803 1.845-1.811 2.392-.017-.222-.034-.41-.034-.581 0-.41.051-.718.119-1.025z" fill-rule="nonzero"/><path d="m173.077.043c0-.017-.034-.034-.069-.034-.239 0-1.127.41-1.127.547.017.273.017.683.017 1.213 0 2.99-.239 9.414-.239 11.635.666-.102 4.237-3.468 4.237-6.817 0-1.145-.496-1.623-1.179-1.623-.496 0-1.094.256-1.674.701.017-1.333.034-2.82.034-4.186v-1.436zm-.154 8.099c.222-.308.7-.854 1.008-.854.154 0 .308.136.308.529 0 .53-.513 1.709-1.401 2.341 0-.529.068-1.572.085-2.016z" fill-rule="nonzero"/><path d="m177.45.812c-.017.718-.136 1.453-.188 2.221.786-.239 1.675-.581 2.563-.581.342 0 .667.052 1.008.171-.359 1.333-1.076 3.554-1.948 6.561.188.188.359.342.513.342.103 0 .205-.068.325-.239.922-2.751 1.469-4.22 2.358-7.723.034-.154.051-.308.051-.427 0-.752-.649-1.008-1.487-1.008-1.11 0-2.528.427-3.195.683z" fill-rule="nonzero"/><path d="m272.302 12.926c.376-.342.546-.82.546-1.264 0-.359-.119-.718-.358-.991-.82.239-1.675.341-2.409.341-1.999 0-2.529-.751-2.529-2.187 0-1.161 1.213-4.391 2.375-4.391.837 0 1.35 2.649 1.93 2.649.684 0 .718-1.316.718-1.828 0-2.324-1.025-3.657-2.272-3.657-1.794 0-4.118 3.127-4.118 6.834 0 2.017.564 5.007 3.332 5.007.939 0 2.016-.222 2.785-.513z" fill-rule="nonzero"/><path d="m274.368.812c-.017.718-.136 1.453-.188 2.221.786-.239 1.675-.581 2.563-.581.342 0 .667.052 1.008.171-.358 1.333-1.076 3.554-1.947 6.561.188.188.358.342.512.342.103 0 .205-.068.325-.239.922-2.751 1.469-4.22 2.358-7.723.034-.154.051-.308.051-.427 0-.752-.649-1.008-1.487-1.008-1.11 0-2.528.427-3.195.683z" fill-rule="nonzero"/><path d="m365.477 6.792c-.017 1.077-.086 1.948-.205 3.281-.632.632-.94 1.315-.94 1.896 0 .786.547 1.384 1.521 1.384 2.904 0 4.63-2.87 4.63-4.647 0-1.042-.496-1.914-1.555-2.204.889-1.538 1.23-2.648 1.23-3.4 0-1.025-.632-1.401-1.418-1.401-3.058 0-4.493 4.134-4.493 4.425 0 .512.341.752.768.752.154 0 .308-.034.462-.086zm1.196 2.119c.376-.359 1.008-.598 1.537-.598.633 0 .991.29.991 1.059 0 .957-1.452 2.204-2.614 2.204h-.153c0-.939.085-1.913.239-2.665zm.102-4.186c.034-.205.837-1.077 1.384-1.077.137 0 .342.069.342.291 0 .513-.803 1.845-1.811 2.392-.017-.222-.034-.41-.034-.581 0-.41.051-.718.119-1.025z" fill-rule="nonzero"/><path d="m372.67.043c0-.017-.034-.034-.069-.034-.239 0-1.127.41-1.127.547.017.273.017.683.017 1.213 0 2.99-.239 9.414-.239 11.635.666-.102 4.237-3.468 4.237-6.817 0-1.145-.496-1.623-1.179-1.623-.496 0-1.094.256-1.674.701.017-1.333.034-2.82.034-4.186v-1.436zm-.154 8.099c.222-.308.7-.854 1.008-.854.154 0 .308.136.308.529 0 .53-.513 1.709-1.401 2.341 0-.529.068-1.572.085-2.016z" fill-rule="nonzero"/><path d="m377.043.812c-.017.718-.136 1.453-.188 2.221.786-.239 1.675-.581 2.563-.581.342 0 .667.052 1.008.171-.359 1.333-1.076 3.554-1.948 6.561.188.188.359.342.513.342.103 0 .205-.068.325-.239.922-2.751 1.469-4.22 2.358-7.723.034-.154.051-.308.051-.427 0-.752-.649-1.008-1.487-1.008-1.11 0-2.528.427-3.195.683z" fill-rule="nonzero"/><path d="m35.879 33.42v-.841h-1.262v-4.509l-2.505 2.224v2.285h-2.705c.301-.762 1.122-1.804 2.465-3.146 1.222-1.222 1.923-2.304 2.124-3.206h-3.427c-.16 1.964-1.322 4.829-2.544 6.392v.801h4.087c0 .701-.02 1.102-.06 1.202-.12.221-.501.361-1.122.401l-.04.561h4.929l-.08-.581c-.962-.08-1.142-.18-1.142-.681 0-.06 0-.181.02-.381v-.521z" fill-rule="nonzero"/><path d="m35.879 43.494v-.841h-1.262v-4.508l-2.505 2.224v2.284h-2.705c.301-.761 1.122-1.803 2.465-3.146 1.222-1.222 1.923-2.304 2.124-3.206h-3.427c-.16 1.964-1.322 4.829-2.544 6.392v.801h4.087c0 .702-.02 1.103-.06 1.203-.12.22-.501.36-1.122.4l-.04.561h4.929l-.08-.581c-.962-.08-1.142-.18-1.142-.681 0-.06 0-.18.02-.381v-.521z" fill-rule="nonzero"/><path d="m.066 46.11h471.878" fill="none" stroke="#000" stroke-width=".47"/><path d="m.066 41.14h471.878" fill="none" stroke="#000" stroke-width=".47"/><path d="m.066 36.17h471.878" fill="none" stroke="#000" stroke-width=".47"/><path d="m.066 31.199h471.878" fill="none" stroke="#000" stroke-width=".47"/><path d="m.066 26.229h471.878" fill="none" stroke="#000" stroke-width=".47"/><g fill-rule="nonzero"><path d="m14.192 45.45.756 3.678c.039.219.059.418.059.617 0 1.948-1.988 3.578-4.135 3.578-.656 0-1.292-.159-1.889-.457 1.531-.159 2.684-1.093 2.684-2.465 0-1.213-.994-2.485-2.266-2.485-1.452 0-2.446 1.113-2.446 2.564 0 2.028 1.65 3.36 3.638 3.36 2.665 0 4.931-1.729 4.931-4.214 0-.557-.875-4.494-.855-4.355 2.128-1.033 3.579-2.863 3.579-4.791 0-2.644-2.127-4.672-4.772-4.672-.039 0-.318.02-.795.059l-.875-4.195c2.963-2.505 4.315-5.169 4.315-8.091 0-2.247-.895-4.633-2.704-7.138-2.048 1.65-3.221 4.951-3.221 8.47 0 1.252.159 2.465.437 3.618-4.533 3.797-6.799 7.297-6.799 10.498 0 3.757 3.877 6.879 8.092 6.879.934 0 1.63-.14 2.266-.458zm-.06-26.124c.657.676.995 1.471.995 2.406 0 1.928-1.372 4.095-4.056 6.481-.14-.577-.179-1.213-.179-1.909 0-3.34 1.232-7.018 2.883-7.018.139 0 .258.02.357.04zm.418 25.309-1.412-6.64c.279-.02.438-.04.497-.04 1.71 0 2.903 1.61 2.903 3.261 0 1.312-.696 2.465-1.988 3.419zm-1.909-6.561 1.432 6.84c-.696.377-1.471.536-2.406.536-3.221 0-6.004-2.405-6.004-5.328 0-2.644 1.968-5.368 5.686-8.151l.835 3.976c-2.068.437-3.817 2.187-3.817 4.155 0 1.67 1.193 2.843 2.982 3.122-1.093-.676-1.63-1.531-1.63-2.545 0-1.372 1.272-2.386 2.922-2.605z"/><path d="m78.331 33.03v-2.903l-9.145 9.126v2.903z"/><path d="m101.63 33.03v-2.903l-9.145 9.126v2.903z"/><path d="m124.618 33.03v-2.903l-9.145 9.126v2.903z"/><path d="m147.917 33.03v-2.903l-9.145 9.126v2.903z"/><path d="m178.05 33.03v-2.903l-9.145 9.126v2.903z"/><path d="m201.349 33.03v-2.903l-9.145 9.126v2.903z"/><path d="m224.493 33.03v-2.903l-9.146 9.126v2.903z"/><path d="m247.636 33.03v-2.903l-9.145 9.126v2.903z"/><path d="m277.925 33.03v-2.903l-9.146 9.126v2.903z"/><path d="m301.068 33.03v-2.903l-9.146 9.126v2.903z"/><path d="m324.211 33.03v-2.903l-9.145 9.126v2.903z"/><path d="m347.355 33.03v-2.903l-9.146 9.126v2.903z"/><path d="m377.643 33.03v-2.903l-9.145 9.126v2.903z"/><path d="m400.787 33.03v-2.903l-9.146 9.126v2.903z"/><path d="m423.93 33.03v-2.903l-9.145 9.126v2.903z"/><path d="m447.229 33.03v-2.903l-9.145 9.126v2.903z"/></g></svg>