<?xml version="1.0" encoding="UTF-8" standalone="no"?><!DOCTYPE svg PUBLIC "-//W3C//DTD SVG 1.1//EN" "http://www.w3.org/Graphics/SVG/1.1/DTD/svg11.dtd"><svg width="100%" height="100%" viewBox="0 0 309 53" version="1.1" xmlns="http://www.w3.org/2000/svg" xmlns:xlink="http://www.w3.org/1999/xlink" xml:space="preserve" xmlns:serif="http://www.serif.com/" style="fill-rule:evenodd;clip-rule:evenodd;stroke-linejoin:round;stroke-miterlimit:2;"><g><path d="M183.333,24.818l-0,19.805" style="fill:none;stroke:#000;stroke-width:0.77px;"/><path d="M305.107,24.818l-0,19.805" style="fill:none;stroke:#000;stroke-width:0.77px;"/><path d="M307.737,24.818l-0,19.805" style="fill:none;stroke:#000;stroke-width:0.77px;"/><path d="M53.154,12.699c0.374,-0.34 0.544,-0.817 0.544,-1.26c0,-0.357 -0.119,-0.714 -0.357,-0.987c-0.817,0.239 -1.668,0.341 -2.4,0.341c-1.991,-0 -2.519,-0.749 -2.519,-2.179c0,-1.157 1.208,-4.374 2.366,-4.374c0.834,0 1.344,2.638 1.923,2.638c0.681,-0 0.715,-1.311 0.715,-1.821c-0,-2.315 -1.021,-3.643 -2.264,-3.643c-1.787,0 -4.102,3.115 -4.102,6.809c0,2.008 0.562,4.987 3.319,4.987c0.936,-0 2.009,-0.222 2.775,-0.511Z" style="fill-rule:nonzero;"/><path d="M55.213,0.631c-0.018,0.715 -0.137,1.447 -0.188,2.213c0.783,-0.238 1.668,-0.579 2.553,-0.579c0.341,-0 0.664,0.051 1.005,0.171c-0.358,1.327 -1.073,3.54 -1.941,6.535c0.187,0.188 0.358,0.341 0.511,0.341c0.102,0 0.204,-0.068 0.323,-0.238c0.919,-2.741 1.464,-4.204 2.349,-7.694c0.034,-0.153 0.051,-0.306 0.051,-0.425c-0,-0.749 -0.647,-1.004 -1.481,-1.004c-1.106,0 -2.519,0.425 -3.182,0.68Z" style="fill-rule:nonzero;"/><path d="M193.94,9.064c-0.017,1.073 -0.086,1.941 -0.205,3.268c-0.629,0.63 -0.936,1.311 -0.936,1.89c-0,0.782 0.545,1.378 1.515,1.378c2.894,-0 4.613,-2.859 4.613,-4.629c0,-1.039 -0.494,-1.907 -1.549,-2.196c0.885,-1.532 1.225,-2.638 1.225,-3.387c-0,-1.021 -0.63,-1.396 -1.412,-1.396c-3.047,0 -4.477,4.119 -4.477,4.408c0,0.511 0.341,0.749 0.766,0.749c0.153,-0 0.306,-0.034 0.46,-0.085Zm1.191,2.111c0.374,-0.358 1.004,-0.596 1.532,-0.596c0.63,-0 0.987,0.289 0.987,1.055c-0,0.954 -1.447,2.196 -2.604,2.196l-0.153,0c0,-0.936 0.085,-1.906 0.238,-2.655Zm0.102,-4.17c0.034,-0.204 0.834,-1.072 1.379,-1.072c0.136,-0 0.34,0.068 0.34,0.289c-0,0.51 -0.8,1.838 -1.804,2.383c-0.017,-0.222 -0.034,-0.409 -0.034,-0.579c-0,-0.408 0.051,-0.715 0.119,-1.021Z" style="fill-rule:nonzero;"/><path d="M201.105,2.341c-0,-0.017 -0.034,-0.034 -0.068,-0.034c-0.238,-0 -1.123,0.409 -1.123,0.545c0.017,0.272 0.017,0.681 0.017,1.208c-0,2.979 -0.239,9.379 -0.239,11.591c0.664,-0.102 4.222,-3.455 4.222,-6.791c0,-1.14 -0.494,-1.617 -1.175,-1.617c-0.493,0 -1.089,0.255 -1.668,0.698c0.017,-1.328 0.034,-2.808 0.034,-4.17l-0,-1.43Zm-0.153,8.068c0.221,-0.306 0.698,-0.851 1.004,-0.851c0.153,-0 0.307,0.136 0.307,0.528c0,0.527 -0.511,1.702 -1.396,2.331c0,-0.527 0.068,-1.566 0.085,-2.008Z" style="fill-rule:nonzero;"/><path d="M205.462,3.107c-0.017,0.715 -0.136,1.447 -0.187,2.213c0.783,-0.239 1.668,-0.579 2.553,-0.579c0.34,0 0.664,0.051 1.004,0.17c-0.357,1.328 -1.072,3.541 -1.94,6.536c0.187,0.187 0.357,0.341 0.51,0.341c0.102,-0 0.205,-0.069 0.324,-0.239c0.919,-2.74 1.463,-4.204 2.349,-7.693c0.034,-0.153 0.051,-0.306 0.051,-0.425c0,-0.749 -0.647,-1.005 -1.481,-1.005c-1.107,-0 -2.519,0.426 -3.183,0.681Z" style="fill-rule:nonzero;"/><path d="M231.919,31.007c3.713,-3.868 14.699,-3.868 18.413,-0" style="fill:none;stroke:#000;stroke-width:0.31px;"/><path d="M231.919,31.007c3.713,-4.642 14.699,-4.642 18.413,-0c-3.714,-3.095 -14.7,-3.095 -18.413,-0Z"/><path d="M231.919,31.007c3.713,-4.642 14.699,-4.642 18.413,-0c-3.714,-3.095 -14.7,-3.095 -18.413,-0Z" style="fill:none;stroke:#000;stroke-width:0.15px;"/><path d="M30.081,32.032l-0,-0.839l-1.257,0l-0,-4.491l-2.495,2.216l0,2.275l-2.695,0c0.3,-0.758 1.118,-1.796 2.455,-3.133c1.218,-1.218 1.916,-2.296 2.116,-3.194l-3.413,-0c-0.16,1.956 -1.318,4.81 -2.535,6.367l-0,0.799l4.072,-0c0,0.698 -0.02,1.097 -0.06,1.197c-0.12,0.22 -0.499,0.36 -1.118,0.399l-0.04,0.559l4.91,0l-0.079,-0.578c-0.958,-0.08 -1.138,-0.18 -1.138,-0.679c0,-0.06 0,-0.18 0.02,-0.379l-0,-0.519l1.257,-0Z" style="fill-rule:nonzero;"/><path d="M30.081,42.067l-0,-0.838l-1.257,0l-0,-4.491l-2.495,2.216l0,2.275l-2.695,0c0.3,-0.758 1.118,-1.796 2.455,-3.134c1.218,-1.217 1.916,-2.295 2.116,-3.193l-3.413,0c-0.16,1.956 -1.318,4.81 -2.535,6.367l-0,0.798l4.072,0c0,0.699 -0.02,1.098 -0.06,1.198c-0.12,0.22 -0.499,0.359 -1.118,0.399l-0.04,0.559l4.91,-0l-0.079,-0.579c-0.958,-0.08 -1.138,-0.179 -1.138,-0.678c0,-0.06 0,-0.18 0.02,-0.38l-0,-0.519l1.257,0Z" style="fill-rule:nonzero;"/><path d="M0.13,44.623l307.917,0" style="fill:none;"/><path d="M0.13,44.623l307.917,0" style="fill:none;stroke:#000;stroke-width:0.46px;"/><path d="M0.13,39.672l307.917,-0" style="fill:none;"/><path d="M0.13,39.672l307.917,-0" style="fill:none;stroke:#000;stroke-width:0.46px;"/><path d="M0.13,34.721l307.917,0" style="fill:none;"/><path d="M0.13,34.721l307.917,0" style="fill:none;stroke:#000;stroke-width:0.46px;"/><path d="M0.13,29.769l307.917,-0" style="fill:none;"/><path d="M0.13,29.769l307.917,-0" style="fill:none;stroke:#000;stroke-width:0.46px;"/><path d="M0.13,24.818l307.917,0" style="fill:none;"/><path d="M0.13,24.818l307.917,0" style="fill:none;stroke:#000;stroke-width:0.46px;"/><path d="M14.202,43.966l0.753,3.664c0.039,0.218 0.059,0.416 0.059,0.614c-0,1.941 -1.98,3.565 -4.119,3.565c-0.654,0 -1.288,-0.159 -1.882,-0.456c1.525,-0.158 2.674,-1.089 2.674,-2.456c0,-1.208 -0.99,-2.475 -2.258,-2.475c-1.446,-0 -2.436,1.109 -2.436,2.555c0,2.02 1.644,3.347 3.624,3.347c2.654,0 4.912,-1.723 4.912,-4.199c0,-0.555 -0.871,-4.476 -0.852,-4.337c2.12,-1.03 3.565,-2.852 3.565,-4.774c0,-2.634 -2.119,-4.654 -4.753,-4.654c-0.039,0 -0.317,0.02 -0.792,0.06l-0.872,-4.179c2.952,-2.496 4.298,-5.15 4.298,-8.061c-0,-2.238 -0.891,-4.615 -2.693,-7.111c-2.04,1.644 -3.209,4.932 -3.209,8.438c-0,1.247 0.159,2.456 0.436,3.604c-4.516,3.783 -6.774,7.269 -6.774,10.458c-0,3.743 3.862,6.852 8.061,6.852c0.931,-0 1.624,-0.138 2.258,-0.455Zm-0.059,-26.025c0.653,0.674 0.99,1.466 0.99,2.397c0,1.921 -1.367,4.08 -4.04,6.456c-0.139,-0.574 -0.179,-1.208 -0.179,-1.901c-0,-3.327 1.228,-6.991 2.872,-6.991c0.139,0 0.258,0.019 0.357,0.039Zm0.416,25.213l-1.407,-6.615c0.278,-0.02 0.436,-0.04 0.496,-0.04c1.703,0 2.891,1.604 2.891,3.248c-0,1.307 -0.693,2.456 -1.98,3.407Zm-1.902,-6.536l1.426,6.813c-0.693,0.376 -1.465,0.535 -2.396,0.535c-3.209,-0 -5.982,-2.397 -5.982,-5.308c-0,-2.634 1.961,-5.348 5.665,-8.12l0.832,3.961c-2.06,0.435 -3.803,2.178 -3.803,4.139c0,1.664 1.188,2.832 2.971,3.11c-1.089,-0.674 -1.624,-1.525 -1.624,-2.535c0,-1.367 1.267,-2.377 2.911,-2.595Z" style="fill-rule:nonzero;"/><path d="M71.771,21.104l19.806,2.476l0,-2.476l-19.806,-2.476l0,2.476Z"/><path d="M150.839,27.293l19.651,-2.475l0,-2.476l-19.651,2.476l0,2.475Z"/><path d="M156.719,48.027l-0,-30.946" style="fill:none;"/><path d="M156.719,48.027l-0,-30.946" style="fill:none;stroke:#000;stroke-width:0.77px;"/><path d="M156.409,48.027l46.265,-0" style="fill:none;"/><path d="M156.409,48.027l46.265,-0" style="fill:none;stroke:#000;stroke-width:0.77px;"/><path d="M156.409,17.081l46.265,0" style="fill:none;"/><path d="M156.409,17.081l46.265,0" style="fill:none;stroke:#000;stroke-width:0.77px;"/><path d="M202.365,48.027l0,-30.946" style="fill:none;"/><path d="M202.365,48.027l0,-30.946" style="fill:none;stroke:#000;stroke-width:0.77px;"/><path d="M38.04,33.018l0,16.557" style="fill:none;"/><path d="M38.04,33.018l0,16.557" style="fill:none;stroke:#000;stroke-width:0.46px;"/><path d="M40.103,34.776c2.04,-0 4.555,-1.703 4.555,-3.446c0,-1.05 -0.931,-1.723 -2.258,-1.723c-2,0 -4.515,1.663 -4.515,3.446c-0,1.089 0.97,1.723 2.218,1.723Z" style="fill-rule:nonzero;"/><path d="M71.771,33.947l0,-15.164" style="fill:none;"/><path d="M71.771,33.947l0,-15.164" style="fill:none;stroke:#000;stroke-width:0.46px;"/><path d="M67.336,37.252c2.04,-0 4.555,-1.704 4.555,-3.446c-0,-1.05 -0.931,-1.724 -2.258,-1.724c-2,0 -4.515,1.664 -4.515,3.447c-0,1.089 0.97,1.723 2.218,1.723Z" style="fill-rule:nonzero;"/><path d="M59.238,38.301l2.792,-2.059c1.228,-0.892 1.704,-1.902 1.743,-2.654c-0,-1.109 -1.01,-1.941 -2.198,-1.941c-0.832,-0 -1.446,0.317 -1.842,0.97l0.139,-6.239l-0.634,0l-0,11.923Zm1.842,-5.862c0.634,-0 1.109,0.455 1.109,1.069c-0,1.03 -1.367,3.011 -2.397,3.665c-0.059,-0.337 -0.099,-0.991 -0.099,-1.961c0,-0.535 0.04,-1.189 0.119,-1.941c0.297,-0.555 0.713,-0.832 1.268,-0.832Z" style="fill-rule:nonzero;"/><path d="M91.577,38.898l0,-17.639" style="fill:none;"/><path d="M91.577,38.898l0,-17.639" style="fill:none;stroke:#000;stroke-width:0.46px;"/><path d="M87.142,42.203c2.039,0 4.555,-1.703 4.555,-3.446c-0,-1.05 -0.931,-1.723 -2.258,-1.723c-2,0 -4.516,1.664 -4.516,3.446c-0,1.089 0.971,1.723 2.219,1.723Z" style="fill-rule:nonzero;"/><path d="M109.977,31.429c-1.01,0.891 -1.96,1.327 -2.812,1.327c-0.119,0 -0.198,-0.02 -0.257,-0.06c0.217,-0.396 0.316,-0.732 0.316,-1.029c-0,-0.654 -0.376,-0.971 -1.128,-0.971c-0.654,-0 -1.367,0.436 -1.367,1.01c-0,0.971 0.614,1.446 1.842,1.446c0.673,0 1.525,-0.178 2.555,-0.515l-3.169,6.972l0.832,0l3.188,-8.18Z" style="fill-rule:nonzero;"/><path d="M122.523,49.575l10.522,0" style="fill:none;"/><path d="M122.523,49.575l10.522,0" style="fill:none;stroke:#000;stroke-width:0.77px;"/><path d="M131.033,48.801l0,-16.556" style="fill:none;"/><path d="M131.033,48.801l0,-16.556" style="fill:none;stroke:#000;stroke-width:0.46px;"/><path d="M126.598,52.106c2.04,0 4.555,-1.703 4.555,-3.446c-0,-1.05 -0.93,-1.723 -2.257,-1.723c-2.001,-0 -4.516,1.663 -4.516,3.446c-0,1.089 0.97,1.723 2.218,1.723Z" style="fill-rule:nonzero;"/><path d="M131.077,37.153c0.99,-0 1.327,0.376 1.901,0.792c1.604,1.129 2.416,2.377 2.416,3.763l-0,0.099c-0.039,1.783 -0.059,1.921 -0.574,3.07c-0.079,0.178 -0.119,0.297 -0.119,0.376c0,0.099 0.06,0.159 0.159,0.159c0.198,0 1.208,-1.387 1.208,-3.922l-0,-0.099c-0,-0.852 -0.238,-1.664 -0.713,-2.416c-0.139,-0.238 -0.753,-1.05 -1.842,-2.416c-0.852,-1.09 -1.585,-2.437 -2.179,-4.001c-0.02,-0.06 -0.02,-0.119 -0.02,-0.178c-0,-0.06 -0,-0.119 0.02,-0.159c0.02,-0.02 -0.079,-0.02 -0.257,-0.02l-0,4.952Z" style="fill-rule:nonzero;"/><path d="M150.839,43.85l0,-18.878" style="fill:none;"/><path d="M150.839,43.85l0,-18.878" style="fill:none;stroke:#000;stroke-width:0.46px;"/><path d="M146.404,47.155c2.04,0 4.555,-1.704 4.555,-3.447c-0,-1.049 -0.931,-1.723 -2.258,-1.723c-2,-0 -4.515,1.664 -4.515,3.446c0,1.09 0.97,1.724 2.218,1.724Z" style="fill-rule:nonzero;"/><path d="M170.49,38.898l0,-16.401" style="fill:none;"/><path d="M170.49,38.898l0,-16.401" style="fill:none;stroke:#000;stroke-width:0.46px;"/><path d="M166.055,42.203c2.04,0 4.555,-1.703 4.555,-3.446c0,-1.05 -0.931,-1.723 -2.258,-1.723c-2,0 -4.515,1.664 -4.515,3.446c0,1.089 0.97,1.723 2.218,1.723Z" style="fill-rule:nonzero;"/><path d="M197.723,36.423l0,-16.557" style="fill:none;"/><path d="M197.723,36.423l0,-16.557" style="fill:none;stroke:#000;stroke-width:0.46px;"/><path d="M193.288,39.727c2.04,0 4.555,-1.703 4.555,-3.446c0,-1.049 -0.931,-1.723 -2.258,-1.723c-2,0 -4.516,1.664 -4.516,3.446c0,1.09 0.971,1.723 2.219,1.723Z" style="fill-rule:nonzero;"/><path d="M185.19,40.777l2.792,-2.06c1.228,-0.891 1.703,-1.901 1.743,-2.654c0,-1.109 -1.01,-1.941 -2.198,-1.941c-0.832,-0 -1.446,0.317 -1.842,0.971l0.138,-6.239l-0.633,0l0,11.923Zm1.841,-5.862c0.634,0 1.11,0.455 1.11,1.069c0,1.03 -1.367,3.011 -2.397,3.664c-0.059,-0.336 -0.099,-0.99 -0.099,-1.961c0,-0.534 0.04,-1.188 0.119,-1.941c0.297,-0.554 0.713,-0.831 1.267,-0.831Z" style="fill-rule:nonzero;"/><path d="M201.127,36.27c-0.475,0 -0.911,0.416 -0.911,0.95c0,0.456 0.455,0.892 0.911,0.892c0.535,0 0.951,-0.436 0.951,-0.892c0,-0.534 -0.416,-0.95 -0.951,-0.95Z" style="fill-rule:nonzero;"/><path d="M228.05,35.494l0,16.556" style="fill:none;"/><path d="M228.05,35.494l0,16.556" style="fill:none;stroke:#000;stroke-width:0.46px;"/><path d="M230.114,37.252c2.04,-0 4.555,-1.704 4.555,-3.446c0,-1.05 -0.931,-1.724 -2.258,-1.724c-2,0 -4.515,1.664 -4.515,3.447c-0,1.089 0.97,1.723 2.218,1.723Z" style="fill-rule:nonzero;"/><path d="M222.016,38.301l2.792,-2.059c1.228,-0.892 1.704,-1.902 1.743,-2.654c-0,-1.109 -1.01,-1.941 -2.198,-1.941c-0.832,-0 -1.446,0.317 -1.842,0.97l0.138,-6.239l-0.633,0l0,11.923Zm1.842,-5.862c0.633,-0 1.109,0.455 1.109,1.069c-0,1.03 -1.367,3.011 -2.397,3.665c-0.059,-0.337 -0.099,-0.991 -0.099,-1.961c-0,-0.535 0.04,-1.189 0.119,-1.941c0.297,-0.555 0.713,-0.832 1.268,-0.832Z" style="fill-rule:nonzero;"/><path d="M228.094,51.987c0.178,-0 0.277,-0 0.257,-0.02c-0.02,-0.039 -0.02,-0.099 -0.02,-0.158c-0,-0.06 -0,-0.119 0.02,-0.178c0.614,-1.545 1.307,-2.932 2.179,-4.001c0.713,-0.872 1.525,-1.664 2.258,-2.535c0.772,-0.911 1.128,-1.981 1.128,-2.991c0,-0.535 -0.059,-1.05 -0.198,-1.584c-0.257,-1.01 -1.049,-2.951 -1.525,-2.951c-0.059,0 -0.079,0.059 -0.079,0.178c-0,0.099 0.04,0.238 0.119,0.376c0.693,1.288 1.03,2.377 1.03,3.229c0,1.208 -0.456,2.317 -1.307,3.267c-0.179,0.179 -0.753,0.654 -1.723,1.426c-1.228,0.991 -1.308,1.011 -2.139,1.011l-0,4.931Z" style="fill-rule:nonzero;"/><path d="M247.701,35.494l0,16.556" style="fill:none;"/><path d="M247.701,35.494l0,16.556" style="fill:none;stroke:#000;stroke-width:0.46px;"/><path d="M249.765,37.252c2.04,-0 4.555,-1.704 4.555,-3.446c0,-1.05 -0.931,-1.724 -2.258,-1.724c-2,0 -4.516,1.664 -4.516,3.447c0,1.089 0.971,1.723 2.219,1.723Z" style="fill-rule:nonzero;"/><path d="M280.143,38.618c-0.812,-1.307 -2.476,-2.753 -2.476,-3.802c-0,-0.694 0.614,-1.783 1.862,-3.288l-3.525,-4.833c-0.218,0.04 -0.337,0.119 -0.337,0.258c-0,-0.02 1.446,1.723 1.446,2.773c0,1.029 -0.674,2.158 -2.04,3.406c1.544,1.902 2.416,2.813 3.03,3.763c-0.416,-0.218 -0.812,-0.336 -1.188,-0.336c-1.209,0 -1.981,1.148 -1.981,2.317c-0,1.426 2.377,3.149 2.832,3.149c0.079,-0 0.139,-0.04 0.159,-0.119c-0.832,-0.812 -1.248,-1.565 -1.248,-2.258c0,-0.911 0.772,-1.426 1.782,-1.426c0.535,0 1.11,0.139 1.684,0.396Z" style="fill-rule:nonzero;"/></g></svg>