<?xml version="1.0" encoding="UTF-8" standalone="no"?><!DOCTYPE svg PUBLIC "-//W3C//DTD SVG 1.1//EN" "http://www.w3.org/Graphics/SVG/1.1/DTD/svg11.dtd"><svg width="100%" height="100%" viewBox="0 0 211 41" version="1.1" xmlns="http://www.w3.org/2000/svg" xmlns:xlink="http://www.w3.org/1999/xlink" xml:space="preserve" xmlns:serif="http://www.serif.com/" style="fill-rule:evenodd;clip-rule:evenodd;stroke-linejoin:round;stroke-miterlimit:2;"><g><path d="M210.544,9.672l0,19.806" style="fill:none;stroke:#000;stroke-width:0.77px;"/><path d="M0.109,29.478l210.745,-0" style="fill:none;stroke:#000;stroke-width:0.46px;"/><path d="M0.109,24.526l210.745,-0" style="fill:none;stroke:#000;stroke-width:0.46px;"/><path d="M0.109,19.575l210.745,0" style="fill:none;stroke:#000;stroke-width:0.46px;"/><path d="M0.109,14.624l210.745,0" style="fill:none;stroke:#000;stroke-width:0.46px;"/><path d="M0.109,9.672l210.745,0" style="fill:none;stroke:#000;stroke-width:0.46px;"/><path d="M14.181,28.82l0.752,3.664c0.04,0.218 0.06,0.416 0.06,0.614c0,1.941 -1.981,3.565 -4.12,3.565c-0.653,0 -1.287,-0.158 -1.881,-0.455c1.525,-0.159 2.673,-1.089 2.673,-2.456c-0,-1.208 -0.99,-2.476 -2.258,-2.476c-1.445,0 -2.436,1.109 -2.436,2.555c0,2.02 1.644,3.347 3.625,3.347c2.654,-0 4.912,-1.723 4.912,-4.198c0,-0.555 -0.872,-4.476 -0.852,-4.338c2.119,-1.03 3.565,-2.852 3.565,-4.773c0,-2.634 -2.119,-4.654 -4.753,-4.654c-0.04,0 -0.317,0.019 -0.793,0.059l-0.871,-4.179c2.951,-2.495 4.298,-5.149 4.298,-8.061c-0,-2.238 -0.891,-4.615 -2.694,-7.11c-2.04,1.644 -3.208,4.932 -3.208,8.437c-0,1.248 0.158,2.456 0.435,3.605c-4.515,3.783 -6.773,7.268 -6.773,10.457c-0,3.743 3.862,6.853 8.061,6.853c0.931,0 1.624,-0.139 2.258,-0.456Zm-0.06,-26.024c0.654,0.673 0.991,1.465 0.991,2.396c0,1.921 -1.367,4.08 -4.041,6.457c-0.138,-0.574 -0.178,-1.208 -0.178,-1.901c-0,-3.328 1.228,-6.992 2.872,-6.992c0.138,0 0.257,0.02 0.356,0.04Zm0.416,25.212l-1.406,-6.615c0.277,-0.02 0.436,-0.039 0.495,-0.039c1.703,0 2.892,1.604 2.892,3.248c-0,1.307 -0.693,2.456 -1.981,3.406Zm-1.901,-6.536l1.426,6.814c-0.693,0.376 -1.466,0.534 -2.397,0.534c-3.208,-0 -5.981,-2.396 -5.981,-5.308c0,-2.634 1.961,-5.347 5.664,-8.12l0.832,3.961c-2.06,0.436 -3.802,2.179 -3.802,4.14c0,1.663 1.188,2.832 2.97,3.109c-1.089,-0.673 -1.624,-1.525 -1.624,-2.535c-0,-1.367 1.268,-2.377 2.912,-2.595Z" style="fill-rule:nonzero;"/><path d="M44.672,34.429l10.521,-0" style="fill:none;stroke:#000;stroke-width:0.77px;"/><path d="M48.747,39.436c2.04,-0 4.555,-1.703 4.555,-3.446c-0,-1.05 -0.931,-1.723 -2.258,-1.723c-2,0 -4.516,1.664 -4.516,3.446c-0,1.089 0.971,1.723 2.219,1.723Z" style="fill-rule:nonzero;"/><path d="M39.411,40.486l2.792,-2.06c1.228,-0.891 1.704,-1.901 1.743,-2.654c-0,-1.109 -1.01,-1.941 -2.198,-1.941c-0.832,-0 -1.446,0.317 -1.842,0.971l0.138,-6.239l-0.633,-0l-0,11.923Zm1.842,-5.863c0.633,0 1.109,0.456 1.109,1.07c-0,1.03 -1.367,3.01 -2.397,3.664c-0.059,-0.337 -0.099,-0.99 -0.099,-1.961c0,-0.535 0.04,-1.188 0.119,-1.941c0.297,-0.554 0.713,-0.832 1.268,-0.832Z" style="fill-rule:nonzero;"/><path d="M71.028,34.485c2.04,0 4.555,-1.703 4.555,-3.446c0,-1.05 -0.931,-1.723 -2.258,-1.723c-2,-0 -4.515,1.663 -4.515,3.446c-0,1.089 0.97,1.723 2.218,1.723Z" style="fill-rule:nonzero;"/><path d="M62.93,35.535l2.792,-2.06c1.228,-0.892 1.704,-1.902 1.743,-2.654c-0,-1.109 -1.01,-1.941 -2.198,-1.941c-0.832,0 -1.446,0.317 -1.842,0.97l0.139,-6.239l-0.634,0l0,11.924Zm1.842,-5.863c0.634,-0 1.109,0.456 1.109,1.07c-0,1.029 -1.367,3.01 -2.397,3.664c-0.059,-0.337 -0.099,-0.991 -0.099,-1.961c-0,-0.535 0.04,-1.189 0.119,-1.941c0.297,-0.555 0.713,-0.832 1.268,-0.832Z" style="fill-rule:nonzero;"/><path d="M93.309,32.009c2.04,-0 4.556,-1.703 4.556,-3.446c-0,-1.05 -0.931,-1.723 -2.258,-1.723c-2.001,0 -4.516,1.664 -4.516,3.446c0,1.089 0.971,1.723 2.218,1.723Z" style="fill-rule:nonzero;"/><path d="M85.211,33.059l2.793,-2.06c1.228,-0.891 1.703,-1.901 1.743,-2.654c0,-1.109 -1.01,-1.941 -2.199,-1.941c-0.832,0 -1.445,0.317 -1.842,0.971l0.139,-6.239l-0.634,-0l-0,11.923Zm1.842,-5.863c0.634,0 1.109,0.456 1.109,1.07c0,1.03 -1.366,3.01 -2.396,3.664c-0.06,-0.337 -0.099,-0.99 -0.099,-1.961c-0,-0.535 0.039,-1.188 0.119,-1.941c0.297,-0.554 0.713,-0.832 1.267,-0.832Z" style="fill-rule:nonzero;"/><path d="M115.591,29.533c2.04,-0 4.555,-1.703 4.555,-3.446c0,-1.049 -0.931,-1.723 -2.258,-1.723c-2,0 -4.516,1.664 -4.516,3.446c0,1.09 0.971,1.723 2.219,1.723Z" style="fill-rule:nonzero;"/><path d="M137.717,24.582c2.04,0 4.556,-1.703 4.556,-3.446c-0,-1.05 -0.931,-1.723 -2.258,-1.723c-2.001,0 -4.516,1.663 -4.516,3.446c-0,1.089 0.971,1.723 2.218,1.723Z" style="fill-rule:nonzero;"/><path d="M129.619,25.632l2.793,-2.06c1.228,-0.891 1.703,-1.901 1.743,-2.654c-0,-1.109 -1.01,-1.941 -2.199,-1.941c-0.831,-0 -1.445,0.317 -1.842,0.97l0.139,-6.238l-0.634,-0l0,11.923Zm1.842,-5.863c0.634,-0 1.109,0.456 1.109,1.07c0,1.03 -1.366,3.01 -2.396,3.664c-0.06,-0.337 -0.099,-0.991 -0.099,-1.961c-0,-0.535 0.039,-1.188 0.119,-1.941c0.297,-0.555 0.713,-0.832 1.267,-0.832Z" style="fill-rule:nonzero;"/><path d="M159.999,22.106c2.04,0 4.555,-1.703 4.555,-3.446c0,-1.05 -0.931,-1.723 -2.258,-1.723c-2,0 -4.515,1.664 -4.515,3.446c0,1.089 0.97,1.723 2.218,1.723Z" style="fill-rule:nonzero;"/><path d="M151.901,23.156l2.792,-2.06c1.228,-0.891 1.704,-1.901 1.743,-2.654c0,-1.109 -1.01,-1.941 -2.198,-1.941c-0.832,-0 -1.446,0.317 -1.842,0.971l0.138,-6.239l-0.633,-0l0,11.923Zm1.842,-5.863c0.633,-0 1.109,0.456 1.109,1.07c0,1.03 -1.367,3.01 -2.397,3.664c-0.059,-0.337 -0.099,-0.99 -0.099,-1.961c0,-0.534 0.04,-1.188 0.119,-1.941c0.297,-0.554 0.713,-0.832 1.268,-0.832Z" style="fill-rule:nonzero;"/></g></svg>