<?xml version="1.0" encoding="UTF-8" standalone="no"?><!DOCTYPE svg PUBLIC "-//W3C//DTD SVG 1.1//EN" "http://www.w3.org/Graphics/SVG/1.1/DTD/svg11.dtd"><svg width="100%" height="100%" viewBox="0 0 309 56" version="1.1" xmlns="http://www.w3.org/2000/svg" xmlns:xlink="http://www.w3.org/1999/xlink" xml:space="preserve" xmlns:serif="http://www.serif.com/" style="fill-rule:evenodd;clip-rule:evenodd;stroke-linejoin:round;stroke-miterlimit:2;"><g><path d="M166.003,22.853l0,19.805" style="fill:none;stroke:#000;stroke-width:0.77px;"/><path d="M305.107,22.853l-0,19.805" style="fill:none;stroke:#000;stroke-width:0.77px;"/><path d="M307.737,22.853l-0,19.805" style="fill:none;stroke:#000;stroke-width:0.77px;"/><path d="M49.595,11.752c0.374,-0.34 0.545,-0.817 0.545,-1.259c-0,-0.358 -0.12,-0.715 -0.358,-0.987c-0.817,0.238 -1.668,0.34 -2.4,0.34c-1.991,0 -2.519,-0.749 -2.519,-2.179c-0,-1.157 1.209,-4.374 2.366,-4.374c0.834,-0 1.345,2.638 1.923,2.638c0.681,-0 0.715,-1.31 0.715,-1.821c0,-2.315 -1.021,-3.642 -2.264,-3.642c-1.787,-0 -4.101,3.115 -4.101,6.808c-0,2.008 0.561,4.987 3.319,4.987c0.936,0 2.008,-0.221 2.774,-0.511Z" style="fill-rule:nonzero;"/><path d="M51.654,-0.315c-0.017,0.715 -0.136,1.447 -0.188,2.213c0.783,-0.239 1.668,-0.579 2.554,-0.579c0.34,0 0.663,0.051 1.004,0.17c-0.358,1.328 -1.073,3.54 -1.941,6.536c0.188,0.187 0.358,0.34 0.511,0.34c0.102,0 0.204,-0.068 0.323,-0.238c0.92,-2.74 1.464,-4.204 2.349,-7.693c0.034,-0.153 0.051,-0.307 0.051,-0.426c0,-0.749 -0.646,-1.004 -1.48,-1.004c-1.107,0 -2.52,0.426 -3.183,0.681Z" style="fill-rule:nonzero;"/><path d="M177.383,5.642c-0.017,1.072 -0.085,1.94 -0.204,3.268c-0.63,0.63 -0.936,1.311 -0.936,1.889c-0,0.783 0.545,1.379 1.515,1.379c2.893,0 4.612,-2.86 4.612,-4.63c-0,-1.038 -0.493,-1.906 -1.549,-2.195c0.885,-1.532 1.226,-2.639 1.226,-3.387c-0,-1.022 -0.63,-1.396 -1.413,-1.396c-3.046,-0 -4.476,4.119 -4.476,4.408c0,0.511 0.34,0.749 0.766,0.749c0.153,0 0.306,-0.034 0.459,-0.085Zm1.192,2.111c0.374,-0.358 1.004,-0.596 1.532,-0.596c0.629,0 0.987,0.289 0.987,1.055c-0,0.953 -1.447,2.196 -2.604,2.196l-0.154,0c-0,-0.936 0.086,-1.907 0.239,-2.655Zm0.102,-4.17c0.034,-0.205 0.834,-1.073 1.379,-1.073c0.136,-0 0.34,0.068 0.34,0.29c-0,0.51 -0.8,1.838 -1.804,2.382c-0.017,-0.221 -0.034,-0.408 -0.034,-0.578c-0,-0.409 0.051,-0.715 0.119,-1.021Z" style="fill-rule:nonzero;"/><path d="M184.549,-1.081c-0,-0.017 -0.034,-0.034 -0.068,-0.034c-0.239,-0 -1.124,0.408 -1.124,0.545c0.017,0.272 0.017,0.68 0.017,1.208c-0,2.979 -0.238,9.378 -0.238,11.591c0.664,-0.102 4.221,-3.455 4.221,-6.791c-0,-1.141 -0.493,-1.617 -1.174,-1.617c-0.494,-0 -1.09,0.255 -1.668,0.698c0.017,-1.328 0.034,-2.809 0.034,-4.17l-0,-1.43Zm-0.153,8.068c0.221,-0.307 0.697,-0.851 1.004,-0.851c0.153,0 0.306,0.136 0.306,0.527c-0,0.528 -0.51,1.702 -1.395,2.332c0,-0.528 0.068,-1.566 0.085,-2.008Z" style="fill-rule:nonzero;"/><path d="M188.906,-0.315c-0.017,0.715 -0.136,1.447 -0.188,2.213c0.783,-0.239 1.668,-0.579 2.554,-0.579c0.34,0 0.663,0.051 1.004,0.17c-0.358,1.328 -1.073,3.54 -1.941,6.536c0.188,0.187 0.358,0.34 0.511,0.34c0.102,0 0.204,-0.068 0.323,-0.238c0.92,-2.74 1.464,-4.204 2.349,-7.693c0.034,-0.153 0.051,-0.307 0.051,-0.426c0,-0.749 -0.646,-1.004 -1.48,-1.004c-1.107,0 -2.52,0.426 -3.183,0.681Z" style="fill-rule:nonzero;"/><path d="M30.081,30.002l-0,-0.838l-1.257,-0l-0,-4.491l-2.495,2.215l0,2.276l-2.695,-0c0.3,-0.759 1.118,-1.797 2.455,-3.134c1.218,-1.218 1.916,-2.296 2.116,-3.194l-3.413,-0c-0.16,1.956 -1.318,4.811 -2.535,6.368l-0,0.798l4.072,0c0,0.699 -0.02,1.098 -0.06,1.198c-0.12,0.219 -0.499,0.359 -1.118,0.399l-0.04,0.559l4.91,0l-0.079,-0.579c-0.958,-0.08 -1.138,-0.18 -1.138,-0.679c0,-0.06 0,-0.179 0.02,-0.379l-0,-0.519l1.257,0Z" style="fill-rule:nonzero;"/><path d="M30.081,40.038l-0,-0.839l-1.257,-0l-0,-4.491l-2.495,2.216l0,2.275l-2.695,-0c0.3,-0.758 1.118,-1.796 2.455,-3.133c1.218,-1.218 1.916,-2.296 2.116,-3.194l-3.413,-0c-0.16,1.956 -1.318,4.81 -2.535,6.367l-0,0.799l4.072,0c0,0.698 -0.02,1.098 -0.06,1.197c-0.12,0.22 -0.499,0.36 -1.118,0.4l-0.04,0.558l4.91,-0l-0.079,-0.578c-0.958,-0.08 -1.138,-0.18 -1.138,-0.679c0,-0.06 0,-0.18 0.02,-0.379l-0,-0.519l1.257,0Z" style="fill-rule:nonzero;"/><path d="M0.13,42.658l307.917,-0" style="fill:none;stroke:#000;stroke-width:0.46px;"/><path d="M0.13,37.707l307.917,0" style="fill:none;stroke:#000;stroke-width:0.46px;"/><path d="M0.13,32.756l307.917,0" style="fill:none;stroke:#000;stroke-width:0.46px;"/><path d="M0.13,27.804l307.917,0" style="fill:none;stroke:#000;stroke-width:0.46px;"/><path d="M0.13,22.853l307.917,0" style="fill:none;stroke:#000;stroke-width:0.46px;"/><path d="M14.202,42.001l0.753,3.664c0.039,0.218 0.059,0.416 0.059,0.614c-0,1.941 -1.98,3.565 -4.119,3.565c-0.654,-0 -1.288,-0.158 -1.882,-0.455c1.525,-0.159 2.674,-1.09 2.674,-2.456c0,-1.209 -0.99,-2.476 -2.258,-2.476c-1.446,-0 -2.436,1.109 -2.436,2.555c0,2.02 1.644,3.347 3.624,3.347c2.654,0 4.912,-1.723 4.912,-4.199c0,-0.554 -0.871,-4.476 -0.852,-4.337c2.12,-1.03 3.565,-2.852 3.565,-4.773c0,-2.635 -2.119,-4.655 -4.753,-4.655c-0.039,0 -0.317,0.02 -0.792,0.06l-0.872,-4.179c2.952,-2.496 4.298,-5.15 4.298,-8.061c-0,-2.238 -0.891,-4.615 -2.693,-7.111c-2.04,1.644 -3.209,4.932 -3.209,8.438c-0,1.247 0.159,2.456 0.436,3.604c-4.516,3.783 -6.774,7.269 -6.774,10.458c-0,3.743 3.862,6.853 8.061,6.853c0.931,-0 1.624,-0.139 2.258,-0.456Zm-0.059,-26.025c0.653,0.674 0.99,1.466 0.99,2.397c0,1.921 -1.367,4.08 -4.04,6.456c-0.139,-0.574 -0.179,-1.208 -0.179,-1.901c-0,-3.327 1.228,-6.991 2.872,-6.991c0.139,0 0.258,0.02 0.357,0.039Zm0.416,25.213l-1.407,-6.615c0.278,-0.02 0.436,-0.04 0.496,-0.04c1.703,0 2.891,1.605 2.891,3.248c-0,1.308 -0.693,2.456 -1.98,3.407Zm-1.902,-6.536l1.426,6.813c-0.693,0.377 -1.465,0.535 -2.396,0.535c-3.209,0 -5.982,-2.396 -5.982,-5.308c-0,-2.634 1.961,-5.347 5.665,-8.12l0.832,3.961c-2.06,0.436 -3.803,2.178 -3.803,4.139c0,1.664 1.188,2.832 2.971,3.11c-1.089,-0.674 -1.624,-1.525 -1.624,-2.535c0,-1.367 1.267,-2.377 2.911,-2.595Z" style="fill-rule:nonzero;"/><path d="M85.078,19.139l20.115,4.952l0,-2.476l-20.115,-4.951l0,2.475Z"/><path d="M31.077,55.346l-0,-40.23" style="fill:none;"/><path d="M31.077,55.346l-0,-40.23" style="fill:none;stroke:#000;stroke-width:0.77px;"/><path d="M30.767,55.346l105.837,0" style="fill:none;"/><path d="M30.767,55.346l105.837,0" style="fill:none;stroke:#000;stroke-width:0.77px;"/><path d="M30.767,15.116l105.837,0" style="fill:none;"/><path d="M30.767,15.116l105.837,0" style="fill:none;stroke:#000;stroke-width:0.77px;"/><path d="M136.294,55.346l0,-40.23" style="fill:none;"/><path d="M136.294,55.346l0,-40.23" style="fill:none;stroke:#000;stroke-width:0.77px;"/><path d="M220.933,19.139l20.115,4.952l0,-2.476l-20.115,-4.951l-0,2.475Z"/><path d="M169.097,55.346l0,-40.23" style="fill:none;"/><path d="M169.097,55.346l0,-40.23" style="fill:none;stroke:#000;stroke-width:0.77px;"/><path d="M168.788,55.346l105.837,0" style="fill:none;"/><path d="M168.788,55.346l105.837,0" style="fill:none;stroke:#000;stroke-width:0.77px;"/><path d="M168.788,15.116l105.837,0" style="fill:none;"/><path d="M168.788,15.116l105.837,0" style="fill:none;stroke:#000;stroke-width:0.77px;"/><path d="M274.315,55.346l0,-40.23" style="fill:none;"/><path d="M274.315,55.346l0,-40.23" style="fill:none;stroke:#000;stroke-width:0.77px;"/><path d="M43.133,29.464c-1.01,0.891 -1.96,1.327 -2.812,1.327c-0.119,0 -0.198,-0.02 -0.258,-0.059c0.218,-0.397 0.317,-0.733 0.317,-1.03c0,-0.654 -0.376,-0.971 -1.129,-0.971c-0.653,0 -1.366,0.436 -1.366,1.01c-0,0.971 0.614,1.446 1.842,1.446c0.673,0 1.525,-0.178 2.555,-0.515l-3.169,6.972l0.832,-0l3.188,-8.18Z" style="fill-rule:nonzero;"/><path d="M64.808,41.885l-0,-16.556" style="fill:none;"/><path d="M64.808,41.885l-0,-16.556" style="fill:none;stroke:#000;stroke-width:0.46px;"/><path d="M60.373,45.19c2.04,-0 4.555,-1.704 4.555,-3.446c0,-1.05 -0.931,-1.724 -2.258,-1.724c-2,0 -4.515,1.664 -4.515,3.447c-0,1.089 0.97,1.723 2.218,1.723Z" style="fill-rule:nonzero;"/><path d="M64.851,30.236c0.991,0 1.327,0.377 1.902,0.793c1.604,1.129 2.416,2.376 2.416,3.763l-0,0.099c-0.04,1.782 -0.059,1.921 -0.574,3.07c-0.079,0.178 -0.119,0.297 -0.119,0.376c-0,0.099 0.059,0.158 0.158,0.158c0.198,0 1.208,-1.386 1.208,-3.921l0,-0.099c0,-0.852 -0.237,-1.664 -0.713,-2.416c-0.138,-0.238 -0.752,-1.05 -1.841,-2.417c-0.852,-1.089 -1.585,-2.436 -2.179,-4c-0.02,-0.06 -0.02,-0.119 -0.02,-0.179c-0,-0.059 -0,-0.119 0.02,-0.158c0.02,-0.02 -0.079,-0.02 -0.258,-0.02l-0,4.951Z" style="fill-rule:nonzero;"/><path d="M85.078,29.506l0,-12.688" style="fill:none;"/><path d="M85.078,29.506l0,-12.688" style="fill:none;stroke:#000;stroke-width:0.46px;"/><path d="M80.643,32.811c2.04,0 4.555,-1.703 4.555,-3.446c-0,-1.05 -0.931,-1.723 -2.258,-1.723c-2,0 -4.515,1.664 -4.515,3.446c0,1.089 0.97,1.723 2.218,1.723Z" style="fill-rule:nonzero;"/><path d="M105.193,36.933l0,-15.163" style="fill:none;"/><path d="M105.193,36.933l0,-15.163" style="fill:none;stroke:#000;stroke-width:0.46px;"/><path d="M100.758,40.238c2.04,-0 4.555,-1.703 4.555,-3.446c0,-1.05 -0.931,-1.723 -2.258,-1.723c-2,0 -4.515,1.664 -4.515,3.446c0,1.09 0.97,1.723 2.218,1.723Z" style="fill-rule:nonzero;"/><path d="M118.964,33.529l-0,16.557" style="fill:none;"/><path d="M118.964,33.529l-0,16.557" style="fill:none;stroke:#000;stroke-width:0.46px;"/><path d="M118.81,33.623c-0,1.109 1.089,1.763 2.436,1.763c2.257,-0 4.535,-1.505 4.535,-3.367c-0,-1.268 -1.069,-2 -2.713,-2c-2.02,-0 -4.258,1.782 -4.258,3.604Zm5.387,-3.01c0.752,0 1.129,0.317 1.129,0.931c-0,1.148 -3.526,3.248 -4.932,3.248c-0.753,-0 -1.129,-0.317 -1.129,-0.931c-0,-1.228 3.664,-3.248 4.932,-3.248Z" style="fill-rule:nonzero;"/><path d="M112.93,36.337l2.792,-2.06c1.228,-0.891 1.704,-1.902 1.743,-2.654c-0,-1.109 -1.01,-1.941 -2.198,-1.941c-0.832,-0 -1.446,0.317 -1.842,0.97l0.139,-6.238l-0.634,-0l0,11.923Zm1.842,-5.863c0.633,0 1.109,0.456 1.109,1.07c-0,1.029 -1.367,3.01 -2.397,3.664c-0.059,-0.337 -0.099,-0.991 -0.099,-1.961c0,-0.535 0.04,-1.188 0.119,-1.941c0.297,-0.555 0.713,-0.832 1.268,-0.832Z" style="fill-rule:nonzero;"/><path d="M178.988,29.464c-1.01,0.891 -1.961,1.327 -2.813,1.327c-0.118,0 -0.198,-0.02 -0.257,-0.059c0.218,-0.397 0.317,-0.733 0.317,-1.03c0,-0.654 -0.376,-0.971 -1.129,-0.971c-0.654,0 -1.367,0.436 -1.367,1.01c-0,0.971 0.614,1.446 1.842,1.446c0.674,0 1.525,-0.178 2.555,-0.515l-3.169,6.972l0.832,-0l3.189,-8.18Z" style="fill-rule:nonzero;"/><path d="M200.663,44.361l-0,-16.557" style="fill:none;"/><path d="M200.663,44.361l-0,-16.557" style="fill:none;stroke:#000;stroke-width:0.46px;"/><path d="M196.227,47.665c2.04,-0 4.556,-1.703 4.556,-3.446c0,-1.049 -0.931,-1.723 -2.258,-1.723c-2,0 -4.516,1.664 -4.516,3.446c0,1.09 0.971,1.723 2.218,1.723Z" style="fill-rule:nonzero;"/><path d="M200.706,32.712c0.99,-0 1.327,0.376 1.901,0.792c1.605,1.129 2.417,2.377 2.417,3.763l0,0.099c-0.04,1.783 -0.06,1.922 -0.575,3.07c-0.079,0.179 -0.119,0.297 -0.119,0.377c0,0.099 0.06,0.158 0.159,0.158c0.198,-0 1.208,-1.386 1.208,-3.921l0,-0.099c0,-0.852 -0.238,-1.664 -0.713,-2.417c-0.139,-0.237 -0.753,-1.049 -1.842,-2.416c-0.851,-1.089 -1.584,-2.436 -2.178,-4.001c-0.02,-0.059 -0.02,-0.119 -0.02,-0.178c0,-0.059 0,-0.119 0.02,-0.158c0.019,-0.02 -0.08,-0.02 -0.258,-0.02l-0,4.951Z" style="fill-rule:nonzero;"/><path d="M220.933,31.982l-0,-15.164" style="fill:none;"/><path d="M220.933,31.982l-0,-15.164" style="fill:none;stroke:#000;stroke-width:0.46px;"/><path d="M216.497,35.287c2.04,0 4.556,-1.703 4.556,-3.446c-0,-1.05 -0.931,-1.723 -2.258,-1.723c-2.001,0 -4.516,1.663 -4.516,3.446c0,1.089 0.971,1.723 2.218,1.723Z" style="fill-rule:nonzero;"/><path d="M208.399,36.337l2.793,-2.06c1.228,-0.891 1.703,-1.902 1.743,-2.654c-0,-1.109 -1.01,-1.941 -2.199,-1.941c-0.831,-0 -1.445,0.317 -1.842,0.97l0.139,-6.238l-0.634,-0l0,11.923Zm1.842,-5.863c0.634,0 1.109,0.456 1.109,1.07c0,1.029 -1.366,3.01 -2.396,3.664c-0.06,-0.337 -0.099,-0.991 -0.099,-1.961c-0,-0.535 0.039,-1.188 0.119,-1.941c0.297,-0.555 0.713,-0.832 1.267,-0.832Z" style="fill-rule:nonzero;"/><path d="M241.048,39.409l0,-17.639" style="fill:none;"/><path d="M241.048,39.409l0,-17.639" style="fill:none;stroke:#000;stroke-width:0.46px;"/><path d="M236.613,42.714c2.039,-0 4.555,-1.703 4.555,-3.446c-0,-1.05 -0.931,-1.723 -2.258,-1.723c-2,0 -4.516,1.663 -4.516,3.446c-0,1.089 0.971,1.723 2.219,1.723Z" style="fill-rule:nonzero;"/><path d="M261.472,34.458l-0,-16.557" style="fill:none;"/><path d="M261.472,34.458l-0,-16.557" style="fill:none;stroke:#000;stroke-width:0.46px;"/><path d="M254.664,36.099c0,1.109 1.089,1.763 2.436,1.763c2.258,-0 4.536,-1.506 4.536,-3.367c-0,-1.268 -1.07,-2.001 -2.714,-2.001c-2.02,-0 -4.258,1.783 -4.258,3.605Zm5.387,-3.011c0.753,-0 1.129,0.317 1.129,0.931c-0,1.149 -3.525,3.248 -4.931,3.248c-0.753,0 -1.129,-0.316 -1.129,-0.93c-0,-1.228 3.664,-3.249 4.931,-3.249Z" style="fill-rule:nonzero;"/><path d="M248.784,38.812l2.793,-2.06c1.228,-0.891 1.703,-1.901 1.743,-2.653c0,-1.11 -1.01,-1.941 -2.199,-1.941c-0.831,0 -1.445,0.316 -1.842,0.97l0.139,-6.239l-0.634,-0l-0,11.923Zm1.842,-5.862c0.634,0 1.109,0.455 1.109,1.069c0,1.03 -1.366,3.011 -2.396,3.664c-0.06,-0.336 -0.099,-0.99 -0.099,-1.96c0,-0.535 0.039,-1.189 0.119,-1.941c0.297,-0.555 0.713,-0.832 1.267,-0.832Z" style="fill-rule:nonzero;"/></g></svg>