<?xml version="1.0" encoding="UTF-8" standalone="no"?><!DOCTYPE svg PUBLIC "-//W3C//DTD SVG 1.1//EN" "http://www.w3.org/Graphics/SVG/1.1/DTD/svg11.dtd"><svg width="100%" height="100%" viewBox="0 0 308 55" version="1.1" xmlns="http://www.w3.org/2000/svg" xmlns:xlink="http://www.w3.org/1999/xlink" xml:space="preserve" xmlns:serif="http://www.serif.com/" style="fill-rule:evenodd;clip-rule:evenodd;stroke-linejoin:round;stroke-miterlimit:2;"><g><path d="M180.323,23.812l-0,19.806" style="fill:none;stroke:#000;stroke-width:0.77px;"/><path d="M307.049,23.812l0,19.806" style="fill:none;stroke:#000;stroke-width:0.77px;"/><path d="M50.144,12.744c0.375,-0.341 0.545,-0.817 0.545,-1.26c-0,-0.357 -0.119,-0.715 -0.357,-0.987c-0.817,0.238 -1.668,0.34 -2.4,0.34c-1.992,0 -2.519,-0.748 -2.519,-2.178c-0,-1.158 1.208,-4.374 2.366,-4.374c0.834,-0 1.344,2.638 1.923,2.638c0.681,0 0.715,-1.311 0.715,-1.821c-0,-2.315 -1.022,-3.643 -2.264,-3.643c-1.787,-0 -4.102,3.115 -4.102,6.808c-0,2.009 0.562,4.987 3.319,4.987c0.936,0 2.008,-0.221 2.774,-0.51Z" style="fill-rule:nonzero;"/><path d="M52.203,0.676c-0.017,0.715 -0.136,1.447 -0.187,2.213c0.783,-0.238 1.668,-0.579 2.553,-0.579c0.34,0 0.664,0.051 1.004,0.17c-0.357,1.328 -1.072,3.541 -1.94,6.536c0.187,0.187 0.357,0.341 0.511,0.341c0.102,-0 0.204,-0.068 0.323,-0.239c0.919,-2.74 1.464,-4.204 2.349,-7.693c0.034,-0.153 0.051,-0.306 0.051,-0.425c0,-0.749 -0.647,-1.005 -1.481,-1.005c-1.106,-0 -2.519,0.426 -3.183,0.681Z" style="fill-rule:nonzero;"/><path d="M163.922,49.807c5.415,4.642 21.508,4.642 26.923,0" style="fill:none;stroke:#000;stroke-width:0.31px;"/><path d="M163.922,49.807c5.415,3.869 21.508,3.869 26.923,0c-5.415,5.415 -21.508,5.415 -26.923,0Z"/><path d="M163.922,49.807c5.415,3.869 21.508,3.869 26.923,0c-5.415,5.415 -21.508,5.415 -26.923,0Z" style="fill:none;stroke:#000;stroke-width:0.15px;"/><path d="M185.824,6.633c-0.017,1.073 -0.085,1.941 -0.204,3.268c-0.63,0.63 -0.936,1.311 -0.936,1.89c0,0.783 0.544,1.378 1.515,1.378c2.893,-0 4.612,-2.859 4.612,-4.629c0,-1.039 -0.493,-1.907 -1.549,-2.196c0.885,-1.532 1.226,-2.638 1.226,-3.387c0,-1.021 -0.63,-1.396 -1.413,-1.396c-3.047,0 -4.476,4.119 -4.476,4.409c-0,0.51 0.34,0.748 0.766,0.748c0.153,-0 0.306,-0.034 0.459,-0.085Zm1.192,2.111c0.374,-0.358 1.004,-0.596 1.531,-0.596c0.63,-0 0.988,0.29 0.988,1.055c0,0.954 -1.447,2.196 -2.605,2.196l-0.153,-0c-0,-0.936 0.085,-1.906 0.239,-2.655Zm0.102,-4.17c0.034,-0.204 0.834,-1.072 1.378,-1.072c0.137,-0 0.341,0.068 0.341,0.289c0,0.511 -0.8,1.838 -1.804,2.383c-0.017,-0.221 -0.034,-0.409 -0.034,-0.579c-0,-0.408 0.051,-0.715 0.119,-1.021Z" style="fill-rule:nonzero;"/><path d="M192.99,-0.09c0,-0.017 -0.034,-0.034 -0.068,-0.034c-0.239,-0 -1.124,0.409 -1.124,0.545c0.017,0.272 0.017,0.681 0.017,1.208c0,2.979 -0.238,9.379 -0.238,11.591c0.664,-0.102 4.221,-3.455 4.221,-6.791c0,-1.14 -0.494,-1.617 -1.174,-1.617c-0.494,0 -1.09,0.255 -1.668,0.698c0.017,-1.328 0.034,-2.808 0.034,-4.17l0,-1.43Zm-0.154,8.068c0.222,-0.306 0.698,-0.851 1.005,-0.851c0.153,-0 0.306,0.136 0.306,0.528c0,0.527 -0.511,1.702 -1.396,2.331c0,-0.527 0.068,-1.565 0.085,-2.008Z" style="fill-rule:nonzero;"/><path d="M197.347,0.676c-0.017,0.715 -0.137,1.447 -0.188,2.213c0.783,-0.238 1.668,-0.579 2.553,-0.579c0.341,0 0.664,0.051 1.005,0.17c-0.358,1.328 -1.073,3.541 -1.941,6.536c0.187,0.187 0.358,0.341 0.511,0.341c0.102,-0 0.204,-0.068 0.323,-0.239c0.919,-2.74 1.464,-4.204 2.349,-7.693c0.034,-0.153 0.051,-0.306 0.051,-0.425c-0,-0.749 -0.647,-1.005 -1.481,-1.005c-1.106,-0 -2.519,0.426 -3.182,0.681Z" style="fill-rule:nonzero;"/><path d="M30.012,30.993l-0,-0.838l-1.258,0l-0,-4.491l-2.495,2.215l0,2.276l-2.694,0c0.299,-0.759 1.117,-1.796 2.455,-3.134c1.217,-1.217 1.916,-2.295 2.116,-3.193l-3.414,-0c-0.159,1.956 -1.317,4.81 -2.535,6.367l0,0.798l4.072,0c0,0.699 -0.02,1.098 -0.06,1.198c-0.119,0.219 -0.499,0.359 -1.117,0.399l-0.04,0.559l4.91,0l-0.08,-0.579c-0.958,-0.08 -1.138,-0.179 -1.138,-0.678c-0,-0.06 -0,-0.18 0.02,-0.38l-0,-0.519l1.258,0Z" style="fill-rule:nonzero;"/><path d="M30.012,41.029l-0,-0.838l-1.258,-0l-0,-4.491l-2.495,2.215l0,2.276l-2.694,-0c0.299,-0.759 1.117,-1.797 2.455,-3.134c1.217,-1.218 1.916,-2.295 2.116,-3.194l-3.414,0c-0.159,1.956 -1.317,4.811 -2.535,6.368l0,0.798l4.072,0c0,0.699 -0.02,1.098 -0.06,1.198c-0.119,0.219 -0.499,0.359 -1.117,0.399l-0.04,0.559l4.91,0l-0.08,-0.579c-0.958,-0.08 -1.138,-0.18 -1.138,-0.679c-0,-0.06 -0,-0.179 0.02,-0.379l-0,-0.519l1.258,0Z" style="fill-rule:nonzero;"/><path d="M0.061,43.618l307.297,0" style="fill:none;"/><path d="M0.061,43.618l307.297,0" style="fill:none;stroke:#000;stroke-width:0.46px;"/><path d="M0.061,38.667l307.297,-0" style="fill:none;"/><path d="M0.061,38.667l307.297,-0" style="fill:none;stroke:#000;stroke-width:0.46px;"/><path d="M0.061,33.715l307.297,0" style="fill:none;"/><path d="M0.061,33.715l307.297,0" style="fill:none;stroke:#000;stroke-width:0.46px;"/><path d="M0.061,28.764l307.297,-0" style="fill:none;"/><path d="M0.061,28.764l307.297,-0" style="fill:none;stroke:#000;stroke-width:0.46px;"/><path d="M0.061,23.812l307.297,0" style="fill:none;"/><path d="M0.061,23.812l307.297,0" style="fill:none;stroke:#000;stroke-width:0.46px;"/><path d="M14.133,42.961l0.752,3.664c0.04,0.217 0.06,0.416 0.06,0.614c-0,1.941 -1.981,3.565 -4.12,3.565c-0.653,-0 -1.287,-0.159 -1.881,-0.456c1.525,-0.158 2.673,-1.089 2.673,-2.456c-0,-1.208 -0.99,-2.476 -2.257,-2.476c-1.446,0 -2.437,1.11 -2.437,2.555c-0,2.021 1.644,3.348 3.625,3.348c2.654,0 4.912,-1.724 4.912,-4.199c0,-0.555 -0.872,-4.476 -0.852,-4.338c2.119,-1.03 3.565,-2.852 3.565,-4.773c0,-2.634 -2.119,-4.654 -4.753,-4.654c-0.04,-0 -0.317,0.02 -0.792,0.059l-0.872,-4.179c2.951,-2.495 4.298,-5.149 4.298,-8.061c0,-2.238 -0.891,-4.614 -2.694,-7.11c-2.04,1.644 -3.208,4.932 -3.208,8.437c0,1.248 0.158,2.456 0.436,3.605c-4.516,3.783 -6.774,7.269 -6.774,10.457c-0,3.744 3.862,6.853 8.061,6.853c0.931,0 1.624,-0.139 2.258,-0.455Zm-0.06,-26.025c0.654,0.673 0.991,1.465 0.991,2.396c0,1.922 -1.367,4.08 -4.041,6.457c-0.138,-0.574 -0.178,-1.208 -0.178,-1.901c0,-3.328 1.228,-6.992 2.872,-6.992c0.138,-0 0.257,0.02 0.356,0.04Zm0.416,25.213l-1.406,-6.616c0.277,-0.019 0.436,-0.039 0.495,-0.039c1.703,-0 2.892,1.604 2.892,3.248c-0,1.307 -0.693,2.456 -1.981,3.407Zm-1.901,-6.536l1.426,6.813c-0.693,0.376 -1.466,0.535 -2.397,0.535c-3.208,0 -5.981,-2.397 -5.981,-5.308c0,-2.635 1.961,-5.348 5.665,-8.121l0.831,3.961c-2.059,0.436 -3.802,2.179 -3.802,4.14c-0,1.663 1.188,2.832 2.971,3.109c-1.09,-0.673 -1.625,-1.525 -1.625,-2.535c-0,-1.366 1.268,-2.377 2.912,-2.594Z" style="fill-rule:nonzero;"/><path d="M86.092,20.099l20.889,4.951l0,-2.476l-20.889,-4.951l0,2.476Z"/><path d="M223.494,20.099l20.888,4.951l0,-2.476l-20.888,-4.951l0,2.476Z"/><path d="M43.064,30.424c-1.01,0.891 -1.961,1.327 -2.813,1.327c-0.118,-0 -0.198,-0.02 -0.257,-0.06c0.218,-0.396 0.317,-0.733 0.317,-1.03c0,-0.653 -0.376,-0.97 -1.129,-0.97c-0.654,-0 -1.367,0.435 -1.367,1.01c-0,0.97 0.614,1.446 1.842,1.446c0.674,-0 1.525,-0.179 2.555,-0.515l-3.169,6.971l0.832,0l3.189,-8.179Z" style="fill-rule:nonzero;"/><path d="M65.358,42.844l0,-16.556" style="fill:none;"/><path d="M65.358,42.844l0,-16.556" style="fill:none;stroke:#000;stroke-width:0.46px;"/><path d="M60.922,46.149c2.04,0 4.556,-1.703 4.556,-3.446c-0,-1.05 -0.931,-1.723 -2.258,-1.723c-2,-0 -4.516,1.664 -4.516,3.446c-0,1.089 0.971,1.723 2.218,1.723Z" style="fill-rule:nonzero;"/><path d="M65.401,31.196c0.99,-0 1.327,0.376 1.901,0.792c1.605,1.129 2.417,2.377 2.417,3.763l0,0.099c-0.04,1.783 -0.06,1.921 -0.575,3.07c-0.079,0.178 -0.119,0.297 -0.119,0.376c0,0.1 0.06,0.159 0.159,0.159c0.198,-0 1.208,-1.386 1.208,-3.922l-0,-0.099c-0,-0.851 -0.238,-1.663 -0.713,-2.416c-0.139,-0.238 -0.753,-1.05 -1.842,-2.416c-0.852,-1.09 -1.584,-2.436 -2.179,-4.001c-0.019,-0.059 -0.019,-0.119 -0.019,-0.178c-0,-0.06 -0,-0.119 0.019,-0.159c0.02,-0.019 -0.079,-0.019 -0.257,-0.019l0,4.951Z" style="fill-rule:nonzero;"/><path d="M86.092,30.466l0,-12.688" style="fill:none;"/><path d="M86.092,30.466l0,-12.688" style="fill:none;stroke:#000;stroke-width:0.46px;"/><path d="M81.656,33.771c2.04,-0 4.556,-1.704 4.556,-3.446c-0,-1.05 -0.931,-1.724 -2.258,-1.724c-2,-0 -4.516,1.664 -4.516,3.447c0,1.089 0.971,1.723 2.218,1.723Z" style="fill-rule:nonzero;"/><path d="M106.981,37.893l0,-15.164" style="fill:none;"/><path d="M106.981,37.893l0,-15.164" style="fill:none;stroke:#000;stroke-width:0.46px;"/><path d="M102.545,41.198c2.04,-0 4.556,-1.703 4.556,-3.446c-0,-1.05 -0.931,-1.723 -2.258,-1.723c-2.001,-0 -4.516,1.663 -4.516,3.446c0,1.089 0.971,1.723 2.218,1.723Z" style="fill-rule:nonzero;"/><path d="M121.216,34.489l0,16.556" style="fill:none;"/><path d="M121.216,34.489l0,16.556" style="fill:none;stroke:#000;stroke-width:0.46px;"/><path d="M123.279,36.246c2.04,0 4.556,-1.703 4.556,-3.446c-0,-1.049 -0.931,-1.723 -2.258,-1.723c-2.001,-0 -4.516,1.664 -4.516,3.446c-0,1.09 0.971,1.723 2.218,1.723Z" style="fill-rule:nonzero;"/><path d="M115.181,37.296l2.793,-2.06c1.228,-0.891 1.703,-1.901 1.743,-2.654c0,-1.109 -1.01,-1.941 -2.199,-1.941c-0.831,0 -1.445,0.317 -1.842,0.971l0.139,-6.239l-0.634,-0l-0,11.923Zm1.842,-5.862c0.634,0 1.109,0.455 1.109,1.069c0,1.03 -1.366,3.011 -2.396,3.664c-0.06,-0.337 -0.099,-0.99 -0.099,-1.961c0,-0.534 0.039,-1.188 0.119,-1.941c0.297,-0.554 0.713,-0.831 1.267,-0.831Z" style="fill-rule:nonzero;"/><path d="M131.119,30.313c-0.476,-0 -0.911,0.416 -0.911,0.951c-0,0.455 0.455,0.891 0.911,0.891c0.534,0 0.95,-0.436 0.95,-0.891c0,-0.535 -0.416,-0.951 -0.95,-0.951Z" style="fill-rule:nonzero;"/><path d="M166.552,45.32l0,-16.556" style="fill:none;"/><path d="M166.552,45.32l0,-16.556" style="fill:none;stroke:#000;stroke-width:0.46px;"/><path d="M162.117,48.625c2.04,0 4.555,-1.703 4.555,-3.446c-0,-1.05 -0.93,-1.723 -2.257,-1.723c-2.001,0 -4.516,1.663 -4.516,3.446c0,1.089 0.97,1.723 2.218,1.723Z" style="fill-rule:nonzero;"/><path d="M166.596,33.672c0.99,0 1.327,0.376 1.901,0.792c1.604,1.129 2.416,2.377 2.416,3.763l-0,0.099c-0.039,1.783 -0.059,1.921 -0.574,3.07c-0.079,0.178 -0.119,0.297 -0.119,0.376c0,0.099 0.059,0.159 0.159,0.159c0.198,-0 1.208,-1.387 1.208,-3.922l0,-0.099c0,-0.852 -0.238,-1.664 -0.713,-2.416c-0.139,-0.238 -0.753,-1.05 -1.842,-2.416c-0.852,-1.09 -1.585,-2.437 -2.179,-4.001c-0.02,-0.06 -0.02,-0.119 -0.02,-0.178c-0,-0.06 -0,-0.119 0.02,-0.159c0.02,-0.02 -0.079,-0.02 -0.257,-0.02l-0,4.952Z" style="fill-rule:nonzero;"/><path d="M194.714,45.32l0,-16.556" style="fill:none;"/><path d="M194.714,45.32l0,-16.556" style="fill:none;stroke:#000;stroke-width:0.46px;"/><path d="M190.278,48.625c2.04,0 4.556,-1.703 4.556,-3.446c-0,-1.05 -0.931,-1.723 -2.258,-1.723c-2.001,0 -4.516,1.663 -4.516,3.446c-0,1.089 0.971,1.723 2.218,1.723Z" style="fill-rule:nonzero;"/><path d="M223.494,32.942l0,-15.164" style="fill:none;"/><path d="M223.494,32.942l0,-15.164" style="fill:none;stroke:#000;stroke-width:0.46px;"/><path d="M219.058,36.246c2.04,0 4.556,-1.703 4.556,-3.446c-0,-1.049 -0.931,-1.723 -2.258,-1.723c-2.001,-0 -4.516,1.664 -4.516,3.446c-0,1.09 0.971,1.723 2.218,1.723Z" style="fill-rule:nonzero;"/><path d="M210.96,37.296l2.793,-2.06c1.228,-0.891 1.703,-1.901 1.743,-2.654c0,-1.109 -1.01,-1.941 -2.199,-1.941c-0.831,0 -1.445,0.317 -1.842,0.971l0.139,-6.239l-0.634,-0l0,11.923Zm1.842,-5.862c0.634,0 1.109,0.455 1.109,1.069c-0,1.03 -1.366,3.011 -2.396,3.664c-0.06,-0.337 -0.099,-0.99 -0.099,-1.961c0,-0.534 0.039,-1.188 0.119,-1.941c0.297,-0.554 0.713,-0.831 1.267,-0.831Z" style="fill-rule:nonzero;"/><path d="M244.382,40.369l0,-17.64" style="fill:none;"/><path d="M244.382,40.369l0,-17.64" style="fill:none;stroke:#000;stroke-width:0.46px;"/><path d="M239.947,43.674c2.04,-0 4.556,-1.704 4.556,-3.447c0,-1.049 -0.931,-1.723 -2.258,-1.723c-2.001,-0 -4.516,1.664 -4.516,3.446c0,1.09 0.97,1.724 2.218,1.724Z" style="fill-rule:nonzero;"/><path d="M265.271,35.417l-0,-16.556" style="fill:none;"/><path d="M265.271,35.417l-0,-16.556" style="fill:none;stroke:#000;stroke-width:0.46px;"/><path d="M258.463,37.058c0,1.11 1.089,1.763 2.436,1.763c2.258,-0 4.536,-1.505 4.536,-3.367c-0,-1.267 -1.07,-2 -2.714,-2c-2.02,0 -4.258,1.782 -4.258,3.604Zm5.387,-3.01c0.753,0 1.129,0.317 1.129,0.931c0,1.149 -3.525,3.248 -4.932,3.248c-0.752,-0 -1.128,-0.317 -1.128,-0.931c0,-1.228 3.664,-3.248 4.931,-3.248Z" style="fill-rule:nonzero;"/><path d="M252.583,39.772l2.793,-2.06c1.228,-0.891 1.703,-1.901 1.743,-2.654c-0,-1.109 -1.01,-1.941 -2.199,-1.941c-0.832,0 -1.446,0.317 -1.842,0.971l0.139,-6.239l-0.634,0l-0,11.923Zm1.842,-5.863c0.634,0 1.109,0.456 1.109,1.07c-0,1.03 -1.366,3.01 -2.396,3.664c-0.06,-0.337 -0.099,-0.99 -0.099,-1.961c0,-0.535 0.039,-1.188 0.119,-1.941c0.297,-0.554 0.713,-0.832 1.267,-0.832Z" style="fill-rule:nonzero;"/></g></svg>