<svg clip-rule="evenodd" fill-rule="evenodd" stroke-linejoin="round" stroke-miterlimit="2" viewBox="0 0 307 60" xmlns="http://www.w3.org/2000/svg"><path d="m135.828 28.26v19.882" fill="none" stroke="#000" stroke-width=".78"/><path d="m138.469 28.26v19.882" fill="none" stroke="#000" stroke-width=".78"/><path d="m303.735 28.26v19.882" fill="none" stroke="#000" stroke-width=".78"/><path d="m306.375 28.26v19.882" fill="none" stroke="#000" stroke-width=".78"/><path d="m43.826 11.689c.376-.341.546-.82.546-1.264 0-.359-.119-.718-.358-.991-.82.239-1.675.342-2.409.342-1.999 0-2.529-.752-2.529-2.187 0-1.162 1.213-4.391 2.375-4.391.837 0 1.35 2.648 1.93 2.648.684 0 .718-1.316.718-1.828 0-2.324-1.025-3.657-2.272-3.657-1.794 0-4.118 3.127-4.118 6.835 0 2.016.564 5.006 3.332 5.006.939 0 2.016-.222 2.785-.513z" fill-rule="nonzero"/><path d="m45.892-.424c-.017.717-.136 1.452-.188 2.221.786-.24 1.675-.581 2.563-.581.342 0 .667.051 1.008.171-.358 1.332-1.076 3.553-1.947 6.561.188.188.358.341.512.341.103 0 .205-.068.325-.239.922-2.751 1.469-4.22 2.358-7.723.034-.153.051-.307.051-.427 0-.752-.649-1.008-1.487-1.008-1.11 0-2.528.427-3.195.684z" fill-rule="nonzero"/><path d="m193.85 6.798c-.017 1.077-.086 1.948-.205 3.281-.632.632-.94 1.315-.94 1.896 0 .786.547 1.384 1.521 1.384 2.904 0 4.63-2.87 4.63-4.647 0-1.042-.496-1.914-1.555-2.204.889-1.538 1.23-2.649 1.23-3.4 0-1.026-.632-1.401-1.418-1.401-3.058 0-4.493 4.134-4.493 4.425 0 .512.341.752.768.752.154 0 .308-.035.462-.086zm1.196 2.119c.376-.359 1.008-.598 1.537-.598.633 0 .991.29.991 1.059 0 .957-1.452 2.204-2.614 2.204h-.153c0-.94.085-1.913.239-2.665zm.102-4.186c.034-.205.837-1.077 1.384-1.077.137 0 .342.069.342.291 0 .512-.803 1.845-1.811 2.392-.017-.222-.034-.41-.034-.581 0-.41.051-.718.119-1.025z" fill-rule="nonzero"/><path d="m201.043.049c0-.017-.034-.034-.069-.034-.239 0-1.127.41-1.127.547.017.273.017.683.017 1.213 0 2.99-.239 9.414-.239 11.635.666-.102 4.237-3.468 4.237-6.817 0-1.145-.496-1.623-1.179-1.623-.495 0-1.093.256-1.674.7.017-1.332.034-2.819.034-4.186v-1.435zm-.154 8.099c.222-.308.701-.854 1.008-.854.154 0 .308.136.308.529 0 .53-.513 1.709-1.401 2.341 0-.53.068-1.572.085-2.016z" fill-rule="nonzero"/><path d="m205.416.818c-.017.718-.136 1.452-.188 2.221.786-.239 1.675-.581 2.563-.581.342 0 .667.052 1.008.171-.358 1.333-1.076 3.554-1.947 6.561.187.188.358.342.512.342.103 0 .205-.068.325-.239.922-2.751 1.469-4.221 2.358-7.723.034-.154.051-.308.051-.427 0-.752-.649-1.008-1.487-1.008-1.11 0-2.528.427-3.195.683z" fill-rule="nonzero"/><g fill="none" stroke="#000"><path d="m.074 48.142h138.705" stroke-width=".47"/><path d="m.074 43.171h138.705" stroke-width=".47"/><path d="m.074 38.201h138.705" stroke-width=".47"/><path d="m.074 33.231h138.705" stroke-width=".47"/><path d="m.074 28.26h138.705" stroke-width=".47"/><path d="m166.738 48.142h139.948" stroke-width=".47"/><path d="m166.738 43.171h139.948" stroke-width=".47"/><path d="m166.738 38.201h139.948" stroke-width=".47"/><path d="m166.738 33.231h139.948" stroke-width=".47"/><path d="m166.738 28.26h139.948" stroke-width=".47"/></g><path d="m14.2 47.482.755 3.678c.04.219.06.417.06.616 0 1.949-1.988 3.579-4.136 3.579-.656 0-1.292-.159-1.888-.457 1.53-.159 2.684-1.094 2.684-2.466 0-1.212-.994-2.485-2.267-2.485-1.451 0-2.445 1.113-2.445 2.565 0 2.028 1.65 3.36 3.638 3.36 2.664 0 4.931-1.73 4.931-4.215 0-.557-.875-4.493-.855-4.354 2.127-1.034 3.578-2.863 3.578-4.792 0-2.644-2.127-4.672-4.771-4.672-.04 0-.318.02-.795.06l-.875-4.195c2.962-2.505 4.314-5.169 4.314-8.092 0-2.247-.895-4.632-2.704-7.138-2.048 1.651-3.221 4.951-3.221 8.47 0 1.253.159 2.465.438 3.618-4.533 3.798-6.8 7.297-6.8 10.498 0 3.758 3.877 6.879 8.092 6.879.934 0 1.63-.139 2.267-.457zm-.06-26.125c.656.676.994 1.472.994 2.406 0 1.928-1.372 4.096-4.056 6.481-.139-.576-.179-1.212-.179-1.908 0-3.34 1.233-7.018 2.883-7.018.139 0 .259.019.358.039zm.417 25.31-1.411-6.641c.278-.02.437-.04.497-.04 1.71 0 2.903 1.611 2.903 3.261 0 1.312-.696 2.465-1.989 3.42zm-1.908-6.561 1.431 6.839c-.696.378-1.471.537-2.405.537-3.221 0-6.005-2.406-6.005-5.329 0-2.644 1.969-5.368 5.686-8.151l.836 3.976c-2.068.438-3.818 2.187-3.818 4.156 0 1.67 1.193 2.843 2.982 3.121-1.093-.676-1.63-1.531-1.63-2.545 0-1.372 1.273-2.386 2.923-2.604z" fill-rule="nonzero"/><path d="m180.864 47.482.755 3.678c.04.219.06.417.06.616 0 1.949-1.988 3.579-4.136 3.579-.656 0-1.292-.159-1.888-.457 1.531-.159 2.684-1.094 2.684-2.466 0-1.212-.994-2.485-2.267-2.485-1.451 0-2.445 1.113-2.445 2.565 0 2.028 1.65 3.36 3.638 3.36 2.664 0 4.931-1.73 4.931-4.215 0-.557-.875-4.493-.855-4.354 2.127-1.034 3.578-2.863 3.578-4.792 0-2.644-2.127-4.672-4.771-4.672-.04 0-.318.02-.795.06l-.875-4.195c2.962-2.505 4.314-5.169 4.314-8.092 0-2.247-.895-4.632-2.704-7.138-2.048 1.651-3.221 4.951-3.221 8.47 0 1.253.159 2.465.438 3.618-4.533 3.798-6.8 7.297-6.8 10.498 0 3.758 3.877 6.879 8.092 6.879.935 0 1.63-.139 2.267-.457zm-.06-26.125c.656.676.994 1.472.994 2.406 0 1.928-1.372 4.096-4.056 6.481-.139-.576-.179-1.212-.179-1.908 0-3.34 1.233-7.018 2.883-7.018.139 0 .259.019.358.039zm.418 25.31-1.412-6.641c.278-.02.437-.04.497-.04 1.71 0 2.903 1.611 2.903 3.261 0 1.312-.696 2.465-1.988 3.42zm-1.909-6.561 1.431 6.839c-.696.378-1.471.537-2.405.537-3.221 0-6.005-2.406-6.005-5.329 0-2.644 1.969-5.368 5.687-8.151l.835 3.976c-2.068.438-3.818 2.187-3.818 4.156 0 1.67 1.193 2.843 2.983 3.121-1.094-.676-1.631-1.531-1.631-2.545 0-1.372 1.273-2.386 2.923-2.604z" fill-rule="nonzero"/><path d="m26.79 53.112h10.562" fill="none" stroke="#000" stroke-width=".78"/><path d="m35.333 52.336v-16.62" fill="none" stroke="#000" stroke-width=".47"/><path d="m30.88 55.653c2.048 0 4.573-1.71 4.573-3.459 0-1.054-.934-1.73-2.266-1.73-2.009 0-4.533 1.67-4.533 3.459 0 1.094.974 1.73 2.226 1.73z" fill-rule="nonzero"/><path d="m61.427 47.365v-16.62" fill="none" stroke="#000" stroke-width=".47"/><path d="m56.975 50.683c2.048 0 4.573-1.71 4.573-3.46 0-1.053-.935-1.729-2.267-1.729-2.008 0-4.533 1.67-4.533 3.459 0 1.094.974 1.73 2.227 1.73z" fill-rule="nonzero"/><path d="m87.522 42.395v-16.62" fill="none" stroke="#000" stroke-width=".47"/><path d="m83.07 45.712c2.047 0 4.572-1.71 4.572-3.459 0-1.054-.934-1.73-2.266-1.73-2.008 0-4.533 1.67-4.533 3.46 0 1.093.974 1.729 2.227 1.729z" fill-rule="nonzero"/><path d="m106.937 38.978v16.619" fill="none" stroke="#000" stroke-width=".47"/><path d="m109.009 40.742c2.048 0 4.573-1.71 4.573-3.46 0-1.053-.935-1.729-2.267-1.729-2.008 0-4.533 1.67-4.533 3.459 0 1.094.974 1.73 2.227 1.73z" fill-rule="nonzero"/><path d="m100.88 41.796 2.803-2.068c1.233-.895 1.71-1.909 1.75-2.664 0-1.114-1.014-1.949-2.207-1.949-.835 0-1.452.318-1.849.975l.139-6.263h-.636zm1.849-5.885c.636 0 1.113.457 1.113 1.073 0 1.034-1.372 3.022-2.406 3.678-.059-.338-.099-.994-.099-1.968 0-.537.04-1.193.119-1.948.299-.557.716-.835 1.273-.835z" fill-rule="nonzero"/><path d="m194.696 53.112h10.562" fill="none" stroke="#000" stroke-width=".78"/><path d="m203.239 54.821v-16.62" fill="none" stroke="#000" stroke-width=".47"/><path d="m198.787 58.138c2.048 0 4.573-1.71 4.573-3.459 0-1.054-.935-1.73-2.267-1.73-2.008 0-4.533 1.67-4.533 3.46 0 1.093.974 1.729 2.227 1.729z" fill-rule="nonzero"/><path d="m189.415 59.192 2.804-2.068c1.232-.894 1.709-1.908 1.749-2.664 0-1.113-1.014-1.948-2.207-1.948-.835 0-1.451.318-1.849.974l.139-6.263h-.636zm1.849-5.885c.636 0 1.114.457 1.114 1.074 0 1.034-1.372 3.022-2.406 3.678-.06-.338-.099-.994-.099-1.969 0-.536.039-1.192.119-1.948.298-.557.716-.835 1.272-.835z" fill-rule="nonzero"/><path d="m229.334 49.85v-16.619" fill="none" stroke="#000" stroke-width=".47"/><path d="m224.882 53.168c2.047 0 4.572-1.71 4.572-3.459 0-1.054-.934-1.73-2.266-1.73-2.008 0-4.533 1.67-4.533 3.459 0 1.094.974 1.73 2.227 1.73z" fill-rule="nonzero"/><path d="m255.429 44.88v-16.62" fill="none" stroke="#000" stroke-width=".47"/><path d="m250.976 48.197c2.048 0 4.573-1.709 4.573-3.459 0-1.054-.934-1.73-2.266-1.73-2.009 0-4.533 1.67-4.533 3.46 0 1.093.974 1.729 2.226 1.729z" fill-rule="nonzero"/><path d="m281.368 39.91v-16.62" fill="none" stroke="#000" stroke-width=".47"/><path d="m276.916 43.227c2.047 0 4.572-1.71 4.572-3.459 0-1.054-.934-1.73-2.266-1.73-2.008 0-4.533 1.67-4.533 3.459 0 1.094.974 1.73 2.227 1.73z" fill-rule="nonzero"/><path d="m268.786 44.281 2.804-2.068c1.232-.895 1.71-1.908 1.749-2.664 0-1.113-1.014-1.948-2.206-1.948-.836 0-1.452.318-1.849.974l.139-6.263h-.637zm1.849-5.885c.637 0 1.114.457 1.114 1.073 0 1.034-1.372 3.022-2.406 3.679-.059-.338-.099-.994-.099-1.969 0-.537.04-1.193.119-1.948.298-.557.716-.835 1.272-.835z" fill-rule="nonzero"/></svg>