<?xml version="1.0" encoding="UTF-8" standalone="no"?><!DOCTYPE svg PUBLIC "-//W3C//DTD SVG 1.1//EN" "http://www.w3.org/Graphics/SVG/1.1/DTD/svg11.dtd"><svg width="100%" height="100%" viewBox="0 0 273 46" version="1.1" xmlns="http://www.w3.org/2000/svg" xmlns:xlink="http://www.w3.org/1999/xlink" xml:space="preserve" xmlns:serif="http://www.serif.com/" style="fill-rule:evenodd;clip-rule:evenodd;stroke-linejoin:round;stroke-miterlimit:2;"><g><path d="M137.035,17.836l0,19.806" style="fill:none;stroke:#000;stroke-width:0.77px;"/><path d="M267.474,17.836l-0,19.806" style="fill:none;stroke:#000;stroke-width:0.77px;"/><path d="M270.878,17.836l-0,19.806" style="fill:none;stroke:#000;stroke-width:2.48px;"/><path d="M47.066,5.773c-0.017,1.073 -0.085,1.941 -0.205,3.268c-0.629,0.63 -0.936,1.311 -0.936,1.89c-0,0.783 0.545,1.378 1.515,1.378c2.894,-0 4.613,-2.859 4.613,-4.629c0,-1.039 -0.494,-1.907 -1.549,-2.196c0.885,-1.532 1.225,-2.638 1.225,-3.387c0,-1.021 -0.629,-1.396 -1.412,-1.396c-3.047,0 -4.477,4.119 -4.477,4.409c0,0.51 0.341,0.748 0.766,0.748c0.153,0 0.307,-0.034 0.46,-0.085Zm1.191,2.111c0.375,-0.358 1.004,-0.596 1.532,-0.596c0.63,-0 0.987,0.29 0.987,1.055c0,0.954 -1.447,2.196 -2.604,2.196l-0.153,0c0,-0.936 0.085,-1.906 0.238,-2.655Zm0.102,-4.17c0.034,-0.204 0.834,-1.072 1.379,-1.072c0.136,-0 0.34,0.068 0.34,0.289c-0,0.511 -0.8,1.838 -1.804,2.383c-0.017,-0.221 -0.034,-0.409 -0.034,-0.579c0,-0.408 0.051,-0.715 0.119,-1.021Z" style="fill-rule:nonzero;"/><path d="M54.231,-0.95c-0,-0.017 -0.034,-0.034 -0.068,-0.034c-0.238,-0 -1.123,0.409 -1.123,0.545c0.017,0.272 0.017,0.681 0.017,1.208c-0,2.979 -0.238,9.379 -0.238,11.591c0.663,-0.102 4.221,-3.455 4.221,-6.791c0,-1.14 -0.494,-1.617 -1.175,-1.617c-0.493,-0 -1.089,0.255 -1.668,0.698c0.017,-1.328 0.034,-2.808 0.034,-4.17l-0,-1.43Zm-0.153,8.068c0.221,-0.306 0.698,-0.851 1.004,-0.851c0.153,-0 0.307,0.136 0.307,0.528c-0,0.527 -0.511,1.702 -1.396,2.331c0,-0.527 0.068,-1.565 0.085,-2.008Z" style="fill-rule:nonzero;"/><path d="M58.265,6.403c0.306,0.613 0.476,2.468 0.476,3.847c0,0.544 -0.034,1.021 -0.085,1.31c-0.017,0.051 -0.017,0.085 -0.017,0.119c-0,0.46 0.562,0.783 0.987,0.783c0.239,0 0.443,-0.102 0.46,-0.34c0.119,-1.208 0.528,-4.374 1.072,-4.425c0.256,-0.034 0.375,2.604 0.443,4.119c0.017,0.425 0.459,0.629 0.885,0.629c0.391,-0 0.783,-0.17 0.8,-0.493c0.102,-1.277 1.378,-4.562 1.583,-4.545c0.374,0.034 0.919,4.375 0.919,4.426c0.017,0.442 0.408,0.715 0.749,0.715c0.238,0 0.459,-0.154 0.459,-0.494c0,-1.447 -0.493,-3.949 -0.885,-5.515c-0.136,-0.51 -0.63,-1.038 -1.14,-1.038c-0.375,-0 -0.766,0.272 -1.021,1.004l-1.243,3.081c0,-0.426 -0.528,-3.217 -0.562,-3.421c-0.17,-0.681 -0.442,-0.97 -0.749,-0.97c-0.612,-0 -1.344,1.14 -1.616,2.4c-0.035,-0.46 -0.494,-1.447 -0.528,-1.532c-0.085,-0.188 -0.204,-0.256 -0.358,-0.256c-0.289,-0 -0.646,0.273 -0.646,0.511c0,0.034 0,0.068 0.017,0.085Z" style="fill-rule:nonzero;"/><path d="M68.034,-0.184c-0.017,0.715 -0.136,1.447 -0.187,2.213c0.783,-0.238 1.668,-0.579 2.553,-0.579c0.34,0 0.664,0.051 1.004,0.17c-0.357,1.328 -1.072,3.541 -1.94,6.536c0.187,0.187 0.357,0.341 0.51,0.341c0.102,0 0.205,-0.068 0.324,-0.239c0.919,-2.74 1.463,-4.204 2.349,-7.693c0.034,-0.153 0.051,-0.306 0.051,-0.425c-0,-0.749 -0.647,-1.005 -1.481,-1.005c-1.106,-0 -2.519,0.426 -3.183,0.681Z" style="fill-rule:nonzero;"/><path d="M183.723,4.554c0.596,-0.545 2.724,-0.289 3.592,-0.596c0.425,-0.102 0.68,-1.719 0.68,-2.263c-0,-0.29 -0.136,-0.477 -0.595,-0.477c-1.651,-0 -5.055,0.426 -5.089,0.953c-0.085,1.379 -0.171,4.068 -0.171,6.604c-0,1.6 0.034,3.149 0.137,4.255c1.565,-0 2.417,-0.051 3.71,-0.102l0.204,0c0.766,-0.017 1.498,-0.034 1.498,-2.332c-0,-0.187 -0.119,-0.306 -0.579,-0.306l-0.187,0c-1.191,0.068 -2.195,0.17 -3.081,0.187c-0.034,-0.647 -0.068,-0.919 -0.068,-1.464c0.545,-0.17 0.988,-0.357 1.719,-0.561c0.92,-0.17 0.937,-0.17 0.937,-1.073l-0,-0.834c-0,-0.255 -0.085,-0.476 -0.477,-0.476c-0.562,0 -1.498,0.425 -2.196,0.63c-0.017,-0.477 -0.051,-1.073 -0.051,-1.583c-0,-0.204 -0,-0.409 0.017,-0.562Z" style="fill-rule:nonzero;"/><path d="M190.378,-0.331c0,-0.017 -0.034,-0.034 -0.068,-0.034c-0.238,-0 -1.123,0.409 -1.123,0.545c0.017,0.272 0.017,0.681 0.017,1.208c-0,2.979 -0.238,9.379 -0.238,11.591c0.663,-0.102 4.221,-3.455 4.221,-6.791c-0,-1.14 -0.494,-1.617 -1.175,-1.617c-0.493,-0 -1.089,0.255 -1.668,0.698c0.017,-1.328 0.034,-2.808 0.034,-4.17l0,-1.43Zm-0.153,8.068c0.221,-0.306 0.698,-0.851 1.004,-0.851c0.154,0 0.307,0.136 0.307,0.528c-0,0.527 -0.511,1.702 -1.396,2.331c-0,-0.527 0.068,-1.566 0.085,-2.008Z" style="fill-rule:nonzero;"/><path d="M194.735,0.435c-0.017,0.715 -0.136,1.447 -0.187,2.213c0.783,-0.238 1.668,-0.579 2.553,-0.579c0.34,0 0.664,0.051 1.004,0.17c-0.357,1.328 -1.072,3.541 -1.94,6.536c0.187,0.187 0.357,0.341 0.511,0.341c0.102,0 0.204,-0.068 0.323,-0.239c0.919,-2.74 1.464,-4.204 2.349,-7.693c0.034,-0.153 0.051,-0.306 0.051,-0.425c0,-0.749 -0.647,-1.005 -1.481,-1.005c-1.106,0 -2.519,0.426 -3.183,0.681Z" style="fill-rule:nonzero;"/><path d="M0.097,37.642l272.018,0" style="fill:none;stroke:#000;stroke-width:0.46px;"/><path d="M0.097,32.69l272.018,-0" style="fill:none;stroke:#000;stroke-width:0.46px;"/><path d="M0.097,27.739l272.018,0" style="fill:none;stroke:#000;stroke-width:0.46px;"/><path d="M0.097,22.787l272.018,0" style="fill:none;stroke:#000;stroke-width:0.46px;"/><path d="M0.097,17.836l272.018,0" style="fill:none;stroke:#000;stroke-width:0.46px;"/><path d="M14.169,36.984l0.752,3.664c0.04,0.218 0.06,0.416 0.06,0.614c-0,1.941 -1.981,3.565 -4.12,3.565c-0.653,0 -1.287,-0.158 -1.881,-0.455c1.525,-0.159 2.673,-1.09 2.673,-2.456c-0,-1.208 -0.99,-2.476 -2.257,-2.476c-1.446,0 -2.436,1.109 -2.436,2.555c0,2.02 1.643,3.347 3.624,3.347c2.654,0 4.912,-1.723 4.912,-4.199c0,-0.554 -0.872,-4.476 -0.852,-4.337c2.119,-1.03 3.565,-2.852 3.565,-4.773c-0,-2.634 -2.119,-4.655 -4.753,-4.655c-0.04,0 -0.317,0.02 -0.792,0.06l-0.872,-4.179c2.951,-2.496 4.298,-5.15 4.298,-8.061c0,-2.238 -0.891,-4.615 -2.694,-7.11c-2.04,1.644 -3.208,4.931 -3.208,8.437c-0,1.248 0.158,2.456 0.436,3.605c-4.516,3.782 -6.774,7.268 -6.774,10.457c-0,3.743 3.862,6.853 8.061,6.853c0.931,-0 1.624,-0.139 2.258,-0.456Zm-0.06,-26.024c0.654,0.673 0.991,1.465 0.991,2.396c0,1.921 -1.367,4.08 -4.041,6.457c-0.138,-0.575 -0.178,-1.208 -0.178,-1.902c-0,-3.327 1.228,-6.991 2.872,-6.991c0.138,-0 0.257,0.02 0.356,0.04Zm0.416,25.212l-1.406,-6.615c0.277,-0.02 0.436,-0.04 0.495,-0.04c1.704,0 2.892,1.605 2.892,3.249c0,1.307 -0.693,2.456 -1.981,3.406Zm-1.901,-6.536l1.426,6.813c-0.693,0.377 -1.466,0.535 -2.397,0.535c-3.208,0 -5.981,-2.396 -5.981,-5.308c-0,-2.634 1.961,-5.347 5.665,-8.12l0.831,3.961c-2.059,0.436 -3.802,2.179 -3.802,4.139c0,1.664 1.188,2.833 2.971,3.11c-1.09,-0.673 -1.625,-1.525 -1.625,-2.535c-0,-1.367 1.268,-2.377 2.912,-2.595Z" style="fill-rule:nonzero;"/><path d="M58.276,30.171c0,1.644 1.961,2.674 4.496,2.674c2.832,0 4.733,-1.01 4.733,-2.674c-0,-1.525 -2.317,-2.674 -4.515,-2.674c-2.397,-0 -4.714,1.07 -4.714,2.674Zm7.09,1.01c-0.217,1.109 -1.188,1.228 -2.337,1.228c-1.247,0 -2.594,-1.446 -2.594,-2.951c0,-1.01 0.634,-1.525 1.901,-1.525c1.327,0 1.981,0.495 2.575,1.684c0.297,0.594 0.455,1.109 0.455,1.564Z" style="fill-rule:nonzero;"/><path d="M52.396,33.796l2.793,-2.06c1.228,-0.892 1.703,-1.902 1.743,-2.654c-0,-1.109 -1.01,-1.941 -2.199,-1.941c-0.832,0 -1.446,0.317 -1.842,0.97l0.139,-6.239l-0.634,-0l-0,11.924Zm1.842,-5.863c0.634,0 1.109,0.456 1.109,1.07c0,1.029 -1.366,3.01 -2.396,3.664c-0.06,-0.337 -0.099,-0.991 -0.099,-1.961c0,-0.535 0.039,-1.189 0.119,-1.941c0.297,-0.555 0.713,-0.832 1.267,-0.832Z" style="fill-rule:nonzero;"/><path d="M185.62,32.647c-0,1.644 1.961,2.674 4.496,2.674c2.832,0 4.734,-1.011 4.734,-2.674c0,-1.525 -2.317,-2.674 -4.516,-2.674c-2.396,-0 -4.714,1.07 -4.714,2.674Zm7.091,1.01c-0.218,1.109 -1.189,1.228 -2.337,1.228c-1.248,0 -2.595,-1.446 -2.595,-2.951c0,-1.01 0.634,-1.525 1.902,-1.525c1.326,0 1.98,0.495 2.574,1.683c0.297,0.594 0.456,1.109 0.456,1.565Z" style="fill-rule:nonzero;"/></g></svg>