<svg clip-rule="evenodd" fill-rule="evenodd" stroke-linejoin="round" stroke-miterlimit="2" viewBox="0 0 187 36" xmlns="http://www.w3.org/2000/svg"><path d="m183.717 11.839v16.999" fill="none" stroke="#000" stroke-width=".66"/><path d="m185.974 11.839v16.999" fill="none" stroke="#000" stroke-width=".66"/><path d="m.042 28.838h186.198" fill="none" stroke="#000" stroke-width=".4"/><path d="m.042 24.588h186.198" fill="none" stroke="#000" stroke-width=".4"/><path d="m.042 20.339h186.198" fill="none" stroke="#000" stroke-width=".4"/><path d="m.042 16.089h186.198" fill="none" stroke="#000" stroke-width=".4"/><path d="m.042 11.839h186.198" fill="none" stroke="#000" stroke-width=".4"/><g fill-rule="nonzero"><path d="m12.12 28.274.646 3.145c.034.187.051.357.051.527 0 1.666-1.7 3.06-3.536 3.06-.561 0-1.105-.136-1.615-.391 1.309-.136 2.295-.935 2.295-2.108 0-1.037-.85-2.125-1.938-2.125-1.241 0-2.09.952-2.09 2.193 0 1.734 1.41 2.873 3.11 2.873 2.278 0 4.216-1.479 4.216-3.604 0-.476-.748-3.842-.731-3.723 1.819-.884 3.06-2.448 3.06-4.097 0-2.261-1.819-3.995-4.08-3.995-.034 0-.272.017-.68.051l-.748-3.587c2.533-2.142 3.689-4.42 3.689-6.918 0-1.921-.765-3.961-2.312-6.103-1.751 1.411-2.754 4.233-2.754 7.242 0 1.07.136 2.107.374 3.093-3.875 3.247-5.813 6.239-5.813 8.976 0 3.213 3.314 5.882 6.918 5.882.799 0 1.394-.119 1.938-.391zm-.051-22.337c.561.578.85 1.258.85 2.057 0 1.649-1.173 3.502-3.468 5.541-.119-.493-.153-1.037-.153-1.632 0-2.855 1.054-6 2.465-6 .119 0 .221.017.306.034zm.357 21.64-1.207-5.678c.238-.017.374-.034.425-.034 1.462 0 2.482 1.377 2.482 2.788 0 1.122-.595 2.108-1.7 2.924zm-1.632-5.61 1.224 5.848c-.595.323-1.258.459-2.057.459-2.754 0-5.133-2.057-5.133-4.556 0-2.261 1.682-4.59 4.861-6.97l.714 3.4c-1.768.374-3.264 1.87-3.264 3.553 0 1.428 1.02 2.431 2.55 2.669-.935-.578-1.394-1.309-1.394-2.176 0-1.173 1.088-2.04 2.499-2.227z"/><path d="m24.974 7.902h-1.474c-.23-.272-.436-.552-.617-.832-.189-.288-.346-.601-.478-.93-.131-.305-.23-.651-.296-1.021-.074-.379-.107-.766-.107-1.17 0-.444.033-.848.107-1.202.074-.362.173-.691.288-.988.132-.321.288-.634.469-.914.19-.288.404-.576.634-.856h1.474v.115c-.214.198-.42.42-.617.667-.198.247-.387.543-.552.873-.165.321-.288.675-.395 1.062-.099.387-.148.799-.148 1.243 0 .453.049.873.148 1.244.099.37.23.724.395 1.054.157.321.346.609.544.864.205.264.411.486.625.675z"/><path d="m29.922 1.405h-2.511v1.128h2.314v1.145h-2.314v2.569h-1.499v-5.987h4.01z"/><path d="m33.371 3.949c0 .404-.033.791-.107 1.17-.074.37-.173.716-.296 1.021-.132.329-.297.642-.478.93-.181.28-.395.56-.617.832h-1.474v-.116c.214-.189.42-.411.626-.675.197-.255.378-.543.543-.864.165-.33.297-.684.395-1.054.099-.371.149-.791.149-1.244 0-.444-.058-.856-.157-1.243s-.23-.741-.387-1.062c-.173-.33-.354-.626-.552-.873-.197-.247-.403-.469-.617-.667v-.115h1.474c.23.28.444.568.626.856.189.28.345.593.477.914.115.297.214.626.28.988.074.354.115.758.115 1.202z"/><path d="m46.294 6.247h-1.037l-1.894-2.38h-.914v2.38h-.791v-5.987h1.54c.346 0 .634.017.865.058.23.033.453.124.658.264.214.131.379.304.503.518.115.206.181.47.181.783 0 .444-.115.807-.338 1.103-.222.296-.527.51-.906.659zm-1.721-4.299c0-.181-.033-.329-.09-.469-.066-.132-.165-.247-.289-.329-.115-.074-.247-.132-.395-.157-.148-.033-.337-.049-.56-.049h-.79v2.256h.7c.23 0 .436-.016.617-.058.181-.041.338-.123.47-.247.115-.115.197-.247.255-.403.049-.157.082-.338.082-.544z"/><path d="m48.503 6.354c-.716 0-1.268-.206-1.663-.61-.395-.403-.593-.971-.593-1.721 0-.724.19-1.309.577-1.745.378-.428.881-.651 1.498-.651.28 0 .527.042.741.124s.404.206.56.379c.165.173.289.378.371.625.09.256.132.552.132.914v.412h-3.113c0 .519.132.922.395 1.194.264.28.626.42 1.087.42.165 0 .33-.025.494-.058.157-.041.297-.09.428-.148.14-.057.256-.123.346-.181.091-.058.173-.107.231-.156h.049v.823c-.09.033-.197.074-.329.132-.132.049-.255.09-.354.123-.148.033-.28.066-.404.091-.115.016-.271.033-.453.033zm.89-2.849c-.008-.206-.033-.387-.074-.527-.042-.148-.107-.28-.19-.379-.082-.115-.197-.198-.337-.255-.14-.058-.305-.091-.511-.091s-.37.033-.51.091c-.14.057-.272.148-.387.263-.116.115-.198.247-.256.395-.057.14-.098.305-.115.503z"/><path d="m52.836 6.354c-.716 0-1.268-.206-1.663-.61-.395-.403-.593-.971-.593-1.721 0-.724.19-1.309.577-1.745.378-.428.881-.651 1.498-.651.28 0 .527.042.741.124s.404.206.56.379c.165.173.288.378.371.625.09.256.131.552.131.914v.412h-3.112c0 .519.132.922.395 1.194.264.28.626.42 1.087.42.165 0 .329-.025.494-.058.157-.041.297-.09.428-.148.14-.057.256-.123.346-.181.091-.058.173-.107.231-.156h.049v.823c-.09.033-.197.074-.329.132-.132.049-.255.09-.354.123-.149.033-.28.066-.404.091-.115.016-.271.033-.453.033zm.89-2.849c-.009-.206-.033-.387-.074-.527-.042-.148-.108-.28-.19-.379-.082-.115-.197-.198-.337-.255-.14-.058-.305-.091-.511-.091s-.37.033-.51.091c-.14.057-.272.148-.387.263-.116.115-.198.247-.256.395-.057.14-.099.305-.115.503z"/><path d="m58.948 6.247h-.997l-1.679-2.166-.297.288v1.878h-.757v-6.258h.757v3.664l1.779-1.894h.939l-1.845 1.877z"/><path d="m60.537 6.354c-.305 0-.585-.041-.84-.116-.264-.082-.478-.172-.651-.263v-.848h.042c.057.049.14.107.222.173.091.057.206.123.346.189.132.058.272.115.428.157.156.049.313.074.478.074.123 0 .255-.017.387-.05.14-.024.238-.057.304-.107.099-.057.165-.123.206-.189.041-.074.058-.181.058-.321 0-.173-.041-.313-.14-.404-.099-.09-.272-.164-.527-.23-.091-.025-.223-.05-.371-.083-.156-.033-.304-.065-.436-.107-.338-.098-.593-.247-.749-.461-.149-.206-.231-.453-.231-.749 0-.404.156-.733.461-.988s.708-.387 1.219-.387c.247 0 .494.033.749.099.255.057.461.14.634.23v.807h-.041c-.189-.148-.404-.272-.642-.362-.239-.091-.478-.132-.717-.132-.247 0-.461.049-.634.157-.173.107-.255.263-.255.477 0 .181.049.321.148.42.107.091.272.165.494.222.116.033.239.058.379.091.132.025.28.058.436.099.33.082.577.222.75.411.164.198.247.453.247.791 0 .189-.033.37-.116.543-.074.173-.189.322-.329.445-.165.14-.346.239-.552.305-.197.074-.452.107-.757.107z"/><path d="m68.85 6.247h-2.923v-.61h1.087v-4.018h-1.087v-.543c.411 0 .716-.058.905-.173.198-.116.305-.338.33-.659h.626v5.393h1.062z"/></g><path d="m30.19 26.049v-14.21" fill="none" stroke="#000" stroke-width=".4"/><path d="m26.383 28.886c1.751 0 3.91-1.462 3.91-2.958 0-.901-.799-1.479-1.938-1.479-1.717 0-3.876 1.428-3.876 2.958 0 .935.833 1.479 1.904 1.479z" fill-rule="nonzero"/><path d="m69.368 23.924v-14.21" fill="none" stroke="#000" stroke-width=".4"/><path d="m65.561 26.761c1.751 0 3.91-1.462 3.91-2.958 0-.901-.799-1.479-1.938-1.479-1.717 0-3.875 1.428-3.875 2.958 0 .935.833 1.479 1.903 1.479z" fill-rule="nonzero"/><path d="m102.969 18.878v14.21" fill="none" stroke="#000" stroke-width=".4"/><path d="m104.74 20.386c1.751 0 3.91-1.462 3.91-2.958 0-.901-.799-1.479-1.938-1.479-1.717 0-3.876 1.428-3.876 2.958 0 .935.833 1.479 1.904 1.479z" fill-rule="nonzero"/><path d="m142.147 16.753v14.21" fill="none" stroke="#000" stroke-width=".4"/><path d="m143.919 18.261c1.751 0 3.909-1.462 3.909-2.958 0-.901-.799-1.479-1.937-1.479-1.717 0-3.876 1.428-3.876 2.958 0 .935.833 1.479 1.904 1.479z" fill-rule="nonzero"/></svg>