<svg clip-rule="evenodd" fill-rule="evenodd" stroke-linejoin="round" stroke-miterlimit="2" viewBox="0 0 361 33" xmlns="http://www.w3.org/2000/svg"><g fill="none" stroke="#000"><path d="m71.272 8.217v17.004" stroke-width=".66"/><path d="m126.799 8.217v17.004" stroke-width=".66"/><path d="m129.057 8.217v17.004" stroke-width=".66"/><path d="m180.334 8.217v17.004" stroke-width=".66"/><path d="m237.986 8.217v17.004" stroke-width=".66"/><path d="m240.245 8.217v17.004" stroke-width=".66"/><path d="m296.834 8.217v17.004" stroke-width=".66"/><path d="m356.081 8.217v17.004" stroke-width=".66"/><path d="m359.004 8.217v17.004" stroke-width="2.13"/><path d="m.069 25.221h359.997" stroke-width=".4"/><path d="m.069 20.97h359.997" stroke-width=".4"/><path d="m.069 16.719h359.997" stroke-width=".4"/><path d="m.069 12.468h359.997" stroke-width=".4"/><path d="m.069 8.217h359.997" stroke-width=".4"/></g><path d="m12.15 24.656.646 3.146c.034.187.051.357.051.527 0 1.666-1.7 3.06-3.536 3.06-.561 0-1.105-.136-1.616-.391 1.31-.136 2.296-.935 2.296-2.108 0-1.037-.85-2.125-1.939-2.125-1.241 0-2.091.952-2.091 2.193 0 1.734 1.411 2.874 3.112 2.874 2.278 0 4.217-1.48 4.217-3.605 0-.476-.749-3.843-.732-3.724 1.82-.884 3.061-2.448 3.061-4.098 0-2.261-1.819-3.996-4.081-3.996-.034 0-.272.017-.68.051l-.748-3.587c2.533-2.143 3.69-4.421 3.69-6.921 0-1.921-.765-3.962-2.313-6.104-1.751 1.411-2.754 4.234-2.754 7.243 0 1.072.136 2.109.374 3.095-3.877 3.248-5.816 6.24-5.816 8.978 0 3.214 3.316 5.883 6.921 5.883.799 0 1.394-.119 1.938-.391zm-.051-22.343c.561.579.851 1.259.851 2.058 0 1.649-1.174 3.503-3.469 5.543-.119-.493-.153-1.037-.153-1.632 0-2.857 1.054-6.003 2.465-6.003.119 0 .221.017.306.034zm.357 21.646-1.207-5.679c.238-.017.374-.034.425-.034 1.463 0 2.483 1.377 2.483 2.788 0 1.123-.595 2.109-1.701 2.925zm-1.632-5.611 1.224 5.849c-.595.323-1.258.459-2.057.459-2.755 0-5.135-2.057-5.135-4.557 0-2.261 1.683-4.591 4.863-6.971l.714 3.4c-1.768.374-3.265 1.871-3.265 3.554 0 1.428 1.021 2.432 2.551 2.67-.935-.578-1.394-1.31-1.394-2.177 0-1.173 1.088-2.04 2.499-2.227z" fill-rule="nonzero"/><path d="m57.456 18.95h11.342l-4.268 1.921-.34.629 5.798-2.771-5.798-2.772.323.612 4.285 1.939h-11.342z" fill-rule="nonzero"/><path d="m166.518 15.761h11.342l-4.268 1.922-.34.629 5.798-2.772-5.798-2.771.323.612 4.285 1.938h-11.342z" fill-rule="nonzero"/><path d="m283.019 10.448h11.341l-4.267 1.921-.341.629 5.799-2.771-5.799-2.772.324.612 4.284 1.939h-11.341z" fill-rule="nonzero"/><path d="m37.265 20.932c0 1.412 1.683 2.296 3.859 2.296 2.432 0 4.064-.867 4.064-2.296 0-1.309-1.989-2.295-3.877-2.295-2.057 0-4.046.918-4.046 2.295zm6.087.867c-.187.953-1.02 1.055-2.007 1.055-1.071 0-2.227-1.242-2.227-2.534 0-.867.544-1.309 1.632-1.309 1.14 0 1.701.425 2.211 1.445.255.51.391.952.391 1.343z" fill-rule="nonzero"/><path d="m90.135 18.807c0 1.411 1.683 2.295 3.86 2.295 2.431 0 4.064-.867 4.064-2.295 0-1.309-1.99-2.296-3.877-2.296-2.058 0-4.047.919-4.047 2.296zm6.087.867c-.187.952-1.02 1.054-2.006 1.054-1.071 0-2.228-1.241-2.228-2.533 0-.867.545-1.31 1.633-1.31 1.139 0 1.7.426 2.21 1.446.255.51.391.952.391 1.343z" fill-rule="nonzero"/><path d="m85.087 21.918 2.398-1.768c1.054-.765 1.462-1.632 1.496-2.278 0-.953-.867-1.667-1.887-1.667-.715 0-1.242.272-1.582.833l.119-5.356h-.544zm1.581-5.033c.545 0 .953.392.953.919 0 .884-1.174 2.584-2.058 3.145-.051-.289-.085-.85-.085-1.683 0-.459.034-1.02.102-1.666.255-.477.612-.715 1.088-.715z" fill-rule="nonzero"/><path d="m146.326 14.556c0 1.411 1.684 2.295 3.86 2.295 2.432 0 4.064-.867 4.064-2.295 0-1.309-1.989-2.296-3.877-2.296-2.057 0-4.047.919-4.047 2.296zm6.088.867c-.187.952-1.02 1.054-2.007 1.054-1.071 0-2.227-1.241-2.227-2.533 0-.867.544-1.309 1.632-1.309 1.139 0 1.701.425 2.211 1.445.255.51.391.952.391 1.343z" fill-rule="nonzero"/><path d="m201.322 16.681c0 1.412 1.684 2.296 3.86 2.296 2.432 0 4.064-.867 4.064-2.296 0-1.309-1.989-2.295-3.877-2.295-2.057 0-4.047.918-4.047 2.295zm6.088.868c-.187.952-1.021 1.054-2.007 1.054-1.071 0-2.227-1.241-2.227-2.534 0-.867.544-1.309 1.632-1.309 1.139 0 1.7.425 2.21 1.445.256.51.392.953.392 1.344z" fill-rule="nonzero"/><path d="m196.274 19.793 2.398-1.768c1.054-.765 1.462-1.633 1.496-2.279 0-.952-.867-1.666-1.887-1.666-.714 0-1.241.272-1.582.833l.12-5.356h-.545zm1.582-5.033c.544 0 .952.391.952.918 0 .884-1.173 2.585-2.058 3.146-.051-.289-.085-.85-.085-1.683 0-.46.034-1.021.103-1.667.255-.476.612-.714 1.088-.714z" fill-rule="nonzero"/><path d="m262.827 12.431c0 1.411 1.684 2.295 3.86 2.295 2.432 0 4.064-.867 4.064-2.295 0-1.31-1.989-2.296-3.877-2.296-2.057 0-4.047.918-4.047 2.296zm6.088.867c-.187.952-1.021 1.054-2.007 1.054-1.071 0-2.227-1.241-2.227-2.534 0-.867.544-1.309 1.632-1.309 1.139 0 1.7.425 2.211 1.445.255.511.391.953.391 1.344z" fill-rule="nonzero"/><path d="m319.417 10.305c0 1.411 1.684 2.296 3.86 2.296 2.432 0 4.064-.868 4.064-2.296 0-1.309-1.989-2.295-3.877-2.295-2.057 0-4.047.918-4.047 2.295zm6.088.867c-.187.952-1.021 1.054-2.007 1.054-1.071 0-2.227-1.241-2.227-2.533 0-.867.544-1.309 1.632-1.309 1.139 0 1.7.425 2.211 1.445.255.51.391.952.391 1.343z" fill-rule="nonzero"/><path d="m314.369 13.417 2.398-1.769c1.054-.765 1.462-1.632 1.496-2.278 0-.952-.867-1.666-1.887-1.666-.714 0-1.241.272-1.582.833l.12-5.356h-.545zm1.582-5.033c.544 0 .952.391.952.918 0 .884-1.173 2.584-2.058 3.146-.051-.29-.085-.851-.085-1.684 0-.459.034-1.02.102-1.666.256-.476.613-.714 1.089-.714z" fill-rule="nonzero"/></svg>