<svg clip-rule="evenodd" fill-rule="evenodd" stroke-linejoin="round" stroke-miterlimit="2" viewBox="0 0 141 33" xmlns="http://www.w3.org/2000/svg"><g fill="none" stroke="#000"><path d="m77.787 8.209v17.004" stroke-width=".66"/><path d="m136.104 8.209v17.004" stroke-width=".66"/><path d="m139.027 8.209v17.004" stroke-width="2.13"/><path d="m.076 25.213h140.013" stroke-width=".4"/><path d="m.076 20.962h140.013" stroke-width=".4"/><path d="m.076 16.711h140.013" stroke-width=".4"/><path d="m.076 12.46h140.013" stroke-width=".4"/><path d="m.076 8.209h140.013" stroke-width=".4"/></g><path d="m12.157 24.649.646 3.145c.034.187.051.357.051.527 0 1.667-1.701 3.061-3.537 3.061-.561 0-1.105-.136-1.615-.391 1.309-.136 2.295-.935 2.295-2.109 0-1.037-.85-2.125-1.938-2.125-1.241 0-2.092.952-2.092 2.193 0 1.735 1.412 2.874 3.112 2.874 2.279 0 4.217-1.479 4.217-3.605 0-.476-.748-3.843-.731-3.723 1.819-.885 3.06-2.449 3.06-4.098 0-2.262-1.819-3.996-4.08-3.996-.034 0-.272.017-.681.051l-.748-3.588c2.534-2.142 3.69-4.421 3.69-6.92 0-1.922-.765-3.962-2.312-6.105-1.752 1.412-2.755 4.234-2.755 7.244 0 1.071.136 2.108.374 3.095-3.877 3.247-5.815 6.24-5.815 8.977 0 3.214 3.316 5.884 6.92 5.884.799 0 1.395-.119 1.939-.391zm-.051-22.343c.561.578.85 1.258.85 2.057 0 1.65-1.173 3.503-3.469 5.543-.119-.493-.153-1.037-.153-1.632 0-2.856 1.054-6.002 2.466-6.002.119 0 .221.017.306.034zm.357 21.645-1.207-5.679c.238-.017.374-.034.425-.034 1.462 0 2.482 1.377 2.482 2.789 0 1.122-.595 2.108-1.7 2.924zm-1.633-5.611 1.225 5.849c-.595.324-1.259.46-2.058.46-2.754 0-5.135-2.058-5.135-4.557 0-2.262 1.684-4.591 4.863-6.972l.714 3.401c-1.768.374-3.264 1.87-3.264 3.554 0 1.428 1.02 2.431 2.55 2.669-.935-.578-1.394-1.309-1.394-2.176 0-1.174 1.088-2.041 2.499-2.228z" fill-rule="nonzero"/><path d="m63.972 22.662h11.341l-4.268 1.921-.34.629 5.798-2.771-5.798-2.772.323.612 4.285 1.938h-11.341z" fill-rule="nonzero"/><path d="m41.522 23.05c0 1.411 1.683 2.296 3.86 2.296 2.431 0 4.064-.868 4.064-2.296 0-1.309-1.99-2.295-3.877-2.295-2.058 0-4.047.918-4.047 2.295zm6.087.867c-.187.953-1.02 1.055-2.006 1.055-1.072 0-2.228-1.242-2.228-2.534 0-.867.544-1.309 1.633-1.309 1.139 0 1.7.425 2.21 1.445.255.51.391.952.391 1.343z" fill-rule="nonzero"/><path d="m97.182 23.05c0 1.411 1.683 2.296 3.86 2.296 2.431 0 4.064-.868 4.064-2.296 0-1.309-1.99-2.295-3.877-2.295-2.058 0-4.047.918-4.047 2.295zm6.087.867c-.187.953-1.02 1.055-2.006 1.055-1.071 0-2.228-1.242-2.228-2.534 0-.867.544-1.309 1.633-1.309 1.139 0 1.7.425 2.21 1.445.255.51.391.952.391 1.343z" fill-rule="nonzero"/></svg>