<svg clip-rule="evenodd" fill-rule="evenodd" stroke-linejoin="round" stroke-miterlimit="2" viewBox="0 0 241 38" xmlns="http://www.w3.org/2000/svg"><g fill="none" stroke="#000"><path d="m237.217 9.594v19.837" stroke-width=".77"/><path d="m239.851 9.594v19.837" stroke-width=".77"/><path d="m.097 29.431h240.064" stroke-width=".46"/><path d="m.097 24.472h240.064" stroke-width=".46"/><path d="m.097 19.512h240.064" stroke-width=".46"/><path d="m.097 14.553h240.064" stroke-width=".46"/><path d="m.097 9.594h240.064" stroke-width=".46"/></g><path d="m14.191 28.773.754 3.669c.04.219.059.417.059.615 0 1.945-1.983 3.571-4.126 3.571-.654 0-1.289-.159-1.884-.456 1.527-.159 2.678-1.091 2.678-2.46 0-1.21-.992-2.48-2.262-2.48-1.448 0-2.44 1.111-2.44 2.559 0 2.024 1.647 3.353 3.631 3.353 2.658 0 4.919-1.726 4.919-4.206 0-.555-.873-4.483-.853-4.344 2.123-1.032 3.571-2.857 3.571-4.781 0-2.638-2.123-4.662-4.761-4.662-.04 0-.317.02-.794.06l-.872-4.186c2.955-2.499 4.304-5.158 4.304-8.074 0-2.241-.892-4.622-2.698-7.121-2.043 1.646-3.213 4.939-3.213 8.45 0 1.25.158 2.46.436 3.611-4.523 3.789-6.784 7.28-6.784 10.474 0 3.749 3.868 6.864 8.074 6.864.932 0 1.626-.139 2.261-.456zm-.059-26.067c.654.675.991 1.468.991 2.4 0 1.925-1.368 4.087-4.046 6.467-.139-.575-.179-1.21-.179-1.904 0-3.333 1.23-7.003 2.877-7.003.138 0 .257.02.357.04zm.416 25.253-1.408-6.626c.277-.019.436-.039.496-.039 1.706 0 2.896 1.607 2.896 3.253 0 1.309-.694 2.46-1.984 3.412zm-1.904-6.546 1.428 6.824c-.694.377-1.468.536-2.4.536-3.214 0-5.991-2.401-5.991-5.317 0-2.638 1.964-5.356 5.673-8.133l.834 3.967c-2.064.437-3.809 2.182-3.809 4.146 0 1.667 1.19 2.837 2.975 3.115-1.091-.675-1.626-1.528-1.626-2.539 0-1.369 1.269-2.381 2.916-2.599z" fill-rule="nonzero"/><path d="m21.174 23.099 2.797-2.063c1.23-.893 1.706-1.904 1.746-2.658 0-1.111-1.012-1.944-2.202-1.944-.833 0-1.448.317-1.845.972l.139-6.249h-.635zm1.845-5.872c.635 0 1.111.456 1.111 1.071 0 1.032-1.369 3.016-2.401 3.67-.059-.337-.099-.992-.099-1.964 0-.535.04-1.19.119-1.944.298-.555.714-.833 1.27-.833z" fill-rule="nonzero"/><path d="m50 10.833 72.066-4.959v-2.48l-72.066 4.96z"/><path d="m139.269 31.911 71.446-4.96v-2.479l-71.446 4.959z"/><path d="m50 26.176v-17.667" fill="none"/><path d="m50 26.176v-17.667" fill="none" stroke="#000" stroke-width=".46"/><path d="m45.558 29.487c2.043 0 4.563-1.706 4.563-3.452 0-1.051-.933-1.726-2.262-1.726-2.004 0-4.523 1.666-4.523 3.452 0 1.091.972 1.726 2.222 1.726z" fill-rule="nonzero"/><path d="m74.487 23.697v-16.738" fill="none"/><path d="m74.487 23.697v-16.738" fill="none" stroke="#000" stroke-width=".46"/><path d="m70.045 27.007c2.043 0 4.562-1.706 4.562-3.452 0-1.051-.932-1.726-2.261-1.726-2.004 0-4.523 1.667-4.523 3.452 0 1.091.972 1.726 2.222 1.726z" fill-rule="nonzero"/><path d="m98.199 21.217v-15.963" fill="none"/><path d="m98.199 21.217v-15.963" fill="none" stroke="#000" stroke-width=".46"/><path d="m93.757 24.527c2.043 0 4.562-1.706 4.562-3.451 0-1.052-.932-1.726-2.261-1.726-2.004 0-4.523 1.666-4.523 3.451 0 1.092.972 1.726 2.222 1.726z" fill-rule="nonzero"/><path d="m122.066 18.737v-15.188" fill="none"/><path d="m122.066 18.737v-15.188" fill="none" stroke="#000" stroke-width=".46"/><path d="m117.624 22.048c2.043 0 4.562-1.706 4.562-3.452 0-1.051-.932-1.726-2.261-1.726-2.004 0-4.523 1.666-4.523 3.452 0 1.091.972 1.726 2.222 1.726z" fill-rule="nonzero"/><path d="m109.513 23.099 2.797-2.063c1.23-.893 1.706-1.904 1.746-2.658 0-1.111-1.012-1.944-2.202-1.944-.834 0-1.449.317-1.845.972l.139-6.249h-.635zm1.845-5.872c.634 0 1.111.456 1.111 1.071 0 1.032-1.369 3.016-2.401 3.67-.059-.337-.099-.992-.099-1.964 0-.535.04-1.19.119-1.944.298-.555.714-.833 1.27-.833z" fill-rule="nonzero"/><path d="m139.269 17.808v13.948" fill="none"/><path d="m139.269 17.808v13.948" fill="none" stroke="#000" stroke-width=".46"/><path d="m141.336 19.568c2.043 0 4.562-1.706 4.562-3.452 0-1.051-.932-1.726-2.261-1.726-2.004 0-4.523 1.667-4.523 3.452 0 1.091.972 1.726 2.222 1.726z" fill-rule="nonzero"/><path d="m163.136 15.328v14.878" fill="none"/><path d="m163.136 15.328v14.878" fill="none" stroke="#000" stroke-width=".46"/><path d="m165.203 17.088c2.043 0 4.562-1.706 4.562-3.451 0-1.052-.932-1.726-2.261-1.726-2.004 0-4.523 1.666-4.523 3.451 0 1.092.972 1.726 2.222 1.726z" fill-rule="nonzero"/><path d="m186.848 12.848v15.653" fill="none"/><path d="m186.848 12.848v15.653" fill="none" stroke="#000" stroke-width=".46"/><path d="m188.915 14.609c2.043 0 4.562-1.706 4.562-3.452 0-1.051-.932-1.726-2.261-1.726-2.004 0-4.523 1.666-4.523 3.452 0 1.091.972 1.726 2.222 1.726z" fill-rule="nonzero"/><path d="m210.715 10.368v16.428" fill="none"/><path d="m210.715 10.368v16.428" fill="none" stroke="#000" stroke-width=".46"/><path d="m212.782 12.129c2.043 0 4.562-1.706 4.562-3.452 0-1.051-.932-1.726-2.261-1.726-2.004 0-4.523 1.667-4.523 3.452 0 1.091.972 1.726 2.222 1.726z" fill-rule="nonzero"/></svg>