<?xml version="1.0" encoding="UTF-8" standalone="no"?><!DOCTYPE svg PUBLIC "-//W3C//DTD SVG 1.1//EN" "http://www.w3.org/Graphics/SVG/1.1/DTD/svg11.dtd"><svg width="100%" height="100%" viewBox="0 0 211 41" version="1.1" xmlns="http://www.w3.org/2000/svg" xmlns:xlink="http://www.w3.org/1999/xlink" xml:space="preserve" xmlns:serif="http://www.serif.com/" style="fill-rule:evenodd;clip-rule:evenodd;stroke-linejoin:round;stroke-miterlimit:2;"><g><path d="M209.856,9.593l0,19.806" style="fill:none;stroke:#000;stroke-width:0.77px;"/><path d="M0.039,29.399l210.126,0" style="fill:none;stroke:#000;stroke-width:0.46px;"/><path d="M0.039,24.447l210.126,0" style="fill:none;stroke:#000;stroke-width:0.46px;"/><path d="M0.039,19.496l210.126,0" style="fill:none;stroke:#000;stroke-width:0.46px;"/><path d="M0.039,14.545l210.126,0" style="fill:none;stroke:#000;stroke-width:0.46px;"/><path d="M0.039,9.593l210.126,0" style="fill:none;stroke:#000;stroke-width:0.46px;"/><path d="M14.111,28.741l0.753,3.664c0.039,0.218 0.059,0.416 0.059,0.614c0,1.941 -1.98,3.565 -4.119,3.565c-0.654,0 -1.288,-0.158 -1.882,-0.455c1.525,-0.159 2.674,-1.089 2.674,-2.456c-0,-1.208 -0.99,-2.476 -2.258,-2.476c-1.446,-0 -2.436,1.109 -2.436,2.555c-0,2.02 1.644,3.347 3.624,3.347c2.654,-0 4.912,-1.723 4.912,-4.198c-0,-0.555 -0.871,-4.476 -0.851,-4.338c2.119,-1.03 3.565,-2.852 3.565,-4.773c0,-2.634 -2.12,-4.654 -4.754,-4.654c-0.039,-0 -0.317,0.019 -0.792,0.059l-0.871,-4.179c2.951,-2.495 4.297,-5.149 4.297,-8.061c-0,-2.238 -0.891,-4.615 -2.693,-7.11c-2.04,1.644 -3.209,4.932 -3.209,8.437c0,1.248 0.159,2.456 0.436,3.605c-4.516,3.783 -6.774,7.268 -6.774,10.457c0,3.743 3.863,6.853 8.061,6.853c0.931,-0 1.624,-0.139 2.258,-0.456Zm-0.059,-26.024c0.653,0.673 0.99,1.465 0.99,2.396c-0,1.921 -1.366,4.08 -4.04,6.457c-0.139,-0.574 -0.178,-1.208 -0.178,-1.901c0,-3.328 1.227,-6.992 2.871,-6.992c0.139,-0 0.258,0.02 0.357,0.04Zm0.416,25.212l-1.406,-6.615c0.277,-0.02 0.435,-0.039 0.495,-0.039c1.703,-0 2.891,1.604 2.891,3.248c-0,1.307 -0.693,2.456 -1.98,3.406Zm-1.902,-6.535l1.426,6.813c-0.693,0.376 -1.465,0.534 -2.396,0.534c-3.209,0 -5.981,-2.396 -5.981,-5.308c-0,-2.634 1.96,-5.347 5.664,-8.12l0.832,3.961c-2.06,0.436 -3.803,2.179 -3.803,4.14c-0,1.663 1.189,2.832 2.971,3.109c-1.089,-0.673 -1.624,-1.525 -1.624,-2.535c-0,-1.367 1.268,-2.377 2.911,-2.594Z" style="fill-rule:nonzero;"/><path d="M38.413,34.35l10.522,-0" style="fill:none;stroke:#000;stroke-width:0.77px;"/><path d="M42.488,39.357c2.04,-0 4.555,-1.703 4.555,-3.446c-0,-1.05 -0.931,-1.723 -2.258,-1.723c-2,0 -4.515,1.664 -4.515,3.446c0,1.089 0.97,1.723 2.218,1.723Z" style="fill-rule:nonzero;"/><path d="M33.152,40.407l2.793,-2.06c1.227,-0.891 1.703,-1.901 1.742,-2.654c0,-1.109 -1.01,-1.941 -2.198,-1.941c-0.832,-0 -1.446,0.317 -1.842,0.971l0.139,-6.239l-0.634,0l0,11.923Zm1.842,-5.863c0.634,0 1.109,0.456 1.109,1.07c0,1.03 -1.367,3.01 -2.397,3.664c-0.059,-0.337 -0.099,-0.99 -0.099,-1.961c-0,-0.534 0.04,-1.188 0.119,-1.941c0.297,-0.554 0.713,-0.832 1.268,-0.832Z" style="fill-rule:nonzero;"/><path d="M59.611,34.35l10.522,-0" style="fill:none;stroke:#000;stroke-width:0.77px;"/><path d="M63.686,36.882c2.04,-0 4.555,-1.704 4.555,-3.447c-0,-1.049 -0.93,-1.723 -2.257,-1.723c-2.001,-0 -4.516,1.664 -4.516,3.446c-0,1.09 0.97,1.724 2.218,1.724Z" style="fill-rule:nonzero;"/><path d="M85.039,34.406c2.04,0 4.555,-1.703 4.555,-3.446c0,-1.05 -0.93,-1.723 -2.257,-1.723c-2.001,0 -4.516,1.663 -4.516,3.446c-0,1.089 0.97,1.723 2.218,1.723Z" style="fill-rule:nonzero;"/><path d="M76.941,35.456l2.793,-2.06c1.228,-0.891 1.703,-1.902 1.743,-2.654c-0,-1.109 -1.011,-1.941 -2.199,-1.941c-0.832,-0 -1.446,0.317 -1.842,0.97l0.139,-6.238l-0.634,0l0,11.923Zm1.842,-5.863c0.634,0 1.109,0.456 1.109,1.07c-0,1.029 -1.367,3.01 -2.396,3.664c-0.06,-0.337 -0.099,-0.991 -0.099,-1.961c0,-0.535 0.039,-1.188 0.118,-1.941c0.297,-0.555 0.713,-0.832 1.268,-0.832Z" style="fill-rule:nonzero;"/><path d="M106.237,31.93c2.04,0 4.556,-1.703 4.556,-3.446c-0,-1.05 -0.931,-1.723 -2.258,-1.723c-2.001,-0 -4.516,1.664 -4.516,3.446c-0,1.089 0.971,1.723 2.218,1.723Z" style="fill-rule:nonzero;"/><path d="M98.139,32.98l2.793,-2.06c1.228,-0.891 1.703,-1.901 1.743,-2.654c0,-1.109 -1.01,-1.941 -2.199,-1.941c-0.831,-0 -1.445,0.317 -1.842,0.971l0.139,-6.239l-0.634,-0l-0,11.923Zm1.842,-5.863c0.634,-0 1.109,0.456 1.109,1.07c-0,1.03 -1.366,3.01 -2.396,3.664c-0.06,-0.337 -0.099,-0.99 -0.099,-1.961c0,-0.535 0.039,-1.188 0.119,-1.941c0.297,-0.554 0.713,-0.832 1.267,-0.832Z" style="fill-rule:nonzero;"/><path d="M127.436,29.454c2.04,0 4.555,-1.703 4.555,-3.446c-0,-1.049 -0.931,-1.723 -2.258,-1.723c-2,-0 -4.516,1.664 -4.516,3.446c0,1.09 0.971,1.723 2.219,1.723Z" style="fill-rule:nonzero;"/><path d="M148.634,26.979c2.04,0 4.555,-1.704 4.555,-3.446c-0,-1.05 -0.931,-1.724 -2.258,-1.724c-2,0 -4.515,1.664 -4.515,3.447c0,1.089 0.97,1.723 2.218,1.723Z" style="fill-rule:nonzero;"/><path d="M169.987,24.503c2.04,0 4.555,-1.703 4.555,-3.446c0,-1.05 -0.931,-1.723 -2.258,-1.723c-2,-0 -4.515,1.663 -4.515,3.446c-0,1.089 0.97,1.723 2.218,1.723Z" style="fill-rule:nonzero;"/><path d="M161.889,25.553l2.792,-2.06c1.228,-0.891 1.704,-1.901 1.743,-2.654c-0,-1.109 -1.01,-1.941 -2.198,-1.941c-0.832,0 -1.446,0.317 -1.842,0.97l0.139,-6.238l-0.634,-0l0,11.923Zm1.842,-5.863c0.634,0 1.109,0.456 1.109,1.07c-0,1.03 -1.367,3.01 -2.397,3.664c-0.059,-0.337 -0.099,-0.991 -0.099,-1.961c-0,-0.535 0.04,-1.188 0.119,-1.941c0.297,-0.554 0.713,-0.832 1.268,-0.832Z" style="fill-rule:nonzero;"/><path d="M191.185,22.027c2.04,0 4.555,-1.703 4.555,-3.446c0,-1.05 -0.93,-1.723 -2.257,-1.723c-2.001,-0 -4.516,1.664 -4.516,3.446c-0,1.09 0.97,1.723 2.218,1.723Z" style="fill-rule:nonzero;"/><path d="M183.087,23.077l2.793,-2.06c1.228,-0.891 1.703,-1.901 1.743,-2.654c0,-1.109 -1.01,-1.941 -2.199,-1.941c-0.832,0 -1.446,0.317 -1.842,0.971l0.139,-6.239l-0.634,-0l0,11.923Zm1.842,-5.862c0.634,0 1.109,0.455 1.109,1.069c-0,1.03 -1.366,3.01 -2.396,3.664c-0.06,-0.337 -0.099,-0.99 -0.099,-1.961c-0,-0.534 0.039,-1.188 0.118,-1.941c0.298,-0.554 0.713,-0.831 1.268,-0.831Z" style="fill-rule:nonzero;"/></g></svg>