<?xml version="1.0" encoding="UTF-8" standalone="no"?><!DOCTYPE svg PUBLIC "-//W3C//DTD SVG 1.1//EN" "http://www.w3.org/Graphics/SVG/1.1/DTD/svg11.dtd"><svg width="100%" height="100%" viewBox="0 0 471 90" version="1.1" xmlns="http://www.w3.org/2000/svg" xmlns:xlink="http://www.w3.org/1999/xlink" xml:space="preserve" xmlns:serif="http://www.serif.com/" style="fill-rule:evenodd;clip-rule:evenodd;stroke-linejoin:round;stroke-miterlimit:2;"><g><path d="M37.279,62.133l-0,19.806" style="fill:none;stroke:#000;stroke-width:2.48px;"/><path d="M40.683,62.133l-0,19.806" style="fill:none;stroke:#000;stroke-width:0.77px;"/><path d="M43.932,68.634c-0.475,0 -0.911,0.415 -0.911,0.95c-0,0.456 0.456,0.891 0.911,0.891c0.535,0 0.951,-0.435 0.951,-0.891c-0,-0.535 -0.416,-0.95 -0.951,-0.95Z" style="fill-rule:nonzero;"/><path d="M43.932,73.585c-0.475,-0 -0.911,0.416 -0.911,0.951c-0,0.455 0.456,0.891 0.911,0.891c0.535,0 0.951,-0.436 0.951,-0.891c-0,-0.535 -0.416,-0.951 -0.951,-0.951Z" style="fill-rule:nonzero;"/><path d="M155.339,62.133l0,19.806" style="fill:none;stroke:#000;stroke-width:0.77px;"/><path d="M256.534,62.133l-0,19.806" style="fill:none;stroke:#000;stroke-width:0.77px;"/><path d="M357.729,62.133l0,19.806" style="fill:none;stroke:#000;stroke-width:0.77px;"/><path d="M465.577,62.133l-0,19.806" style="fill:none;stroke:#000;stroke-width:0.77px;"/><path d="M468.981,62.133l-0,19.806" style="fill:none;stroke:#000;stroke-width:2.48px;"/><path d="M462.327,68.634c-0.475,0 -0.911,0.415 -0.911,0.95c-0,0.456 0.456,0.891 0.911,0.891c0.535,0 0.951,-0.435 0.951,-0.891c0,-0.535 -0.416,-0.95 -0.951,-0.95Z" style="fill-rule:nonzero;"/><path d="M462.327,73.585c-0.475,-0 -0.911,0.416 -0.911,0.951c-0,0.455 0.456,0.891 0.911,0.891c0.535,0 0.951,-0.436 0.951,-0.891c0,-0.535 -0.416,-0.951 -0.951,-0.951Z" style="fill-rule:nonzero;"/><path d="M60.574,42.736c-0.017,1.072 -0.085,1.94 -0.204,3.268c-0.63,0.629 -0.937,1.31 -0.937,1.889c-0,0.783 0.545,1.379 1.515,1.379c2.894,-0 4.613,-2.86 4.613,-4.63c-0,-1.038 -0.494,-1.906 -1.549,-2.196c0.885,-1.531 1.225,-2.638 1.225,-3.387c-0,-1.021 -0.629,-1.395 -1.412,-1.395c-3.047,0 -4.477,4.119 -4.477,4.408c-0,0.511 0.341,0.749 0.766,0.749c0.153,-0 0.307,-0.034 0.46,-0.085Zm1.191,2.11c0.375,-0.357 1.004,-0.595 1.532,-0.595c0.63,-0 0.987,0.289 0.987,1.055c-0,0.953 -1.446,2.195 -2.604,2.195l-0.153,-0c0,-0.936 0.085,-1.906 0.238,-2.655Zm0.102,-4.17c0.034,-0.204 0.834,-1.072 1.379,-1.072c0.136,0 0.34,0.068 0.34,0.289c-0,0.511 -0.8,1.839 -1.804,2.383c-0.017,-0.221 -0.034,-0.408 -0.034,-0.579c0,-0.408 0.051,-0.714 0.119,-1.021Z" style="fill-rule:nonzero;"/><path d="M67.739,36.013c-0,-0.017 -0.034,-0.034 -0.068,-0.034c-0.238,0 -1.123,0.408 -1.123,0.544c0.017,0.273 0.017,0.681 0.017,1.209c0,2.978 -0.238,9.378 -0.238,11.591c0.663,-0.102 4.221,-3.455 4.221,-6.791c-0,-1.141 -0.494,-1.617 -1.175,-1.617c-0.493,0 -1.089,0.255 -1.668,0.697c0.017,-1.327 0.034,-2.808 0.034,-4.17l-0,-1.429Zm-0.153,8.067c0.221,-0.306 0.698,-0.851 1.004,-0.851c0.154,0 0.307,0.137 0.307,0.528c0,0.528 -0.511,1.702 -1.396,2.332c-0,-0.528 0.068,-1.566 0.085,-2.009Z" style="fill-rule:nonzero;"/><path d="M71.773,43.366c0.306,0.612 0.476,2.467 0.476,3.846c0,0.545 -0.034,1.021 -0.085,1.311c-0.017,0.051 -0.017,0.085 -0.017,0.119c0,0.459 0.562,0.783 0.987,0.783c0.239,-0 0.443,-0.102 0.46,-0.341c0.119,-1.208 0.528,-4.374 1.072,-4.425c0.256,-0.034 0.375,2.604 0.443,4.119c0.017,0.426 0.459,0.63 0.885,0.63c0.391,0 0.783,-0.17 0.8,-0.494c0.102,-1.276 1.379,-4.561 1.583,-4.544c0.374,0.034 0.919,4.374 0.919,4.425c0.017,0.443 0.408,0.715 0.749,0.715c0.238,-0 0.459,-0.153 0.459,-0.494c-0,-1.446 -0.493,-3.948 -0.885,-5.514c-0.136,-0.511 -0.629,-1.039 -1.14,-1.039c-0.375,0 -0.766,0.273 -1.021,1.005l-1.243,3.08c-0,-0.425 -0.527,-3.217 -0.561,-3.421c-0.171,-0.681 -0.443,-0.97 -0.749,-0.97c-0.613,0 -1.345,1.14 -1.617,2.4c-0.034,-0.46 -0.494,-1.447 -0.528,-1.532c-0.085,-0.187 -0.204,-0.255 -0.357,-0.255c-0.29,0 -0.647,0.272 -0.647,0.51c-0,0.034 -0,0.068 0.017,0.086Z" style="fill-rule:nonzero;"/><path d="M81.542,36.779c-0.017,0.714 -0.136,1.446 -0.187,2.212c0.783,-0.238 1.668,-0.578 2.553,-0.578c0.34,-0 0.664,0.051 1.004,0.17c-0.357,1.327 -1.072,3.54 -1.94,6.536c0.187,0.187 0.357,0.34 0.51,0.34c0.103,-0 0.205,-0.068 0.324,-0.238c0.919,-2.741 1.464,-4.204 2.349,-7.694c0.034,-0.153 0.051,-0.306 0.051,-0.425c0,-0.749 -0.647,-1.004 -1.481,-1.004c-1.106,-0 -2.519,0.425 -3.183,0.681Z" style="fill-rule:nonzero;"/><path d="M160.405,40.898c0.596,-0.545 2.724,-0.29 3.592,-0.596c0.425,-0.102 0.68,-1.719 0.68,-2.264c0,-0.289 -0.136,-0.476 -0.595,-0.476c-1.651,0 -5.055,0.425 -5.089,0.953c-0.086,1.378 -0.171,4.068 -0.171,6.604c0,1.6 0.034,3.148 0.137,4.255c1.565,0 2.416,-0.051 3.71,-0.102l0.204,-0c0.766,-0.017 1.498,-0.034 1.498,-2.332c0,-0.187 -0.119,-0.307 -0.579,-0.307l-0.187,-0c-1.191,0.069 -2.196,0.171 -3.081,0.188c-0.034,-0.647 -0.068,-0.919 -0.068,-1.464c0.545,-0.17 0.988,-0.358 1.719,-0.562c0.92,-0.17 0.937,-0.17 0.937,-1.072l-0,-0.834c-0,-0.255 -0.086,-0.477 -0.477,-0.477c-0.562,-0 -1.498,0.426 -2.196,0.63c-0.017,-0.476 -0.051,-1.072 -0.051,-1.583c0,-0.204 0,-0.408 0.017,-0.561Z" style="fill-rule:nonzero;"/><path d="M167.06,36.013c-0,-0.017 -0.034,-0.034 -0.068,-0.034c-0.238,0 -1.123,0.408 -1.123,0.544c0.017,0.273 0.017,0.681 0.017,1.209c0,2.978 -0.238,9.378 -0.238,11.591c0.663,-0.102 4.221,-3.455 4.221,-6.791c0,-1.141 -0.494,-1.617 -1.175,-1.617c-0.493,0 -1.089,0.255 -1.668,0.697c0.017,-1.327 0.034,-2.808 0.034,-4.17l-0,-1.429Zm-0.153,8.067c0.221,-0.306 0.698,-0.851 1.004,-0.851c0.154,0 0.307,0.137 0.307,0.528c0,0.528 -0.511,1.702 -1.396,2.332c0,-0.528 0.068,-1.566 0.085,-2.009Z" style="fill-rule:nonzero;"/><path d="M171.417,36.779c-0.017,0.714 -0.136,1.446 -0.187,2.212c0.783,-0.238 1.668,-0.578 2.553,-0.578c0.34,-0 0.664,0.051 1.004,0.17c-0.357,1.327 -1.072,3.54 -1.94,6.536c0.187,0.187 0.357,0.34 0.511,0.34c0.102,-0 0.204,-0.068 0.323,-0.238c0.919,-2.741 1.464,-4.204 2.349,-7.694c0.034,-0.153 0.051,-0.306 0.051,-0.425c-0,-0.749 -0.647,-1.004 -1.481,-1.004c-1.106,-0 -2.519,0.425 -3.183,0.681Z" style="fill-rule:nonzero;"/><path d="M255.536,42.736c-0.017,1.072 -0.085,1.94 -0.204,3.268c-0.63,0.629 -0.936,1.31 -0.936,1.889c-0,0.783 0.544,1.379 1.514,1.379c2.894,-0 4.613,-2.86 4.613,-4.63c0,-1.038 -0.494,-1.906 -1.549,-2.196c0.885,-1.531 1.226,-2.638 1.226,-3.387c0,-1.021 -0.63,-1.395 -1.413,-1.395c-3.047,0 -4.476,4.119 -4.476,4.408c0,0.511 0.34,0.749 0.765,0.749c0.154,-0 0.307,-0.034 0.46,-0.085Zm1.191,2.11c0.375,-0.357 1.005,-0.595 1.532,-0.595c0.63,-0 0.987,0.289 0.987,1.055c0,0.953 -1.446,2.195 -2.604,2.195l-0.153,-0c0,-0.936 0.085,-1.906 0.238,-2.655Zm0.103,-4.17c0.034,-0.204 0.834,-1.072 1.378,-1.072c0.136,0 0.341,0.068 0.341,0.289c0,0.511 -0.8,1.839 -1.805,2.383c-0.017,-0.221 -0.034,-0.408 -0.034,-0.579c-0,-0.408 0.051,-0.714 0.12,-1.021Z" style="fill-rule:nonzero;"/><path d="M262.702,36.013c-0,-0.017 -0.035,-0.034 -0.069,-0.034c-0.238,0 -1.123,0.408 -1.123,0.544c0.017,0.273 0.017,0.681 0.017,1.209c0,2.978 -0.238,9.378 -0.238,11.591c0.664,-0.102 4.221,-3.455 4.221,-6.791c0,-1.141 -0.494,-1.617 -1.174,-1.617c-0.494,0 -1.09,0.255 -1.669,0.697c0.018,-1.327 0.035,-2.808 0.035,-4.17l-0,-1.429Zm-0.154,8.067c0.222,-0.306 0.698,-0.851 1.005,-0.851c0.153,0 0.306,0.137 0.306,0.528c0,0.528 -0.511,1.702 -1.396,2.332c0,-0.528 0.068,-1.566 0.085,-2.009Z" style="fill-rule:nonzero;"/><path d="M266.735,43.366c0.306,0.612 0.477,2.467 0.477,3.846c0,0.545 -0.034,1.021 -0.086,1.311c-0.017,0.051 -0.017,0.085 -0.017,0.119c0,0.459 0.562,0.783 0.988,0.783c0.238,-0 0.442,-0.102 0.459,-0.341c0.119,-1.208 0.528,-4.374 1.072,-4.425c0.256,-0.034 0.375,2.604 0.443,4.119c0.017,0.426 0.46,0.63 0.885,0.63c0.392,0 0.783,-0.17 0.8,-0.494c0.102,-1.276 1.379,-4.561 1.583,-4.544c0.374,0.034 0.919,4.374 0.919,4.425c0.017,0.443 0.409,0.715 0.749,0.715c0.238,-0 0.46,-0.153 0.46,-0.494c0,-1.446 -0.494,-3.948 -0.886,-5.514c-0.136,-0.511 -0.629,-1.039 -1.14,-1.039c-0.374,0 -0.766,0.273 -1.021,1.005l-1.243,3.08c0,-0.425 -0.527,-3.217 -0.561,-3.421c-0.171,-0.681 -0.443,-0.97 -0.749,-0.97c-0.613,0 -1.345,1.14 -1.617,2.4c-0.034,-0.46 -0.494,-1.447 -0.528,-1.532c-0.085,-0.187 -0.204,-0.255 -0.357,-0.255c-0.29,0 -0.647,0.272 -0.647,0.51c-0,0.034 -0,0.068 0.017,0.086Z" style="fill-rule:nonzero;"/><path d="M276.504,36.779c-0.017,0.714 -0.136,1.446 -0.187,2.212c0.783,-0.238 1.668,-0.578 2.553,-0.578c0.341,-0 0.664,0.051 1.004,0.17c-0.357,1.327 -1.072,3.54 -1.94,6.536c0.187,0.187 0.357,0.34 0.511,0.34c0.102,-0 0.204,-0.068 0.323,-0.238c0.919,-2.741 1.464,-4.204 2.349,-7.694c0.034,-0.153 0.051,-0.306 0.051,-0.425c-0,-0.749 -0.647,-1.004 -1.481,-1.004c-1.106,-0 -2.519,0.425 -3.183,0.681Z" style="fill-rule:nonzero;"/><path d="M362.949,40.898c0.596,-0.545 2.724,-0.29 3.592,-0.596c0.425,-0.102 0.68,-1.719 0.68,-2.264c0,-0.289 -0.136,-0.476 -0.595,-0.476c-1.651,0 -5.055,0.425 -5.089,0.953c-0.085,1.378 -0.171,4.068 -0.171,6.604c-0,1.6 0.034,3.148 0.137,4.255c1.565,0 2.416,-0.051 3.71,-0.102l0.204,-0c0.766,-0.017 1.498,-0.034 1.498,-2.332c0,-0.187 -0.119,-0.307 -0.579,-0.307l-0.187,-0c-1.191,0.069 -2.195,0.171 -3.081,0.188c-0.034,-0.647 -0.068,-0.919 -0.068,-1.464c0.545,-0.17 0.988,-0.358 1.719,-0.562c0.92,-0.17 0.937,-0.17 0.937,-1.072l0,-0.834c0,-0.255 -0.086,-0.477 -0.477,-0.477c-0.562,-0 -1.498,0.426 -2.196,0.63c-0.017,-0.476 -0.051,-1.072 -0.051,-1.583c0,-0.204 0,-0.408 0.017,-0.561Z" style="fill-rule:nonzero;"/><path d="M369.604,36.013c0,-0.017 -0.034,-0.034 -0.068,-0.034c-0.238,0 -1.123,0.408 -1.123,0.544c0.017,0.273 0.017,0.681 0.017,1.209c-0,2.978 -0.238,9.378 -0.238,11.591c0.663,-0.102 4.221,-3.455 4.221,-6.791c-0,-1.141 -0.494,-1.617 -1.175,-1.617c-0.493,0 -1.089,0.255 -1.668,0.697c0.017,-1.327 0.034,-2.808 0.034,-4.17l0,-1.429Zm-0.153,8.067c0.221,-0.306 0.698,-0.851 1.004,-0.851c0.154,0 0.307,0.137 0.307,0.528c-0,0.528 -0.511,1.702 -1.396,2.332c-0,-0.528 0.068,-1.566 0.085,-2.009Z" style="fill-rule:nonzero;"/><path d="M373.961,36.779c-0.017,0.714 -0.136,1.446 -0.187,2.212c0.783,-0.238 1.668,-0.578 2.553,-0.578c0.34,-0 0.664,0.051 1.004,0.17c-0.357,1.327 -1.072,3.54 -1.94,6.536c0.187,0.187 0.357,0.34 0.511,0.34c0.102,-0 0.204,-0.068 0.323,-0.238c0.919,-2.741 1.464,-4.204 2.349,-7.694c0.034,-0.153 0.051,-0.306 0.051,-0.425c0,-0.749 -0.647,-1.004 -1.481,-1.004c-1.106,-0 -2.519,0.425 -3.183,0.681Z" style="fill-rule:nonzero;"/><path d="M29.63,69.262l-0,-0.838l-1.257,-0l-0,-4.492l-2.495,2.216l0,2.276l-2.695,-0c0.299,-0.759 1.118,-1.797 2.455,-3.134c1.218,-1.218 1.916,-2.296 2.116,-3.194l-3.413,0c-0.16,1.956 -1.318,4.811 -2.535,6.368l-0,0.798l4.072,-0c0,0.699 -0.02,1.098 -0.06,1.198c-0.12,0.219 -0.499,0.359 -1.118,0.399l-0.04,0.559l4.91,-0l-0.079,-0.579c-0.959,-0.08 -1.138,-0.18 -1.138,-0.679c0,-0.06 0,-0.18 0.02,-0.379l-0,-0.519l1.257,-0Z" style="fill-rule:nonzero;"/><path d="M29.63,79.298l-0,-0.839l-1.257,-0l-0,-4.491l-2.495,2.216l0,2.275l-2.695,-0c0.299,-0.758 1.118,-1.796 2.455,-3.133c1.218,-1.218 1.916,-2.296 2.116,-3.194l-3.413,-0c-0.16,1.956 -1.318,4.81 -2.535,6.367l-0,0.799l4.072,0c0,0.698 -0.02,1.098 -0.06,1.197c-0.12,0.22 -0.499,0.36 -1.118,0.4l-0.04,0.558l4.91,0l-0.079,-0.578c-0.959,-0.08 -1.138,-0.18 -1.138,-0.679c0,-0.06 0,-0.18 0.02,-0.379l-0,-0.519l1.257,0Z" style="fill-rule:nonzero;"/><path d="M0.143,81.939l470.076,0" style="fill:none;stroke:#000;stroke-width:0.46px;"/><path d="M0.143,76.987l470.076,0" style="fill:none;stroke:#000;stroke-width:0.46px;"/><path d="M0.143,72.036l470.076,-0" style="fill:none;stroke:#000;stroke-width:0.46px;"/><path d="M0.143,67.084l470.076,-0" style="fill:none;stroke:#000;stroke-width:0.46px;"/><path d="M0.143,62.133l470.076,-0" style="fill:none;stroke:#000;stroke-width:0.46px;"/><path d="M14.215,81.281l0.753,3.664c0.039,0.218 0.059,0.416 0.059,0.614c0,1.941 -1.98,3.565 -4.119,3.565c-0.654,0 -1.288,-0.158 -1.882,-0.455c1.525,-0.159 2.674,-1.09 2.674,-2.456c-0,-1.208 -0.99,-2.476 -2.258,-2.476c-1.446,-0 -2.436,1.109 -2.436,2.555c0,2.02 1.644,3.347 3.624,3.347c2.654,-0 4.912,-1.723 4.912,-4.199c-0,-0.554 -0.871,-4.476 -0.851,-4.337c2.119,-1.03 3.565,-2.852 3.565,-4.773c0,-2.634 -2.12,-4.655 -4.754,-4.655c-0.039,-0 -0.317,0.02 -0.792,0.06l-0.871,-4.179c2.951,-2.496 4.297,-5.15 4.297,-8.061c-0,-2.238 -0.891,-4.615 -2.693,-7.11c-2.04,1.643 -3.209,4.931 -3.209,8.437c0,1.248 0.159,2.456 0.436,3.604c-4.516,3.783 -6.774,7.269 -6.774,10.458c-0,3.743 3.863,6.853 8.061,6.853c0.931,0 1.624,-0.139 2.258,-0.456Zm-0.059,-26.025c0.653,0.674 0.99,1.466 0.99,2.397c-0,1.921 -1.366,4.08 -4.04,6.457c-0.139,-0.575 -0.179,-1.209 -0.179,-1.902c0,-3.327 1.228,-6.991 2.872,-6.991c0.139,-0 0.258,0.02 0.357,0.039Zm0.416,25.213l-1.406,-6.615c0.277,-0.02 0.435,-0.04 0.495,-0.04c1.703,-0 2.891,1.605 2.891,3.248c0,1.308 -0.693,2.456 -1.98,3.407Zm-1.902,-6.536l1.426,6.813c-0.693,0.377 -1.465,0.535 -2.396,0.535c-3.209,0 -5.981,-2.396 -5.981,-5.308c-0,-2.634 1.96,-5.347 5.664,-8.12l0.832,3.961c-2.06,0.436 -3.803,2.179 -3.803,4.139c-0,1.664 1.189,2.833 2.971,3.11c-1.089,-0.674 -1.624,-1.525 -1.624,-2.535c-0,-1.367 1.268,-2.377 2.911,-2.595Z" style="fill-rule:nonzero;"/><path d="M194.389,-0.217l0,2.022c0,0.11 -0.022,0.22 -0.044,0.286c-0.022,0.065 -0.11,0.087 -0.22,0.087c-0.33,-0.065 -0.681,-0.131 -1.033,-0.197c-0.373,-0.066 -0.703,-0.11 -0.988,-0.11c-0.989,0 -1.648,0.307 -1.956,0.945c-0.198,0.395 -0.285,1.098 -0.285,2.131l0,3.713c0,1.253 0.175,2.109 0.505,2.527c0.329,0.417 0.945,0.615 1.889,0.615c0.528,0 0.879,-0.044 1.077,-0.132c0.198,-0.11 0.505,-0.153 0.945,-0.153c0.22,-0 0.329,0.131 0.329,0.395l0,1.955c0,0.33 -0.175,0.594 -0.527,0.748c-0.373,0.153 -1.186,0.219 -2.483,0.219c-2.021,-0 -3.427,-0.549 -4.196,-1.626c-0.528,-0.747 -0.791,-1.889 -0.791,-3.405l-0,-6.24c-0,-1.297 0.307,-2.307 0.922,-3.01c0.835,-0.967 2.242,-1.451 4.241,-1.451c1.099,-0 1.846,0.066 2.241,0.22c0.242,0.088 0.374,0.242 0.374,0.461Z" style="fill-rule:nonzero;"/><path d="M196.255,14.043l0,-14.15c0,-0.263 0.066,-0.439 0.176,-0.505c0.11,-0.066 0.242,-0.11 0.439,-0.11l1.758,-0c0.264,-0 0.44,0.066 0.505,0.176c0.066,0.11 0.11,0.242 0.11,0.439l-0,3.032c-0,0.066 0.066,0.132 0.198,0.154c0.154,0 0.417,-0.132 0.747,-0.395c0.33,-0.286 0.769,-0.418 1.34,-0.418c0.769,-0 1.407,0.242 1.912,0.703c0.593,0.572 0.901,1.429 0.901,2.571l0,8.503c0,0.264 -0.044,0.44 -0.154,0.506c-0.11,0.066 -0.264,0.109 -0.461,0.109l-1.758,-0c-0.264,-0 -0.44,-0.043 -0.506,-0.153c-0.065,-0.11 -0.109,-0.264 -0.109,-0.462l-0,-7.866c-0,-0.285 -0.088,-0.527 -0.264,-0.725c-0.198,-0.197 -0.44,-0.307 -0.769,-0.307c-0.462,-0 -0.791,0.197 -0.945,0.615c-0.088,0.242 -0.132,0.571 -0.132,1.011l-0,7.272c-0,0.264 -0.044,0.44 -0.154,0.506c-0.109,0.066 -0.263,0.109 -0.461,0.109l-1.758,-0c-0.263,-0 -0.439,-0.043 -0.505,-0.153c-0.066,-0.11 -0.11,-0.264 -0.11,-0.462Z" style="fill-rule:nonzero;"/><path d="M213.898,5.738l-0,8.151c-0,0.242 -0.022,0.396 -0.066,0.484c-0.11,0.198 -0.308,0.285 -0.594,0.285l-1.845,-0c-0.286,-0 -0.418,-0.109 -0.418,-0.351c0,-0.11 -0.066,-0.154 -0.176,-0.154c-0.109,0.044 -0.175,0.088 -0.197,0.11c-0.198,0.176 -0.462,0.308 -0.791,0.417c-0.352,0.11 -0.681,0.154 -1.011,0.154c-0.857,-0 -1.538,-0.307 -2.087,-0.923c-0.594,-0.681 -0.901,-1.669 -0.901,-2.922c-0,-1.494 0.483,-2.658 1.45,-3.493c0.571,-0.484 1.538,-0.967 2.878,-1.472l0.55,-0.198c0.153,-0.066 0.219,-0.176 0.219,-0.352c-0,-0.307 -0.131,-0.527 -0.395,-0.637c-0.286,-0.11 -0.615,-0.176 -1.011,-0.176c-0.417,0 -0.725,0.022 -0.945,0.066c-0.241,0.066 -0.461,0.132 -0.637,0.176c-0.198,0.044 -0.329,0.088 -0.439,0.132c-0.286,0.11 -0.462,0.154 -0.528,0.154c-0.285,0 -0.417,-0.132 -0.417,-0.396l0,-1.362c0,-0.286 0.154,-0.506 0.483,-0.703c0.55,-0.308 1.45,-0.462 2.747,-0.462c1.67,-0 2.834,0.374 3.471,1.143c0.44,0.527 0.66,1.296 0.66,2.329Zm-2.989,5.625l-0,-2.813c-0,-0.066 -0.022,-0.132 -0.088,-0.154c-0.065,-0.021 -0.131,-0.021 -0.219,0.044l-0.374,0.242c-0.439,0.286 -0.747,0.549 -0.923,0.791c-0.241,0.352 -0.373,0.791 -0.373,1.34c0,0.374 0.088,0.704 0.242,0.967c0.153,0.242 0.395,0.374 0.725,0.374c0.285,-0 0.527,-0.088 0.725,-0.242c0.197,-0.154 0.285,-0.352 0.285,-0.549Z" style="fill-rule:nonzero;"/><path d="M215.655,14.043l-0,-10.986c-0,-0.263 0.066,-0.439 0.175,-0.505c0.11,-0.066 0.242,-0.11 0.44,-0.11l1.955,0c0.11,0 0.22,0.044 0.308,0.132c0.066,0.066 0.11,0.176 0.11,0.286c0,0.153 0.044,0.219 0.132,0.219c0.022,0 0.109,-0.044 0.219,-0.11c0.33,-0.263 0.638,-0.439 0.945,-0.549c0.308,-0.11 0.637,-0.154 0.989,-0.154c0.417,-0 0.791,0.088 1.142,0.242c0.242,0.11 0.528,0.308 0.835,0.571c0.154,0.132 0.286,0.198 0.352,0.198c0.066,0 0.198,-0.066 0.395,-0.198c0.418,-0.329 0.813,-0.527 1.165,-0.637c0.351,-0.11 0.747,-0.176 1.208,-0.176c0.769,-0 1.407,0.242 1.912,0.703c0.593,0.572 0.901,1.429 0.901,2.571l-0,8.503c-0,0.264 -0.044,0.44 -0.154,0.506c-0.11,0.066 -0.264,0.109 -0.461,0.109l-1.758,-0c-0.198,-0 -0.33,-0.043 -0.44,-0.109c-0.11,-0.066 -0.175,-0.242 -0.175,-0.506l0,-7.866c0,-0.285 -0.088,-0.527 -0.264,-0.725c-0.198,-0.197 -0.44,-0.307 -0.769,-0.307c-0.462,-0 -0.791,0.197 -0.945,0.615c-0.088,0.242 -0.132,0.571 -0.132,1.011l0,7.272c0,0.264 -0.044,0.44 -0.154,0.506c-0.109,0.066 -0.263,0.109 -0.461,0.109l-1.758,-0c-0.263,-0 -0.439,-0.043 -0.505,-0.153c-0.066,-0.11 -0.11,-0.264 -0.11,-0.462l-0,-7.866c-0,-0.285 -0.088,-0.527 -0.264,-0.725c-0.197,-0.197 -0.439,-0.307 -0.769,-0.307c-0.461,-0 -0.791,0.197 -0.944,0.615c-0.088,0.242 -0.132,0.571 -0.132,1.011l0,7.272c0,0.264 -0.044,0.44 -0.154,0.506c-0.11,0.066 -0.264,0.109 -0.461,0.109l-1.758,-0c-0.264,-0 -0.44,-0.043 -0.506,-0.153c-0.065,-0.11 -0.109,-0.264 -0.109,-0.462Z" style="fill-rule:nonzero;"/><path d="M238.262,9.363l-4.417,-0c-0.11,-0 -0.175,0.022 -0.197,0.088c-0.044,0.044 -0.066,0.11 -0.066,0.176l0,0.703c0,0.593 0.197,1.033 0.571,1.362c0.373,0.308 0.901,0.462 1.582,0.462c0.461,-0 0.901,-0.022 1.274,-0.088c0.374,-0.066 0.791,-0.176 1.209,-0.33c0.373,-0.11 0.549,0 0.549,0.352l-0,1.801c-0,0.11 -0.022,0.22 -0.066,0.286c-0.066,0.066 -0.176,0.132 -0.351,0.198c-0.484,0.176 -0.967,0.307 -1.473,0.373c-0.505,0.066 -0.944,0.088 -1.34,0.088c-1.274,-0 -2.307,-0.241 -3.098,-0.703c-1.23,-0.725 -1.846,-1.977 -1.846,-3.735l0,-3.713c0,-1.165 0.22,-2.11 0.682,-2.813c0.681,-1.076 1.845,-1.604 3.493,-1.604c0.989,-0 1.824,0.198 2.461,0.616c1.099,0.703 1.648,1.977 1.648,3.801l-0,2.065c-0,0.264 -0.044,0.439 -0.154,0.505c-0.11,0.066 -0.264,0.11 -0.461,0.11Zm-4.461,-2.417l1.868,-0c0.088,-0 0.154,-0.066 0.22,-0.219l0,-0.484c0,-0.417 -0.044,-0.747 -0.154,-0.967c-0.198,-0.395 -0.505,-0.593 -0.967,-0.593c-0.373,-0 -0.681,0.132 -0.879,0.396c-0.197,0.241 -0.307,0.637 -0.307,1.164l0,0.484c0,0.153 0.066,0.219 0.219,0.219Z" style="fill-rule:nonzero;"/><path d="M243.511,-0.107l0,14.15c0,0.264 -0.044,0.44 -0.154,0.506c-0.11,0.066 -0.263,0.109 -0.461,0.109l-1.758,-0c-0.264,-0 -0.439,-0.043 -0.505,-0.153c-0.066,-0.11 -0.11,-0.264 -0.11,-0.462l-0,-14.15c-0,-0.263 0.066,-0.439 0.176,-0.505c0.11,-0.066 0.241,-0.11 0.439,-0.11l1.758,-0c0.264,-0 0.439,0.066 0.505,0.176c0.066,0.11 0.11,0.242 0.11,0.439Z" style="fill-rule:nonzero;"/><path d="M252.937,9.363l-4.416,-0c-0.11,-0 -0.176,0.022 -0.198,0.088c-0.044,0.044 -0.066,0.11 -0.066,0.176l0,0.703c0,0.593 0.198,1.033 0.571,1.362c0.374,0.308 0.901,0.462 1.582,0.462c0.462,-0 0.901,-0.022 1.275,-0.088c0.373,-0.066 0.791,-0.176 1.208,-0.33c0.374,-0.11 0.549,0 0.549,0.352l0,1.801c0,0.11 -0.022,0.22 -0.066,0.286c-0.065,0.066 -0.175,0.132 -0.351,0.198c-0.483,0.176 -0.967,0.307 -1.472,0.373c-0.506,0.066 -0.945,0.088 -1.34,0.088c-1.275,-0 -2.308,-0.241 -3.099,-0.703c-1.23,-0.725 -1.845,-1.977 -1.845,-3.735l-0,-3.713c-0,-1.165 0.22,-2.11 0.681,-2.813c0.681,-1.076 1.846,-1.604 3.494,-1.604c0.988,-0 1.823,0.198 2.46,0.616c1.099,0.703 1.648,1.977 1.648,3.801l0,2.065c0,0.264 -0.044,0.439 -0.154,0.505c-0.109,0.066 -0.263,0.11 -0.461,0.11Zm-4.46,-2.417l1.867,-0c0.088,-0 0.154,-0.066 0.22,-0.219l-0,-0.484c-0,-0.417 -0.044,-0.747 -0.154,-0.967c-0.197,-0.395 -0.505,-0.593 -0.966,-0.593c-0.374,-0 -0.682,0.132 -0.879,0.396c-0.198,0.241 -0.308,0.637 -0.308,1.164l0,0.484c0,0.153 0.066,0.219 0.22,0.219Z" style="fill-rule:nonzero;"/><path d="M255.066,10.418l-0,-3.735c-0,-1.187 0.22,-2.132 0.682,-2.835c0.681,-1.054 1.845,-1.582 3.493,-1.582c1.648,-0 2.813,0.528 3.494,1.582c0.461,0.703 0.681,1.648 0.681,2.835l-0,3.735c-0,1.186 -0.22,2.131 -0.681,2.834c-0.681,1.055 -1.846,1.582 -3.494,1.582c-1.648,-0 -2.812,-0.527 -3.493,-1.582c-0.462,-0.703 -0.682,-1.648 -0.682,-2.834Zm2.989,-4.241l-0,4.746c-0,0.55 0.131,0.923 0.373,1.165c0.198,0.198 0.484,0.285 0.813,0.285c0.33,0 0.593,-0.087 0.791,-0.285c0.264,-0.242 0.396,-0.637 0.396,-1.165l0,-4.746c0,-0.549 -0.11,-0.922 -0.33,-1.12c-0.242,-0.22 -0.527,-0.33 -0.857,-0.33c-0.329,-0 -0.593,0.088 -0.791,0.286c-0.264,0.242 -0.395,0.637 -0.395,1.164Z" style="fill-rule:nonzero;"/><path d="M265.041,14.043l-0,-10.986c-0,-0.263 0.066,-0.439 0.175,-0.505c0.11,-0.066 0.242,-0.11 0.44,-0.11l1.955,0c0.11,0 0.22,0.044 0.308,0.132c0.066,0.066 0.11,0.176 0.11,0.286c-0,0.153 0.044,0.219 0.154,0.219c0.022,0 0.088,-0.044 0.197,-0.11c0.22,-0.197 0.44,-0.329 0.66,-0.439c0.373,-0.176 0.813,-0.264 1.274,-0.264c0.769,-0 1.406,0.242 1.911,0.703c0.594,0.572 0.901,1.429 0.901,2.571l0,8.503c0,0.264 -0.044,0.44 -0.153,0.506c-0.11,0.066 -0.264,0.109 -0.462,0.109l-1.758,-0c-0.263,-0 -0.439,-0.043 -0.505,-0.153c-0.066,-0.11 -0.11,-0.264 -0.11,-0.462l0,-7.866c0,-0.285 -0.088,-0.527 -0.264,-0.725c-0.197,-0.197 -0.439,-0.307 -0.769,-0.307c-0.461,-0 -0.791,0.197 -0.944,0.615c-0.088,0.242 -0.132,0.571 -0.132,1.011l-0,7.272c-0,0.264 -0.044,0.44 -0.154,0.506c-0.11,0.066 -0.264,0.109 -0.461,0.109l-1.758,-0c-0.264,-0 -0.44,-0.043 -0.505,-0.153c-0.066,-0.11 -0.11,-0.264 -0.11,-0.462Z" style="fill-rule:nonzero;"/><path d="M70.682,68.908l-0,-2.891l-9.11,9.091l-0,2.891l9.11,-9.091Z" style="fill-rule:nonzero;"/><path d="M94.202,68.908l0,-2.891l-9.111,9.091l0,2.891l9.111,-9.091Z" style="fill-rule:nonzero;"/><path d="M117.721,68.908l0,-2.891l-9.111,9.091l0,2.891l9.111,-9.091Z" style="fill-rule:nonzero;"/><path d="M141.24,68.908l0,-2.891l-9.11,9.091l0,2.891l9.11,-9.091Z" style="fill-rule:nonzero;"/><path d="M171.877,68.908l-0,-2.891l-9.11,9.091l-0,2.891l9.11,-9.091Z" style="fill-rule:nonzero;"/><path d="M195.551,68.908l-0,-2.891l-9.111,9.091l0,2.891l9.111,-9.091Z" style="fill-rule:nonzero;"/><path d="M218.916,68.908l0,-2.891l-9.111,9.091l-0,2.891l9.111,-9.091Z" style="fill-rule:nonzero;"/><path d="M242.435,68.908l-0,-2.891l-9.111,9.091l0,2.891l9.111,-9.091Z" style="fill-rule:nonzero;"/><path d="M273.072,68.908l-0,-2.891l-9.111,9.091l-0,2.891l9.111,-9.091Z" style="fill-rule:nonzero;"/><path d="M296.746,68.908l0,-2.891l-9.111,9.091l0,2.891l9.111,-9.091Z" style="fill-rule:nonzero;"/><path d="M320.11,68.908l-0,-2.891l-9.11,9.091l0,2.891l9.11,-9.091Z" style="fill-rule:nonzero;"/><path d="M343.784,68.908l-0,-2.891l-9.11,9.091l0,2.891l9.11,-9.091Z" style="fill-rule:nonzero;"/><path d="M374.421,68.908l-0,-2.891l-9.11,9.091l0,2.891l9.11,-9.091Z" style="fill-rule:nonzero;"/><path d="M397.94,68.908l0,-2.891l-9.11,9.091l-0,2.891l9.11,-9.091Z" style="fill-rule:nonzero;"/><path d="M421.305,68.908l-0,-2.891l-9.111,9.091l0,2.891l9.111,-9.091Z" style="fill-rule:nonzero;"/><path d="M444.979,68.908l0,-2.891l-9.111,9.091l0,2.891l9.111,-9.091Z" style="fill-rule:nonzero;"/></g></svg>