<?xml version="1.0" encoding="UTF-8" standalone="no"?><!DOCTYPE svg PUBLIC "-//W3C//DTD SVG 1.1//EN" "http://www.w3.org/Graphics/SVG/1.1/DTD/svg11.dtd"><svg width="100%" height="100%" viewBox="0 0 309 53" version="1.1" xmlns="http://www.w3.org/2000/svg" xmlns:xlink="http://www.w3.org/1999/xlink" xml:space="preserve" xmlns:serif="http://www.serif.com/" style="fill-rule:evenodd;clip-rule:evenodd;stroke-linejoin:round;stroke-miterlimit:2;"><g><path d="M183.333,24.813l-0,19.806" style="fill:none;stroke:#000;stroke-width:0.77px;"/><path d="M305.107,24.813l-0,19.806" style="fill:none;stroke:#000;stroke-width:0.77px;"/><path d="M307.737,24.813l-0,19.806" style="fill:none;stroke:#000;stroke-width:0.77px;"/><path d="M53.154,12.695c0.374,-0.341 0.544,-0.817 0.544,-1.26c0,-0.357 -0.119,-0.715 -0.357,-0.987c-0.817,0.238 -1.668,0.34 -2.4,0.34c-1.991,-0 -2.519,-0.748 -2.519,-2.178c0,-1.158 1.208,-4.374 2.366,-4.374c0.834,0 1.344,2.638 1.923,2.638c0.681,0 0.715,-1.311 0.715,-1.822c-0,-2.314 -1.021,-3.642 -2.264,-3.642c-1.787,-0 -4.102,3.115 -4.102,6.808c0,2.009 0.562,4.987 3.319,4.987c0.936,0 2.009,-0.221 2.775,-0.51Z" style="fill-rule:nonzero;"/><path d="M55.213,0.627c-0.018,0.715 -0.137,1.447 -0.188,2.213c0.783,-0.238 1.668,-0.579 2.553,-0.579c0.341,0 0.664,0.051 1.005,0.17c-0.358,1.328 -1.073,3.541 -1.941,6.536c0.187,0.187 0.358,0.341 0.511,0.341c0.102,-0 0.204,-0.068 0.323,-0.239c0.919,-2.74 1.464,-4.204 2.349,-7.693c0.034,-0.153 0.051,-0.306 0.051,-0.425c-0,-0.749 -0.647,-1.005 -1.481,-1.005c-1.106,-0 -2.519,0.426 -3.182,0.681Z" style="fill-rule:nonzero;"/><path d="M193.94,9.06c-0.017,1.072 -0.086,1.94 -0.205,3.268c-0.629,0.63 -0.936,1.311 -0.936,1.889c-0,0.783 0.545,1.379 1.515,1.379c2.894,0 4.613,-2.86 4.613,-4.63c0,-1.038 -0.494,-1.906 -1.549,-2.195c0.885,-1.532 1.225,-2.638 1.225,-3.387c-0,-1.022 -0.63,-1.396 -1.412,-1.396c-3.047,-0 -4.477,4.119 -4.477,4.408c0,0.511 0.341,0.749 0.766,0.749c0.153,0 0.306,-0.034 0.46,-0.085Zm1.191,2.111c0.374,-0.358 1.004,-0.596 1.532,-0.596c0.63,0 0.987,0.289 0.987,1.055c-0,0.953 -1.447,2.196 -2.604,2.196l-0.153,0c0,-0.936 0.085,-1.907 0.238,-2.655Zm0.102,-4.17c0.034,-0.205 0.834,-1.073 1.379,-1.073c0.136,0 0.34,0.068 0.34,0.29c-0,0.51 -0.8,1.838 -1.804,2.382c-0.017,-0.221 -0.034,-0.408 -0.034,-0.578c-0,-0.409 0.051,-0.715 0.119,-1.021Z" style="fill-rule:nonzero;"/><path d="M201.105,2.337c-0,-0.017 -0.034,-0.034 -0.068,-0.034c-0.238,0 -1.123,0.408 -1.123,0.545c0.017,0.272 0.017,0.68 0.017,1.208c-0,2.979 -0.239,9.378 -0.239,11.591c0.664,-0.102 4.222,-3.455 4.222,-6.791c0,-1.141 -0.494,-1.617 -1.175,-1.617c-0.493,-0 -1.089,0.255 -1.668,0.698c0.017,-1.328 0.034,-2.809 0.034,-4.17l-0,-1.43Zm-0.153,8.068c0.221,-0.307 0.698,-0.851 1.004,-0.851c0.153,0 0.307,0.136 0.307,0.527c0,0.528 -0.511,1.702 -1.396,2.332c0,-0.528 0.068,-1.566 0.085,-2.008Z" style="fill-rule:nonzero;"/><path d="M205.462,3.103c-0.017,0.715 -0.136,1.447 -0.187,2.213c0.783,-0.239 1.668,-0.579 2.553,-0.579c0.34,-0 0.664,0.051 1.004,0.17c-0.357,1.328 -1.072,3.54 -1.94,6.536c0.187,0.187 0.357,0.34 0.51,0.34c0.102,0 0.205,-0.068 0.324,-0.238c0.919,-2.74 1.463,-4.204 2.349,-7.693c0.034,-0.153 0.051,-0.307 0.051,-0.426c0,-0.749 -0.647,-1.004 -1.481,-1.004c-1.107,0 -2.519,0.426 -3.183,0.681Z" style="fill-rule:nonzero;"/><path d="M231.919,31.003c3.713,-3.869 14.699,-3.869 18.413,0" style="fill:none;stroke:#000;stroke-width:0.31px;"/><path d="M231.919,31.003c3.713,-4.642 14.699,-4.642 18.413,0c-3.714,-3.095 -14.7,-3.095 -18.413,0Z"/><path d="M231.919,31.003c3.713,-4.642 14.699,-4.642 18.413,0c-3.714,-3.095 -14.7,-3.095 -18.413,0Z" style="fill:none;stroke:#000;stroke-width:0.15px;"/><path d="M30.081,32.027l-0,-0.838l-1.257,-0l-0,-4.491l-2.495,2.216l0,2.275l-2.695,-0c0.3,-0.758 1.118,-1.796 2.455,-3.134c1.218,-1.217 1.916,-2.295 2.116,-3.193l-3.413,-0c-0.16,1.956 -1.318,4.81 -2.535,6.367l-0,0.798l4.072,0c0,0.699 -0.02,1.098 -0.06,1.198c-0.12,0.22 -0.499,0.359 -1.118,0.399l-0.04,0.559l4.91,0l-0.079,-0.579c-0.958,-0.08 -1.138,-0.179 -1.138,-0.678c0,-0.06 0,-0.18 0.02,-0.38l-0,-0.519l1.257,0Z" style="fill-rule:nonzero;"/><path d="M30.081,42.063l-0,-0.838l-1.257,0l-0,-4.491l-2.495,2.215l0,2.276l-2.695,0c0.3,-0.759 1.118,-1.797 2.455,-3.134c1.218,-1.218 1.916,-2.295 2.116,-3.194l-3.413,-0c-0.16,1.957 -1.318,4.811 -2.535,6.368l-0,0.798l4.072,-0c0,0.699 -0.02,1.098 -0.06,1.198c-0.12,0.219 -0.499,0.359 -1.118,0.399l-0.04,0.559l4.91,-0l-0.079,-0.579c-0.958,-0.08 -1.138,-0.18 -1.138,-0.679c0,-0.059 0,-0.179 0.02,-0.379l-0,-0.519l1.257,-0Z" style="fill-rule:nonzero;"/><path d="M0.13,44.619l307.917,0" style="fill:none;"/><path d="M0.13,44.619l307.917,0" style="fill:none;stroke:#000;stroke-width:0.46px;"/><path d="M0.13,39.668l307.917,0" style="fill:none;"/><path d="M0.13,39.668l307.917,0" style="fill:none;stroke:#000;stroke-width:0.46px;"/><path d="M0.13,34.716l307.917,-0" style="fill:none;"/><path d="M0.13,34.716l307.917,-0" style="fill:none;stroke:#000;stroke-width:0.46px;"/><path d="M0.13,29.765l307.917,-0" style="fill:none;"/><path d="M0.13,29.765l307.917,-0" style="fill:none;stroke:#000;stroke-width:0.46px;"/><path d="M0.13,24.813l307.917,-0" style="fill:none;"/><path d="M0.13,24.813l307.917,-0" style="fill:none;stroke:#000;stroke-width:0.46px;"/><path d="M14.202,43.962l0.753,3.664c0.039,0.218 0.059,0.416 0.059,0.614c-0,1.941 -1.98,3.565 -4.119,3.565c-0.654,-0 -1.288,-0.159 -1.882,-0.456c1.525,-0.158 2.674,-1.089 2.674,-2.456c0,-1.208 -0.99,-2.475 -2.258,-2.475c-1.446,0 -2.436,1.109 -2.436,2.554c0,2.021 1.644,3.348 3.624,3.348c2.654,-0 4.912,-1.723 4.912,-4.199c0,-0.555 -0.871,-4.476 -0.852,-4.338c2.12,-1.03 3.565,-2.852 3.565,-4.773c0,-2.634 -2.119,-4.654 -4.753,-4.654c-0.039,0 -0.317,0.02 -0.792,0.059l-0.872,-4.179c2.952,-2.495 4.298,-5.149 4.298,-8.061c-0,-2.238 -0.891,-4.614 -2.693,-7.11c-2.04,1.644 -3.209,4.932 -3.209,8.437c-0,1.248 0.159,2.456 0.436,3.605c-4.516,3.783 -6.774,7.269 -6.774,10.457c-0,3.744 3.862,6.853 8.061,6.853c0.931,-0 1.624,-0.138 2.258,-0.455Zm-0.059,-26.025c0.653,0.673 0.99,1.466 0.99,2.396c0,1.922 -1.367,4.08 -4.04,6.457c-0.139,-0.574 -0.179,-1.208 -0.179,-1.901c-0,-3.328 1.228,-6.992 2.872,-6.992c0.139,-0 0.258,0.02 0.357,0.04Zm0.416,25.213l-1.407,-6.615c0.278,-0.02 0.436,-0.04 0.496,-0.04c1.703,0 2.891,1.604 2.891,3.248c-0,1.307 -0.693,2.456 -1.98,3.407Zm-1.902,-6.536l1.426,6.813c-0.693,0.376 -1.465,0.535 -2.396,0.535c-3.209,-0 -5.982,-2.397 -5.982,-5.308c-0,-2.634 1.961,-5.348 5.665,-8.121l0.832,3.962c-2.06,0.435 -3.803,2.178 -3.803,4.139c0,1.664 1.188,2.832 2.971,3.109c-1.089,-0.673 -1.624,-1.525 -1.624,-2.535c0,-1.366 1.267,-2.376 2.911,-2.594Z" style="fill-rule:nonzero;"/><path d="M71.771,21.1l19.806,2.476l0,-2.476l-19.806,-2.476l0,2.476Z"/><path d="M150.839,27.289l19.651,-1.238l0,-2.475l-19.651,1.237l0,2.476Z"/><path d="M156.719,48.023l-0,-30.946" style="fill:none;"/><path d="M156.719,48.023l-0,-30.946" style="fill:none;stroke:#000;stroke-width:0.77px;"/><path d="M156.409,48.023l46.265,-0" style="fill:none;"/><path d="M156.409,48.023l46.265,-0" style="fill:none;stroke:#000;stroke-width:0.77px;"/><path d="M156.409,17.077l46.265,-0" style="fill:none;"/><path d="M156.409,17.077l46.265,-0" style="fill:none;stroke:#000;stroke-width:0.77px;"/><path d="M202.365,48.023l0,-30.946" style="fill:none;"/><path d="M202.365,48.023l0,-30.946" style="fill:none;stroke:#000;stroke-width:0.77px;"/><path d="M38.04,33.014l0,16.557" style="fill:none;"/><path d="M38.04,33.014l0,16.557" style="fill:none;stroke:#000;stroke-width:0.46px;"/><path d="M40.103,34.772c2.04,-0 4.555,-1.703 4.555,-3.446c0,-1.05 -0.931,-1.723 -2.258,-1.723c-2,0 -4.515,1.663 -4.515,3.446c-0,1.089 0.97,1.723 2.218,1.723Z" style="fill-rule:nonzero;"/><path d="M71.771,33.943l0,-15.164" style="fill:none;"/><path d="M71.771,33.943l0,-15.164" style="fill:none;stroke:#000;stroke-width:0.46px;"/><path d="M67.336,37.248c2.04,0 4.555,-1.704 4.555,-3.447c-0,-1.049 -0.931,-1.723 -2.258,-1.723c-2,-0 -4.515,1.664 -4.515,3.446c-0,1.09 0.97,1.724 2.218,1.724Z" style="fill-rule:nonzero;"/><path d="M59.238,38.297l2.792,-2.06c1.228,-0.891 1.704,-1.901 1.743,-2.654c-0,-1.109 -1.01,-1.941 -2.198,-1.941c-0.832,0 -1.446,0.317 -1.842,0.971l0.139,-6.239l-0.634,0l-0,11.923Zm1.842,-5.862c0.634,-0 1.109,0.455 1.109,1.069c-0,1.03 -1.367,3.011 -2.397,3.664c-0.059,-0.336 -0.099,-0.99 -0.099,-1.96c0,-0.535 0.04,-1.189 0.119,-1.941c0.297,-0.555 0.713,-0.832 1.268,-0.832Z" style="fill-rule:nonzero;"/><path d="M91.577,38.894l0,-17.639" style="fill:none;"/><path d="M91.577,38.894l0,-17.639" style="fill:none;stroke:#000;stroke-width:0.46px;"/><path d="M87.142,42.199c2.039,0 4.555,-1.703 4.555,-3.446c-0,-1.05 -0.931,-1.723 -2.258,-1.723c-2,-0 -4.516,1.663 -4.516,3.446c-0,1.089 0.971,1.723 2.219,1.723Z" style="fill-rule:nonzero;"/><path d="M109.977,31.425c-1.01,0.891 -1.96,1.327 -2.812,1.327c-0.119,0 -0.198,-0.02 -0.257,-0.06c0.217,-0.396 0.316,-0.733 0.316,-1.03c-0,-0.653 -0.376,-0.97 -1.128,-0.97c-0.654,-0 -1.367,0.436 -1.367,1.01c-0,0.97 0.614,1.446 1.842,1.446c0.673,0 1.525,-0.179 2.555,-0.515l-3.169,6.971l0.832,0l3.188,-8.179Z" style="fill-rule:nonzero;"/><path d="M131.033,43.845l0,-16.556" style="fill:none;"/><path d="M131.033,43.845l0,-16.556" style="fill:none;stroke:#000;stroke-width:0.46px;"/><path d="M126.598,47.15c2.04,0 4.555,-1.703 4.555,-3.446c-0,-1.05 -0.93,-1.723 -2.257,-1.723c-2.001,-0 -4.516,1.664 -4.516,3.446c-0,1.09 0.97,1.723 2.218,1.723Z" style="fill-rule:nonzero;"/><path d="M131.077,32.197c0.99,0 1.327,0.376 1.901,0.792c1.604,1.129 2.416,2.377 2.416,3.763l-0,0.099c-0.039,1.783 -0.059,1.922 -0.574,3.07c-0.079,0.179 -0.119,0.297 -0.119,0.377c0,0.099 0.06,0.158 0.159,0.158c0.198,0 1.208,-1.386 1.208,-3.921l-0,-0.1c-0,-0.851 -0.238,-1.663 -0.713,-2.416c-0.139,-0.237 -0.753,-1.05 -1.842,-2.416c-0.852,-1.089 -1.585,-2.436 -2.179,-4.001c-0.02,-0.059 -0.02,-0.119 -0.02,-0.178c-0,-0.06 -0,-0.119 0.02,-0.159c0.02,-0.019 -0.079,-0.019 -0.257,-0.019l-0,4.951Z" style="fill-rule:nonzero;"/><path d="M150.839,41.37l0,-16.402" style="fill:none;"/><path d="M150.839,41.37l0,-16.402" style="fill:none;stroke:#000;stroke-width:0.46px;"/><path d="M146.404,44.675c2.04,0 4.555,-1.704 4.555,-3.447c-0,-1.049 -0.931,-1.723 -2.258,-1.723c-2,0 -4.515,1.664 -4.515,3.447c0,1.089 0.97,1.723 2.218,1.723Z" style="fill-rule:nonzero;"/><path d="M170.49,38.894l0,-15.164" style="fill:none;"/><path d="M170.49,38.894l0,-15.164" style="fill:none;stroke:#000;stroke-width:0.46px;"/><path d="M166.055,42.199c2.04,0 4.555,-1.703 4.555,-3.446c0,-1.05 -0.931,-1.723 -2.258,-1.723c-2,-0 -4.515,1.663 -4.515,3.446c0,1.089 0.97,1.723 2.218,1.723Z" style="fill-rule:nonzero;"/><path d="M197.723,36.418l0,-16.556" style="fill:none;"/><path d="M197.723,36.418l0,-16.556" style="fill:none;stroke:#000;stroke-width:0.46px;"/><path d="M193.288,39.723c2.04,-0 4.555,-1.703 4.555,-3.446c0,-1.05 -0.931,-1.723 -2.258,-1.723c-2,0 -4.516,1.664 -4.516,3.446c0,1.089 0.971,1.723 2.219,1.723Z" style="fill-rule:nonzero;"/><path d="M185.19,40.773l2.792,-2.06c1.228,-0.891 1.703,-1.901 1.743,-2.654c0,-1.109 -1.01,-1.941 -2.198,-1.941c-0.832,0 -1.446,0.317 -1.842,0.971l0.138,-6.239l-0.633,0l0,11.923Zm1.841,-5.863c0.634,-0 1.11,0.456 1.11,1.07c0,1.03 -1.367,3.01 -2.397,3.664c-0.059,-0.337 -0.099,-0.99 -0.099,-1.961c0,-0.535 0.04,-1.188 0.119,-1.941c0.297,-0.554 0.713,-0.832 1.267,-0.832Z" style="fill-rule:nonzero;"/><path d="M201.127,36.265c-0.475,-0 -0.911,0.416 -0.911,0.951c0,0.456 0.455,0.891 0.911,0.891c0.535,0 0.951,-0.435 0.951,-0.891c0,-0.535 -0.416,-0.951 -0.951,-0.951Z" style="fill-rule:nonzero;"/><path d="M228.05,35.49l0,16.556" style="fill:none;"/><path d="M228.05,35.49l0,16.556" style="fill:none;stroke:#000;stroke-width:0.46px;"/><path d="M230.114,37.248c2.04,0 4.555,-1.704 4.555,-3.447c0,-1.049 -0.931,-1.723 -2.258,-1.723c-2,-0 -4.515,1.664 -4.515,3.446c-0,1.09 0.97,1.724 2.218,1.724Z" style="fill-rule:nonzero;"/><path d="M222.016,38.297l2.792,-2.06c1.228,-0.891 1.704,-1.901 1.743,-2.654c-0,-1.109 -1.01,-1.941 -2.198,-1.941c-0.832,0 -1.446,0.317 -1.842,0.971l0.138,-6.239l-0.633,0l0,11.923Zm1.842,-5.862c0.633,-0 1.109,0.455 1.109,1.069c-0,1.03 -1.367,3.011 -2.397,3.664c-0.059,-0.336 -0.099,-0.99 -0.099,-1.96c-0,-0.535 0.04,-1.189 0.119,-1.941c0.297,-0.555 0.713,-0.832 1.268,-0.832Z" style="fill-rule:nonzero;"/><path d="M228.094,51.983c0.178,0 0.277,0 0.257,-0.02c-0.02,-0.039 -0.02,-0.099 -0.02,-0.158c-0,-0.06 -0,-0.119 0.02,-0.179c0.614,-1.544 1.307,-2.931 2.179,-4c0.713,-0.872 1.525,-1.664 2.258,-2.535c0.772,-0.911 1.128,-1.981 1.128,-2.991c0,-0.535 -0.059,-1.05 -0.198,-1.585c-0.257,-1.01 -1.049,-2.951 -1.525,-2.951c-0.059,0 -0.079,0.06 -0.079,0.179c-0,0.099 0.04,0.237 0.119,0.376c0.693,1.287 1.03,2.377 1.03,3.228c0,1.208 -0.456,2.318 -1.307,3.268c-0.179,0.178 -0.753,0.654 -1.723,1.426c-1.228,0.991 -1.308,1.01 -2.139,1.01l-0,4.932Z" style="fill-rule:nonzero;"/><path d="M247.701,35.49l0,16.556" style="fill:none;"/><path d="M247.701,35.49l0,16.556" style="fill:none;stroke:#000;stroke-width:0.46px;"/><path d="M249.765,37.248c2.04,0 4.555,-1.704 4.555,-3.447c0,-1.049 -0.931,-1.723 -2.258,-1.723c-2,-0 -4.516,1.664 -4.516,3.446c0,1.09 0.971,1.724 2.219,1.724Z" style="fill-rule:nonzero;"/><path d="M280.143,38.614c-0.812,-1.307 -2.476,-2.753 -2.476,-3.803c-0,-0.693 0.614,-1.782 1.862,-3.287l-3.525,-4.833c-0.218,0.04 -0.337,0.119 -0.337,0.258c-0,-0.02 1.446,1.723 1.446,2.772c0,1.03 -0.674,2.159 -2.04,3.407c1.544,1.901 2.416,2.812 3.03,3.763c-0.416,-0.218 -0.812,-0.337 -1.188,-0.337c-1.209,0 -1.981,1.149 -1.981,2.318c-0,1.426 2.377,3.149 2.832,3.149c0.079,-0 0.139,-0.04 0.159,-0.119c-0.832,-0.812 -1.248,-1.565 -1.248,-2.258c0,-0.911 0.772,-1.426 1.782,-1.426c0.535,0 1.11,0.139 1.684,0.396Z" style="fill-rule:nonzero;"/></g></svg>