<svg clip-rule="evenodd" fill-rule="evenodd" stroke-linejoin="round" stroke-miterlimit="2" viewBox="0 0 473 54" xmlns="http://www.w3.org/2000/svg"><path d="m42.936 26.135v19.881" fill="none" stroke="#000" stroke-width="2.49"/><path d="m46.353 26.135v19.881" fill="none" stroke="#000" stroke-width=".78"/><path d="m49.615 32.66c-.477 0-.915.418-.915.954 0 .458.458.895.915.895.537 0 .954-.437.954-.895 0-.536-.417-.954-.954-.954z" fill-rule="nonzero"/><path d="m49.615 37.631c-.477 0-.915.417-.915.954 0 .457.458.895.915.895.537 0 .954-.438.954-.895 0-.537-.417-.954-.954-.954z" fill-rule="nonzero"/><path d="m160.051 26.135v19.881" fill="none" stroke="#000" stroke-width=".78"/><path d="m260.391 26.135v19.881" fill="none" stroke="#000" stroke-width=".78"/><path d="m360.576 26.135v19.881" fill="none" stroke="#000" stroke-width=".78"/><path d="m467.285 26.135v19.881" fill="none" stroke="#000" stroke-width=".78"/><path d="m470.702 26.135v19.881" fill="none" stroke="#000" stroke-width="2.49"/><path d="m464.023 32.66c-.477 0-.915.418-.915.954 0 .458.458.895.915.895.537 0 .954-.437.954-.895 0-.536-.417-.954-.954-.954z" fill-rule="nonzero"/><path d="m464.023 37.631c-.477 0-.915.417-.915.954 0 .457.458.895.915.895.537 0 .954-.438.954-.895 0-.537-.417-.954-.954-.954z" fill-rule="nonzero"/><path d="m70.845 12.832c.376-.342.547-.82.547-1.264 0-.359-.12-.718-.359-.991-.82.239-1.675.341-2.409.341-1.999 0-2.529-.752-2.529-2.187 0-1.162 1.213-4.391 2.375-4.391.837 0 1.35 2.649 1.931 2.649.683 0 .717-1.316.717-1.829 0-2.323-1.025-3.656-2.272-3.656-1.794 0-4.118 3.127-4.118 6.834 0 2.016.564 5.006 3.332 5.006.94 0 2.016-.222 2.785-.512z" fill-rule="nonzero"/><path d="m72.911.718c-.017.718-.136 1.452-.187 2.221.785-.239 1.674-.581 2.562-.581.342 0 .667.052 1.008.171-.358 1.333-1.076 3.554-1.947 6.561.188.188.359.342.512.342.103 0 .205-.069.325-.239.923-2.751 1.469-4.221 2.358-7.723.034-.154.051-.308.051-.427 0-.752-.649-1.008-1.486-1.008-1.111 0-2.529.427-3.196.683z" fill-rule="nonzero"/><path d="m166.177 10.935c-.051.052-.085.12-.085.205 0 .462.854 1.367 1.333 1.367.324 0 5.279-5.484 8.372-8.714.034-.034.051-.068.051-.102 0-.376-1.008-1.367-1.35-1.367-.051 0-.085.017-.12.051-2.511 2.102-5.945 6.032-8.201 8.56zm6.749-.666c-.051.068-.068.137-.068.188 0 .444.803 1.145 1.315 1.145.41 0 1.863-1.965 1.863-2.085 0-.41-.769-1.332-1.248-1.332-.683 0-1.366 1.281-1.862 2.084zm-6.014-5.758c-.034.051-.051.103-.051.171 0 .393.734 1.145 1.093 1.145.342-.342.649-.667.906-.957.478-.479.939-1.025.939-1.213 0-.444-.649-1.196-1.059-1.196-.53 0-1.435 1.708-1.828 2.05z" fill-rule="nonzero"/><path d="m266.845 6.698c-.017 1.076-.085 1.948-.205 3.281-.632.632-.94 1.315-.94 1.896 0 .786.547 1.384 1.521 1.384 2.905 0 4.63-2.87 4.63-4.647 0-1.043-.495-1.914-1.555-2.204.889-1.538 1.231-2.649 1.231-3.4 0-1.026-.633-1.401-1.418-1.401-3.059 0-4.494 4.134-4.494 4.425 0 .512.342.752.769.752.154 0 .307-.035.461-.086zm1.196 2.119c.376-.359 1.008-.598 1.538-.598.632 0 .991.29.991 1.059 0 .957-1.452 2.204-2.614 2.204h-.154c0-.94.085-1.914.239-2.665zm.103-4.186c.034-.205.837-1.077 1.384-1.077.136 0 .341.069.341.291 0 .512-.803 1.845-1.811 2.392-.017-.222-.034-.41-.034-.581 0-.41.051-.718.12-1.025z" fill-rule="nonzero"/><path d="m274.038-.051c0-.017-.034-.034-.068-.034-.239 0-1.128.41-1.128.547.017.273.017.683.017 1.213 0 2.99-.239 9.414-.239 11.635.666-.102 4.237-3.468 4.237-6.817 0-1.145-.495-1.623-1.179-1.623-.495 0-1.093.256-1.674.7.017-1.332.034-2.819.034-4.186v-1.435zm-.154 8.099c.223-.308.701-.854 1.008-.854.154 0 .308.136.308.529 0 .53-.513 1.709-1.401 2.341 0-.53.068-1.572.085-2.016z" fill-rule="nonzero"/><path d="m278.412.718c-.017.718-.137 1.452-.188 2.221.786-.239 1.674-.581 2.563-.581.341 0 .666.052 1.008.171-.359 1.333-1.077 3.554-1.948 6.561.188.188.359.342.513.342.102 0 .205-.069.324-.239.923-2.751 1.47-4.221 2.358-7.723.034-.154.051-.308.051-.427 0-.752-.649-1.008-1.486-1.008-1.111 0-2.529.427-3.195.683z" fill-rule="nonzero"/><path d="m370.896 11.401c-.051.052-.085.12-.085.205 0 .462.854 1.367 1.332 1.367.325 0 5.28-5.484 8.372-8.714.034-.034.052-.068.052-.102 0-.376-1.008-1.367-1.35-1.367-.051 0-.086.017-.12.051-2.511 2.102-5.946 6.032-8.201 8.56zm6.749-.666c-.051.068-.068.137-.068.188 0 .444.803 1.145 1.315 1.145.41 0 1.863-1.965 1.863-2.085 0-.41-.769-1.332-1.248-1.332-.683 0-1.367 1.281-1.862 2.084zm-6.014-5.758c-.034.051-.052.103-.052.171 0 .393.735 1.145 1.094 1.145.342-.342.649-.667.905-.957.479-.479.94-1.025.94-1.213 0-.444-.649-1.196-1.059-1.196-.53 0-1.435 1.708-1.828 2.05z" fill-rule="nonzero"/><path d="m35.879 33.326v-.842h-1.262v-4.508l-2.505 2.224v2.284h-2.705c.301-.761 1.122-1.803 2.465-3.145 1.222-1.223 1.923-2.305 2.124-3.206h-3.427c-.16 1.963-1.322 4.829-2.544 6.392v.801h4.087c0 .701-.02 1.102-.06 1.202-.12.221-.501.361-1.122.401l-.04.561h4.929l-.08-.581c-.962-.08-1.142-.18-1.142-.681 0-.06 0-.181.02-.381v-.521z" fill-rule="nonzero"/><path d="m35.879 43.4v-.841h-1.262v-4.509l-2.505 2.225v2.284h-2.705c.301-.762 1.122-1.804 2.465-3.146 1.222-1.222 1.923-2.304 2.124-3.206h-3.427c-.16 1.964-1.322 4.829-2.544 6.392v.801h4.087c0 .702-.02 1.102-.06 1.203-.12.22-.501.36-1.122.4l-.04.561h4.929l-.08-.581c-.962-.08-1.142-.18-1.142-.681 0-.06 0-.18.02-.381v-.521z" fill-rule="nonzero"/><path d="m.066 46.016h471.878" fill="none" stroke="#000" stroke-width=".47"/><path d="m.066 41.046h471.878" fill="none" stroke="#000" stroke-width=".47"/><path d="m.066 36.075h471.878" fill="none" stroke="#000" stroke-width=".47"/><path d="m.066 31.105h471.878" fill="none" stroke="#000" stroke-width=".47"/><path d="m.066 26.135h471.878" fill="none" stroke="#000" stroke-width=".47"/><g fill-rule="nonzero"><path d="m14.192 45.356.756 3.678c.039.219.059.418.059.617 0 1.948-1.988 3.578-4.135 3.578-.656 0-1.292-.159-1.889-.457 1.531-.159 2.684-1.093 2.684-2.465 0-1.213-.994-2.486-2.266-2.486-1.452 0-2.446 1.114-2.446 2.565 0 2.028 1.65 3.36 3.638 3.36 2.665 0 4.931-1.729 4.931-4.215 0-.556-.875-4.493-.855-4.354 2.128-1.034 3.579-2.863 3.579-4.791 0-2.644-2.127-4.672-4.772-4.672-.039 0-.318.019-.795.059l-.875-4.195c2.963-2.505 4.315-5.169 4.315-8.092 0-2.246-.895-4.632-2.704-7.137-2.048 1.65-3.221 4.95-3.221 8.469 0 1.253.159 2.466.437 3.619-4.533 3.797-6.799 7.296-6.799 10.497 0 3.758 3.877 6.879 8.092 6.879.934 0 1.63-.139 2.266-.457zm-.06-26.124c.657.676.995 1.471.995 2.405 0 1.929-1.372 4.096-4.056 6.482-.14-.577-.179-1.213-.179-1.909 0-3.34 1.232-7.018 2.883-7.018.139 0 .258.02.357.04zm.418 25.309-1.412-6.64c.279-.02.438-.04.497-.04 1.71 0 2.903 1.61 2.903 3.26 0 1.313-.696 2.466-1.988 3.42zm-1.909-6.561 1.432 6.839c-.696.378-1.471.537-2.406.537-3.221 0-6.004-2.406-6.004-5.328 0-2.644 1.968-5.368 5.686-8.152l.835 3.977c-2.068.437-3.817 2.187-3.817 4.155 0 1.67 1.193 2.843 2.982 3.121-1.093-.676-1.63-1.53-1.63-2.544 0-1.372 1.272-2.386 2.922-2.605z"/><path d="m76.468 32.936v-2.903l-9.146 9.126v2.903z"/><path d="m99.766 32.936v-2.903l-9.145 9.126v2.903z"/><path d="m123.065 32.936v-2.903l-9.145 9.126v2.903z"/><path d="m146.364 32.936v-2.903l-9.146 9.126v2.903z"/><path d="m176.652 32.936v-2.903l-9.145 9.126v2.903z"/><path d="m200.107 32.936v-2.903l-9.146 9.126v2.903z"/><path d="m223.25 32.936v-2.903l-9.146 9.126v2.903z"/><path d="m246.549 32.936v-2.903l-9.146 9.126v2.903z"/><path d="m276.993 32.936v-2.903l-9.146 9.126v2.903z"/><path d="m300.291 32.936v-2.903l-9.145 9.126v2.903z"/><path d="m323.435 32.936v-2.903l-9.146 9.126v2.903z"/><path d="m346.734 32.936v-2.903l-9.146 9.126v2.903z"/><path d="m377.177 32.936v-2.903l-9.145 9.126v2.903z"/><path d="m400.476 32.936v-2.903l-9.145 9.126v2.903z"/><path d="m423.62 32.936v-2.903l-9.146 9.126v2.903z"/><path d="m447.074 32.936v-2.903l-9.146 9.126v2.903z"/></g></svg>