<?xml version="1.0" encoding="UTF-8" standalone="no"?><!DOCTYPE svg PUBLIC "-//W3C//DTD SVG 1.1//EN" "http://www.w3.org/Graphics/SVG/1.1/DTD/svg11.dtd"><svg width="100%" height="100%" viewBox="0 0 471 340" version="1.1" xmlns="http://www.w3.org/2000/svg" xmlns:xlink="http://www.w3.org/1999/xlink" xml:space="preserve" xmlns:serif="http://www.serif.com/" style="fill-rule:evenodd;clip-rule:evenodd;stroke-linejoin:round;stroke-miterlimit:2;"><g><path d="M206.71,74.411l0,19.806" style="fill:none;stroke:#000;stroke-width:0.77px;"/><path d="M294.443,74.411l-0,19.806" style="fill:none;stroke:#000;stroke-width:0.77px;"/><path d="M382.176,74.411l-0,19.806" style="fill:none;stroke:#000;stroke-width:0.77px;"/><path d="M469.909,74.411l-0,19.806" style="fill:none;stroke:#000;stroke-width:0.77px;"/><path d="M46.205,50.424c-0.221,2.519 -0.442,6.638 -0.442,8.97c0,1.497 0.136,2.008 0.63,2.008c0.834,0 0.561,-2.962 0.732,-3.608c2.706,-1.243 3.233,-0.46 3.233,-2.332l0,-0.187c0,-0.528 -0.017,-0.783 -0.357,-0.783c-0.647,0 -2.621,0.715 -2.962,0.766l0,-0.222c0,-0.663 0.103,-1.685 0.12,-2.28c0.919,-0.46 2.655,-0.545 3.455,-0.715c0.442,-0.068 0.476,-1.09 0.476,-1.838c0,-0.392 -0.102,-0.664 -0.834,-0.664c-1.327,0 -4.017,0.561 -4.051,0.885Z" style="fill-rule:nonzero;"/><path d="M52.605,48.807c-0.017,0.715 -0.136,1.447 -0.187,2.213c0.783,-0.239 1.668,-0.579 2.553,-0.579c0.34,0 0.663,0.051 1.004,0.17c-0.358,1.328 -1.072,3.54 -1.94,6.536c0.187,0.187 0.357,0.34 0.51,0.34c0.102,-0 0.204,-0.068 0.324,-0.238c0.919,-2.74 1.463,-4.204 2.348,-7.693c0.034,-0.153 0.051,-0.307 0.051,-0.426c0,-0.749 -0.646,-1.004 -1.48,-1.004c-1.107,0 -2.519,0.426 -3.183,0.681Z" style="fill-rule:nonzero;"/><path d="M133.213,153.634l-0,19.806" style="fill:none;stroke:#000;stroke-width:0.77px;"/><path d="M245.393,153.634l0,19.806" style="fill:none;stroke:#000;stroke-width:0.77px;"/><path d="M357.729,153.634l0,19.806" style="fill:none;stroke:#000;stroke-width:0.77px;"/><path d="M469.909,153.634l-0,19.806" style="fill:none;stroke:#000;stroke-width:0.77px;"/><path d="M42.78,129.654c-0.017,1.073 -0.085,1.941 -0.205,3.268c-0.629,0.63 -0.936,1.311 -0.936,1.889c-0,0.783 0.545,1.379 1.515,1.379c2.894,0 4.613,-2.859 4.613,-4.629c-0,-1.039 -0.494,-1.907 -1.549,-2.196c0.885,-1.532 1.225,-2.638 1.225,-3.387c0,-1.021 -0.629,-1.396 -1.412,-1.396c-3.047,0 -4.477,4.119 -4.477,4.408c0,0.511 0.341,0.749 0.766,0.749c0.153,-0 0.306,-0.034 0.46,-0.085Zm1.191,2.111c0.375,-0.358 1.004,-0.596 1.532,-0.596c0.63,0 0.987,0.289 0.987,1.055c0,0.954 -1.447,2.196 -2.604,2.196l-0.153,-0c0,-0.936 0.085,-1.906 0.238,-2.655Zm0.102,-4.17c0.034,-0.204 0.834,-1.072 1.379,-1.072c0.136,-0 0.34,0.068 0.34,0.289c-0,0.51 -0.8,1.838 -1.804,2.383c-0.017,-0.222 -0.034,-0.409 -0.034,-0.579c-0,-0.408 0.051,-0.715 0.119,-1.021Z" style="fill-rule:nonzero;"/><path d="M49.945,122.931c-0,-0.017 -0.034,-0.034 -0.068,-0.034c-0.238,0 -1.123,0.409 -1.123,0.545c0.017,0.272 0.017,0.681 0.017,1.208c-0,2.979 -0.239,9.379 -0.239,11.591c0.664,-0.102 4.222,-3.455 4.222,-6.791c0,-1.14 -0.494,-1.617 -1.175,-1.617c-0.493,-0 -1.089,0.255 -1.668,0.698c0.017,-1.328 0.034,-2.808 0.034,-4.17l-0,-1.43Zm-0.153,8.068c0.221,-0.306 0.698,-0.851 1.004,-0.851c0.153,-0 0.307,0.136 0.307,0.528c0,0.527 -0.511,1.702 -1.396,2.331c0,-0.527 0.068,-1.566 0.085,-2.008Z" style="fill-rule:nonzero;"/><path d="M54.302,123.697c-0.017,0.715 -0.136,1.447 -0.187,2.213c0.783,-0.239 1.668,-0.579 2.553,-0.579c0.34,-0 0.664,0.051 1.004,0.17c-0.357,1.328 -1.072,3.541 -1.94,6.536c0.187,0.187 0.357,0.341 0.51,0.341c0.103,0 0.205,-0.069 0.324,-0.239c0.919,-2.74 1.464,-4.204 2.349,-7.693c0.034,-0.153 0.051,-0.306 0.051,-0.426c-0,-0.748 -0.647,-1.004 -1.481,-1.004c-1.106,0 -2.519,0.426 -3.183,0.681Z" style="fill-rule:nonzero;"/><path d="M253.701,128.409c-0.221,2.519 -0.443,6.638 -0.443,8.969c-0,1.498 0.137,2.009 0.63,2.009c0.834,-0 0.562,-2.962 0.732,-3.608c2.706,-1.243 3.234,-0.46 3.234,-2.332l0,-0.187c0,-0.528 -0.017,-0.783 -0.358,-0.783c-0.646,0 -2.621,0.714 -2.961,0.765l0,-0.221c0,-0.664 0.102,-1.685 0.119,-2.281c0.919,-0.459 2.655,-0.544 3.455,-0.714c0.443,-0.068 0.477,-1.09 0.477,-1.839c-0,-0.391 -0.102,-0.663 -0.834,-0.663c-1.328,0 -4.017,0.561 -4.051,0.885Z" style="fill-rule:nonzero;"/><path d="M260.1,126.792c-0.017,0.715 -0.136,1.446 -0.187,2.212c0.783,-0.238 1.668,-0.578 2.553,-0.578c0.341,-0 0.664,0.051 1.004,0.17c-0.357,1.327 -1.072,3.54 -1.94,6.536c0.187,0.187 0.357,0.34 0.511,0.34c0.102,0 0.204,-0.068 0.323,-0.238c0.919,-2.74 1.464,-4.204 2.349,-7.693c0.034,-0.154 0.051,-0.307 0.051,-0.426c0,-0.749 -0.647,-1.004 -1.481,-1.004c-1.106,-0 -2.519,0.425 -3.183,0.681Z" style="fill-rule:nonzero;"/><path d="M133.213,232.857l-0,19.805" style="fill:none;stroke:#000;stroke-width:0.77px;"/><path d="M245.393,232.857l0,19.805" style="fill:none;stroke:#000;stroke-width:0.77px;"/><path d="M357.729,232.857l0,19.805" style="fill:none;stroke:#000;stroke-width:0.77px;"/><path d="M469.909,232.857l-0,19.805" style="fill:none;stroke:#000;stroke-width:0.77px;"/><path d="M32.123,219.629c0.375,-0.34 0.545,-0.817 0.545,-1.259c-0,-0.358 -0.119,-0.715 -0.358,-0.987c-0.816,0.238 -1.668,0.34 -2.399,0.34c-1.992,-0 -2.519,-0.749 -2.519,-2.179c0,-1.157 1.208,-4.374 2.365,-4.374c0.834,-0 1.345,2.638 1.924,2.638c0.681,-0 0.715,-1.31 0.715,-1.821c-0,-2.315 -1.022,-3.642 -2.264,-3.642c-1.787,0 -4.102,3.114 -4.102,6.808c0,2.008 0.562,4.987 3.319,4.987c0.936,-0 2.008,-0.221 2.774,-0.511Z" style="fill-rule:nonzero;"/><path d="M34.182,207.562c-0.017,0.715 -0.136,1.447 -0.187,2.212c0.783,-0.238 1.668,-0.578 2.553,-0.578c0.34,-0 0.664,0.051 1.004,0.17c-0.357,1.328 -1.072,3.54 -1.94,6.536c0.187,0.187 0.357,0.34 0.51,0.34c0.103,-0 0.205,-0.068 0.324,-0.238c0.919,-2.74 1.464,-4.204 2.349,-7.693c0.034,-0.154 0.051,-0.307 0.051,-0.426c0,-0.749 -0.647,-1.004 -1.481,-1.004c-1.106,-0 -2.519,0.425 -3.183,0.681Z" style="fill-rule:nonzero;"/><path d="M137.94,213.519c-0.017,1.072 -0.085,1.94 -0.204,3.268c-0.63,0.63 -0.937,1.31 -0.937,1.889c-0,0.783 0.545,1.379 1.515,1.379c2.894,0 4.613,-2.86 4.613,-4.63c0,-1.038 -0.494,-1.906 -1.549,-2.195c0.885,-1.532 1.225,-2.639 1.225,-3.387c-0,-1.022 -0.629,-1.396 -1.412,-1.396c-3.047,0 -4.477,4.119 -4.477,4.408c0,0.511 0.341,0.749 0.766,0.749c0.153,-0 0.307,-0.034 0.46,-0.085Zm1.191,2.111c0.375,-0.358 1.004,-0.596 1.532,-0.596c0.63,-0 0.987,0.289 0.987,1.055c-0,0.953 -1.447,2.196 -2.604,2.196l-0.153,0c0,-0.936 0.085,-1.907 0.238,-2.655Zm0.102,-4.171c0.034,-0.204 0.834,-1.072 1.379,-1.072c0.136,-0 0.34,0.068 0.34,0.29c-0,0.51 -0.8,1.838 -1.804,2.382c-0.017,-0.221 -0.034,-0.408 -0.034,-0.578c-0,-0.409 0.051,-0.715 0.119,-1.022Z" style="fill-rule:nonzero;"/><path d="M145.105,206.796c-0,-0.017 -0.034,-0.034 -0.068,-0.034c-0.238,-0 -1.123,0.408 -1.123,0.544c0.017,0.273 0.017,0.681 0.017,1.209c-0,2.979 -0.238,9.378 -0.238,11.591c0.663,-0.102 4.221,-3.455 4.221,-6.791c0,-1.141 -0.494,-1.617 -1.175,-1.617c-0.493,-0 -1.089,0.255 -1.668,0.698c0.017,-1.328 0.034,-2.809 0.034,-4.17l-0,-1.43Zm-0.153,8.068c0.221,-0.307 0.698,-0.851 1.004,-0.851c0.154,0 0.307,0.136 0.307,0.527c0,0.528 -0.511,1.702 -1.396,2.332c0,-0.528 0.068,-1.566 0.085,-2.008Z" style="fill-rule:nonzero;"/><path d="M149.462,207.562c-0.017,0.715 -0.136,1.447 -0.187,2.212c0.783,-0.238 1.668,-0.578 2.553,-0.578c0.34,-0 0.664,0.051 1.004,0.17c-0.357,1.328 -1.072,3.54 -1.94,6.536c0.187,0.187 0.357,0.34 0.51,0.34c0.103,-0 0.205,-0.068 0.324,-0.238c0.919,-2.74 1.464,-4.204 2.349,-7.693c0.034,-0.154 0.051,-0.307 0.051,-0.426c0,-0.749 -0.647,-1.004 -1.481,-1.004c-1.106,-0 -2.519,0.425 -3.183,0.681Z" style="fill-rule:nonzero;"/><path d="M256.639,219.629c0.375,-0.34 0.545,-0.817 0.545,-1.259c-0,-0.358 -0.119,-0.715 -0.358,-0.987c-0.817,0.238 -1.668,0.34 -2.399,0.34c-1.992,-0 -2.519,-0.749 -2.519,-2.179c0,-1.157 1.208,-4.374 2.365,-4.374c0.834,-0 1.345,2.638 1.924,2.638c0.681,-0 0.715,-1.31 0.715,-1.821c-0,-2.315 -1.022,-3.642 -2.264,-3.642c-1.787,0 -4.102,3.114 -4.102,6.808c0,2.008 0.562,4.987 3.319,4.987c0.936,-0 2.008,-0.221 2.774,-0.511Z" style="fill-rule:nonzero;"/><path d="M258.698,207.562c-0.017,0.715 -0.136,1.447 -0.187,2.212c0.783,-0.238 1.668,-0.578 2.553,-0.578c0.34,-0 0.664,0.051 1.004,0.17c-0.357,1.328 -1.072,3.54 -1.94,6.536c0.187,0.187 0.357,0.34 0.51,0.34c0.102,-0 0.205,-0.068 0.324,-0.238c0.919,-2.74 1.464,-4.204 2.349,-7.693c0.034,-0.154 0.051,-0.307 0.051,-0.426c-0,-0.749 -0.647,-1.004 -1.481,-1.004c-1.106,-0 -2.519,0.425 -3.183,0.681Z" style="fill-rule:nonzero;"/><path d="M362.456,213.519c-0.017,1.072 -0.085,1.94 -0.205,3.268c-0.629,0.63 -0.936,1.31 -0.936,1.889c0,0.783 0.545,1.379 1.515,1.379c2.894,0 4.613,-2.86 4.613,-4.63c-0,-1.038 -0.494,-1.906 -1.549,-2.195c0.885,-1.532 1.225,-2.639 1.225,-3.387c-0,-1.022 -0.629,-1.396 -1.412,-1.396c-3.047,0 -4.477,4.119 -4.477,4.408c0,0.511 0.341,0.749 0.766,0.749c0.153,-0 0.307,-0.034 0.46,-0.085Zm1.191,2.111c0.375,-0.358 1.004,-0.596 1.532,-0.596c0.63,-0 0.987,0.289 0.987,1.055c-0,0.953 -1.447,2.196 -2.604,2.196l-0.153,0c-0,-0.936 0.085,-1.907 0.238,-2.655Zm0.102,-4.171c0.034,-0.204 0.834,-1.072 1.379,-1.072c0.136,-0 0.34,0.068 0.34,0.29c-0,0.51 -0.8,1.838 -1.804,2.382c-0.017,-0.221 -0.034,-0.408 -0.034,-0.578c0,-0.409 0.051,-0.715 0.119,-1.022Z" style="fill-rule:nonzero;"/><path d="M369.621,206.796c0,-0.017 -0.034,-0.034 -0.068,-0.034c-0.238,-0 -1.123,0.408 -1.123,0.544c0.017,0.273 0.017,0.681 0.017,1.209c-0,2.979 -0.238,9.378 -0.238,11.591c0.663,-0.102 4.221,-3.455 4.221,-6.791c-0,-1.141 -0.494,-1.617 -1.175,-1.617c-0.493,-0 -1.089,0.255 -1.668,0.698c0.017,-1.328 0.034,-2.809 0.034,-4.17l0,-1.43Zm-0.153,8.068c0.221,-0.307 0.698,-0.851 1.004,-0.851c0.153,0 0.307,0.136 0.307,0.527c-0,0.528 -0.511,1.702 -1.396,2.332c-0,-0.528 0.068,-1.566 0.085,-2.008Z" style="fill-rule:nonzero;"/><path d="M373.978,207.562c-0.017,0.715 -0.136,1.447 -0.187,2.212c0.783,-0.238 1.668,-0.578 2.553,-0.578c0.34,-0 0.664,0.051 1.004,0.17c-0.357,1.328 -1.072,3.54 -1.94,6.536c0.187,0.187 0.357,0.34 0.51,0.34c0.103,-0 0.205,-0.068 0.324,-0.238c0.919,-2.74 1.464,-4.204 2.349,-7.693c0.034,-0.154 0.051,-0.307 0.051,-0.426c-0,-0.749 -0.647,-1.004 -1.481,-1.004c-1.106,-0 -2.519,0.425 -3.183,0.681Z" style="fill-rule:nonzero;"/><path d="M125.012,312.079l0,19.806" style="fill:none;stroke:#000;stroke-width:0.77px;"/><path d="M229.146,312.079l-0,19.806" style="fill:none;stroke:#000;stroke-width:0.77px;"/><path d="M325.854,312.079l0,19.806" style="fill:none;stroke:#000;stroke-width:0.77px;"/><path d="M465.577,312.079l-0,19.806" style="fill:none;stroke:#000;stroke-width:0.77px;"/><path d="M468.981,312.079l-0,19.806" style="fill:none;stroke:#000;stroke-width:2.48px;"/><path d="M32.123,298.852c0.375,-0.34 0.545,-0.817 0.545,-1.259c-0,-0.358 -0.119,-0.715 -0.358,-0.988c-0.816,0.239 -1.668,0.341 -2.399,0.341c-1.992,-0 -2.519,-0.749 -2.519,-2.179c0,-1.157 1.208,-4.374 2.365,-4.374c0.834,0 1.345,2.638 1.924,2.638c0.681,-0 0.715,-1.311 0.715,-1.821c-0,-2.315 -1.022,-3.643 -2.264,-3.643c-1.787,0 -4.102,3.115 -4.102,6.809c0,2.008 0.562,4.987 3.319,4.987c0.936,-0 2.008,-0.222 2.774,-0.511Z" style="fill-rule:nonzero;"/><path d="M34.182,286.784c-0.017,0.715 -0.136,1.447 -0.187,2.213c0.783,-0.238 1.668,-0.579 2.553,-0.579c0.34,-0 0.664,0.052 1.004,0.171c-0.357,1.327 -1.072,3.54 -1.94,6.536c0.187,0.187 0.357,0.34 0.51,0.34c0.103,0 0.205,-0.068 0.324,-0.238c0.919,-2.741 1.464,-4.204 2.349,-7.694c0.034,-0.153 0.051,-0.306 0.051,-0.425c0,-0.749 -0.647,-1.004 -1.481,-1.004c-1.106,0 -2.519,0.425 -3.183,0.68Z" style="fill-rule:nonzero;"/><path d="M129.739,292.742c-0.017,1.072 -0.085,1.94 -0.204,3.268c-0.63,0.629 -0.936,1.31 -0.936,1.889c-0,0.783 0.544,1.379 1.514,1.379c2.894,-0 4.613,-2.86 4.613,-4.63c-0,-1.038 -0.494,-1.906 -1.549,-2.196c0.885,-1.532 1.226,-2.638 1.226,-3.387c-0,-1.021 -0.63,-1.395 -1.413,-1.395c-3.047,-0 -4.476,4.119 -4.476,4.408c0,0.51 0.34,0.749 0.765,0.749c0.154,-0 0.307,-0.034 0.46,-0.085Zm1.191,2.11c0.375,-0.357 1.005,-0.596 1.532,-0.596c0.63,0 0.987,0.29 0.987,1.056c0,0.953 -1.446,2.195 -2.604,2.195l-0.153,-0c0,-0.936 0.085,-1.906 0.238,-2.655Zm0.103,-4.17c0.034,-0.204 0.834,-1.072 1.378,-1.072c0.136,0 0.341,0.068 0.341,0.289c-0,0.511 -0.8,1.838 -1.805,2.383c-0.017,-0.221 -0.034,-0.408 -0.034,-0.579c-0,-0.408 0.051,-0.714 0.12,-1.021Z" style="fill-rule:nonzero;"/><path d="M136.905,286.019c-0,-0.017 -0.035,-0.034 -0.069,-0.034c-0.238,0 -1.123,0.408 -1.123,0.544c0.017,0.273 0.017,0.681 0.017,1.209c-0,2.978 -0.238,9.378 -0.238,11.591c0.664,-0.103 4.221,-3.456 4.221,-6.792c-0,-1.14 -0.494,-1.617 -1.175,-1.617c-0.493,-0 -1.089,0.256 -1.668,0.698c0.017,-1.327 0.035,-2.808 0.035,-4.17l-0,-1.429Zm-0.154,8.067c0.222,-0.306 0.698,-0.851 1.005,-0.851c0.153,0 0.306,0.136 0.306,0.528c-0,0.528 -0.511,1.702 -1.396,2.332c0,-0.528 0.068,-1.566 0.085,-2.009Z" style="fill-rule:nonzero;"/><path d="M141.261,286.784c-0.017,0.715 -0.136,1.447 -0.187,2.213c0.783,-0.238 1.668,-0.579 2.553,-0.579c0.341,-0 0.664,0.052 1.004,0.171c-0.357,1.327 -1.072,3.54 -1.94,6.536c0.187,0.187 0.358,0.34 0.511,0.34c0.102,0 0.204,-0.068 0.323,-0.238c0.919,-2.741 1.464,-4.204 2.349,-7.694c0.034,-0.153 0.051,-0.306 0.051,-0.425c0,-0.749 -0.647,-1.004 -1.481,-1.004c-1.106,0 -2.519,0.425 -3.183,0.68Z" style="fill-rule:nonzero;"/><path d="M250.451,288.401c-0.221,2.519 -0.442,6.638 -0.442,8.97c0,1.498 0.136,2.009 0.63,2.009c0.834,0 0.561,-2.962 0.732,-3.609c2.706,-1.242 3.233,-0.459 3.233,-2.331l0,-0.188c0,-0.527 -0.017,-0.783 -0.357,-0.783c-0.647,0 -2.621,0.715 -2.962,0.766l0,-0.221c0,-0.664 0.103,-1.685 0.12,-2.281c0.919,-0.459 2.655,-0.544 3.455,-0.715c0.442,-0.068 0.476,-1.089 0.476,-1.838c-0,-0.391 -0.102,-0.664 -0.834,-0.664c-1.327,-0 -4.016,0.562 -4.051,0.885Z" style="fill-rule:nonzero;"/><path d="M256.851,286.784c-0.017,0.715 -0.136,1.447 -0.187,2.213c0.783,-0.238 1.668,-0.579 2.553,-0.579c0.34,-0 0.664,0.052 1.004,0.171c-0.357,1.327 -1.072,3.54 -1.94,6.536c0.187,0.187 0.357,0.34 0.51,0.34c0.102,0 0.204,-0.068 0.324,-0.238c0.919,-2.741 1.463,-4.204 2.348,-7.694c0.035,-0.153 0.052,-0.306 0.052,-0.425c0,-0.749 -0.647,-1.004 -1.481,-1.004c-1.107,0 -2.519,0.425 -3.183,0.68Z" style="fill-rule:nonzero;"/><path d="M30.094,81.6l-0,-0.839l-1.257,-0l-0,-4.491l-2.495,2.216l-0,2.275l-2.695,-0c0.3,-0.758 1.118,-1.796 2.455,-3.133c1.218,-1.218 1.917,-2.296 2.116,-3.194l-3.413,-0c-0.16,1.956 -1.317,4.81 -2.535,6.367l0,0.799l4.072,0c-0,0.698 -0.02,1.097 -0.06,1.197c-0.12,0.22 -0.499,0.36 -1.118,0.4l-0.04,0.558l4.911,0l-0.08,-0.578c-0.958,-0.08 -1.138,-0.18 -1.138,-0.679c-0,-0.06 -0,-0.18 0.02,-0.379l-0,-0.519l1.257,0Z" style="fill-rule:nonzero;"/><path d="M30.094,91.635l-0,-0.838l-1.257,-0l-0,-4.491l-2.495,2.216l-0,2.275l-2.695,-0c0.3,-0.758 1.118,-1.796 2.455,-3.134c1.218,-1.217 1.917,-2.295 2.116,-3.193l-3.413,0c-0.16,1.956 -1.317,4.81 -2.535,6.367l0,0.798l4.072,-0c-0,0.699 -0.02,1.098 -0.06,1.198c-0.12,0.22 -0.499,0.359 -1.118,0.399l-0.04,0.559l4.911,0l-0.08,-0.579c-0.958,-0.079 -1.138,-0.179 -1.138,-0.678c-0,-0.06 -0,-0.18 0.02,-0.38l-0,-0.519l1.257,-0Z" style="fill-rule:nonzero;"/><path d="M0.143,94.217l470.076,-0" style="fill:none;stroke:#000;stroke-width:0.46px;"/><path d="M0.143,89.265l470.076,-0" style="fill:none;stroke:#000;stroke-width:0.46px;"/><path d="M0.143,84.314l470.076,-0" style="fill:none;stroke:#000;stroke-width:0.46px;"/><path d="M0.143,79.363l470.076,0" style="fill:none;stroke:#000;stroke-width:0.46px;"/><path d="M0.143,74.411l470.076,0" style="fill:none;stroke:#000;stroke-width:0.46px;"/><path d="M14.215,93.559l0.753,3.664c0.039,0.218 0.059,0.416 0.059,0.614c0,1.941 -1.98,3.565 -4.119,3.565c-0.654,-0 -1.288,-0.158 -1.882,-0.455c1.525,-0.159 2.674,-1.089 2.674,-2.456c-0,-1.208 -0.99,-2.476 -2.258,-2.476c-1.446,-0 -2.436,1.109 -2.436,2.555c0,2.02 1.644,3.347 3.624,3.347c2.654,0 4.912,-1.723 4.912,-4.198c-0,-0.555 -0.871,-4.477 -0.851,-4.338c2.119,-1.03 3.565,-2.852 3.565,-4.773c0,-2.634 -2.12,-4.654 -4.754,-4.654c-0.039,0 -0.317,0.019 -0.792,0.059l-0.871,-4.179c2.951,-2.495 4.297,-5.149 4.297,-8.061c-0,-2.238 -0.891,-4.615 -2.693,-7.11c-2.04,1.644 -3.209,4.931 -3.209,8.437c0,1.248 0.159,2.456 0.436,3.605c-4.516,3.783 -6.774,7.268 -6.774,10.457c-0,3.743 3.863,6.853 8.061,6.853c0.931,-0 1.624,-0.139 2.258,-0.456Zm-0.059,-26.024c0.653,0.673 0.99,1.465 0.99,2.396c-0,1.921 -1.366,4.08 -4.04,6.457c-0.139,-0.575 -0.179,-1.208 -0.179,-1.902c0,-3.327 1.228,-6.991 2.872,-6.991c0.139,-0 0.258,0.02 0.357,0.04Zm0.416,25.212l-1.406,-6.615c0.277,-0.02 0.435,-0.039 0.495,-0.039c1.703,0 2.891,1.604 2.891,3.248c0,1.307 -0.693,2.456 -1.98,3.406Zm-1.902,-6.536l1.426,6.814c-0.693,0.376 -1.465,0.534 -2.396,0.534c-3.209,0 -5.981,-2.396 -5.981,-5.308c-0,-2.634 1.96,-5.347 5.664,-8.12l0.832,3.961c-2.06,0.436 -3.803,2.179 -3.803,4.14c-0,1.663 1.189,2.832 2.971,3.109c-1.089,-0.673 -1.624,-1.525 -1.624,-2.535c-0,-1.367 1.268,-2.377 2.911,-2.595Z" style="fill-rule:nonzero;"/><path d="M55.165,109.315l-1.178,0c-0.6,-0.705 -1.063,-1.452 -1.41,-2.251c-0.337,-0.789 -0.505,-1.726 -0.505,-2.799c-0,-1.063 0.168,-1.989 0.505,-2.788c0.337,-0.81 0.81,-1.558 1.41,-2.273l1.178,-0l0,0.053c-0.284,0.252 -0.547,0.536 -0.799,0.862c-0.253,0.327 -0.484,0.716 -0.695,1.147c-0.21,0.421 -0.379,0.884 -0.505,1.389c-0.126,0.516 -0.189,1.042 -0.189,1.61c0,0.579 0.063,1.115 0.179,1.61c0.126,0.484 0.294,0.947 0.515,1.378c0.2,0.421 0.432,0.81 0.695,1.147c0.273,0.337 0.536,0.631 0.799,0.863l0,0.052Z" style="fill-rule:nonzero;"/><path d="M62.76,107.201l-0,-3.315c-0,-0.263 -0.01,-0.515 -0.031,-0.736c-0.022,-0.221 -0.064,-0.4 -0.137,-0.526c-0.063,-0.137 -0.158,-0.242 -0.284,-0.306c-0.127,-0.063 -0.305,-0.094 -0.516,-0.094c-0.2,-0 -0.41,0.063 -0.642,0.179c-0.231,0.126 -0.463,0.294 -0.705,0.526c-0,0.063 0.011,0.126 0.011,0.21c0.01,0.084 0.01,0.179 0.01,0.284l-0,3.778l-0.968,0l0,-3.315c0,-0.263 -0.01,-0.515 -0.031,-0.736c-0.021,-0.221 -0.063,-0.4 -0.127,-0.526c-0.073,-0.137 -0.168,-0.242 -0.294,-0.306c-0.126,-0.063 -0.295,-0.094 -0.516,-0.094c-0.21,-0 -0.431,0.063 -0.652,0.189c-0.232,0.137 -0.452,0.305 -0.673,0.505l0,4.283l-0.968,0l-0,-5.735l0.968,0l0,0.631c0.252,-0.252 0.505,-0.452 0.757,-0.589c0.242,-0.137 0.516,-0.21 0.821,-0.21c0.337,0 0.631,0.084 0.894,0.231c0.263,0.158 0.463,0.411 0.6,0.768c0.295,-0.326 0.579,-0.578 0.852,-0.747c0.284,-0.168 0.579,-0.252 0.905,-0.252c0.253,0 0.474,0.042 0.673,0.116c0.2,0.084 0.379,0.21 0.527,0.378c0.157,0.169 0.273,0.39 0.357,0.653c0.084,0.263 0.127,0.589 0.127,0.978l-0,3.778l-0.958,0Z" style="fill-rule:nonzero;"/><path d="M66.062,107.201l-0.968,0l0,-5.735l0.968,0l-0,5.735Zm0.074,-6.703l-1.105,0l-0,-0.999l1.105,-0l0,0.999Z" style="fill-rule:nonzero;"/><path d="M71.99,107.201l-0.968,0l0,-3.273c0,-0.263 -0.01,-0.505 -0.031,-0.736c-0.032,-0.221 -0.074,-0.411 -0.148,-0.547c-0.084,-0.137 -0.189,-0.242 -0.336,-0.316c-0.137,-0.074 -0.327,-0.105 -0.569,-0.105c-0.242,-0 -0.494,0.063 -0.747,0.189c-0.252,0.126 -0.505,0.295 -0.747,0.505l0,4.283l-0.968,0l-0,-5.735l0.968,0l0,0.631c0.295,-0.252 0.579,-0.452 0.853,-0.589c0.284,-0.137 0.578,-0.21 0.894,-0.21c0.558,0 1,0.189 1.326,0.557c0.315,0.379 0.473,0.916 0.473,1.621l-0,3.725Z" style="fill-rule:nonzero;"/><path d="M75.835,107.337c-0.915,0 -1.62,-0.263 -2.125,-0.778c-0.505,-0.516 -0.758,-1.242 -0.758,-2.199c0,-0.926 0.242,-1.673 0.737,-2.231c0.484,-0.547 1.126,-0.831 1.915,-0.831c0.358,0 0.673,0.052 0.947,0.158c0.273,0.105 0.515,0.263 0.715,0.484c0.211,0.221 0.369,0.484 0.474,0.799c0.116,0.326 0.168,0.705 0.168,1.168l-0,0.526l-3.977,-0c-0,0.663 0.168,1.179 0.505,1.526c0.337,0.358 0.8,0.537 1.389,0.537c0.21,0 0.421,-0.032 0.631,-0.074c0.2,-0.053 0.379,-0.116 0.547,-0.189c0.179,-0.074 0.326,-0.158 0.442,-0.232c0.116,-0.074 0.221,-0.137 0.295,-0.2l0.063,-0l0,1.052c-0.116,0.042 -0.253,0.095 -0.421,0.169c-0.168,0.063 -0.326,0.115 -0.452,0.158c-0.19,0.042 -0.358,0.084 -0.516,0.115c-0.147,0.021 -0.347,0.042 -0.579,0.042Zm1.137,-3.64c-0.011,-0.263 -0.042,-0.495 -0.095,-0.674c-0.053,-0.189 -0.137,-0.357 -0.242,-0.484c-0.105,-0.147 -0.253,-0.252 -0.431,-0.326c-0.179,-0.073 -0.39,-0.116 -0.653,-0.116c-0.263,0 -0.473,0.043 -0.652,0.116c-0.179,0.074 -0.347,0.19 -0.495,0.337c-0.147,0.147 -0.252,0.316 -0.326,0.505c-0.073,0.179 -0.126,0.389 -0.147,0.642l3.041,0Z" style="fill-rule:nonzero;"/><path d="M83.35,107.201l-0.968,0l0,-0.642c-0.295,0.263 -0.579,0.463 -0.842,0.599c-0.273,0.137 -0.568,0.2 -0.894,0.2c-0.253,0 -0.484,-0.042 -0.705,-0.126c-0.221,-0.074 -0.421,-0.21 -0.579,-0.389c-0.168,-0.179 -0.294,-0.4 -0.389,-0.674c-0.084,-0.263 -0.126,-0.599 -0.126,-0.978l0,-3.725l0.957,0l0,3.262c0,0.305 0.011,0.558 0.032,0.758c0.031,0.199 0.073,0.378 0.158,0.526c0.073,0.147 0.189,0.252 0.315,0.326c0.137,0.063 0.337,0.105 0.589,0.105c0.232,-0 0.484,-0.074 0.758,-0.2c0.263,-0.137 0.505,-0.305 0.726,-0.494l0,-4.283l0.968,0l-0,5.735Z" style="fill-rule:nonzero;"/><path d="M87.784,102.497l-0.042,-0c-0.073,-0.021 -0.147,-0.031 -0.231,-0.031c-0.084,-0.011 -0.179,-0.011 -0.295,-0.011c-0.252,0 -0.515,0.053 -0.768,0.169c-0.263,0.115 -0.505,0.284 -0.736,0.505l-0,4.072l-0.968,0l0,-5.735l0.968,0l-0,0.852c0.357,-0.315 0.662,-0.536 0.925,-0.662c0.263,-0.127 0.516,-0.19 0.758,-0.19l0.231,0c0.043,0.011 0.106,0.021 0.158,0.032l-0,0.999Z" style="fill-rule:nonzero;"/><path d="M96.641,104.181c-0,0.957 -0.231,1.715 -0.683,2.283c-0.463,0.568 -1.042,0.852 -1.737,0.852c-0.284,-0 -0.536,-0.031 -0.757,-0.105c-0.221,-0.063 -0.442,-0.158 -0.674,-0.295l0,2.399l-0.968,0l-0,-7.849l0.968,0l0,0.6c0.242,-0.221 0.506,-0.4 0.8,-0.547c0.295,-0.148 0.61,-0.221 0.958,-0.221c0.662,0 1.168,0.263 1.536,0.789c0.368,0.516 0.557,1.221 0.557,2.094Zm-0.999,0.105c-0,-0.652 -0.105,-1.157 -0.316,-1.526c-0.2,-0.357 -0.547,-0.536 -1.01,-0.536c-0.273,-0 -0.536,0.063 -0.8,0.179c-0.252,0.126 -0.494,0.284 -0.726,0.473l0,3.251c0.253,0.127 0.474,0.211 0.653,0.253c0.179,0.042 0.389,0.063 0.621,0.063c0.494,-0 0.883,-0.179 1.168,-0.547c0.273,-0.368 0.41,-0.905 0.41,-1.61Z" style="fill-rule:nonzero;"/><path d="M100.131,107.337c-0.916,0 -1.621,-0.263 -2.126,-0.778c-0.505,-0.516 -0.757,-1.242 -0.757,-2.199c0,-0.926 0.242,-1.673 0.736,-2.231c0.484,-0.547 1.126,-0.831 1.915,-0.831c0.358,0 0.674,0.052 0.947,0.158c0.274,0.105 0.516,0.263 0.716,0.484c0.21,0.221 0.368,0.484 0.473,0.799c0.116,0.326 0.168,0.705 0.168,1.168l0,0.526l-3.977,-0c-0,0.663 0.169,1.179 0.505,1.526c0.337,0.358 0.8,0.537 1.389,0.537c0.211,0 0.421,-0.032 0.631,-0.074c0.2,-0.053 0.379,-0.116 0.548,-0.189c0.178,-0.074 0.326,-0.158 0.442,-0.232c0.115,-0.074 0.22,-0.137 0.294,-0.2l0.063,-0l-0,1.052c-0.115,0.042 -0.252,0.095 -0.421,0.169c-0.168,0.063 -0.326,0.115 -0.452,0.158c-0.189,0.042 -0.358,0.084 -0.516,0.115c-0.147,0.021 -0.347,0.042 -0.578,0.042Zm1.136,-3.64c-0.01,-0.263 -0.042,-0.495 -0.095,-0.674c-0.052,-0.189 -0.136,-0.357 -0.242,-0.484c-0.105,-0.147 -0.252,-0.252 -0.431,-0.326c-0.179,-0.073 -0.389,-0.116 -0.652,-0.116c-0.263,0 -0.474,0.043 -0.653,0.116c-0.179,0.074 -0.347,0.19 -0.494,0.337c-0.148,0.147 -0.253,0.316 -0.326,0.505c-0.074,0.179 -0.127,0.389 -0.148,0.642l3.041,0Z" style="fill-rule:nonzero;"/><path d="M107.687,107.201l-0.968,0l0,-3.273c0,-0.263 -0.01,-0.505 -0.031,-0.736c-0.032,-0.221 -0.074,-0.411 -0.148,-0.547c-0.084,-0.137 -0.189,-0.242 -0.336,-0.316c-0.137,-0.074 -0.326,-0.105 -0.568,-0.105c-0.242,-0 -0.495,0.063 -0.747,0.189c-0.253,0.126 -0.505,0.295 -0.747,0.505l-0,4.283l-0.968,0l0,-5.735l0.968,0l-0,0.631c0.294,-0.252 0.578,-0.452 0.852,-0.589c0.284,-0.137 0.578,-0.21 0.894,-0.21c0.558,0 1,0.189 1.326,0.557c0.316,0.379 0.473,0.916 0.473,1.621l-0,3.725Z" style="fill-rule:nonzero;"/><path d="M110.775,107.316c-0.526,-0 -0.937,-0.147 -1.231,-0.452c-0.295,-0.295 -0.442,-0.768 -0.442,-1.421l-0,-3.177l-0.652,0l-0,-0.8l0.652,0l-0,-1.652l0.968,-0l-0,1.652l1.778,0l-0,0.8l-1.778,0l-0,2.725c-0,0.295 0.01,0.516 0.021,0.673c0.011,0.158 0.042,0.306 0.116,0.442c0.052,0.116 0.147,0.211 0.284,0.274c0.126,0.052 0.305,0.084 0.526,0.084c0.158,0 0.305,-0.021 0.452,-0.063c0.148,-0.053 0.253,-0.084 0.327,-0.116l0.052,0l-0,0.863c-0.179,0.053 -0.368,0.095 -0.547,0.126c-0.189,0.021 -0.368,0.042 -0.526,0.042Z" style="fill-rule:nonzero;"/><path d="M115.766,105.791l-0,-1.6c-0.232,0.021 -0.516,0.053 -0.874,0.085c-0.347,0.042 -0.631,0.094 -0.841,0.157c-0.263,0.074 -0.474,0.2 -0.642,0.358c-0.169,0.168 -0.253,0.389 -0.253,0.684c-0,0.326 0.095,0.579 0.274,0.747c0.189,0.168 0.463,0.253 0.821,0.253c0.305,0 0.578,-0.074 0.82,-0.2c0.253,-0.137 0.484,-0.295 0.695,-0.484Zm-0,0.799c-0.074,0.053 -0.179,0.137 -0.316,0.242c-0.126,0.106 -0.263,0.19 -0.379,0.253c-0.179,0.084 -0.336,0.158 -0.494,0.2c-0.169,0.052 -0.39,0.073 -0.674,0.073c-0.242,0 -0.463,-0.042 -0.673,-0.136c-0.21,-0.085 -0.4,-0.211 -0.558,-0.369c-0.158,-0.157 -0.284,-0.357 -0.368,-0.589c-0.095,-0.231 -0.147,-0.473 -0.147,-0.726c-0,-0.4 0.084,-0.736 0.252,-1.02c0.169,-0.274 0.432,-0.495 0.8,-0.663c0.326,-0.148 0.705,-0.253 1.136,-0.305c0.442,-0.053 0.916,-0.095 1.421,-0.127l-0,-0.179c-0,-0.231 -0.032,-0.41 -0.106,-0.547c-0.063,-0.147 -0.157,-0.252 -0.284,-0.326c-0.126,-0.074 -0.273,-0.126 -0.452,-0.158c-0.179,-0.021 -0.358,-0.042 -0.547,-0.042c-0.221,0 -0.484,0.042 -0.789,0.105c-0.305,0.063 -0.6,0.169 -0.905,0.295l-0.053,-0l-0,-0.989c0.179,-0.053 0.432,-0.105 0.768,-0.168c0.326,-0.064 0.653,-0.095 0.979,-0.095c0.4,0 0.726,0.031 0.999,0.095c0.274,0.063 0.516,0.178 0.726,0.336c0.211,0.158 0.369,0.358 0.474,0.611c0.105,0.252 0.147,0.557 0.147,0.915l-0,3.925l-0.957,0l-0,-0.611Z" style="fill-rule:nonzero;"/><path d="M119.815,107.316c-0.526,-0 -0.937,-0.147 -1.231,-0.452c-0.295,-0.295 -0.442,-0.768 -0.442,-1.421l-0,-3.177l-0.653,0l-0,-0.8l0.653,0l-0,-1.652l0.968,-0l0,1.652l1.778,0l0,0.8l-1.778,0l0,2.725c0,0.295 0.01,0.516 0.021,0.673c0.01,0.158 0.042,0.306 0.115,0.442c0.053,0.116 0.148,0.211 0.285,0.274c0.126,0.052 0.305,0.084 0.526,0.084c0.157,0 0.305,-0.021 0.452,-0.063c0.147,-0.053 0.253,-0.084 0.326,-0.116l0.053,0l0,0.863c-0.179,0.053 -0.368,0.095 -0.547,0.126c-0.19,0.021 -0.369,0.042 -0.526,0.042Z" style="fill-rule:nonzero;"/><path d="M126.321,104.339c-0,0.957 -0.232,1.704 -0.695,2.23c-0.473,0.526 -1.084,0.789 -1.862,0.789c-0.8,0 -1.431,-0.273 -1.884,-0.81c-0.452,-0.547 -0.684,-1.283 -0.684,-2.209c-0,-0.968 0.232,-1.705 0.705,-2.242c0.474,-0.526 1.095,-0.799 1.863,-0.799c0.778,0 1.389,0.273 1.862,0.799c0.463,0.527 0.695,1.274 0.695,2.242Zm-1,0c-0,-0.747 -0.126,-1.305 -0.4,-1.663c-0.273,-0.358 -0.663,-0.536 -1.157,-0.536c-0.505,-0 -0.895,0.178 -1.168,0.536c-0.274,0.358 -0.4,0.916 -0.4,1.663c-0,0.715 0.126,1.262 0.4,1.631c0.273,0.368 0.663,0.557 1.168,0.557c0.494,-0 0.884,-0.179 1.157,-0.547c0.263,-0.368 0.4,-0.915 0.4,-1.641Z" style="fill-rule:nonzero;"/><path d="M131.823,107.201l-0.968,0l-0,-3.273c-0,-0.263 -0.01,-0.505 -0.031,-0.736c-0.032,-0.221 -0.074,-0.411 -0.148,-0.547c-0.084,-0.137 -0.189,-0.242 -0.336,-0.316c-0.137,-0.074 -0.327,-0.105 -0.569,-0.105c-0.242,-0 -0.494,0.063 -0.747,0.189c-0.252,0.126 -0.505,0.295 -0.747,0.505l-0,4.283l-0.968,0l-0,-5.735l0.968,0l-0,0.631c0.295,-0.252 0.579,-0.452 0.853,-0.589c0.284,-0.137 0.578,-0.21 0.894,-0.21c0.558,0 0.999,0.189 1.326,0.557c0.315,0.379 0.473,0.916 0.473,1.621l-0,3.725Z" style="fill-rule:nonzero;"/><path d="M134.164,107.201l-0.968,0l-0,-5.735l0.968,0l0,5.735Zm0.073,-6.703l-1.105,0l0,-0.999l1.105,-0l-0,0.999Z" style="fill-rule:nonzero;"/><path d="M138.071,107.337c-0.915,0 -1.62,-0.263 -2.125,-0.778c-0.505,-0.516 -0.758,-1.242 -0.758,-2.199c0,-0.926 0.242,-1.673 0.737,-2.231c0.484,-0.547 1.126,-0.831 1.915,-0.831c0.358,0 0.673,0.052 0.947,0.158c0.273,0.105 0.515,0.263 0.715,0.484c0.211,0.221 0.369,0.484 0.474,0.799c0.116,0.326 0.168,0.705 0.168,1.168l-0,0.526l-3.977,-0c0,0.663 0.168,1.179 0.505,1.526c0.337,0.358 0.8,0.537 1.389,0.537c0.21,0 0.421,-0.032 0.631,-0.074c0.2,-0.053 0.379,-0.116 0.547,-0.189c0.179,-0.074 0.327,-0.158 0.442,-0.232c0.116,-0.074 0.221,-0.137 0.295,-0.2l0.063,-0l0,1.052c-0.116,0.042 -0.253,0.095 -0.421,0.169c-0.168,0.063 -0.326,0.115 -0.452,0.158c-0.19,0.042 -0.358,0.084 -0.516,0.115c-0.147,0.021 -0.347,0.042 -0.579,0.042Zm1.137,-3.64c-0.011,-0.263 -0.042,-0.495 -0.095,-0.674c-0.053,-0.189 -0.137,-0.357 -0.242,-0.484c-0.105,-0.147 -0.252,-0.252 -0.431,-0.326c-0.179,-0.073 -0.39,-0.116 -0.653,-0.116c-0.263,0 -0.473,0.043 -0.652,0.116c-0.179,0.074 -0.347,0.19 -0.495,0.337c-0.147,0.147 -0.252,0.316 -0.326,0.505c-0.073,0.179 -0.126,0.389 -0.147,0.642l3.041,0Z" style="fill-rule:nonzero;"/><path d="M145.881,107.201l-1.274,0l-2.146,-2.768l-0.379,0.369l0,2.399l-0.968,0l-0,-7.997l0.968,-0l0,4.682l2.273,-2.42l1.199,0l-2.356,2.399l2.683,3.336Z" style="fill-rule:nonzero;"/><rect x="149.41" y="103.392" width="2.893" height="0.926" style="fill-rule:nonzero;"/><rect x="153.232" y="103.392" width="2.894" height="0.926" style="fill-rule:nonzero;"/><path d="M163.21,104.16l-5.514,2.63l-0,-0.905l4.283,-2.03l-4.283,-2.031l-0,-0.915l5.514,2.63l0,0.621Z" style="fill-rule:nonzero;"/><path d="M172.006,107.201l-4.219,0l0,-0.716l2.998,-4.23l-2.872,0l-0,-0.789l4.03,0l-0,0.684l-3.009,4.24l3.072,-0l-0,0.811Z" style="fill-rule:nonzero;"/><path d="M173.891,107.201l-0.968,0l0,-5.735l0.968,0l0,5.735Zm0.074,-6.703l-1.105,0l0,-0.999l1.105,-0l-0,0.999Z" style="fill-rule:nonzero;"/><path d="M177.799,107.337c-0.916,0 -1.621,-0.263 -2.126,-0.778c-0.505,-0.516 -0.757,-1.242 -0.757,-2.199c0,-0.926 0.242,-1.673 0.736,-2.231c0.484,-0.547 1.126,-0.831 1.915,-0.831c0.358,0 0.674,0.052 0.947,0.158c0.274,0.105 0.516,0.263 0.716,0.484c0.21,0.221 0.368,0.484 0.473,0.799c0.116,0.326 0.169,0.705 0.169,1.168l-0,0.526l-3.978,-0c-0,0.663 0.169,1.179 0.505,1.526c0.337,0.358 0.8,0.537 1.389,0.537c0.211,0 0.421,-0.032 0.632,-0.074c0.2,-0.053 0.378,-0.116 0.547,-0.189c0.179,-0.074 0.326,-0.158 0.442,-0.232c0.115,-0.074 0.221,-0.137 0.294,-0.2l0.063,-0l0,1.052c-0.115,0.042 -0.252,0.095 -0.42,0.169c-0.169,0.063 -0.327,0.115 -0.453,0.158c-0.189,0.042 -0.358,0.084 -0.515,0.115c-0.148,0.021 -0.348,0.042 -0.579,0.042Zm1.136,-3.64c-0.01,-0.263 -0.042,-0.495 -0.095,-0.674c-0.052,-0.189 -0.136,-0.357 -0.242,-0.484c-0.105,-0.147 -0.252,-0.252 -0.431,-0.326c-0.179,-0.073 -0.389,-0.116 -0.652,-0.116c-0.263,0 -0.474,0.043 -0.653,0.116c-0.179,0.074 -0.347,0.19 -0.494,0.337c-0.147,0.147 -0.253,0.316 -0.326,0.505c-0.074,0.179 -0.127,0.389 -0.148,0.642l3.041,0Z" style="fill-rule:nonzero;"/><path d="M189.401,104.854c0,0.379 -0.074,0.716 -0.221,1.01c-0.137,0.284 -0.337,0.526 -0.579,0.716c-0.284,0.221 -0.589,0.389 -0.925,0.484c-0.327,0.094 -0.748,0.137 -1.274,0.137l-2.188,0l0,-7.65l2.031,-0c0.536,-0 0.947,0.021 1.22,0.053c0.274,0.031 0.537,0.126 0.789,0.252c0.274,0.148 0.474,0.348 0.6,0.579c0.126,0.242 0.189,0.516 0.189,0.842c-0,0.358 -0.094,0.684 -0.284,0.968c-0.189,0.284 -0.452,0.505 -0.789,0.663l0,0.042c0.453,0.126 0.8,0.347 1.052,0.673c0.253,0.326 0.379,0.737 0.379,1.231Zm-1.42,-3.43c0,-0.189 -0.032,-0.347 -0.095,-0.484c-0.063,-0.137 -0.158,-0.242 -0.295,-0.316c-0.168,-0.094 -0.347,-0.157 -0.547,-0.178c-0.2,-0.021 -0.484,-0.032 -0.842,-0.032l-0.978,0l-0,2.241l1.157,-0c0.327,-0 0.558,-0.01 0.705,-0.042c0.148,-0.032 0.305,-0.105 0.474,-0.21c0.147,-0.095 0.263,-0.221 0.326,-0.39c0.063,-0.158 0.095,-0.357 0.095,-0.589Zm0.357,3.472c-0,-0.294 -0.042,-0.526 -0.115,-0.715c-0.085,-0.19 -0.253,-0.347 -0.505,-0.474c-0.158,-0.084 -0.337,-0.136 -0.526,-0.168c-0.19,-0.021 -0.463,-0.032 -0.811,-0.032l-1.157,0l-0,2.82l0.831,-0c0.442,-0 0.8,-0.01 1.052,-0.052c0.263,-0.042 0.484,-0.137 0.684,-0.263c0.19,-0.137 0.326,-0.284 0.421,-0.453c0.084,-0.179 0.126,-0.4 0.126,-0.663Z" style="fill-rule:nonzero;"/><rect x="190.413" y="99.204" width="0.968" height="7.997" style="fill-rule:nonzero;"/><path d="M197.266,107.201l-0.968,0l0,-0.642c-0.294,0.263 -0.578,0.463 -0.841,0.599c-0.274,0.137 -0.568,0.2 -0.895,0.2c-0.252,0 -0.484,-0.042 -0.705,-0.126c-0.221,-0.074 -0.42,-0.21 -0.578,-0.389c-0.169,-0.179 -0.295,-0.4 -0.39,-0.674c-0.084,-0.263 -0.126,-0.599 -0.126,-0.978l0,-3.725l0.958,0l-0,3.262c-0,0.305 0.01,0.558 0.031,0.758c0.032,0.199 0.074,0.378 0.158,0.526c0.074,0.147 0.189,0.252 0.316,0.326c0.136,0.063 0.336,0.105 0.589,0.105c0.231,-0 0.484,-0.074 0.757,-0.2c0.263,-0.137 0.505,-0.305 0.726,-0.494l0,-4.283l0.968,0l0,5.735Z" style="fill-rule:nonzero;"/><path d="M201.154,107.337c-0.916,0 -1.621,-0.263 -2.126,-0.778c-0.505,-0.516 -0.757,-1.242 -0.757,-2.199c-0,-0.926 0.242,-1.673 0.736,-2.231c0.484,-0.547 1.126,-0.831 1.915,-0.831c0.358,0 0.674,0.052 0.947,0.158c0.274,0.105 0.516,0.263 0.716,0.484c0.21,0.221 0.368,0.484 0.473,0.799c0.116,0.326 0.168,0.705 0.168,1.168l-0,0.526l-3.977,-0c-0,0.663 0.169,1.179 0.505,1.526c0.337,0.358 0.8,0.537 1.389,0.537c0.211,0 0.421,-0.032 0.631,-0.074c0.2,-0.053 0.379,-0.116 0.548,-0.189c0.178,-0.074 0.326,-0.158 0.441,-0.232c0.116,-0.074 0.221,-0.137 0.295,-0.2l0.063,-0l0,1.052c-0.116,0.042 -0.252,0.095 -0.421,0.169c-0.168,0.063 -0.326,0.115 -0.452,0.158c-0.189,0.042 -0.358,0.084 -0.516,0.115c-0.147,0.021 -0.347,0.042 -0.578,0.042Zm1.136,-3.64c-0.011,-0.263 -0.042,-0.495 -0.095,-0.674c-0.052,-0.189 -0.136,-0.357 -0.242,-0.484c-0.105,-0.147 -0.252,-0.252 -0.431,-0.326c-0.179,-0.073 -0.389,-0.116 -0.652,-0.116c-0.263,0 -0.474,0.043 -0.653,0.116c-0.179,0.074 -0.347,0.19 -0.494,0.337c-0.148,0.147 -0.253,0.316 -0.326,0.505c-0.074,0.179 -0.127,0.389 -0.148,0.642l3.041,0Z" style="fill-rule:nonzero;"/><path d="M205.754,107.337c-0.39,0 -0.747,-0.052 -1.074,-0.147c-0.336,-0.105 -0.61,-0.221 -0.831,-0.337l-0,-1.083l0.053,0c0.074,0.063 0.179,0.136 0.284,0.221c0.116,0.073 0.263,0.157 0.442,0.242c0.168,0.073 0.347,0.147 0.547,0.199c0.2,0.064 0.4,0.095 0.61,0.095c0.158,-0 0.326,-0.021 0.495,-0.063c0.179,-0.032 0.305,-0.074 0.389,-0.137c0.126,-0.073 0.211,-0.158 0.263,-0.242c0.053,-0.094 0.074,-0.231 0.074,-0.41c-0,-0.221 -0.053,-0.4 -0.179,-0.516c-0.126,-0.115 -0.347,-0.21 -0.673,-0.294c-0.116,-0.032 -0.285,-0.063 -0.474,-0.105c-0.2,-0.043 -0.389,-0.085 -0.558,-0.137c-0.431,-0.127 -0.757,-0.316 -0.957,-0.589c-0.189,-0.264 -0.295,-0.579 -0.295,-0.958c-0,-0.516 0.2,-0.936 0.59,-1.263c0.389,-0.326 0.904,-0.494 1.557,-0.494c0.315,0 0.631,0.042 0.957,0.126c0.326,0.074 0.589,0.179 0.81,0.295l-0,1.031l-0.052,-0c-0.242,-0.19 -0.516,-0.347 -0.821,-0.463c-0.305,-0.116 -0.61,-0.168 -0.915,-0.168c-0.316,-0 -0.59,0.063 -0.81,0.199c-0.221,0.137 -0.327,0.337 -0.327,0.611c-0,0.231 0.063,0.41 0.19,0.536c0.137,0.116 0.347,0.211 0.631,0.284c0.147,0.043 0.305,0.074 0.484,0.116c0.168,0.032 0.358,0.074 0.558,0.126c0.421,0.106 0.736,0.285 0.957,0.527c0.211,0.252 0.316,0.578 0.316,1.01c-0,0.242 -0.042,0.473 -0.147,0.694c-0.095,0.221 -0.242,0.41 -0.421,0.568c-0.211,0.179 -0.442,0.305 -0.705,0.39c-0.253,0.094 -0.579,0.136 -0.968,0.136Z" style="fill-rule:nonzero;"/><path d="M211.669,104.265c0,1.052 -0.168,1.989 -0.505,2.788c-0.336,0.8 -0.81,1.557 -1.41,2.262l-1.178,0l0,-0.052c0.263,-0.232 0.526,-0.526 0.8,-0.863c0.263,-0.347 0.494,-0.726 0.694,-1.147c0.211,-0.442 0.379,-0.905 0.505,-1.399c0.126,-0.484 0.19,-1.021 0.19,-1.589c-0,-0.568 -0.064,-1.105 -0.19,-1.61c-0.126,-0.494 -0.294,-0.968 -0.505,-1.389c-0.21,-0.421 -0.442,-0.81 -0.705,-1.147c-0.263,-0.336 -0.526,-0.62 -0.789,-0.862l0,-0.053l1.178,-0c0.6,0.715 1.063,1.463 1.4,2.262c0.347,0.8 0.515,1.726 0.515,2.799Z" style="fill-rule:nonzero;"/><path d="M168.772,10.513l-1.077,4.152c-0.066,0.264 -0.153,0.418 -0.241,0.484c-0.11,0.066 -0.286,0.088 -0.55,0.088l-2.417,-0c-0.241,-0 -0.439,-0.066 -0.549,-0.176c-0.132,-0.11 -0.22,-0.242 -0.264,-0.396l-3.207,-14.04c-0.022,-0.153 -0.044,-0.263 -0.044,-0.373c0,-0.264 0.153,-0.396 0.461,-0.396l2.307,-0c0.198,-0 0.33,0.066 0.44,0.198c0.109,0.132 0.175,0.264 0.197,0.396l2.044,9.447c0.022,0.066 0.022,0.11 0.044,0.176c0.022,0.066 0.044,0.132 0.087,0.198c0.022,-0 0.066,-0.044 0.088,-0.132c0.022,-0.088 0.044,-0.154 0.066,-0.22l1.099,-4.811c0.022,-0.11 0.044,-0.242 0.044,-0.418c0,-0.154 -0.044,-0.395 -0.11,-0.725l-0.769,-3.34c-0.022,-0.11 -0.044,-0.219 -0.044,-0.307c-0,-0.308 0.154,-0.462 0.461,-0.462l2.307,-0c0.242,-0 0.418,0.066 0.506,0.176c0.044,0.066 0.088,0.198 0.132,0.44l1.735,8.371c0.022,0.066 0.022,0.11 0.044,0.132c0.022,0.022 0.044,0.044 0.066,0.066c0.066,-0.066 0.11,-0.132 0.11,-0.198l0.264,-1.34l1.692,-7.053c0.066,-0.264 0.131,-0.418 0.219,-0.484c0.066,-0.066 0.198,-0.11 0.396,-0.11l2.285,-0c0.308,-0 0.461,0.132 0.461,0.418c-0,0.044 -0.022,0.154 -0.044,0.329l-3.383,13.909c-0.066,0.285 -0.154,0.483 -0.264,0.593c-0.11,0.088 -0.264,0.132 -0.461,0.132l-2.439,-0c-0.198,-0 -0.352,-0.066 -0.462,-0.22c-0.066,-0.066 -0.109,-0.198 -0.153,-0.352l-1.077,-4.152Z" style="fill-rule:nonzero;"/><path d="M185.843,6.316l0,8.152c0,0.241 -0.022,0.395 -0.066,0.483c-0.11,0.198 -0.308,0.286 -0.593,0.286l-1.846,-0c-0.286,-0 -0.418,-0.11 -0.418,-0.352c-0,-0.11 -0.065,-0.154 -0.175,-0.154c-0.11,0.044 -0.176,0.088 -0.198,0.11c-0.198,0.176 -0.461,0.308 -0.791,0.418c-0.352,0.109 -0.681,0.153 -1.011,0.153c-0.857,-0 -1.538,-0.307 -2.087,-0.922c-0.593,-0.682 -0.901,-1.67 -0.901,-2.923c0,-1.494 0.483,-2.658 1.45,-3.493c0.571,-0.484 1.538,-0.967 2.879,-1.472l0.549,-0.198c0.154,-0.066 0.22,-0.176 0.22,-0.352c-0,-0.307 -0.132,-0.527 -0.396,-0.637c-0.286,-0.11 -0.615,-0.176 -1.011,-0.176c-0.417,0 -0.725,0.022 -0.944,0.066c-0.242,0.066 -0.462,0.132 -0.638,0.176c-0.197,0.044 -0.329,0.088 -0.439,0.132c-0.286,0.11 -0.461,0.154 -0.527,0.154c-0.286,-0 -0.418,-0.132 -0.418,-0.396l-0,-1.362c-0,-0.286 0.154,-0.505 0.484,-0.703c0.549,-0.308 1.45,-0.462 2.746,-0.462c1.67,-0 2.834,0.374 3.472,1.143c0.439,0.527 0.659,1.296 0.659,2.329Zm-2.988,5.625l-0,-2.813c-0,-0.065 -0.022,-0.131 -0.088,-0.153c-0.066,-0.022 -0.132,-0.022 -0.22,0.044l-0.374,0.241c-0.439,0.286 -0.747,0.55 -0.922,0.791c-0.242,0.352 -0.374,0.791 -0.374,1.341c-0,0.373 0.088,0.703 0.242,0.966c0.154,0.242 0.395,0.374 0.725,0.374c0.285,-0 0.527,-0.088 0.725,-0.242c0.198,-0.154 0.286,-0.351 0.286,-0.549Z" style="fill-rule:nonzero;"/><path d="M188.325,0.823l2.175,-0.703c0.088,-0.022 0.154,-0.044 0.22,-0.044c0.176,-0 0.263,0.132 0.263,0.374l0,2.46c0,0.198 0.088,0.286 0.286,0.286l0.857,0c0.198,0 0.352,0.044 0.461,0.11c0.11,0.066 0.154,0.242 0.154,0.505l-0,1.033c-0,0.264 -0.044,0.439 -0.154,0.505c-0.109,0.066 -0.263,0.11 -0.461,0.11l-0.901,0c-0.154,0 -0.242,0.088 -0.242,0.242l0,5.976c0,0.418 0.066,0.725 0.198,0.901c0.11,0.176 0.374,0.264 0.747,0.264c0.154,0 0.286,0 0.374,-0.022c0.088,-0.022 0.176,-0.044 0.285,-0.044c0.176,0 0.264,0.11 0.264,0.329l-0,1.67c-0,0.242 -0.088,0.396 -0.286,0.506c-0.197,0.087 -0.593,0.131 -1.23,0.131c-1.186,-0 -2.043,-0.219 -2.549,-0.637c-0.527,-0.439 -0.791,-1.186 -0.791,-2.219l-0,-6.811c-0,-0.11 -0.022,-0.198 -0.088,-0.22c-0.066,-0.022 -0.131,-0.044 -0.197,-0.066l-0.352,0c-0.154,0 -0.286,-0.044 -0.351,-0.11c-0.066,-0.066 -0.11,-0.241 -0.11,-0.505l0,-1.033c0,-0.263 0.044,-0.439 0.11,-0.505c0.065,-0.066 0.197,-0.11 0.351,-0.11l0.44,0c0.131,-0.044 0.197,-0.132 0.197,-0.286l-0,-1.626c-0,-0.241 0.11,-0.395 0.33,-0.461Z" style="fill-rule:nonzero;"/><path d="M201.573,9.941l-4.416,0c-0.11,0 -0.176,0.022 -0.198,0.088c-0.044,0.044 -0.066,0.11 -0.066,0.176l0,0.703c0,0.593 0.198,1.033 0.572,1.362c0.373,0.308 0.9,0.462 1.582,0.462c0.461,-0 0.9,-0.022 1.274,-0.088c0.373,-0.066 0.791,-0.176 1.208,-0.33c0.374,-0.109 0.55,-0 0.55,0.352l-0,1.802c-0,0.109 -0.022,0.219 -0.066,0.285c-0.066,0.066 -0.176,0.132 -0.352,0.198c-0.483,0.176 -0.967,0.308 -1.472,0.374c-0.505,0.065 -0.945,0.087 -1.34,0.087c-1.275,-0 -2.307,-0.241 -3.098,-0.703c-1.231,-0.725 -1.846,-1.977 -1.846,-3.735l-0,-3.713c-0,-1.165 0.22,-2.109 0.681,-2.813c0.681,-1.076 1.846,-1.604 3.494,-1.604c0.989,-0 1.823,0.198 2.461,0.616c1.098,0.703 1.648,1.977 1.648,3.801l-0,2.065c-0,0.264 -0.044,0.44 -0.154,0.506c-0.11,0.065 -0.264,0.109 -0.462,0.109Zm-4.46,-2.417l1.868,-0c0.088,-0 0.153,-0.065 0.219,-0.219l-0,-0.484c-0,-0.417 -0.044,-0.747 -0.153,-0.966c-0.198,-0.396 -0.506,-0.594 -0.967,-0.594c-0.374,-0 -0.681,0.132 -0.879,0.396c-0.198,0.242 -0.308,0.637 -0.308,1.164l0,0.484c0,0.154 0.066,0.219 0.22,0.219Z" style="fill-rule:nonzero;"/><path d="M206.823,9.041l-0,5.58c-0,0.264 -0.044,0.44 -0.154,0.506c-0.11,0.066 -0.264,0.11 -0.461,0.11l-1.758,-0c-0.264,-0 -0.44,-0.044 -0.506,-0.154c-0.065,-0.11 -0.109,-0.264 -0.109,-0.462l0,-10.986c0,-0.263 0.065,-0.439 0.175,-0.505c0.11,-0.066 0.242,-0.11 0.44,-0.11l1.999,-0c0.264,-0 0.396,0.11 0.396,0.308l0,0.242c0,0.065 0.044,0.109 0.11,0.175l0.307,-0.197c0.308,-0.242 0.549,-0.396 0.747,-0.484c0.33,-0.154 0.747,-0.22 1.231,-0.22c0.219,-0 0.395,0.044 0.505,0.11c0.11,0.066 0.154,0.198 0.154,0.418l0,2.131c0,0.176 -0.044,0.286 -0.154,0.352c-0.11,0.066 -0.242,0.088 -0.374,0.088l-0.417,-0c-0.352,-0 -0.637,0.043 -0.835,0.131c-0.198,0.088 -0.417,0.242 -0.615,0.44c-0.33,0.329 -0.505,0.681 -0.571,1.054c-0.066,0.374 -0.11,0.879 -0.11,1.473Z" style="fill-rule:nonzero;"/><path d="M210.93,14.621l-0,-10.986c-0,-0.263 0.066,-0.439 0.176,-0.505c0.11,-0.066 0.242,-0.11 0.44,-0.11l1.955,-0c0.11,-0 0.22,0.044 0.308,0.132c0.066,0.066 0.11,0.176 0.11,0.286c0,0.154 0.044,0.219 0.131,0.219c0.022,0 0.11,-0.044 0.22,-0.109c0.33,-0.264 0.637,-0.44 0.945,-0.55c0.308,-0.11 0.637,-0.154 0.989,-0.154c0.417,-0 0.791,0.088 1.142,0.242c0.242,0.11 0.528,0.308 0.835,0.571c0.154,0.132 0.286,0.198 0.352,0.198c0.066,0 0.197,-0.066 0.395,-0.198c0.418,-0.329 0.813,-0.527 1.165,-0.637c0.351,-0.11 0.747,-0.176 1.208,-0.176c0.769,-0 1.406,0.242 1.912,0.704c0.593,0.571 0.901,1.428 0.901,2.57l-0,8.503c-0,0.264 -0.044,0.44 -0.154,0.506c-0.11,0.066 -0.264,0.11 -0.462,0.11l-1.757,-0c-0.198,-0 -0.33,-0.044 -0.44,-0.11c-0.11,-0.066 -0.176,-0.242 -0.176,-0.506l-0,-7.866c-0,-0.285 -0.087,-0.527 -0.263,-0.725c-0.198,-0.197 -0.44,-0.307 -0.769,-0.307c-0.462,-0 -0.791,0.198 -0.945,0.615c-0.088,0.242 -0.132,0.571 -0.132,1.011l0,7.272c0,0.264 -0.044,0.44 -0.154,0.506c-0.11,0.066 -0.263,0.11 -0.461,0.11l-1.758,-0c-0.263,-0 -0.439,-0.044 -0.505,-0.154c-0.066,-0.11 -0.11,-0.264 -0.11,-0.462l-0,-7.866c-0,-0.285 -0.088,-0.527 -0.264,-0.725c-0.197,-0.197 -0.439,-0.307 -0.769,-0.307c-0.461,-0 -0.791,0.198 -0.945,0.615c-0.087,0.242 -0.131,0.571 -0.131,1.011l0,7.272c0,0.264 -0.044,0.44 -0.154,0.506c-0.11,0.066 -0.264,0.11 -0.462,0.11l-1.757,-0c-0.264,-0 -0.44,-0.044 -0.506,-0.154c-0.066,-0.11 -0.11,-0.264 -0.11,-0.462Z" style="fill-rule:nonzero;"/><path d="M233.538,9.941l-4.417,0c-0.11,0 -0.176,0.022 -0.198,0.088c-0.044,0.044 -0.065,0.11 -0.065,0.176l0,0.703c0,0.593 0.197,1.033 0.571,1.362c0.373,0.308 0.901,0.462 1.582,0.462c0.461,-0 0.901,-0.022 1.274,-0.088c0.374,-0.066 0.791,-0.176 1.209,-0.33c0.373,-0.109 0.549,-0 0.549,0.352l-0,1.802c-0,0.109 -0.022,0.219 -0.066,0.285c-0.066,0.066 -0.176,0.132 -0.352,0.198c-0.483,0.176 -0.966,0.308 -1.472,0.374c-0.505,0.065 -0.944,0.087 -1.34,0.087c-1.274,-0 -2.307,-0.241 -3.098,-0.703c-1.23,-0.725 -1.846,-1.977 -1.846,-3.735l0,-3.713c0,-1.165 0.22,-2.109 0.681,-2.813c0.682,-1.076 1.846,-1.604 3.494,-1.604c0.989,-0 1.824,0.198 2.461,0.616c1.098,0.703 1.648,1.977 1.648,3.801l-0,2.065c-0,0.264 -0.044,0.44 -0.154,0.506c-0.11,0.065 -0.264,0.109 -0.461,0.109Zm-4.461,-2.417l1.868,-0c0.088,-0 0.154,-0.065 0.22,-0.219l-0,-0.484c-0,-0.417 -0.044,-0.747 -0.154,-0.966c-0.198,-0.396 -0.506,-0.594 -0.967,-0.594c-0.374,-0 -0.681,0.132 -0.879,0.396c-0.198,0.242 -0.307,0.637 -0.307,1.164l0,0.484c0,0.154 0.065,0.219 0.219,0.219Z" style="fill-rule:nonzero;"/><path d="M238.787,0.472l0,14.149c0,0.264 -0.044,0.44 -0.154,0.506c-0.11,0.066 -0.264,0.11 -0.461,0.11l-1.758,-0c-0.264,-0 -0.439,-0.044 -0.505,-0.154c-0.066,-0.11 -0.11,-0.264 -0.11,-0.462l-0,-14.149c-0,-0.264 0.066,-0.44 0.176,-0.506c0.109,-0.066 0.241,-0.11 0.439,-0.11l1.758,-0c0.263,-0 0.439,0.066 0.505,0.176c0.066,0.11 0.11,0.242 0.11,0.44Z" style="fill-rule:nonzero;"/><path d="M240.413,10.996l-0,-3.735c-0,-1.187 0.22,-2.131 0.681,-2.835c0.681,-1.054 1.846,-1.582 3.494,-1.582c1.647,-0 2.812,0.528 3.493,1.582c0.461,0.704 0.681,1.648 0.681,2.835l-0,3.735c-0,1.187 -0.22,2.131 -0.681,2.834c-0.681,1.055 -1.846,1.582 -3.493,1.582c-1.648,-0 -2.813,-0.527 -3.494,-1.582c-0.461,-0.703 -0.681,-1.647 -0.681,-2.834Zm2.988,-4.241l0,4.746c0,0.55 0.132,0.923 0.374,1.165c0.197,0.198 0.483,0.286 0.813,0.286c0.329,-0 0.593,-0.088 0.791,-0.286c0.263,-0.242 0.395,-0.637 0.395,-1.165l0,-4.746c0,-0.549 -0.11,-0.922 -0.33,-1.12c-0.241,-0.22 -0.527,-0.33 -0.856,-0.33c-0.33,-0 -0.594,0.088 -0.791,0.286c-0.264,0.242 -0.396,0.637 -0.396,1.164Z" style="fill-rule:nonzero;"/><path d="M250.387,14.621l-0,-10.986c-0,-0.263 0.066,-0.439 0.176,-0.505c0.11,-0.066 0.242,-0.11 0.439,-0.11l1.956,-0c0.11,-0 0.22,0.044 0.307,0.132c0.066,0.066 0.11,0.176 0.11,0.286c0,0.154 0.044,0.219 0.154,0.219c0.022,0 0.088,-0.044 0.198,-0.109c0.22,-0.198 0.439,-0.33 0.659,-0.44c0.374,-0.176 0.813,-0.264 1.274,-0.264c0.769,-0 1.407,0.242 1.912,0.704c0.593,0.571 0.901,1.428 0.901,2.57l-0,8.503c-0,0.264 -0.044,0.44 -0.154,0.506c-0.11,0.066 -0.264,0.11 -0.461,0.11l-1.758,-0c-0.264,-0 -0.44,-0.044 -0.506,-0.154c-0.065,-0.11 -0.109,-0.264 -0.109,-0.462l0,-7.866c0,-0.285 -0.088,-0.527 -0.264,-0.725c-0.198,-0.197 -0.44,-0.307 -0.769,-0.307c-0.462,-0 -0.791,0.198 -0.945,0.615c-0.088,0.242 -0.132,0.571 -0.132,1.011l0,7.272c0,0.264 -0.044,0.44 -0.154,0.506c-0.109,0.066 -0.263,0.11 -0.461,0.11l-1.758,-0c-0.263,-0 -0.439,-0.044 -0.505,-0.154c-0.066,-0.11 -0.11,-0.264 -0.11,-0.462Z" style="fill-rule:nonzero;"/><path d="M270.072,6.404l-0,8.064c-0,0.329 -0.066,0.549 -0.176,0.637c-0.132,0.088 -0.329,0.132 -0.593,0.132l-1.714,-0c-0.264,-0 -0.439,-0.022 -0.527,-0.088c-0.154,-0.11 -0.242,-0.352 -0.242,-0.681l0,-13.843c0,-0.263 0.022,-0.439 0.088,-0.527c0.11,-0.154 0.352,-0.242 0.681,-0.242l1.956,-0c0.219,-0 0.417,0.066 0.571,0.22c0.088,0.066 0.154,0.176 0.22,0.308l2.373,4.746c0.022,0.065 0.066,0.153 0.131,0.241c0.044,0.088 0.088,0.132 0.132,0.132c0.066,-0 0.11,-0.044 0.176,-0.154c0.044,-0.11 0.066,-0.176 0.066,-0.197l2.373,-4.702c0.11,-0.22 0.242,-0.374 0.373,-0.462c0.132,-0.088 0.286,-0.132 0.462,-0.132l1.845,-0c0.33,-0 0.55,0.066 0.638,0.198c0.088,0.11 0.132,0.308 0.132,0.571l-0,13.843c-0,0.329 -0.066,0.549 -0.176,0.637c-0.132,0.088 -0.33,0.132 -0.594,0.132l-1.713,-0c-0.33,-0 -0.55,-0.066 -0.638,-0.176c-0.087,-0.132 -0.131,-0.33 -0.131,-0.593l0,-7.822c-0.022,-0.088 -0.066,-0.132 -0.088,-0.132l-0.066,0.044l-1.714,4.13c-0.088,0.242 -0.176,0.396 -0.264,0.462c-0.088,0.066 -0.197,0.11 -0.329,0.11l-0.747,0c-0.242,0 -0.44,-0.198 -0.593,-0.572l-1.758,-4.306c-0.066,0.022 -0.11,0.022 -0.154,0.022Z" style="fill-rule:nonzero;"/><path d="M288.592,6.316l0,8.152c0,0.241 -0.022,0.395 -0.066,0.483c-0.11,0.198 -0.308,0.286 -0.593,0.286l-1.846,-0c-0.285,-0 -0.417,-0.11 -0.417,-0.352c0,-0.11 -0.066,-0.154 -0.176,-0.154c-0.11,0.044 -0.176,0.088 -0.198,0.11c-0.198,0.176 -0.461,0.308 -0.791,0.418c-0.351,0.109 -0.681,0.153 -1.011,0.153c-0.856,-0 -1.538,-0.307 -2.087,-0.922c-0.593,-0.682 -0.901,-1.67 -0.901,-2.923c0,-1.494 0.484,-2.658 1.45,-3.493c0.572,-0.484 1.538,-0.967 2.879,-1.472l0.549,-0.198c0.154,-0.066 0.22,-0.176 0.22,-0.352c0,-0.307 -0.132,-0.527 -0.396,-0.637c-0.285,-0.11 -0.615,-0.176 -1.01,-0.176c-0.418,0 -0.726,0.022 -0.945,0.066c-0.242,0.066 -0.462,0.132 -0.637,0.176c-0.198,0.044 -0.33,0.088 -0.44,0.132c-0.285,0.11 -0.461,0.154 -0.527,0.154c-0.286,-0 -0.418,-0.132 -0.418,-0.396l-0,-1.362c-0,-0.286 0.154,-0.505 0.484,-0.703c0.549,-0.308 1.45,-0.462 2.746,-0.462c1.67,-0 2.835,0.374 3.472,1.143c0.439,0.527 0.659,1.296 0.659,2.329Zm-2.988,5.625l0,-2.813c0,-0.065 -0.022,-0.131 -0.088,-0.153c-0.066,-0.022 -0.132,-0.022 -0.22,0.044l-0.373,0.241c-0.44,0.286 -0.747,0.55 -0.923,0.791c-0.242,0.352 -0.374,0.791 -0.374,1.341c0,0.373 0.088,0.703 0.242,0.966c0.154,0.242 0.395,0.374 0.725,0.374c0.286,-0 0.527,-0.088 0.725,-0.242c0.198,-0.154 0.286,-0.351 0.286,-0.549Z" style="fill-rule:nonzero;"/><path d="M290.349,14.621l-0,-10.986c-0,-0.263 0.066,-0.439 0.176,-0.505c0.11,-0.066 0.242,-0.11 0.439,-0.11l1.956,-0c0.11,-0 0.219,0.044 0.307,0.132c0.066,0.066 0.11,0.176 0.11,0.286c0,0.154 0.044,0.219 0.154,0.219c0.022,0 0.088,-0.044 0.198,-0.109c0.22,-0.198 0.439,-0.33 0.659,-0.44c0.373,-0.176 0.813,-0.264 1.274,-0.264c0.769,-0 1.407,0.242 1.912,0.704c0.593,0.571 0.901,1.428 0.901,2.57l-0,8.503c-0,0.264 -0.044,0.44 -0.154,0.506c-0.11,0.066 -0.264,0.11 -0.461,0.11l-1.758,-0c-0.264,-0 -0.44,-0.044 -0.506,-0.154c-0.066,-0.11 -0.109,-0.264 -0.109,-0.462l-0,-7.866c-0,-0.285 -0.088,-0.527 -0.264,-0.725c-0.198,-0.197 -0.44,-0.307 -0.769,-0.307c-0.462,-0 -0.791,0.198 -0.945,0.615c-0.088,0.242 -0.132,0.571 -0.132,1.011l0,7.272c0,0.264 -0.044,0.44 -0.154,0.506c-0.109,0.066 -0.263,0.11 -0.461,0.11l-1.758,-0c-0.263,-0 -0.439,-0.044 -0.505,-0.154c-0.066,-0.11 -0.11,-0.264 -0.11,-0.462Z" style="fill-rule:nonzero;"/><path d="M0.143,173.44l470.076,0" style="fill:none;stroke:#000;stroke-width:0.46px;"/><path d="M0.143,168.488l470.076,0" style="fill:none;stroke:#000;stroke-width:0.46px;"/><path d="M0.143,163.537l470.076,0" style="fill:none;stroke:#000;stroke-width:0.46px;"/><path d="M0.143,158.585l470.076,0" style="fill:none;stroke:#000;stroke-width:0.46px;"/><path d="M0.143,153.634l470.076,0" style="fill:none;stroke:#000;stroke-width:0.46px;"/><path d="M14.215,172.782l0.753,3.664c0.039,0.218 0.059,0.416 0.059,0.614c0,1.941 -1.98,3.565 -4.119,3.565c-0.654,0 -1.288,-0.158 -1.882,-0.455c1.525,-0.159 2.674,-1.09 2.674,-2.456c-0,-1.208 -0.99,-2.476 -2.258,-2.476c-1.446,0 -2.436,1.109 -2.436,2.555c0,2.02 1.644,3.347 3.624,3.347c2.654,-0 4.912,-1.723 4.912,-4.199c-0,-0.554 -0.871,-4.476 -0.851,-4.337c2.119,-1.03 3.565,-2.852 3.565,-4.773c0,-2.634 -2.12,-4.655 -4.754,-4.655c-0.039,-0 -0.317,0.02 -0.792,0.06l-0.871,-4.179c2.951,-2.496 4.297,-5.15 4.297,-8.061c-0,-2.238 -0.891,-4.615 -2.693,-7.11c-2.04,1.643 -3.209,4.931 -3.209,8.437c0,1.248 0.159,2.456 0.436,3.604c-4.516,3.783 -6.774,7.269 -6.774,10.458c-0,3.743 3.863,6.853 8.061,6.853c0.931,0 1.624,-0.139 2.258,-0.456Zm-0.059,-26.025c0.653,0.674 0.99,1.466 0.99,2.397c-0,1.921 -1.366,4.08 -4.04,6.457c-0.139,-0.575 -0.179,-1.209 -0.179,-1.902c0,-3.327 1.228,-6.991 2.872,-6.991c0.139,0 0.258,0.02 0.357,0.039Zm0.416,25.213l-1.406,-6.615c0.277,-0.02 0.435,-0.04 0.495,-0.04c1.703,0 2.891,1.605 2.891,3.248c0,1.308 -0.693,2.456 -1.98,3.407Zm-1.902,-6.536l1.426,6.813c-0.693,0.377 -1.465,0.535 -2.396,0.535c-3.209,-0 -5.981,-2.396 -5.981,-5.308c-0,-2.634 1.96,-5.347 5.664,-8.12l0.832,3.961c-2.06,0.436 -3.803,2.179 -3.803,4.139c-0,1.664 1.189,2.833 2.971,3.11c-1.089,-0.674 -1.624,-1.525 -1.624,-2.535c-0,-1.367 1.268,-2.377 2.911,-2.595Z" style="fill-rule:nonzero;"/><path d="M0.143,252.662l470.076,0" style="fill:none;stroke:#000;stroke-width:0.46px;"/><path d="M0.143,247.711l470.076,-0" style="fill:none;stroke:#000;stroke-width:0.46px;"/><path d="M0.143,242.759l470.076,0" style="fill:none;stroke:#000;stroke-width:0.46px;"/><path d="M0.143,237.808l470.076,-0" style="fill:none;stroke:#000;stroke-width:0.46px;"/><path d="M0.143,232.857l470.076,0" style="fill:none;stroke:#000;stroke-width:0.46px;"/><path d="M14.215,252.005l0.753,3.664c0.039,0.218 0.059,0.416 0.059,0.614c0,1.941 -1.98,3.565 -4.119,3.565c-0.654,-0 -1.288,-0.159 -1.882,-0.456c1.525,-0.158 2.674,-1.089 2.674,-2.456c-0,-1.208 -0.99,-2.475 -2.258,-2.475c-1.446,-0 -2.436,1.109 -2.436,2.555c0,2.02 1.644,3.347 3.624,3.347c2.654,-0 4.912,-1.723 4.912,-4.199c-0,-0.555 -0.871,-4.476 -0.851,-4.337c2.119,-1.03 3.565,-2.852 3.565,-4.774c0,-2.634 -2.12,-4.654 -4.754,-4.654c-0.039,0 -0.317,0.02 -0.792,0.059l-0.871,-4.179c2.951,-2.495 4.297,-5.149 4.297,-8.06c-0,-2.238 -0.891,-4.615 -2.693,-7.111c-2.04,1.644 -3.209,4.932 -3.209,8.438c0,1.247 0.159,2.455 0.436,3.604c-4.516,3.783 -6.774,7.269 -6.774,10.458c-0,3.743 3.863,6.852 8.061,6.852c0.931,-0 1.624,-0.138 2.258,-0.455Zm-0.059,-26.025c0.653,0.674 0.99,1.466 0.99,2.397c-0,1.921 -1.366,4.08 -4.04,6.456c-0.139,-0.574 -0.179,-1.208 -0.179,-1.901c0,-3.327 1.228,-6.991 2.872,-6.991c0.139,0 0.258,0.019 0.357,0.039Zm0.416,25.213l-1.406,-6.615c0.277,-0.02 0.435,-0.04 0.495,-0.04c1.703,0 2.891,1.604 2.891,3.248c0,1.307 -0.693,2.456 -1.98,3.407Zm-1.902,-6.536l1.426,6.813c-0.693,0.376 -1.465,0.535 -2.396,0.535c-3.209,-0 -5.981,-2.397 -5.981,-5.308c-0,-2.634 1.96,-5.348 5.664,-8.12l0.832,3.961c-2.06,0.435 -3.803,2.178 -3.803,4.139c-0,1.664 1.189,2.832 2.971,3.11c-1.089,-0.674 -1.624,-1.525 -1.624,-2.536c-0,-1.366 1.268,-2.376 2.911,-2.594Z" style="fill-rule:nonzero;"/><path d="M0.143,331.885l470.076,0" style="fill:none;stroke:#000;stroke-width:0.46px;"/><path d="M0.143,326.934l470.076,0" style="fill:none;stroke:#000;stroke-width:0.46px;"/><path d="M0.143,321.982l470.076,0" style="fill:none;stroke:#000;stroke-width:0.46px;"/><path d="M0.143,317.031l470.076,0" style="fill:none;stroke:#000;stroke-width:0.46px;"/><path d="M0.143,312.079l470.076,0" style="fill:none;stroke:#000;stroke-width:0.46px;"/><path d="M14.215,331.228l0.753,3.664c0.039,0.217 0.059,0.416 0.059,0.614c0,1.941 -1.98,3.565 -4.119,3.565c-0.654,-0 -1.288,-0.159 -1.882,-0.456c1.525,-0.158 2.674,-1.089 2.674,-2.456c-0,-1.208 -0.99,-2.476 -2.258,-2.476c-1.446,0 -2.436,1.11 -2.436,2.555c0,2.021 1.644,3.348 3.624,3.348c2.654,-0 4.912,-1.724 4.912,-4.199c-0,-0.555 -0.871,-4.476 -0.851,-4.338c2.119,-1.03 3.565,-2.852 3.565,-4.773c0,-2.634 -2.12,-4.654 -4.754,-4.654c-0.039,-0 -0.317,0.02 -0.792,0.059l-0.871,-4.179c2.951,-2.495 4.297,-5.149 4.297,-8.061c-0,-2.238 -0.891,-4.614 -2.693,-7.11c-2.04,1.644 -3.209,4.932 -3.209,8.437c0,1.248 0.159,2.456 0.436,3.605c-4.516,3.783 -6.774,7.269 -6.774,10.457c-0,3.744 3.863,6.853 8.061,6.853c0.931,-0 1.624,-0.139 2.258,-0.455Zm-0.059,-26.025c0.653,0.673 0.99,1.465 0.99,2.396c-0,1.922 -1.366,4.08 -4.04,6.457c-0.139,-0.574 -0.179,-1.208 -0.179,-1.901c0,-3.328 1.228,-6.992 2.872,-6.992c0.139,-0 0.258,0.02 0.357,0.04Zm0.416,25.213l-1.406,-6.616c0.277,-0.019 0.435,-0.039 0.495,-0.039c1.703,-0 2.891,1.604 2.891,3.248c0,1.307 -0.693,2.456 -1.98,3.407Zm-1.902,-6.536l1.426,6.813c-0.693,0.376 -1.465,0.535 -2.396,0.535c-3.209,-0 -5.981,-2.397 -5.981,-5.308c-0,-2.635 1.96,-5.348 5.664,-8.121l0.832,3.961c-2.06,0.436 -3.803,2.179 -3.803,4.14c-0,1.663 1.189,2.832 2.971,3.109c-1.089,-0.673 -1.624,-1.525 -1.624,-2.535c-0,-1.366 1.268,-2.377 2.911,-2.594Z" style="fill-rule:nonzero;"/><path d="M255.042,332.438c-2.693,-1.644 -4.198,-4.358 -4.198,-7.962c-0,-3.605 1.505,-6.318 4.198,-7.962l-0.614,-0.753c-3.188,1.882 -4.832,4.932 -4.832,8.715c-0,3.783 1.644,6.833 4.832,8.714l0.614,-0.752Z" style="fill-rule:nonzero;"/><path d="M273.387,316.514c2.694,1.644 4.199,4.357 4.199,7.962c-0,3.604 -1.505,6.318 -4.199,7.962l0.614,0.752c3.189,-1.881 4.833,-4.931 4.833,-8.714c0,-3.783 -1.644,-6.833 -4.833,-8.715l-0.614,0.753Z" style="fill-rule:nonzero;"/><path d="M312.967,333.52c0,1.141 -0.276,2.03 -0.827,2.657c-0.564,0.627 -1.291,0.94 -2.219,0.94c-0.952,0 -1.704,-0.326 -2.243,-0.965c-0.539,-0.652 -0.815,-1.529 -0.815,-2.632c0,-1.153 0.276,-2.03 0.84,-2.67c0.564,-0.626 1.304,-0.952 2.218,-0.952c0.928,-0 1.655,0.326 2.219,0.952c0.551,0.627 0.827,1.517 0.827,2.67Zm-1.191,-0c0,-0.89 -0.15,-1.554 -0.476,-1.98c-0.326,-0.426 -0.789,-0.639 -1.379,-0.639c-0.601,0 -1.065,0.213 -1.391,0.639c-0.326,0.426 -0.476,1.09 -0.476,1.98c-0,0.852 0.15,1.504 0.476,1.943c0.326,0.438 0.79,0.664 1.391,0.664c0.59,0 1.053,-0.213 1.379,-0.652c0.313,-0.438 0.476,-1.09 0.476,-1.955Z" style="fill-rule:nonzero;"/><path d="M317.753,328.507l-0.063,-0c-0.113,-0.038 -0.251,-0.076 -0.451,-0.101c-0.188,-0.037 -0.351,-0.062 -0.514,-0.062c-0.476,-0 -0.827,0.113 -1.028,0.338c-0.213,0.213 -0.313,0.602 -0.313,1.178l0,0.238l1.905,-0l0,0.953l-1.868,-0l-0,5.878l-1.153,-0l0,-5.878l-0.777,-0l-0,-0.953l0.777,-0l0,-0.225c0,-0.827 0.201,-1.454 0.602,-1.88c0.388,-0.439 0.952,-0.652 1.692,-0.652c0.213,-0 0.426,0.013 0.627,0.038c0.2,0.025 0.388,0.05 0.564,0.075l-0,1.053Z" style="fill-rule:nonzero;"/><path d="M348.346,330.117c-2.694,-1.644 -4.199,-4.358 -4.199,-7.962c0,-3.605 1.505,-6.318 4.199,-7.962l-0.614,-0.753c-3.189,1.882 -4.833,4.932 -4.833,8.715c-0,3.783 1.644,6.833 4.833,8.714l0.614,-0.752Z" style="fill-rule:nonzero;"/><path d="M457.828,309.241c2.693,1.644 4.199,4.358 4.199,7.962c0,3.605 -1.506,6.318 -4.199,7.962l0.614,0.753c3.189,-1.882 4.832,-4.932 4.832,-8.715c-0,-3.783 -1.643,-6.833 -4.832,-8.714l-0.614,0.752Z" style="fill-rule:nonzero;"/><path d="M71.836,94.272c2.04,0 4.555,-1.703 4.555,-3.446c-0,-1.05 -0.93,-1.723 -2.257,-1.723c-2.001,-0 -4.516,1.664 -4.516,3.446c-0,1.09 0.97,1.723 2.218,1.723Z" style="fill-rule:nonzero;"/><path d="M94.736,89.321c2.04,-0 4.556,-1.703 4.556,-3.446c-0,-1.05 -0.931,-1.723 -2.258,-1.723c-2,-0 -4.516,1.663 -4.516,3.446c-0,1.089 0.971,1.723 2.218,1.723Z" style="fill-rule:nonzero;"/><path d="M86.638,90.371l2.793,-2.06c1.228,-0.891 1.703,-1.901 1.743,-2.654c0,-1.109 -1.01,-1.941 -2.199,-1.941c-0.831,0 -1.445,0.317 -1.841,0.97l0.138,-6.238l-0.634,-0l0,11.923Zm1.842,-5.863c0.634,-0 1.109,0.456 1.109,1.07c-0,1.03 -1.366,3.01 -2.396,3.664c-0.059,-0.337 -0.099,-0.991 -0.099,-1.961c0,-0.535 0.04,-1.188 0.119,-1.941c0.297,-0.555 0.713,-0.832 1.267,-0.832Z" style="fill-rule:nonzero;"/><path d="M117.637,86.845c2.04,0 4.555,-1.703 4.555,-3.446c0,-1.05 -0.931,-1.723 -2.258,-1.723c-2,-0 -4.515,1.664 -4.515,3.446c-0,1.089 0.97,1.723 2.218,1.723Z" style="fill-rule:nonzero;"/><path d="M109.539,87.895l2.792,-2.06c1.228,-0.891 1.704,-1.901 1.743,-2.654c-0,-1.109 -1.01,-1.941 -2.198,-1.941c-0.832,-0 -1.446,0.317 -1.842,0.971l0.139,-6.239l-0.634,-0l0,11.923Zm1.842,-5.863c0.633,0 1.109,0.456 1.109,1.07c-0,1.03 -1.367,3.01 -2.397,3.664c-0.059,-0.337 -0.099,-0.99 -0.099,-1.961c0,-0.534 0.04,-1.188 0.119,-1.941c0.297,-0.554 0.713,-0.832 1.268,-0.832Z" style="fill-rule:nonzero;"/><path d="M140.537,84.37c2.04,-0 4.555,-1.704 4.555,-3.447c-0,-1.049 -0.93,-1.723 -2.257,-1.723c-2.001,0 -4.516,1.664 -4.516,3.446c0,1.09 0.97,1.724 2.218,1.724Z" style="fill-rule:nonzero;"/><path d="M163.437,79.418c2.04,-0 4.556,-1.703 4.556,-3.446c-0,-1.05 -0.931,-1.723 -2.258,-1.723c-2.001,-0 -4.516,1.664 -4.516,3.446c-0,1.089 0.971,1.723 2.218,1.723Z" style="fill-rule:nonzero;"/><path d="M155.339,80.468l2.793,-2.06c1.228,-0.891 1.703,-1.901 1.743,-2.654c0,-1.109 -1.01,-1.941 -2.199,-1.941c-0.831,-0 -1.445,0.317 -1.841,0.971l0.138,-6.239l-0.634,0l0,11.923Zm1.842,-5.863c0.634,0 1.109,0.456 1.109,1.07c-0,1.03 -1.366,3.01 -2.396,3.664c-0.059,-0.337 -0.099,-0.99 -0.099,-1.961c-0,-0.535 0.04,-1.188 0.119,-1.941c0.297,-0.554 0.713,-0.832 1.267,-0.832Z" style="fill-rule:nonzero;"/><path d="M186.338,76.942c2.04,-0 4.555,-1.703 4.555,-3.446c0,-1.049 -0.931,-1.723 -2.258,-1.723c-2,0 -4.515,1.664 -4.515,3.446c-0,1.09 0.97,1.723 2.218,1.723Z" style="fill-rule:nonzero;"/><path d="M37.725,239.632l-0,-2.892l-9.111,9.091l0,2.892l9.111,-9.091Z" style="fill-rule:nonzero;"/><path d="M63.874,239.632l0,-2.892l-9.11,9.091l-0,2.892l9.11,-9.091Z" style="fill-rule:nonzero;"/><path d="M90.179,239.632l0,-2.892l-9.111,9.091l0,2.892l9.111,-9.091Z" style="fill-rule:nonzero;"/><path d="M116.328,239.632l0,-2.892l-9.11,9.091l0,2.892l9.11,-9.091Z" style="fill-rule:nonzero;"/><path d="M150.06,239.632l-0,-2.892l-9.111,9.091l0,2.892l9.111,-9.091Z" style="fill-rule:nonzero;"/><path d="M176.21,239.632l0,-2.892l-9.111,9.091l-0,2.892l9.111,-9.091Z" style="fill-rule:nonzero;"/><path d="M202.359,239.632l-0,-2.892l-9.11,9.091l-0,2.892l9.11,-9.091Z" style="fill-rule:nonzero;"/><path d="M228.664,239.632l0,-2.892l-9.111,9.091l-0,2.892l9.111,-9.091Z" style="fill-rule:nonzero;"/><path d="M262.241,239.632l-0,-2.892l-9.111,9.091l0,2.892l9.111,-9.091Z" style="fill-rule:nonzero;"/><path d="M288.39,239.632l0,-2.892l-9.11,9.091l-0,2.892l9.11,-9.091Z" style="fill-rule:nonzero;"/><path d="M314.695,239.632l0,-2.892l-9.111,9.091l0,2.892l9.111,-9.091Z" style="fill-rule:nonzero;"/><path d="M340.844,239.632l-0,-2.892l-9.11,9.091l0,2.892l9.11,-9.091Z" style="fill-rule:nonzero;"/><path d="M374.576,239.632l-0,-2.892l-9.111,9.091l-0,2.892l9.111,-9.091Z" style="fill-rule:nonzero;"/><path d="M400.726,239.632l0,-2.892l-9.111,9.091l-0,2.892l9.111,-9.091Z" style="fill-rule:nonzero;"/><path d="M426.875,239.632l0,-2.892l-9.11,9.091l0,2.892l9.11,-9.091Z" style="fill-rule:nonzero;"/><path d="M453.18,239.632l-0,-2.892l-9.111,9.091l0,2.892l9.111,-9.091Z" style="fill-rule:nonzero;"/><path d="M37.725,318.855l-0,-2.892l-9.111,9.091l0,2.892l9.111,-9.091Z" style="fill-rule:nonzero;"/><path d="M61.863,318.855l-0,-2.892l-9.111,9.091l-0,2.892l9.111,-9.091Z" style="fill-rule:nonzero;"/><path d="M86.001,318.855l-0,-2.892l-9.111,9.091l-0,2.892l9.111,-9.091Z" style="fill-rule:nonzero;"/><path d="M110.294,318.855l-0,-2.892l-9.111,9.091l-0,2.892l9.111,-9.091Z" style="fill-rule:nonzero;"/><path d="M141.859,318.855l-0,-2.892l-9.11,9.091l-0,2.892l9.11,-9.091Z" style="fill-rule:nonzero;"/><path d="M165.997,318.855l-0,-2.892l-9.11,9.091l-0,2.892l9.11,-9.091Z" style="fill-rule:nonzero;"/><path d="M190.135,318.855l-0,-2.892l-9.11,9.091l-0,2.892l9.11,-9.091Z" style="fill-rule:nonzero;"/><path d="M214.274,318.855l0,-2.892l-9.111,9.091l-0,2.892l9.111,-9.091Z" style="fill-rule:nonzero;"/><path d="M261.021,330.277c-0,1.109 1.09,1.763 2.436,1.763c2.258,-0 4.536,-1.506 4.536,-3.367c0,-1.268 -1.07,-2.001 -2.714,-2.001c-2.02,-0 -4.258,1.783 -4.258,3.605Zm5.387,-3.011c0.753,-0 1.129,0.317 1.129,0.931c-0,1.149 -3.525,3.248 -4.931,3.248c-0.753,-0 -1.129,-0.316 -1.129,-0.93c-0,-1.228 3.664,-3.249 4.931,-3.249Z" style="fill-rule:nonzero;"/><path d="M261.021,325.325c-0,1.11 1.09,1.763 2.436,1.763c2.258,0 4.536,-1.505 4.536,-3.367c0,-1.267 -1.07,-2 -2.714,-2c-2.02,0 -4.258,1.782 -4.258,3.604Zm5.387,-3.01c0.753,0 1.129,0.317 1.129,0.931c-0,1.149 -3.525,3.248 -4.931,3.248c-0.753,0 -1.129,-0.317 -1.129,-0.931c-0,-1.228 3.664,-3.248 4.931,-3.248Z" style="fill-rule:nonzero;"/><path d="M261.021,320.374c-0,1.109 1.09,1.763 2.436,1.763c2.258,-0 4.536,-1.505 4.536,-3.367c0,-1.268 -1.07,-2.001 -2.714,-2.001c-2.02,-0 -4.258,1.783 -4.258,3.605Zm5.387,-3.01c0.753,0 1.129,0.316 1.129,0.93c-0,1.149 -3.525,3.249 -4.931,3.249c-0.753,-0 -1.129,-0.317 -1.129,-0.931c-0,-1.228 3.664,-3.248 4.931,-3.248Z" style="fill-rule:nonzero;"/><path d="M359.947,331.941c2.04,-0 4.555,-1.704 4.555,-3.447c0,-1.049 -0.931,-1.723 -2.258,-1.723c-2,-0 -4.515,1.664 -4.515,3.446c0,1.09 0.97,1.724 2.218,1.724Z" style="fill-rule:nonzero;"/><path d="M377.432,326.989c2.04,0 4.555,-1.703 4.555,-3.446c-0,-1.05 -0.931,-1.723 -2.258,-1.723c-2,-0 -4.516,1.664 -4.516,3.446c0,1.089 0.971,1.723 2.219,1.723Z" style="fill-rule:nonzero;"/><path d="M369.334,328.039l2.792,-2.06c1.228,-0.891 1.703,-1.901 1.743,-2.654c-0,-1.109 -1.01,-1.941 -2.198,-1.941c-0.832,0 -1.446,0.317 -1.842,0.971l0.138,-6.239l-0.633,-0l0,11.923Zm1.841,-5.863c0.634,0 1.11,0.456 1.11,1.07c0,1.03 -1.367,3.01 -2.397,3.664c-0.059,-0.337 -0.099,-0.99 -0.099,-1.961c0,-0.535 0.04,-1.188 0.119,-1.941c0.297,-0.554 0.713,-0.832 1.267,-0.832Z" style="fill-rule:nonzero;"/><path d="M394.916,324.513c2.04,-0 4.556,-1.703 4.556,-3.446c-0,-1.049 -0.931,-1.723 -2.258,-1.723c-2.001,-0 -4.516,1.664 -4.516,3.446c-0,1.09 0.971,1.723 2.218,1.723Z" style="fill-rule:nonzero;"/><path d="M386.818,325.563l2.793,-2.06c1.228,-0.891 1.703,-1.901 1.743,-2.654c0,-1.109 -1.01,-1.941 -2.199,-1.941c-0.832,0 -1.446,0.317 -1.842,0.971l0.139,-6.239l-0.634,-0l-0,11.923Zm1.842,-5.862c0.634,0 1.109,0.455 1.109,1.069c0,1.03 -1.366,3.011 -2.396,3.664c-0.06,-0.336 -0.099,-0.99 -0.099,-1.961c-0,-0.534 0.039,-1.188 0.119,-1.941c0.297,-0.554 0.713,-0.831 1.267,-0.831Z" style="fill-rule:nonzero;"/><path d="M412.401,322.038c2.04,0 4.555,-1.704 4.555,-3.446c-0,-1.05 -0.931,-1.724 -2.258,-1.724c-2,0 -4.515,1.664 -4.515,3.447c0,1.089 0.97,1.723 2.218,1.723Z" style="fill-rule:nonzero;"/><path d="M429.886,317.086c2.04,0 4.555,-1.703 4.555,-3.446c0,-1.05 -0.931,-1.723 -2.258,-1.723c-2,-0 -4.516,1.664 -4.516,3.446c-0,1.09 0.971,1.723 2.219,1.723Z" style="fill-rule:nonzero;"/><path d="M421.788,318.136l2.792,-2.06c1.228,-0.891 1.704,-1.901 1.743,-2.654c-0,-1.109 -1.01,-1.941 -2.198,-1.941c-0.832,0 -1.446,0.317 -1.842,0.971l0.138,-6.239l-0.633,0l-0,11.923Zm1.842,-5.862c0.633,0 1.109,0.455 1.109,1.069c0,1.03 -1.367,3.01 -2.397,3.664c-0.059,-0.337 -0.099,-0.99 -0.099,-1.961c0,-0.534 0.04,-1.188 0.119,-1.941c0.297,-0.554 0.713,-0.831 1.268,-0.831Z" style="fill-rule:nonzero;"/><path d="M447.37,314.611c2.04,0 4.556,-1.704 4.556,-3.447c-0,-1.049 -0.931,-1.723 -2.258,-1.723c-2.001,-0 -4.516,1.664 -4.516,3.446c0,1.09 0.971,1.724 2.218,1.724Z" style="fill-rule:nonzero;"/></g></svg>