<?xml version="1.0" encoding="UTF-8" standalone="no"?>
<!DOCTYPE svg PUBLIC "-//W3C//DTD SVG 1.1//EN" "http://www.w3.org/Graphics/SVG/1.1/DTD/svg11.dtd">
<svg width="100%" height="100%" viewBox="0 0 502 34" version="1.1" xmlns="http://www.w3.org/2000/svg" xmlns:xlink="http://www.w3.org/1999/xlink" xml:space="preserve" xmlns:serif="http://www.serif.com/" style="fill-rule:evenodd;clip-rule:evenodd;stroke-linejoin:round;stroke-miterlimit:2;">
    <g>
        <path d="M136.48,8.242L136.48,25.264" style="fill:none;stroke:black;stroke-width:0.66px;"/>
        <path d="M138.741,8.242L138.741,25.264" style="fill:none;stroke:black;stroke-width:0.66px;"/>
        <path d="M257.235,8.242L257.235,25.264" style="fill:none;stroke:black;stroke-width:0.66px;"/>
        <path d="M259.496,8.242L259.496,25.264" style="fill:none;stroke:black;stroke-width:0.66px;"/>
        <path d="M378.124,8.242L378.124,25.264" style="fill:none;stroke:black;stroke-width:0.66px;"/>
        <path d="M380.384,8.242L380.384,25.264" style="fill:none;stroke:black;stroke-width:0.66px;"/>
        <path d="M498.879,8.242L498.879,25.264" style="fill:none;stroke:black;stroke-width:0.66px;"/>
        <path d="M501.14,8.242L501.14,25.264" style="fill:none;stroke:black;stroke-width:0.66px;"/>
        <path d="M0.032,25.264L501.406,25.264" style="fill:none;stroke:black;stroke-width:0.4px;"/>
        <path d="M0.032,21.009L501.406,21.009" style="fill:none;stroke:black;stroke-width:0.4px;"/>
        <path d="M0.032,16.753L501.406,16.753" style="fill:none;stroke:black;stroke-width:0.4px;"/>
        <path d="M0.032,12.497L501.406,12.497" style="fill:none;stroke:black;stroke-width:0.4px;"/>
        <path d="M0.032,8.242L501.406,8.242" style="fill:none;stroke:black;stroke-width:0.4px;"/>
        <path d="M12.127,24.699L12.774,27.849C12.808,28.036 12.825,28.206 12.825,28.376C12.825,30.045 11.122,31.44 9.284,31.44C8.722,31.44 8.177,31.304 7.667,31.049C8.977,30.913 9.965,30.113 9.965,28.938C9.965,27.9 9.114,26.81 8.024,26.81C6.782,26.81 5.93,27.763 5.93,29.006C5.93,30.742 7.343,31.883 9.046,31.883C11.327,31.883 13.267,30.402 13.267,28.274C13.267,27.798 12.518,24.427 12.535,24.546C14.357,23.661 15.599,22.095 15.599,20.444C15.599,18.18 13.778,16.443 11.514,16.443C11.48,16.443 11.242,16.46 10.833,16.494L10.084,12.903C12.62,10.758 13.778,8.477 13.778,5.974C13.778,4.051 13.012,2.008 11.463,-0.137C9.709,1.276 8.705,4.102 8.705,7.115C8.705,8.187 8.841,9.226 9.08,10.213C5.198,13.464 3.258,16.46 3.258,19.201C3.258,22.418 6.577,25.091 10.186,25.091C10.986,25.091 11.582,24.972 12.127,24.699ZM12.076,2.331C12.637,2.91 12.927,3.591 12.927,4.391C12.927,6.042 11.752,7.898 9.454,9.941C9.335,9.447 9.301,8.902 9.301,8.306C9.301,5.447 10.356,2.297 11.769,2.297C11.888,2.297 11.991,2.314 12.076,2.331ZM12.433,24.001L11.225,18.316C11.463,18.299 11.599,18.282 11.65,18.282C13.114,18.282 14.135,19.661 14.135,21.074C14.135,22.197 13.54,23.184 12.433,24.001ZM10.799,18.384L12.025,24.24C11.429,24.563 10.765,24.699 9.965,24.699C7.207,24.699 4.824,22.64 4.824,20.137C4.824,17.873 6.509,15.541 9.692,13.158L10.407,16.562C8.637,16.937 7.139,18.435 7.139,20.12C7.139,21.55 8.16,22.554 9.692,22.793C8.756,22.214 8.297,21.482 8.297,20.614C8.297,19.439 9.386,18.571 10.799,18.384Z" style="fill-rule:nonzero;"/>
        <path d="M30.221,18.216L30.221,3.986" style="fill:none;stroke:black;stroke-width:0.4px;"/>
        <path d="M26.409,21.056C28.162,21.056 30.324,19.593 30.324,18.095C30.324,17.192 29.524,16.614 28.383,16.614C26.664,16.614 24.502,18.043 24.502,19.576C24.502,20.512 25.336,21.056 26.409,21.056Z" style="fill-rule:nonzero;"/>
        <path d="M52.031,17.418L52.031,31.648" style="fill:none;stroke:black;stroke-width:0.4px;"/>
        <path d="M53.805,18.929C55.558,18.929 57.72,17.465 57.72,15.967C57.72,15.064 56.92,14.486 55.779,14.486C54.06,14.486 51.898,15.916 51.898,17.448C51.898,18.384 52.732,18.929 53.805,18.929Z" style="fill-rule:nonzero;"/>
        <path d="M46.845,19.831L49.245,18.06C50.3,17.294 50.709,16.426 50.743,15.779C50.743,14.826 49.875,14.111 48.853,14.111C48.138,14.111 47.611,14.384 47.27,14.945L47.389,9.583L46.845,9.583L46.845,19.831ZM48.428,14.792C48.972,14.792 49.381,15.184 49.381,15.711C49.381,16.597 48.206,18.299 47.321,18.861C47.27,18.571 47.236,18.009 47.236,17.175C47.236,16.716 47.27,16.154 47.338,15.507C47.594,15.03 47.951,14.792 48.428,14.792Z" style="fill-rule:nonzero;"/>
        <path d="M79.294,13.162L79.294,27.392" style="fill:none;stroke:black;stroke-width:0.4px;"/>
        <path d="M81.068,14.673C82.821,14.673 84.983,13.209 84.983,11.711C84.983,10.809 84.183,10.23 83.042,10.23C81.323,10.23 79.161,11.66 79.161,13.192C79.161,14.128 79.995,14.673 81.068,14.673Z" style="fill-rule:nonzero;"/>
        <path d="M106.69,11.034L106.69,25.264" style="fill:none;stroke:black;stroke-width:0.4px;"/>
        <path d="M108.464,12.545C110.217,12.545 112.379,11.081 112.379,9.583C112.379,8.681 111.579,8.102 110.438,8.102C108.719,8.102 106.557,9.532 106.557,11.064C106.557,12 107.391,12.545 108.464,12.545Z" style="fill-rule:nonzero;"/>
        <path d="M151.109,26.727L151.109,12.497" style="fill:none;stroke:black;stroke-width:0.4px;"/>
        <path d="M147.297,29.568C149.05,29.568 151.212,28.104 151.212,26.606C151.212,25.704 150.412,25.125 149.272,25.125C147.552,25.125 145.39,26.555 145.39,28.087C145.39,29.023 146.225,29.568 147.297,29.568Z" style="fill-rule:nonzero;"/>
        <path d="M178.372,24.6L178.372,10.37" style="fill:none;stroke:black;stroke-width:0.4px;"/>
        <path d="M174.56,27.44C176.313,27.44 178.475,25.976 178.475,24.478C178.475,23.576 177.675,22.997 176.535,22.997C174.815,22.997 172.654,24.427 172.654,25.959C172.654,26.895 173.488,27.44 174.56,27.44Z" style="fill-rule:nonzero;"/>
        <path d="M167.6,28.342L170,26.572C171.056,25.806 171.464,24.938 171.498,24.291C171.498,23.338 170.63,22.623 169.609,22.623C168.894,22.623 168.366,22.895 168.025,23.457L168.145,18.095L167.6,18.095L167.6,28.342ZM169.183,23.303C169.728,23.303 170.136,23.695 170.136,24.223C170.136,25.108 168.962,26.81 168.077,27.372C168.025,27.083 167.991,26.521 167.991,25.687C167.991,25.227 168.025,24.665 168.094,24.018C168.349,23.542 168.706,23.303 169.183,23.303Z" style="fill-rule:nonzero;"/>
        <path d="M205.768,20.344L205.768,6.114" style="fill:none;stroke:black;stroke-width:0.4px;"/>
        <path d="M201.956,23.184C203.709,23.184 205.871,21.72 205.871,20.222C205.871,19.32 205.071,18.741 203.931,18.741C202.211,18.741 200.05,20.171 200.05,21.703C200.05,22.64 200.884,23.184 201.956,23.184Z" style="fill-rule:nonzero;"/>
        <path d="M233.031,18.216L233.031,3.986" style="fill:none;stroke:black;stroke-width:0.4px;"/>
        <path d="M229.219,21.056C230.972,21.056 233.134,19.593 233.134,18.095C233.134,17.192 232.334,16.614 231.194,16.614C229.474,16.614 227.313,18.043 227.313,19.576C227.313,20.512 228.147,21.056 229.219,21.056Z" style="fill-rule:nonzero;"/>
        <path d="M271.864,24.6L271.864,10.37" style="fill:none;stroke:black;stroke-width:0.4px;"/>
        <path d="M268.052,27.44C269.806,27.44 271.968,25.976 271.968,24.478C271.968,23.576 271.167,22.997 270.027,22.997C268.308,22.997 266.146,24.427 266.146,25.959C266.146,26.895 266.98,27.44 268.052,27.44Z" style="fill-rule:nonzero;"/>
        <path d="M264.92,31.032L264.92,21.891L262.316,22.81L262.316,19.388L261.89,19.388L261.89,28.529L264.495,27.627L264.495,31.032L264.92,31.032ZM262.316,24.189L264.495,23.389L264.495,26.248L262.316,27.031L262.316,24.189Z" style="fill-rule:nonzero;"/>
        <path d="M299.26,22.472L299.26,8.242" style="fill:none;stroke:black;stroke-width:0.4px;"/>
        <path d="M295.448,25.312C297.202,25.312 299.364,23.848 299.364,22.35C299.364,21.448 298.563,20.869 297.423,20.869C295.704,20.869 293.542,22.299 293.542,23.831C293.542,24.767 294.376,25.312 295.448,25.312Z" style="fill-rule:nonzero;"/>
        <path d="M326.523,18.216L326.523,3.986" style="fill:none;stroke:black;stroke-width:0.4px;"/>
        <path d="M322.711,21.056C324.465,21.056 326.627,19.593 326.627,18.095C326.627,17.192 325.826,16.614 324.686,16.614C322.967,16.614 320.805,18.043 320.805,19.576C320.805,20.512 321.639,21.056 322.711,21.056Z" style="fill-rule:nonzero;"/>
        <path d="M348.334,17.418L348.334,31.648" style="fill:none;stroke:black;stroke-width:0.4px;"/>
        <path d="M350.107,18.929C351.861,18.929 354.023,17.465 354.023,15.967C354.023,15.064 353.222,14.486 352.082,14.486C350.363,14.486 348.201,15.916 348.201,17.448C348.201,18.384 349.035,18.929 350.107,18.929Z" style="fill-rule:nonzero;"/>
        <path d="M385.438,29.52L394.481,29.52" style="fill:none;stroke:black;stroke-width:0.66px;"/>
        <path d="M392.753,30.983L392.753,16.753" style="fill:none;stroke:black;stroke-width:0.4px;"/>
        <path d="M388.941,33.824C390.694,33.824 392.856,32.36 392.856,30.862C392.856,29.959 392.056,29.381 390.915,29.381C389.196,29.381 387.034,30.811 387.034,32.343C387.034,33.279 387.868,33.824 388.941,33.824Z" style="fill-rule:nonzero;"/>
        <path d="M412.701,29.52L421.744,29.52" style="fill:none;stroke:black;stroke-width:0.66px;"/>
        <path d="M420.016,28.855L420.016,14.625" style="fill:none;stroke:black;stroke-width:0.4px;"/>
        <path d="M416.204,31.696C417.957,31.696 420.119,30.232 420.119,28.734C420.119,27.832 419.319,27.253 418.178,27.253C416.459,27.253 414.297,28.683 414.297,30.215C414.297,31.151 415.131,31.696 416.204,31.696Z" style="fill-rule:nonzero;"/>
        <path d="M447.412,24.6L447.412,10.37" style="fill:none;stroke:black;stroke-width:0.4px;"/>
        <path d="M443.6,27.44C445.353,27.44 447.515,25.976 447.515,24.478C447.515,23.576 446.715,22.997 445.574,22.997C443.855,22.997 441.693,24.427 441.693,25.959C441.693,26.895 442.527,27.44 443.6,27.44Z" style="fill-rule:nonzero;"/>
        <path d="M474.675,22.472L474.675,8.242" style="fill:none;stroke:black;stroke-width:0.4px;"/>
        <path d="M470.863,25.312C472.616,25.312 474.778,23.848 474.778,22.35C474.778,21.448 473.978,20.869 472.837,20.869C471.118,20.869 468.956,22.299 468.956,23.831C468.956,24.767 469.79,25.312 470.863,25.312Z" style="fill-rule:nonzero;"/>
        <path d="M466.448,24.291L464.814,24.836L464.814,21.891L466.448,21.346L466.448,24.291ZM466.448,17.243L466.448,19.797L464.814,20.342L464.814,17.788L464.389,17.788L464.389,20.461L463.503,20.75L463.503,22.299L464.389,22.01L464.389,24.955L463.503,25.244L463.503,26.793L464.389,26.504L464.389,28.938L464.814,28.938L464.814,26.385L466.448,25.84L466.448,28.393L466.874,28.393L466.874,25.721L467.759,25.431L467.759,23.882L466.874,24.172L466.874,21.227L467.759,20.937L467.759,19.388L466.874,19.678L466.874,17.243L466.448,17.243Z" style="fill-rule:nonzero;"/>
    </g>
</svg>
