<svg clip-rule="evenodd" fill-rule="evenodd" stroke-linejoin="round" stroke-miterlimit="2" viewBox="0 0 210 38" xmlns="http://www.w3.org/2000/svg"><path d="m116.509 9.654v19.882" fill="none" stroke="#000" stroke-width=".78"/><path d="m206.131 9.654v19.882" fill="none" stroke="#000" stroke-width=".78"/><path d="m208.772 9.654v19.882" fill="none" stroke="#000" stroke-width=".78"/><path d="m30.081 16.862v-.842h-1.263v-4.508l-2.504 2.224v2.284h-2.705c.3-.761 1.122-1.803 2.464-3.145 1.222-1.223 1.924-2.305 2.124-3.206h-3.426c-.161 1.963-1.323 4.829-2.545 6.391v.802h4.088c0 .701-.02 1.102-.061 1.202-.12.22-.5.361-1.122.401l-.04.561h4.929l-.08-.581c-.962-.08-1.142-.181-1.142-.681 0-.061 0-.181.02-.381v-.521z" fill-rule="nonzero"/><path d="m30.081 26.936v-.841h-1.263v-4.509l-2.504 2.224v2.285h-2.705c.3-.762 1.122-1.804 2.464-3.146 1.222-1.222 1.924-2.304 2.124-3.206h-3.426c-.161 1.964-1.323 4.829-2.545 6.392v.801h4.088c0 .701-.02 1.102-.061 1.202-.12.221-.5.361-1.122.401l-.04.561h4.929l-.08-.581c-.962-.08-1.142-.18-1.142-.681 0-.06 0-.18.02-.381v-.521z" fill-rule="nonzero"/><g fill="none" stroke="#000"><path d="m.015 29.536h209.067" stroke-width=".47"/><path d="m.015 24.565h209.067" stroke-width=".47"/><path d="m.015 19.595h209.067" stroke-width=".47"/><path d="m.015 14.625h209.067" stroke-width=".47"/><path d="m.015 9.654h209.067" stroke-width=".47"/></g><path d="m14.14 28.876.756 3.678c.04.219.06.417.06.616 0 1.949-1.989 3.579-4.136 3.579-.656 0-1.292-.159-1.889-.457 1.531-.159 2.684-1.094 2.684-2.466 0-1.212-.994-2.485-2.266-2.485-1.451 0-2.445 1.114-2.445 2.565 0 2.028 1.65 3.36 3.638 3.36 2.664 0 4.931-1.73 4.931-4.215 0-.557-.875-4.493-.855-4.354 2.127-1.034 3.578-2.863 3.578-4.792 0-2.644-2.127-4.672-4.771-4.672-.04 0-.318.02-.796.06l-.874-4.195c2.962-2.505 4.314-5.169 4.314-8.092 0-2.247-.895-4.632-2.704-7.137-2.048 1.65-3.221 4.95-3.221 8.469 0 1.253.159 2.465.438 3.619-4.533 3.797-6.8 7.296-6.8 10.497 0 3.758 3.877 6.879 8.092 6.879.934 0 1.63-.139 2.266-.457zm-.059-26.125c.656.676.994 1.472.994 2.406 0 1.929-1.372 4.096-4.056 6.481-.139-.576-.179-1.212-.179-1.908 0-3.34 1.233-7.018 2.883-7.018.139 0 .258.019.358.039zm.417 25.31-1.411-6.641c.278-.02.437-.04.497-.04 1.71 0 2.902 1.611 2.902 3.261 0 1.312-.695 2.465-1.988 3.42zm-1.908-6.561 1.431 6.839c-.696.378-1.471.537-2.406.537-3.22 0-6.004-2.406-6.004-5.328 0-2.645 1.969-5.368 5.686-8.152l.835 3.976c-2.067.438-3.817 2.187-3.817 4.156 0 1.67 1.193 2.843 2.982 3.121-1.093-.676-1.63-1.531-1.63-2.545 0-1.372 1.272-2.386 2.923-2.604z" fill-rule="nonzero"/><path d="m44.593 31.244v-16.619" fill="none" stroke="#000" stroke-width=".47"/><path d="m40.141 34.562c2.047 0 4.572-1.71 4.572-3.459 0-1.054-.934-1.73-2.266-1.73-2.008 0-4.533 1.67-4.533 3.459 0 1.094.974 1.73 2.227 1.73z" fill-rule="nonzero"/><path d="m64.319 26.274v-16.62" fill="none" stroke="#000" stroke-width=".47"/><path d="m59.867 29.592c2.048 0 4.573-1.71 4.573-3.46 0-1.054-.935-1.73-2.267-1.73-2.008 0-4.533 1.671-4.533 3.46 0 1.093.974 1.73 2.227 1.73z" fill-rule="nonzero"/><path d="m84.046 23.789v-16.62" fill="none" stroke="#000" stroke-width=".47"/><path d="m79.593 27.106c2.048 0 4.573-1.709 4.573-3.459 0-1.054-.934-1.73-2.266-1.73-2.008 0-4.533 1.67-4.533 3.46 0 1.093.974 1.729 2.226 1.729z" fill-rule="nonzero"/><path d="m97.248 17.886v16.62" fill="none" stroke="#000" stroke-width=".47"/><path d="m99.32 19.651c2.047 0 4.572-1.71 4.572-3.46 0-1.053-.934-1.729-2.266-1.729-2.008 0-4.533 1.67-4.533 3.459 0 1.094.974 1.73 2.227 1.73z" fill-rule="nonzero"/><path d="m130.954 26.274v-16.62" fill="none" stroke="#000" stroke-width=".47"/><path d="m126.502 29.592c2.047 0 4.572-1.71 4.572-3.46 0-1.054-.934-1.73-2.266-1.73-2.008 0-4.533 1.671-4.533 3.46 0 1.093.974 1.73 2.227 1.73z" fill-rule="nonzero"/><path d="m142.137 34.506h10.562" fill="none" stroke="#000" stroke-width=".78"/><path d="m150.68 33.73v-16.62" fill="none" stroke="#000" stroke-width=".47"/><path d="m146.228 37.047c2.048 0 4.573-1.71 4.573-3.459 0-1.054-.935-1.73-2.267-1.73-2.008 0-4.533 1.67-4.533 3.46 0 1.093.974 1.729 2.227 1.729z" fill-rule="nonzero"/><path d="m170.406 31.244v-16.619" fill="none" stroke="#000" stroke-width=".47"/><path d="m165.954 34.562c2.048 0 4.573-1.71 4.573-3.459 0-1.054-.935-1.73-2.267-1.73-2.008 0-4.533 1.67-4.533 3.459 0 1.094.975 1.73 2.227 1.73z" fill-rule="nonzero"/><path d="m190.133 31.244v-16.619" fill="none" stroke="#000" stroke-width=".47"/><path d="m185.68 34.562c2.048 0 4.573-1.71 4.573-3.459 0-1.054-.934-1.73-2.266-1.73-2.008 0-4.533 1.67-4.533 3.459 0 1.094.974 1.73 2.226 1.73z" fill-rule="nonzero"/></svg>