<svg clip-rule="evenodd" fill-rule="evenodd" stroke-linejoin="round" stroke-miterlimit="2" viewBox="0 0 512 41" xmlns="http://www.w3.org/2000/svg"><path d="m195.021 12.909v19.805" fill="none" stroke="#000" stroke-width=".77"/><path d="m343.719 12.909v19.805" fill="none" stroke="#000" stroke-width=".77"/><path d="m423.715 12.909v19.805" fill="none" stroke="#000" stroke-width=".77"/><path d="m506.961 12.909v19.805" fill="none" stroke="#000" stroke-width=".77"/><path d="m510.365 12.909v19.805" fill="none" stroke="#000" stroke-width="2.48"/><path d="m178.465 33.952c5.416 4.642 21.663 4.642 27.078 0" fill="none" stroke="#000" stroke-width=".31"/><path d="m178.465 33.952c5.416 3.869 21.663 3.869 27.078 0-5.415 5.416-21.662 5.416-27.078 0z"/><path d="m178.465 33.952c5.416 3.869 21.663 3.869 27.078 0-5.415 5.416-21.662 5.416-27.078 0z" fill="none" stroke="#000" stroke-width=".15"/><path d="m256.45 33.952c3.868 4.023 15.628 4.023 19.651 0" fill="none" stroke="#000" stroke-width=".31"/><path d="m256.45 33.952c3.868 3.25 15.628 3.25 19.651 0-4.023 4.797-15.783 4.797-19.651 0z"/><path d="m256.45 33.952c3.868 3.25 15.628 3.25 19.651 0-4.023 4.797-15.783 4.797-19.651 0z" fill="none" stroke="#000" stroke-width=".15"/><path d="m30.01 20.06v-.838h-1.257v-4.491l-2.495 2.215v2.276h-2.695c.3-.759 1.118-1.797 2.455-3.134 1.218-1.218 1.917-2.296 2.116-3.194h-3.413c-.16 1.956-1.317 4.811-2.535 6.368v.798h4.072c0 .699-.02 1.098-.06 1.198-.12.219-.499.359-1.118.399l-.04.559h4.911l-.08-.579c-.958-.08-1.138-.18-1.138-.679 0-.06 0-.179.02-.379v-.519z" fill-rule="nonzero"/><path d="m30.01 30.096v-.838h-1.257v-4.492l-2.495 2.216v2.276h-2.695c.3-.759 1.118-1.797 2.455-3.134 1.218-1.218 1.917-2.296 2.116-3.194h-3.413c-.16 1.956-1.317 4.811-2.535 6.367v.799h4.072c0 .698-.02 1.098-.06 1.197-.12.22-.499.36-1.118.4l-.04.559h4.911l-.08-.579c-.958-.08-1.138-.18-1.138-.679 0-.06 0-.18.02-.379v-.519z" fill-rule="nonzero"/><g fill="none"><path d="m.059 32.714h511.544"/><path d="m.059 32.714h511.544" stroke="#000" stroke-width=".46"/><path d="m.059 27.763h511.544"/><path d="m.059 27.763h511.544" stroke="#000" stroke-width=".46"/><path d="m.059 22.812h511.544"/><path d="m.059 22.812h511.544" stroke="#000" stroke-width=".46"/><path d="m.059 17.86h511.544"/><path d="m.059 17.86h511.544" stroke="#000" stroke-width=".46"/><path d="m.059 12.909h511.544"/><path d="m.059 12.909h511.544" stroke="#000" stroke-width=".46"/></g><path d="m14.131 32.057.753 3.664c.039.218.059.416.059.614 0 1.941-1.98 3.565-4.119 3.565-.654 0-1.288-.158-1.882-.455 1.525-.159 2.674-1.09 2.674-2.456 0-1.209-.99-2.476-2.258-2.476-1.446 0-2.436 1.109-2.436 2.555 0 2.02 1.644 3.347 3.624 3.347 2.654 0 4.912-1.723 4.912-4.199 0-.554-.871-4.476-.851-4.337 2.119-1.03 3.565-2.852 3.565-4.773 0-2.635-2.12-4.655-4.754-4.655-.039 0-.317.02-.792.06l-.871-4.179c2.951-2.496 4.297-5.15 4.297-8.061 0-2.238-.891-4.615-2.693-7.11-2.04 1.643-3.209 4.931-3.209 8.437 0 1.247.159 2.456.436 3.604-4.516 3.783-6.774 7.269-6.774 10.458 0 3.743 3.863 6.853 8.061 6.853.931 0 1.624-.139 2.258-.456zm-.059-26.025c.653.674.99 1.466.99 2.397 0 1.921-1.366 4.08-4.04 6.456-.139-.574-.178-1.208-.178-1.901 0-3.327 1.227-6.991 2.871-6.991.139 0 .258.02.357.039zm.416 25.213-1.406-6.615c.277-.02.435-.04.495-.04 1.703 0 2.891 1.605 2.891 3.248 0 1.308-.693 2.456-1.98 3.407zm-1.902-6.536 1.426 6.813c-.693.377-1.465.535-2.396.535-3.209 0-5.981-2.396-5.981-5.308 0-2.634 1.96-5.347 5.664-8.12l.832 3.961c-2.06.436-3.803 2.179-3.803 4.139 0 1.664 1.189 2.832 2.971 3.11-1.089-.674-1.624-1.525-1.624-2.535 0-1.367 1.268-2.377 2.911-2.595z" fill-rule="nonzero"/><path d="m118.274 6.72 62.822 4.951v-2.476l-62.822-4.951z"/><path d="m238.192 14.147 20.888 1.238v-2.476l-20.888-1.238z"/><path d="m415.669 27.787h2.476l9.903-9.903h-2.476zm4.357 0h2.476l9.903-9.903h-2.476zm-2.535-7.407c0 .693.555 1.248 1.248 1.248s1.248-.555 1.248-1.248-.555-1.248-1.248-1.248-1.248.555-1.248 1.248zm10.695 4.555c0 .693.555 1.248 1.248 1.248s1.248-.555 1.248-1.248-.555-1.248-1.248-1.248-1.248.555-1.248 1.248z" fill-rule="nonzero"/><path d="m419.537-1.017h8.511v12.533h-8.511z" fill="#fff"/><path d="m427.82 6.634c-.703.615-.747 1.143-.791 1.187-.176.241-.461.351-.857.351-.505 0-2.878-.901-3.735-.901-.198 0-.396.022-.593.044v-.022c1.032-.857 4.46-2.131 5.031-2.658.484-.418.725-.989.725-1.714 0-1.011-.747-3.032-3.911-3.032-2.505 0-4.087 1.098-4.087 3.098 0 .901.44 1.34 1.341 1.34.769 0 1.56-.571 1.56-1.34 0-.703-.637-1.121-1.165-1.538.242-.374.725-.549 1.45-.549 1.165 0 1.89.878 1.89 2.109 0 1.23-.198 1.582-2.549 3.208-.769.549-1.34 1.12-1.692 1.67-.417.615-.835 1.076-.944 2.065.065.066.131.088.241.088.593 0 .725-.835 1.67-.835.725 0 3.032 1.23 3.911 1.23 1.56 0 2.395-1.274 2.505-3.801z" fill-rule="nonzero"/><path d="m60.559 34.417v-16.557" fill="none"/><path d="m60.559 34.417v-16.557" fill="none" stroke="#000" stroke-width=".46"/><path d="m56.124 37.721c2.04 0 4.556-1.703 4.556-3.446 0-1.049-.931-1.723-2.258-1.723-2.001 0-4.516 1.664-4.516 3.446 0 1.09.97 1.723 2.218 1.723z" fill-rule="nonzero"/><path d="m82.996 18.634v16.556" fill="none"/><path d="m82.996 18.634v16.556" fill="none" stroke="#000" stroke-width=".46"/><path d="m85.059 20.391c2.04 0 4.555-1.703 4.555-3.446 0-1.049-.93-1.723-2.257-1.723-2.001 0-4.516 1.664-4.516 3.446 0 1.09.97 1.723 2.218 1.723z" fill-rule="nonzero"/><path d="m118.274 17.087v-12.688" fill="none"/><path d="m118.274 17.087v-12.688" fill="none" stroke="#000" stroke-width=".46"/><path d="m113.839 20.391c2.04 0 4.556-1.703 4.556-3.446 0-1.049-.931-1.723-2.258-1.723-2.001 0-4.516 1.664-4.516 3.446 0 1.09.97 1.723 2.218 1.723z" fill-rule="nonzero"/><path d="m139.318 19.562v-13.616" fill="none"/><path d="m139.318 19.562v-13.616" fill="none" stroke="#000" stroke-width=".46"/><path d="m134.883 22.867c2.04 0 4.555-1.703 4.555-3.446 0-1.05-.931-1.723-2.258-1.723-2 0-4.515 1.664-4.515 3.446 0 1.089.97 1.723 2.218 1.723z" fill-rule="nonzero"/><path d="m160.207 26.989v-19.341" fill="none"/><path d="m160.207 26.989v-19.341" fill="none" stroke="#000" stroke-width=".46"/><path d="m155.772 30.294c2.04 0 4.555-1.703 4.555-3.446 0-1.05-.931-1.723-2.258-1.723-2 0-4.516 1.664-4.516 3.446 0 1.09.971 1.723 2.219 1.723z" fill-rule="nonzero"/><path d="m181.096 29.465v-20.115" fill="none"/><path d="m181.096 29.465v-20.115" fill="none" stroke="#000" stroke-width=".46"/><path d="m176.66 32.77c2.04 0 4.556-1.703 4.556-3.446 0-1.05-.931-1.723-2.258-1.723-2.001 0-4.516 1.663-4.516 3.446 0 1.089.971 1.723 2.218 1.723z" fill-rule="nonzero"/><path d="m209.412 29.465v-16.556" fill="none"/><path d="m209.412 29.465v-16.556" fill="none" stroke="#000" stroke-width=".46"/><path d="m204.976 32.77c2.04 0 4.556-1.703 4.556-3.446 0-1.05-.931-1.723-2.258-1.723-2.001 0-4.516 1.663-4.516 3.446 0 1.089.971 1.723 2.218 1.723z" fill-rule="nonzero"/><path d="m238.192 26.989v-15.163" fill="none"/><path d="m238.192 26.989v-15.163" fill="none" stroke="#000" stroke-width=".46"/><path d="m233.756 30.294c2.04 0 4.556-1.703 4.556-3.446 0-1.05-.931-1.723-2.258-1.723-2 0-4.516 1.664-4.516 3.446 0 1.09.971 1.723 2.218 1.723z" fill-rule="nonzero"/><path d="m259.08 29.465v-16.401" fill="none"/><path d="m259.08 29.465v-16.401" fill="none" stroke="#000" stroke-width=".46"/><path d="m254.645 32.77c2.04 0 4.556-1.703 4.556-3.446 0-1.05-.931-1.723-2.258-1.723-2.001 0-4.516 1.663-4.516 3.446 0 1.089.97 1.723 2.218 1.723z" fill-rule="nonzero"/><path d="m279.969 29.465v-16.556" fill="none"/><path d="m279.969 29.465v-16.556" fill="none" stroke="#000" stroke-width=".46"/><path d="m275.534 32.77c2.04 0 4.555-1.703 4.555-3.446 0-1.05-.931-1.723-2.258-1.723-2 0-4.515 1.663-4.515 3.446 0 1.089.97 1.723 2.218 1.723z" fill-rule="nonzero"/><path d="m280.013 17.817c.99 0 1.327.376 1.901.792 1.604 1.129 2.416 2.377 2.416 3.763v.099c-.039 1.783-.059 1.921-.574 3.07-.079.178-.119.297-.119.376 0 .099.059.159.158.159.199 0 1.209-1.387 1.209-3.922v-.099c0-.851-.238-1.664-.713-2.416-.139-.238-.753-1.05-1.842-2.416-.852-1.09-1.585-2.437-2.179-4.001-.02-.06-.02-.119-.02-.178 0-.06 0-.119.02-.159.02-.02-.079-.02-.257-.02z" fill-rule="nonzero"/><path d="m301.013 26.989v-16.556" fill="none"/><path d="m301.013 26.989v-16.556" fill="none" stroke="#000" stroke-width=".46"/><path d="m296.578 30.294c2.04 0 4.555-1.703 4.555-3.446 0-1.05-.931-1.723-2.258-1.723-2 0-4.516 1.664-4.516 3.446 0 1.09.971 1.723 2.219 1.723z" fill-rule="nonzero"/><path d="m329.793 29.465v-16.556" fill="none"/><path d="m329.793 29.465v-16.556" fill="none" stroke="#000" stroke-width=".46"/><path d="m325.358 32.77c2.04 0 4.555-1.703 4.555-3.446 0-1.05-.931-1.723-2.258-1.723-2 0-4.516 1.663-4.516 3.446 0 1.089.971 1.723 2.219 1.723z" fill-rule="nonzero"/><path d="m329.836 17.817c.991 0 1.327.376 1.902.792 1.604 1.129 2.416 2.377 2.416 3.763v.099c-.04 1.783-.06 1.921-.574 3.07-.08.178-.119.297-.119.376 0 .099.059.159.158.159.198 0 1.208-1.387 1.208-3.922v-.099c0-.851-.237-1.664-.713-2.416-.138-.238-.752-1.05-1.842-2.416-.851-1.09-1.584-2.437-2.178-4.001-.02-.06-.02-.119-.02-.178 0-.06 0-.119.02-.159.02-.02-.079-.02-.258-.02z" fill-rule="nonzero"/></svg>