<svg clip-rule="evenodd" fill-rule="evenodd" stroke-linejoin="round" stroke-miterlimit="2" viewBox="0 0 501 40" xmlns="http://www.w3.org/2000/svg"><path d="m149.682 15.536v17.004" fill="none" stroke="#000" stroke-width=".66"/><path d="m260.471 15.536v17.004" fill="none" stroke="#000" stroke-width=".66"/><path d="m392.116 15.536v17.004" fill="none" stroke="#000" stroke-width=".66"/><path d="m496.927 15.536v17.004" fill="none" stroke="#000" stroke-width=".66"/><path d="m499.849 15.536v17.004" fill="none" stroke="#000" stroke-width="2.13"/><path d="m78.879 25.101c3.188 3.321 12.752 3.321 15.94 0" fill="none" stroke="#000" stroke-width=".27"/><path d="m78.879 25.101c3.188 2.657 12.752 2.657 15.94 0-3.188 3.985-12.752 3.985-15.94 0z"/><path d="m78.879 25.101c3.188 2.657 12.752 2.657 15.94 0-3.188 3.985-12.752 3.985-15.94 0z" fill="none" stroke="#000" stroke-width=".13"/><path d="m321.445 27.226c3.188 3.321 12.753 3.321 15.941 0" fill="none" stroke="#000" stroke-width=".27"/><path d="m321.445 27.226c3.188 2.657 12.753 2.657 15.941 0-3.188 3.986-12.753 3.986-15.941 0z"/><path d="m321.445 27.226c3.188 2.657 12.753 2.657 15.941 0-3.188 3.986-12.753 3.986-15.941 0z" fill="none" stroke="#000" stroke-width=".13"/><path d="m378.965 29.352c4.384 3.985 17.668 3.985 22.184 0" fill="none" stroke="#000" stroke-width=".27"/><path d="m378.965 29.352c4.384 3.321 17.668 3.321 22.184 0-4.516 4.649-17.8 4.649-22.184 0z"/><path d="m378.965 29.352c4.384 3.321 17.668 3.321 22.184 0-4.516 4.649-17.8 4.649-22.184 0z" fill="none" stroke="#000" stroke-width=".13"/><path d="m433.961 20.85c3.188-3.321 12.619-3.321 15.808 0" fill="none" stroke="#000" stroke-width=".27"/><path d="m433.961 20.85c3.188-3.985 12.619-3.985 15.808 0-3.189-2.657-12.62-2.657-15.808 0z"/><g fill="none"><path d="m433.961 20.85c3.188-3.985 12.619-3.985 15.808 0-3.189-2.657-12.62-2.657-15.808 0z" stroke="#000" stroke-width=".13"/><path d="m.104 32.54h500.808"/><path d="m.104 32.54h500.808" stroke="#000" stroke-width=".4"/><path d="m.104 28.289h500.808"/><path d="m.104 28.289h500.808" stroke="#000" stroke-width=".4"/><path d="m.104 24.038h500.808"/><path d="m.104 24.038h500.808" stroke="#000" stroke-width=".4"/><path d="m.104 19.787h500.808"/><path d="m.104 19.787h500.808" stroke="#000" stroke-width=".4"/><path d="m.104 15.536h500.808"/><path d="m.104 15.536h500.808" stroke="#000" stroke-width=".4"/></g><path d="m12.185 31.976.647 3.145c.034.187.051.357.051.527 0 1.667-1.701 3.061-3.537 3.061-.561 0-1.105-.136-1.616-.391 1.31-.136 2.296-.935 2.296-2.109 0-1.037-.85-2.125-1.938-2.125-1.242 0-2.092.952-2.092 2.193 0 1.735 1.411 2.874 3.112 2.874 2.278 0 4.217-1.479 4.217-3.605 0-.476-.749-3.842-.732-3.723 1.82-.885 3.061-2.449 3.061-4.098 0-2.262-1.819-3.996-4.081-3.996-.034 0-.272.017-.68.051l-.748-3.588c2.533-2.142 3.69-4.421 3.69-6.92 0-1.922-.765-3.962-2.313-6.105-1.751 1.412-2.754 4.234-2.754 7.244 0 1.071.136 2.108.374 3.095-3.877 3.247-5.815 6.24-5.815 8.977 0 3.214 3.315 5.884 6.92 5.884.799 0 1.394-.119 1.938-.391zm-.051-22.343c.561.578.851 1.258.851 2.057 0 1.65-1.174 3.503-3.469 5.543-.119-.493-.153-1.037-.153-1.632 0-2.856 1.054-6.002 2.465-6.002.119 0 .221.017.306.034zm.357 21.645-1.207-5.679c.238-.017.374-.034.425-.034 1.463 0 2.483 1.378 2.483 2.789 0 1.122-.595 2.108-1.701 2.924zm-1.632-5.611 1.224 5.849c-.595.324-1.258.46-2.057.46-2.755 0-5.135-2.058-5.135-4.557 0-2.262 1.683-4.591 4.863-6.972l.714 3.401c-1.768.374-3.265 1.87-3.265 3.554 0 1.428 1.021 2.431 2.551 2.669-.935-.578-1.394-1.309-1.394-2.176 0-1.174 1.088-2.041 2.499-2.228z" fill-rule="nonzero"/><path d="m33.013 8.968h-1.474c-.231-.272-.437-.552-.618-.832-.19-.288-.346-.601-.478-.931-.132-.304-.23-.65-.296-1.021-.074-.379-.107-.766-.107-1.169 0-.445.033-.849.107-1.203.074-.362.173-.692.288-.988.132-.321.288-.634.469-.914.19-.289.404-.577.635-.857h1.474v.115c-.214.198-.42.42-.618.668-.198.247-.387.543-.552.873-.164.321-.288.675-.395 1.062-.099.387-.148.799-.148 1.244 0 .453.049.873.148 1.243.099.371.231.725.395 1.055.157.321.346.609.544.864.206.264.412.486.626.676z" fill-rule="nonzero"/><path d="m37.962 2.47h-2.512v1.128h2.314v1.145h-2.314v2.57h-1.499v-5.988h4.011z" fill-rule="nonzero"/><path d="m41.412 5.015c0 .403-.033.79-.107 1.169-.074.371-.173.717-.297 1.021-.131.33-.296.643-.477.931-.182.28-.396.56-.618.832h-1.474v-.115c.214-.19.42-.412.626-.676.197-.255.378-.543.543-.864.165-.33.297-.684.395-1.055.099-.37.149-.79.149-1.243 0-.445-.058-.857-.157-1.244s-.23-.741-.387-1.062c-.173-.33-.354-.626-.552-.873-.197-.248-.403-.47-.617-.668v-.115h1.474c.23.28.445.568.626.857.189.28.346.593.478.914.115.296.214.626.28.988.074.354.115.758.115 1.203z" fill-rule="nonzero"/><path d="m54.338 7.313h-1.038l-1.894-2.381h-.915v2.381h-.79v-5.988h1.54c.346 0 .634.016.865.058.23.032.453.123.659.263.214.132.378.305.502.519.115.206.181.469.181.782 0 .445-.115.808-.338 1.104-.222.297-.527.511-.905.659zm-1.722-4.3c0-.181-.033-.329-.09-.469-.066-.132-.165-.247-.289-.33-.115-.074-.247-.131-.395-.156-.148-.033-.338-.05-.56-.05h-.791v2.257h.7c.231 0 .437-.016.618-.057.181-.042.338-.124.47-.248.115-.115.197-.247.255-.403.049-.157.082-.338.082-.544z" fill-rule="nonzero"/><path d="m56.548 7.42c-.717 0-1.269-.206-1.664-.61-.395-.403-.593-.972-.593-1.721 0-.725.189-1.31.576-1.746.379-.429.882-.651 1.499-.651.28 0 .527.041.742.124.214.082.403.206.56.378.164.173.288.379.37.626.091.256.132.552.132.915v.411h-3.113c0 .519.132.923.395 1.195.264.28.626.42 1.087.42.165 0 .33-.025.494-.058.157-.041.297-.091.429-.148.14-.058.255-.124.346-.181.09-.058.173-.107.23-.157h.05v.824c-.091.033-.198.074-.33.132-.132.049-.255.09-.354.123-.148.033-.28.066-.403.091-.116.016-.272.033-.453.033zm.889-2.85c-.008-.206-.033-.387-.074-.527-.041-.148-.107-.28-.189-.379-.083-.115-.198-.198-.338-.255-.14-.058-.305-.091-.511-.091s-.37.033-.51.091c-.14.057-.272.148-.388.263-.115.115-.197.247-.255.396-.058.14-.099.304-.115.502z" fill-rule="nonzero"/><path d="m60.881 7.42c-.716 0-1.268-.206-1.663-.61-.396-.403-.593-.972-.593-1.721 0-.725.189-1.31.576-1.746.379-.429.882-.651 1.499-.651.28 0 .527.041.742.124.214.082.403.206.56.378.164.173.288.379.37.626.091.256.132.552.132.915v.411h-3.113c0 .519.132.923.395 1.195.264.28.626.42 1.087.42.165 0 .33-.025.494-.058.157-.041.297-.091.429-.148.14-.058.255-.124.346-.181.09-.058.173-.107.23-.157h.05v.824c-.091.033-.198.074-.33.132-.132.049-.255.09-.354.123-.148.033-.28.066-.404.091-.115.016-.271.033-.453.033zm.89-2.85c-.008-.206-.033-.387-.074-.527-.041-.148-.107-.28-.19-.379-.082-.115-.197-.198-.337-.255-.14-.058-.305-.091-.511-.091s-.371.033-.511.091c-.14.057-.271.148-.387.263-.115.115-.197.247-.255.396-.058.14-.099.304-.115.502z" fill-rule="nonzero"/><path d="m66.994 7.313h-.996l-1.68-2.167-.297.289v1.878h-.758v-6.26h.758v3.665l1.779-1.894h.939l-1.845 1.878z" fill-rule="nonzero"/><path d="m68.584 7.42c-.305 0-.585-.042-.84-.116-.264-.082-.478-.173-.651-.263v-.849h.041c.058.05.14.107.223.173.09.058.206.124.346.19.131.057.271.115.428.156.156.05.313.074.478.074.123 0 .255-.016.387-.049.14-.025.238-.058.304-.107.099-.058.165-.124.206-.189.041-.075.058-.182.058-.322 0-.173-.041-.313-.14-.403-.099-.091-.272-.165-.527-.231-.091-.025-.223-.049-.371-.082-.156-.033-.305-.066-.436-.107-.338-.099-.593-.247-.75-.462-.148-.205-.23-.453-.23-.749 0-.404.156-.733.461-.988.305-.256.708-.387 1.219-.387.247 0 .494.033.749.098.256.058.461.14.634.231v.807h-.041c-.189-.148-.403-.272-.642-.362-.239-.091-.478-.132-.717-.132-.247 0-.461.049-.634.156-.173.108-.255.264-.255.478 0 .181.049.321.148.42.107.091.272.165.494.223.115.033.239.057.379.09.132.025.28.058.437.099.329.082.576.222.749.412.165.197.247.453.247.79 0 .19-.033.371-.115.544-.074.173-.19.321-.33.445-.164.14-.346.239-.551.305-.198.074-.453.107-.758.107z" fill-rule="nonzero"/><path d="m76.899 7.313h-2.924v-.61h1.087v-4.019h-1.087v-.544c.412 0 .716-.057.906-.173.198-.115.305-.337.329-.659h.626v5.395h1.063z" fill-rule="nonzero"/><path d="m18.968 36.791v-27.631" fill="none"/><path d="m18.968 36.791v-27.631" fill="none" stroke="#000" stroke-width=".66"/><path d="m18.702 36.791h50.612" fill="none"/><path d="m18.702 36.791h50.612" fill="none" stroke="#000" stroke-width=".66"/><path d="m18.702 9.16h50.612" fill="none"/><path d="m18.702 9.16h50.612" fill="none" stroke="#000" stroke-width=".66"/><path d="m69.048 36.791v-27.631" fill="none"/><path d="m69.048 36.791v-27.631" fill="none" stroke="#000" stroke-width=".66"/><path d="m30.259 16.599 50.878-4.251v-2.125l-50.878 4.251z"/><path d="m121.653 12.348 17.004 4.251v-2.125l-17.004-4.251z"/><path d="m276.376 7.905h-1.474c-.231-.272-.437-.552-.618-.832-.189-.288-.346-.601-.477-.93-.132-.305-.231-.651-.297-1.022-.074-.378-.107-.765-.107-1.169 0-.445.033-.848.107-1.203.074-.362.173-.691.288-.988.132-.321.289-.634.47-.914.189-.288.403-.577.634-.857h1.474v.116c-.214.197-.42.42-.617.667-.198.247-.388.543-.552.873-.165.321-.289.675-.396 1.062-.098.387-.148.799-.148 1.244 0 .453.05.873.148 1.244.099.37.231.724.396 1.054.156.321.346.609.543.865.206.263.412.486.626.675z" fill-rule="nonzero"/><path d="m276.672 6.25 2.026-5.988h1.639l2.026 5.988h-1.548l-.379-1.219h-1.878l-.379 1.219zm3.434-2.306-.609-1.977-.61 1.977z" fill-rule="nonzero"/><path d="m285.859 3.96c0-.453-.066-.774-.206-.972-.132-.189-.346-.288-.626-.288-.132 0-.255.025-.379.066-.123.041-.247.099-.37.181v2.265c.098.041.189.066.288.074.09.017.189.025.28.025.346 0 .593-.115.766-.338.165-.23.247-.568.247-1.013zm1.441-.033c0 .725-.181 1.302-.543 1.746-.371.445-.816.667-1.359.667-.223 0-.42-.024-.585-.082-.165-.049-.346-.123-.535-.231l-.058.223h-1.351v-6.26h1.409v2.216c.205-.181.42-.321.634-.428.214-.116.461-.165.741-.165.527 0 .931.198 1.219.609.288.412.428.98.428 1.705z" fill-rule="nonzero"/><path d="m290.832 3.952c0 .404-.033.791-.107 1.169-.074.371-.173.717-.297 1.022-.131.329-.296.642-.477.93-.182.28-.396.56-.618.832h-1.474v-.115c.214-.189.42-.412.626-.675.197-.256.378-.544.543-.865.165-.33.297-.684.396-1.054.098-.371.148-.791.148-1.244 0-.445-.058-.857-.157-1.244s-.23-.741-.387-1.062c-.173-.33-.354-.626-.552-.873-.197-.247-.403-.47-.617-.667v-.116h1.474c.231.28.445.569.626.857.189.28.346.593.478.914.115.297.214.626.28.988.074.355.115.758.115 1.203z" fill-rule="nonzero"/><path d="m303.758 6.25h-1.038l-1.894-2.38h-.915v2.38h-.79v-5.988h1.54c.346 0 .634.017.865.058.23.033.453.123.659.263.214.132.378.305.502.519.115.206.181.47.181.783 0 .444-.115.807-.337 1.103-.223.297-.528.511-.906.659zm-1.722-4.299c0-.182-.033-.33-.09-.47-.066-.132-.165-.247-.289-.329-.115-.074-.247-.132-.395-.157-.148-.033-.338-.049-.56-.049h-.791v2.256h.701c.23 0 .436-.016.617-.057s.338-.124.47-.247c.115-.116.197-.247.255-.404.049-.156.082-.338.082-.543z" fill-rule="nonzero"/><path d="m305.968 6.357c-.717 0-1.269-.206-1.664-.61-.395-.403-.593-.971-.593-1.721 0-.725.189-1.309.576-1.746.379-.428.882-.651 1.499-.651.28 0 .528.042.742.124s.403.206.56.379c.164.173.288.379.37.626.091.255.132.552.132.914v.412h-3.113c0 .519.132.922.395 1.194.264.28.626.42 1.087.42.165 0 .33-.025.495-.058.156-.041.296-.09.428-.148.14-.058.255-.123.346-.181.09-.058.173-.107.23-.157h.05v.824c-.091.033-.198.074-.33.132-.131.049-.255.09-.354.123-.148.033-.28.066-.403.091-.116.016-.272.033-.453.033zm.889-2.85c-.008-.206-.033-.387-.074-.527-.041-.148-.107-.28-.189-.379-.083-.115-.198-.197-.338-.255s-.305-.091-.511-.091-.37.033-.51.091-.272.148-.388.263c-.115.116-.197.248-.255.396-.057.14-.099.305-.115.502z" fill-rule="nonzero"/><path d="m310.301 6.357c-.716 0-1.268-.206-1.663-.61-.396-.403-.593-.971-.593-1.721 0-.725.189-1.309.576-1.746.379-.428.882-.651 1.499-.651.28 0 .527.042.742.124.214.082.403.206.56.379.164.173.288.379.37.626.091.255.132.552.132.914v.412h-3.113c0 .519.132.922.395 1.194.264.28.626.42 1.087.42.165 0 .33-.025.494-.058.157-.041.297-.09.429-.148.14-.058.255-.123.346-.181.09-.058.173-.107.23-.157h.05v.824c-.091.033-.198.074-.33.132-.132.049-.255.09-.354.123-.148.033-.28.066-.404.091-.115.016-.271.033-.453.033zm.89-2.85c-.008-.206-.033-.387-.074-.527-.041-.148-.107-.28-.19-.379-.082-.115-.197-.197-.337-.255s-.305-.091-.511-.091-.371.033-.511.091-.271.148-.387.263c-.115.116-.197.248-.255.396-.058.14-.099.305-.115.502z" fill-rule="nonzero"/><path d="m316.414 6.25h-.996l-1.68-2.166-.297.288v1.878h-.758v-6.26h.758v3.665l1.779-1.894h.939l-1.845 1.878z" fill-rule="nonzero"/><path d="m318.004 6.357c-.305 0-.585-.041-.84-.115-.264-.083-.478-.173-.651-.264v-.848h.041c.058.049.14.107.223.173.09.057.206.123.346.189.131.058.271.115.428.157.156.049.313.074.478.074.123 0 .255-.017.387-.05.14-.024.238-.057.304-.107.099-.057.165-.123.206-.189.041-.074.058-.181.058-.321 0-.173-.041-.313-.14-.404s-.272-.165-.527-.231c-.091-.024-.223-.049-.371-.082-.156-.033-.305-.066-.436-.107-.338-.099-.593-.247-.75-.461-.148-.206-.23-.453-.23-.75 0-.403.156-.733.461-.988s.708-.387 1.219-.387c.247 0 .494.033.749.099.256.057.461.14.634.23v.807h-.041c-.189-.148-.403-.271-.642-.362s-.478-.132-.717-.132c-.247 0-.461.05-.634.157s-.255.263-.255.477c0 .182.049.322.148.42.107.091.272.165.494.223.115.033.239.057.379.09.132.025.28.058.437.099.329.083.576.223.749.412.165.198.247.453.247.791 0 .189-.033.37-.115.543-.074.173-.19.322-.33.445-.164.14-.346.239-.551.305-.198.074-.453.107-.758.107z" fill-rule="nonzero"/><path d="m326.623 6.25h-3.698v-.84c.264-.256.519-.494.758-.725.231-.231.461-.47.692-.717.453-.502.766-.906.931-1.21.164-.297.247-.61.247-.931 0-.165-.025-.313-.074-.436-.058-.132-.132-.231-.223-.313-.09-.083-.197-.149-.321-.182-.123-.041-.263-.066-.403-.066-.149 0-.289.017-.437.058-.148.033-.288.082-.42.132-.115.049-.222.099-.329.165-.099.066-.182.123-.248.164h-.049v-.848c.173-.082.404-.165.7-.247.297-.074.577-.115.84-.115.56 0 .997.148 1.31.444.313.297.477.692.477 1.203 0 .23-.033.453-.082.651-.058.197-.132.378-.231.551-.098.173-.214.346-.354.519-.14.165-.288.338-.444.503-.256.271-.536.56-.841.856-.313.288-.56.527-.741.7h2.94z" fill-rule="nonzero"/><path d="m263.925 37.854v-27.631" fill="none"/><path d="m263.925 37.854v-27.631" fill="none" stroke="#000" stroke-width=".66"/><path d="m263.659 37.854h46.362" fill="none"/><path d="m263.659 37.854h46.362" fill="none" stroke="#000" stroke-width=".66"/><path d="m263.659 10.223h46.362" fill="none"/><path d="m263.659 10.223h46.362" fill="none" stroke="#000" stroke-width=".66"/><path d="m309.755 37.854v-27.631" fill="none"/><path d="m309.755 37.854v-27.631" fill="none" stroke="#000" stroke-width=".66"/><path d="m272.825 16.599 50.878-4.251v-2.125l-50.878 4.251z"/><path d="m364.219 12.348 17.004 1.063v-2.125l-17.004-1.063z"/><path d="m30.259 29.75v-15.143" fill="none"/><path d="m30.259 29.75v-15.143" fill="none" stroke="#000" stroke-width=".4"/><path d="m26.451 32.588c1.752 0 3.911-1.463 3.911-2.959 0-.901-.799-1.479-1.938-1.479-1.718 0-3.877 1.428-3.877 2.958 0 .936.833 1.48 1.904 1.48z" fill-rule="nonzero"/><path d="m47.263 29.75v-16.472" fill="none"/><path d="m47.263 29.75v-16.472" fill="none" stroke="#000" stroke-width=".4"/><path d="m43.455 32.588c1.751 0 3.911-1.463 3.911-2.959 0-.901-.799-1.479-1.939-1.479-1.717 0-3.876 1.428-3.876 2.958 0 .936.833 1.48 1.904 1.48z" fill-rule="nonzero"/><path d="m64.266 29.75v-17.933" fill="none"/><path d="m64.266 29.75v-17.933" fill="none" stroke="#000" stroke-width=".4"/><path d="m60.458 32.588c1.752 0 3.911-1.463 3.911-2.959 0-.901-.799-1.479-1.938-1.479-1.717 0-3.877 1.428-3.877 2.958 0 .936.833 1.48 1.904 1.48z" fill-rule="nonzero"/><path d="m81.137 21.249v-10.893" fill="none"/><path d="m81.137 21.249v-10.893" fill="none" stroke="#000" stroke-width=".4"/><path d="m77.329 24.086c1.752 0 3.911-1.462 3.911-2.959 0-.901-.799-1.479-1.938-1.479-1.718 0-3.877 1.428-3.877 2.959 0 .935.833 1.479 1.904 1.479z" fill-rule="nonzero"/><path d="m92.561 22.577v14.214" fill="none"/><path d="m92.561 22.577v14.214" fill="none" stroke="#000" stroke-width=".4"/><path d="m94.333 24.086c1.751 0 3.911-1.462 3.911-2.959 0-.901-.8-1.479-1.939-1.479-1.717 0-3.877 1.428-3.877 2.959 0 .935.833 1.479 1.905 1.479z" fill-rule="nonzero"/><path d="m121.653 21.249v-10.893" fill="none"/><path d="m121.653 21.249v-10.893" fill="none" stroke="#000" stroke-width=".4"/><path d="m117.845 24.086c1.752 0 3.911-1.462 3.911-2.959 0-.901-.799-1.479-1.938-1.479-1.717 0-3.877 1.428-3.877 2.959 0 .935.833 1.479 1.904 1.479z" fill-rule="nonzero"/><path d="m138.657 27.625v-13.018" fill="none"/><path d="m138.657 27.625v-13.018" fill="none" stroke="#000" stroke-width=".4"/><path d="m134.849 30.462c1.751 0 3.911-1.462 3.911-2.958 0-.902-.799-1.48-1.939-1.48-1.717 0-3.876 1.429-3.876 2.959 0 .935.833 1.479 1.904 1.479z" fill-rule="nonzero"/><path d="m160.796 27.385c-.697-1.123-2.125-2.364-2.125-3.265 0-.595.527-1.53 1.598-2.823l-3.026-4.149c-.187.034-.289.102-.289.222 0-.017 1.241 1.479 1.241 2.38 0 .884-.578 1.853-1.751 2.925 1.326 1.632 2.074 2.414 2.601 3.23-.357-.187-.697-.289-1.02-.289-1.037 0-1.7.986-1.7 1.99 0 1.224 2.04 2.703 2.431 2.703.068 0 .119-.034.136-.102-.714-.697-1.071-1.343-1.071-1.938 0-.782.663-1.224 1.53-1.224.459 0 .952.119 1.445.34z" fill-rule="nonzero"/><path d="m184.21 21.212c-.867.765-1.683 1.14-2.414 1.14-.102 0-.17-.017-.221-.051.187-.341.272-.63.272-.885 0-.561-.323-.833-.969-.833-.561 0-1.174.374-1.174.867 0 .834.527 1.242 1.582 1.242.578 0 1.309-.153 2.193-.442l-2.72 5.985h.714z" fill-rule="nonzero"/><path d="m196.841 22.577v14.214" fill="none"/><path d="m196.841 22.577v14.214" fill="none" stroke="#000" stroke-width=".4"/><path d="m198.612 24.086c1.752 0 3.911-1.462 3.911-2.959 0-.901-.799-1.479-1.938-1.479-1.718 0-3.877 1.428-3.877 2.959 0 .935.833 1.479 1.904 1.479z" fill-rule="nonzero"/><path d="m196.878 36.737c.153 0 .238 0 .221-.017-.017-.034-.017-.085-.017-.136s0-.102.017-.154c.527-1.326 1.122-2.516 1.87-3.434.613-.748 1.31-1.429 1.939-2.177.663-.782.969-1.7.969-2.567 0-.459-.051-.901-.17-1.361-.221-.867-.901-2.533-1.309-2.533-.051 0-.068.051-.068.153 0 .085.034.204.102.323.595 1.105.884 2.04.884 2.772 0 1.037-.391 1.989-1.122 2.805-.153.153-.646.561-1.48 1.224-1.054.851-1.122.868-1.836.868z" fill-rule="nonzero"/><path d="m219.424 27.625v-14.214" fill="none"/><path d="m219.424 27.625v-14.214" fill="none" stroke="#000" stroke-width=".4"/><path d="m215.616 30.462c1.751 0 3.911-1.462 3.911-2.958 0-.902-.799-1.48-1.939-1.48-1.717 0-3.876 1.429-3.876 2.959 0 .935.833 1.479 1.904 1.479z" fill-rule="nonzero"/><path d="m237.357 22.577v14.214" fill="none"/><path d="m237.357 22.577v14.214" fill="none" stroke="#000" stroke-width=".4"/><path d="m239.129 24.086c1.751 0 3.91-1.462 3.91-2.959 0-.901-.799-1.479-1.938-1.479-1.717 0-3.877 1.428-3.877 2.959 0 .935.833 1.479 1.905 1.479z" fill-rule="nonzero"/><path d="m272.825 29.75v-15.143" fill="none"/><path d="m272.825 29.75v-15.143" fill="none" stroke="#000" stroke-width=".4"/><path d="m269.018 32.588c1.751 0 3.911-1.463 3.911-2.959 0-.901-.8-1.479-1.939-1.479-1.717 0-3.877 1.428-3.877 2.958 0 .936.833 1.48 1.905 1.48z" fill-rule="nonzero"/><path d="m289.696 29.75v-16.472" fill="none"/><path d="m289.696 29.75v-16.472" fill="none" stroke="#000" stroke-width=".4"/><path d="m285.888 32.588c1.752 0 3.911-1.463 3.911-2.959 0-.901-.799-1.479-1.938-1.479-1.718 0-3.877 1.428-3.877 2.958 0 .936.833 1.48 1.904 1.48z" fill-rule="nonzero"/><path d="m306.7 29.75v-17.933" fill="none"/><path d="m306.7 29.75v-17.933" fill="none" stroke="#000" stroke-width=".4"/><path d="m302.892 32.588c1.751 0 3.911-1.463 3.911-2.959 0-.901-.799-1.479-1.939-1.479-1.717 0-3.876 1.428-3.876 2.958 0 .936.833 1.48 1.904 1.48z" fill-rule="nonzero"/><path d="m323.703 23.374v-13.018" fill="none"/><path d="m323.703 23.374v-13.018" fill="none" stroke="#000" stroke-width=".4"/><path d="m319.896 26.211c1.751 0 3.91-1.462 3.91-2.958 0-.901-.799-1.48-1.938-1.48-1.717 0-3.877 1.429-3.877 2.959 0 .935.833 1.479 1.905 1.479z" fill-rule="nonzero"/><path d="m312.943 27.113 2.398-1.769c1.054-.765 1.462-1.632 1.496-2.278 0-.952-.867-1.667-1.887-1.667-.715 0-1.242.272-1.582.834l.119-5.357h-.544zm1.582-5.033c.544 0 .952.391.952.918 0 .884-1.174 2.584-2.058 3.145-.051-.289-.085-.85-.085-1.683 0-.459.034-1.02.102-1.666.255-.476.612-.714 1.089-.714z" fill-rule="nonzero"/><path d="m335.127 24.702v14.214" fill="none"/><path d="m335.127 24.702v14.214" fill="none" stroke="#000" stroke-width=".4"/><path d="m336.899 26.211c1.751 0 3.911-1.462 3.911-2.958 0-.901-.799-1.48-1.939-1.48-1.717 0-3.876 1.429-3.876 2.959 0 .935.833 1.479 1.904 1.479z" fill-rule="nonzero"/><path d="m364.22 23.374v-13.018" fill="none"/><path d="m364.22 23.374v-13.018" fill="none" stroke="#000" stroke-width=".4"/><path d="m360.412 26.211c1.751 0 3.911-1.462 3.911-2.958 0-.901-.8-1.48-1.939-1.48-1.717 0-3.877 1.429-3.877 2.959 0 .935.834 1.479 1.905 1.479z" fill-rule="nonzero"/><path d="m381.223 25.499v-14.081" fill="none"/><path d="m381.223 25.499v-14.081" fill="none" stroke="#000" stroke-width=".4"/><path d="m377.415 28.337c1.752 0 3.911-1.463 3.911-2.959 0-.901-.799-1.479-1.938-1.479-1.718 0-3.877 1.428-3.877 2.958 0 .936.833 1.48 1.904 1.48z" fill-rule="nonzero"/><path d="m370.463 29.238 2.398-1.768c1.054-.766 1.462-1.633 1.496-2.279 0-.952-.867-1.666-1.888-1.666-.714 0-1.241.272-1.581.833l.119-5.356h-.544zm1.581-5.033c.544 0 .953.391.953.918 0 .884-1.174 2.585-2.058 3.146-.051-.289-.085-.85-.085-1.684 0-.459.034-1.02.102-1.666.255-.476.612-.714 1.088-.714z" fill-rule="nonzero"/><path d="m404.47 25.499v-14.213" fill="none"/><path d="m404.47 25.499v-14.213" fill="none" stroke="#000" stroke-width=".4"/><path d="m400.662 28.337c1.752 0 3.911-1.463 3.911-2.959 0-.901-.799-1.479-1.938-1.479-1.718 0-3.877 1.428-3.877 2.958 0 .936.833 1.48 1.904 1.48z" fill-rule="nonzero"/><path d="m407.393 25.368c-.408 0-.783.357-.783.816 0 .392.392.766.783.766.459 0 .816-.374.816-.766 0-.459-.357-.816-.816-.816z" fill-rule="nonzero"/><path d="m430.64 24.702v14.214" fill="none"/><path d="m430.64 24.702v14.214" fill="none" stroke="#000" stroke-width=".4"/><path d="m432.411 26.211c1.752 0 3.911-1.462 3.911-2.958 0-.901-.799-1.48-1.938-1.48-1.718 0-3.877 1.429-3.877 2.959 0 .935.833 1.479 1.904 1.479z" fill-rule="nonzero"/><path d="m425.459 27.113 2.397-1.769c1.055-.765 1.463-1.632 1.497-2.278 0-.952-.868-1.667-1.888-1.667-.714 0-1.241.272-1.581.834l.119-5.357h-.544zm1.581-5.033c.544 0 .952.391.952.918 0 .884-1.173 2.584-2.057 3.145-.051-.289-.085-.85-.085-1.683 0-.459.034-1.02.102-1.666.255-.476.612-.714 1.088-.714z" fill-rule="nonzero"/><path d="m430.677 38.862c.153 0 .238 0 .221-.017-.017-.034-.017-.085-.017-.136s0-.102.017-.153c.527-1.326 1.122-2.517 1.87-3.435.612-.748 1.31-1.428 1.939-2.176.663-.782.969-1.701.969-2.568 0-.459-.051-.901-.17-1.36-.221-.867-.901-2.534-1.309-2.534-.051 0-.068.051-.068.153 0 .085.034.204.102.324.595 1.105.884 2.04.884 2.771 0 1.037-.391 1.99-1.122 2.806-.154.153-.647.561-1.48 1.224-1.054.85-1.122.867-1.836.867z" fill-rule="nonzero"/><path d="m447.51 24.702v14.214" fill="none"/><path d="m447.51 24.702v14.214" fill="none" stroke="#000" stroke-width=".4"/><path d="m449.282 26.211c1.751 0 3.911-1.462 3.911-2.958 0-.901-.799-1.48-1.939-1.48-1.717 0-3.876 1.429-3.876 2.959 0 .935.833 1.479 1.904 1.479z" fill-rule="nonzero"/><path d="m475.362 27.385c-.697-1.123-2.125-2.364-2.125-3.265 0-.595.527-1.53 1.598-2.823l-3.027-4.149c-.187.034-.289.102-.289.222 0-.017 1.242 1.479 1.242 2.38 0 .884-.578 1.853-1.752 2.925 1.327 1.632 2.075 2.414 2.602 3.23-.357-.187-.697-.289-1.02-.289-1.038 0-1.701.986-1.701 1.99 0 1.224 2.041 2.703 2.432 2.703.068 0 .119-.034.136-.102-.714-.697-1.071-1.343-1.071-1.938 0-.782.663-1.224 1.53-1.224.459 0 .952.119 1.445.34z" fill-rule="nonzero"/></svg>