<svg clip-rule="evenodd" fill-rule="evenodd" stroke-linejoin="round" stroke-miterlimit="2" viewBox="0 0 187 37" xmlns="http://www.w3.org/2000/svg"><path d="m183.782 12.302v17.004" fill="none" stroke="#000" stroke-width=".66"/><path d="m186.041 12.302v17.004" fill="none" stroke="#000" stroke-width=".66"/><path d="m.064 29.306h186.242" fill="none" stroke="#000" stroke-width=".4"/><path d="m.064 25.055h186.242" fill="none" stroke="#000" stroke-width=".4"/><path d="m.064 20.804h186.242" fill="none" stroke="#000" stroke-width=".4"/><path d="m.064 16.553h186.242" fill="none" stroke="#000" stroke-width=".4"/><path d="m.064 12.302h186.242" fill="none" stroke="#000" stroke-width=".4"/><g fill-rule="nonzero"><path d="m12.145 28.741.647 3.146c.034.187.051.357.051.527 0 1.666-1.701 3.061-3.537 3.061-.561 0-1.105-.136-1.616-.391 1.31-.136 2.296-.936 2.296-2.109 0-1.037-.85-2.125-1.938-2.125-1.242 0-2.092.952-2.092 2.193 0 1.734 1.411 2.874 3.112 2.874 2.278 0 4.217-1.48 4.217-3.605 0-.476-.748-3.843-.731-3.724 1.819-.884 3.06-2.448 3.06-4.098 0-2.261-1.819-3.996-4.081-3.996-.034 0-.272.017-.68.052l-.748-3.588c2.534-2.143 3.69-4.421 3.69-6.921 0-1.921-.765-3.962-2.313-6.104-1.751 1.411-2.754 4.234-2.754 7.244 0 1.071.136 2.108.374 3.094-3.877 3.248-5.815 6.24-5.815 8.978 0 3.214 3.315 5.883 6.92 5.883.799 0 1.394-.119 1.938-.391zm-.051-22.342c.562.578.851 1.258.851 2.057 0 1.649-1.174 3.503-3.469 5.543-.119-.493-.153-1.037-.153-1.632 0-2.857 1.054-6.002 2.465-6.002.119 0 .221.017.306.034zm.357 21.645-1.207-5.679c.238-.017.374-.034.425-.034 1.463 0 2.483 1.377 2.483 2.788 0 1.123-.595 2.109-1.701 2.925zm-1.632-5.611 1.224 5.849c-.595.323-1.258.459-2.057.459-2.755 0-5.135-2.057-5.135-4.557 0-2.261 1.683-4.591 4.863-6.971l.714 3.401c-1.768.374-3.265 1.87-3.265 3.553 0 1.429 1.021 2.432 2.551 2.67-.935-.578-1.394-1.309-1.394-2.177 0-1.173 1.088-2.04 2.499-2.227z"/><path d="m23.276 6.86h-1.475c-.23-.271-.436-.551-.617-.831-.19-.289-.346-.602-.478-.931-.132-.305-.231-.651-.297-1.021-.074-.379-.107-.766-.107-1.17 0-.445.033-.848.107-1.202.075-.363.173-.692.289-.989.131-.321.288-.634.469-.914.19-.288.404-.576.634-.857h1.475v.116c-.215.197-.42.42-.618.667s-.387.543-.552.873c-.165.321-.288.675-.395 1.062-.099.387-.149.799-.149 1.244 0 .453.05.873.149 1.244.099.37.23.724.395 1.054.157.321.346.609.544.865.206.263.411.486.626.675z"/><path d="m23.571 5.205 2.026-5.988h1.639l2.026 5.988h-1.548l-.379-1.219h-1.878l-.379 1.219zm3.435-2.306-.61-1.977-.609 1.977z"/><path d="m32.758 2.915c0-.453-.066-.774-.206-.972-.131-.189-.346-.288-.626-.288-.131 0-.255.025-.378.066-.124.041-.248.099-.371.181v2.265c.099.041.189.066.288.074.091.017.19.025.28.025.346 0 .593-.115.766-.338.165-.23.247-.568.247-1.013zm1.442-.033c0 .725-.182 1.302-.544 1.746-.371.445-.815.668-1.359.668-.222 0-.42-.025-.585-.083-.164-.049-.346-.123-.535-.23l-.058.222h-1.35v-6.26h1.408v2.216c.206-.181.42-.321.634-.428.214-.116.461-.165.741-.165.527 0 .931.198 1.219.609.289.412.429.981.429 1.705z"/><path d="m37.731 2.907c0 .404-.033.791-.107 1.17-.074.37-.173.716-.296 1.021-.132.329-.297.642-.478.931-.181.28-.395.56-.618.831h-1.474v-.115c.214-.189.42-.412.626-.675.198-.256.379-.544.544-.865.164-.33.296-.684.395-1.054.099-.371.148-.791.148-1.244 0-.445-.058-.857-.156-1.244-.099-.387-.231-.741-.387-1.062-.173-.33-.355-.626-.552-.873-.198-.247-.404-.47-.618-.667v-.116h1.474c.231.281.445.569.626.857.19.28.346.593.478.914.115.297.214.626.28.989.074.354.115.757.115 1.202z"/><path d="m50.657 5.205h-1.038l-1.894-2.38h-.914v2.38h-.791v-5.988h1.54c.346 0 .634.017.865.058.231.033.453.123.659.263.214.132.379.305.502.519.116.206.182.47.182.783 0 .445-.116.807-.338 1.103-.222.297-.527.511-.906.659zm-1.721-4.299c0-.182-.033-.33-.091-.47-.066-.132-.165-.247-.288-.329-.115-.074-.247-.132-.395-.157-.149-.033-.338-.049-.561-.049h-.79v2.257h.7c.23 0 .436-.017.618-.058.181-.041.337-.124.469-.247.115-.115.198-.247.255-.404.05-.156.083-.337.083-.543z"/><path d="m52.867 5.312c-.717 0-1.268-.206-1.664-.609-.395-.404-.593-.972-.593-1.722 0-.725.19-1.309.577-1.746.379-.428.881-.651 1.499-.651.28 0 .527.042.741.124s.404.206.56.379c.165.173.288.379.371.626.09.255.131.552.131.914v.412h-3.113c0 .519.132.922.396 1.194.263.28.625.42 1.087.42.164 0 .329-.025.494-.058.156-.041.296-.09.428-.148.14-.057.255-.123.346-.181s.173-.107.231-.156h.049v.823c-.09.033-.198.074-.329.132-.132.049-.256.09-.354.123-.149.033-.281.066-.404.091-.115.017-.272.033-.453.033zm.889-2.85c-.008-.206-.032-.387-.074-.527-.041-.148-.107-.28-.189-.379-.082-.115-.198-.197-.338-.255s-.305-.091-.51-.091c-.206 0-.371.033-.511.091s-.272.148-.387.264c-.115.115-.198.247-.255.395-.058.14-.099.305-.116.502z"/><path d="m57.201 5.312c-.717 0-1.268-.206-1.664-.609-.395-.404-.593-.972-.593-1.722 0-.725.19-1.309.577-1.746.379-.428.881-.651 1.499-.651.28 0 .527.042.741.124s.403.206.56.379c.165.173.288.379.371.626.09.255.131.552.131.914v.412h-3.113c0 .519.132.922.395 1.194.264.28.626.42 1.088.42.164 0 .329-.025.494-.058.156-.041.296-.09.428-.148.14-.057.255-.123.346-.181s.173-.107.231-.156h.049v.823c-.091.033-.198.074-.329.132-.132.049-.256.09-.355.123-.148.033-.28.066-.403.091-.115.017-.272.033-.453.033zm.889-2.85c-.008-.206-.033-.387-.074-.527-.041-.148-.107-.28-.189-.379-.083-.115-.198-.197-.338-.255s-.305-.091-.511-.091c-.205 0-.37.033-.51.091s-.272.148-.387.264c-.116.115-.198.247-.256.395-.057.14-.098.305-.115.502z"/><path d="m63.314 5.205h-.997l-1.68-2.166-.296.288v1.878h-.758v-6.26h.758v3.666l1.779-1.895h.938l-1.844 1.878z"/><path d="m64.903 5.312c-.305 0-.585-.041-.84-.115-.263-.083-.478-.173-.651-.264v-.848h.042c.057.049.14.107.222.173.091.057.206.123.346.189.132.058.272.115.428.157.157.049.313.074.478.074.123 0 .255-.017.387-.05.14-.024.239-.057.305-.107.099-.057.164-.123.206-.189.041-.074.057-.181.057-.321 0-.173-.041-.313-.14-.404-.099-.09-.271-.165-.527-.231-.09-.024-.222-.049-.37-.082-.157-.033-.305-.066-.437-.107-.338-.099-.593-.247-.749-.461-.149-.206-.231-.453-.231-.75 0-.403.156-.733.461-.988s.708-.387 1.219-.387c.247 0 .494.033.75.099.255.057.461.14.634.23v.808h-.041c-.19-.149-.404-.272-.643-.363-.239-.09-.478-.132-.716-.132-.247 0-.462.05-.635.157-.172.107-.255.263-.255.478 0 .181.05.321.148.42.107.09.272.164.495.222.115.033.238.058.378.091.132.024.28.057.437.098.329.083.576.223.749.412.165.198.248.453.248.791 0 .189-.033.37-.116.543-.074.173-.189.322-.329.445-.165.14-.346.239-.552.305-.198.074-.453.107-.758.107z"/><path d="m73.523 5.205h-3.698v-.84c.263-.255.519-.494.758-.725.23-.231.461-.469.691-.716.453-.503.766-.906.931-1.211.165-.297.247-.61.247-.931 0-.165-.025-.313-.074-.436-.058-.132-.132-.231-.222-.313-.091-.083-.198-.149-.322-.182-.123-.041-.263-.065-.403-.065-.148 0-.288.016-.437.057-.148.033-.288.083-.42.132-.115.049-.222.099-.329.165-.099.066-.181.123-.247.164h-.05v-.848c.173-.082.404-.165.7-.247.297-.074.577-.115.841-.115.56 0 .996.148 1.309.444.313.297.478.692.478 1.203 0 .231-.033.453-.083.651-.057.197-.131.378-.23.551s-.214.346-.354.519c-.14.165-.289.338-.445.503-.255.271-.535.56-.84.856-.313.289-.56.527-.741.7h2.94z"/></g><path d="m30.219 22.265v-14.214" fill="none" stroke="#000" stroke-width=".4"/><path d="m26.411 25.102c1.752 0 3.911-1.462 3.911-2.958 0-.901-.799-1.479-1.938-1.479-1.718 0-3.877 1.428-3.877 2.958 0 .935.833 1.479 1.904 1.479z" fill-rule="nonzero"/><path d="m19.459 26.004 2.398-1.769c1.054-.765 1.462-1.632 1.496-2.278 0-.952-.867-1.667-1.888-1.667-.714 0-1.241.273-1.581.834l.119-5.356h-.544zm1.581-5.033c.545 0 .953.391.953.918 0 .884-1.174 2.584-2.058 3.145-.051-.289-.085-.85-.085-1.683 0-.459.034-1.02.102-1.666.255-.476.612-.714 1.088-.714z" fill-rule="nonzero"/><path d="m63.828 21.468v14.214" fill="none" stroke="#000" stroke-width=".4"/><path d="m65.599 22.977c1.752 0 3.911-1.462 3.911-2.959 0-.901-.799-1.479-1.938-1.479-1.718 0-3.877 1.428-3.877 2.959 0 .935.833 1.479 1.904 1.479z" fill-rule="nonzero"/><path d="m58.647 23.878 2.397-1.768c1.055-.765 1.463-1.632 1.497-2.279 0-.952-.867-1.666-1.888-1.666-.714 0-1.241.272-1.581.833l.119-5.356h-.544zm1.581-5.033c.544 0 .952.391.952.918 0 .885-1.173 2.585-2.057 3.146-.051-.289-.085-.85-.085-1.683 0-.459.034-1.021.102-1.667.255-.476.612-.714 1.088-.714z" fill-rule="nonzero"/><path d="m103.016 15.092v14.214" fill="none" stroke="#000" stroke-width=".4"/><path d="m104.787 16.601c1.752 0 3.911-1.463 3.911-2.959 0-.901-.799-1.479-1.938-1.479-1.718 0-3.877 1.428-3.877 2.958 0 .936.833 1.48 1.904 1.48z" fill-rule="nonzero"/><path d="m97.835 17.502 2.397-1.768c1.055-.766 1.463-1.633 1.497-2.279 0-.952-.868-1.666-1.888-1.666-.714 0-1.241.272-1.581.833l.119-5.356h-.544zm1.581-5.033c.544 0 .952.391.952.918 0 .884-1.173 2.585-2.057 3.146-.051-.289-.085-.85-.085-1.684 0-.459.034-1.02.102-1.666.255-.476.612-.714 1.088-.714z" fill-rule="nonzero"/><path d="m142.203 12.966v14.214" fill="none" stroke="#000" stroke-width=".4"/><path d="m143.975 14.475c1.751 0 3.911-1.462 3.911-2.958 0-.902-.799-1.48-1.939-1.48-1.717 0-3.876 1.429-3.876 2.959 0 .935.833 1.479 1.904 1.479z" fill-rule="nonzero"/></svg>