<svg clip-rule="evenodd" fill-rule="evenodd" stroke-linejoin="round" stroke-miterlimit="2" viewBox="0 0 501 40" xmlns="http://www.w3.org/2000/svg"><path d="m158.848 15.544v17.004" fill="none" stroke="#000" stroke-width=".66"/><path d="m287.438 15.544v17.004" fill="none" stroke="#000" stroke-width=".66"/><path d="m418.02 15.544v17.004" fill="none" stroke="#000" stroke-width=".66"/><path d="m496.927 15.544v17.004" fill="none" stroke="#000" stroke-width=".66"/><path d="m499.849 15.544v17.004" fill="none" stroke="#000" stroke-width="2.13"/><path d="m75.425 18.732c3.719-3.587 15.011-3.587 18.73 0" fill="none" stroke="#000" stroke-width=".27"/><path d="m75.425 18.732c3.719-4.251 15.011-4.251 18.73 0-3.719-2.922-15.011-2.922-18.73 0z"/><path d="m75.425 18.732c3.719-4.251 15.011-4.251 18.73 0-3.719-2.922-15.011-2.922-18.73 0z" fill="none" stroke="#000" stroke-width=".13"/><path d="m271.231 29.359c5.048 4.251 20.192 4.251 25.24 0" fill="none" stroke="#000" stroke-width=".27"/><path d="m271.231 29.359c5.048 3.587 20.192 3.587 25.24 0-5.048 4.915-20.192 4.915-25.24 0z"/><path d="m271.231 29.359c5.048 3.587 20.192 3.587 25.24 0-5.048 4.915-20.192 4.915-25.24 0z" fill="none" stroke="#000" stroke-width=".13"/><path d="m334.596 14.481c3.72-3.586 15.144-3.586 18.863 0" fill="none" stroke="#000" stroke-width=".27"/><path d="m334.596 14.481c3.72-4.251 15.144-4.251 18.863 0-3.719-2.922-15.143-2.922-18.863 0z"/><g fill="none"><path d="m334.596 14.481c3.72-4.251 15.144-4.251 18.863 0-3.719-2.922-15.143-2.922-18.863 0z" stroke="#000" stroke-width=".13"/><path d="m.104 32.548h500.808"/><path d="m.104 32.548h500.808" stroke="#000" stroke-width=".4"/><path d="m.104 28.297h500.808"/><path d="m.104 28.297h500.808" stroke="#000" stroke-width=".4"/><path d="m.104 24.046h500.808"/><path d="m.104 24.046h500.808" stroke="#000" stroke-width=".4"/><path d="m.104 19.795h500.808"/><path d="m.104 19.795h500.808" stroke="#000" stroke-width=".4"/><path d="m.104 15.544h500.808"/><path d="m.104 15.544h500.808" stroke="#000" stroke-width=".4"/></g><path d="m12.185 31.983.647 3.146c.034.187.051.357.051.527 0 1.666-1.701 3.06-3.537 3.06-.561 0-1.105-.136-1.616-.391 1.31-.136 2.296-.935 2.296-2.108 0-1.037-.85-2.125-1.938-2.125-1.242 0-2.092.952-2.092 2.193 0 1.734 1.411 2.874 3.112 2.874 2.278 0 4.217-1.48 4.217-3.605 0-.476-.749-3.843-.732-3.724 1.82-.884 3.061-2.448 3.061-4.098 0-2.261-1.819-3.996-4.081-3.996-.034 0-.272.017-.68.051l-.748-3.587c2.533-2.143 3.69-4.421 3.69-6.921 0-1.921-.765-3.962-2.313-6.104-1.751 1.411-2.754 4.234-2.754 7.243 0 1.072.136 2.109.374 3.095-3.877 3.248-5.815 6.24-5.815 8.978 0 3.214 3.315 5.883 6.92 5.883.799 0 1.394-.119 1.938-.391zm-.051-22.343c.561.579.851 1.259.851 2.058 0 1.649-1.174 3.503-3.469 5.543-.119-.493-.153-1.037-.153-1.632 0-2.857 1.054-6.003 2.465-6.003.119 0 .221.017.306.034zm.357 21.646-1.207-5.679c.238-.017.374-.034.425-.034 1.463 0 2.483 1.377 2.483 2.788 0 1.123-.595 2.109-1.701 2.925zm-1.632-5.611 1.224 5.849c-.595.323-1.258.459-2.057.459-2.755 0-5.135-2.057-5.135-4.557 0-2.261 1.683-4.591 4.863-6.971l.714 3.4c-1.768.374-3.265 1.871-3.265 3.554 0 1.428 1.021 2.432 2.551 2.67-.935-.578-1.394-1.31-1.394-2.177 0-1.173 1.088-2.04 2.499-2.227z" fill-rule="nonzero"/><path d="m31.419 11.632h-1.474c-.231-.271-.437-.551-.618-.831-.19-.289-.346-.602-.478-.931-.132-.305-.23-.651-.296-1.021-.075-.379-.107-.766-.107-1.17 0-.445.032-.848.107-1.202.074-.363.173-.692.288-.989.132-.321.288-.634.469-.914.19-.288.404-.577.635-.857h1.474v.116c-.214.197-.42.42-.618.667s-.387.543-.552.873c-.164.321-.288.675-.395 1.062-.099.387-.148.799-.148 1.244 0 .453.049.873.148 1.244.099.37.231.724.395 1.054.157.321.346.609.544.865.206.263.412.486.626.675z" fill-rule="nonzero"/><path d="m36.368 5.134h-2.512v1.128h2.314v1.145h-2.314v2.57h-1.499v-5.988h4.011z" fill-rule="nonzero"/><path d="m39.818 7.679c0 .404-.033.791-.107 1.17-.074.37-.173.716-.297 1.021-.132.329-.296.642-.477.931-.182.28-.396.56-.618.831h-1.474v-.115c.214-.189.42-.412.625-.675.198-.256.379-.544.544-.865.165-.33.297-.684.395-1.054.099-.371.149-.791.149-1.244 0-.445-.058-.857-.157-1.244s-.23-.741-.387-1.062c-.173-.33-.354-.626-.552-.873-.197-.247-.403-.47-.617-.667v-.116h1.474c.23.28.445.569.626.857.189.28.346.593.477.914.116.297.215.626.28.989.075.354.116.757.116 1.202z" fill-rule="nonzero"/><path d="m52.744 9.977h-1.038l-1.894-2.38h-.915v2.38h-.79v-5.988h1.54c.346 0 .634.017.865.058.23.033.453.123.658.263.215.132.379.305.503.519.115.206.181.47.181.783 0 .445-.115.807-.338 1.103-.222.297-.527.511-.906.659zm-1.722-4.299c0-.182-.033-.33-.09-.47-.066-.132-.165-.247-.289-.329-.115-.074-.247-.132-.395-.157-.148-.033-.338-.049-.56-.049h-.791v2.257h.7c.231 0 .437-.017.618-.058s.338-.124.47-.247c.115-.115.197-.247.255-.404.049-.156.082-.337.082-.543z" fill-rule="nonzero"/><path d="m54.953 10.084c-.716 0-1.268-.206-1.663-.61-.396-.403-.593-.971-.593-1.721 0-.725.189-1.309.576-1.746.379-.428.882-.651 1.499-.651.28 0 .527.042.742.124.214.082.403.206.56.379.164.173.288.379.37.626.091.255.132.552.132.914v.412h-3.113c0 .519.132.922.395 1.194.264.28.626.42 1.087.42.165 0 .33-.025.494-.058.157-.041.297-.09.429-.148.14-.057.255-.123.346-.181.09-.058.173-.107.23-.156h.05v.823c-.091.033-.198.074-.33.132-.132.049-.255.09-.354.123-.148.033-.28.066-.404.091-.115.016-.271.033-.453.033zm.89-2.85c-.008-.206-.033-.387-.074-.527-.041-.148-.107-.28-.19-.379-.082-.115-.197-.197-.337-.255s-.305-.091-.511-.091-.371.033-.511.091-.271.148-.387.264c-.115.115-.197.247-.255.395-.058.14-.099.305-.115.502z" fill-rule="nonzero"/><path d="m59.287 10.084c-.716 0-1.268-.206-1.663-.61-.396-.403-.593-.971-.593-1.721 0-.725.189-1.309.576-1.746.379-.428.881-.651 1.499-.651.28 0 .527.042.741.124.215.082.404.206.561.379.164.173.288.379.37.626.091.255.132.552.132.914v.412h-3.113c0 .519.131.922.395 1.194.264.28.626.42 1.087.42.165 0 .33-.025.494-.058.157-.041.297-.09.429-.148.14-.057.255-.123.346-.181.09-.058.172-.107.23-.156h.05v.823c-.091.033-.198.074-.33.132-.132.049-.255.09-.354.123-.148.033-.28.066-.404.091-.115.016-.271.033-.453.033zm.89-2.85c-.008-.206-.033-.387-.074-.527-.041-.148-.107-.28-.19-.379-.082-.115-.197-.197-.337-.255s-.305-.091-.511-.091-.371.033-.511.091-.271.148-.387.264c-.115.115-.197.247-.255.395-.058.14-.099.305-.115.502z" fill-rule="nonzero"/><path d="m65.4 9.977h-.996l-1.68-2.166-.297.288v1.878h-.758v-6.26h.758v3.666l1.779-1.895h.939l-1.845 1.878z" fill-rule="nonzero"/><path d="m66.99 10.084c-.305 0-.585-.041-.84-.115-.264-.083-.478-.173-.651-.264v-.848h.041c.058.049.14.107.223.173.09.057.205.123.345.189.132.058.272.115.429.157.156.049.313.074.477.074.124 0 .256-.017.388-.05.14-.024.238-.057.304-.107.099-.057.165-.123.206-.189.041-.074.058-.181.058-.321 0-.173-.041-.313-.14-.404-.099-.09-.272-.165-.527-.231-.091-.024-.223-.049-.371-.082-.156-.033-.305-.066-.436-.107-.338-.099-.593-.247-.75-.461-.148-.206-.231-.453-.231-.75 0-.403.157-.733.462-.988.304-.255.708-.387 1.219-.387.247 0 .494.033.749.099.255.057.461.14.634.23v.808h-.041c-.189-.149-.403-.272-.642-.363-.239-.09-.478-.132-.717-.132-.247 0-.461.05-.634.157s-.255.263-.255.478c0 .181.049.321.148.42.107.09.272.164.494.222.115.033.239.058.379.091.132.024.28.057.436.098.33.083.577.223.75.412.165.198.247.453.247.791 0 .189-.033.37-.115.543-.074.173-.19.322-.33.445-.164.14-.346.239-.552.305-.197.074-.453.107-.757.107z" fill-rule="nonzero"/><path d="m75.305 9.977h-2.924v-.61h1.087v-4.019h-1.087v-.543c.412 0 .716-.058.906-.173.197-.116.305-.338.329-.659h.626v5.394h1.063z" fill-rule="nonzero"/><path d="m124.974 16.607 19.926-4.251v-2.126l-19.926 4.251z"/><path d="m294.841 7.913h-1.474c-.231-.272-.437-.552-.618-.832-.189-.288-.346-.601-.478-.931-.131-.304-.23-.65-.296-1.021-.074-.379-.107-.766-.107-1.169 0-.445.033-.849.107-1.203.074-.362.173-.692.288-.988.132-.322.288-.634.47-.915.189-.288.403-.576.634-.856h1.474v.115c-.214.198-.42.42-.618.667-.197.247-.387.544-.552.873-.164.322-.288.676-.395 1.063-.099.387-.148.799-.148 1.244 0 .452.049.873.148 1.243.099.371.231.725.395 1.054.157.322.346.61.544.865.206.264.412.486.626.676z" fill-rule="nonzero"/><path d="m295.137 6.257 2.026-5.987h1.639l2.026 5.987h-1.549l-.379-1.219h-1.877l-.379 1.219zm3.434-2.306-.609-1.976-.61 1.976z" fill-rule="nonzero"/><path d="m304.324 3.968c0-.453-.066-.774-.206-.972-.132-.19-.346-.288-.626-.288-.132 0-.255.024-.379.066-.124.041-.247.098-.371.181v2.265c.099.041.19.066.289.074.09.016.189.024.28.024.346 0 .593-.115.766-.337.164-.231.247-.569.247-1.013zm1.441-.033c0 .725-.181 1.301-.544 1.746-.37.445-.815.667-1.359.667-.222 0-.42-.025-.584-.082-.165-.05-.346-.124-.536-.231l-.057.222h-1.351v-6.259h1.408v2.215c.206-.181.42-.321.635-.428.214-.115.461-.165.741-.165.527 0 .93.198 1.219.61.288.412.428.98.428 1.705z" fill-rule="nonzero"/><path d="m309.297 3.96c0 .403-.033.79-.107 1.169-.075.371-.173.717-.297 1.021-.132.33-.296.643-.478.931-.181.28-.395.56-.617.832h-1.475v-.115c.215-.19.42-.412.626-.676.198-.255.379-.543.544-.865.165-.329.296-.683.395-1.054.099-.37.149-.791.149-1.243 0-.445-.058-.857-.157-1.244s-.231-.741-.387-1.063c-.173-.329-.354-.626-.552-.873s-.403-.469-.618-.667v-.115h1.475c.23.28.444.568.626.856.189.281.346.593.477.915.116.296.214.626.28.988.074.354.116.758.116 1.203z" fill-rule="nonzero"/><path d="m322.222 6.257h-1.037l-1.895-2.38h-.914v2.38h-.79v-5.987h1.54c.346 0 .634.016.864.057.231.033.453.124.659.264.215.132.379.305.503.519.115.206.181.469.181.782 0 .445-.115.807-.338 1.104-.222.296-.527.511-.906.659zm-1.721-4.299c0-.181-.033-.329-.09-.469-.066-.132-.165-.247-.289-.33-.115-.074-.247-.132-.395-.156-.148-.033-.338-.05-.56-.05h-.791v2.257h.7c.231 0 .437-.016.618-.058.181-.041.338-.123.469-.247.116-.115.198-.247.256-.403.049-.157.082-.338.082-.544z" fill-rule="nonzero"/><path d="m324.432 6.364c-.716 0-1.268-.205-1.663-.609-.396-.404-.593-.972-.593-1.721 0-.725.189-1.31.576-1.746.379-.429.881-.651 1.499-.651.28 0 .527.041.741.123.215.083.404.206.56.379.165.173.289.379.371.626.091.256.132.552.132.914v.412h-3.113c0 .519.131.923.395 1.195.264.28.626.42 1.087.42.165 0 .33-.025.494-.058.157-.041.297-.091.429-.148.14-.058.255-.124.345-.182.091-.057.173-.107.231-.156h.05v.824c-.091.033-.198.074-.33.131-.132.05-.255.091-.354.124-.148.033-.28.066-.404.09-.115.017-.271.033-.453.033zm.89-2.849c-.008-.206-.033-.387-.074-.527-.041-.149-.107-.28-.19-.379-.082-.116-.197-.198-.337-.256-.14-.057-.305-.09-.511-.09s-.371.033-.511.09c-.14.058-.271.149-.387.264-.115.115-.197.247-.255.395-.058.14-.099.305-.115.503z" fill-rule="nonzero"/><path d="m328.766 6.364c-.716 0-1.268-.205-1.663-.609-.396-.404-.593-.972-.593-1.721 0-.725.189-1.31.576-1.746.379-.429.881-.651 1.499-.651.28 0 .527.041.741.123.214.083.404.206.56.379.165.173.289.379.371.626.091.256.132.552.132.914v.412h-3.113c0 .519.131.923.395 1.195.263.28.626.42 1.087.42.165 0 .329-.025.494-.058.157-.041.297-.091.428-.148.14-.058.256-.124.346-.182.091-.057.173-.107.231-.156h.049v.824c-.09.033-.197.074-.329.131-.132.05-.255.091-.354.124-.148.033-.28.066-.404.09-.115.017-.272.033-.453.033zm.89-2.849c-.008-.206-.033-.387-.074-.527-.042-.149-.107-.28-.19-.379-.082-.116-.197-.198-.337-.256-.14-.057-.305-.09-.511-.09s-.371.033-.511.09c-.14.058-.272.149-.387.264s-.198.247-.255.395c-.058.14-.099.305-.115.503z" fill-rule="nonzero"/><path d="m334.879 6.257h-.996l-1.681-2.166-.296.289v1.877h-.758v-6.259h.758v3.665l1.779-1.894h.939l-1.845 1.878z" fill-rule="nonzero"/><path d="m336.469 6.364c-.305 0-.585-.041-.84-.115-.264-.082-.478-.173-.651-.263v-.849h.041c.058.05.14.107.222.173.091.058.206.124.346.19.132.057.272.115.429.156.156.05.313.074.477.074.124 0 .256-.016.387-.049.14-.025.239-.058.305-.107.099-.058.165-.124.206-.19.041-.074.058-.181.058-.321 0-.173-.041-.313-.14-.403-.099-.091-.272-.165-.527-.231-.091-.025-.223-.049-.371-.082-.157-.033-.305-.066-.437-.107-.337-.099-.593-.248-.749-.462-.148-.206-.231-.453-.231-.749 0-.404.157-.733.462-.989.304-.255.708-.387 1.219-.387.247 0 .494.033.749.099.255.058.461.14.634.231v.807h-.041c-.189-.148-.404-.272-.642-.362-.239-.091-.478-.132-.717-.132-.247 0-.461.049-.634.156s-.255.264-.255.478c0 .181.049.321.148.42.107.091.272.165.494.222.115.033.239.058.379.091.132.025.28.058.436.099.33.082.577.222.75.412.165.197.247.453.247.79 0 .19-.033.371-.115.544-.075.173-.19.321-.33.445-.165.14-.346.238-.552.304-.197.074-.453.107-.757.107z" fill-rule="nonzero"/><path d="m345.088 6.257h-3.698v-.84c.264-.255.519-.494.758-.724.231-.231.461-.47.692-.717.453-.502.766-.906.93-1.211.165-.296.248-.609.248-.93 0-.165-.025-.313-.075-.437-.057-.132-.131-.231-.222-.313s-.198-.148-.321-.181c-.124-.041-.264-.066-.404-.066-.148 0-.288.016-.436.058-.148.033-.288.082-.42.131-.116.05-.223.099-.33.165-.099.066-.181.124-.247.165h-.049v-.848c.173-.083.403-.165.7-.248.296-.074.576-.115.84-.115.56 0 .997.148 1.309.445.313.296.478.692.478 1.202 0 .231-.033.453-.082.651-.058.198-.132.379-.231.552s-.214.346-.354.519c-.14.164-.288.337-.445.502-.255.272-.535.56-.84.857-.313.288-.56.527-.741.7h2.94z" fill-rule="nonzero"/><path d="m253.696 16.607 19.794-1.063v-2.125l-19.794 1.062z"/><path d="m244.265 35.736v-26.037" fill="none"/><path d="m244.265 35.736v-26.037" fill="none" stroke="#000" stroke-width=".66"/><path d="m243.999 35.736h70.14" fill="none"/><path d="m243.999 35.736h70.14" fill="none" stroke="#000" stroke-width=".66"/><path d="m243.999 9.699h70.14" fill="none"/><path d="m243.999 9.699h70.14" fill="none" stroke="#000" stroke-width=".66"/><path d="m313.873 35.736v-26.037" fill="none"/><path d="m313.873 35.736v-26.037" fill="none" stroke="#000" stroke-width=".66"/><path d="m453.887 19.758h4.778v2.04h-4.778z" fill-rule="nonzero"/><path d="m378.699 33.61 19.793 4.251v-2.125l-19.793-4.251z"/><path d="m30.259 29.758v-14.214" fill="none"/><path d="m30.259 29.758v-14.214" fill="none" stroke="#000" stroke-width=".4"/><path d="m26.451 32.595c1.752 0 3.911-1.462 3.911-2.958 0-.902-.799-1.48-1.938-1.48-1.718 0-3.877 1.429-3.877 2.959 0 .935.833 1.479 1.904 1.479z" fill-rule="nonzero"/><path d="m56.551 21.22c-.867.765-1.684 1.139-2.415 1.139-.102 0-.17-.017-.221-.051.187-.34.272-.629.272-.884 0-.561-.323-.833-.969-.833-.561 0-1.173.374-1.173.867 0 .833.527 1.241 1.581 1.241.578 0 1.309-.153 2.194-.442l-2.721 5.985h.714z" fill-rule="nonzero"/><path d="m72.104 22.585v14.213" fill="none"/><path d="m72.104 22.585v14.213" fill="none" stroke="#000" stroke-width=".4"/><path d="m73.875 24.093c1.752 0 3.911-1.462 3.911-2.958 0-.901-.799-1.479-1.938-1.479-1.718 0-3.877 1.428-3.877 2.958 0 .935.833 1.479 1.904 1.479z" fill-rule="nonzero"/><path d="m72.141 36.744c.153 0 .238 0 .221-.017-.017-.034-.017-.085-.017-.136s0-.102.017-.153c.527-1.326 1.122-2.516 1.87-3.435.613-.748 1.31-1.428 1.939-2.176.663-.782.969-1.7.969-2.568 0-.459-.051-.901-.17-1.36-.221-.867-.901-2.533-1.309-2.533-.051 0-.068.051-.068.153 0 .085.034.204.102.323.595 1.105.884 2.04.884 2.771 0 1.037-.391 1.99-1.122 2.806-.153.153-.646.561-1.48 1.224-1.054.85-1.122.867-1.836.867z" fill-rule="nonzero"/><path d="m91.897 22.585v14.213" fill="none"/><path d="m91.897 22.585v14.213" fill="none" stroke="#000" stroke-width=".4"/><path d="m93.669 24.093c1.751 0 3.91-1.462 3.91-2.958 0-.901-.799-1.479-1.938-1.479-1.717 0-3.877 1.428-3.877 2.958 0 .935.833 1.479 1.905 1.479z" fill-rule="nonzero"/><path d="m124.974 27.632v-13.018" fill="none"/><path d="m124.974 27.632v-13.018" fill="none" stroke="#000" stroke-width=".4"/><path d="m121.166 30.47c1.752 0 3.911-1.463 3.911-2.959 0-.901-.799-1.479-1.938-1.479-1.717 0-3.877 1.428-3.877 2.958 0 .936.833 1.48 1.904 1.48z" fill-rule="nonzero"/><path d="m144.9 21.256v-10.893" fill="none"/><path d="m144.9 21.256v-10.893" fill="none" stroke="#000" stroke-width=".4"/><path d="m141.092 24.093c1.752 0 3.911-1.462 3.911-2.958 0-.901-.799-1.479-1.938-1.479-1.717 0-3.877 1.428-3.877 2.958 0 .935.833 1.479 1.904 1.479z" fill-rule="nonzero"/><path d="m165.623 20.459v14.214" fill="none"/><path d="m165.623 20.459v14.214" fill="none" stroke="#000" stroke-width=".4"/><path d="m167.395 21.968c1.751 0 3.911-1.462 3.911-2.959 0-.901-.799-1.479-1.939-1.479-1.717 0-3.877 1.428-3.877 2.959 0 .935.834 1.479 1.905 1.479z" fill-rule="nonzero"/><path d="m193.121 22.585v14.213" fill="none"/><path d="m193.121 22.585v14.213" fill="none" stroke="#000" stroke-width=".4"/><path d="m194.893 24.093c1.751 0 3.911-1.462 3.911-2.958 0-.901-.8-1.479-1.939-1.479-1.717 0-3.877 1.428-3.877 2.958 0 .935.834 1.479 1.905 1.479z" fill-rule="nonzero"/><path d="m226.198 27.632v-14.213" fill="none"/><path d="m226.198 27.632v-14.213" fill="none" stroke="#000" stroke-width=".4"/><path d="m222.391 30.47c1.751 0 3.911-1.463 3.911-2.959 0-.901-.8-1.479-1.939-1.479-1.717 0-3.877 1.428-3.877 2.958 0 .936.834 1.48 1.905 1.48z" fill-rule="nonzero"/><path d="m253.696 27.632v-13.018" fill="none"/><path d="m253.696 27.632v-13.018" fill="none" stroke="#000" stroke-width=".4"/><path d="m249.889 30.47c1.751 0 3.911-1.463 3.911-2.959 0-.901-.8-1.479-1.939-1.479-1.717 0-3.877 1.428-3.877 2.958 0 .936.833 1.48 1.905 1.48z" fill-rule="nonzero"/><path d="m273.49 25.507v-11.956" fill="none"/><path d="m273.49 25.507v-11.956" fill="none" stroke="#000" stroke-width=".4"/><path d="m269.682 28.344c1.751 0 3.911-1.462 3.911-2.958 0-.901-.799-1.48-1.939-1.48-1.717 0-3.877 1.429-3.877 2.959 0 .935.834 1.479 1.905 1.479z" fill-rule="nonzero"/><path d="m262.73 29.246 2.397-1.769c1.054-.765 1.462-1.632 1.496-2.278 0-.953-.867-1.667-1.887-1.667-.714 0-1.241.272-1.581.834l.119-5.357h-.544zm1.581-5.034c.544 0 .952.392.952.919 0 .884-1.173 2.584-2.057 3.145-.051-.289-.085-.85-.085-1.683 0-.459.034-1.02.102-1.666.255-.476.612-.715 1.088-.715z" fill-rule="nonzero"/><path d="m299.792 25.507v-14.214" fill="none"/><path d="m299.792 25.507v-14.214" fill="none" stroke="#000" stroke-width=".4"/><path d="m295.984 28.344c1.752 0 3.911-1.462 3.911-2.958 0-.901-.799-1.48-1.938-1.48-1.718 0-3.877 1.429-3.877 2.959 0 .935.833 1.479 1.904 1.479z" fill-rule="nonzero"/><path d="m302.714 25.376c-.408 0-.782.357-.782.816 0 .391.391.765.782.765.46 0 .817-.374.817-.765 0-.459-.357-.816-.817-.816z" fill-rule="nonzero"/><path d="m331.275 18.334v14.214" fill="none"/><path d="m331.275 18.334v14.214" fill="none" stroke="#000" stroke-width=".4"/><path d="m333.047 19.843c1.751 0 3.911-1.463 3.911-2.959 0-.901-.8-1.479-1.939-1.479-1.717 0-3.877 1.428-3.877 2.958 0 .935.833 1.48 1.905 1.48z" fill-rule="nonzero"/><path d="m326.094 20.744 2.398-1.769c1.054-.765 1.462-1.632 1.496-2.278 0-.952-.867-1.666-1.887-1.666-.714 0-1.241.272-1.582.833l.119-5.356h-.544zm1.582-5.033c.544 0 .952.391.952.918 0 .884-1.173 2.584-2.058 3.146-.051-.29-.085-.851-.085-1.684 0-.459.034-1.02.102-1.666.256-.476.613-.714 1.089-.714z" fill-rule="nonzero"/><path d="m331.312 32.493c.153 0 .238 0 .221-.017-.017-.034-.017-.085-.017-.136s0-.102.017-.153c.527-1.326 1.123-2.516 1.871-3.435.612-.748 1.309-1.428 1.938-2.176.663-.782.969-1.7.969-2.568 0-.459-.051-.901-.17-1.36-.221-.867-.901-2.533-1.309-2.533-.051 0-.068.051-.068.153 0 .085.034.204.102.323.595 1.105.884 2.04.884 2.771 0 1.038-.391 1.99-1.122 2.806-.153.153-.646.561-1.479 1.224-1.055.85-1.123.867-1.837.867z" fill-rule="nonzero"/><path d="m351.201 18.334v14.214" fill="none"/><path d="m351.201 18.334v14.214" fill="none" stroke="#000" stroke-width=".4"/><path d="m352.973 19.843c1.751 0 3.911-1.463 3.911-2.959 0-.901-.8-1.479-1.939-1.479-1.717 0-3.877 1.428-3.877 2.958 0 .935.834 1.48 1.905 1.48z" fill-rule="nonzero"/><path d="m378.699 18.334v15.143" fill="none"/><path d="m378.699 18.334v15.143" fill="none" stroke="#000" stroke-width=".4"/><path d="m380.471 19.843c1.751 0 3.91-1.463 3.91-2.959 0-.901-.799-1.479-1.938-1.479-1.717 0-3.877 1.428-3.877 2.958 0 .935.833 1.48 1.905 1.48z" fill-rule="nonzero"/><path d="m398.492 24.71v13.018" fill="none"/><path d="m398.492 24.71v13.018" fill="none" stroke="#000" stroke-width=".4"/><path d="m400.264 26.219c1.751 0 3.911-1.462 3.911-2.959 0-.901-.799-1.479-1.939-1.479-1.717 0-3.877 1.428-3.877 2.959 0 .935.834 1.479 1.905 1.479z" fill-rule="nonzero"/><path d="m393.312 27.12 2.397-1.768c1.054-.765 1.462-1.633 1.496-2.279 0-.952-.867-1.666-1.887-1.666-.714 0-1.241.272-1.581.833l.119-5.356h-.544zm1.581-5.033c.544 0 .952.391.952.918 0 .884-1.173 2.585-2.057 3.146-.051-.289-.085-.85-.085-1.683 0-.46.034-1.021.102-1.667.255-.476.612-.714 1.088-.714z" fill-rule="nonzero"/></svg>