<svg clip-rule="evenodd" fill-rule="evenodd" stroke-linejoin="round" stroke-miterlimit="2" viewBox="0 0 508 84" xmlns="http://www.w3.org/2000/svg"><path d="m7.364 21.317v55.262" fill="none" stroke="#000" stroke-width=".66"/><path d="m3.91 21.317v55.262" fill="none" stroke="#000" stroke-width="2.13"/><path d="m10.584 14.911c0-.119-.068-.17-.221-.17-.136 0-.918.578-1.666 1.105-1.632 1.139-3.588 1.768-5.849 2.091v3.894h2.125v-1.513c1.02-.476 2.194-1.36 3.894-3.061 1.139-1.173 1.717-1.955 1.717-2.346z" fill-rule="nonzero"/><path d="m10.584 83.01c0-.391-.578-1.173-1.717-2.347-1.7-1.7-2.874-2.584-3.894-3.06v-1.514h-2.125v3.894c2.261.323 4.217.952 5.849 2.092.748.527 1.53 1.105 1.666 1.105.153 0 .221-.051.221-.17z" fill-rule="nonzero"/><path d="m.191 21.317v55.262" fill="none" stroke="#000" stroke-width=".4"/><path d="m.191 21.317h6.908" fill="none" stroke="#000" stroke-width=".4"/><path d="m.191 76.579h6.908" fill="none" stroke="#000" stroke-width=".4"/><path d="m41.106 21.317v17.004" fill="none" stroke="#000" stroke-width="2.13"/><path d="m44.028 21.317v17.004" fill="none" stroke="#000" stroke-width=".66"/><path d="m46.818 26.898c-.408 0-.782.357-.782.816 0 .391.391.766.782.766.459 0 .816-.375.816-.766 0-.459-.357-.816-.816-.816z" fill-rule="nonzero"/><path d="m46.818 31.149c-.408 0-.782.357-.782.816 0 .391.391.765.782.765.459 0 .816-.374.816-.765 0-.459-.357-.816-.816-.816z" fill-rule="nonzero"/><path d="m41.106 63.826v12.753" fill="none" stroke="#000" stroke-width="2.13"/><path d="m44.028 63.826v12.753" fill="none" stroke="#000" stroke-width=".66"/><path d="m46.685 68.046c-.306 0-.587.268-.587.612 0 .294.294.574.587.574.344 0 .612-.28.612-.574 0-.344-.268-.612-.612-.612z" fill-rule="nonzero"/><path d="m46.685 71.234c-.306 0-.587.268-.587.612 0 .294.294.574.587.574.344 0 .612-.28.612-.574 0-.344-.268-.612-.612-.612z" fill-rule="nonzero"/><path d="m176.603 21.317v17.004" fill="none" stroke="#000" stroke-width=".66"/><path d="m176.603 63.826v12.753" fill="none" stroke="#000" stroke-width=".66"/><path d="m276.897 21.317v17.004" fill="none" stroke="#000" stroke-width=".66"/><path d="m276.897 63.826v12.753" fill="none" stroke="#000" stroke-width=".66"/><path d="m398.048 21.317v17.004" fill="none" stroke="#000" stroke-width=".66"/><path d="m398.048 63.826v12.753" fill="none" stroke="#000" stroke-width=".66"/><path d="m503.921 21.317v17.004" fill="none" stroke="#000" stroke-width=".66"/><path d="m506.844 21.317v17.004" fill="none" stroke="#000" stroke-width="2.13"/><path d="m501.132 26.898c-.409 0-.783.357-.783.816 0 .391.391.766.783.766.459 0 .816-.375.816-.766 0-.459-.357-.816-.816-.816z" fill-rule="nonzero"/><path d="m501.132 31.149c-.409 0-.783.357-.783.816 0 .391.391.765.783.765.459 0 .816-.374.816-.765 0-.459-.357-.816-.816-.816z" fill-rule="nonzero"/><path d="m503.921 63.826v12.753" fill="none" stroke="#000" stroke-width=".66"/><path d="m506.844 63.826v12.753" fill="none" stroke="#000" stroke-width="2.13"/><path d="m500.999 68.046c-.306 0-.587.268-.587.612 0 .294.293.574.587.574.344 0 .612-.28.612-.574 0-.344-.268-.612-.612-.612z" fill-rule="nonzero"/><path d="m500.999 71.234c-.306 0-.587.268-.587.612 0 .294.293.574.587.574.344 0 .612-.28.612-.574 0-.344-.268-.612-.612-.612z" fill-rule="nonzero"/><path d="m54.853 11.947c-1.391-.849-2.168-2.25-2.168-4.112 0-1.861.777-3.263 2.168-4.112l-.317-.388c-1.647.971-2.496 2.547-2.496 4.5 0 1.954.849 3.529 2.496 4.501z" fill="#f60000" fill-rule="nonzero"/><path d="m60.704 5.605h-.43c-.072.655-.297.921-1.084.921h-1.678v-2.619h1.974c.88 0 1.259.236 1.709 1.136h.306v-1.575h-6.208v.388c.89 0 1.145.328 1.145 1.115v4.051c0 .665-.245 1.033-1.084 1.033v.389h3.396v-.389c-.931 0-1.238-.246-1.238-1.023v-2.066h1.483c.788 0 1.136.317 1.289 1.156h.42z" fill="#f60000" fill-rule="nonzero"/><path d="m61.868 3.723c1.391.849 2.169 2.251 2.169 4.112 0 1.862-.778 3.263-2.169 4.112l.317.389c1.647-.972 2.496-2.547 2.496-4.501 0-1.953-.849-3.529-2.496-4.5z" fill="#f60000" fill-rule="nonzero"/><path d="m189.687 8.043c-.05.049-.082.115-.082.196 0 .441.817 1.307 1.274 1.307.311 0 5.049-5.244 8.007-8.333.032-.032.049-.065.049-.098 0-.359-.964-1.307-1.291-1.307-.049 0-.082.017-.115.049-2.401 2.01-5.686 5.768-7.842 8.186zm6.454-.637c-.049.065-.066.131-.066.18 0 .425.768 1.094 1.258 1.094.392 0 1.781-1.879 1.781-1.993 0-.392-.735-1.274-1.192-1.274-.654 0-1.308 1.225-1.781 1.993zm-5.752-5.506c-.033.049-.049.098-.049.163 0 .376.703 1.095 1.046 1.095.327-.327.621-.637.866-.915.457-.458.898-.981.898-1.16 0-.425-.62-1.144-1.013-1.144-.506 0-1.372 1.634-1.748 1.961z" fill-rule="nonzero"/><path d="m285.597 11.947c-1.391-.849-2.169-2.25-2.169-4.112 0-1.861.778-3.263 2.169-4.112l-.317-.388c-1.647.971-2.496 2.547-2.496 4.5 0 1.954.849 3.529 2.496 4.501z" fill="#f60000" fill-rule="nonzero"/><path d="m290.966 8.971c.256.613.062 1.002-.757 1.084v.389h2.864v-.389c-.378 0-.572-.215-.777-.685l-2.537-5.902h-1.094l.164.327-2.056 5.114c-.297.737-.461 1.013-.993 1.146v.389h2.353v-.389c-.777-.041-1.033-.655-.757-1.371l.368-.961h2.701zm-.757-1.801h-2.25l1.095-2.772z" fill="#f60000" fill-rule="nonzero"/><path d="m293.902 10.045c.777.368 1.35.511 1.933.511 1.514 0 2.577-1.033 2.577-2.496 0-.992-.583-2.332-1.923-2.332-.644 0-1.135.225-1.728.818v-3.211h-.256l-1.33.511v.235l.727.399zm.859-3.028c.317-.348.767-.552 1.237-.552.952 0 1.555.971 1.555 1.994 0 .573-.307 1.657-1.442 1.657-.675 0-1.35-.358-1.35-1.37z" fill="#f60000" fill-rule="nonzero"/><path d="m298.994 3.723c1.391.849 2.169 2.251 2.169 4.112 0 1.862-.778 3.263-2.169 4.112l.317.389c1.647-.972 2.496-2.547 2.496-4.501 0-1.953-.849-3.529-2.496-4.5z" fill="#f60000" fill-rule="nonzero"/><path d="m410.998 8.043c-.049.049-.081.115-.081.196 0 .441.817 1.307 1.274 1.307.311 0 5.049-5.244 8.006-8.333.033-.032.049-.065.049-.098 0-.359-.964-1.307-1.29-1.307-.049 0-.082.017-.115.049-2.402 2.01-5.686 5.768-7.843 8.186zm6.454-.637c-.049.065-.065.131-.065.18 0 .425.768 1.094 1.258 1.094.392 0 1.781-1.879 1.781-1.993 0-.392-.735-1.274-1.193-1.274-.653 0-1.307 1.225-1.781 1.993zm-5.751-5.506c-.033.049-.049.098-.049.163 0 .376.703 1.095 1.046 1.095.326-.327.621-.637.866-.915.457-.458.898-.981.898-1.16 0-.425-.621-1.144-1.013-1.144-.506 0-1.372 1.634-1.748 1.961z" fill-rule="nonzero"/><path d="m33.476 27.468v-.72h-1.079v-3.856l-2.142 1.903v1.953h-2.314c.257-.651.96-1.542 2.108-2.69 1.046-1.046 1.645-1.971 1.817-2.742h-2.931c-.137 1.679-1.131 4.13-2.176 5.466v.686h3.496c0 .6-.017.942-.052 1.028-.102.189-.428.309-.959.343l-.035.48h4.216l-.068-.497c-.823-.069-.977-.155-.977-.583 0-.051 0-.154.017-.326v-.445z" fill-rule="nonzero"/><path d="m33.476 36.084v-.72h-1.079v-3.856l-2.142 1.903v1.953h-2.314c.257-.651.96-1.542 2.108-2.69 1.046-1.046 1.645-1.971 1.817-2.742h-2.931c-.137 1.679-1.131 4.13-2.176 5.466v.686h3.496c0 .6-.017.942-.052 1.028-.102.189-.428.308-.959.343l-.035.48h4.216l-.068-.497c-.823-.069-.977-.155-.977-.583 0-.051 0-.154.017-.326v-.445z" fill-rule="nonzero"/><path d="m32.727 68.428v-.54h-.81v-2.892l-1.606 1.427v1.465h-1.735c.192-.488.719-1.157 1.581-2.018.784-.784 1.233-1.478 1.362-2.056h-2.198c-.103 1.259-.848 3.097-1.632 4.1v.514h2.622c0 .45-.013.707-.039.771-.077.141-.321.231-.72.257l-.025.36h3.161l-.051-.373c-.617-.051-.733-.116-.733-.437 0-.038 0-.115.013-.244v-.334z" fill-rule="nonzero"/><path d="m32.727 74.89v-.54h-.81v-2.892l-1.606 1.427v1.465h-1.735c.192-.488.719-1.157 1.581-2.018.784-.784 1.233-1.478 1.362-2.056h-2.198c-.103 1.259-.848 3.097-1.632 4.1v.514h2.622c0 .45-.013.707-.039.771-.077.141-.321.231-.72.257l-.025.36h3.161l-.051-.373c-.617-.051-.733-.116-.733-.437 0-.038 0-.116.013-.244v-.334z" fill-rule="nonzero"/><path d="m7.099 38.321h500.807" fill="none" stroke="#000" stroke-width=".4"/><path d="m7.099 34.07h500.807" fill="none" stroke="#000" stroke-width=".4"/><path d="m7.099 29.819h500.807" fill="none" stroke="#000" stroke-width=".4"/><path d="m7.099 25.568h500.807" fill="none" stroke="#000" stroke-width=".4"/><path d="m7.099 21.317h500.807" fill="none" stroke="#000" stroke-width=".4"/><path d="m19.18 37.756.646 3.146c.034.187.051.357.051.527 0 1.666-1.701 3.061-3.537 3.061-.561 0-1.105-.136-1.615-.391 1.309-.136 2.295-.936 2.295-2.109 0-1.037-.85-2.125-1.938-2.125-1.241 0-2.092.952-2.092 2.193 0 1.735 1.412 2.874 3.112 2.874 2.278 0 4.217-1.479 4.217-3.605 0-.476-.748-3.843-.731-3.724 1.819-.884 3.06-2.448 3.06-4.098 0-2.261-1.819-3.995-4.08-3.995-.034 0-.273.017-.681.051l-.748-3.588c2.534-2.143 3.69-4.421 3.69-6.921 0-1.921-.765-3.961-2.312-6.104-1.752 1.411-2.755 4.234-2.755 7.244 0 1.071.136 2.108.374 3.094-3.877 3.248-5.815 6.241-5.815 8.978 0 3.214 3.316 5.883 6.92 5.883.799 0 1.395-.119 1.939-.391zm-.051-22.342c.561.578.85 1.258.85 2.057 0 1.649-1.173 3.503-3.469 5.543-.119-.493-.153-1.037-.153-1.632 0-2.857 1.054-6.002 2.466-6.002.119 0 .221.017.306.034zm.357 21.645-1.208-5.679c.239-.017.375-.034.426-.034 1.462 0 2.482 1.377 2.482 2.789 0 1.122-.595 2.108-1.7 2.924zm-1.633-5.611 1.225 5.849c-.595.323-1.259.459-2.058.459-2.754 0-5.135-2.057-5.135-4.557 0-2.261 1.683-4.591 4.863-6.971l.714 3.401c-1.768.374-3.264 1.87-3.264 3.553 0 1.429 1.02 2.432 2.55 2.67-.935-.578-1.394-1.309-1.394-2.176 0-1.174 1.088-2.041 2.499-2.228z" fill-rule="nonzero"/><path d="m7.099 76.579h500.807" fill="none" stroke="#000" stroke-width=".3"/><path d="m7.099 73.391h500.807" fill="none" stroke="#000" stroke-width=".3"/><path d="m7.099 70.202h500.807" fill="none" stroke="#000" stroke-width=".3"/><path d="m7.099 67.014h500.807" fill="none" stroke="#000" stroke-width=".3"/><path d="m7.099 63.826h500.807" fill="none" stroke="#000" stroke-width=".3"/><g fill-rule="nonzero"><path d="m16.956 76.188.485 2.359c.026.14.038.268.038.395 0 1.25-1.275 2.296-2.652 2.296-.421 0-.829-.102-1.212-.294.982-.102 1.722-.701 1.722-1.581 0-.778-.638-1.594-1.454-1.594-.931 0-1.569.714-1.569 1.645 0 1.301 1.059 2.155 2.334 2.155 1.709 0 3.163-1.109 3.163-2.703 0-.357-.561-2.882-.548-2.793 1.364-.663 2.295-1.837 2.295-3.074 0-1.696-1.365-2.996-3.061-2.996-.025 0-.204.012-.51.038l-.561-2.691c1.9-1.607 2.767-3.316 2.767-5.19 0-1.441-.573-2.972-1.734-4.578-1.313 1.058-2.066 3.175-2.066 5.432 0 .804.102 1.581.281 2.321-2.908 2.436-4.362 4.68-4.362 6.734 0 2.41 2.487 4.412 5.191 4.412.599 0 1.045-.089 1.453-.293zm-.038-16.757c.421.433.638.943.638 1.543 0 1.237-.88 2.627-2.602 4.157-.089-.37-.114-.778-.114-1.224 0-2.143.79-4.502 1.849-4.502.089 0 .165.013.229.026zm.268 16.234-.905-4.26c.178-.012.28-.025.318-.025 1.097 0 1.862 1.033 1.862 2.091 0 .842-.446 1.582-1.275 2.194zm-1.224-4.209.918 4.387c-.446.243-.944.345-1.543.345-2.066 0-3.851-1.543-3.851-3.418 0-1.696 1.262-3.443 3.647-5.229l.535 2.551c-1.326.28-2.448 1.403-2.448 2.665 0 1.071.765 1.824 1.913 2.002-.702-.433-1.046-.982-1.046-1.632 0-.88.816-1.53 1.875-1.671z"/><path d="m58.282 61.186h-1.106c-.173-.204-.327-.414-.463-.624-.142-.216-.26-.45-.359-.698-.098-.228-.173-.488-.222-.766-.056-.284-.08-.574-.08-.877 0-.333.024-.636.08-.902.056-.271.13-.518.216-.741.099-.241.216-.475.352-.685.142-.217.303-.433.476-.643h1.106v.087c-.161.148-.315.315-.464.5-.148.185-.29.408-.413.655-.124.241-.217.506-.297.797-.074.29-.111.599-.111.932 0 .34.037.655.111.933s.173.544.297.791c.117.241.259.457.407.648.155.198.309.365.47.507z"/><path d="m61.993 56.313h-1.884v.846h1.736v.858h-1.736v1.928h-1.124v-4.491h3.008z"/><path d="m64.581 58.221c0 .303-.025.593-.08.877-.056.278-.13.538-.223.766-.099.248-.222.482-.358.698-.136.21-.297.42-.463.624h-1.106v-.086c.161-.142.315-.309.469-.507.149-.191.285-.407.408-.648.124-.247.222-.513.297-.791.074-.278.111-.593.111-.933 0-.333-.043-.642-.118-.932-.074-.291-.173-.556-.29-.797-.13-.247-.265-.47-.414-.655-.148-.185-.302-.352-.463-.5v-.087h1.106c.173.21.333.426.469.643.142.21.26.444.358.685.087.223.161.47.21.741.056.266.087.569.087.902z"/><path d="m74.275 59.945h-.778l-1.421-1.785h-.685v1.785h-.593v-4.491h1.155c.259 0 .475.012.648.043.173.025.34.093.494.198.161.099.285.228.377.389.087.154.136.352.136.587 0 .333-.086.605-.253.828-.167.222-.395.383-.68.494zm-1.291-3.225c0-.136-.024-.247-.068-.352-.049-.099-.123-.185-.216-.247-.086-.055-.185-.099-.296-.117-.112-.025-.254-.037-.42-.037h-.593v1.692h.525c.173 0 .327-.012.463-.043s.253-.093.352-.185c.086-.087.148-.186.191-.303.038-.117.062-.253.062-.408z"/><path d="m75.933 60.025c-.538 0-.952-.154-1.248-.457-.297-.303-.445-.729-.445-1.291 0-.544.142-.982.433-1.31.284-.321.66-.488 1.124-.488.21 0 .395.031.556.093.16.062.302.154.42.284.123.13.216.284.278.47.068.191.099.414.099.685v.309h-2.335c0 .389.098.692.296.896.198.21.47.315.815.315.124 0 .248-.019.371-.043.117-.031.222-.068.321-.112.105-.043.192-.092.26-.135.068-.044.129-.081.173-.118h.037v.618c-.068.025-.148.055-.247.099-.099.037-.192.068-.266.092-.111.025-.21.05-.303.068-.086.013-.203.025-.339.025zm.667-2.137c-.006-.155-.025-.291-.056-.396-.031-.111-.08-.21-.142-.284-.062-.086-.148-.148-.253-.191s-.229-.068-.383-.068c-.155 0-.278.025-.383.068s-.204.111-.29.197c-.087.087-.149.186-.192.297-.043.105-.074.229-.086.377z"/><path d="m79.183 60.025c-.537 0-.951-.154-1.248-.457-.296-.303-.444-.729-.444-1.291 0-.544.142-.982.432-1.31.284-.321.661-.488 1.124-.488.21 0 .396.031.556.093.161.062.303.154.42.284.124.13.216.284.278.47.068.191.099.414.099.685v.309h-2.335c0 .389.099.692.297.896.197.21.469.315.815.315.123 0 .247-.019.371-.043.117-.031.222-.068.321-.112.105-.043.191-.092.259-.135.068-.044.13-.081.173-.118h.037v.618c-.068.025-.148.055-.247.099-.099.037-.191.068-.265.092-.112.025-.21.05-.303.068-.087.013-.204.025-.34.025zm.667-2.137c-.006-.155-.024-.291-.055-.396-.031-.111-.081-.21-.142-.284-.062-.086-.149-.148-.254-.191s-.228-.068-.383-.068c-.154 0-.278.025-.383.068s-.203.111-.29.197c-.086.087-.148.186-.191.297-.044.105-.075.229-.087.377z"/><path d="m83.768 59.945h-.748l-1.26-1.625-.222.216v1.409h-.568v-4.695h.568v2.749l1.334-1.421h.704l-1.383 1.409z"/><path d="m84.96 60.025c-.229 0-.439-.031-.63-.086-.198-.062-.358-.13-.488-.198v-.636h.031c.043.037.105.08.166.129.068.044.155.093.26.142.099.044.204.087.321.118.117.037.235.055.358.055.093 0 .192-.012.291-.037.105-.018.179-.043.228-.08.074-.043.124-.093.155-.142.031-.056.043-.136.043-.241 0-.13-.031-.235-.105-.303s-.204-.123-.395-.173c-.068-.018-.167-.037-.278-.061-.118-.025-.229-.05-.328-.081-.253-.074-.445-.185-.562-.346-.111-.154-.173-.339-.173-.562 0-.302.118-.549.346-.741.229-.191.531-.29.914-.29.186 0 .371.024.562.074.192.043.346.105.476.173v.605h-.031c-.142-.111-.303-.204-.482-.272s-.358-.098-.537-.098c-.185 0-.346.037-.476.117-.129.08-.191.198-.191.358 0 .136.037.241.111.315.08.068.204.124.371.167.086.025.179.043.284.068.099.018.21.043.327.074.247.062.433.167.562.309.124.148.186.34.186.593 0 .142-.025.278-.087.408-.055.129-.142.241-.247.333-.124.105-.259.179-.414.229-.148.055-.34.08-.568.08z"/><path d="m91.196 59.945h-2.193v-.457h.816v-3.015h-.816v-.407c.309 0 .538-.044.68-.13.148-.087.228-.253.247-.494h.469v4.046h.797z"/><path d="m222.964 73.395h1.658l6.376-6.377h-1.658zm1.212-4.795c0 .357.293.65.65.65.344 0 .638-.293.638-.65 0-.345-.294-.638-.638-.638-.357 0-.65.293-.65.638zm4.463 3.06c0 .358.293.651.65.651.345 0 .638-.293.638-.651 0-.344-.293-.637-.638-.637-.357 0-.65.293-.65.637z"/><path d="m284.11 59.592h-1.106c-.173-.204-.327-.414-.463-.624-.142-.216-.259-.451-.358-.698-.099-.228-.173-.488-.223-.766-.055-.284-.08-.574-.08-.877 0-.333.025-.636.08-.902.056-.271.13-.518.217-.741.099-.241.216-.475.352-.685.142-.217.302-.433.475-.643h1.106v.087c-.161.148-.315.315-.463.5s-.291.408-.414.655c-.124.241-.216.506-.297.797-.074.29-.111.599-.111.932 0 .34.037.655.111.933.075.278.173.544.297.791.117.241.259.457.408.648.154.198.308.365.469.507z"/><path d="m284.332 58.351 1.519-4.491h1.23l1.519 4.491h-1.161l-.284-.915h-1.409l-.284.915zm2.576-1.73-.458-1.482-.457 1.482z"/><path d="m291.222 56.633c0-.339-.049-.58-.154-.728-.099-.143-.26-.217-.47-.217-.099 0-.191.019-.284.05s-.185.074-.278.136v1.698c.074.031.142.05.216.056.068.012.142.018.21.018.26 0 .445-.086.575-.253.123-.173.185-.426.185-.76zm1.081-.024c0 .543-.136.976-.408 1.309-.278.334-.611.501-1.019.501-.167 0-.315-.019-.438-.062-.124-.037-.26-.093-.402-.173l-.043.167h-1.013v-4.695h1.056v1.662c.155-.136.315-.241.476-.321.16-.087.346-.124.556-.124.395 0 .698.148.914.457s.321.735.321 1.279z"/><path d="m294.952 56.627c0 .303-.025.593-.08.877-.056.278-.13.538-.223.766-.099.247-.222.482-.358.698-.136.21-.297.42-.463.624h-1.106v-.086c.161-.142.315-.309.469-.507.149-.191.285-.407.408-.648.124-.247.222-.513.297-.791.074-.278.111-.593.111-.933 0-.333-.043-.642-.118-.932-.074-.291-.173-.556-.29-.797-.13-.247-.266-.47-.414-.655s-.302-.352-.463-.5v-.087h1.106c.173.21.333.426.469.643.142.21.26.444.358.685.087.223.161.47.21.741.056.266.087.569.087.902z"/><path d="m304.646 58.351h-.778l-1.421-1.786h-.685v1.786h-.593v-4.491h1.155c.259 0 .475.012.648.043.173.025.34.093.494.198.161.099.285.228.377.389.087.154.136.352.136.587 0 .333-.086.605-.253.828-.167.222-.395.383-.68.494zm-1.291-3.225c0-.136-.024-.247-.068-.352-.049-.099-.123-.185-.216-.247-.086-.056-.185-.099-.296-.117-.112-.025-.254-.037-.42-.037h-.593v1.692h.525c.173 0 .327-.012.463-.043s.253-.093.352-.185c.086-.087.148-.186.191-.303.038-.117.062-.253.062-.408z"/><path d="m306.304 58.431c-.538 0-.952-.154-1.248-.457-.297-.303-.445-.729-.445-1.291 0-.544.142-.982.433-1.31.284-.321.66-.488 1.124-.488.21 0 .395.031.556.093.16.062.302.154.42.284.123.13.216.284.278.47.068.191.099.413.099.685v.309h-2.335c0 .389.098.692.296.896.198.21.47.315.815.315.124 0 .248-.019.371-.043.117-.031.222-.068.321-.112.105-.043.192-.092.26-.136.068-.043.129-.08.173-.117h.037v.618c-.068.025-.149.055-.247.099-.099.037-.192.068-.266.092-.111.025-.21.05-.303.068-.086.013-.203.025-.339.025zm.667-2.137c-.006-.155-.025-.291-.056-.396-.031-.111-.08-.21-.142-.284-.062-.086-.148-.148-.253-.191-.105-.044-.229-.068-.383-.068-.155 0-.278.024-.383.068-.105.043-.204.111-.29.197-.087.087-.149.186-.192.297-.043.105-.074.228-.086.377z"/><path d="m309.554 58.431c-.537 0-.951-.154-1.248-.457-.296-.303-.444-.729-.444-1.291 0-.544.142-.982.432-1.31.284-.321.661-.488 1.124-.488.21 0 .396.031.556.093.161.062.303.154.42.284.124.13.216.284.278.47.068.191.099.413.099.685v.309h-2.335c0 .389.099.692.297.896.197.21.469.315.815.315.123 0 .247-.019.371-.043.117-.031.222-.068.321-.112.105-.043.191-.092.259-.136.068-.043.13-.08.173-.117h.037v.618c-.068.025-.148.055-.247.099-.099.037-.191.068-.266.092-.111.025-.21.05-.302.068-.087.013-.204.025-.34.025zm.667-2.137c-.006-.155-.025-.291-.055-.396-.031-.111-.081-.21-.142-.284-.062-.086-.149-.148-.254-.191-.105-.044-.228-.068-.383-.068-.154 0-.278.024-.383.068-.105.043-.204.111-.29.197-.086.087-.148.186-.191.297-.044.105-.075.228-.087.377z"/><path d="m314.139 58.351h-.748l-1.26-1.625-.222.216v1.409h-.568v-4.695h.568v2.749l1.334-1.421h.704l-1.383 1.409z"/><path d="m315.331 58.431c-.229 0-.439-.031-.63-.087-.198-.061-.358-.129-.488-.197v-.636h.031c.043.037.105.08.166.129.068.044.155.093.26.142.099.044.204.087.321.118.117.037.235.055.358.055.093 0 .192-.012.291-.037.105-.018.179-.043.228-.08.074-.043.124-.093.155-.142.031-.056.043-.136.043-.241 0-.13-.031-.235-.105-.303s-.204-.123-.395-.173c-.068-.018-.167-.037-.278-.061-.118-.025-.229-.05-.328-.081-.253-.074-.445-.185-.562-.346-.111-.154-.173-.339-.173-.562 0-.302.118-.55.346-.741.229-.191.531-.29.914-.29.186 0 .371.024.562.074.192.043.346.105.476.173v.605h-.031c-.142-.111-.303-.204-.482-.272s-.358-.099-.537-.099c-.185 0-.346.038-.476.118-.129.08-.191.198-.191.358 0 .136.037.241.111.315.08.068.204.124.371.167.086.025.179.043.284.068.099.018.21.043.327.074.247.062.433.167.562.309.124.148.186.34.186.593 0 .142-.025.278-.087.408-.056.129-.142.24-.247.333-.124.105-.259.179-.414.229-.148.055-.34.08-.568.08z"/><path d="m321.796 58.351h-2.774v-.63c.198-.192.389-.371.568-.544.173-.173.346-.352.519-.537.34-.377.575-.68.698-.908.124-.223.186-.458.186-.698 0-.124-.019-.235-.056-.328-.043-.099-.099-.173-.167-.235-.068-.061-.148-.111-.241-.135-.092-.031-.197-.05-.302-.05-.112 0-.217.013-.328.043-.111.025-.216.062-.315.099-.086.037-.167.074-.247.124-.074.049-.136.092-.185.123h-.037v-.636c.129-.062.302-.123.525-.185.222-.056.432-.087.63-.087.42 0 .747.111.982.334.235.222.358.519.358.902 0 .173-.024.339-.061.488-.044.148-.099.284-.173.414-.075.129-.161.259-.266.389-.105.123-.216.253-.334.376-.191.204-.401.421-.63.643-.234.216-.42.395-.556.525h2.206z"/><path d="m444.409 73.395h1.658l6.376-6.377h-1.658zm1.211-4.795c0 .357.294.65.651.65.344 0 .637-.293.637-.65 0-.345-.293-.638-.637-.638-.357 0-.651.293-.651.638zm4.464 3.06c0 .358.293.651.65.651.344 0 .638-.293.638-.651 0-.344-.294-.637-.638-.637-.357 0-.65.293-.65.637z"/><path d="m69.783 27.134v-2.482l-7.821 7.804v2.483z"/><path d="m103.79 27.134v-2.482l-7.821 7.804v2.483z"/><path d="m137.665 27.134v-2.482l-7.822 7.804v2.483z"/><path d="m161.177 27.134v-2.482l-7.821 7.804v2.483z"/><path d="m190.934 27.134v-2.482l-7.822 7.804v2.483z"/><path d="m214.446 27.134v-2.482l-7.821 7.804v2.483z"/><path d="m237.959 27.134v-2.482l-7.822 7.804v2.483z"/><path d="m261.472 27.134v-2.482l-7.822 7.804v2.483z"/><path d="m291.095 27.134v-2.482l-7.821 7.804v2.483z"/><path d="m325.102 27.134v-2.482l-7.821 7.804v2.483z"/><path d="m359.109 27.134v-2.482l-7.821 7.804v2.483z"/><path d="m382.622 27.134v-2.482l-7.822 7.804v2.483z"/><path d="m412.245 27.134v-2.482l-7.821 7.804v2.483z"/><path d="m435.758 27.134v-2.482l-7.821 7.804v2.483z"/><path d="m459.271 27.134v-2.482l-7.822 7.804v2.483z"/><path d="m482.784 27.134v-2.482l-7.822 7.804v2.483z"/><path d="m63.39 76.647c1.313 0 2.933-1.097 2.933-2.219 0-.676-.599-1.11-1.454-1.11-1.288 0-2.907 1.072-2.907 2.219 0 .702.625 1.11 1.428 1.11z"/><path d="m80.394 75.053c1.313 0 2.933-1.097 2.933-2.219 0-.676-.6-1.11-1.454-1.11-1.288 0-2.908 1.071-2.908 2.219 0 .702.625 1.11 1.429 1.11z"/><path d="m97.397 70.27c1.314 0 2.933-1.096 2.933-2.219 0-.675-.599-1.109-1.454-1.109-1.288 0-2.907 1.071-2.907 2.219 0 .701.625 1.109 1.428 1.109z"/><path d="m114.401 68.676c1.313 0 2.933-1.096 2.933-2.219 0-.676-.6-1.109-1.454-1.109-1.288 0-2.908 1.071-2.908 2.219 0 .701.625 1.109 1.429 1.109z"/><path d="m284.702 73.459c1.313 0 2.933-1.097 2.933-2.219 0-.676-.599-1.11-1.454-1.11-1.288 0-2.907 1.071-2.907 2.219 0 .701.624 1.11 1.428 1.11z"/><path d="m279.554 74.134 1.798-1.326c.791-.574 1.097-1.224 1.122-1.709 0-.714-.65-1.249-1.415-1.249-.536 0-.931.204-1.186.624l.089-4.017h-.408zm1.186-3.774c.408 0 .714.293.714.688 0 .663-.88 1.939-1.543 2.36-.038-.217-.064-.638-.064-1.263 0-.344.026-.765.077-1.25.191-.357.459-.535.816-.535z"/><path d="m301.838 71.865c1.314 0 2.933-1.097 2.933-2.219 0-.676-.599-1.11-1.453-1.11-1.288 0-2.908 1.071-2.908 2.219 0 .701.625 1.11 1.428 1.11z"/><path d="m296.69 72.54 1.799-1.326c.79-.574 1.096-1.224 1.122-1.709 0-.714-.651-1.25-1.416-1.25-.535 0-.931.205-1.186.625l.09-4.017h-.409zm1.186-3.774c.409 0 .715.293.715.688 0 .663-.88 1.939-1.544 2.359-.038-.216-.063-.637-.063-1.262 0-.344.025-.765.076-1.25.192-.357.459-.535.816-.535z"/><path d="m318.709 67.082c1.313 0 2.933-1.096 2.933-2.219 0-.676-.599-1.109-1.454-1.109-1.288 0-2.907 1.071-2.907 2.219 0 .701.625 1.109 1.428 1.109z"/><path d="m313.561 67.758 1.798-1.326c.791-.574 1.097-1.224 1.122-1.709 0-.714-.65-1.25-1.415-1.25-.536 0-.931.204-1.186.625l.089-4.017h-.408zm1.186-3.775c.408 0 .714.294.714.689 0 .663-.88 1.938-1.543 2.359-.038-.217-.064-.637-.064-1.262 0-.345.026-.765.077-1.25.191-.357.459-.536.816-.536z"/><path d="m335.713 65.488c1.313 0 2.933-1.097 2.933-2.219 0-.676-.6-1.109-1.454-1.109-1.288 0-2.908 1.071-2.908 2.219 0 .701.625 1.109 1.429 1.109z"/></g></svg>