<svg clip-rule="evenodd" fill-rule="evenodd" stroke-linejoin="round" stroke-miterlimit="2" viewBox="0 0 413 38" xmlns="http://www.w3.org/2000/svg"><path d="m97.748 9.28v17.003" fill="none" stroke="#000" stroke-width=".66"/><path d="m180.374 9.28v17.003" fill="none" stroke="#000" stroke-width=".66"/><path d="m183.297 9.28v17.003" fill="none" stroke="#000" stroke-width="2.13"/><path d="m324.506 9.28v17.003" fill="none" stroke="#000" stroke-width=".66"/><path d="m408.196 9.28v17.003" fill="none" stroke="#000" stroke-width=".66"/><path d="m411.118 9.28v17.003" fill="none" stroke="#000" stroke-width="2.13"/><path d="m.11 26.283h184.25" fill="none" stroke="#000" stroke-width=".4"/><path d="m.11 22.032h184.25" fill="none" stroke="#000" stroke-width=".4"/><path d="m.11 17.781h184.25" fill="none" stroke="#000" stroke-width=".4"/><path d="m.11 13.53h184.25" fill="none" stroke="#000" stroke-width=".4"/><path d="m.11 9.28h184.25" fill="none" stroke="#000" stroke-width=".4"/><path d="m226.869 26.283h185.312" fill="none" stroke="#000" stroke-width=".4"/><path d="m226.869 22.032h185.312" fill="none" stroke="#000" stroke-width=".4"/><path d="m226.869 17.781h185.312" fill="none" stroke="#000" stroke-width=".4"/><path d="m226.869 13.53h185.312" fill="none" stroke="#000" stroke-width=".4"/><path d="m226.869 9.28h185.312" fill="none" stroke="#000" stroke-width=".4"/><g fill-rule="nonzero"><path d="m12.191 25.719.646 3.145c.034.187.051.357.051.527 0 1.667-1.7 3.061-3.536 3.061-.561 0-1.106-.136-1.616-.391 1.31-.136 2.296-.935 2.296-2.108 0-1.038-.85-2.126-1.939-2.126-1.241 0-2.091.952-2.091 2.194 0 1.734 1.411 2.873 3.112 2.873 2.278 0 4.216-1.479 4.216-3.605 0-.476-.748-3.842-.731-3.723 1.82-.885 3.061-2.449 3.061-4.098 0-2.262-1.819-3.996-4.081-3.996-.034 0-.272.017-.68.051l-.748-3.588c2.533-2.142 3.69-4.421 3.69-6.92 0-1.922-.766-3.962-2.313-6.105-1.751 1.412-2.754 4.234-2.754 7.244 0 1.071.136 2.108.374 3.095-3.877 3.247-5.816 6.24-5.816 8.978 0 3.213 3.316 5.883 6.921 5.883.799 0 1.394-.119 1.938-.391zm-.051-22.343c.561.578.85 1.258.85 2.057 0 1.65-1.173 3.503-3.468 5.544-.119-.494-.153-1.038-.153-1.633 0-2.856 1.054-6.002 2.465-6.002.119 0 .221.017.306.034zm.357 21.646-1.207-5.68c.238-.017.374-.034.425-.034 1.462 0 2.483 1.378 2.483 2.789 0 1.122-.595 2.108-1.701 2.925zm-1.632-5.612 1.224 5.85c-.595.323-1.258.459-2.057.459-2.755 0-5.135-2.058-5.135-4.557 0-2.262 1.683-4.591 4.863-6.972l.714 3.401c-1.768.374-3.265 1.87-3.265 3.554 0 1.428 1.02 2.431 2.551 2.669-.935-.578-1.395-1.309-1.395-2.176 0-1.173 1.089-2.041 2.5-2.228z"/><path d="m33.431 5.289h-2.924v-.609h1.087v-4.019h-1.087v-.544c.412 0 .716-.058.906-.173.197-.115.304-.338.329-.659h.626v5.395h1.063z"/><path d="m37.02-.97-2.339 7.561h-.683l2.331-7.561z"/><path d="m41.38 5.289h-3.698v-.84c.263-.255.519-.494.758-.725.23-.23.461-.469.691-.716.453-.502.766-.906.931-1.211.165-.296.247-.609.247-.93 0-.165-.025-.313-.074-.437-.058-.132-.132-.231-.222-.313-.091-.082-.198-.148-.322-.181-.123-.041-.263-.066-.403-.066-.148 0-.288.016-.437.058-.148.033-.288.082-.42.131-.115.05-.222.099-.329.165-.099.066-.181.124-.247.165h-.05v-.848c.173-.083.404-.165.7-.248.297-.074.577-.115.841-.115.56 0 .996.148 1.309.445.313.296.478.692.478 1.202 0 .231-.033.453-.083.651-.057.198-.131.379-.23.552s-.214.346-.354.519c-.14.164-.289.337-.445.502-.255.272-.535.56-.84.857-.313.288-.56.527-.741.7h2.94z"/><path d="m46.217 5.38c-.411 0-.733-.115-.963-.354-.231-.231-.346-.601-.346-1.112v-2.487h-.511v-.626h.511v-1.293h.758v1.293h1.392v.626h-1.392v2.133c0 .23.008.403.016.527.008.123.033.239.091.346.041.09.115.164.222.214.099.041.239.066.412.066.123 0 .239-.017.354-.05.115-.041.198-.066.255-.09h.042v.675c-.14.041-.289.074-.429.099-.148.016-.288.033-.412.033z"/><path d="m51.311 3.049c0 .75-.181 1.334-.544 1.746-.37.412-.848.618-1.458.618-.625 0-1.12-.214-1.474-.634-.354-.429-.535-1.005-.535-1.73 0-.758.181-1.334.552-1.754.37-.412.856-.626 1.457-.626.61 0 1.088.214 1.458.626.363.412.544.996.544 1.754zm-.783 0c0-.585-.098-1.021-.313-1.301-.214-.28-.518-.42-.906-.42-.395 0-.7.14-.914.42s-.313.716-.313 1.301c0 .56.099.988.313 1.277.214.288.519.436.914.436.388 0 .692-.14.906-.428.206-.288.313-.717.313-1.285z"/><path d="m55.782 3.049c0 .75-.181 1.334-.544 1.746-.37.412-.848.618-1.458.618-.626 0-1.12-.214-1.474-.634-.354-.429-.535-1.005-.535-1.73 0-.758.181-1.334.552-1.754.37-.412.856-.626 1.457-.626.61 0 1.088.214 1.458.626.363.412.544.996.544 1.754zm-.783 0c0-.585-.099-1.021-.313-1.301s-.519-.42-.906-.42c-.395 0-.7.14-.914.42s-.313.716-.313 1.301c0 .56.099.988.313 1.277.214.288.519.436.914.436.387 0 .692-.14.906-.428.206-.288.313-.717.313-1.285z"/><path d="m60.088 5.289h-.758v-2.561c0-.206-.008-.395-.024-.577-.025-.173-.058-.321-.116-.428-.066-.107-.148-.189-.263-.247-.107-.058-.256-.082-.445-.082-.19 0-.387.049-.585.148s-.395.231-.585.395v3.352h-.757v-4.488h.757v.494c.231-.198.453-.354.667-.461.223-.107.453-.165.701-.165.436 0 .782.148 1.037.436.247.297.371.717.371 1.269z"/><path d="m67.253 5.289h-.758v-2.561c0-.206-.008-.395-.024-.577-.025-.173-.058-.321-.116-.428-.066-.107-.148-.189-.263-.247-.107-.058-.256-.082-.445-.082s-.387.049-.585.148c-.197.099-.395.231-.585.395v3.352h-.757v-6.259h.757v2.265c.231-.198.453-.354.668-.461.222-.107.453-.165.7-.165.436 0 .782.148 1.037.436.247.297.371.717.371 1.269z"/><path d="m72.009 3.049c0 .75-.181 1.334-.544 1.746-.37.412-.848.618-1.457.618-.626 0-1.12-.214-1.475-.634-.354-.429-.535-1.005-.535-1.73 0-.758.181-1.334.552-1.754.37-.412.856-.626 1.458-.626.609 0 1.087.214 1.457.626.363.412.544.996.544 1.754zm-.782 0c0-.585-.099-1.021-.313-1.301-.215-.28-.519-.42-.906-.42-.396 0-.7.14-.915.42-.214.28-.313.716-.313 1.301 0 .56.099.988.313 1.277.215.288.519.436.915.436.387 0 .691-.14.906-.428.206-.288.313-.717.313-1.285z"/><path d="m75.492 4.07v-2.462c-.19-.091-.363-.157-.528-.198-.156-.041-.312-.058-.477-.058-.379 0-.684.14-.898.421-.222.28-.329.683-.329 1.21 0 .503.082.881.247 1.137.164.263.436.395.815.395.198 0 .395-.041.601-.115.214-.083.396-.19.569-.33zm-2.545 1.936c.049.025.123.058.222.09.099.033.214.066.338.099.14.041.271.066.387.091.115.016.247.033.387.033.231 0 .428-.033.593-.099.165-.058.288-.148.379-.255.09-.107.148-.239.181-.379.033-.148.058-.313.058-.494v-.396c-.206.173-.404.305-.602.387-.197.091-.444.132-.741.132-.511 0-.914-.189-1.219-.576-.305-.379-.453-.923-.453-1.639 0-.371.05-.7.157-.989.107-.288.247-.535.42-.733.173-.197.37-.346.601-.453.231-.098.469-.156.716-.156.231 0 .437.033.602.082.173.058.346.14.519.239l.041-.189h.708v3.978c0 .757-.165 1.317-.494 1.68-.338.354-.84.535-1.524.535-.222 0-.445-.025-.675-.057-.231-.033-.445-.083-.643-.14v-.791z"/><path d="m79.286 5.396c-.717 0-1.269-.206-1.664-.609-.395-.404-.593-.972-.593-1.721 0-.725.189-1.31.577-1.746.378-.429.881-.651 1.499-.651.28 0 .527.041.741.123.214.083.403.206.56.379.165.173.288.379.37.626.091.256.132.552.132.914v.412h-3.113c0 .519.132.923.395 1.194.264.28.626.421 1.087.421.165 0 .33-.025.495-.058.156-.041.296-.091.428-.148.14-.058.255-.124.346-.182.09-.057.173-.107.23-.156h.05v.824c-.091.032-.198.074-.33.131-.131.05-.255.091-.354.124-.148.033-.28.066-.403.09-.116.017-.272.033-.453.033zm.889-2.849c-.008-.206-.033-.387-.074-.527-.041-.149-.107-.28-.189-.379-.083-.116-.198-.198-.338-.256-.14-.057-.305-.09-.511-.09s-.37.033-.51.09c-.14.058-.272.149-.387.264-.116.115-.198.247-.256.395-.057.14-.099.305-.115.503z"/><path d="m84.048 1.608h-.033c-.058-.017-.115-.025-.181-.025-.066-.008-.14-.008-.231-.008-.197 0-.403.041-.601.132-.206.09-.395.222-.577.395v3.187h-.757v-4.488h.757v.667c.28-.247.519-.42.725-.519s.404-.148.593-.148h.181c.033.008.083.016.124.024z"/><path d="m238.95 25.719.646 3.145c.034.187.051.357.051.527 0 1.667-1.701 3.061-3.537 3.061-.561 0-1.105-.136-1.615-.391 1.309-.136 2.295-.935 2.295-2.108 0-1.038-.85-2.126-1.938-2.126-1.242 0-2.092.952-2.092 2.194 0 1.734 1.412 2.873 3.112 2.873 2.278 0 4.217-1.479 4.217-3.605 0-.476-.748-3.842-.731-3.723 1.819-.885 3.06-2.449 3.06-4.098 0-2.262-1.819-3.996-4.081-3.996-.034 0-.272.017-.68.051l-.748-3.588c2.534-2.142 3.69-4.421 3.69-6.92 0-1.922-.765-3.962-2.313-6.105-1.751 1.412-2.754 4.234-2.754 7.244 0 1.071.136 2.108.374 3.095-3.877 3.247-5.815 6.24-5.815 8.978 0 3.213 3.315 5.883 6.92 5.883.799 0 1.394-.119 1.939-.391zm-.051-22.343c.561.578.85 1.258.85 2.057 0 1.65-1.174 3.503-3.469 5.544-.119-.494-.153-1.038-.153-1.633 0-2.856 1.054-6.002 2.465-6.002.12 0 .222.017.307.034zm.357 21.646-1.208-5.68c.238-.017.374-.034.425-.034 1.463 0 2.483 1.378 2.483 2.789 0 1.122-.595 2.108-1.7 2.925zm-1.633-5.612 1.225 5.85c-.596.323-1.259.459-2.058.459-2.754 0-5.135-2.058-5.135-4.557 0-2.262 1.683-4.591 4.863-6.972l.714 3.401c-1.768.374-3.264 1.87-3.264 3.554 0 1.428 1.02 2.431 2.55 2.669-.935-.578-1.394-1.309-1.394-2.176 0-1.173 1.088-2.041 2.499-2.228z"/><path d="m254.344 5.289h-2.924v-.609h1.087v-4.019h-1.087v-.544c.412 0 .717-.058.906-.173.198-.115.305-.338.329-.659h.626v5.395h1.063z"/><path d="m261.413 5.289h-2.923v-.609h1.087v-4.019h-1.087v-.544c.411 0 .716-.058.906-.173.197-.115.304-.338.329-.659h.626v5.395h1.062z"/><path d="m265.003-.97-2.339 7.561h-.683l2.33-7.561z"/><path d="m269.363 5.289h-3.698v-.84c.263-.255.519-.494.757-.725.231-.23.462-.469.692-.716.453-.502.766-.906.931-1.211.165-.296.247-.609.247-.93 0-.165-.025-.313-.074-.437-.058-.132-.132-.231-.222-.313-.091-.082-.198-.148-.322-.181-.123-.041-.263-.066-.403-.066-.148 0-.288.016-.437.058-.148.033-.288.082-.42.131-.115.05-.222.099-.329.165-.099.066-.181.124-.247.165h-.05v-.848c.173-.083.404-.165.7-.248.297-.074.577-.115.84-.115.56 0 .997.148 1.31.445.313.296.478.692.478 1.202 0 .231-.033.453-.083.651-.057.198-.131.379-.23.552s-.214.346-.354.519c-.14.164-.289.337-.445.502-.256.272-.536.56-.84.857-.313.288-.56.527-.742.7h2.941z"/><path d="m274.2 5.38c-.411 0-.733-.115-.963-.354-.231-.231-.346-.601-.346-1.112v-2.487h-.511v-.626h.511v-1.293h.758v1.293h1.391v.626h-1.391v2.133c0 .23.008.403.016.527.008.123.033.239.091.346.041.09.115.164.222.214.099.041.239.066.412.066.123 0 .239-.017.354-.05.115-.041.198-.066.255-.09h.041v.675c-.14.041-.288.074-.428.099-.148.016-.288.033-.412.033z"/><path d="m279.294 3.049c0 .75-.181 1.334-.544 1.746-.37.412-.848.618-1.458.618-.626 0-1.12-.214-1.474-.634-.354-.429-.535-1.005-.535-1.73 0-.758.181-1.334.552-1.754.37-.412.856-.626 1.457-.626.61 0 1.088.214 1.458.626.363.412.544.996.544 1.754zm-.783 0c0-.585-.098-1.021-.313-1.301-.214-.28-.518-.42-.906-.42-.395 0-.7.14-.914.42s-.313.716-.313 1.301c0 .56.099.988.313 1.277.214.288.519.436.914.436.388 0 .692-.14.906-.428.206-.288.313-.717.313-1.285z"/><path d="m283.765 3.049c0 .75-.181 1.334-.544 1.746-.371.412-.848.618-1.458.618-.626 0-1.12-.214-1.474-.634-.354-.429-.535-1.005-.535-1.73 0-.758.181-1.334.552-1.754.37-.412.856-.626 1.457-.626.61 0 1.087.214 1.458.626.363.412.544.996.544 1.754zm-.783 0c0-.585-.099-1.021-.313-1.301s-.519-.42-.906-.42c-.395 0-.7.14-.914.42s-.313.716-.313 1.301c0 .56.099.988.313 1.277.214.288.519.436.914.436.387 0 .692-.14.906-.428.206-.288.313-.717.313-1.285z"/><path d="m288.071 5.289h-.758v-2.561c0-.206-.008-.395-.025-.577-.024-.173-.057-.321-.115-.428-.066-.107-.148-.189-.263-.247-.107-.058-.256-.082-.445-.082-.19 0-.387.049-.585.148s-.395.231-.585.395v3.352h-.757v-4.488h.757v.494c.231-.198.453-.354.667-.461.223-.107.453-.165.701-.165.436 0 .782.148 1.037.436.247.297.371.717.371 1.269z"/><path d="m291.719-.97h.758v6.259h-.758z"/><path d="m296.095 4.186v-1.252c-.181.016-.403.041-.683.066-.272.033-.495.074-.659.123-.206.058-.371.157-.503.28-.131.132-.197.305-.197.536 0 .255.074.453.214.584.148.132.362.198.642.198.239 0 .453-.058.643-.156.197-.108.378-.231.543-.379zm0 .626c-.057.041-.14.107-.247.189-.099.082-.206.148-.296.198-.14.066-.264.123-.387.156-.132.041-.305.058-.528.058-.189 0-.362-.033-.527-.107-.164-.066-.313-.165-.436-.288-.124-.124-.223-.28-.288-.462-.075-.181-.116-.37-.116-.568 0-.313.066-.577.198-.799.132-.214.338-.387.626-.519.255-.115.552-.197.889-.239.346-.041.717-.074 1.112-.098v-.14c0-.182-.025-.322-.082-.429-.05-.115-.124-.197-.223-.255-.098-.058-.214-.099-.354-.124-.14-.016-.28-.033-.428-.033-.173 0-.379.033-.618.083-.239.049-.469.132-.708.23h-.041v-.774c.14-.041.338-.082.601-.132.255-.049.511-.074.766-.074.313 0 .568.025.782.074.215.05.404.14.569.264.164.124.288.28.37.478.083.197.116.436.116.716v3.072h-.75z"/><path d="m300.614 4.07v-2.462c-.189-.091-.362-.157-.527-.198-.156-.041-.313-.058-.477-.058-.379 0-.684.14-.898.421-.223.28-.33.683-.33 1.21 0 .503.083.881.247 1.137.165.263.437.395.816.395.197 0 .395-.041.601-.115.214-.083.395-.19.568-.33zm-2.545 1.936c.05.025.124.058.223.09.099.033.214.066.337.099.14.041.272.066.388.091.115.016.247.033.387.033.23 0 .428-.033.593-.099.164-.058.288-.148.378-.255.091-.107.149-.239.182-.379.033-.148.057-.313.057-.494v-.396c-.206.173-.403.305-.601.387-.198.091-.445.132-.741.132-.511 0-.914-.189-1.219-.576-.305-.379-.453-.923-.453-1.639 0-.371.049-.7.156-.989.107-.288.247-.535.42-.733.173-.197.371-.346.602-.453.23-.098.469-.156.716-.156.231 0 .437.033.601.082.173.058.346.14.519.239l.042-.189h.708v3.978c0 .757-.165 1.317-.494 1.68-.338.354-.84.535-1.524.535-.222 0-.445-.025-.675-.057-.231-.033-.445-.083-.643-.14v-.791z"/><path d="m304.408 5.396c-.716 0-1.268-.206-1.663-.609-.396-.404-.593-.972-.593-1.721 0-.725.189-1.31.576-1.746.379-.429.882-.651 1.499-.651.28 0 .527.041.742.123.214.083.403.206.56.379.164.173.288.379.37.626.091.256.132.552.132.914v.412h-3.113c0 .519.132.923.395 1.194.264.28.626.421 1.087.421.165 0 .33-.025.494-.058.157-.041.297-.091.429-.148.14-.058.255-.124.346-.182.09-.057.173-.107.23-.156h.05v.824c-.091.032-.198.074-.33.131-.132.05-.255.091-.354.124-.148.033-.28.066-.404.09-.115.017-.271.033-.453.033zm.89-2.849c-.008-.206-.033-.387-.074-.527-.041-.149-.107-.28-.19-.379-.082-.116-.197-.198-.337-.256-.14-.057-.305-.09-.511-.09s-.371.033-.511.09c-.14.058-.271.149-.387.264-.115.115-.197.247-.255.395-.058.14-.099.305-.115.503z"/><path d="m309.171 1.608h-.033c-.058-.017-.116-.025-.181-.025-.066-.008-.141-.008-.231-.008-.198 0-.404.041-.601.132-.206.09-.396.222-.577.395v3.187h-.758v-4.488h.758v.667c.28-.247.519-.42.725-.519s.403-.148.593-.148h.181c.033.008.082.016.124.024z"/></g><path d="m22.959 30.534h9.033" fill="none" stroke="#000" stroke-width=".66"/><path d="m30.265 29.87v-14.214" fill="none" stroke="#000" stroke-width=".4"/><path d="m26.457 32.707c1.752 0 3.911-1.462 3.911-2.958 0-.902-.799-1.48-1.938-1.48-1.718 0-3.877 1.429-3.877 2.959 0 .935.833 1.479 1.904 1.479z" fill-rule="nonzero"/><path d="m48.597 27.744v-14.214" fill="none" stroke="#000" stroke-width=".4"/><path d="m44.789 30.582c1.752 0 3.911-1.463 3.911-2.959 0-.901-.799-1.479-1.938-1.479-1.718 0-3.877 1.428-3.877 2.958 0 .936.833 1.48 1.904 1.48z" fill-rule="nonzero"/><path d="m67.062 25.619v-14.214" fill="none" stroke="#000" stroke-width=".4"/><path d="m63.254 28.456c1.751 0 3.911-1.462 3.911-2.958 0-.902-.799-1.48-1.939-1.48-1.717 0-3.876 1.429-3.876 2.959 0 .935.833 1.479 1.904 1.479z" fill-rule="nonzero"/><path d="m85.394 21.368v-14.214" fill="none" stroke="#000" stroke-width=".4"/><path d="m81.586 24.205c1.751 0 3.911-1.462 3.911-2.958 0-.901-.799-1.48-1.939-1.48-1.717 0-3.876 1.429-3.876 2.959 0 .935.833 1.479 1.904 1.479z" fill-rule="nonzero"/><path d="m110.102 27.744v-14.214" fill="none" stroke="#000" stroke-width=".4"/><path d="m106.294 30.582c1.752 0 3.911-1.463 3.911-2.959 0-.901-.799-1.479-1.938-1.479-1.718 0-3.877 1.428-3.877 2.958 0 .936.833 1.48 1.904 1.48z" fill-rule="nonzero"/><path d="m99.342 31.483 2.397-1.768c1.055-.766 1.463-1.633 1.497-2.279 0-.952-.867-1.666-1.888-1.666-.714 0-1.241.272-1.581.833l.119-5.356h-.544zm1.581-5.033c.544 0 .952.391.952.918 0 .884-1.173 2.585-2.057 3.146-.051-.289-.085-.851-.085-1.684 0-.459.034-1.02.102-1.666.255-.476.612-.714 1.088-.714z" fill-rule="nonzero"/><path d="m128.434 25.619v-14.214" fill="none" stroke="#000" stroke-width=".4"/><path d="m124.626 28.456c1.752 0 3.911-1.462 3.911-2.958 0-.902-.799-1.48-1.938-1.48-1.718 0-3.877 1.429-3.877 2.959 0 .935.833 1.479 1.904 1.479z" fill-rule="nonzero"/><path d="m117.674 29.357 2.397-1.768c1.055-.765 1.463-1.632 1.497-2.278 0-.953-.868-1.667-1.888-1.667-.714 0-1.241.272-1.581.833l.119-5.356h-.544zm1.581-5.033c.544 0 .952.391.952.919 0 .884-1.173 2.584-2.057 3.145-.051-.289-.085-.85-.085-1.683 0-.459.034-1.02.102-1.666.255-.477.612-.715 1.088-.715z" fill-rule="nonzero"/><path d="m146.899 23.493v-14.213" fill="none" stroke="#000" stroke-width=".4"/><path d="m143.091 26.331c1.751 0 3.911-1.463 3.911-2.959 0-.901-.799-1.479-1.939-1.479-1.717 0-3.876 1.428-3.876 2.958 0 .936.833 1.48 1.904 1.48z" fill-rule="nonzero"/><path d="m165.231 19.243v-14.214" fill="none" stroke="#000" stroke-width=".4"/><path d="m161.423 22.08c1.751 0 3.911-1.462 3.911-2.959 0-.901-.799-1.479-1.939-1.479-1.717 0-3.876 1.428-3.876 2.959 0 .935.833 1.479 1.904 1.479z" fill-rule="nonzero"/><path d="m154.471 22.981 2.397-1.768c1.054-.765 1.462-1.633 1.496-2.279 0-.952-.867-1.666-1.887-1.666-.714 0-1.241.272-1.581.833l.119-5.356h-.544zm1.581-5.033c.544 0 .952.391.952.918 0 .884-1.173 2.585-2.057 3.146-.051-.289-.085-.85-.085-1.683 0-.46.034-1.021.102-1.667.255-.476.612-.714 1.088-.714z" fill-rule="nonzero"/><path d="m249.717 30.534h9.033" fill="none" stroke="#000" stroke-width=".66"/><path d="m257.023 29.87v-14.214" fill="none" stroke="#000" stroke-width=".4"/><path d="m253.216 32.707c1.751 0 3.91-1.462 3.91-2.958 0-.902-.799-1.48-1.938-1.48-1.717 0-3.877 1.429-3.877 2.959 0 .935.833 1.479 1.905 1.479z" fill-rule="nonzero"/><path d="m275.355 27.744v-14.214" fill="none" stroke="#000" stroke-width=".4"/><path d="m271.548 30.582c1.751 0 3.91-1.463 3.91-2.959 0-.901-.799-1.479-1.938-1.479-1.717 0-3.877 1.428-3.877 2.958 0 .936.833 1.48 1.905 1.48z" fill-rule="nonzero"/><path d="m268.419 34.169v-9.13l-2.602.918v-3.418h-.425v9.131l2.602-.901v3.4zm-2.602-6.835 2.177-.799v2.856l-2.177.783z" fill-rule="nonzero"/><path d="m293.82 25.619v-14.214" fill="none" stroke="#000" stroke-width=".4"/><path d="m290.012 28.456c1.752 0 3.911-1.462 3.911-2.958 0-.902-.799-1.48-1.938-1.48-1.718 0-3.877 1.429-3.877 2.959 0 .935.833 1.479 1.904 1.479z" fill-rule="nonzero"/><path d="m286.884 32.044v-9.131l-2.602.918v-3.417h-.425v9.13l2.602-.901v3.401zm-2.602-6.835 2.177-.8v2.857l-2.177.782z" fill-rule="nonzero"/><path d="m312.152 21.368v-14.214" fill="none" stroke="#000" stroke-width=".4"/><path d="m308.344 24.205c1.752 0 3.911-1.462 3.911-2.958 0-.901-.799-1.48-1.938-1.48-1.718 0-3.877 1.429-3.877 2.959 0 .935.833 1.479 1.904 1.479z" fill-rule="nonzero"/><path d="m330.617 30.534h9.033" fill="none" stroke="#000" stroke-width=".66"/><path d="m330.617 34.785h9.033" fill="none" stroke="#000" stroke-width=".66"/><path d="m337.923 34.121v-16.34" fill="none" stroke="#000" stroke-width=".4"/><path d="m334.115 36.958c1.752 0 3.911-1.462 3.911-2.959 0-.901-.799-1.479-1.938-1.479-1.718 0-3.877 1.428-3.877 2.959 0 .935.833 1.479 1.904 1.479z" fill-rule="nonzero"/><path d="m326.1 37.859 2.398-1.768c1.054-.765 1.462-1.632 1.496-2.279 0-.952-.867-1.666-1.887-1.666-.715 0-1.242.272-1.582.833l.119-5.356h-.544zm1.582-5.033c.544 0 .952.391.952.918 0 .885-1.174 2.585-2.058 3.146-.051-.289-.085-.85-.085-1.683 0-.459.034-1.021.102-1.667.255-.476.612-.714 1.089-.714z" fill-rule="nonzero"/><path d="m348.949 30.534h9.033" fill="none" stroke="#000" stroke-width=".66"/><path d="m356.255 31.995v-14.214" fill="none" stroke="#000" stroke-width=".4"/><path d="m352.447 34.833c1.752 0 3.911-1.463 3.911-2.959 0-.901-.799-1.479-1.938-1.479-1.718 0-3.877 1.428-3.877 2.958 0 .935.833 1.48 1.904 1.48z" fill-rule="nonzero"/><path d="m344.432 35.734 2.398-1.769c1.054-.765 1.462-1.632 1.496-2.278 0-.952-.867-1.666-1.887-1.666-.715 0-1.242.272-1.582.833l.119-5.356h-.544zm1.582-5.033c.544 0 .952.391.952.918 0 .884-1.174 2.584-2.058 3.146-.051-.289-.085-.851-.085-1.684 0-.459.034-1.02.102-1.666.255-.476.612-.714 1.089-.714z" fill-rule="nonzero"/><path d="m367.414 30.534h9.033" fill="none" stroke="#000" stroke-width=".66"/><path d="m374.72 29.87v-14.214" fill="none" stroke="#000" stroke-width=".4"/><path d="m370.912 32.707c1.751 0 3.911-1.462 3.911-2.958 0-.902-.799-1.48-1.939-1.48-1.717 0-3.876 1.429-3.876 2.959 0 .935.833 1.479 1.904 1.479z" fill-rule="nonzero"/><path d="m393.052 25.619v-14.214" fill="none" stroke="#000" stroke-width=".4"/><path d="m389.244 28.456c1.751 0 3.911-1.462 3.911-2.958 0-.902-.799-1.48-1.939-1.48-1.717 0-3.876 1.429-3.876 2.959 0 .935.833 1.479 1.904 1.479z" fill-rule="nonzero"/><path d="m382.292 29.357 2.397-1.768c1.054-.765 1.462-1.632 1.496-2.278 0-.953-.867-1.667-1.887-1.667-.714 0-1.241.272-1.581.833l.119-5.356h-.544zm1.581-5.033c.544 0 .952.391.952.919 0 .884-1.173 2.584-2.057 3.145-.051-.289-.085-.85-.085-1.683 0-.459.034-1.02.102-1.666.255-.477.612-.715 1.088-.715z" fill-rule="nonzero"/></svg>