<svg clip-rule="evenodd" fill-rule="evenodd" stroke-linejoin="round" stroke-miterlimit="2" viewBox="0 0 368 36" xmlns="http://www.w3.org/2000/svg"><path d="m26.073 12.208v17.003" fill="none" stroke="#000" stroke-width="2.13"/><path d="m28.995 12.208v17.003" fill="none" stroke="#000" stroke-width=".66"/><path d="m31.785 17.789c-.408 0-.782.357-.782.816 0 .391.391.765.782.765.459 0 .816-.374.816-.765 0-.459-.357-.816-.816-.816z" fill-rule="nonzero"/><path d="m31.785 22.04c-.408 0-.782.357-.782.816 0 .391.391.765.782.765.459 0 .816-.374.816-.765 0-.459-.357-.816-.816-.816z" fill-rule="nonzero"/><path d="m192.787 12.208v17.003" fill="none" stroke="#000" stroke-width=".66"/><path d="m363.487 12.208v17.003" fill="none" stroke="#000" stroke-width=".66"/><path d="m366.409 12.208v17.003" fill="none" stroke="#000" stroke-width="2.13"/><path d="m360.697 17.789c-.408 0-.782.357-.782.816 0 .391.391.765.782.765.459 0 .816-.374.816-.765 0-.459-.357-.816-.816-.816z" fill-rule="nonzero"/><path d="m360.697 22.04c-.408 0-.782.357-.782.816 0 .391.391.765.782.765.459 0 .816-.374.816-.765 0-.459-.357-.816-.816-.816z" fill-rule="nonzero"/><path d="m.036 29.211h367.436" fill="none" stroke="#000" stroke-width=".4"/><path d="m.036 24.96h367.436" fill="none" stroke="#000" stroke-width=".4"/><path d="m.036 20.709h367.436" fill="none" stroke="#000" stroke-width=".4"/><path d="m.036 16.459h367.436" fill="none" stroke="#000" stroke-width=".4"/><path d="m.036 12.208h367.436" fill="none" stroke="#000" stroke-width=".4"/><g fill-rule="nonzero"><path d="m12.117 28.647.646 3.145c.034.188.051.358.051.528 0 1.666-1.7 3.06-3.537 3.06-.561 0-1.105-.136-1.615-.391 1.309-.136 2.296-.935 2.296-2.108 0-1.038-.851-2.126-1.939-2.126-1.241 0-2.091.952-2.091 2.194 0 1.734 1.411 2.873 3.111 2.873 2.279 0 4.217-1.479 4.217-3.604 0-.477-.748-3.843-.731-3.724 1.819-.884 3.061-2.449 3.061-4.098 0-2.262-1.82-3.996-4.081-3.996-.034 0-.272.017-.68.051l-.748-3.588c2.533-2.142 3.689-4.421 3.689-6.92 0-1.922-.765-3.962-2.312-6.104-1.751 1.411-2.755 4.234-2.755 7.243 0 1.071.136 2.109.374 3.095-3.876 3.247-5.815 6.24-5.815 8.978 0 3.213 3.316 5.883 6.921 5.883.799 0 1.394-.119 1.938-.391zm-.051-22.343c.561.578.85 1.258.85 2.058 0 1.649-1.173 3.502-3.469 5.543-.119-.493-.153-1.037-.153-1.633 0-2.856 1.055-6.002 2.466-6.002.119 0 .221.017.306.034zm.357 21.646-1.207-5.68c.238-.017.374-.034.425-.034 1.462 0 2.482 1.378 2.482 2.789 0 1.122-.595 2.108-1.7 2.925zm-1.632-5.612 1.224 5.85c-.595.323-1.258.459-2.057.459-2.755 0-5.136-2.058-5.136-4.557 0-2.262 1.684-4.591 4.864-6.972l.714 3.401c-1.769.374-3.265 1.871-3.265 3.554 0 1.428 1.02 2.431 2.551 2.669-.936-.578-1.395-1.309-1.395-2.176 0-1.173 1.088-2.04 2.5-2.228z"/><path d="m33.163 6.139h-1.836l-1.672-2.199h-.536v2.199h-1.499v-5.988h2.413c.33 0 .618.017.865.066.247.041.478.124.684.255.214.14.387.313.51.519.124.214.19.478.19.807 0 .453-.099.824-.305 1.112-.214.289-.486.511-.832.684zm-2.421-4.151c0-.157-.033-.28-.091-.396-.058-.107-.156-.189-.288-.247-.091-.041-.198-.065-.313-.074-.115-.016-.255-.016-.428-.016h-.503v1.614h.429c.205 0 .387-.016.535-.041s.272-.082.37-.165c.099-.074.165-.165.215-.272.049-.098.074-.238.074-.403z"/><path d="m36.022 6.262c-.808 0-1.425-.189-1.854-.584-.436-.388-.65-.956-.65-1.705v-3.822h1.507v3.739c0 .412.074.725.231.923.156.206.411.305.766.305.345 0 .601-.091.766-.289.156-.197.238-.51.238-.939v-3.739h1.508v3.822c0 .733-.215 1.301-.635 1.696-.42.396-1.046.593-1.877.593z"/><path d="m44.477 4.302c0 .297-.057.56-.173.791-.107.222-.263.412-.453.552-.222.181-.469.304-.741.379-.272.074-.609.115-1.029.115h-2.397v-5.988h2.116c.437 0 .775.017.997.05.231.033.445.107.642.214.215.115.371.263.478.461.107.189.157.412.157.667 0 .288-.066.552-.214.782-.149.223-.346.396-.61.503v.033c.371.074.667.23.89.469.222.247.337.569.337.972zm-1.927-2.454c0-.099-.025-.198-.074-.305-.05-.099-.132-.173-.231-.214-.099-.049-.222-.074-.354-.074-.132-.008-.338-.008-.601-.008h-.107v1.268h.189c.256 0 .437 0 .536-.008.107-.009.214-.033.321-.083.123-.057.206-.131.255-.23.041-.107.066-.223.066-.346zm.379 2.429c0-.189-.041-.329-.115-.436-.075-.107-.19-.181-.338-.239-.091-.033-.214-.049-.379-.058h-.914v1.499h.082c.387 0 .659-.008.807-.008.149-.008.305-.041.462-.107.14-.066.238-.148.296-.263.066-.116.099-.239.099-.388z"/><path d="m44.691 6.139 2.026-5.988h1.639l2.026 5.988h-1.548l-.379-1.219h-1.878l-.379 1.219zm3.435-2.306-.61-1.977-.609 1.977z"/><path d="m52.124 6.139v-4.843h-1.771v-1.145h5.041v1.145h-1.771v4.843z"/><path d="m61.465 3.149c0 .964-.255 1.73-.774 2.282-.519.551-1.227.831-2.125.831-.906 0-1.614-.28-2.133-.84-.511-.56-.766-1.318-.766-2.273 0-.964.255-1.729.766-2.281.519-.56 1.227-.84 2.133-.84.898 0 1.606.28 2.125.831.519.561.774 1.318.774 2.29zm-1.548-.008c0-.354-.041-.659-.116-.906-.074-.255-.173-.461-.288-.618-.132-.165-.28-.28-.436-.354-.165-.074-.338-.107-.511-.107-.181 0-.354.033-.502.099-.149.066-.297.181-.437.354-.115.156-.222.362-.296.618-.075.255-.116.56-.116.922s.041.667.107.914c.074.239.173.445.305.61.124.165.272.28.437.354.164.074.329.107.502.107.181 0 .354-.041.519-.115s.305-.198.428-.354c.132-.173.231-.379.297-.61.074-.231.107-.535.107-.914z"/><path d="m67.006 7.794h-.923c-.469-.552-.831-1.136-1.103-1.762-.264-.618-.395-1.351-.395-2.191 0-.832.131-1.557.395-2.183.263-.634.634-1.219 1.103-1.779h.923v.042c-.222.197-.428.42-.626.675s-.379.56-.544.898c-.164.329-.296.691-.395 1.087-.099.403-.148.815-.148 1.26 0 .453.049.873.14 1.26.099.379.23.741.403 1.079.157.329.338.634.544.898.214.263.42.494.626.675z"/><path d="m70.801 6.139h-3.302v-.56l2.347-3.311h-2.249v-.618h3.155v.535l-2.356 3.32h2.405z"/><path d="m75.16 3.899c0 .749-.181 1.334-.543 1.746-.371.411-.849.617-1.458.617-.626 0-1.12-.214-1.474-.634-.354-.428-.536-1.005-.536-1.729 0-.758.182-1.335.552-1.755.371-.412.857-.626 1.458-.626.609 0 1.087.214 1.458.626.362.412.543.997.543 1.755zm-.782 0c0-.585-.099-1.022-.313-1.302s-.519-.42-.906-.42c-.395 0-.7.14-.914.42s-.313.717-.313 1.302c0 .56.099.988.313 1.276s.519.437.914.437c.387 0 .692-.14.906-.429.206-.288.313-.716.313-1.284z"/><path d="m79.466 6.139h-.757v-2.562c0-.206-.008-.395-.025-.576-.025-.173-.058-.321-.115-.428-.066-.107-.148-.19-.264-.248-.107-.057-.255-.082-.445-.082-.189 0-.387.05-.584.148-.198.099-.396.231-.585.396v3.352h-.758v-4.489h.758v.494c.231-.197.453-.354.667-.461.222-.107.453-.165.7-.165.437 0 .783.149 1.038.437.247.296.37.716.37 1.268z"/><path d="m83.984 6.139h-.75v-.461c-.123.098-.222.181-.313.247-.082.066-.181.123-.296.181-.107.049-.223.09-.338.115s-.247.041-.404.041c-.238 0-.469-.049-.675-.148-.206-.107-.379-.255-.527-.453s-.264-.436-.346-.733c-.074-.288-.115-.626-.115-1.005 0-.387.049-.733.148-1.021.107-.288.247-.535.428-.749.157-.198.354-.355.593-.462.231-.115.47-.173.725-.173.231 0 .42.025.593.074.165.058.338.132.527.239v-1.952h.75zm-.75-1.096v-2.586c-.189-.09-.362-.156-.51-.189-.149-.033-.305-.058-.486-.058-.387 0-.692.148-.906.437-.223.296-.33.716-.33 1.26 0 .535.083.939.247 1.219.173.28.445.42.816.42.197 0 .395-.05.601-.14.198-.091.387-.206.568-.363z"/><path d="m87.028 6.246c-.716 0-1.268-.206-1.663-.61-.396-.403-.593-.971-.593-1.721 0-.725.189-1.309.576-1.746.379-.428.881-.651 1.499-.651.28 0 .527.042.741.124s.404.206.56.379c.165.173.289.379.371.626.091.255.132.552.132.914v.412h-3.113c0 .519.131.922.395 1.194.263.28.626.42 1.087.42.165 0 .33-.025.494-.058.157-.041.297-.09.429-.148.14-.058.255-.123.345-.181.091-.058.173-.107.231-.157h.049v.824c-.09.033-.197.074-.329.132-.132.049-.255.09-.354.123-.148.033-.28.066-.404.091-.115.016-.272.033-.453.033zm.89-2.85c-.008-.206-.033-.387-.074-.527-.042-.148-.107-.28-.19-.379-.082-.115-.197-.197-.337-.255s-.305-.091-.511-.091-.371.033-.511.091-.272.148-.387.263c-.115.116-.197.248-.255.396-.058.14-.099.305-.115.502z"/><path d="m91.79 2.457h-.032c-.058-.016-.116-.024-.182-.024-.066-.009-.14-.009-.23-.009-.198 0-.404.042-.601.132-.206.091-.396.222-.577.395v3.188h-.758v-4.489h.758v.667c.28-.247.519-.42.725-.519.206-.098.403-.148.593-.148h.181c.033.008.082.017.123.025z"/><path d="m96.309 6.229c-.412 0-.733-.115-.964-.354-.23-.23-.345-.601-.345-1.112v-2.487h-.511v-.626h.511v-1.293h.757v1.293h1.392v.626h-1.392v2.133c0 .231.008.404.017.527.008.124.033.239.09.346.041.091.116.165.223.214.099.042.239.066.411.066.124 0 .239-.016.355-.049.115-.041.197-.066.255-.091h.041v.676c-.14.041-.288.074-.428.098-.148.017-.288.033-.412.033z"/><path d="m99.656 6.246c-.716 0-1.268-.206-1.663-.61-.396-.403-.593-.971-.593-1.721 0-.725.189-1.309.576-1.746.379-.428.882-.651 1.499-.651.28 0 .527.042.741.124.215.082.404.206.561.379.164.173.288.379.37.626.091.255.132.552.132.914v.412h-3.113c0 .519.131.922.395 1.194.264.28.626.42 1.087.42.165 0 .33-.025.494-.058.157-.041.297-.09.429-.148.14-.058.255-.123.346-.181.09-.058.173-.107.23-.157h.05v.824c-.091.033-.198.074-.33.132-.132.049-.255.09-.354.123-.148.033-.28.066-.404.091-.115.016-.271.033-.453.033zm.89-2.85c-.008-.206-.033-.387-.074-.527-.041-.148-.107-.28-.19-.379-.082-.115-.197-.197-.337-.255s-.305-.091-.511-.091-.371.033-.511.091-.271.148-.387.263c-.115.116-.197.248-.255.396-.058.14-.099.305-.115.502z"/><path d="m107.145 6.139v-2.595c0-.205-.008-.403-.025-.576-.016-.173-.049-.313-.107-.412-.049-.107-.124-.189-.222-.239-.099-.049-.239-.074-.404-.074-.156 0-.321.05-.502.14-.182.099-.363.231-.552.412 0 .049.008.099.008.165.008.066.008.14.008.222v2.957h-.757v-2.595c0-.205-.009-.403-.025-.576-.017-.173-.05-.313-.099-.412-.058-.107-.132-.189-.231-.239-.098-.049-.23-.074-.403-.074-.165 0-.338.05-.511.148-.181.107-.354.239-.527.396v3.352h-.758v-4.489h.758v.494c.198-.197.395-.354.593-.461.19-.107.404-.165.643-.165.263 0 .494.066.7.182.205.123.362.321.469.601.231-.256.453-.453.667-.585.223-.132.453-.198.708-.198.198 0 .371.033.528.091.156.066.296.165.411.296.124.132.215.305.28.511.066.206.099.461.099.766v2.957z"/><path d="m112.727 3.775c0 .75-.182 1.343-.536 1.787-.362.445-.815.667-1.359.667-.222 0-.42-.024-.593-.082-.173-.049-.346-.123-.527-.231v1.878h-.758v-6.144h.758v.47c.19-.173.395-.313.626-.429.231-.115.478-.173.75-.173.518 0 .914.206 1.202.618.288.404.437.955.437 1.639zm-.783.082c0-.51-.082-.906-.247-1.194-.156-.28-.428-.42-.791-.42-.214 0-.42.05-.626.14-.197.099-.387.223-.568.371v2.545c.198.099.371.164.511.197s.304.05.486.05c.387 0 .691-.14.914-.428.214-.289.321-.709.321-1.261z"/><path d="m117.204 3.899c0 .749-.181 1.334-.543 1.746-.371.411-.849.617-1.458.617-.626 0-1.12-.214-1.474-.634-.355-.428-.536-1.005-.536-1.729 0-.758.181-1.335.552-1.755.371-.412.857-.626 1.458-.626.609 0 1.087.214 1.458.626.362.412.543.997.543 1.755zm-.782 0c0-.585-.099-1.022-.313-1.302s-.519-.42-.906-.42c-.395 0-.7.14-.914.42s-.313.717-.313 1.302c0 .56.099.988.313 1.276s.519.437.914.437c.387 0 .692-.14.906-.429.206-.288.313-.716.313-1.284z"/><path d="m120.151 3.841c0 .824-.131 1.557-.395 2.183-.263.625-.634 1.218-1.104 1.77h-.922v-.041c.206-.181.412-.412.626-.675.206-.272.387-.569.544-.898.164-.346.296-.708.395-1.095.099-.379.148-.799.148-1.244s-.049-.865-.148-1.26c-.099-.387-.231-.758-.395-1.087-.165-.33-.346-.635-.552-.898-.206-.264-.412-.486-.618-.675v-.042h.922c.47.56.832 1.145 1.096 1.771.272.626.403 1.351.403 2.191z"/><path d="m52.553 29.259c1.751 0 3.91-1.462 3.91-2.959 0-.901-.799-1.479-1.938-1.479-1.717 0-3.877 1.428-3.877 2.959 0 .935.833 1.479 1.905 1.479z"/><path d="m74.87 27.133c1.751 0 3.911-1.462 3.911-2.958 0-.901-.8-1.479-1.939-1.479-1.717 0-3.877 1.428-3.877 2.958 0 .935.833 1.479 1.905 1.479z"/><path d="m97.453 20.757c1.751 0 3.91-1.462 3.91-2.958 0-.902-.799-1.48-1.938-1.48-1.717 0-3.877 1.429-3.877 2.959 0 .935.833 1.479 1.905 1.479z"/><path d="m119.77 18.632c1.751 0 3.911-1.463 3.911-2.959 0-.901-.8-1.479-1.939-1.479-1.717 0-3.877 1.428-3.877 2.958 0 .936.833 1.48 1.905 1.48z"/><path d="m217.407 25.008c1.752 0 3.911-1.462 3.911-2.959 0-.901-.799-1.479-1.938-1.479-1.718 0-3.877 1.428-3.877 2.959 0 .935.833 1.479 1.904 1.479z"/><path d="m210.455 25.909 2.397-1.768c1.055-.765 1.463-1.632 1.497-2.279 0-.952-.867-1.666-1.888-1.666-.714 0-1.241.272-1.581.833l.119-5.356h-.544zm1.581-5.033c.544 0 .952.391.952.918 0 .885-1.173 2.585-2.057 3.146-.051-.289-.085-.85-.085-1.683 0-.459.034-1.021.102-1.667.255-.476.612-.714 1.088-.714z"/><path d="m239.857 22.883c1.752 0 3.911-1.463 3.911-2.959 0-.901-.799-1.479-1.938-1.479-1.718 0-3.877 1.428-3.877 2.958 0 .936.833 1.48 1.904 1.48z"/><path d="m232.905 23.784 2.397-1.769c1.055-.765 1.463-1.632 1.497-2.278 0-.952-.867-1.666-1.888-1.666-.714 0-1.241.272-1.581.833l.119-5.356h-.544zm1.581-5.033c.544 0 .952.391.952.918 0 .884-1.173 2.584-2.057 3.146-.051-.289-.085-.851-.085-1.684 0-.459.034-1.02.102-1.666.255-.476.612-.714 1.088-.714z"/><path d="m262.307 16.506c1.752 0 3.911-1.462 3.911-2.958 0-.902-.799-1.48-1.938-1.48-1.718 0-3.877 1.429-3.877 2.959 0 .935.833 1.479 1.904 1.479z"/><path d="m255.355 17.407 2.397-1.768c1.055-.765 1.463-1.632 1.497-2.278 0-.953-.867-1.667-1.888-1.667-.714 0-1.241.272-1.581.833l.119-5.356h-.544zm1.581-5.033c.544 0 .952.391.952.919 0 .884-1.173 2.584-2.057 3.145-.051-.289-.085-.85-.085-1.683 0-.459.034-1.02.102-1.666.255-.477.612-.715 1.088-.715z"/><path d="m284.757 14.381c1.752 0 3.911-1.462 3.911-2.959 0-.901-.799-1.479-1.938-1.479-1.718 0-3.877 1.428-3.877 2.959 0 .935.833 1.479 1.904 1.479z"/></g></svg>