<svg clip-rule="evenodd" fill-rule="evenodd" stroke-linejoin="round" stroke-miterlimit="2" viewBox="0 0 335 51" xmlns="http://www.w3.org/2000/svg"><path d="m178.548 13.891v18.449" fill="none" stroke="#000" stroke-width=".72"/><path d="m331.905 13.891v18.449" fill="none" stroke="#000" stroke-width=".72"/><path d="m334.355 13.891v18.449" fill="none" stroke="#000" stroke-width=".72"/><g fill-rule="nonzero"><path d="m39.056 43.533h-.309c-.523.405-.96.544-1.718.544v.384h.182c.618 0 .842.299.842.875v3.925c0 .65-.277.97-.885.97h-.171v.384h3.03v-.384h-.107c-.629 0-.864-.352-.864-1.002z"/><path d="m69.626 48.855h-.373c-.299.704-.565.896-1.248.896h-2.24c1.557-1.888 3.541-2.474 3.541-4.234 0-1.099-.874-1.984-1.984-1.984-1.098 0-1.994.8-2.506 2.229l.395.16c.437-1.034 1.098-1.621 1.845-1.621.682 0 1.248.64 1.248 1.419 0 1.301-1.568 2.346-3.531 4.511v.384h4.331z"/><path d="m94.81 47.362c.395-.267.768-.405 1.099-.405.693 0 1.226.565 1.226 1.354 0 1.12-1.002 1.974-2.218 1.974-.448 0-.8-.086-1.312-.331l-.213.309c.384.288 1.066.48 1.696.48 1.653 0 3.05-1.258 3.05-2.677 0-.917-.725-1.824-1.749-1.674l-.022-.022c.907-.597 1.259-1.024 1.259-1.568 0-.746-.683-1.269-1.621-1.269-.949 0-1.717.523-2.453 1.515l.298.234c.63-.704 1.27-1.077 1.845-1.077.534 0 .928.395.928.885 0 .694-.65 1.174-1.983 1.92z"/><path d="m123.109 43.661-.758 3.264.246.064c.416-.331.81-.47 1.312-.47 1.013 0 1.749.715 1.749 1.728 0 1.131-1.003 2.038-2.24 2.038-.299 0-.608-.043-1.013-.128l-.16.362c.448.15.938.224 1.418.224 1.739 0 3.029-1.12 3.029-2.645 0-1.376-1.077-2.442-2.463-2.442-.406 0-.747.085-1.238.288l.32-1.419h3.2l.203-.992h-.363c-.085.107-.192.128-.619.128z"/><path d="m154.98 43.533c-2.048-.043-4 1.717-4 4.106 0 2.102 1.355 3.104 2.475 3.104 1.184 0 2.165-1.173 2.165-2.602 0-1.28-.8-2.24-1.898-2.24-.576 0-1.088.192-1.611.757l-.021-.021c.234-1.717 1.429-2.677 2.89-2.731zm-2.954 3.85c.469-.682.842-.949 1.365-.949.725 0 1.227.779 1.227 1.941 0 1.259-.534 1.91-1.174 1.91-.906 0-1.536-1.28-1.418-2.902z"/><path d="m189.53 43.533h-.309c-.522.405-.96.544-1.717.544v.384h.181c.619 0 .843.299.843.875v3.925c0 .65-.277.97-.885.97h-.171v.384h3.029v-.384h-.107c-.629 0-.864-.352-.864-1.002z"/><path d="m220.101 48.855h-.374c-.298.704-.565.896-1.247.896h-2.24c1.557-1.888 3.541-2.474 3.541-4.234 0-1.099-.875-1.984-1.984-1.984-1.099 0-1.995.8-2.507 2.229l.395.16c.437-1.034 1.099-1.621 1.845-1.621.683 0 1.248.64 1.248 1.419 0 1.301-1.568 2.346-3.53 4.511v.384h4.33z"/><path d="m245.285 47.362c.394-.267.768-.405 1.098-.405.694 0 1.227.565 1.227 1.354 0 1.12-1.003 1.974-2.219 1.974-.448 0-.8-.086-1.311-.331l-.214.309c.384.288 1.067.48 1.696.48 1.653 0 3.05-1.258 3.05-2.677 0-.917-.725-1.824-1.749-1.674l-.021-.022c.907-.597 1.259-1.024 1.259-1.568 0-.746-.683-1.269-1.622-1.269-.949 0-1.717.523-2.453 1.515l.299.234c.629-.704 1.269-1.077 1.845-1.077.533 0 .928.395.928.885 0 .694-.651 1.174-1.984 1.92z"/><path d="m273.583 43.661-.757 3.264.245.064c.416-.331.811-.47 1.312-.47 1.013 0 1.749.715 1.749 1.728 0 1.131-1.002 2.038-2.239 2.038-.299 0-.608-.043-1.014-.128l-.16.362c.448.15.939.224 1.419.224 1.738 0 3.029-1.12 3.029-2.645 0-1.376-1.077-2.442-2.464-2.442-.405 0-.746.085-1.237.288l.32-1.419h3.2l.202-.992h-.362c-.086.107-.192.128-.619.128z"/><path d="m305.455 43.533c-2.048-.043-4 1.717-4 4.106 0 2.102 1.355 3.104 2.474 3.104 1.184 0 2.166-1.173 2.166-2.602 0-1.28-.8-2.24-1.899-2.24-.576 0-1.088.192-1.61.757l-.022-.021c.235-1.717 1.429-2.677 2.891-2.731zm-2.955 3.85c.47-.682.843-.949 1.365-.949.726 0 1.227.779 1.227 1.941 0 1.259-.533 1.91-1.173 1.91-.907 0-1.536-1.28-1.419-2.902z"/></g><path d="m.112 32.34h334.531" fill="none" stroke="#000" stroke-width=".43"/><path d="m.112 27.728h334.531" fill="none" stroke="#000" stroke-width=".43"/><path d="m.112 23.115h334.531" fill="none" stroke="#000" stroke-width=".43"/><path d="m.112 18.503h334.531" fill="none" stroke="#000" stroke-width=".43"/><path d="m.112 13.891h334.531" fill="none" stroke="#000" stroke-width=".43"/><path d="m13.22 31.727.701 3.413c.037.203.055.388.055.572 0 1.808-1.845 3.321-3.837 3.321-.609 0-1.2-.147-1.753-.424 1.421-.148 2.491-1.015 2.491-2.288 0-1.125-.923-2.306-2.104-2.306-1.346 0-2.269 1.033-2.269 2.38 0 1.882 1.531 3.118 3.376 3.118 2.472 0 4.576-1.605 4.576-3.911 0-.517-.812-4.17-.794-4.041 1.974-.959 3.321-2.656 3.321-4.446 0-2.454-1.974-4.335-4.428-4.335-.036 0-.295.018-.738.055l-.811-3.893c2.749-2.324 4.003-4.796 4.003-7.508 0-2.085-.83-4.299-2.509-6.624-1.9 1.532-2.989 4.594-2.989 7.86 0 1.162.148 2.287.406 3.357-4.206 3.524-6.309 6.771-6.309 9.741 0 3.487 3.597 6.384 7.508 6.384.868 0 1.513-.129 2.104-.425zm-.056-24.242c.609.628.923 1.366.923 2.233 0 1.789-1.273 3.8-3.764 6.014-.129-.535-.166-1.125-.166-1.771 0-3.099 1.144-6.512 2.675-6.512.129 0 .24.018.332.036zm.388 23.486-1.31-6.162c.258-.018.406-.037.461-.037 1.587 0 2.694 1.494 2.694 3.026 0 1.217-.646 2.287-1.845 3.173zm-1.771-6.088 1.328 6.346c-.646.351-1.365.498-2.232.498-2.989 0-5.572-2.232-5.572-4.944 0-2.454 1.826-4.981 5.276-7.564l.775 3.69c-1.918.406-3.542 2.029-3.542 3.856 0 1.549 1.107 2.638 2.767 2.896-1.014-.627-1.512-1.42-1.512-2.361 0-1.273 1.18-2.214 2.712-2.417z" fill-rule="nonzero"/><path d="m41.478 31.619v-15.422" fill="none" stroke="#000" stroke-width=".43"/><path d="m37.346 34.698c1.901 0 4.244-1.587 4.244-3.21 0-.978-.868-1.606-2.104-1.606-1.863 0-4.206 1.55-4.206 3.211 0 1.014.904 1.605 2.066 1.605z" fill-rule="nonzero"/><path d="m29.803 35.675 2.601-1.918c1.144-.83 1.587-1.771 1.624-2.472 0-1.034-.941-1.808-2.048-1.808-.775 0-1.347.295-1.716.904l.129-5.812h-.59zm1.716-5.46c.59 0 1.033.424 1.033.996 0 .959-1.273 2.804-2.233 3.413-.055-.314-.092-.923-.092-1.827 0-.498.037-1.107.111-1.808.277-.516.664-.774 1.181-.774z" fill-rule="nonzero"/><path d="m70.16 29.313v-15.422" fill="none" stroke="#000" stroke-width=".43"/><path d="m66.029 32.392c1.9 0 4.243-1.587 4.243-3.211 0-.977-.867-1.605-2.103-1.605-1.864 0-4.207 1.55-4.207 3.21 0 1.015.904 1.606 2.067 1.606z" fill-rule="nonzero"/><path d="m98.842 27.007v-15.422" fill="none" stroke="#000" stroke-width=".43"/><path d="m94.711 30.085c1.9 0 4.243-1.586 4.243-3.21 0-.977-.867-1.605-2.103-1.605-1.863 0-4.206 1.55-4.206 3.21 0 1.015.904 1.605 2.066 1.605z" fill-rule="nonzero"/><path d="m121.471 23.836v15.422" fill="none" stroke="#000" stroke-width=".43"/><path d="m123.393 25.473c1.901 0 4.244-1.586 4.244-3.21 0-.978-.867-1.605-2.103-1.605-1.864 0-4.207 1.55-4.207 3.21 0 1.015.904 1.605 2.066 1.605z" fill-rule="nonzero"/><path d="m115.85 26.451 2.601-1.919c1.144-.83 1.587-1.771 1.624-2.472 0-1.033-.941-1.808-2.048-1.808-.775 0-1.347.295-1.716.904l.129-5.811h-.59zm1.716-5.461c.59 0 1.033.424 1.033.996 0 .96-1.273 2.805-2.232 3.413-.056-.313-.093-.922-.093-1.826 0-.498.037-1.107.111-1.808.277-.517.664-.775 1.181-.775z" fill-rule="nonzero"/><path d="m150.154 21.53v15.422" fill="none" stroke="#000" stroke-width=".43"/><path d="m152.076 23.167c1.9 0 4.243-1.587 4.243-3.21 0-.978-.867-1.605-2.103-1.605-1.863 0-4.206 1.55-4.206 3.21 0 1.015.904 1.605 2.066 1.605z" fill-rule="nonzero"/><path d="m185.899 16.918v15.422" fill="none" stroke="#000" stroke-width=".43"/><path d="m187.821 18.555c1.9 0 4.243-1.587 4.243-3.21 0-.978-.867-1.605-2.103-1.605-1.864 0-4.207 1.549-4.207 3.21 0 1.014.904 1.605 2.067 1.605z" fill-rule="nonzero"/><path d="m180.277 19.533 2.602-1.919c1.144-.83 1.586-1.771 1.623-2.472 0-1.033-.941-1.808-2.048-1.808-.774 0-1.346.295-1.715.904l.129-5.812h-.591zm1.716-5.461c.591 0 1.033.424 1.033.996 0 .959-1.273 2.804-2.232 3.413-.055-.314-.092-.922-.092-1.826 0-.499.037-1.107.11-1.808.277-.517.665-.775 1.181-.775z" fill-rule="nonzero"/><path d="m214.581 14.611v15.423" fill="none" stroke="#000" stroke-width=".43"/><path d="m216.503 16.249c1.9 0 4.243-1.587 4.243-3.21 0-.978-.867-1.606-2.103-1.606-1.863 0-4.206 1.55-4.206 3.211 0 1.014.904 1.605 2.066 1.605z" fill-rule="nonzero"/><path d="m243.263 12.305v15.423" fill="none" stroke="#000" stroke-width=".43"/><path d="m245.186 13.943c1.9 0 4.243-1.587 4.243-3.211 0-.977-.867-1.605-2.103-1.605-1.864 0-4.207 1.55-4.207 3.21 0 1.015.904 1.606 2.067 1.606z" fill-rule="nonzero"/><path d="m270.072 9.279h9.801" fill="none" stroke="#000" stroke-width=".72"/><path d="m271.946 7.693v15.422" fill="none" stroke="#000" stroke-width=".43"/><path d="m273.868 9.33c1.9 0 4.243-1.586 4.243-3.21 0-.978-.867-1.605-2.103-1.605-1.863 0-4.206 1.55-4.206 3.21 0 1.015.904 1.605 2.066 1.605z" fill-rule="nonzero"/><path d="m265.172 10.308 2.601-1.919c1.144-.83 1.586-1.771 1.623-2.472 0-1.033-.941-1.808-2.047-1.808-.775 0-1.347.295-1.716.904l.129-5.811h-.59zm1.715-5.461c.591 0 1.033.425 1.033.996 0 .96-1.273 2.805-2.232 3.414-.055-.314-.092-.923-.092-1.827 0-.498.037-1.107.111-1.808.276-.517.664-.775 1.18-.775z" fill-rule="nonzero"/><path d="m298.754 9.279h9.802" fill="none" stroke="#000" stroke-width=".72"/><path d="m298.754 4.666h9.802" fill="none" stroke="#000" stroke-width=".72"/><path d="m300.628 5.387v17.728" fill="none" stroke="#000" stroke-width=".43"/><path d="m302.55 7.024c1.901 0 4.244-1.586 4.244-3.21 0-.978-.867-1.605-2.104-1.605-1.863 0-4.206 1.55-4.206 3.21 0 1.015.904 1.605 2.066 1.605z" fill-rule="nonzero"/></svg>