<svg clip-rule="evenodd" fill-rule="evenodd" stroke-linejoin="round" stroke-miterlimit="2" viewBox="0 0 473 44" xmlns="http://www.w3.org/2000/svg"><path d="m188.215 14.818v18.449" fill="none" stroke="#000" stroke-width=".72"/><path d="m348.491 14.818v18.449" fill="none" stroke="#000" stroke-width=".72"/><path d="m468.121 14.818v18.449" fill="none" stroke="#000" stroke-width=".72"/><path d="m471.292 14.818v18.449" fill="none" stroke="#000" stroke-width="2.31"/><path d="m28.022 21.418v-.781h-1.172v-4.184l-2.324 2.064v2.12h-2.51c.279-.707 1.041-1.674 2.287-2.919 1.134-1.135 1.785-2.139 1.971-2.975h-3.18c-.148 1.822-1.227 4.481-2.361 5.931v.744h3.793c0 .65-.019 1.022-.056 1.115-.111.205-.465.335-1.041.372l-.037.521h4.574l-.075-.539c-.892-.075-1.059-.168-1.059-.633 0-.055 0-.167.018-.353v-.483z" fill-rule="nonzero"/><path d="m28.022 30.766v-.781h-1.172v-4.183l-2.324 2.063v2.12h-2.51c.279-.706 1.041-1.673 2.287-2.919 1.134-1.134 1.785-2.138 1.971-2.975h-3.18c-.148 1.822-1.227 4.481-2.361 5.931v.744h3.793c0 .651-.019 1.023-.056 1.116-.111.204-.465.334-1.041.371l-.037.521h4.574l-.075-.539c-.892-.075-1.059-.167-1.059-.632 0-.056 0-.168.018-.354v-.483z" fill-rule="nonzero"/><g fill="none"><path d="m.122 33.267h472.323" stroke="#000" stroke-width=".43"/><path d="m.122 28.654h472.323" stroke="#000" stroke-width=".43"/><path d="m.122 24.042h472.323" stroke="#000" stroke-width=".43"/><path d="m.122 19.43h472.323" stroke="#000" stroke-width=".43"/><path d="m.122 14.818h472.323" stroke="#000" stroke-width=".43"/></g><path d="m13.23 32.654.701 3.413c.037.203.055.388.055.572 0 1.808-1.844 3.321-3.837 3.321-.609 0-1.199-.147-1.753-.424 1.421-.148 2.491-1.015 2.491-2.288 0-1.125-.922-2.306-2.103-2.306-1.347 0-2.269 1.033-2.269 2.38 0 1.882 1.531 3.118 3.376 3.118 2.472 0 4.575-1.605 4.575-3.911 0-.517-.812-4.17-.793-4.041 1.974-.959 3.321-2.656 3.321-4.446 0-2.454-1.974-4.335-4.428-4.335-.037 0-.295.018-.738.055l-.812-3.893c2.749-2.324 4.004-4.797 4.004-7.509 0-2.084-.831-4.298-2.509-6.623-1.901 1.531-2.989 4.594-2.989 7.859 0 1.163.147 2.288.406 3.358-4.207 3.524-6.31 6.771-6.31 9.741 0 3.487 3.598 6.384 7.509 6.384.867 0 1.513-.13 2.103-.425zm-.055-24.242c.609.628.922 1.366.922 2.233 0 1.789-1.273 3.8-3.763 6.014-.13-.535-.166-1.125-.166-1.771 0-3.1 1.143-6.513 2.675-6.513.129 0 .239.019.332.037zm.387 23.486-1.31-6.162c.259-.019.406-.037.462-.037 1.586 0 2.693 1.494 2.693 3.026 0 1.217-.646 2.287-1.845 3.173zm-1.771-6.088 1.328 6.346c-.645.351-1.365.498-2.232.498-2.989 0-5.572-2.232-5.572-4.944 0-2.454 1.827-4.981 5.277-7.564l.775 3.69c-1.919.406-3.542 2.029-3.542 3.856 0 1.549 1.106 2.638 2.767 2.896-1.015-.627-1.513-1.421-1.513-2.361 0-1.273 1.181-2.214 2.712-2.417z" fill-rule="nonzero"/><path d="m35.435 43.644 57.509-4.612v-2.306l-57.509 4.612z"/><path d="m112.113 39.032 57.365-2.306v-2.306l-57.365 2.306z"/><path d="m195.566 39.032 57.509-4.612v-2.306l-57.509 4.612z"/><path d="m272.245 35.573 57.509-4.612v-2.307l-57.509 4.613z"/><path d="m35.435 31.681v11.819" fill="none"/><path d="m35.435 31.681v11.819" fill="none" stroke="#000" stroke-width=".43"/><path d="m37.357 33.318c1.9 0 4.243-1.586 4.243-3.21 0-.977-.867-1.605-2.103-1.605-1.864 0-4.207 1.55-4.207 3.21 0 1.015.904 1.605 2.067 1.605z" fill-rule="nonzero"/><path d="m54.604 17.845v24.214" fill="none"/><path d="m54.604 17.845v24.214" fill="none" stroke="#000" stroke-width=".43"/><path d="m56.526 19.482c1.901 0 4.244-1.587 4.244-3.21 0-.978-.867-1.605-2.104-1.605-1.863 0-4.206 1.549-4.206 3.21 0 1.014.904 1.605 2.066 1.605z" fill-rule="nonzero"/><path d="m48.983 20.46 2.601-1.919c1.144-.83 1.587-1.771 1.624-2.472 0-1.033-.941-1.808-2.048-1.808-.775 0-1.347.295-1.716.904l.129-5.812h-.59zm1.716-5.461c.59 0 1.033.424 1.033.996 0 .959-1.273 2.804-2.232 3.413-.056-.314-.093-.923-.093-1.827 0-.498.037-1.106.111-1.808.277-.516.664-.774 1.181-.774z" fill-rule="nonzero"/><path d="m73.774 22.457v18.016" fill="none"/><path d="m73.774 22.457v18.016" fill="none" stroke="#000" stroke-width=".43"/><path d="m75.696 24.094c1.9 0 4.243-1.587 4.243-3.21 0-.978-.867-1.605-2.103-1.605-1.863 0-4.206 1.549-4.206 3.21 0 1.015.904 1.605 2.066 1.605z" fill-rule="nonzero"/><path d="m92.944 24.763v14.125" fill="none"/><path d="m92.944 24.763v14.125" fill="none" stroke="#000" stroke-width=".43"/><path d="m94.866 26.4c1.9 0 4.243-1.587 4.243-3.21 0-.978-.867-1.605-2.103-1.605-1.864 0-4.207 1.55-4.207 3.21 0 1.015.904 1.605 2.067 1.605z" fill-rule="nonzero"/><path d="m87.322 27.378 2.602-1.919c1.143-.83 1.586-1.771 1.623-2.472 0-1.033-.941-1.808-2.048-1.808-.775 0-1.346.295-1.715.904l.129-5.811h-.591zm1.716-5.461c.59 0 1.033.424 1.033.996 0 .96-1.273 2.804-2.232 3.413-.055-.313-.092-.922-.092-1.826 0-.498.037-1.107.11-1.808.277-.517.665-.775 1.181-.775z" fill-rule="nonzero"/><path d="m112.113 27.069v11.819" fill="none"/><path d="m112.113 27.069v11.819" fill="none" stroke="#000" stroke-width=".43"/><path d="m114.035 28.706c1.901 0 4.244-1.586 4.244-3.21 0-.978-.868-1.605-2.104-1.605-1.863 0-4.206 1.55-4.206 3.21 0 1.015.904 1.605 2.066 1.605z" fill-rule="nonzero"/><path d="m106.492 29.684 2.601-1.919c1.144-.83 1.587-1.771 1.624-2.472 0-1.033-.941-1.808-2.048-1.808-.775 0-1.347.295-1.716.904l.129-5.811h-.59zm1.716-5.461c.59 0 1.033.424 1.033.996 0 .96-1.273 2.805-2.232 3.413-.056-.313-.093-.922-.093-1.826 0-.498.037-1.107.111-1.808.277-.517.664-.775 1.181-.775z" fill-rule="nonzero"/><path d="m131.283 15.538v22.629" fill="none"/><path d="m131.283 15.538v22.629" fill="none" stroke="#000" stroke-width=".43"/><path d="m133.205 17.176c1.9 0 4.243-1.587 4.243-3.211 0-.977-.867-1.605-2.103-1.605-1.863 0-4.206 1.55-4.206 3.211 0 1.014.904 1.605 2.066 1.605z" fill-rule="nonzero"/><path d="m150.308 17.845v19.602" fill="none"/><path d="m150.308 17.845v19.602" fill="none" stroke="#000" stroke-width=".43"/><path d="m152.23 19.482c1.901 0 4.244-1.587 4.244-3.21 0-.978-.867-1.605-2.103-1.605-1.864 0-4.207 1.549-4.207 3.21 0 1.014.904 1.605 2.066 1.605z" fill-rule="nonzero"/><path d="m169.478 22.457v14.125" fill="none"/><path d="m169.478 22.457v14.125" fill="none" stroke="#000" stroke-width=".43"/><path d="m171.4 24.094c1.9 0 4.243-1.587 4.243-3.21 0-.978-.867-1.605-2.103-1.605-1.863 0-4.206 1.549-4.206 3.21 0 1.015.904 1.605 2.066 1.605z" fill-rule="nonzero"/><path d="m195.566 24.763v14.125" fill="none"/><path d="m195.566 24.763v14.125" fill="none" stroke="#000" stroke-width=".43"/><path d="m197.488 26.4c1.9 0 4.243-1.587 4.243-3.21 0-.978-.867-1.605-2.103-1.605-1.863 0-4.206 1.55-4.206 3.21 0 1.015.904 1.605 2.066 1.605z" fill-rule="nonzero"/><path d="m189.945 27.378 2.601-1.919c1.144-.83 1.587-1.771 1.624-2.472 0-1.033-.941-1.808-2.048-1.808-.775 0-1.347.295-1.716.904l.129-5.811h-.59zm1.716-5.461c.59 0 1.033.424 1.033.996 0 .96-1.273 2.804-2.233 3.413-.055-.313-.092-.922-.092-1.826 0-.498.037-1.107.111-1.808.277-.517.664-.775 1.181-.775z" fill-rule="nonzero"/><path d="m212.862 10.206h9.801" fill="none"/><path d="m212.862 10.206h9.801" fill="none" stroke="#000" stroke-width=".72"/><path d="m214.736 10.926v26.521" fill="none"/><path d="m214.736 10.926v26.521" fill="none" stroke="#000" stroke-width=".43"/><path d="m216.658 12.563c1.9 0 4.243-1.586 4.243-3.21 0-.978-.867-1.605-2.103-1.605-1.864 0-4.207 1.55-4.207 3.21 0 1.015.904 1.605 2.067 1.605z" fill-rule="nonzero"/><path d="m207.961 13.541 2.602-1.919c1.144-.83 1.586-1.771 1.623-2.472 0-1.033-.941-1.808-2.048-1.808-.774 0-1.346.295-1.715.904l.129-5.811h-.591zm1.716-5.461c.591 0 1.033.425 1.033.997 0 .959-1.273 2.804-2.232 3.413-.055-.314-.092-.923-.092-1.827 0-.498.037-1.107.11-1.808.277-.516.665-.775 1.181-.775z" fill-rule="nonzero"/><path d="m233.905 15.538v20.323" fill="none"/><path d="m233.905 15.538v20.323" fill="none" stroke="#000" stroke-width=".43"/><path d="m235.827 17.176c1.901 0 4.244-1.587 4.244-3.211 0-.977-.867-1.605-2.103-1.605-1.864 0-4.207 1.55-4.207 3.211 0 1.014.904 1.605 2.066 1.605z" fill-rule="nonzero"/><path d="m253.075 17.845v16.431" fill="none"/><path d="m253.075 17.845v16.431" fill="none" stroke="#000" stroke-width=".43"/><path d="m254.997 19.482c1.9 0 4.243-1.587 4.243-3.21 0-.978-.867-1.605-2.103-1.605-1.863 0-4.206 1.549-4.206 3.21 0 1.014.904 1.605 2.066 1.605z" fill-rule="nonzero"/><path d="m247.454 20.46 2.601-1.919c1.144-.83 1.587-1.771 1.624-2.472 0-1.033-.941-1.808-2.048-1.808-.775 0-1.347.295-1.716.904l.129-5.812h-.59zm1.715-5.461c.591 0 1.034.424 1.034.996 0 .959-1.273 2.804-2.233 3.413-.055-.314-.092-.923-.092-1.827 0-.498.037-1.106.111-1.808.276-.516.664-.774 1.18-.774z" fill-rule="nonzero"/><path d="m272.245 22.457v12.972" fill="none"/><path d="m272.245 22.457v12.972" fill="none" stroke="#000" stroke-width=".43"/><path d="m274.167 24.094c1.9 0 4.243-1.587 4.243-3.21 0-.978-.867-1.605-2.103-1.605-1.864 0-4.207 1.549-4.207 3.21 0 1.015.904 1.605 2.067 1.605z" fill-rule="nonzero"/><path d="m289.54 10.206h9.802" fill="none"/><path d="m289.54 10.206h9.802" fill="none" stroke="#000" stroke-width=".72"/><path d="m291.414 8.62v25.367" fill="none"/><path d="m291.414 8.62v25.367" fill="none" stroke="#000" stroke-width=".43"/><path d="m293.336 10.257c1.901 0 4.244-1.586 4.244-3.21 0-.978-.867-1.605-2.104-1.605-1.863 0-4.206 1.55-4.206 3.21 0 1.015.904 1.605 2.066 1.605z" fill-rule="nonzero"/><path d="m284.64 11.235 2.601-1.919c1.144-.83 1.587-1.771 1.624-2.472 0-1.033-.941-1.808-2.048-1.808-.775 0-1.347.295-1.716.904l.129-5.811h-.59zm1.716-5.461c.59 0 1.033.424 1.033.996 0 .96-1.273 2.805-2.232 3.413-.056-.313-.093-.922-.093-1.826 0-.498.037-1.107.111-1.808.277-.517.664-.775 1.181-.775z" fill-rule="nonzero"/><path d="m308.71 10.206h9.801" fill="none"/><path d="m308.71 10.206h9.801" fill="none" stroke="#000" stroke-width=".72"/><path d="m310.584 10.926v21.476" fill="none"/><path d="m310.584 10.926v21.476" fill="none" stroke="#000" stroke-width=".43"/><path d="m312.506 12.563c1.9 0 4.243-1.586 4.243-3.21 0-.978-.867-1.605-2.103-1.605-1.863 0-4.206 1.55-4.206 3.21 0 1.015.904 1.605 2.066 1.605z" fill-rule="nonzero"/><path d="m329.753 15.538v15.278" fill="none"/><path d="m329.753 15.538v15.278" fill="none" stroke="#000" stroke-width=".43"/><path d="m331.676 17.176c1.9 0 4.243-1.587 4.243-3.211 0-.977-.867-1.605-2.103-1.605-1.864 0-4.207 1.55-4.207 3.211 0 1.014.904 1.605 2.067 1.605z" fill-rule="nonzero"/><path d="m355.842 17.845v15.422" fill="none"/><path d="m355.842 17.845v15.422" fill="none" stroke="#000" stroke-width=".43"/><path d="m357.764 19.482c1.9 0 4.243-1.587 4.243-3.21 0-.978-.867-1.605-2.103-1.605-1.864 0-4.207 1.549-4.207 3.21 0 1.014.904 1.605 2.067 1.605z" fill-rule="nonzero"/><path d="m350.22 20.46 2.602-1.919c1.143-.83 1.586-1.771 1.623-2.472 0-1.033-.941-1.808-2.048-1.808-.775 0-1.346.295-1.715.904l.129-5.812h-.591zm1.716-5.461c.59 0 1.033.424 1.033.996 0 .959-1.273 2.804-2.232 3.413-.055-.314-.092-.923-.092-1.827 0-.498.037-1.106.11-1.808.277-.516.665-.774 1.181-.774z" fill-rule="nonzero"/><path d="m355.882 33.208c.166 0 .258 0 .24-.019-.019-.037-.019-.092-.019-.147 0-.056 0-.111.019-.166.572-1.439 1.217-2.731 2.029-3.727.664-.812 1.421-1.55 2.103-2.361.72-.849 1.052-1.845 1.052-2.786 0-.498-.055-.978-.185-1.476-.239-.941-.977-2.749-1.42-2.749-.056 0-.074.055-.074.166 0 .092.037.221.111.35.645 1.2.959 2.214.959 3.008 0 1.125-.424 2.158-1.218 3.044-.166.166-.701.609-1.605 1.328-1.143.923-1.217.941-1.992.941z" fill-rule="nonzero"/></svg>