<svg clip-rule="evenodd" fill-rule="evenodd" stroke-linejoin="round" stroke-miterlimit="2" viewBox="0 0 289 47" xmlns="http://www.w3.org/2000/svg"><path d="m172.335 8.909v18.449" fill="none" stroke="#000" stroke-width=".72"/><path d="m287.786 8.909v18.449" fill="none" stroke="#000" stroke-width=".72"/><g fill-rule="nonzero"><path d="m47.552 39.999h1.451v-.533h-1.451v-.854h-.363c-.33.416-.725.886-1.333 1.099v.288h.8v3.445c0 .651.299.939 1.003.939.448 0 .928-.107 1.397-.182v-.522c-.192.032-.544.053-.757.053-.63 0-.747-.149-.747-.64z"/><path d="m53.141 45.833c-1.451-.885-2.261-2.346-2.261-4.288 0-1.941.81-3.402 2.261-4.287l-.331-.406c-1.717 1.014-2.602 2.656-2.602 4.693 0 2.038.885 3.68 2.602 4.693z"/><path d="m53.759 41.833c0 1.387 1.119 2.55 2.463 2.55 1.366 0 2.4-1.11 2.4-2.56 0-1.451-1.024-2.475-2.485-2.475-1.323 0-2.378 1.099-2.378 2.485zm1.013-.405c0-1.237.522-1.685 1.322-1.685 1.206 0 1.568 1.813 1.568 2.73 0 .928-.512 1.515-1.344 1.515-1.098 0-1.546-1.611-1.546-2.56z"/><path d="m60.945 40.692c.459-.384.907-.629 1.397-.629.694 0 1.003.501 1.003 1.173v1.771c0 .576-.245.874-.864.874v.384h2.517v-.384c-.608-.064-.757-.32-.757-.853v-2.027c0-1.151-.576-1.653-1.568-1.653-.587 0-1.269.331-1.706.907h-.022v-.907h-.266l-1.344.502v.245l.714.405v2.571c0 .533-.256.789-.789.81v.384h2.549v-.384c-.629 0-.864-.288-.864-.874z"/><path d="m66.277 43.103c0 .533-.363.778-.768.778v.384h2.325v-.384c-.384-.01-.662-.266-.662-.853v-3.68h-.266l-1.44.523v.245l.811.406zm-.171-5.675c0 .32.256.576.576.576s.576-.256.576-.576-.256-.576-.576-.576-.576.256-.576.576z"/><path d="m72.526 42.857c-.299.47-.704.683-1.376.683-1.12 0-1.739-1.067-1.739-2.005 0-1.035.587-1.728 1.472-1.728 1.227 0 .768 1.013 1.461 1.013.246 0 .406-.192.406-.512 0-.704-.811-.96-1.686-.96-1.813 0-2.517 1.419-2.517 2.56 0 1.131.683 2.475 2.272 2.475.981 0 1.728-.523 1.952-1.366z"/><path d="m76.333 41.375-1.141.394c-1.184.406-1.632.811-1.632 1.472 0 .662.501 1.142 1.194 1.142.523 0 .96-.214 1.579-.768.053.49.32.768.725.768.288 0 .555-.15.864-.502l-.096-.384c-.362.235-.597.118-.597-.277v-2.73c0-.811-.544-1.142-1.557-1.142-1.398 0-1.963.747-1.963 1.248 0 .235.288.768.352.736l.629-.299c.278-.128-.16-.49-.16-.725 0-.245.406-.501.822-.501.352 0 .981.213.981.843zm0 .405v1.333c-.363.384-.693.555-1.077.555-.534 0-.747-.363-.747-.693 0-.448.395-.662 1.259-.982z"/><path d="m78.348 37.258c1.45.885 2.261 2.346 2.261 4.287 0 1.942-.811 3.403-2.261 4.288l.33.405c1.717-1.013 2.603-2.655 2.603-4.693 0-2.037-.886-3.679-2.603-4.693z"/><path d="m274.129 37.116h1.45v-.533h-1.45v-.853h-.363c-.331.416-.725.885-1.333 1.098v.288h.8v3.445c0 .651.298.939 1.002.939.448 0 .928-.107 1.397-.181v-.523c-.192.032-.543.053-.757.053-.629 0-.746-.149-.746-.64z"/><path d="m27.996 15.617v-.781h-1.171v-4.184l-2.324 2.064v2.12h-2.51c.279-.707 1.041-1.674 2.287-2.919 1.134-1.135 1.785-2.139 1.971-2.975h-3.18c-.149 1.822-1.227 4.481-2.361 5.931v.744h3.793c0 .65-.019 1.022-.056 1.115-.111.205-.465.335-1.041.372l-.037.521h4.574l-.075-.54c-.892-.074-1.06-.167-1.06-.632 0-.055 0-.167.019-.353v-.483z"/><path d="m27.996 24.965v-.781h-1.171v-4.183l-2.324 2.063v2.12h-2.51c.279-.706 1.041-1.673 2.287-2.919 1.134-1.134 1.785-2.138 1.971-2.975h-3.18c-.149 1.822-1.227 4.481-2.361 5.931v.744h3.793c0 .651-.019 1.023-.056 1.116-.111.204-.465.334-1.041.371l-.037.521h4.574l-.075-.539c-.892-.075-1.06-.168-1.06-.632 0-.056 0-.168.019-.354v-.483z"/></g><path d="m.097 27.358h287.977" fill="none" stroke="#000" stroke-width=".43"/><path d="m.097 22.746h287.977" fill="none" stroke="#000" stroke-width=".43"/><path d="m.097 18.134h287.977" fill="none" stroke="#000" stroke-width=".43"/><path d="m.097 13.521h287.977" fill="none" stroke="#000" stroke-width=".43"/><path d="m.097 8.909h287.977" fill="none" stroke="#000" stroke-width=".43"/><path d="m13.205 26.746.701 3.413c.037.203.055.387.055.572 0 1.808-1.845 3.32-3.837 3.32-.609 0-1.199-.147-1.753-.424 1.421-.147 2.491-1.015 2.491-2.288 0-1.125-.923-2.306-2.103-2.306-1.347 0-2.27 1.033-2.27 2.38 0 1.882 1.532 3.118 3.377 3.118 2.472 0 4.575-1.605 4.575-3.911 0-.517-.812-4.17-.793-4.04 1.974-.96 3.321-2.657 3.321-4.447 0-2.453-1.975-4.335-4.428-4.335-.037 0-.295.018-.738.055l-.812-3.893c2.749-2.324 4.003-4.796 4.003-7.508 0-2.085-.83-4.299-2.509-6.623-1.9 1.531-2.988 4.593-2.988 7.859 0 1.162.147 2.288.406 3.358-4.207 3.523-6.31 6.77-6.31 9.741 0 3.486 3.598 6.383 7.509 6.383.867 0 1.513-.129 2.103-.424zm-.055-24.242c.608.627.922 1.365.922 2.232 0 1.79-1.273 3.8-3.764 6.014-.129-.535-.166-1.125-.166-1.771 0-3.099 1.144-6.512 2.675-6.512.13 0 .24.018.333.037zm.387 23.485-1.31-6.162c.258-.018.406-.037.461-.037 1.587 0 2.694 1.495 2.694 3.026 0 1.218-.646 2.288-1.845 3.173zm-1.771-6.088 1.328 6.347c-.645.35-1.365.498-2.232.498-2.989 0-5.572-2.233-5.572-4.945 0-2.453 1.827-4.981 5.277-7.564l.775 3.69c-1.919.406-3.543 2.029-3.543 3.856 0 1.55 1.107 2.638 2.768 2.896-1.015-.627-1.513-1.42-1.513-2.361 0-1.273 1.181-2.214 2.712-2.417z" fill-rule="nonzero"/><path d="m50.688 8.909h52.031v2.306h-52.031z"/><path d="m259.536 14.674 17.44-1.153v-2.306l-17.44 1.153z"/><path d="m50.687 24.331v-15.278" fill="none"/><path d="m50.687 24.331v-15.278" fill="none" stroke="#000" stroke-width=".43"/><path d="m46.556 27.41c1.9 0 4.243-1.587 4.243-3.21 0-.978-.867-1.605-2.103-1.605-1.863 0-4.206 1.549-4.206 3.21 0 1.014.904 1.605 2.066 1.605z" fill-rule="nonzero"/><path d="m67.983 24.331v-15.278" fill="none"/><path d="m67.983 24.331v-15.278" fill="none" stroke="#000" stroke-width=".43"/><path d="m63.852 27.41c1.9 0 4.243-1.587 4.243-3.21 0-.978-.867-1.605-2.103-1.605-1.863 0-4.206 1.549-4.206 3.21 0 1.014.904 1.605 2.066 1.605z" fill-rule="nonzero"/><path d="m85.423 26.637v-17.584" fill="none"/><path d="m85.423 26.637v-17.584" fill="none" stroke="#000" stroke-width=".43"/><path d="m81.292 29.716c1.9 0 4.243-1.587 4.243-3.21 0-.978-.867-1.605-2.103-1.605-1.863 0-4.206 1.549-4.206 3.21 0 1.015.904 1.605 2.066 1.605z" fill-rule="nonzero"/><path d="m73.749 30.694 2.601-1.919c1.144-.83 1.587-1.771 1.624-2.472 0-1.033-.941-1.808-2.048-1.808-.775 0-1.347.295-1.716.904l.129-5.812h-.59zm1.715-5.461c.591 0 1.034.424 1.034.996 0 .959-1.273 2.804-2.233 3.413-.055-.313-.092-.922-.092-1.826 0-.498.037-1.107.111-1.808.276-.517.664-.775 1.18-.775z" fill-rule="nonzero"/><path d="m102.719 24.331v-15.278" fill="none"/><path d="m102.719 24.331v-15.278" fill="none" stroke="#000" stroke-width=".43"/><path d="m98.588 27.41c1.9 0 4.243-1.587 4.243-3.21 0-.978-.867-1.605-2.103-1.605-1.863 0-4.206 1.549-4.206 3.21 0 1.014.904 1.605 2.066 1.605z" fill-rule="nonzero"/><path d="m118.814 21.764c-.757-1.217-2.306-2.564-2.306-3.542 0-.646.572-1.66 1.734-3.062l-3.284-4.502c-.203.037-.314.111-.314.24 0-.018 1.347 1.605 1.347 2.583 0 .959-.627 2.011-1.9 3.173 1.439 1.771 2.251 2.62 2.823 3.505-.388-.203-.757-.313-1.107-.313-1.126 0-1.845 1.07-1.845 2.158 0 1.329 2.214 2.934 2.638 2.934.074 0 .129-.037.148-.111-.775-.756-1.163-1.458-1.163-2.103 0-.849.72-1.329 1.661-1.329.498 0 1.033.13 1.568.369z" fill-rule="nonzero"/><path d="m142.777 15.067c-.941.831-1.827 1.237-2.62 1.237-.111 0-.185-.019-.24-.056.203-.369.295-.682.295-.959 0-.609-.35-.904-1.051-.904-.609 0-1.273.406-1.273.941 0 .904.572 1.346 1.716 1.346.627 0 1.42-.166 2.379-.479l-2.951 6.494h.774z" fill-rule="nonzero"/><path d="m161.526 24.331v-15.422" fill="none"/><path d="m161.526 24.331v-15.422" fill="none" stroke="#000" stroke-width=".43"/><path d="m157.394 27.41c1.9 0 4.243-1.587 4.243-3.21 0-.978-.867-1.605-2.103-1.605-1.863 0-4.206 1.549-4.206 3.21 0 1.014.904 1.605 2.066 1.605z" fill-rule="nonzero"/><path d="m161.566 13.481c.922 0 1.236.35 1.771.738 1.494 1.051 2.251 2.214 2.251 3.505v.092c-.037 1.661-.056 1.79-.535 2.86-.074.166-.111.277-.111.35 0 .093.055.148.148.148.184 0 1.125-1.291 1.125-3.653v-.092c0-.793-.221-1.55-.664-2.251-.129-.221-.701-.978-1.716-2.251-.793-1.014-1.476-2.269-2.029-3.726-.019-.056-.019-.111-.019-.166 0-.056 0-.111.019-.148.018-.018-.074-.018-.24-.018z" fill-rule="nonzero"/><path d="m184.431 15.067c-.941.831-1.826 1.237-2.62 1.237-.11 0-.184-.019-.24-.056.203-.369.296-.682.296-.959 0-.609-.351-.904-1.052-.904-.609 0-1.273.406-1.273.941 0 .904.572 1.346 1.716 1.346.627 0 1.42-.166 2.38-.479l-2.952 6.494h.775z" fill-rule="nonzero"/><path d="m203.18 24.331v-15.422" fill="none"/><path d="m203.18 24.331v-15.422" fill="none" stroke="#000" stroke-width=".43"/><path d="m199.048 27.41c1.901 0 4.244-1.587 4.244-3.21 0-.978-.867-1.605-2.103-1.605-1.864 0-4.207 1.549-4.207 3.21 0 1.014.904 1.605 2.066 1.605z" fill-rule="nonzero"/><path d="m206.351 24.189c-.443 0-.849.387-.849.885 0 .425.424.831.849.831.498 0 .885-.406.885-.831 0-.498-.387-.885-.885-.885z" fill-rule="nonzero"/><path d="m235.466 24.331v-15.422" fill="none"/><path d="m235.466 24.331v-15.422" fill="none" stroke="#000" stroke-width=".43"/><path d="m231.334 27.41c1.9 0 4.243-1.587 4.243-3.21 0-.978-.867-1.605-2.103-1.605-1.863 0-4.206 1.549-4.206 3.21 0 1.014.904 1.605 2.066 1.605z" fill-rule="nonzero"/><path d="m259.536 26.637v-14.125" fill="none"/><path d="m259.536 26.637v-14.125" fill="none" stroke="#000" stroke-width=".43"/><path d="m255.404 29.716c1.901 0 4.244-1.587 4.244-3.21 0-.978-.868-1.605-2.104-1.605-1.863 0-4.206 1.549-4.206 3.21 0 1.015.904 1.605 2.066 1.605z" fill-rule="nonzero"/><path d="m247.861 30.694 2.601-1.919c1.144-.83 1.587-1.771 1.624-2.472 0-1.033-.941-1.808-2.048-1.808-.775 0-1.347.295-1.716.904l.129-5.812h-.59zm1.716-5.461c.59 0 1.033.424 1.033.996 0 .959-1.273 2.804-2.232 3.413-.056-.313-.093-.922-.093-1.826 0-.498.037-1.107.111-1.808.277-.517.664-.775 1.181-.775z" fill-rule="nonzero"/><path d="m276.976 24.331v-12.972" fill="none"/><path d="m276.976 24.331v-12.972" fill="none" stroke="#000" stroke-width=".43"/><path d="m272.844 27.41c1.901 0 4.244-1.587 4.244-3.21 0-.978-.867-1.605-2.104-1.605-1.863 0-4.206 1.549-4.206 3.21 0 1.014.904 1.605 2.066 1.605z" fill-rule="nonzero"/></svg>