<svg clip-rule="evenodd" fill-rule="evenodd" stroke-linejoin="round" stroke-miterlimit="2" viewBox="0 0 473 110" xmlns="http://www.w3.org/2000/svg"><path d="m57.199 7.998v18.449" fill="none" stroke="#000" stroke-width=".72"/><path d="m59.649 7.998v18.449" fill="none" stroke="#000" stroke-width=".72"/><path d="m150.02 7.998v18.449" fill="none" stroke="#000" stroke-width=".72"/><path d="m267.632 7.998v18.449" fill="none" stroke="#000" stroke-width=".72"/><path d="m365.354 7.998v18.449" fill="none" stroke="#000" stroke-width=".72"/><path d="m472.157 7.998v18.449" fill="none" stroke="#000" stroke-width=".72"/><path d="m88.043 6.845c3.171-3.459 12.972-3.459 16.287 0" fill="none" stroke="#000" stroke-width=".29"/><path d="m88.043 6.845c3.171-4.18 12.972-4.18 16.287 0-3.315-2.738-13.116-2.738-16.287 0z"/><path d="m88.043 6.845c3.171-4.18 12.972-4.18 16.287 0-3.315-2.738-13.116-2.738-16.287 0z" fill="none" stroke="#000" stroke-width=".14"/><path d="m105.483 6.845c7.063-6.63 47.276-6.63 54.338 0" fill="none" stroke="#000" stroke-width=".29"/><path d="m105.483 6.845c7.063-7.351 47.276-7.351 54.338 0-7.062-5.909-47.275-5.909-54.338 0z"/><path d="m105.483 6.845c7.063-7.351 47.276-7.351 54.338 0-7.062-5.909-47.275-5.909-54.338 0z" fill="none" stroke="#000" stroke-width=".14"/><path d="m311.016 27.6c3.171 3.459 12.972 3.459 16.287 0" fill="none" stroke="#000" stroke-width=".29"/><path d="m311.016 27.6c3.171 2.739 12.972 2.739 16.287 0-3.315 4.18-13.116 4.18-16.287 0z"/><g fill="none"><path d="m311.016 27.6c3.171 2.739 12.972 2.739 16.287 0-3.315 4.18-13.116 4.18-16.287 0z" stroke="#000" stroke-width=".14"/><path d="m148.002 81.073v18.449"/><path d="m148.002 81.073v18.449" stroke="#000" stroke-width=".72"/><path d="m276.569 81.073v18.449"/><path d="m276.569 81.073v18.449" stroke="#000" stroke-width=".72"/><path d="m393.316 81.073v18.449"/><path d="m393.316 81.073v18.449" stroke="#000" stroke-width=".72"/><path d="m469.706 81.073v18.449"/><path d="m469.706 81.073v18.449" stroke="#000" stroke-width=".72"/><path d="m472.157 81.073v18.449"/><path d="m472.157 81.073v18.449" stroke="#000" stroke-width=".72"/><path d="m87.899 79.92c3.603-3.747 14.413-3.747 18.016 0" stroke="#000" stroke-width=".29"/></g><path d="m87.899 79.92c3.603-4.468 14.413-4.468 18.016 0-3.603-3.026-14.413-3.026-18.016 0z"/><path d="m87.899 79.92c3.603-4.468 14.413-4.468 18.016 0-3.603-3.026-14.413-3.026-18.016 0z" fill="none" stroke="#000" stroke-width=".14"/><path d="m107.069 79.92c7.35-6.486 43.383-6.486 50.734 0" fill="none" stroke="#000" stroke-width=".29"/><path d="m107.069 79.92c7.35-7.206 43.383-7.206 50.734 0-7.351-5.765-43.384-5.765-50.734 0z"/><path d="m107.069 79.92c7.35-7.206 43.383-7.206 50.734 0-7.351-5.765-43.384-5.765-50.734 0z" fill="none" stroke="#000" stroke-width=".14"/><path d="m333.213 102.982c3.603 3.747 14.413 3.747 18.016 0" fill="none" stroke="#000" stroke-width=".29"/><path d="m333.213 102.982c3.603 3.026 14.413 3.026 18.016 0-3.603 4.468-14.413 4.468-18.016 0z"/><path d="m333.213 102.982c3.603 3.026 14.413 3.026 18.016 0-3.603 4.468-14.413 4.468-18.016 0z" fill="none" stroke="#000" stroke-width=".14"/><path d="m29.751 14.679v-.781h-1.171v-4.184l-2.324 2.064v2.12h-2.51c.278-.707 1.041-1.673 2.287-2.919 1.134-1.134 1.784-2.138 1.97-2.975h-3.179c-.149 1.822-1.227 4.481-2.361 5.931v.744h3.793c0 .651-.019 1.022-.056 1.115-.112.205-.465.335-1.041.372l-.038.521h4.574l-.074-.539c-.892-.075-1.06-.168-1.06-.633 0-.055 0-.167.019-.353v-.483z" fill-rule="nonzero"/><path d="m29.751 24.027v-.781h-1.171v-4.183l-2.324 2.064v2.119h-2.51c.278-.706 1.041-1.673 2.287-2.919 1.134-1.134 1.784-2.138 1.97-2.975h-3.179c-.149 1.822-1.227 4.481-2.361 5.931v.744h3.793c0 .651-.019 1.023-.056 1.116-.112.204-.465.334-1.041.372l-.038.52h4.574l-.074-.539c-.892-.074-1.06-.167-1.06-.632 0-.056 0-.167.019-.353v-.484z" fill-rule="nonzero"/><path d="m1.852 26.447h470.593" fill="none"/><path d="m1.852 26.447h470.593" fill="none" stroke="#000" stroke-width=".43"/><path d="m1.852 21.835h470.593" fill="none"/><path d="m1.852 21.835h470.593" fill="none" stroke="#000" stroke-width=".43"/><path d="m1.852 17.223h470.593" fill="none"/><path d="m1.852 17.223h470.593" fill="none" stroke="#000" stroke-width=".43"/><path d="m1.852 12.61h470.593" fill="none"/><path d="m1.852 12.61h470.593" fill="none" stroke="#000" stroke-width=".43"/><path d="m1.852 7.998h470.593" fill="none"/><path d="m1.852 7.998h470.593" fill="none" stroke="#000" stroke-width=".43"/><path d="m14.96 25.835.701 3.413c.037.203.055.387.055.572 0 1.808-1.845 3.32-3.837 3.32-.609 0-1.199-.147-1.753-.424 1.421-.147 2.491-1.015 2.491-2.288 0-1.125-.923-2.306-2.104-2.306-1.346 0-2.269 1.033-2.269 2.38 0 1.882 1.532 3.118 3.376 3.118 2.473 0 4.576-1.605 4.576-3.911 0-.517-.812-4.17-.794-4.04 1.975-.96 3.321-2.657 3.321-4.447 0-2.453-1.974-4.335-4.427-4.335-.037 0-.296.018-.738.055l-.812-3.892c2.749-2.325 4.003-4.797 4.003-7.509 0-2.085-.83-4.299-2.509-6.623-1.9 1.531-2.989 4.593-2.989 7.859 0 1.162.148 2.288.406 3.358-4.206 3.523-6.309 6.77-6.309 9.741 0 3.487 3.597 6.383 7.509 6.383.867 0 1.512-.129 2.103-.424zm-.056-24.242c.609.627.923 1.365.923 2.232 0 1.79-1.273 3.801-3.764 6.014-.129-.535-.166-1.125-.166-1.771 0-3.099 1.144-6.512 2.675-6.512.129 0 .24.018.332.037zm.388 23.485-1.31-6.162c.258-.018.406-.037.461-.037 1.587 0 2.694 1.495 2.694 3.026 0 1.218-.646 2.288-1.845 3.173zm-1.771-6.088 1.328 6.347c-.646.35-1.365.498-2.232.498-2.989 0-5.572-2.233-5.572-4.945 0-2.453 1.827-4.981 5.276-7.564l.775 3.69c-1.918.406-3.542 2.029-3.542 3.856 0 1.55 1.107 2.638 2.767 2.896-1.014-.627-1.512-1.42-1.512-2.361 0-1.273 1.18-2.214 2.712-2.417z" fill-rule="nonzero"/><path d="m67 28.753 17.44-2.306v-2.306l-17.44 2.306z"/><path d="m239.238 4.539 17.44 4.612v-2.306l-17.44-4.612z"/><path d="m.122 99.522h472.323" fill="none"/><path d="m.122 99.522h472.323" fill="none" stroke="#000" stroke-width=".43"/><path d="m.122 94.91h472.323" fill="none"/><path d="m.122 94.91h472.323" fill="none" stroke="#000" stroke-width=".43"/><path d="m.122 90.298h472.323" fill="none"/><path d="m.122 90.298h472.323" fill="none" stroke="#000" stroke-width=".43"/><path d="m.122 85.686h472.323" fill="none"/><path d="m.122 85.686h472.323" fill="none" stroke="#000" stroke-width=".43"/><path d="m.122 81.073h472.323" fill="none"/><path d="m.122 81.073h472.323" fill="none" stroke="#000" stroke-width=".43"/><path d="m13.23 98.91.701 3.413c.037.203.055.387.055.572 0 1.808-1.844 3.321-3.837 3.321-.609 0-1.199-.148-1.753-.425 1.421-.147 2.491-1.014 2.491-2.287 0-1.126-.922-2.306-2.103-2.306-1.347 0-2.269 1.033-2.269 2.38 0 1.881 1.531 3.117 3.376 3.117 2.472 0 4.575-1.605 4.575-3.911 0-.516-.812-4.169-.793-4.04 1.974-.959 3.321-2.657 3.321-4.446 0-2.454-1.974-4.336-4.428-4.336-.037 0-.295.019-.738.056l-.812-3.893c2.749-2.325 4.004-4.797 4.004-7.509 0-2.085-.831-4.299-2.509-6.623-1.901 1.531-2.989 4.594-2.989 7.859 0 1.162.147 2.288.406 3.358-4.207 3.524-6.31 6.771-6.31 9.741 0 3.487 3.598 6.383 7.509 6.383.867 0 1.513-.129 2.103-.424zm-.055-24.242c.609.627.922 1.365.922 2.232 0 1.79-1.273 3.801-3.763 6.015-.13-.535-.166-1.126-.166-1.771 0-3.1 1.143-6.513 2.675-6.513.129 0 .239.019.332.037zm.387 23.486-1.31-6.162c.259-.019.406-.037.462-.037 1.586 0 2.693 1.494 2.693 3.025 0 1.218-.646 2.288-1.845 3.174zm-1.771-6.089 1.328 6.347c-.645.35-1.365.498-2.232.498-2.989 0-5.572-2.232-5.572-4.944 0-2.454 1.827-4.982 5.277-7.564l.775 3.689c-1.919.406-3.542 2.03-3.542 3.856 0 1.55 1.106 2.638 2.767 2.897-1.015-.628-1.513-1.421-1.513-2.362 0-1.273 1.181-2.214 2.712-2.417z" fill-rule="nonzero"/><path d="m26.787 101.829 19.169-2.307v-2.306l-19.169 2.306z"/><path d="m200.322 105.288 57.509 4.612v-2.306l-57.509-4.612z"/><path d="m316.493 85.686 19.17 1.153v-2.306l-19.17-1.153z"/><path d="m427.62 85.645h5.184v2.214h-5.184z" fill-rule="nonzero"/><path d="m43.218 23.42v-15.422" fill="none"/><path d="m43.218 23.42v-15.422" fill="none" stroke="#000" stroke-width=".43"/><path d="m39.086 26.499c1.901 0 4.244-1.587 4.244-3.21 0-.978-.867-1.605-2.104-1.605-1.863 0-4.206 1.549-4.206 3.21 0 1.014.904 1.605 2.066 1.605z" fill-rule="nonzero"/><path d="m43.258 12.57c.923 0 1.236.35 1.771.738 1.495 1.051 2.251 2.214 2.251 3.505v.092c-.037 1.661-.055 1.79-.535 2.86-.074.166-.111.277-.111.35 0 .093.056.148.148.148.184 0 1.125-1.291 1.125-3.653v-.092c0-.793-.221-1.55-.664-2.251-.129-.221-.701-.978-1.716-2.251-.793-1.014-1.476-2.269-2.029-3.726-.018-.056-.018-.111-.018-.166 0-.056 0-.111.018-.148.018-.018-.074-.018-.24-.018z" fill-rule="nonzero"/><path d="m67 15.637v12.972" fill="none"/><path d="m67 15.637v12.972" fill="none" stroke="#000" stroke-width=".43"/><path d="m68.922 17.274c1.9 0 4.243-1.586 4.243-3.21 0-.978-.867-1.605-2.103-1.605-1.863 0-4.206 1.55-4.206 3.21 0 1.015.904 1.605 2.066 1.605z" fill-rule="nonzero"/><path d="m84.44 11.025v15.278" fill="none"/><path d="m84.44 11.025v15.278" fill="none" stroke="#000" stroke-width=".43"/><path d="m86.362 12.662c1.9 0 4.243-1.587 4.243-3.21 0-.978-.867-1.605-2.103-1.605-1.863 0-4.206 1.55-4.206 3.21 0 1.015.904 1.605 2.066 1.605z" fill-rule="nonzero"/><path d="m78.819 13.64 2.601-1.919c1.144-.83 1.586-1.771 1.623-2.472 0-1.033-.941-1.808-2.047-1.808-.775 0-1.347.295-1.716.904l.129-5.811h-.59zm1.715-5.461c.591 0 1.033.424 1.033.996 0 .96-1.273 2.804-2.232 3.413-.055-.313-.092-.922-.092-1.826 0-.498.037-1.107.111-1.808.276-.517.664-.775 1.18-.775z" fill-rule="nonzero"/><path d="m101.88 11.025v15.422" fill="none"/><path d="m101.88 11.025v15.422" fill="none" stroke="#000" stroke-width=".43"/><path d="m101.736 11.112c0 1.034 1.014 1.642 2.269 1.642 2.103 0 4.225-1.402 4.225-3.136 0-1.181-.997-1.863-2.528-1.863-1.882 0-3.966 1.66-3.966 3.357zm5.018-2.804c.701 0 1.051.295 1.051.867 0 1.07-3.284 3.026-4.593 3.026-.702 0-1.052-.295-1.052-.867 0-1.144 3.413-3.026 4.594-3.026z" fill-rule="nonzero"/><path d="m111.248 9.441c-.442 0-.848.388-.848.886 0 .424.424.83.848.83.498 0 .886-.406.886-.83 0-.498-.388-.886-.886-.886z" fill-rule="nonzero"/><path d="m157.371 11.025v15.422" fill="none"/><path d="m157.371 11.025v15.422" fill="none" stroke="#000" stroke-width=".43"/><path d="m157.227 11.112c0 1.034 1.014 1.642 2.269 1.642 2.103 0 4.225-1.402 4.225-3.136 0-1.181-.997-1.863-2.528-1.863-1.882 0-3.966 1.66-3.966 3.357zm5.018-2.804c.701 0 1.051.295 1.051.867 0 1.07-3.284 3.026-4.593 3.026-.701 0-1.052-.295-1.052-.867 0-1.144 3.413-3.026 4.594-3.026z" fill-rule="nonzero"/><path d="m203.049 14.156c-.941.831-1.826 1.237-2.619 1.237-.111 0-.185-.019-.24-.056.203-.369.295-.682.295-.959 0-.609-.351-.904-1.052-.904-.608 0-1.273.406-1.273.941 0 .904.572 1.347 1.716 1.347.627 0 1.421-.167 2.38-.48l-2.952 6.494h.775z" fill-rule="nonzero"/><path d="m215.745 15.637v15.422" fill="none"/><path d="m215.745 15.637v15.422" fill="none" stroke="#000" stroke-width=".43"/><path d="m217.667 17.274c1.9 0 4.243-1.586 4.243-3.21 0-.978-.867-1.605-2.103-1.605-1.864 0-4.207 1.55-4.207 3.21 0 1.015.904 1.605 2.067 1.605z" fill-rule="nonzero"/><path d="m215.785 31c.166 0 .258 0 .24-.018-.019-.037-.019-.092-.019-.148 0-.055 0-.11.019-.166.572-1.439 1.217-2.73 2.029-3.726.664-.812 1.421-1.55 2.103-2.362.72-.849 1.052-1.845 1.052-2.786 0-.498-.055-.977-.185-1.476-.239-.94-.977-2.748-1.42-2.748-.056 0-.074.055-.074.166 0 .092.037.221.111.35.645 1.199.959 2.214.959 3.007 0 1.126-.424 2.159-1.218 3.044-.166.166-.701.609-1.605 1.329-1.143.922-1.217.941-1.992.941z" fill-rule="nonzero"/><path d="m239.238 16.502v-14.125" fill="none"/><path d="m239.238 16.502v-14.125" fill="none" stroke="#000" stroke-width=".43"/><path d="m235.107 19.58c1.9 0 4.243-1.586 4.243-3.21 0-.977-.867-1.605-2.103-1.605-1.864 0-4.207 1.55-4.207 3.21 0 1.015.904 1.605 2.067 1.605z" fill-rule="nonzero"/><path d="m227.563 20.558 2.602-1.918c1.144-.831 1.586-1.772 1.623-2.473 0-1.033-.941-1.808-2.048-1.808-.774 0-1.346.296-1.715.904l.129-5.811h-.591zm1.716-5.461c.591 0 1.033.425 1.033.997 0 .959-1.273 2.804-2.232 3.413-.055-.314-.092-.923-.092-1.827 0-.498.037-1.107.11-1.808.277-.516.665-.775 1.181-.775z" fill-rule="nonzero"/><path d="m256.678 23.42v-16.431" fill="none"/><path d="m256.678 23.42v-16.431" fill="none" stroke="#000" stroke-width=".43"/><path d="m252.547 26.499c1.9 0 4.243-1.587 4.243-3.21 0-.978-.867-1.605-2.103-1.605-1.863 0-4.206 1.549-4.206 3.21 0 1.014.904 1.605 2.066 1.605z" fill-rule="nonzero"/><path d="m281.037 18.808v-15.422" fill="none"/><path d="m281.037 18.808v-15.422" fill="none" stroke="#000" stroke-width=".43"/><path d="m276.905 21.887c1.9 0 4.244-1.587 4.244-3.211 0-.977-.868-1.605-2.104-1.605-1.863 0-4.206 1.55-4.206 3.211 0 1.014.904 1.605 2.066 1.605z" fill-rule="nonzero"/><path d="m269.362 22.864 2.601-1.918c1.144-.831 1.587-1.771 1.624-2.472 0-1.034-.941-1.808-2.048-1.808-.775 0-1.347.295-1.716.904l.129-5.812h-.59zm1.716-5.461c.59 0 1.033.425 1.033.997 0 .959-1.273 2.804-2.233 3.413-.055-.314-.092-.923-.092-1.827 0-.498.037-1.107.111-1.808.277-.516.664-.775 1.181-.775z" fill-rule="nonzero"/><path d="m284.208 18.666c-.443 0-.849.387-.849.885 0 .425.424.83.849.83.498 0 .885-.405.885-.83 0-.498-.387-.885-.885-.885z" fill-rule="nonzero"/><path d="m313.467 23.42v-15.422" fill="none"/><path d="m313.467 23.42v-15.422" fill="none" stroke="#000" stroke-width=".43"/><path d="m309.335 26.499c1.9 0 4.243-1.587 4.243-3.21 0-.978-.867-1.605-2.103-1.605-1.863 0-4.206 1.549-4.206 3.21 0 1.014.904 1.605 2.066 1.605z" fill-rule="nonzero"/><path d="m313.507 12.57c.922 0 1.236.35 1.771.738 1.494 1.051 2.251 2.214 2.251 3.505v.092c-.037 1.661-.056 1.79-.535 2.86-.074.166-.111.277-.111.35 0 .093.055.148.148.148.184 0 1.125-1.291 1.125-3.653v-.092c0-.793-.221-1.55-.664-2.251-.129-.221-.701-.978-1.716-2.251-.793-1.014-1.476-2.269-2.029-3.726-.019-.056-.019-.111-.019-.166 0-.056 0-.111.019-.148.018-.018-.074-.018-.24-.018z" fill-rule="nonzero"/><path d="m331.051 23.42v-15.422" fill="none"/><path d="m331.051 23.42v-15.422" fill="none" stroke="#000" stroke-width=".43"/><path d="m324.709 24.949c0 1.033 1.015 1.642 2.269 1.642 2.103 0 4.225-1.402 4.225-3.136 0-1.181-.996-1.864-2.528-1.864-1.881 0-3.966 1.661-3.966 3.358zm5.018-2.804c.701 0 1.052.295 1.052.867 0 1.07-3.284 3.026-4.594 3.026-.701 0-1.052-.296-1.052-.867 0-1.144 3.413-3.026 4.594-3.026z" fill-rule="nonzero"/><path d="m372.561 14.968h5.184v2.214h-5.184z" fill-rule="nonzero"/><path d="m418.347 20.853c-.757-1.217-2.306-2.564-2.306-3.542 0-.645.571-1.66 1.734-3.062l-3.284-4.502c-.203.037-.314.111-.314.24 0-.018 1.347 1.605 1.347 2.583 0 .959-.627 2.011-1.9 3.173 1.439 1.771 2.25 2.62 2.822 3.505-.387-.203-.756-.313-1.107-.313-1.125 0-1.844 1.07-1.844 2.158 0 1.329 2.213 2.934 2.638 2.934.074 0 .129-.037.147-.111-.774-.756-1.162-1.458-1.162-2.103 0-.849.72-1.329 1.66-1.329.499 0 1.034.13 1.569.369z" fill-rule="nonzero"/><path d="m442.454 14.156c-.941.831-1.827 1.237-2.62 1.237-.111 0-.185-.019-.24-.056.203-.369.295-.682.295-.959 0-.609-.35-.904-1.051-.904-.609 0-1.273.406-1.273.941 0 .904.572 1.347 1.715 1.347.628 0 1.421-.167 2.38-.48l-2.951 6.494h.774z" fill-rule="nonzero"/><path d="m461.202 23.42v-15.422" fill="none"/><path d="m461.202 23.42v-15.422" fill="none" stroke="#000" stroke-width=".43"/><path d="m457.071 26.499c1.9 0 4.243-1.587 4.243-3.21 0-.978-.867-1.605-2.103-1.605-1.863 0-4.206 1.549-4.206 3.21 0 1.014.904 1.605 2.066 1.605z" fill-rule="nonzero"/><path d="m461.243 12.57c.922 0 1.236.35 1.771.738 1.494 1.051 2.251 2.214 2.251 3.505v.092c-.037 1.661-.056 1.79-.535 2.86-.074.166-.111.277-.111.35 0 .093.055.148.148.148.184 0 1.125-1.291 1.125-3.653v-.092c0-.793-.221-1.55-.664-2.251-.129-.221-.701-.978-1.716-2.251-.793-1.014-1.476-2.269-2.029-3.726-.019-.056-.019-.111-.019-.166 0-.056 0-.111.019-.148.018-.018-.074-.018-.24-.018z" fill-rule="nonzero"/><path d="m26.787 88.712v12.972" fill="none"/><path d="m26.787 88.712v12.972" fill="none" stroke="#000" stroke-width=".43"/><path d="m28.709 90.35c1.9 0 4.243-1.587 4.243-3.211 0-.977-.867-1.605-2.103-1.605-1.863 0-4.206 1.55-4.206 3.211 0 1.014.904 1.605 2.066 1.605z" fill-rule="nonzero"/><path d="m45.956 84.1v15.278" fill="none"/><path d="m45.956 84.1v15.278" fill="none" stroke="#000" stroke-width=".43"/><path d="m47.878 85.737c1.901 0 4.244-1.586 4.244-3.21 0-.978-.867-1.605-2.103-1.605-1.864 0-4.207 1.55-4.207 3.21 0 1.015.904 1.605 2.066 1.605z" fill-rule="nonzero"/><path d="m40.335 86.715 2.601-1.919c1.144-.83 1.587-1.771 1.624-2.472 0-1.033-.941-1.808-2.048-1.808-.775 0-1.347.295-1.716.904l.129-5.811h-.59zm1.716-5.461c.59 0 1.033.425 1.033.996 0 .96-1.273 2.805-2.232 3.414-.056-.314-.093-.923-.093-1.827 0-.498.037-1.107.111-1.808.277-.516.664-.775 1.181-.775z" fill-rule="nonzero"/><path d="m69.871 87.232c-.941.83-1.827 1.236-2.62 1.236-.111 0-.184-.019-.24-.056.203-.369.295-.682.295-.959 0-.609-.35-.904-1.051-.904-.609 0-1.273.406-1.273.941 0 .904.572 1.347 1.716 1.347.627 0 1.42-.166 2.379-.48l-2.951 6.494h.774z" fill-rule="nonzero"/><path d="m84.296 84.1v15.422" fill="none"/><path d="m84.296 84.1v15.422" fill="none" stroke="#000" stroke-width=".43"/><path d="m86.218 85.737c1.9 0 4.243-1.586 4.243-3.21 0-.978-.867-1.605-2.103-1.605-1.864 0-4.207 1.55-4.207 3.21 0 1.015.904 1.605 2.067 1.605z" fill-rule="nonzero"/><path d="m84.336 99.463c.166 0 .258 0 .24-.018-.019-.037-.019-.092-.019-.148 0-.055 0-.11.019-.166.572-1.439 1.217-2.73 2.029-3.726.664-.812 1.421-1.55 2.103-2.362.72-.849 1.052-1.845 1.052-2.786 0-.498-.055-.977-.185-1.476-.239-.94-.977-2.748-1.42-2.748-.055 0-.074.055-.074.166 0 .092.037.221.111.35.645 1.199.959 2.214.959 3.007 0 1.126-.424 2.159-1.218 3.044-.166.166-.701.609-1.605 1.329-1.143.922-1.217.941-1.992.941z" fill-rule="nonzero"/><path d="m103.465 84.1v15.422" fill="none"/><path d="m103.465 84.1v15.422" fill="none" stroke="#000" stroke-width=".43"/><path d="m103.321 84.188c0 1.033 1.015 1.642 2.269 1.642 2.103 0 4.225-1.403 4.225-3.137 0-1.18-.996-1.863-2.527-1.863-1.882 0-3.967 1.66-3.967 3.358zm5.018-2.805c.701 0 1.052.296 1.052.867 0 1.071-3.284 3.026-4.594 3.026-.701 0-1.052-.295-1.052-.867 0-1.144 3.413-3.026 4.594-3.026z" fill-rule="nonzero"/><path d="m155.353 84.1v15.422" fill="none"/><path d="m155.353 84.1v15.422" fill="none" stroke="#000" stroke-width=".43"/><path d="m155.209 84.188c0 1.033 1.015 1.642 2.269 1.642 2.103 0 4.225-1.403 4.225-3.137 0-1.18-.996-1.863-2.528-1.863-1.881 0-3.966 1.66-3.966 3.358zm5.018-2.805c.701 0 1.052.296 1.052.867 0 1.071-3.284 3.026-4.594 3.026-.701 0-1.052-.295-1.052-.867 0-1.144 3.413-3.026 4.594-3.026z" fill-rule="nonzero"/><path d="m200.322 84.1v21.044" fill="none"/><path d="m200.322 84.1v21.044" fill="none" stroke="#000" stroke-width=".43"/><path d="m202.245 85.737c1.9 0 4.243-1.586 4.243-3.21 0-.978-.867-1.605-2.103-1.605-1.864 0-4.207 1.55-4.207 3.21 0 1.015.904 1.605 2.067 1.605z" fill-rule="nonzero"/><path d="m194.701 86.715 2.602-1.919c1.143-.83 1.586-1.771 1.623-2.472 0-1.033-.941-1.808-2.048-1.808-.775 0-1.347.295-1.716.904l.13-5.811h-.591zm1.716-5.461c.59 0 1.033.425 1.033.996 0 .96-1.273 2.805-2.232 3.414-.056-.314-.092-.923-.092-1.827 0-.498.036-1.107.11-1.808.277-.516.664-.775 1.181-.775z" fill-rule="nonzero"/><path d="m219.492 88.712v17.873" fill="none"/><path d="m219.492 88.712v17.873" fill="none" stroke="#000" stroke-width=".43"/><path d="m221.414 90.35c1.9 0 4.243-1.587 4.243-3.211 0-.977-.867-1.605-2.103-1.605-1.863 0-4.206 1.55-4.206 3.211 0 1.014.904 1.605 2.066 1.605z" fill-rule="nonzero"/><path d="m238.662 91.019v17.151" fill="none"/><path d="m238.662 91.019v17.151" fill="none" stroke="#000" stroke-width=".43"/><path d="m240.584 92.656c1.9 0 4.243-1.587 4.243-3.21 0-.978-.867-1.605-2.103-1.605-1.863 0-4.206 1.549-4.206 3.21 0 1.014.904 1.605 2.066 1.605z" fill-rule="nonzero"/><path d="m233.04 93.634 2.602-1.919c1.144-.83 1.586-1.771 1.623-2.472 0-1.033-.941-1.808-2.048-1.808-.774 0-1.346.295-1.715.904l.129-5.812h-.591zm1.716-5.461c.591 0 1.033.424 1.033.996 0 .959-1.273 2.804-2.232 3.413-.055-.314-.092-.923-.092-1.827 0-.498.037-1.106.11-1.808.277-.516.665-.774 1.181-.774z" fill-rule="nonzero"/><path d="m257.831 97.937v11.819" fill="none"/><path d="m257.831 97.937v11.819" fill="none" stroke="#000" stroke-width=".43"/><path d="m259.753 99.574c1.901 0 4.244-1.587 4.244-3.21 0-.978-.867-1.605-2.103-1.605-1.864 0-4.207 1.55-4.207 3.21 0 1.015.904 1.605 2.066 1.605z" fill-rule="nonzero"/><path d="m289.973 91.883v-15.422" fill="none"/><path d="m289.973 91.883v-15.422" fill="none" stroke="#000" stroke-width=".43"/><path d="m285.841 94.962c1.901 0 4.244-1.587 4.244-3.21 0-.978-.867-1.605-2.103-1.605-1.864 0-4.207 1.549-4.207 3.21 0 1.014.904 1.605 2.066 1.605z" fill-rule="nonzero"/><path d="m278.298 95.94 2.601-1.919c1.144-.83 1.587-1.771 1.624-2.472 0-1.033-.941-1.808-2.048-1.808-.775 0-1.347.295-1.716.904l.13-5.812h-.591zm1.716-5.461c.59 0 1.033.424 1.033.996 0 .959-1.273 2.804-2.232 3.413-.056-.314-.093-.922-.093-1.826 0-.499.037-1.107.111-1.808.277-.517.664-.775 1.181-.775z" fill-rule="nonzero"/><path d="m316.493 96.496v-12.972" fill="none"/><path d="m316.493 96.496v-12.972" fill="none" stroke="#000" stroke-width=".43"/><path d="m312.362 99.574c1.9 0 4.243-1.587 4.243-3.21 0-.978-.867-1.605-2.103-1.605-1.863 0-4.206 1.55-4.206 3.21 0 1.015.904 1.605 2.066 1.605z" fill-rule="nonzero"/><path d="m335.663 98.802v-14.125" fill="none"/><path d="m335.663 98.802v-14.125" fill="none" stroke="#000" stroke-width=".43"/><path d="m331.532 101.88c1.9 0 4.243-1.586 4.243-3.21 0-.978-.867-1.605-2.103-1.605-1.864 0-4.207 1.55-4.207 3.21 0 1.015.904 1.605 2.067 1.605z" fill-rule="nonzero"/><path d="m323.988 102.858 2.602-1.919c1.143-.83 1.586-1.771 1.623-2.472 0-1.033-.941-1.808-2.048-1.808-.775 0-1.347.295-1.716.904l.13-5.811h-.591zm1.716-5.461c.59 0 1.033.424 1.033.996 0 .96-1.273 2.805-2.232 3.413-.056-.313-.092-.922-.092-1.826 0-.498.036-1.107.11-1.808.277-.517.664-.775 1.181-.775z" fill-rule="nonzero"/><path d="m354.977 98.802v-15.422" fill="none"/><path d="m354.977 98.802v-15.422" fill="none" stroke="#000" stroke-width=".43"/><path d="m348.635 100.33c0 1.034 1.015 1.642 2.269 1.642 2.103 0 4.225-1.402 4.225-3.136 0-1.181-.996-1.863-2.528-1.863-1.881 0-3.966 1.66-3.966 3.357zm5.018-2.804c.701 0 1.052.295 1.052.867 0 1.07-3.284 3.026-4.594 3.026-.701 0-1.052-.295-1.052-.867 0-1.144 3.413-3.026 4.594-3.026z" fill-rule="nonzero"/></svg>