<?xml version="1.0" encoding="UTF-8" standalone="no"?>
<!DOCTYPE svg PUBLIC "-//W3C//DTD SVG 1.1//EN" "http://www.w3.org/Graphics/SVG/1.1/DTD/svg11.dtd">
<svg width="100%" height="100%" viewBox="0 0 471 132" version="1.1" xmlns="http://www.w3.org/2000/svg" xmlns:xlink="http://www.w3.org/1999/xlink" xml:space="preserve" xmlns:serif="http://www.serif.com/" style="fill-rule:evenodd;clip-rule:evenodd;stroke-linejoin:round;stroke-miterlimit:2;">
    <g>
        <path d="M40.346,24.145L40.346,43.982" style="fill:none;stroke:black;stroke-width:2.48px;"/>
        <path d="M43.755,24.145L43.755,43.982" style="fill:none;stroke:black;stroke-width:0.77px;"/>
        <path d="M47.01,30.656C46.534,30.656 46.097,31.073 46.097,31.608C46.097,32.065 46.554,32.501 47.01,32.501C47.546,32.501 47.962,32.065 47.962,31.608C47.962,31.073 47.546,30.656 47.01,30.656Z" style="fill-rule:nonzero;"/>
        <path d="M47.01,35.615C46.534,35.615 46.097,36.032 46.097,36.568C46.097,37.024 46.554,37.46 47.01,37.46C47.546,37.46 47.962,37.024 47.962,36.568C47.962,36.032 47.546,35.615 47.01,35.615Z" style="fill-rule:nonzero;"/>
        <path d="M189.902,24.145L189.902,43.982" style="fill:none;stroke:black;stroke-width:0.77px;"/>
        <path d="M283.51,24.145L283.51,43.982" style="fill:none;stroke:black;stroke-width:0.77px;"/>
        <path d="M376.963,24.145L376.963,43.982" style="fill:none;stroke:black;stroke-width:0.77px;"/>
        <path d="M470.571,24.145L470.571,43.982" style="fill:none;stroke:black;stroke-width:0.77px;"/>
        <path d="M50.856,5.236C50.84,6.242 50.776,7.056 50.664,8.301C50.074,8.892 49.786,9.53 49.786,10.073C49.786,10.807 50.297,11.366 51.207,11.366C53.921,11.366 55.533,8.684 55.533,7.024C55.533,6.05 55.07,5.236 54.08,4.965C54.91,3.528 55.23,2.491 55.23,1.788C55.23,0.831 54.639,0.479 53.905,0.479C51.047,0.479 49.706,4.342 49.706,4.614C49.706,5.093 50.026,5.316 50.425,5.316C50.568,5.316 50.712,5.284 50.856,5.236ZM51.973,7.216C52.324,6.88 52.915,6.657 53.41,6.657C54,6.657 54.336,6.928 54.336,7.647C54.336,8.541 52.979,9.706 51.893,9.706L51.75,9.706C51.75,8.828 51.83,7.918 51.973,7.216ZM52.069,3.305C52.101,3.113 52.851,2.299 53.362,2.299C53.49,2.299 53.681,2.363 53.681,2.57C53.681,3.049 52.931,4.294 51.989,4.805C51.973,4.598 51.957,4.422 51.957,4.263C51.957,3.879 52.005,3.592 52.069,3.305Z" style="fill-rule:nonzero;"/>
        <path d="M57.576,-1.069C57.576,-1.085 57.544,-1.101 57.512,-1.101C57.288,-1.101 56.458,-0.718 56.458,-0.59C56.474,-0.335 56.474,0.048 56.474,0.543C56.474,3.337 56.251,9.339 56.251,11.414C56.873,11.318 60.21,8.173 60.21,5.045C60.21,3.975 59.747,3.528 59.108,3.528C58.645,3.528 58.087,3.768 57.544,4.183C57.56,2.938 57.576,1.549 57.576,0.272L57.576,-1.069ZM57.432,6.497C57.64,6.21 58.087,5.699 58.374,5.699C58.518,5.699 58.661,5.827 58.661,6.194C58.661,6.689 58.182,7.79 57.352,8.381C57.352,7.886 57.416,6.912 57.432,6.497Z" style="fill-rule:nonzero;"/>
        <path d="M61.357,5.827C61.644,6.402 61.804,8.142 61.804,9.435C61.804,9.945 61.772,10.392 61.724,10.664C61.708,10.712 61.708,10.744 61.708,10.775C61.708,11.206 62.235,11.51 62.634,11.51C62.857,11.51 63.049,11.414 63.065,11.19C63.176,10.057 63.56,7.088 64.07,7.04C64.31,7.008 64.422,9.482 64.485,10.903C64.501,11.302 64.916,11.494 65.315,11.494C65.683,11.494 66.05,11.334 66.066,11.031C66.161,9.834 67.359,6.753 67.55,6.769C67.901,6.801 68.412,10.871 68.412,10.919C68.428,11.334 68.795,11.59 69.115,11.59C69.338,11.59 69.546,11.446 69.546,11.127C69.546,9.77 69.083,7.423 68.716,5.955C68.588,5.476 68.125,4.981 67.646,4.981C67.295,4.981 66.928,5.236 66.688,5.923L65.523,8.812C65.523,8.413 65.028,5.795 64.996,5.603C64.837,4.965 64.581,4.694 64.294,4.694C63.719,4.694 63.033,5.763 62.777,6.944C62.745,6.513 62.314,5.587 62.282,5.508C62.203,5.332 62.091,5.268 61.947,5.268C61.676,5.268 61.341,5.524 61.341,5.747C61.341,5.779 61.341,5.811 61.357,5.827Z" style="fill-rule:nonzero;"/>
        <path d="M69.64,11.015C69.528,11.35 69.48,11.637 69.48,11.845C69.48,12.18 69.608,12.34 69.784,12.34C70.007,12.34 70.31,12.1 70.566,11.606C72.561,7.87 73.296,5.268 75.594,2.251C75.642,2.171 75.658,2.092 75.658,2.012C75.658,1.74 75.403,1.533 75.099,1.533C74.908,1.533 74.684,1.613 74.509,1.804C72.577,4.646 71.061,7.535 69.64,11.015Z" style="fill-rule:nonzero;"/>
        <path d="M78.164,3.512C78.723,3.001 80.718,3.241 81.532,2.954C81.931,2.858 82.171,1.341 82.171,0.831C82.171,0.559 82.043,0.384 81.612,0.384C80.064,0.384 76.871,0.783 76.839,1.277C76.759,2.57 76.68,5.093 76.68,7.471C76.68,8.972 76.712,10.424 76.807,11.462C78.276,11.462 79.074,11.414 80.287,11.366L80.479,11.366C81.197,11.35 81.884,11.334 81.884,9.179C81.884,9.004 81.772,8.892 81.341,8.892L81.165,8.892C80.048,8.956 79.106,9.051 78.276,9.067C78.244,8.461 78.212,8.205 78.212,7.695C78.723,7.535 79.138,7.359 79.824,7.168C80.686,7.008 80.702,7.008 80.702,6.162L80.702,5.38C80.702,5.141 80.623,4.933 80.255,4.933C79.729,4.933 78.851,5.332 78.196,5.524C78.18,5.077 78.148,4.518 78.148,4.039C78.148,3.848 78.148,3.656 78.164,3.512Z" style="fill-rule:nonzero;"/>
        <path d="M84.404,-1.069C84.404,-1.085 84.372,-1.101 84.34,-1.101C84.117,-1.101 83.287,-0.718 83.287,-0.59C83.303,-0.335 83.303,0.048 83.303,0.543C83.303,3.337 83.079,9.339 83.079,11.414C83.702,11.318 87.038,8.173 87.038,5.045C87.038,3.975 86.575,3.528 85.937,3.528C85.474,3.528 84.915,3.768 84.372,4.183C84.388,2.938 84.404,1.549 84.404,0.272L84.404,-1.069ZM84.261,6.497C84.468,6.21 84.915,5.699 85.202,5.699C85.346,5.699 85.49,5.827 85.49,6.194C85.49,6.689 85.011,7.79 84.181,8.381C84.181,7.886 84.245,6.912 84.261,6.497Z" style="fill-rule:nonzero;"/>
        <path d="M196.32,9.195C196.272,9.243 196.24,9.307 196.24,9.387C196.24,9.818 197.038,10.664 197.485,10.664C197.788,10.664 202.418,5.54 205.307,2.523C205.339,2.491 205.355,2.459 205.355,2.427C205.355,2.076 204.413,1.15 204.094,1.15C204.046,1.15 204.014,1.166 203.982,1.198C201.636,3.161 198.427,6.833 196.32,9.195ZM202.625,8.573C202.577,8.636 202.561,8.7 202.561,8.748C202.561,9.163 203.312,9.818 203.791,9.818C204.174,9.818 205.53,7.982 205.53,7.87C205.53,7.487 204.812,6.625 204.365,6.625C203.727,6.625 203.088,7.822 202.625,8.573ZM197.006,3.193C196.974,3.241 196.958,3.289 196.958,3.353C196.958,3.72 197.645,4.422 197.98,4.422C198.299,4.103 198.587,3.8 198.826,3.528C199.273,3.081 199.704,2.57 199.704,2.395C199.704,1.98 199.097,1.277 198.714,1.277C198.219,1.277 197.373,2.874 197.006,3.193Z" style="fill-rule:nonzero;"/>
        <path d="M289.928,9.195C289.88,9.243 289.848,9.307 289.848,9.387C289.848,9.818 290.646,10.664 291.093,10.664C291.397,10.664 296.026,5.54 298.915,2.523C298.947,2.491 298.963,2.459 298.963,2.427C298.963,2.076 298.021,1.15 297.702,1.15C297.654,1.15 297.622,1.166 297.59,1.198C295.244,3.161 292.035,6.833 289.928,9.195ZM296.233,8.573C296.185,8.636 296.17,8.7 296.17,8.748C296.17,9.163 296.92,9.818 297.399,9.818C297.782,9.818 299.139,7.982 299.139,7.87C299.139,7.487 298.42,6.625 297.973,6.625C297.335,6.625 296.696,7.822 296.233,8.573ZM290.614,3.193C290.582,3.241 290.567,3.289 290.567,3.353C290.567,3.72 291.253,4.422 291.588,4.422C291.907,4.103 292.195,3.8 292.434,3.528C292.881,3.081 293.312,2.57 293.312,2.395C293.312,1.98 292.706,1.277 292.322,1.277C291.828,1.277 290.982,2.874 290.614,3.193Z" style="fill-rule:nonzero;"/>
        <path d="M383.381,9.195C383.333,9.243 383.301,9.307 383.301,9.387C383.301,9.818 384.099,10.664 384.546,10.664C384.85,10.664 389.479,5.54 392.368,2.523C392.4,2.491 392.416,2.459 392.416,2.427C392.416,2.076 391.474,1.15 391.155,1.15C391.107,1.15 391.075,1.166 391.043,1.198C388.697,3.161 385.488,6.833 383.381,9.195ZM389.686,8.573C389.639,8.636 389.623,8.7 389.623,8.748C389.623,9.163 390.373,9.818 390.852,9.818C391.235,9.818 392.592,7.982 392.592,7.87C392.592,7.487 391.873,6.625 391.426,6.625C390.788,6.625 390.149,7.822 389.686,8.573ZM384.068,3.193C384.036,3.241 384.02,3.289 384.02,3.353C384.02,3.72 384.706,4.422 385.041,4.422C385.361,4.103 385.648,3.8 385.887,3.528C386.334,3.081 386.765,2.57 386.765,2.395C386.765,1.98 386.159,1.277 385.776,1.277C385.281,1.277 384.435,2.874 384.068,3.193Z" style="fill-rule:nonzero;"/>
        <path d="M161.23,103.495L161.23,123.332" style="fill:none;stroke:black;stroke-width:0.77px;"/>
        <path d="M260.573,103.495L260.573,123.332" style="fill:none;stroke:black;stroke-width:0.77px;"/>
        <path d="M359.915,103.495L359.915,123.332" style="fill:none;stroke:black;stroke-width:0.77px;"/>
        <path d="M466.232,103.495L466.232,123.332" style="fill:none;stroke:black;stroke-width:0.77px;"/>
        <path d="M469.641,103.495L469.641,123.332" style="fill:none;stroke:black;stroke-width:2.48px;"/>
        <path d="M462.977,110.006C462.501,110.006 462.065,110.423 462.065,110.958C462.065,111.414 462.521,111.851 462.977,111.851C463.513,111.851 463.929,111.414 463.929,110.958C463.929,110.423 463.513,110.006 462.977,110.006Z" style="fill-rule:nonzero;"/>
        <path d="M462.977,114.965C462.501,114.965 462.065,115.382 462.065,115.918C462.065,116.374 462.521,116.81 462.977,116.81C463.513,116.81 463.929,116.374 463.929,115.918C463.929,115.382 463.513,114.965 462.977,114.965Z" style="fill-rule:nonzero;"/>
        <path d="M22.731,87.763C22.492,87.699 22.284,87.603 22.077,87.571C22.141,88.721 22.141,89.295 22.172,90.205C22.572,90.684 23.338,90.812 25.158,90.812C25.557,90.812 25.988,90.812 26.483,90.796C28.159,90.125 29.005,86.869 29.005,84.107C29.005,80.5 27.791,79.702 25.94,79.702C24.535,79.702 23.45,80.516 22.252,81.968C22.157,82.639 22.236,83.373 22.125,84.538C22.284,84.538 22.524,84.299 22.635,84.219C22.667,84.746 22.763,85.895 22.763,86.917C22.763,87.22 22.747,87.507 22.731,87.763ZM23.545,83.612C24.439,82.83 25.589,82.447 26.307,82.447C27.265,82.447 27.664,83.453 27.664,84.474C27.664,85.799 26.738,88.146 24.727,88.146C24.455,88.146 24.168,88.114 23.833,88.034C23.865,87.603 23.897,87.045 23.897,86.47C23.897,85.512 23.817,84.459 23.545,83.612Z" style="fill-rule:nonzero;"/>
        <path d="M31.159,78.281C31.159,78.265 31.127,78.249 31.095,78.249C30.872,78.249 30.041,78.632 30.041,78.76C30.057,79.015 30.057,79.398 30.057,79.893C30.057,82.687 29.834,88.689 29.834,90.764C30.456,90.668 33.793,87.523 33.793,84.395C33.793,83.325 33.33,82.878 32.691,82.878C32.228,82.878 31.67,83.118 31.127,83.533C31.143,82.288 31.159,80.899 31.159,79.622L31.159,78.281ZM31.015,85.847C31.223,85.56 31.67,85.049 31.957,85.049C32.101,85.049 32.244,85.177 32.244,85.544C32.244,86.039 31.765,87.14 30.935,87.731C30.935,87.236 30.999,86.262 31.015,85.847Z" style="fill-rule:nonzero;"/>
        <path d="M34.94,85.177C35.227,85.752 35.387,87.491 35.387,88.784C35.387,89.295 35.355,89.742 35.307,90.014C35.291,90.062 35.291,90.093 35.291,90.125C35.291,90.556 35.818,90.86 36.217,90.86C36.44,90.86 36.632,90.764 36.648,90.54C36.76,89.407 37.143,86.438 37.653,86.39C37.893,86.358 38.005,88.832 38.068,90.253C38.084,90.652 38.499,90.844 38.899,90.844C39.266,90.844 39.633,90.684 39.649,90.381C39.745,89.184 40.942,86.103 41.133,86.119C41.485,86.151 41.995,90.221 41.995,90.269C42.011,90.684 42.378,90.939 42.698,90.939C42.921,90.939 43.129,90.796 43.129,90.477C43.129,89.12 42.666,86.773 42.299,85.305C42.171,84.826 41.708,84.331 41.229,84.331C40.878,84.331 40.511,84.586 40.271,85.273L39.106,88.162C39.106,87.763 38.611,85.145 38.579,84.953C38.42,84.315 38.164,84.043 37.877,84.043C37.302,84.043 36.616,85.113 36.36,86.294C36.329,85.863 35.898,84.937 35.866,84.858C35.786,84.682 35.674,84.618 35.53,84.618C35.259,84.618 34.924,84.874 34.924,85.097C34.924,85.129 34.924,85.161 34.94,85.177Z" style="fill-rule:nonzero;"/>
        <path d="M167.958,88.545C167.911,88.593 167.879,88.657 167.879,88.737C167.879,89.168 168.677,90.014 169.124,90.014C169.427,90.014 174.056,84.89 176.946,81.873C176.978,81.841 176.993,81.809 176.993,81.777C176.993,81.426 176.052,80.5 175.732,80.5C175.685,80.5 175.653,80.516 175.621,80.548C173.274,82.511 170.066,86.183 167.958,88.545ZM174.264,87.922C174.216,87.986 174.2,88.05 174.2,88.098C174.2,88.513 174.95,89.168 175.429,89.168C175.812,89.168 177.169,87.332 177.169,87.22C177.169,86.837 176.451,85.975 176.004,85.975C175.365,85.975 174.727,87.172 174.264,87.922ZM168.645,82.543C168.613,82.591 168.597,82.639 168.597,82.703C168.597,83.07 169.283,83.772 169.619,83.772C169.938,83.453 170.225,83.15 170.465,82.878C170.912,82.431 171.343,81.92 171.343,81.745C171.343,81.33 170.736,80.627 170.353,80.627C169.858,80.627 169.012,82.224 168.645,82.543Z" style="fill-rule:nonzero;"/>
        <path d="M267.301,88.545C267.253,88.593 267.221,88.657 267.221,88.737C267.221,89.168 268.019,90.014 268.466,90.014C268.769,90.014 273.399,84.89 276.288,81.873C276.32,81.841 276.336,81.809 276.336,81.777C276.336,81.426 275.394,80.5 275.075,80.5C275.027,80.5 274.995,80.516 274.963,80.548C272.617,82.511 269.408,86.183 267.301,88.545ZM273.606,87.922C273.558,87.986 273.542,88.05 273.542,88.098C273.542,88.513 274.293,89.168 274.772,89.168C275.155,89.168 276.511,87.332 276.511,87.22C276.511,86.837 275.793,85.975 275.346,85.975C274.708,85.975 274.069,87.172 273.606,87.922ZM267.987,82.543C267.955,82.591 267.939,82.639 267.939,82.703C267.939,83.07 268.626,83.772 268.961,83.772C269.28,83.453 269.568,83.15 269.807,82.878C270.254,82.431 270.685,81.92 270.685,81.745C270.685,81.33 270.078,80.627 269.695,80.627C269.2,80.627 268.354,82.224 267.987,82.543Z" style="fill-rule:nonzero;"/>
        <path d="M366.643,88.545C366.595,88.593 366.563,88.657 366.563,88.737C366.563,89.168 367.362,90.014 367.809,90.014C368.112,90.014 372.741,84.89 375.63,81.873C375.662,81.841 375.678,81.809 375.678,81.777C375.678,81.426 374.736,80.5 374.417,80.5C374.369,80.5 374.337,80.516 374.305,80.548C371.959,82.511 368.75,86.183 366.643,88.545ZM372.949,87.922C372.901,87.986 372.885,88.05 372.885,88.098C372.885,88.513 373.635,89.168 374.114,89.168C374.497,89.168 375.854,87.332 375.854,87.22C375.854,86.837 375.136,85.975 374.689,85.975C374.05,85.975 373.412,87.172 372.949,87.922ZM367.33,82.543C367.298,82.591 367.282,82.639 367.282,82.703C367.282,83.07 367.968,83.772 368.303,83.772C368.623,83.453 368.91,83.15 369.149,82.878C369.596,82.431 370.027,81.92 370.027,81.745C370.027,81.33 369.421,80.627 369.038,80.627C368.543,80.627 367.697,82.224 367.33,82.543Z" style="fill-rule:nonzero;"/>
        <path d="M33.305,31.335L33.305,30.495L32.045,30.495L32.045,25.997L29.546,28.216L29.546,30.495L26.847,30.495C27.147,29.736 27.967,28.696 29.306,27.357C30.526,26.137 31.226,25.057 31.425,24.158L28.007,24.158C27.847,26.117 26.687,28.976 25.468,30.535L25.468,31.335L29.546,31.335C29.546,32.035 29.526,32.435 29.486,32.535C29.366,32.755 28.986,32.895 28.367,32.935L28.327,33.494L33.245,33.494L33.165,32.915C32.205,32.835 32.025,32.735 32.025,32.235C32.025,32.175 32.025,32.055 32.045,31.855L32.045,31.335L33.305,31.335Z" style="fill-rule:nonzero;"/>
        <path d="M33.305,41.387L33.305,40.547L32.045,40.547L32.045,36.049L29.546,38.268L29.546,40.547L26.847,40.547C27.147,39.788 27.967,38.748 29.306,37.409C30.526,36.189 31.226,35.109 31.425,34.21L28.007,34.21C27.847,36.169 26.687,39.028 25.468,40.587L25.468,41.387L29.546,41.387C29.546,42.087 29.526,42.487 29.486,42.587C29.366,42.807 28.986,42.946 28.367,42.986L28.327,43.546L33.245,43.546L33.165,42.966C32.205,42.886 32.025,42.787 32.025,42.287C32.025,42.227 32.025,42.107 32.045,41.907L32.045,41.387L33.305,41.387Z" style="fill-rule:nonzero;"/>
        <path d="M0.051,43.982L470.881,43.982" style="fill:none;stroke:black;stroke-width:0.46px;"/>
        <path d="M0.051,39.023L470.881,39.023" style="fill:none;stroke:black;stroke-width:0.46px;"/>
        <path d="M0.051,34.064L470.881,34.064" style="fill:none;stroke:black;stroke-width:0.46px;"/>
        <path d="M0.051,29.104L470.881,29.104" style="fill:none;stroke:black;stroke-width:0.46px;"/>
        <path d="M0.051,24.145L470.881,24.145" style="fill:none;stroke:black;stroke-width:0.46px;"/>
        <path d="M14.145,43.324L14.899,46.994C14.939,47.212 14.959,47.41 14.959,47.609C14.959,49.553 12.975,51.18 10.833,51.18C10.178,51.18 9.543,51.021 8.948,50.723C10.476,50.565 11.626,49.632 11.626,48.263C11.626,47.053 10.634,45.784 9.365,45.784C7.916,45.784 6.925,46.895 6.925,48.343C6.925,50.366 8.571,51.695 10.555,51.695C13.213,51.695 15.475,49.969 15.475,47.49C15.475,46.934 14.602,43.007 14.622,43.145C16.744,42.114 18.192,40.289 18.192,38.365C18.192,35.726 16.07,33.703 13.431,33.703C13.392,33.703 13.114,33.723 12.638,33.762L11.765,29.577C14.721,27.077 16.07,24.419 16.07,21.503C16.07,19.261 15.177,16.881 13.372,14.381C11.329,16.028 10.158,19.321 10.158,22.832C10.158,24.082 10.317,25.292 10.595,26.442C6.072,30.231 3.81,33.723 3.81,36.916C3.81,40.666 7.678,43.78 11.884,43.78C12.816,43.78 13.511,43.641 14.145,43.324ZM14.086,17.257C14.741,17.932 15.078,18.725 15.078,19.658C15.078,21.582 13.709,23.744 11.031,26.125C10.892,25.55 10.852,24.915 10.852,24.22C10.852,20.888 12.082,17.218 13.729,17.218C13.868,17.218 13.987,17.238 14.086,17.257ZM14.503,42.511L13.094,35.885C13.372,35.865 13.53,35.845 13.59,35.845C15.296,35.845 16.486,37.452 16.486,39.099C16.486,40.408 15.792,41.558 14.503,42.511ZM12.598,35.964L14.026,42.788C13.332,43.165 12.558,43.324 11.626,43.324C8.412,43.324 5.635,40.924 5.635,38.007C5.635,35.369 7.599,32.651 11.309,29.874L12.142,33.842C10.079,34.278 8.333,36.024 8.333,37.988C8.333,39.654 9.523,40.824 11.309,41.102C10.218,40.428 9.682,39.575 9.682,38.563C9.682,37.194 10.952,36.182 12.598,35.964Z" style="fill-rule:nonzero;"/>
        <path d="M0.051,123.332L470.881,123.332" style="fill:none;stroke:black;stroke-width:0.46px;"/>
        <path d="M0.051,118.373L470.881,118.373" style="fill:none;stroke:black;stroke-width:0.46px;"/>
        <path d="M0.051,113.414L470.881,113.414" style="fill:none;stroke:black;stroke-width:0.46px;"/>
        <path d="M0.051,108.454L470.881,108.454" style="fill:none;stroke:black;stroke-width:0.46px;"/>
        <path d="M0.051,103.495L470.881,103.495" style="fill:none;stroke:black;stroke-width:0.46px;"/>
        <path d="M14.145,122.674L14.899,126.344C14.939,126.562 14.959,126.76 14.959,126.959C14.959,128.903 12.975,130.529 10.833,130.529C10.178,130.529 9.543,130.371 8.948,130.073C10.476,129.914 11.626,128.982 11.626,127.613C11.626,126.403 10.634,125.134 9.365,125.134C7.916,125.134 6.925,126.245 6.925,127.693C6.925,129.716 8.571,131.045 10.555,131.045C13.213,131.045 15.475,129.319 15.475,126.84C15.475,126.284 14.602,122.356 14.622,122.495C16.744,121.464 18.192,119.639 18.192,117.714C18.192,115.076 16.07,113.053 13.431,113.053C13.392,113.053 13.114,113.072 12.638,113.112L11.765,108.926C14.721,106.427 16.07,103.769 16.07,100.853C16.07,98.611 15.177,96.23 13.372,93.731C11.329,95.377 10.158,98.67 10.158,102.182C10.158,103.431 10.317,104.642 10.595,105.792C6.072,109.581 3.81,113.072 3.81,116.266C3.81,120.016 7.678,123.13 11.884,123.13C12.816,123.13 13.511,122.991 14.145,122.674ZM14.086,96.607C14.741,97.282 15.078,98.075 15.078,99.008C15.078,100.932 13.709,103.094 11.031,105.475C10.892,104.899 10.852,104.265 10.852,103.57C10.852,100.238 12.082,96.568 13.729,96.568C13.868,96.568 13.987,96.588 14.086,96.607ZM14.503,121.86L13.094,115.235C13.372,115.215 13.53,115.195 13.59,115.195C15.296,115.195 16.486,116.802 16.486,118.448C16.486,119.758 15.792,120.908 14.503,121.86ZM12.598,115.314L14.026,122.138C13.332,122.515 12.558,122.674 11.626,122.674C8.412,122.674 5.635,120.273 5.635,117.357C5.635,114.719 7.599,112.001 11.309,109.224L12.142,113.191C10.079,113.628 8.333,115.374 8.333,117.338C8.333,119.004 9.523,120.174 11.309,120.452C10.218,119.778 9.682,118.925 9.682,117.913C9.682,116.544 10.952,115.532 12.598,115.314Z" style="fill-rule:nonzero;"/>
        <path d="M66.9,36.599C68.943,36.599 71.462,34.893 71.462,33.147C71.462,32.096 70.53,31.421 69.201,31.421C67.197,31.421 64.678,33.088 64.678,34.873C64.678,35.964 65.65,36.599 66.9,36.599Z" style="fill-rule:nonzero;"/>
        <path d="M58.788,37.65L61.586,35.587C62.815,34.695 63.292,33.683 63.331,32.929C63.331,31.818 62.32,30.985 61.129,30.985C60.296,30.985 59.681,31.302 59.284,31.957L59.423,25.708L58.788,25.708L58.788,37.65ZM60.633,31.778C61.268,31.778 61.744,32.235 61.744,32.85C61.744,33.881 60.375,35.865 59.344,36.52C59.284,36.182 59.245,35.528 59.245,34.556C59.245,34.02 59.284,33.365 59.364,32.612C59.661,32.056 60.078,31.778 60.633,31.778Z" style="fill-rule:nonzero;"/>
        <path d="M82.553,34.119C84.596,34.119 87.115,32.413 87.115,30.668C87.115,29.616 86.183,28.942 84.854,28.942C82.85,28.942 80.331,30.608 80.331,32.393C80.331,33.485 81.303,34.119 82.553,34.119Z" style="fill-rule:nonzero;"/>
        <path d="M98.051,31.64C100.094,31.64 102.613,29.934 102.613,28.188C102.613,27.137 101.681,26.462 100.352,26.462C98.348,26.462 95.829,28.128 95.829,29.914C95.829,31.005 96.801,31.64 98.051,31.64Z" style="fill-rule:nonzero;"/>
        <path d="M89.94,32.691L92.737,30.628C93.967,29.735 94.443,28.724 94.482,27.97C94.482,26.859 93.471,26.026 92.28,26.026C91.447,26.026 90.832,26.343 90.435,26.998L90.574,20.749L89.94,20.749L89.94,32.691ZM91.784,26.819C92.419,26.819 92.895,27.275 92.895,27.89C92.895,28.922 91.527,30.906 90.495,31.56C90.435,31.223 90.396,30.568 90.396,29.596C90.396,29.061 90.435,28.406 90.515,27.652C90.812,27.097 91.229,26.819 91.784,26.819Z" style="fill-rule:nonzero;"/>
        <path d="M113.704,29.16C115.747,29.16 118.266,27.454 118.266,25.708C118.266,24.657 117.334,23.982 116.005,23.982C114.001,23.982 111.482,25.649 111.482,27.434C111.482,28.525 112.454,29.16 113.704,29.16Z" style="fill-rule:nonzero;"/>
        <path d="M105.593,30.211L108.39,28.148C109.62,27.256 110.096,26.244 110.135,25.49C110.135,24.379 109.124,23.546 107.933,23.546C107.1,23.546 106.485,23.863 106.088,24.518L106.227,18.269L105.593,18.269L105.593,30.211ZM107.437,24.339C108.072,24.339 108.548,24.796 108.548,25.411C108.548,26.442 107.18,28.426 106.148,29.081C106.088,28.743 106.049,28.089 106.049,27.117C106.049,26.581 106.088,25.926 106.168,25.173C106.465,24.617 106.882,24.339 107.437,24.339Z" style="fill-rule:nonzero;"/>
        <path d="M129.357,26.68C131.4,26.68 133.919,24.974 133.919,23.229C133.919,22.177 132.987,21.503 131.658,21.503C129.654,21.503 127.135,23.169 127.135,24.954C127.135,26.045 128.107,26.68 129.357,26.68Z" style="fill-rule:nonzero;"/>
        <path d="M145.01,24.201C147.053,24.201 149.572,22.495 149.572,20.749C149.572,19.697 148.64,19.023 147.311,19.023C145.307,19.023 142.788,20.689 142.788,22.475C142.788,23.566 143.76,24.201 145.01,24.201Z" style="fill-rule:nonzero;"/>
        <path d="M156.581,19.186L167.12,19.186" style="fill:none;stroke:black;stroke-width:0.77px;"/>
        <path d="M160.663,21.721C162.706,21.721 165.225,20.015 165.225,18.269C165.225,17.218 164.293,16.543 162.964,16.543C160.96,16.543 158.441,18.21 158.441,19.995C158.441,21.086 159.413,21.721 160.663,21.721Z" style="fill-rule:nonzero;"/>
        <path d="M151.312,22.772L154.109,20.709C155.339,19.816 155.815,18.805 155.854,18.051C155.854,16.94 154.843,16.107 153.653,16.107C152.819,16.107 152.204,16.424 151.808,17.079L151.947,10.83L151.312,10.83L151.312,22.772ZM153.157,16.9C153.791,16.9 154.267,17.357 154.267,17.972C154.267,19.003 152.899,20.987 151.867,21.642C151.808,21.304 151.768,20.65 151.768,19.678C151.768,19.142 151.808,18.487 151.887,17.734C152.185,17.178 152.601,16.9 153.157,16.9Z" style="fill-rule:nonzero;"/>
        <path d="M172.854,19.186L183.393,19.186" style="fill:none;stroke:black;stroke-width:0.77px;"/>
        <path d="M176.936,19.241C178.979,19.241 181.498,17.535 181.498,15.789C181.498,14.738 180.566,14.064 179.237,14.064C177.233,14.064 174.714,15.73 174.714,17.515C174.714,18.606 175.686,19.241 176.936,19.241Z" style="fill-rule:nonzero;"/>
        <path d="M167.585,20.293L170.382,18.229C171.612,17.337 172.088,16.325 172.127,15.571C172.127,14.46 171.116,13.627 169.925,13.627C169.092,13.627 168.477,13.945 168.081,14.599L168.219,8.35L167.585,8.35L167.585,20.293ZM169.43,14.421C170.064,14.421 170.54,14.877 170.54,15.492C170.54,16.523 169.172,18.507 168.14,19.162C168.081,18.825 168.041,18.17 168.041,17.198C168.041,16.662 168.081,16.008 168.16,15.254C168.457,14.698 168.874,14.421 169.43,14.421Z" style="fill-rule:nonzero;"/>
        <path d="M206.466,30.931L206.466,28.035L197.341,37.14L197.341,40.037L206.466,30.931Z" style="fill-rule:nonzero;"/>
        <path d="M228.163,30.931L228.163,28.035L219.038,37.14L219.038,40.037L228.163,30.931Z" style="fill-rule:nonzero;"/>
        <path d="M249.861,30.931L249.861,28.035L240.735,37.14L240.735,40.037L249.861,30.931Z" style="fill-rule:nonzero;"/>
        <path d="M271.248,30.931L271.248,28.035L262.123,37.14L262.123,40.037L271.248,30.931Z" style="fill-rule:nonzero;"/>
        <path d="M300.074,30.931L300.074,28.035L290.949,37.14L290.949,40.037L300.074,30.931Z" style="fill-rule:nonzero;"/>
        <path d="M321.617,30.931L321.617,28.035L312.491,37.14L312.491,40.037L321.617,30.931Z" style="fill-rule:nonzero;"/>
        <path d="M343.314,30.931L343.314,28.035L334.188,37.14L334.188,40.037L343.314,30.931Z" style="fill-rule:nonzero;"/>
        <path d="M364.856,30.931L364.856,28.035L355.731,37.14L355.731,40.037L364.856,30.931Z" style="fill-rule:nonzero;"/>
        <path d="M393.527,30.931L393.527,28.035L384.402,37.14L384.402,40.037L393.527,30.931Z" style="fill-rule:nonzero;"/>
        <path d="M415.225,30.931L415.225,28.035L406.099,37.14L406.099,40.037L415.225,30.931Z" style="fill-rule:nonzero;"/>
        <path d="M436.922,30.931L436.922,28.035L427.797,37.14L427.797,40.037L436.922,30.931Z" style="fill-rule:nonzero;"/>
        <path d="M458.309,30.931L458.309,28.035L449.184,37.14L449.184,40.037L458.309,30.931Z" style="fill-rule:nonzero;"/>
        <path d="M30.789,128.347C32.832,128.347 35.352,126.641 35.352,124.896C35.352,123.844 34.419,123.17 33.09,123.17C31.087,123.17 28.567,124.836 28.567,126.621C28.567,127.713 29.539,128.347 30.789,128.347Z" style="fill-rule:nonzero;"/>
        <path d="M22.678,129.399L25.475,127.336C26.705,126.443 27.181,125.431 27.221,124.677C27.221,123.567 26.209,122.733 25.019,122.733C24.186,122.733 23.571,123.051 23.174,123.705L23.313,117.457L22.678,117.457L22.678,129.399ZM24.523,123.527C25.158,123.527 25.634,123.983 25.634,124.598C25.634,125.63 24.265,127.613 23.233,128.268C23.174,127.931 23.134,127.276 23.134,126.304C23.134,125.768 23.174,125.114 23.253,124.36C23.551,123.805 23.967,123.527 24.523,123.527Z" style="fill-rule:nonzero;"/>
        <path d="M47.372,125.868C49.415,125.868 51.935,124.162 51.935,122.416C51.935,121.365 51.002,120.69 49.673,120.69C47.67,120.69 45.15,122.356 45.15,124.142C45.15,125.233 46.122,125.868 47.372,125.868Z" style="fill-rule:nonzero;"/>
        <path d="M39.261,126.919L42.058,124.856C43.288,123.963 43.764,122.952 43.804,122.198C43.804,121.087 42.792,120.254 41.602,120.254C40.769,120.254 40.154,120.571 39.757,121.226L39.896,114.977L39.261,114.977L39.261,126.919ZM41.106,121.047C41.741,121.047 42.217,121.503 42.217,122.118C42.217,123.15 40.848,125.134 39.816,125.788C39.757,125.451 39.717,124.796 39.717,123.824C39.717,123.289 39.757,122.634 39.836,121.88C40.134,121.325 40.55,121.047 41.106,121.047Z" style="fill-rule:nonzero;"/>
        <path d="M63.955,123.388C65.998,123.388 68.518,121.682 68.518,119.936C68.518,118.885 67.585,118.21 66.256,118.21C64.252,118.21 61.733,119.877 61.733,121.662C61.733,122.753 62.705,123.388 63.955,123.388Z" style="fill-rule:nonzero;"/>
        <path d="M55.844,124.439L58.641,122.376C59.871,121.484 60.347,120.472 60.387,119.718C60.387,118.607 59.375,117.774 58.185,117.774C57.351,117.774 56.737,118.091 56.34,118.746L56.479,112.497L55.844,112.497L55.844,124.439ZM57.689,118.567C58.324,118.567 58.8,119.024 58.8,119.639C58.8,120.67 57.431,122.654 56.399,123.309C56.34,122.971 56.3,122.317 56.3,121.345C56.3,120.809 56.34,120.154 56.419,119.401C56.717,118.845 57.133,118.567 57.689,118.567Z" style="fill-rule:nonzero;"/>
        <path d="M80.693,120.908C82.736,120.908 85.255,119.202 85.255,117.457C85.255,116.405 84.323,115.731 82.994,115.731C80.99,115.731 78.471,117.397 78.471,119.182C78.471,120.273 79.443,120.908 80.693,120.908Z" style="fill-rule:nonzero;"/>
        <path d="M72.582,121.96L75.379,119.897C76.609,119.004 77.085,117.992 77.124,117.238C77.124,116.127 76.113,115.294 74.923,115.294C74.089,115.294 73.474,115.612 73.078,116.266L73.217,110.018L72.582,110.018L72.582,121.96ZM74.427,116.088C75.061,116.088 75.537,116.544 75.537,117.159C75.537,118.191 74.169,120.174 73.137,120.829C73.078,120.492 73.038,119.837 73.038,118.865C73.038,118.329 73.078,117.675 73.157,116.921C73.455,116.365 73.871,116.088 74.427,116.088Z" style="fill-rule:nonzero;"/>
        <path d="M97.276,118.429C99.319,118.429 101.838,116.723 101.838,114.977C101.838,113.925 100.906,113.251 99.577,113.251C97.573,113.251 95.054,114.917 95.054,116.703C95.054,117.794 96.026,118.429 97.276,118.429Z" style="fill-rule:nonzero;"/>
        <path d="M89.165,119.48L91.962,117.417C93.192,116.524 93.668,115.512 93.707,114.759C93.707,113.648 92.696,112.815 91.505,112.815C90.672,112.815 90.057,113.132 89.661,113.787L89.799,107.538L89.165,107.538L89.165,119.48ZM91.009,113.608C91.644,113.608 92.12,114.064 92.12,114.679C92.12,115.711 90.752,117.695 89.72,118.349C89.661,118.012 89.621,117.357 89.621,116.385C89.621,115.85 89.661,115.195 89.74,114.441C90.037,113.886 90.454,113.608 91.009,113.608Z" style="fill-rule:nonzero;"/>
        <path d="M113.859,115.949C115.902,115.949 118.421,114.243 118.421,112.497C118.421,111.446 117.489,110.771 116.16,110.771C114.156,110.771 111.637,112.438 111.637,114.223C111.637,115.314 112.609,115.949 113.859,115.949Z" style="fill-rule:nonzero;"/>
        <path d="M105.748,117L108.545,114.937C109.775,114.045 110.251,113.033 110.29,112.279C110.29,111.168 109.279,110.335 108.088,110.335C107.255,110.335 106.64,110.652 106.243,111.307L106.382,105.058L105.748,105.058L105.748,117ZM107.592,111.128C108.227,111.128 108.703,111.585 108.703,112.2C108.703,113.231 107.335,115.215 106.303,115.87C106.243,115.532 106.204,114.878 106.204,113.906C106.204,113.37 106.243,112.715 106.323,111.962C106.62,111.406 107.037,111.128 107.592,111.128Z" style="fill-rule:nonzero;"/>
        <path d="M130.441,113.469C132.485,113.469 135.004,111.763 135.004,110.018C135.004,108.966 134.072,108.292 132.743,108.292C130.739,108.292 128.22,109.958 128.22,111.743C128.22,112.834 129.192,113.469 130.441,113.469Z" style="fill-rule:nonzero;"/>
        <path d="M122.33,114.521L125.127,112.458C126.357,111.565 126.834,110.553 126.873,109.799C126.873,108.688 125.861,107.855 124.671,107.855C123.838,107.855 123.223,108.173 122.826,108.827L122.965,102.578L122.33,102.578L122.33,114.521ZM124.175,108.649C124.81,108.649 125.286,109.105 125.286,109.72C125.286,110.751 123.917,112.735 122.886,113.39C122.826,113.053 122.787,112.398 122.787,111.426C122.787,110.89 122.826,110.236 122.906,109.482C123.203,108.926 123.62,108.649 124.175,108.649Z" style="fill-rule:nonzero;"/>
        <path d="M147.179,110.99C149.223,110.99 151.742,109.284 151.742,107.538C151.742,106.486 150.81,105.812 149.48,105.812C147.477,105.812 144.958,107.478 144.958,109.264C144.958,110.355 145.93,110.99 147.179,110.99Z" style="fill-rule:nonzero;"/>
        <path d="M139.068,112.041L141.865,109.978C143.095,109.085 143.571,108.073 143.611,107.32C143.611,106.209 142.599,105.376 141.409,105.376C140.576,105.376 139.961,105.693 139.564,106.348L139.703,100.099L139.068,100.099L139.068,112.041ZM140.913,106.169C141.548,106.169 142.024,106.625 142.024,107.24C142.024,108.272 140.655,110.256 139.624,110.91C139.564,110.573 139.525,109.918 139.525,108.946C139.525,108.411 139.564,107.756 139.644,107.002C139.941,106.447 140.358,106.169 140.913,106.169Z" style="fill-rule:nonzero;"/>
        <path d="M178.105,110.281L178.105,107.385L168.979,116.49L168.979,119.387L178.105,110.281Z" style="fill-rule:nonzero;"/>
        <path d="M201.042,110.281L201.042,107.385L191.917,116.49L191.917,119.387L201.042,110.281Z" style="fill-rule:nonzero;"/>
        <path d="M223.979,110.281L223.979,107.385L214.854,116.49L214.854,119.387L223.979,110.281Z" style="fill-rule:nonzero;"/>
        <path d="M247.071,110.281L247.071,107.385L237.946,116.49L237.946,119.387L247.071,110.281Z" style="fill-rule:nonzero;"/>
        <path d="M277.447,110.281L277.447,107.385L268.322,116.49L268.322,119.387L277.447,110.281Z" style="fill-rule:nonzero;"/>
        <path d="M300.384,110.281L300.384,107.385L291.259,116.49L291.259,119.387L300.384,110.281Z" style="fill-rule:nonzero;"/>
        <path d="M323.321,110.281L323.321,107.385L314.196,116.49L314.196,119.387L323.321,110.281Z" style="fill-rule:nonzero;"/>
        <path d="M346.413,110.281L346.413,107.385L337.288,116.49L337.288,119.387L346.413,110.281Z" style="fill-rule:nonzero;"/>
        <path d="M376.789,110.281L376.789,107.385L367.664,116.49L367.664,119.387L376.789,110.281Z" style="fill-rule:nonzero;"/>
        <path d="M399.727,110.281L399.727,107.385L390.601,116.49L390.601,119.387L399.727,110.281Z" style="fill-rule:nonzero;"/>
        <path d="M422.664,110.281L422.664,107.385L413.538,116.49L413.538,119.387L422.664,110.281Z" style="fill-rule:nonzero;"/>
        <path d="M445.756,110.281L445.756,107.385L436.63,116.49L436.63,119.387L445.756,110.281Z" style="fill-rule:nonzero;"/>
    </g>
</svg>
