<svg clip-rule="evenodd" fill-rule="evenodd" stroke-linejoin="round" stroke-miterlimit="2" viewBox="0 0 471 495" xmlns="http://www.w3.org/2000/svg"><path d="m44.685 88.487v19.837" fill="none" stroke="#000" stroke-width="2.48"/><path d="m48.095 88.487v19.837" fill="none" stroke="#000" stroke-width=".77"/><path d="m51.349 94.998c-.476 0-.912.417-.912.952 0 .457.456.893.912.893.536 0 .953-.436.953-.893 0-.535-.417-.952-.953-.952z" fill-rule="nonzero"/><path d="m51.349 99.957c-.476 0-.912.417-.912.953 0 .456.456.892.912.892.536 0 .953-.436.953-.892 0-.536-.417-.953-.953-.953z" fill-rule="nonzero"/><path d="m192.536 88.487v19.837" fill="none" stroke="#000" stroke-width=".77"/><path d="m285.215 88.487v19.837" fill="none" stroke="#000" stroke-width=".77"/><path d="m377.893 88.487v19.837" fill="none" stroke="#000" stroke-width=".77"/><path d="m470.571 88.487v19.837" fill="none" stroke="#000" stroke-width=".77"/><path d="m58.408 75.599c.016.128.239.176.511.176.415 0 .942-.128.942-.32.016-.686 0-1.133.159-2.011.591-.207 1.245-.527 1.996-.798.095 1.245.127 2.554.175 2.809 0 .096.224.128.495.128.479 0 1.149-.112 1.149-.303 0-2.538-.016-10.663-1.819-10.663-1.645 0-3.608 5.698-3.608 10.743zm2.937-7.327c.495 0 .511 1.485.575 2.379-.447.239-1.038.478-1.549.686.192-.894.479-3.033.974-3.065z" fill-rule="nonzero"/><path d="m64.648 70.06c.287.575.446 2.315.446 3.608 0 .51-.031.957-.079 1.229-.016.048-.016.08-.016.112 0 .431.526.734.926.734.223 0 .415-.096.431-.319.111-1.134.494-4.103 1.005-4.151.24-.032.351 2.442.415 3.863.016.399.431.591.83.591.367 0 .735-.16.751-.463.095-1.197 1.293-4.278 1.484-4.262.351.032.862 4.102.862 4.15.016.415.383.671.703.671.223 0 .431-.144.431-.463 0-1.357-.463-3.704-.831-5.172-.127-.479-.59-.974-1.069-.974-.351 0-.718.255-.958.942l-1.165 2.889c0-.399-.495-3.017-.527-3.209-.16-.638-.415-.909-.702-.909-.575 0-1.261 1.069-1.517 2.25-.032-.431-.463-1.356-.495-1.436-.079-.176-.191-.24-.335-.24-.271 0-.606.256-.606.479 0 .032 0 .064.016.08z" fill-rule="nonzero"/><path d="m72.931 75.248c-.112.335-.16.623-.16.83 0 .335.128.495.304.495.223 0 .526-.24.782-.734 1.995-3.736 2.729-6.338 5.028-9.355.048-.08.064-.159.064-.239 0-.272-.255-.479-.559-.479-.191 0-.415.08-.59.271-1.932 2.842-3.448 5.731-4.869 9.211z" fill-rule="nonzero"/><path d="m80.609 72.646c-.239-.064-.447-.16-.654-.192.063 1.15.063 1.724.095 2.634.399.479 1.166.607 2.985.607.4 0 .831 0 1.325-.016 1.677-.67 2.523-3.927 2.523-6.689 0-3.607-1.214-4.405-3.065-4.405-1.405 0-2.491.814-3.688 2.266-.096.671-.016 1.405-.128 2.57.16 0 .4-.239.511-.319.032.527.128 1.676.128 2.698 0 .303-.016.591-.032.846zm.814-4.15c.894-.783 2.043-1.166 2.762-1.166.958 0 1.357 1.006 1.357 2.028 0 1.325-.926 3.671-2.938 3.671-.271 0-.558-.032-.893-.112.031-.431.063-.989.063-1.564 0-.958-.079-2.011-.351-2.857z" fill-rule="nonzero"/><path d="m198.8 73.428c-.048.048-.08.112-.08.192 0 .431.798 1.277 1.245 1.277.303 0 4.932-5.124 7.822-8.141.032-.032.048-.064.048-.096 0-.351-.942-1.277-1.261-1.277-.048 0-.08.016-.112.048-2.347 1.963-5.555 5.635-7.662 7.997zm6.305-.622c-.048.063-.064.127-.064.175 0 .415.75 1.07 1.229 1.07.383 0 1.74-1.836 1.74-1.948 0-.383-.718-1.245-1.165-1.245-.639 0-1.277 1.197-1.74 1.948zm-5.619-5.38c-.032.048-.048.096-.048.16 0 .367.686 1.069 1.022 1.069.319-.319.606-.622.846-.894.447-.447.878-.957.878-1.133 0-.415-.607-1.117-.99-1.117-.495 0-1.341 1.596-1.708 1.915z" fill-rule="nonzero"/><path d="m291.633 73.428c-.048.048-.08.112-.08.192 0 .431.798 1.277 1.245 1.277.303 0 4.933-5.124 7.822-8.141.032-.032.048-.064.048-.096 0-.351-.942-1.277-1.261-1.277-.048 0-.08.016-.112.048-2.347 1.963-5.555 5.635-7.662 7.997zm6.305-.622c-.048.063-.064.127-.064.175 0 .415.751 1.07 1.229 1.07.384 0 1.74-1.836 1.74-1.948 0-.383-.718-1.245-1.165-1.245-.638 0-1.277 1.197-1.74 1.948zm-5.619-5.38c-.032.048-.048.096-.048.16 0 .367.687 1.069 1.022 1.069.319-.319.607-.622.846-.894.447-.447.878-.957.878-1.133 0-.415-.607-1.117-.99-1.117-.495 0-1.341 1.596-1.708 1.915z" fill-rule="nonzero"/><path d="m384.156 73.428c-.048.048-.08.112-.08.192 0 .431.798 1.277 1.245 1.277.304 0 4.933-5.124 7.822-8.141.032-.032.048-.064.048-.096 0-.351-.942-1.277-1.261-1.277-.048 0-.08.016-.112.048-2.346 1.963-5.555 5.635-7.662 7.997zm6.305-.622c-.047.063-.063.127-.063.175 0 .415.75 1.07 1.229 1.07.383 0 1.74-1.836 1.74-1.948 0-.383-.719-1.245-1.166-1.245-.638 0-1.277 1.197-1.74 1.948zm-5.619-5.38c-.031.048-.047.096-.047.16 0 .367.686 1.069 1.021 1.069.319-.319.607-.622.846-.894.447-.447.878-.957.878-1.133 0-.415-.606-1.117-.99-1.117-.494 0-1.34 1.596-1.708 1.915z" fill-rule="nonzero"/><path d="m161.23 157.918v19.838" fill="none" stroke="#000" stroke-width=".77"/><path d="m260.573 157.918v19.838" fill="none" stroke="#000" stroke-width=".77"/><path d="m359.915 157.918v19.838" fill="none" stroke="#000" stroke-width=".77"/><path d="m466.232 157.918v19.838" fill="none" stroke="#000" stroke-width=".77"/><path d="m469.641 157.918v19.838" fill="none" stroke="#000" stroke-width="2.48"/><path d="m462.977 164.429c-.476 0-.912.417-.912.952 0 .457.456.893.912.893.536 0 .952-.436.952-.893 0-.535-.416-.952-.952-.952z" fill-rule="nonzero"/><path d="m462.977 169.389c-.476 0-.912.416-.912.952 0 .456.456.893.912.893.536 0 .952-.437.952-.893 0-.536-.416-.952-.952-.952z" fill-rule="nonzero"/><path d="m24.067 144.631c.351-.319.511-.766.511-1.181 0-.335-.112-.67-.335-.926-.766.224-1.564.319-2.251.319-1.868 0-2.362-.702-2.362-2.043 0-1.085 1.133-4.102 2.218-4.102.783 0 1.262 2.474 1.804 2.474.639 0 .671-1.229.671-1.708 0-2.171-.958-3.416-2.123-3.416-1.676 0-3.847 2.921-3.847 6.385 0 1.884.526 4.677 3.112 4.677.878 0 1.884-.207 2.602-.479z" fill-rule="nonzero"/><path d="m25.694 139.491c.288.575.447 2.315.447 3.608 0 .511-.032.958-.08 1.229-.016.048-.016.08-.016.112 0 .431.527.734.926.734.224 0 .415-.096.431-.319.112-1.134.495-4.103 1.006-4.151.239-.032.351 2.443.415 3.863.016.399.431.591.83.591.367 0 .734-.16.75-.463.096-1.197 1.293-4.278 1.485-4.262.351.032.862 4.102.862 4.15.016.415.383.671.702.671.224 0 .431-.144.431-.463 0-1.357-.463-3.704-.83-5.172-.128-.479-.591-.974-1.069-.974-.352 0-.719.256-.958.942l-1.165 2.889c0-.399-.495-3.017-.527-3.208-.16-.639-.415-.91-.703-.91-.574 0-1.261 1.069-1.516 2.251-.032-.431-.463-1.357-.495-1.437-.08-.176-.192-.24-.335-.24-.272 0-.607.256-.607.479 0 .032 0 .064.016.08z" fill-rule="nonzero"/><path d="m33.978 144.679c-.112.335-.16.623-.16.83 0 .335.128.495.303.495.224 0 .527-.239.782-.734 1.996-3.736 2.73-6.338 5.029-9.355.048-.079.064-.159.064-.239 0-.271-.256-.479-.559-.479-.192 0-.415.08-.591.271-1.931 2.842-3.448 5.731-4.868 9.211z" fill-rule="nonzero"/><path d="m41.624 134.83c-.208 2.362-.415 6.226-.415 8.412 0 1.405.127 1.884.59 1.884.783 0 .527-2.777.687-3.384 2.538-1.165 3.033-.431 3.033-2.187v-.176c0-.494-.016-.734-.335-.734-.607 0-2.459.671-2.778.718v-.207c0-.623.096-1.58.112-2.139.862-.431 2.49-.511 3.24-.671.415-.063.447-1.021.447-1.724 0-.367-.096-.622-.782-.622-1.245 0-3.767.527-3.799.83z" fill-rule="nonzero"/><path d="m167.958 142.859c-.047.048-.079.112-.079.192 0 .431.798 1.277 1.245 1.277.303 0 4.932-5.124 7.822-8.141.032-.032.047-.064.047-.096 0-.351-.941-1.277-1.261-1.277-.047 0-.079.016-.111.048-2.347 1.963-5.555 5.635-7.663 7.997zm6.306-.622c-.048.064-.064.128-.064.175 0 .415.75 1.07 1.229 1.07.383 0 1.74-1.836 1.74-1.948 0-.383-.718-1.245-1.165-1.245-.639 0-1.277 1.198-1.74 1.948zm-5.619-5.38c-.032.048-.048.096-.048.16 0 .367.686 1.069 1.022 1.069.319-.319.606-.622.846-.894.447-.446.878-.957.878-1.133 0-.415-.607-1.117-.99-1.117-.495 0-1.341 1.596-1.708 1.915z" fill-rule="nonzero"/><path d="m267.301 142.859c-.048.048-.08.112-.08.192 0 .431.798 1.277 1.245 1.277.303 0 4.933-5.124 7.822-8.141.032-.032.048-.064.048-.096 0-.351-.942-1.277-1.261-1.277-.048 0-.08.016-.112.048-2.346 1.963-5.555 5.635-7.662 7.997zm6.305-.622c-.048.064-.064.128-.064.175 0 .415.751 1.07 1.23 1.07.383 0 1.739-1.836 1.739-1.948 0-.383-.718-1.245-1.165-1.245-.638 0-1.277 1.198-1.74 1.948zm-5.619-5.38c-.032.048-.048.096-.048.16 0 .367.687 1.069 1.022 1.069.319-.319.607-.622.846-.894.447-.446.878-.957.878-1.133 0-.415-.607-1.117-.99-1.117-.495 0-1.341 1.596-1.708 1.915z" fill-rule="nonzero"/><path d="m366.643 142.859c-.048.048-.08.112-.08.192 0 .431.799 1.277 1.246 1.277.303 0 4.932-5.124 7.821-8.141.032-.032.048-.064.048-.096 0-.351-.942-1.277-1.261-1.277-.048 0-.08.016-.112.048-2.346 1.963-5.555 5.635-7.662 7.997zm6.306-.622c-.048.064-.064.128-.064.175 0 .415.75 1.07 1.229 1.07.383 0 1.74-1.836 1.74-1.948 0-.383-.718-1.245-1.165-1.245-.639 0-1.277 1.198-1.74 1.948zm-5.619-5.38c-.032.048-.048.096-.048.16 0 .367.686 1.069 1.021 1.069.32-.319.607-.622.846-.894.447-.446.878-.957.878-1.133 0-.415-.606-1.117-.989-1.117-.495 0-1.341 1.596-1.708 1.915z" fill-rule="nonzero"/><path d="m164.95 243.467v19.838" fill="none" stroke="#000" stroke-width=".77"/><path d="m266.772 243.467v19.838" fill="none" stroke="#000" stroke-width=".77"/><path d="m368.749 243.467v19.838" fill="none" stroke="#000" stroke-width=".77"/><path d="m470.571 243.467v19.838" fill="none" stroke="#000" stroke-width=".77"/><path d="m53.8 224.45c-.016 1.005-.079 1.819-.191 3.065-.591.59-.878 1.229-.878 1.771 0 .735.511 1.293 1.421 1.293 2.713 0 4.326-2.681 4.326-4.341 0-.974-.463-1.788-1.453-2.06.83-1.436 1.149-2.474 1.149-3.176 0-.958-.59-1.309-1.325-1.309-2.857 0-4.198 3.863-4.198 4.134 0 .479.319.703.718.703.144 0 .288-.032.431-.08zm1.118 1.979c.351-.335.942-.559 1.436-.559.591 0 .926.272.926.99 0 .894-1.357 2.059-2.442 2.059h-.144c0-.878.08-1.788.224-2.49zm.096-3.911c.032-.191.782-1.005 1.293-1.005.127 0 .319.063.319.271 0 .479-.75 1.724-1.692 2.235-.016-.208-.032-.383-.032-.543 0-.383.048-.67.112-.958z" fill-rule="nonzero"/><path d="m60.52 218.144c0-.016-.032-.032-.063-.032-.224 0-1.054.384-1.054.511.016.256.016.639.016 1.134 0 2.793-.224 8.795-.224 10.87.623-.095 3.959-3.24 3.959-6.369 0-1.069-.463-1.516-1.101-1.516-.463 0-1.022.239-1.565.654.016-1.245.032-2.634.032-3.911zm-.143 7.567c.207-.288.654-.798.942-.798.143 0 .287.127.287.494 0 .495-.479 1.597-1.309 2.187 0-.494.064-1.468.08-1.883z" fill-rule="nonzero"/><path d="m64.301 225.04c.288.575.447 2.315.447 3.608 0 .511-.032.958-.08 1.229-.016.048-.016.08-.016.112 0 .431.527.734.926.734.224 0 .415-.096.431-.319.112-1.133.495-4.103 1.006-4.15.239-.032.351 2.442.415 3.863.016.399.431.59.83.59.367 0 .734-.159.75-.463.096-1.197 1.293-4.278 1.485-4.262.351.032.862 4.103.862 4.151.016.415.383.67.702.67.224 0 .431-.144.431-.463 0-1.357-.463-3.703-.83-5.172-.128-.479-.59-.974-1.069-.974-.352 0-.719.256-.958.942l-1.165 2.889c0-.399-.495-3.017-.527-3.208-.16-.639-.415-.91-.703-.91-.574 0-1.261 1.069-1.516 2.251-.032-.431-.463-1.357-.495-1.437-.08-.176-.191-.239-.335-.239-.271 0-.607.255-.607.479 0 .031 0 .063.016.079z" fill-rule="nonzero"/><path d="m72.585 230.228c-.112.336-.16.623-.16.83 0 .336.128.495.303.495.224 0 .527-.239.783-.734 1.995-3.735 2.729-6.337 5.028-9.354.048-.08.064-.16.064-.24 0-.271-.256-.479-.559-.479-.192 0-.415.08-.591.272-1.931 2.841-3.448 5.73-4.868 9.21z" fill-rule="nonzero"/><path d="m81.109 222.726c.559-.511 2.554-.272 3.368-.559.399-.096.639-1.612.639-2.123 0-.271-.128-.447-.559-.447-1.549 0-4.741.399-4.773.894-.08 1.293-.16 3.815-.16 6.194 0 1.5.032 2.953.128 3.99 1.469 0 2.267-.048 3.48-.096h.191c.719-.015 1.405-.031 1.405-2.186 0-.176-.112-.288-.543-.288h-.175c-1.118.064-2.059.16-2.889.176-.032-.607-.064-.862-.064-1.373.511-.16.926-.335 1.612-.527.862-.159.878-.159.878-1.005v-.783c0-.239-.08-.447-.447-.447-.527 0-1.405.399-2.059.591-.016-.447-.048-1.006-.048-1.485 0-.191 0-.383.016-.526z" fill-rule="nonzero"/><path d="m87.349 218.144c0-.016-.032-.032-.064-.032-.223 0-1.053.384-1.053.511.015.256.015.639.015 1.134 0 2.793-.223 8.795-.223 10.87.623-.095 3.959-3.24 3.959-6.369 0-1.069-.463-1.516-1.102-1.516-.463 0-1.021.239-1.564.654.016-1.245.032-2.634.032-3.911zm-.144 7.567c.208-.288.655-.798.942-.798.144 0 .287.127.287.494 0 .495-.478 1.597-1.309 2.187 0-.494.064-1.468.08-1.883z" fill-rule="nonzero"/><path d="m171.678 228.409c-.048.047-.08.111-.08.191 0 .431.798 1.277 1.245 1.277.304 0 4.933-5.124 7.822-8.141.032-.032.048-.064.048-.096 0-.351-.942-1.277-1.261-1.277-.048 0-.08.016-.112.048-2.346 1.964-5.555 5.635-7.662 7.998zm6.305-.623c-.048.064-.063.128-.063.176 0 .415.75 1.069 1.229 1.069.383 0 1.74-1.836 1.74-1.947 0-.384-.719-1.246-1.166-1.246-.638 0-1.277 1.198-1.74 1.948zm-5.619-5.38c-.032.048-.047.096-.047.16 0 .367.686 1.07 1.021 1.07.319-.32.607-.623.846-.894.447-.447.878-.958.878-1.134 0-.415-.606-1.117-.99-1.117-.494 0-1.34 1.596-1.708 1.915z" fill-rule="nonzero"/><path d="m273.5 228.409c-.048.047-.08.111-.08.191 0 .431.798 1.277 1.245 1.277.304 0 4.933-5.124 7.822-8.141.032-.032.048-.064.048-.096 0-.351-.942-1.277-1.261-1.277-.048 0-.08.016-.112.048-2.346 1.964-5.555 5.635-7.662 7.998zm6.305-.623c-.047.064-.063.128-.063.176 0 .415.75 1.069 1.229 1.069.383 0 1.74-1.836 1.74-1.947 0-.384-.719-1.246-1.166-1.246-.638 0-1.277 1.198-1.74 1.948zm-5.619-5.38c-.031.048-.047.096-.047.16 0 .367.686 1.07 1.021 1.07.319-.32.607-.623.846-.894.447-.447.878-.958.878-1.134 0-.415-.606-1.117-.989-1.117-.495 0-1.341 1.596-1.709 1.915z" fill-rule="nonzero"/><path d="m375.477 228.409c-.048.047-.08.111-.08.191 0 .431.798 1.277 1.245 1.277.304 0 4.933-5.124 7.822-8.141.032-.032.048-.064.048-.096 0-.351-.942-1.277-1.261-1.277-.048 0-.08.016-.112.048-2.346 1.964-5.555 5.635-7.662 7.998zm6.305-.623c-.047.064-.063.128-.063.176 0 .415.75 1.069 1.229 1.069.383 0 1.74-1.836 1.74-1.947 0-.384-.719-1.246-1.166-1.246-.638 0-1.277 1.198-1.74 1.948zm-5.618-5.38c-.032.048-.048.096-.048.16 0 .367.686 1.07 1.021 1.07.32-.32.607-.623.846-.894.447-.447.878-.958.878-1.134 0-.415-.606-1.117-.989-1.117-.495 0-1.341 1.596-1.708 1.915z" fill-rule="nonzero"/><path d="m162.935 312.744v19.837" fill="none" stroke="#000" stroke-width=".77"/><path d="m263.517 312.744v19.837" fill="none" stroke="#000" stroke-width=".77"/><path d="m364.1 312.744v19.837" fill="none" stroke="#000" stroke-width=".77"/><path d="m467.937 312.744v19.837" fill="none" stroke="#000" stroke-width=".77"/><path d="m470.571 312.744v19.837" fill="none" stroke="#000" stroke-width=".77"/><path d="m22.731 297.058c-.239-.064-.447-.16-.654-.192.064 1.149.064 1.724.095 2.634.4.479 1.166.606 2.986.606.399 0 .83 0 1.325-.016 1.676-.67 2.522-3.926 2.522-6.688 0-3.608-1.214-4.406-3.065-4.406-1.405 0-2.49.814-3.688 2.267-.095.67-.016 1.405-.127 2.57.159 0 .399-.239.51-.319.032.527.128 1.676.128 2.697 0 .304-.016.591-.032.847zm.814-4.151c.894-.782 2.044-1.165 2.762-1.165.958 0 1.357 1.006 1.357 2.027 0 1.325-.926 3.672-2.937 3.672-.272 0-.559-.032-.894-.112.032-.431.064-.99.064-1.564 0-.958-.08-2.012-.352-2.858z" fill-rule="nonzero"/><path d="m31.159 287.576c0-.016-.032-.032-.064-.032-.223 0-1.054.383-1.054.51.016.256.016.639.016 1.134 0 2.793-.223 8.795-.223 10.871.622-.096 3.959-3.241 3.959-6.37 0-1.069-.463-1.516-1.102-1.516-.463 0-1.021.239-1.564.654.016-1.245.032-2.634.032-3.911zm-.144 7.566c.208-.287.655-.798.942-.798.144 0 .287.128.287.495 0 .495-.479 1.596-1.309 2.187 0-.495.064-1.469.08-1.884z" fill-rule="nonzero"/><path d="m34.94 294.472c.287.574.447 2.314.447 3.607 0 .511-.032.958-.08 1.229-.016.048-.016.08-.016.112 0 .431.527.734.926.734.223 0 .415-.095.431-.319.112-1.133.495-4.102 1.005-4.15.24-.032.352 2.442.415 3.863.016.399.431.59.831.59.367 0 .734-.159.75-.463.096-1.197 1.293-4.278 1.484-4.262.352.032.862 4.103.862 4.151.016.415.383.67.703.67.223 0 .431-.144.431-.463 0-1.357-.463-3.703-.83-5.172-.128-.479-.591-.974-1.07-.974-.351 0-.718.256-.958.942l-1.165 2.89c0-.399-.495-3.017-.527-3.209-.159-.638-.415-.91-.702-.91-.575 0-1.261 1.07-1.517 2.251-.031-.431-.462-1.357-.494-1.437-.08-.175-.192-.239-.336-.239-.271 0-.606.255-.606.479 0 .032 0 .064.016.08z" fill-rule="nonzero"/><path d="m169.663 297.84c-.048.048-.08.111-.08.191 0 .431.799 1.277 1.246 1.277.303 0 4.932-5.124 7.821-8.141.032-.032.048-.064.048-.096 0-.351-.942-1.277-1.261-1.277-.048 0-.08.016-.112.048-2.346 1.964-5.555 5.635-7.662 7.998zm6.306-.623c-.048.064-.064.128-.064.176 0 .415.75 1.069 1.229 1.069.383 0 1.74-1.835 1.74-1.947 0-.383-.718-1.245-1.165-1.245-.639 0-1.277 1.197-1.74 1.947zm-5.619-5.379c-.032.048-.048.095-.048.159 0 .367.686 1.07 1.021 1.07.32-.319.607-.623.846-.894.447-.447.878-.958.878-1.134 0-.415-.606-1.117-.989-1.117-.495 0-1.341 1.596-1.708 1.916z" fill-rule="nonzero"/><path d="m270.245 297.84c-.047.048-.079.111-.079.191 0 .431.798 1.277 1.245 1.277.303 0 4.932-5.124 7.822-8.141.032-.032.048-.064.048-.096 0-.351-.942-1.277-1.262-1.277-.047 0-.079.016-.111.048-2.347 1.964-5.555 5.635-7.663 7.998zm6.306-.623c-.048.064-.064.128-.064.176 0 .415.75 1.069 1.229 1.069.383 0 1.74-1.835 1.74-1.947 0-.383-.718-1.245-1.165-1.245-.639 0-1.277 1.197-1.74 1.947zm-5.619-5.379c-.032.048-.048.095-.048.159 0 .367.686 1.07 1.022 1.07.319-.319.606-.623.846-.894.447-.447.878-.958.878-1.134 0-.415-.607-1.117-.99-1.117-.495 0-1.341 1.596-1.708 1.916z" fill-rule="nonzero"/><path d="m370.828 297.84c-.048.048-.08.111-.08.191 0 .431.798 1.277 1.245 1.277.303 0 4.933-5.124 7.822-8.141.032-.032.048-.064.048-.096 0-.351-.942-1.277-1.261-1.277-.048 0-.08.016-.112.048-2.347 1.964-5.555 5.635-7.662 7.998zm6.305-.623c-.048.064-.064.128-.064.176 0 .415.75 1.069 1.229 1.069.383 0 1.74-1.835 1.74-1.947 0-.383-.718-1.245-1.165-1.245-.638 0-1.277 1.197-1.74 1.947zm-5.619-5.379c-.032.048-.048.095-.048.159 0 .367.687 1.07 1.022 1.07.319-.319.606-.623.846-.894.447-.447.878-.958.878-1.134 0-.415-.607-1.117-.99-1.117-.495 0-1.341 1.596-1.708 1.916z" fill-rule="nonzero"/><path d="m164.95 397.053v19.837" fill="none" stroke="#000" stroke-width=".77"/><path d="m266.772 397.053v19.837" fill="none" stroke="#000" stroke-width=".77"/><path d="m368.749 397.053v19.837" fill="none" stroke="#000" stroke-width=".77"/><path d="m470.571 397.053v19.837" fill="none" stroke="#000" stroke-width=".77"/><path d="m48.954 384.32c.016.128.24.176.511.176.415 0 .942-.128.942-.32.016-.686 0-1.133.159-2.011.591-.208 1.246-.527 1.996-.798.096 1.245.128 2.554.175 2.809 0 .096.224.128.495.128.479 0 1.15-.112 1.15-.303 0-2.538-.016-10.664-1.82-10.664-1.644 0-3.608 5.699-3.608 10.744zm2.937-7.327c.495 0 .511 1.485.575 2.378-.447.24-1.038.479-1.548.687.191-.894.479-3.033.973-3.065z" fill-rule="nonzero"/><path d="m55.194 378.781c.287.574.447 2.314.447 3.607 0 .511-.032.958-.08 1.23-.016.047-.016.079-.016.111 0 .431.527.735.926.735.223 0 .415-.096.431-.32.112-1.133.495-4.102 1.005-4.15.24-.032.352 2.442.415 3.863.016.399.431.591.831.591.367 0 .734-.16.75-.463.096-1.197 1.293-4.278 1.484-4.262.352.032.862 4.102.862 4.15.016.415.383.67.703.67.223 0 .431-.143.431-.462 0-1.357-.463-3.704-.83-5.172-.128-.479-.591-.974-1.07-.974-.351 0-.718.255-.958.942l-1.165 2.889c0-.399-.495-3.017-.527-3.209-.159-.638-.415-.91-.702-.91-.575 0-1.261 1.07-1.517 2.251-.031-.431-.462-1.357-.494-1.436-.08-.176-.192-.24-.336-.24-.271 0-.606.256-.606.479 0 .032 0 .064.016.08z" fill-rule="nonzero"/><path d="m63.477 383.969c-.112.335-.159.622-.159.83 0 .335.127.495.303.495.223 0 .527-.24.782-.735 1.995-3.735 2.73-6.337 5.028-9.354.048-.08.064-.16.064-.239 0-.272-.255-.479-.559-.479-.191 0-.415.08-.59.271-1.932 2.842-3.448 5.731-4.869 9.211z" fill-rule="nonzero"/><path d="m71.155 381.367c-.239-.064-.447-.16-.654-.192.064 1.15.064 1.724.096 2.634.399.479 1.165.607 2.985.607.399 0 .83 0 1.325-.016 1.676-.671 2.522-3.927 2.522-6.689 0-3.607-1.213-4.405-3.065-4.405-1.405 0-2.49.814-3.688 2.266-.095.671-.016 1.405-.127 2.57.159 0 .399-.239.511-.319.031.527.127 1.676.127 2.698 0 .303-.016.59-.032.846zm.814-4.151c.894-.782 2.044-1.165 2.762-1.165.958 0 1.357 1.006 1.357 2.027 0 1.325-.926 3.672-2.937 3.672-.272 0-.559-.032-.894-.112.032-.431.064-.99.064-1.564 0-.958-.08-2.012-.352-2.858z" fill-rule="nonzero"/><path d="m171.678 382.149c-.048.048-.08.112-.08.192 0 .431.798 1.277 1.245 1.277.304 0 4.933-5.125 7.822-8.142.032-.031.048-.063.048-.095 0-.351-.942-1.277-1.261-1.277-.048 0-.08.016-.112.048-2.346 1.963-5.555 5.634-7.662 7.997zm6.305-.623c-.048.064-.063.128-.063.176 0 .415.75 1.07 1.229 1.07.383 0 1.74-1.836 1.74-1.948 0-.383-.719-1.245-1.166-1.245-.638 0-1.277 1.197-1.74 1.947zm-5.619-5.379c-.032.048-.047.096-.047.16 0 .367.686 1.069 1.021 1.069.319-.319.607-.622.846-.894.447-.447.878-.958.878-1.133 0-.415-.606-1.118-.99-1.118-.494 0-1.34 1.597-1.708 1.916z" fill-rule="nonzero"/><path d="m273.5 382.149c-.048.048-.08.112-.08.192 0 .431.798 1.277 1.245 1.277.304 0 4.933-5.125 7.822-8.142.032-.031.048-.063.048-.095 0-.351-.942-1.277-1.261-1.277-.048 0-.08.016-.112.048-2.346 1.963-5.555 5.634-7.662 7.997zm6.305-.623c-.047.064-.063.128-.063.176 0 .415.75 1.07 1.229 1.07.383 0 1.74-1.836 1.74-1.948 0-.383-.719-1.245-1.166-1.245-.638 0-1.277 1.197-1.74 1.947zm-5.619-5.379c-.031.048-.047.096-.047.16 0 .367.686 1.069 1.021 1.069.319-.319.607-.622.846-.894.447-.447.878-.958.878-1.133 0-.415-.606-1.118-.989-1.118-.495 0-1.341 1.597-1.709 1.916z" fill-rule="nonzero"/><path d="m375.477 382.149c-.048.048-.08.112-.08.192 0 .431.798 1.277 1.245 1.277.304 0 4.933-5.125 7.822-8.142.032-.031.048-.063.048-.095 0-.351-.942-1.277-1.261-1.277-.048 0-.08.016-.112.048-2.346 1.963-5.555 5.634-7.662 7.997zm6.305-.623c-.047.064-.063.128-.063.176 0 .415.75 1.07 1.229 1.07.383 0 1.74-1.836 1.74-1.948 0-.383-.719-1.245-1.166-1.245-.638 0-1.277 1.197-1.74 1.947zm-5.618-5.379c-.032.048-.048.096-.048.16 0 .367.686 1.069 1.021 1.069.32-.319.607-.622.846-.894.447-.447.878-.958.878-1.133 0-.415-.606-1.118-.989-1.118-.495 0-1.341 1.597-1.708 1.916z" fill-rule="nonzero"/><path d="m162.47 466.484v19.837" fill="none" stroke="#000" stroke-width=".77"/><path d="m262.588 466.484v19.837" fill="none" stroke="#000" stroke-width=".77"/><path d="m362.86 466.484v19.837" fill="none" stroke="#000" stroke-width=".77"/><path d="m466.232 466.484v19.837" fill="none" stroke="#000" stroke-width=".77"/><path d="m469.641 466.484v19.837" fill="none" stroke="#000" stroke-width="2.48"/><path d="m24.067 453.352c.351-.319.511-.766.511-1.181 0-.335-.112-.671-.335-.926-.766.223-1.564.319-2.251.319-1.868 0-2.362-.702-2.362-2.043 0-1.086 1.133-4.103 2.218-4.103.783 0 1.262 2.475 1.804 2.475.639 0 .671-1.229.671-1.708 0-2.171-.958-3.416-2.123-3.416-1.676 0-3.847 2.921-3.847 6.385 0 1.883.526 4.677 3.112 4.677.878 0 1.884-.208 2.602-.479z" fill-rule="nonzero"/><path d="m25.694 448.212c.288.575.447 2.315.447 3.608 0 .51-.032.957-.08 1.229-.016.048-.016.08-.016.111 0 .431.527.735.926.735.224 0 .415-.096.431-.319.112-1.134.495-4.103 1.006-4.151.239-.032.351 2.442.415 3.863.016.399.431.591.83.591.367 0 .734-.16.75-.463.096-1.197 1.293-4.278 1.485-4.262.351.032.862 4.102.862 4.15.016.415.383.671.702.671.224 0 .431-.144.431-.463 0-1.357-.463-3.704-.83-5.172-.128-.479-.591-.974-1.069-.974-.352 0-.719.255-.958.942l-1.165 2.889c0-.399-.495-3.017-.527-3.209-.16-.638-.415-.909-.703-.909-.574 0-1.261 1.069-1.516 2.25-.032-.431-.463-1.356-.495-1.436-.08-.176-.192-.24-.335-.24-.272 0-.607.256-.607.479 0 .032 0 .064.016.08z" fill-rule="nonzero"/><path d="m33.978 453.4c-.112.335-.16.622-.16.83 0 .335.128.495.303.495.224 0 .527-.24.782-.734 1.996-3.736 2.73-6.338 5.029-9.355.048-.08.064-.159.064-.239 0-.272-.256-.479-.559-.479-.192 0-.415.08-.591.271-1.931 2.842-3.448 5.731-4.868 9.211z" fill-rule="nonzero"/><path d="m41.624 443.551c-.208 2.362-.415 6.225-.415 8.412 0 1.405.127 1.884.59 1.884.783 0 .527-2.778.687-3.384 2.538-1.166 3.033-.431 3.033-2.187v-.176c0-.495-.016-.734-.335-.734-.607 0-2.459.67-2.778.718v-.207c0-.623.096-1.581.112-2.139.862-.431 2.49-.511 3.24-.671.415-.064.447-1.021.447-1.724 0-.367-.096-.622-.782-.622-1.245 0-3.767.526-3.799.83z" fill-rule="nonzero"/><path d="m169.198 451.58c-.048.048-.08.112-.08.192 0 .431.799 1.277 1.246 1.277.303 0 4.932-5.124 7.821-8.141.032-.032.048-.064.048-.096 0-.351-.941-1.277-1.261-1.277-.048 0-.08.016-.111.048-2.347 1.963-5.556 5.635-7.663 7.997zm6.306-.622c-.048.063-.064.127-.064.175 0 .415.75 1.07 1.229 1.07.383 0 1.74-1.836 1.74-1.948 0-.383-.718-1.245-1.165-1.245-.639 0-1.277 1.197-1.74 1.948zm-5.619-5.38c-.032.048-.048.096-.048.16 0 .367.686 1.069 1.021 1.069.32-.319.607-.622.846-.894.447-.447.878-.957.878-1.133 0-.415-.606-1.117-.989-1.117-.495 0-1.341 1.596-1.708 1.915z" fill-rule="nonzero"/><path d="m269.316 451.58c-.048.048-.08.112-.08.192 0 .431.798 1.277 1.245 1.277.303 0 4.932-5.124 7.822-8.141.032-.032.048-.064.048-.096 0-.351-.942-1.277-1.261-1.277-.048 0-.08.016-.112.048-2.347 1.963-5.555 5.635-7.662 7.997zm6.305-.622c-.048.063-.064.127-.064.175 0 .415.75 1.07 1.229 1.07.383 0 1.74-1.836 1.74-1.948 0-.383-.718-1.245-1.165-1.245-.639 0-1.277 1.197-1.74 1.948zm-5.619-5.38c-.032.048-.048.096-.048.16 0 .367.687 1.069 1.022 1.069.319-.319.606-.622.846-.894.447-.447.878-.957.878-1.133 0-.415-.607-1.117-.99-1.117-.495 0-1.341 1.596-1.708 1.915z" fill-rule="nonzero"/><path d="m369.588 451.58c-.048.048-.08.112-.08.192 0 .431.798 1.277 1.245 1.277.303 0 4.933-5.124 7.822-8.141.032-.032.048-.064.048-.096 0-.351-.942-1.277-1.261-1.277-.048 0-.08.016-.112.048-2.346 1.963-5.555 5.635-7.662 7.997zm6.305-.622c-.048.063-.064.127-.064.175 0 .415.751 1.07 1.23 1.07.383 0 1.74-1.836 1.74-1.948 0-.383-.719-1.245-1.166-1.245-.638 0-1.277 1.197-1.74 1.948zm-5.619-5.38c-.032.048-.048.096-.048.16 0 .367.687 1.069 1.022 1.069.319-.319.607-.622.846-.894.447-.447.878-.957.878-1.133 0-.415-.607-1.117-.99-1.117-.495 0-1.341 1.596-1.708 1.915z" fill-rule="nonzero"/><path d="m37.024 95.568v-.839h-1.259v-4.499l-2.499 2.219v2.28h-2.699c.3-.76 1.119-1.8 2.459-3.139 1.219-1.22 1.919-2.299 2.119-3.199h-3.419c-.16 1.959-1.319 4.818-2.539 6.377v.8h4.079c0 .7-.02 1.1-.06 1.2-.12.22-.5.36-1.12.4l-.04.559h4.918l-.08-.579c-.959-.08-1.139-.18-1.139-.68 0-.06 0-.18.02-.38v-.52z" fill-rule="nonzero"/><path d="m37.024 105.62v-.84h-1.259v-4.498l-2.499 2.219v2.279h-2.699c.3-.759 1.119-1.799 2.459-3.138 1.219-1.22 1.919-2.3 2.119-3.199h-3.419c-.16 1.959-1.319 4.818-2.539 6.377v.8h4.079c0 .7-.02 1.1-.06 1.2-.12.22-.5.36-1.12.4l-.04.559h4.918l-.08-.579c-.959-.08-1.139-.18-1.139-.68 0-.06 0-.18.02-.38v-.52z" fill-rule="nonzero"/><path d="m.051 108.324h470.83" fill="none" stroke="#000" stroke-width=".46"/><path d="m.051 103.365h470.83" fill="none" stroke="#000" stroke-width=".46"/><path d="m.051 98.406h470.83" fill="none" stroke="#000" stroke-width=".46"/><path d="m.051 93.446h470.83" fill="none" stroke="#000" stroke-width=".46"/><path d="m.051 88.487h470.83" fill="none" stroke="#000" stroke-width=".46"/><path d="m14.145 107.666.754 3.67c.04.218.06.416.06.615 0 1.944-1.984 3.571-4.126 3.571-.655 0-1.29-.159-1.885-.457 1.528-.158 2.678-1.091 2.678-2.46 0-1.21-.992-2.479-2.261-2.479-1.449 0-2.44 1.111-2.44 2.559 0 2.023 1.646 3.352 3.63 3.352 2.658 0 4.92-1.725 4.92-4.205 0-.556-.873-4.483-.853-4.345 2.122-1.031 3.57-2.856 3.57-4.78 0-2.639-2.122-4.662-4.761-4.662-.039 0-.317.02-.793.059l-.873-4.185c2.956-2.5 4.305-5.158 4.305-8.074 0-2.242-.893-4.622-2.698-7.122-2.043 1.647-3.214 4.94-3.214 8.451 0 1.25.159 2.46.437 3.61-4.523 3.789-6.785 7.281-6.785 10.474 0 3.75 3.868 6.864 8.074 6.864.932 0 1.627-.139 2.261-.456zm-.059-26.066c.655.674.992 1.467.992 2.4 0 1.924-1.369 4.086-4.047 6.467-.139-.575-.179-1.21-.179-1.905 0-3.332 1.23-7.002 2.877-7.002.139 0 .258.02.357.04zm.417 25.253-1.409-6.626c.278-.02.436-.04.496-.04 1.706 0 2.896 1.607 2.896 3.254 0 1.309-.694 2.459-1.983 3.412zm-1.905-6.547 1.428 6.824c-.694.377-1.468.536-2.4.536-3.214 0-5.991-2.4-5.991-5.316 0-2.639 1.964-5.357 5.674-8.134l.833 3.968c-2.063.436-3.809 2.182-3.809 4.146 0 1.666 1.19 2.836 2.976 3.114-1.091-.674-1.627-1.527-1.627-2.539 0-1.369 1.27-2.381 2.916-2.599z" fill-rule="nonzero"/><path d="m38.313 52.053h-3.866l-.537 1.811h-3.468l4.128-10.986h3.697l4.128 10.986h-3.545zm-.721-2.378-1.212-3.943-1.197 3.943z" fill-rule="nonzero"/><path d="m25.468 37.034h22.162v23.402h-22.162z" fill="none" stroke="#000" stroke-width=".46"/><path d="m165.368 6.613v8.077c0 .33-.066.55-.176.638-.132.088-.33.132-.594.132h-1.717c-.264 0-.44-.022-.528-.088-.154-.11-.242-.352-.242-.682v-13.864c0-.265.022-.441.088-.529.11-.154.352-.242.682-.242h1.959c.22 0 .418.066.572.22.088.066.154.176.22.308l2.377 4.754c.022.066.066.154.132.242.044.088.088.132.132.132.066 0 .11-.044.176-.154.044-.11.066-.176.066-.198l2.377-4.71c.11-.22.242-.374.374-.462s.286-.132.462-.132h1.849c.33 0 .55.066.638.198.088.11.132.308.132.573v13.864c0 .33-.066.55-.176.638-.132.088-.33.132-.594.132h-1.717c-.33 0-.55-.066-.638-.176-.088-.132-.132-.33-.132-.594v-7.835c-.022-.088-.066-.132-.088-.132l-.066.044-1.717 4.138c-.088.242-.176.396-.264.462s-.198.11-.33.11h-.748c-.242 0-.441-.198-.595-.572l-1.76-4.314c-.066.022-.11.022-.154.022z" fill-rule="nonzero"/><path d="m179.538.055h2.773c.198 0 .352.044.462.11s.198.242.264.506l3.565 14.129c.022.088.044.176.044.286 0 .242-.154.374-.484.374h-2.156c-.221 0-.375-.066-.463-.176-.11-.11-.176-.264-.22-.44l-.44-1.672c-.066-.221-.198-.331-.44-.331h-3.015c-.242 0-.396.11-.44.331l-.418 1.738c-.022.154-.088.286-.176.396-.11.11-.264.154-.462.154h-2.135c-.286 0-.418-.132-.418-.418v-.132c.022-.066.044-.088.044-.11l3.389-14.129c.066-.264.154-.44.264-.506s.264-.11.462-.11zm.484 9.837h1.827c.154 0 .22-.11.154-.33l-.968-3.895c-.022-.066-.044-.11-.066-.132-.044-.044-.066-.066-.088-.088-.088.088-.132.154-.155.22l-.858 3.895c-.066.22 0 .33.154.33z" fill-rule="nonzero"/><path d="m187.68 14.69v-13.864c0-.265.022-.441.088-.529.11-.154.352-.242.682-.242h1.717c.33 0 .55.066.638.198.088.11.132.308.132.573v13.864c0 .33-.066.55-.176.638-.132.088-.33.132-.594.132h-1.717c-.264 0-.44-.022-.528-.088-.154-.11-.242-.352-.242-.682z" fill-rule="nonzero"/><path d="m192.698 14.69v-13.864c0-.265.022-.441.088-.529.11-.154.352-.242.682-.242h3.807c1.651 0 2.927.484 3.785 1.453.859.946 1.277 2.332 1.277 4.137v3.763c0 1.651-.264 2.949-.771 3.874-.814 1.452-2.244 2.178-4.313 2.178h-3.785c-.264 0-.44-.022-.528-.088-.154-.11-.242-.352-.242-.682zm3.257-11.29v8.825c0 .154.022.286.066.352s.154.088.33.088h.748c.682 0 1.166-.242 1.496-.704.331-.484.485-1.342.485-2.575v-3.213c0-.924-.088-1.628-.264-2.09-.287-.815-.859-1.211-1.673-1.211h-.792c-.176 0-.286.044-.33.154s-.066.22-.066.374z" fill-rule="nonzero"/><path d="m203.965 14.69v-13.864c0-.265.022-.441.088-.529.11-.154.352-.242.682-.242h7.219c.33 0 .55.066.638.198.088.11.132.308.132.573v1.562c0 .154-.044.286-.154.396-.11.088-.286.132-.528.132h-4.424c-.264 0-.396.11-.396.352v2.311c0 .264.088.396.242.396h3.477c.154 0 .264.044.375.11.088.066.132.176.132.308v2.003c0 .286-.154.44-.441.44h-3.499c-.198 0-.286.132-.286.374v3.125c0 .176.088.264.242.264h4.952c.242 0 .418.044.484.154.066.088.11.22.11.397v1.54c0 .264-.022.44-.088.528-.11.154-.352.242-.682.242h-7.505c-.264 0-.44-.022-.528-.088-.154-.11-.242-.352-.242-.682z" fill-rule="nonzero"/><path d="m221.129 7.582v-6.756c0-.265.022-.441.088-.529.11-.154.352-.242.682-.242h1.651c.33 0 .55.066.638.198.088.11.132.308.132.573v13.864c0 .264-.022.44-.088.528-.11.154-.352.242-.682.242h-1.409c-.264 0-.44-.044-.55-.132-.044-.022-.11-.132-.176-.308l-3.565-7.856v7.526c0 .33-.066.55-.176.638-.132.088-.33.132-.594.132h-1.651c-.264 0-.44-.022-.528-.088-.154-.11-.242-.352-.242-.682v-13.864c0-.265.022-.441.088-.529.11-.154.352-.242.682-.242h1.717c.396 0 .66.176.814.528z" fill-rule="nonzero"/><path d="m232.394.055h2.135c.154 0 .308.044.418.154s.198.242.22.396l1.936 8.275c.067.286.133.418.177.418.066 0 .132-.132.198-.418l1.848-8.319c.088-.33.33-.506.726-.506h2.157c.242 0 .352.11.352.33-.022.11-.022.176-.022.198l-3.301 14.151c-.066.308-.176.506-.308.594s-.308.132-.506.132h-2.641c-.154 0-.286-.044-.352-.132-.088-.088-.154-.242-.198-.44l-3.301-14.283c-.066-.264-.022-.418.088-.462.11-.066.22-.088.374-.088z" fill-rule="nonzero"/><path d="m243.462 9.848v-4.181c0-1.474.198-2.619.572-3.433.727-1.563 2.135-2.355 4.226-2.355 1.958 0 3.301.704 4.071 2.113.484.902.726 2.113.726 3.675v4.181c0 1.453-.198 2.597-.572 3.412-.726 1.584-2.135 2.376-4.225 2.376-1.629 0-2.839-.462-3.609-1.408-.793-.946-1.189-2.421-1.189-4.38zm6.338-.374v-3.433c0-1.144-.066-1.914-.198-2.333-.198-.638-.66-.968-1.342-.968s-1.145.308-1.343.946c-.132.419-.198 1.189-.198 2.355v3.433c0 1.145.066 1.915.198 2.333.198.638.661.968 1.343.968s1.144-.308 1.342-.946c.132-.418.198-1.188.198-2.355z" fill-rule="nonzero"/><path d="m254.421.055h2.552c.198 0 .33.044.44.154.067.066.111.154.177.286l1.738 4.446c0 .022.044.088.11.176.066-.066.088-.11.11-.154l1.981-4.424c.088-.176.176-.308.286-.374.088-.066.198-.11.308-.11h2.575c.33 0 .506.132.506.374 0 .088-.022.154-.044.22s-.044.088-.044.11l-3.785 7.351c-.066.11-.132.264-.198.418s-.11.33-.11.528v5.634c0 .33-.066.55-.176.638-.132.088-.33.132-.595.132h-1.716c-.264 0-.44-.022-.528-.088-.154-.11-.242-.352-.242-.682v-5.634c0-.198 0-.352-.022-.418s-.088-.242-.22-.528l-3.478-7.351c-.066-.176-.11-.308-.11-.396 0-.132.044-.22.154-.242.088-.044.198-.066.331-.066z" fill-rule="nonzero"/><path d="m269.649.055h2.773c.198 0 .352.044.463.11.11.066.198.242.264.506l3.565 14.129c.022.088.044.176.044.286 0 .242-.154.374-.484.374h-2.157c-.22 0-.374-.066-.462-.176-.11-.11-.176-.264-.22-.44l-.44-1.672c-.066-.221-.199-.331-.441-.331h-3.015c-.242 0-.396.11-.44.331l-.418 1.738c-.022.154-.088.286-.176.396-.11.11-.264.154-.462.154h-2.135c-.286 0-.418-.132-.418-.418v-.132c.022-.066.044-.088.044-.11l3.389-14.129c.066-.264.154-.44.264-.506s.264-.11.462-.11zm.485 9.837h1.826c.154 0 .22-.11.154-.33l-.968-3.895c-.022-.066-.044-.11-.066-.132-.044-.044-.066-.066-.088-.088-.088.088-.132.154-.154.22l-.858 3.895c-.066.22 0 .33.154.33z" fill-rule="nonzero"/><path d="m282.193 8.902v-1.936c0-.111.044-.221.154-.331s.22-.154.33-.154h4.379c.331 0 .485.154.485.485v4.269c0 1.078-.22 1.981-.661 2.663-.748 1.166-2.068 1.738-3.961 1.738-1.518 0-2.663-.286-3.433-.836-1.21-.88-1.805-2.487-1.805-4.819v-4.644c0-2.289.705-3.851 2.135-4.688.858-.506 2.113-.77 3.719-.77 1.431 0 2.377.11 2.839.352.264.132.396.352.396.683v1.87c0 .198 0 .308-.022.352-.066.154-.176.22-.374.22-.418-.11-.858-.198-1.32-.264-.462-.088-.947-.132-1.431-.132-1.166 0-1.958.352-2.332 1.035-.243.418-.353 1.122-.353 2.112v3.125c0 1.123.066 1.871.177 2.289.242.836.748 1.254 1.562 1.254.594 0 1.012-.198 1.276-.594.221-.33.331-.792.331-1.364v-1.013c0-.11-.022-.22-.066-.308s-.155-.132-.353-.132h-1.21c-.308 0-.462-.154-.462-.462z" fill-rule="nonzero"/><path d="m289.19 14.69v-13.864c0-.265.022-.441.088-.529.11-.154.352-.242.682-.242h7.218c.33 0 .551.066.639.198.088.11.132.308.132.573v1.562c0 .154-.044.286-.154.396-.11.088-.287.132-.529.132h-4.423c-.264 0-.396.11-.396.352v2.311c0 .264.088.396.242.396h3.477c.154 0 .264.044.374.11.088.066.132.176.132.308v2.003c0 .286-.154.44-.44.44h-3.499c-.198 0-.286.132-.286.374v3.125c0 .176.088.264.242.264h4.952c.242 0 .418.044.484.154.066.088.11.22.11.397v1.54c0 .264-.022.44-.088.528-.11.154-.352.242-.683.242h-7.504c-.264 0-.44-.022-.528-.088-.154-.11-.242-.352-.242-.682z" fill-rule="nonzero"/><path d="m392.756 37.646h.859v3.763h4.742v-3.763h.858v8.626h-.858v-4.137h-4.742v4.137h-.859z" fill-rule="nonzero"/><path d="m405.552 43.092h-4.478c0 .848.198 1.486.594 1.937.385.44.902.66 1.541.66.484 0 .946-.154 1.397-.462.121-.077.253-.176.396-.297s.286-.264.451-.429v.957c-.176.132-.341.253-.484.352-.154.099-.297.176-.429.242-.462.242-.924.363-1.386.363-.804 0-1.475-.275-2.036-.825-.605-.583-.902-1.331-.902-2.256 0-.869.275-1.606.814-2.189.55-.595 1.232-.892 2.036-.892.781 0 1.408.286 1.87.859.407.517.616 1.177.616 1.98zm-4.368-.671h3.444c-.088-.495-.275-.869-.561-1.111-.297-.253-.649-.374-1.056-.374-.452 0-.837.143-1.156.429-.297.264-.517.616-.671 1.056z" fill-rule="nonzero"/><path d="m409.578 40.385v.793c-.077-.033-.143-.055-.198-.066-.055-.022-.099-.033-.132-.044s-.077-.011-.11-.011c-.044-.011-.099-.011-.165-.011-.539 0-.979.264-1.32.781-.298.473-.441 1.012-.441 1.595v2.85h-.792v-5.887h.726l.055 1.013c.187-.308.353-.528.518-.66.33-.276.726-.408 1.188-.408.121 0 .242 0 .352.011.099.011.209.022.319.044z" fill-rule="nonzero"/><path d="m410.292 37.646h.804v3.73c.099-.154.209-.286.308-.396s.198-.209.297-.286c.385-.298.825-.441 1.331-.441.759 0 1.387.286 1.882.87.506.583.759 1.298.759 2.134 0 .859-.253 1.585-.759 2.19-.539.649-1.222.968-2.036.968-.451 0-.836-.099-1.166-.297-.209-.121-.418-.286-.616-.506l-.21.66h-.594zm.804 5.424v1.706c.099.121.209.231.308.33s.198.176.286.242c.319.231.693.341 1.1.341.561 0 1.034-.231 1.398-.693.363-.473.55-1.056.55-1.728 0-.704-.209-1.276-.617-1.727-.352-.385-.759-.572-1.221-.572-.495 0-.924.209-1.287.638-.341.407-.517.902-.517 1.463z" fill-rule="nonzero"/><path d="m416.419 40.385h.793v5.887h-.793zm.386-2.486c.154 0 .286.055.385.154s.154.253.154.44-.044.341-.143.44-.231.154-.396.154-.297-.055-.386-.176c-.099-.121-.143-.253-.143-.407 0-.242.055-.407.165-.484.111-.077.232-.121.364-.121z" fill-rule="nonzero"/><path d="m423.395 43.092h-4.479c0 .848.198 1.486.594 1.937.385.44.903.66 1.541.66.484 0 .946-.154 1.397-.462.121-.077.253-.176.396-.297s.286-.264.452-.429v.957c-.177.132-.342.253-.485.352-.154.099-.297.176-.429.242-.462.242-.924.363-1.386.363-.803 0-1.475-.275-2.036-.825-.605-.583-.902-1.331-.902-2.256 0-.869.275-1.606.814-2.189.55-.595 1.232-.892 2.036-.892.781 0 1.408.286 1.87.859.407.517.617 1.177.617 1.98zm-4.369-.671h3.444c-.088-.495-.275-.869-.561-1.111-.297-.253-.649-.374-1.056-.374-.451 0-.837.143-1.156.429-.297.264-.517.616-.671 1.056z" fill-rule="nonzero"/><path d="m427.893 37.646h.859v3.763h4.742v-3.763h.858v8.626h-.858v-4.137h-4.742v4.137h-.859z" fill-rule="nonzero"/><path d="m440.095 42.465v2.773c0 .121.033.231.088.33.055.088.154.132.297.132h.11c.033-.011.055-.011.088-.022.044-.011.088-.033.121-.044s.055-.022.077-.033v.616c-.132.044-.264.077-.396.099-.132.011-.231.022-.308.022-.374 0-.616-.099-.737-.297-.099-.121-.143-.396-.143-.803-.099.165-.187.308-.286.429s-.187.22-.286.297c-.385.297-.826.451-1.332.451-.539 0-1.001-.154-1.397-.473-.407-.341-.616-.77-.616-1.287 0-.649.33-1.134.99-1.442.242-.121.561-.22.968-.308.396-.088.87-.165 1.431-.242l.528-.055c0-.517-.132-.913-.385-1.199-.264-.297-.649-.44-1.156-.44-.187 0-.374.022-.561.077-.187.044-.385.121-.572.22-.099.055-.22.132-.341.209s-.264.187-.407.308v-.902c.627-.419 1.298-.628 2.013-.628.738 0 1.299.231 1.695.694.341.407.517.913.517 1.518zm-.803 1.155v-.352l-.374.044c-.913.099-1.563.22-1.937.385-.495.199-.748.518-.748.969 0 .132.033.264.088.385s.143.22.242.319.231.176.385.231c.143.055.308.088.495.088.496 0 .936-.198 1.31-.605.363-.407.539-.902.539-1.464z" fill-rule="nonzero"/><path d="m446.851 42.333v3.939h-.793v-3.884c0-.407-.154-.748-.451-1.012-.297-.275-.66-.407-1.078-.407-.561 0-1.035.231-1.442.693-.407.473-.605 1.001-.605 1.584v3.026h-.748v-5.887h.693l.033 1.101c.198-.297.429-.55.693-.748.429-.32.925-.485 1.464-.485.627 0 1.155.187 1.584.573.429.374.65.88.65 1.507z" fill-rule="nonzero"/><path d="m452.693 40.903v1.034c-.407-.385-.836-.671-1.265-.836-.121-.055-.253-.088-.385-.099-.132-.022-.264-.033-.396-.033-.606 0-1.112.231-1.497.682-.385.473-.583 1.023-.583 1.672 0 .661.198 1.222.605 1.695.407.451.913.671 1.519.671.385 0 .726-.077 1.045-.242s.638-.418.957-.748v1.045c-.385.242-.737.418-1.056.517s-.638.154-.957.154c-.826 0-1.53-.297-2.113-.88-.572-.605-.858-1.342-.858-2.201 0-.847.286-1.573.847-2.178.572-.606 1.287-.903 2.135-.903.429 0 .836.077 1.21.22.22.077.484.221.792.43z" fill-rule="nonzero"/><path d="m456.346 46.415c-.76 0-1.42-.275-1.992-.825-.605-.583-.913-1.331-.913-2.256 0-.869.264-1.606.803-2.189.55-.595 1.232-.892 2.036-.892.803 0 1.474.297 2.024.892.539.583.815 1.309.815 2.178 0 .914-.298 1.662-.881 2.256-.539.561-1.177.836-1.892.836zm-.077-.726c.528 0 1.001-.22 1.408-.66.396-.451.594-1.012.594-1.706 0-.715-.209-1.287-.638-1.738-.385-.407-.836-.616-1.353-.616-.529 0-.98.209-1.354.638-.407.473-.616 1.045-.616 1.727 0 .694.198 1.266.605 1.728.374.418.825.627 1.354.627z" fill-rule="nonzero"/><path d="m464.818 40.903v1.034c-.407-.385-.836-.671-1.265-.836-.121-.055-.253-.088-.386-.099-.132-.022-.264-.033-.396-.033-.605 0-1.111.231-1.496.682-.385.473-.583 1.023-.583 1.672 0 .661.198 1.222.605 1.695.407.451.913.671 1.518.671.385 0 .727-.077 1.046-.242s.638-.418.957-.748v1.045c-.385.242-.737.418-1.056.517s-.639.154-.958.154c-.825 0-1.529-.297-2.112-.88-.573-.605-.859-1.342-.859-2.201 0-.847.286-1.573.848-2.178.572-.606 1.287-.903 2.134-.903.429 0 .837.077 1.211.22.22.077.484.221.792.43z" fill-rule="nonzero"/><path d="m465.719 37.646h.804v5.336l2.707-2.597h1.122l-2.476 2.289 2.828 3.598h-1.089l-2.333-3.07-.759.705v2.365h-.804z" fill-rule="nonzero"/><path d="m.051 177.756h470.83" fill="none" stroke="#000" stroke-width=".46"/><path d="m.051 172.796h470.83" fill="none" stroke="#000" stroke-width=".46"/><path d="m.051 167.837h470.83" fill="none" stroke="#000" stroke-width=".46"/><path d="m.051 162.878h470.83" fill="none" stroke="#000" stroke-width=".46"/><path d="m.051 157.918h470.83" fill="none" stroke="#000" stroke-width=".46"/><path d="m14.145 177.097.754 3.67c.04.218.06.417.06.615 0 1.944-1.984 3.571-4.126 3.571-.655 0-1.29-.159-1.885-.456 1.528-.159 2.678-1.092 2.678-2.46 0-1.21-.992-2.48-2.261-2.48-1.449 0-2.44 1.111-2.44 2.559 0 2.023 1.646 3.353 3.63 3.353 2.658 0 4.92-1.726 4.92-4.206 0-.555-.873-4.483-.853-4.344 2.122-1.032 3.57-2.857 3.57-4.781 0-2.639-2.122-4.662-4.761-4.662-.039 0-.317.02-.793.059l-.873-4.185c2.956-2.5 4.305-5.158 4.305-8.074 0-2.242-.893-4.622-2.698-7.122-2.043 1.647-3.214 4.94-3.214 8.451 0 1.25.159 2.46.437 3.61-4.523 3.789-6.785 7.281-6.785 10.475 0 3.749 3.868 6.863 8.074 6.863.932 0 1.627-.138 2.261-.456zm-.059-26.066c.655.674.992 1.468.992 2.4 0 1.924-1.369 4.087-4.047 6.467-.139-.575-.179-1.21-.179-1.904 0-3.333 1.23-7.003 2.877-7.003.139 0 .258.02.357.04zm.417 25.253-1.409-6.626c.278-.02.436-.04.496-.04 1.706 0 2.896 1.607 2.896 3.254 0 1.309-.694 2.46-1.983 3.412zm-1.905-6.547 1.428 6.825c-.694.376-1.468.535-2.4.535-3.214 0-5.991-2.4-5.991-5.316 0-2.639 1.964-5.356 5.674-8.134l.833 3.968c-2.063.436-3.809 2.182-3.809 4.146 0 1.666 1.19 2.837 2.976 3.114-1.091-.674-1.627-1.527-1.627-2.539 0-1.369 1.27-2.38 2.916-2.599z" fill-rule="nonzero"/><path d="m.051 263.305h470.83" fill="none" stroke="#000" stroke-width=".46"/><path d="m.051 258.345h470.83" fill="none" stroke="#000" stroke-width=".46"/><path d="m.051 253.386h470.83" fill="none" stroke="#000" stroke-width=".46"/><path d="m.051 248.427h470.83" fill="none" stroke="#000" stroke-width=".46"/><path d="m.051 243.467h470.83" fill="none" stroke="#000" stroke-width=".46"/><path d="m14.145 262.646.754 3.67c.04.218.06.417.06.615 0 1.944-1.984 3.571-4.126 3.571-.655 0-1.29-.159-1.885-.456 1.528-.159 2.678-1.091 2.678-2.46 0-1.21-.992-2.48-2.261-2.48-1.449 0-2.44 1.111-2.44 2.559 0 2.024 1.646 3.353 3.63 3.353 2.658 0 4.92-1.726 4.92-4.206 0-.555-.873-4.483-.853-4.344 2.122-1.032 3.57-2.857 3.57-4.781 0-2.638-2.122-4.662-4.761-4.662-.039 0-.317.02-.793.06l-.873-4.186c2.956-2.5 4.305-5.158 4.305-8.074 0-2.242-.893-4.622-2.698-7.122-2.043 1.647-3.214 4.94-3.214 8.451 0 1.25.159 2.46.437 3.611-4.523 3.789-6.785 7.28-6.785 10.474 0 3.749 3.868 6.864 8.074 6.864.932 0 1.627-.139 2.261-.457zm-.059-26.066c.655.674.992 1.468.992 2.4 0 1.924-1.369 4.087-4.047 6.467-.139-.575-.179-1.21-.179-1.904 0-3.333 1.23-7.003 2.877-7.003.139 0 .258.02.357.04zm.417 25.253-1.409-6.626c.278-.02.436-.039.496-.039 1.706 0 2.896 1.606 2.896 3.253 0 1.309-.694 2.46-1.983 3.412zm-1.905-6.546 1.428 6.824c-.694.377-1.468.535-2.4.535-3.214 0-5.991-2.4-5.991-5.316 0-2.639 1.964-5.356 5.674-8.134l.833 3.968c-2.063.436-3.809 2.182-3.809 4.146 0 1.666 1.19 2.837 2.976 3.114-1.091-.674-1.627-1.527-1.627-2.539 0-1.369 1.27-2.38 2.916-2.598z" fill-rule="nonzero"/><path d="m19.784 213.977h6.352c1.059 0 1.872.26 2.44.782.567.537.843 1.182.843 1.949 0 .659-.199 1.212-.598 1.672-.276.307-.675.552-1.197.737.798.199 1.381.521 1.749.981.369.461.553 1.044.553 1.734 0 .568-.123 1.09-.399 1.535-.261.46-.614.828-1.074 1.089-.292.169-.721.276-1.289.353-.767.107-1.274.153-1.519.153h-5.861zm3.421 4.311h1.473c.537 0 .906-.092 1.105-.276.215-.184.307-.445.307-.783 0-.322-.092-.583-.307-.751-.199-.185-.568-.277-1.074-.277h-1.504zm0 4.311h1.734c.583 0 .998-.107 1.228-.306.245-.215.368-.491.368-.844 0-.323-.123-.583-.368-.783-.23-.184-.645-.291-1.243-.291h-1.719z" fill-rule="nonzero"/><path d="m14.774 208.132h20.302v23.402h-20.302z" fill="none" stroke="#000" stroke-width=".46"/><path d="m.051 332.581h470.83" fill="none" stroke="#000" stroke-width=".46"/><path d="m.051 327.622h470.83" fill="none" stroke="#000" stroke-width=".46"/><path d="m.051 322.662h470.83" fill="none" stroke="#000" stroke-width=".46"/><path d="m.051 317.703h470.83" fill="none" stroke="#000" stroke-width=".46"/><path d="m.051 312.744h470.83" fill="none" stroke="#000" stroke-width=".46"/><path d="m14.145 331.922.754 3.67c.04.219.06.417.06.615 0 1.944-1.984 3.571-4.126 3.571-.655 0-1.29-.159-1.885-.456 1.528-.159 2.678-1.091 2.678-2.46 0-1.21-.992-2.48-2.261-2.48-1.449 0-2.44 1.111-2.44 2.559 0 2.024 1.646 3.353 3.63 3.353 2.658 0 4.92-1.726 4.92-4.206 0-.555-.873-4.483-.853-4.344 2.122-1.032 3.57-2.857 3.57-4.781 0-2.638-2.122-4.662-4.761-4.662-.039 0-.317.02-.793.06l-.873-4.186c2.956-2.499 4.305-5.158 4.305-8.074 0-2.241-.893-4.622-2.698-7.121-2.043 1.646-3.214 4.939-3.214 8.45 0 1.25.159 2.46.437 3.611-4.523 3.789-6.785 7.28-6.785 10.474 0 3.749 3.868 6.864 8.074 6.864.932 0 1.627-.139 2.261-.457zm-.059-26.066c.655.675.992 1.468.992 2.4 0 1.925-1.369 4.087-4.047 6.467-.139-.575-.179-1.21-.179-1.904 0-3.333 1.23-7.003 2.877-7.003.139 0 .258.02.357.04zm.417 25.253-1.409-6.626c.278-.019.436-.039.496-.039 1.706 0 2.896 1.607 2.896 3.253 0 1.309-.694 2.46-1.983 3.412zm-1.905-6.546 1.428 6.824c-.694.377-1.468.535-2.4.535-3.214 0-5.991-2.4-5.991-5.316 0-2.638 1.964-5.356 5.674-8.133l.833 3.967c-2.063.437-3.809 2.182-3.809 4.146 0 1.667 1.19 2.837 2.976 3.115-1.091-.675-1.627-1.528-1.627-2.54 0-1.368 1.27-2.38 2.916-2.598z" fill-rule="nonzero"/><path d="m.051 416.89h470.83" fill="none" stroke="#000" stroke-width=".46"/><path d="m.051 411.931h470.83" fill="none" stroke="#000" stroke-width=".46"/><path d="m.051 406.972h470.83" fill="none" stroke="#000" stroke-width=".46"/><path d="m.051 402.012h470.83" fill="none" stroke="#000" stroke-width=".46"/><path d="m.051 397.053h470.83" fill="none" stroke="#000" stroke-width=".46"/><path d="m14.145 416.232.754 3.67c.04.218.06.416.06.615 0 1.944-1.984 3.57-4.126 3.57-.655 0-1.29-.158-1.885-.456 1.528-.159 2.678-1.091 2.678-2.46 0-1.21-.992-2.479-2.261-2.479-1.449 0-2.44 1.111-2.44 2.559 0 2.023 1.646 3.352 3.63 3.352 2.658 0 4.92-1.726 4.92-4.205 0-.556-.873-4.484-.853-4.345 2.122-1.031 3.57-2.856 3.57-4.781 0-2.638-2.122-4.661-4.761-4.661-.039 0-.317.019-.793.059l-.873-4.186c2.956-2.499 4.305-5.157 4.305-8.073 0-2.242-.893-4.623-2.698-7.122-2.043 1.646-3.214 4.939-3.214 8.451 0 1.249.159 2.46.437 3.61-4.523 3.789-6.785 7.28-6.785 10.474 0 3.75 3.868 6.864 8.074 6.864.932 0 1.627-.139 2.261-.456zm-.059-26.067c.655.675.992 1.468.992 2.401 0 1.924-1.369 4.086-4.047 6.467-.139-.576-.179-1.21-.179-1.905 0-3.332 1.23-7.002 2.877-7.002.139 0 .258.019.357.039zm.417 25.253-1.409-6.625c.278-.02.436-.04.496-.04 1.706 0 2.896 1.607 2.896 3.253 0 1.31-.694 2.46-1.983 3.412zm-1.905-6.546 1.428 6.824c-.694.377-1.468.536-2.4.536-3.214 0-5.991-2.401-5.991-5.317 0-2.638 1.964-5.356 5.674-8.133l.833 3.967c-2.063.437-3.809 2.183-3.809 4.146 0 1.667 1.19 2.837 2.976 3.115-1.091-.675-1.627-1.528-1.627-2.539 0-1.369 1.27-2.381 2.916-2.599z" fill-rule="nonzero"/><path d="m29.015 377.512h-3.867l-.537 1.811h-3.467l4.127-10.986h3.698l4.127 10.986h-3.544zm-.722-2.378-1.212-3.943-1.196 3.943z" fill-rule="nonzero"/><path d="m16.169 362.337h22.162v23.402h-22.162z" fill="none" stroke="#000" stroke-width=".46"/><path d="m.051 486.321h470.83" fill="none" stroke="#000" stroke-width=".46"/><path d="m.051 481.362h470.83" fill="none" stroke="#000" stroke-width=".46"/><path d="m.051 476.403h470.83" fill="none" stroke="#000" stroke-width=".46"/><path d="m.051 471.443h470.83" fill="none" stroke="#000" stroke-width=".46"/><path d="m.051 466.484h470.83" fill="none" stroke="#000" stroke-width=".46"/><path d="m14.145 485.663.754 3.67c.04.218.06.416.06.615 0 1.944-1.984 3.571-4.126 3.571-.655 0-1.29-.159-1.885-.457 1.528-.158 2.678-1.091 2.678-2.46 0-1.21-.992-2.479-2.261-2.479-1.449 0-2.44 1.111-2.44 2.559 0 2.023 1.646 3.352 3.63 3.352 2.658 0 4.92-1.725 4.92-4.205 0-.556-.873-4.483-.853-4.345 2.122-1.031 3.57-2.856 3.57-4.78 0-2.639-2.122-4.662-4.761-4.662-.039 0-.317.02-.793.059l-.873-4.185c2.956-2.5 4.305-5.158 4.305-8.074 0-2.242-.893-4.622-2.698-7.122-2.043 1.647-3.214 4.94-3.214 8.451 0 1.25.159 2.46.437 3.61-4.523 3.789-6.785 7.281-6.785 10.474 0 3.75 3.868 6.864 8.074 6.864.932 0 1.627-.139 2.261-.456zm-.059-26.066c.655.674.992 1.467.992 2.4 0 1.924-1.369 4.086-4.047 6.467-.139-.575-.179-1.21-.179-1.905 0-3.332 1.23-7.002 2.877-7.002.139 0 .258.02.357.04zm.417 25.253-1.409-6.626c.278-.02.436-.04.496-.04 1.706 0 2.896 1.607 2.896 3.254 0 1.309-.694 2.459-1.983 3.412zm-1.905-6.547 1.428 6.824c-.694.377-1.468.536-2.4.536-3.214 0-5.991-2.4-5.991-5.316 0-2.639 1.964-5.357 5.674-8.134l.833 3.968c-2.063.436-3.809 2.182-3.809 4.146 0 1.666 1.19 2.836 2.976 3.114-1.091-.674-1.627-1.527-1.627-2.539 0-1.369 1.27-2.381 2.916-2.599z" fill-rule="nonzero"/><path d="m71.239 103.421c2.043 0 4.563-1.706 4.563-3.452 0-1.051-.933-1.726-2.262-1.726-2.003 0-4.523 1.666-4.523 3.452 0 1.091.972 1.726 2.222 1.726z" fill-rule="nonzero"/><path d="m86.737 100.941c2.043 0 4.563-1.706 4.563-3.452 0-1.051-.933-1.726-2.262-1.726-2.003 0-4.523 1.667-4.523 3.452 0 1.091.972 1.726 2.222 1.726z" fill-rule="nonzero"/><path d="m102.235 98.461c2.043 0 4.563-1.706 4.563-3.451 0-1.052-.933-1.726-2.262-1.726-2.003 0-4.523 1.666-4.523 3.451 0 1.092.972 1.726 2.222 1.726z" fill-rule="nonzero"/><path d="m117.578 95.982c2.043 0 4.563-1.706 4.563-3.452 0-1.051-.933-1.726-2.262-1.726-2.003 0-4.523 1.666-4.523 3.452 0 1.091.972 1.726 2.222 1.726z" fill-rule="nonzero"/><path d="m133.076 93.502c2.043 0 4.563-1.706 4.563-3.452 0-1.051-.933-1.726-2.262-1.726-2.003 0-4.523 1.667-4.523 3.452 0 1.091.972 1.726 2.222 1.726z" fill-rule="nonzero"/><path d="m148.574 91.022c2.043 0 4.563-1.706 4.563-3.451 0-1.052-.933-1.726-2.262-1.726-2.003 0-4.523 1.666-4.523 3.451 0 1.091.972 1.726 2.222 1.726z" fill-rule="nonzero"/><path d="m143.43 89.832-1.904.635v-3.432l1.904-.635zm0-8.213v2.976l-1.904.635v-2.976h-.496v3.115l-1.032.337v1.805l1.032-.337v3.432l-1.032.337v1.805l1.032-.337v2.837h.496v-2.976l1.904-.635v2.976h.496v-3.115l1.032-.337v-1.805l-1.032.337v-3.432l1.032-.337v-1.805l-1.032.337v-2.837z" fill-rule="nonzero"/><path d="m164.072 88.543c2.043 0 4.563-1.706 4.563-3.452 0-1.052-.933-1.726-2.262-1.726-2.003 0-4.523 1.666-4.523 3.452 0 1.091.972 1.726 2.222 1.726z" fill-rule="nonzero"/><path d="m175.489 83.528h10.538" fill="none" stroke="#000" stroke-width=".77"/><path d="m179.57 86.063c2.043 0 4.563-1.706 4.563-3.452 0-1.051-.933-1.726-2.262-1.726-2.003 0-4.523 1.667-4.523 3.452 0 1.091.972 1.726 2.222 1.726z" fill-rule="nonzero"/><path d="m208.946 95.273v-2.896l-9.125 9.105v2.897z" fill-rule="nonzero"/><path d="m230.488 95.273v-2.896l-9.125 9.105v2.897z" fill-rule="nonzero"/><path d="m251.875 95.273v-2.896l-9.125 9.105v2.897z" fill-rule="nonzero"/><path d="m273.263 95.273v-2.896l-9.126 9.105v2.897z" fill-rule="nonzero"/><path d="m301.779 95.273v-2.896l-9.125 9.105v2.897z" fill-rule="nonzero"/><path d="m323.166 95.273v-2.896l-9.125 9.105v2.897z" fill-rule="nonzero"/><path d="m344.554 95.273v-2.896l-9.126 9.105v2.897z" fill-rule="nonzero"/><path d="m365.941 95.273v-2.896l-9.125 9.105v2.897z" fill-rule="nonzero"/><path d="m394.302 95.273v-2.896l-9.125 9.105v2.897z" fill-rule="nonzero"/><path d="m415.69 95.273v-2.896l-9.126 9.105v2.897z" fill-rule="nonzero"/><path d="m437.232 95.273v-2.896l-9.125 9.105v2.897z" fill-rule="nonzero"/><path d="m458.619 95.273v-2.896l-9.125 9.105v2.897z" fill-rule="nonzero"/><path d="m26.708 182.715h10.538" fill="none" stroke="#000" stroke-width=".77"/><path d="m30.789 185.25c2.043 0 4.563-1.706 4.563-3.451 0-1.052-.933-1.726-2.262-1.726-2.003 0-4.523 1.666-4.523 3.451 0 1.092.972 1.726 2.222 1.726z" fill-rule="nonzero"/><path d="m47.372 182.771c2.043 0 4.563-1.706 4.563-3.452 0-1.051-.933-1.726-2.262-1.726-2.003 0-4.523 1.666-4.523 3.452 0 1.091.972 1.726 2.222 1.726z" fill-rule="nonzero"/><path d="m63.955 180.291c2.043 0 4.563-1.706 4.563-3.452 0-1.051-.933-1.726-2.262-1.726-2.004 0-4.523 1.667-4.523 3.452 0 1.091.972 1.726 2.222 1.726z" fill-rule="nonzero"/><path d="m55.844 181.342 2.797-2.063c1.23-.892 1.706-1.904 1.746-2.658 0-1.111-1.012-1.944-2.202-1.944-.834 0-1.448.317-1.845.972l.139-6.249h-.635zm1.845-5.872c.635 0 1.111.457 1.111 1.072 0 1.031-1.369 3.015-2.401 3.67-.059-.338-.099-.992-.099-1.964 0-.536.04-1.191.119-1.944.298-.556.714-.834 1.27-.834z" fill-rule="nonzero"/><path d="m80.693 177.811c2.043 0 4.562-1.706 4.562-3.451 0-1.052-.932-1.726-2.261-1.726-2.004 0-4.523 1.666-4.523 3.451 0 1.091.972 1.726 2.222 1.726z" fill-rule="nonzero"/><path d="m97.276 175.332c2.043 0 4.562-1.706 4.562-3.452 0-1.052-.932-1.726-2.261-1.726-2.004 0-4.523 1.666-4.523 3.452 0 1.091.972 1.726 2.222 1.726z" fill-rule="nonzero"/><path d="m113.859 172.852c2.043 0 4.562-1.706 4.562-3.452 0-1.051-.932-1.726-2.261-1.726-2.004 0-4.523 1.667-4.523 3.452 0 1.091.972 1.726 2.222 1.726z" fill-rule="nonzero"/><path d="m130.441 170.372c2.044 0 4.563-1.706 4.563-3.451 0-1.052-.932-1.726-2.261-1.726-2.004 0-4.523 1.666-4.523 3.451 0 1.091.972 1.726 2.221 1.726z" fill-rule="nonzero"/><path d="m122.33 171.424 2.797-2.063c1.23-.893 1.707-1.905 1.746-2.659 0-1.111-1.012-1.944-2.202-1.944-.833 0-1.448.318-1.845.972l.139-6.249h-.635zm1.845-5.872c.635 0 1.111.456 1.111 1.071 0 1.031-1.369 3.015-2.4 3.67-.06-.337-.099-.992-.099-1.964 0-.536.039-1.19.119-1.944.297-.556.714-.833 1.269-.833z" fill-rule="nonzero"/><path d="m147.179 167.893c2.044 0 4.563-1.706 4.563-3.452 0-1.052-.932-1.726-2.262-1.726-2.003 0-4.522 1.666-4.522 3.452 0 1.091.972 1.726 2.221 1.726z" fill-rule="nonzero"/><path d="m178.105 164.705v-2.897l-9.126 9.106v2.896z" fill-rule="nonzero"/><path d="m201.042 164.705v-2.897l-9.125 9.106v2.896z" fill-rule="nonzero"/><path d="m223.979 164.705v-2.897l-9.125 9.106v2.896z" fill-rule="nonzero"/><path d="m247.071 164.705v-2.897l-9.125 9.106v2.896z" fill-rule="nonzero"/><path d="m277.447 164.705v-2.897l-9.125 9.106v2.896z" fill-rule="nonzero"/><path d="m300.384 164.705v-2.897l-9.125 9.106v2.896z" fill-rule="nonzero"/><path d="m323.321 164.705v-2.897l-9.125 9.106v2.896z" fill-rule="nonzero"/><path d="m346.413 164.705v-2.897l-9.125 9.106v2.896z" fill-rule="nonzero"/><path d="m376.789 164.705v-2.897l-9.125 9.106v2.896z" fill-rule="nonzero"/><path d="m399.727 164.705v-2.897l-9.126 9.106v2.896z" fill-rule="nonzero"/><path d="m422.664 164.705v-2.897l-9.126 9.106v2.896z" fill-rule="nonzero"/><path d="m445.756 164.705v-2.897l-9.126 9.106v2.896z" fill-rule="nonzero"/><path d="m30.789 255.921c2.043 0 4.563-1.706 4.563-3.451 0-1.052-.933-1.726-2.262-1.726-2.003 0-4.523 1.666-4.523 3.452 0 1.091.972 1.725 2.222 1.725z" fill-rule="nonzero"/><path d="m22.678 256.973 2.797-2.063c1.23-.893 1.706-1.905 1.746-2.659 0-1.11-1.012-1.944-2.202-1.944-.833 0-1.448.318-1.845.972l.139-6.248h-.635zm1.845-5.872c.635 0 1.111.456 1.111 1.071 0 1.032-1.369 3.015-2.401 3.67-.059-.337-.099-.992-.099-1.964 0-.536.04-1.19.119-1.944.298-.555.714-.833 1.27-.833z" fill-rule="nonzero"/><path d="m47.837 253.442c2.043 0 4.563-1.706 4.563-3.452 0-1.051-.933-1.726-2.262-1.726-2.004 0-4.523 1.666-4.523 3.452 0 1.091.972 1.726 2.222 1.726z" fill-rule="nonzero"/><path d="m64.885 250.962c2.043 0 4.562-1.706 4.562-3.452 0-1.051-.932-1.726-2.261-1.726-2.004 0-4.523 1.667-4.523 3.452 0 1.091.972 1.726 2.222 1.726z" fill-rule="nonzero"/><path d="m56.774 252.013 2.797-2.063c1.23-.892 1.706-1.904 1.745-2.658 0-1.111-1.011-1.944-2.201-1.944-.834 0-1.449.317-1.845.972l.139-6.249h-.635zm1.845-5.872c.634 0 1.11.457 1.11 1.072 0 1.031-1.368 3.015-2.4 3.67-.059-.338-.099-.992-.099-1.964 0-.536.04-1.191.119-1.944.298-.556.714-.834 1.27-.834z" fill-rule="nonzero"/><path d="m82.088 248.482c2.043 0 4.562-1.706 4.562-3.451 0-1.052-.932-1.726-2.261-1.726-2.004 0-4.523 1.666-4.523 3.451 0 1.092.972 1.726 2.222 1.726z" fill-rule="nonzero"/><path d="m73.977 249.534 2.797-2.063c1.23-.893 1.706-1.905 1.745-2.659 0-1.111-1.011-1.944-2.202-1.944-.833 0-1.448.318-1.845.972l.139-6.248h-.634zm1.844-5.872c.635 0 1.111.456 1.111 1.071 0 1.032-1.368 3.015-2.4 3.67-.06-.337-.099-.992-.099-1.964 0-.536.039-1.19.119-1.944.297-.555.714-.833 1.269-.833z" fill-rule="nonzero"/><path d="m99.135 246.003c2.044 0 4.563-1.706 4.563-3.452 0-1.051-.932-1.726-2.261-1.726-2.004 0-4.523 1.666-4.523 3.452 0 1.091.972 1.726 2.221 1.726z" fill-rule="nonzero"/><path d="m116.183 243.523c2.044 0 4.563-1.706 4.563-3.452 0-1.051-.932-1.726-2.262-1.726-2.003 0-4.523 1.667-4.523 3.452 0 1.091.972 1.726 2.222 1.726z" fill-rule="nonzero"/><path d="m129.15 238.508h10.538" fill="none" stroke="#000" stroke-width=".77"/><path d="m133.231 241.043c2.043 0 4.563-1.706 4.563-3.451 0-1.052-.933-1.726-2.262-1.726-2.003 0-4.523 1.666-4.523 3.451 0 1.091.972 1.726 2.222 1.726z" fill-rule="nonzero"/><path d="m123.88 242.095 2.797-2.063c1.23-.893 1.706-1.905 1.746-2.659 0-1.111-1.012-1.944-2.202-1.944-.833 0-1.448.318-1.845.972l.139-6.249h-.635zm1.845-5.872c.635 0 1.111.456 1.111 1.071 0 1.032-1.369 3.015-2.4 3.67-.06-.337-.1-.992-.1-1.964 0-.536.04-1.19.119-1.944.298-.556.715-.833 1.27-.833z" fill-rule="nonzero"/><path d="m146.197 238.508h10.539" fill="none" stroke="#000" stroke-width=".77"/><g fill-rule="nonzero"><path d="m150.279 238.564c2.043 0 4.563-1.706 4.563-3.452 0-1.052-.933-1.726-2.262-1.726-2.004 0-4.523 1.666-4.523 3.452 0 1.091.972 1.726 2.222 1.726z"/><path d="m140.928 239.615 2.797-2.063c1.23-.893 1.706-1.905 1.746-2.658 0-1.111-1.012-1.944-2.202-1.944-.833 0-1.448.317-1.845.972l.139-6.249h-.635zm1.845-5.872c.635 0 1.111.456 1.111 1.071 0 1.032-1.369 3.016-2.401 3.67-.059-.337-.099-.992-.099-1.964 0-.535.04-1.19.119-1.944.298-.555.714-.833 1.27-.833z"/><path d="m181.824 250.254v-2.897l-9.125 9.106v2.896z"/><path d="m205.381 250.254v-2.897l-9.125 9.106v2.896z"/><path d="m228.938 250.254v-2.897l-9.125 9.106v2.896z"/><path d="m252.65 250.254v-2.897l-9.125 9.106v2.896z"/><path d="m283.646 250.254v-2.897l-9.125 9.106v2.896z"/><path d="m307.203 250.254v-2.897l-9.125 9.106v2.896z"/><path d="m330.915 250.254v-2.897l-9.125 9.106v2.896z"/><path d="m354.472 250.254v-2.897l-9.125 9.106v2.896z"/><path d="m385.623 250.254v-2.897l-9.125 9.106v2.896z"/><path d="m409.18 250.254v-2.897l-9.125 9.106v2.896z"/><path d="m432.737 250.254v-2.897l-9.125 9.106v2.896z"/><path d="m456.449 250.254v-2.897l-9.125 9.106v2.896z"/><path d="m30.789 337.596c2.043 0 4.563-1.706 4.563-3.452 0-1.051-.933-1.726-2.262-1.726-2.003 0-4.523 1.667-4.523 3.452 0 1.091.972 1.726 2.222 1.726z"/><path d="m22.678 338.647 2.797-2.063c1.23-.892 1.706-1.904 1.746-2.658 0-1.111-1.012-1.944-2.202-1.944-.833 0-1.448.317-1.845.972l.139-6.249h-.635zm1.845-5.872c.635 0 1.111.457 1.111 1.072 0 1.031-1.369 3.015-2.401 3.67-.059-.338-.099-.992-.099-1.964 0-.536.04-1.191.119-1.944.298-.556.714-.834 1.27-.834z"/><path d="m47.682 335.116c2.043 0 4.563-1.706 4.563-3.451 0-1.052-.933-1.726-2.262-1.726-2.003 0-4.523 1.666-4.523 3.451 0 1.092.972 1.726 2.222 1.726z"/><path d="m39.571 336.168 2.797-2.063c1.23-.893 1.706-1.905 1.746-2.659 0-1.111-1.012-1.944-2.202-1.944-.833 0-1.448.318-1.845.972l.139-6.248h-.635zm1.845-5.872c.635 0 1.111.456 1.111 1.071 0 1.032-1.369 3.015-2.401 3.67-.059-.337-.099-.992-.099-1.964 0-.536.04-1.19.119-1.944.298-.555.714-.833 1.27-.833z"/><path d="m64.42 332.637c2.043 0 4.562-1.706 4.562-3.452 0-1.051-.932-1.726-2.261-1.726-2.004 0-4.523 1.666-4.523 3.452 0 1.091.972 1.726 2.222 1.726z"/><path d="m56.309 333.688 2.797-2.063c1.23-.893 1.706-1.904 1.746-2.658 0-1.111-1.012-1.944-2.202-1.944-.834 0-1.449.317-1.845.972l.139-6.249h-.635zm1.845-5.872c.634 0 1.111.456 1.111 1.071 0 1.032-1.369 3.016-2.401 3.67-.059-.337-.099-.992-.099-1.964 0-.535.04-1.19.119-1.944.298-.555.714-.833 1.27-.833z"/><path d="m81.313 330.157c2.043 0 4.562-1.706 4.562-3.452 0-1.051-.932-1.726-2.261-1.726-2.004 0-4.523 1.667-4.523 3.452 0 1.091.972 1.726 2.222 1.726z"/><path d="m73.202 331.208 2.797-2.063c1.23-.892 1.706-1.904 1.745-2.658 0-1.111-1.011-1.944-2.202-1.944-.833 0-1.448.317-1.844.972l.138-6.249h-.634zm1.845-5.872c.634 0 1.11.457 1.11 1.072 0 1.031-1.368 3.015-2.4 3.67-.059-.338-.099-.992-.099-1.964 0-.536.04-1.191.119-1.944.297-.556.714-.834 1.27-.834z"/><path d="m98.206 327.677c2.043 0 4.562-1.706 4.562-3.451 0-1.052-.932-1.726-2.261-1.726-2.004 0-4.523 1.666-4.523 3.451 0 1.091.972 1.726 2.222 1.726z"/><path d="m90.094 328.729 2.798-2.063c1.229-.893 1.706-1.905 1.745-2.659 0-1.111-1.011-1.944-2.202-1.944-.833 0-1.448.318-1.845.972l.139-6.249h-.635zm1.845-5.872c.635 0 1.111.456 1.111 1.071 0 1.032-1.369 3.015-2.4 3.67-.06-.337-.099-.992-.099-1.964 0-.536.039-1.19.119-1.944.297-.556.714-.833 1.269-.833z"/><path d="m114.943 325.198c2.044 0 4.563-1.706 4.563-3.452 0-1.052-.932-1.726-2.261-1.726-2.004 0-4.523 1.666-4.523 3.452 0 1.091.972 1.726 2.221 1.726z"/><path d="m106.832 326.249 2.797-2.063c1.23-.893 1.706-1.905 1.746-2.658 0-1.111-1.012-1.944-2.202-1.944-.833 0-1.448.317-1.845.972l.139-6.249h-.635zm1.845-5.872c.635 0 1.111.456 1.111 1.071 0 1.032-1.369 3.016-2.4 3.67-.06-.337-.099-.992-.099-1.964 0-.535.039-1.19.119-1.944.297-.555.714-.833 1.269-.833z"/><path d="m131.836 322.718c2.044 0 4.563-1.706 4.563-3.452 0-1.051-.932-1.726-2.262-1.726-2.003 0-4.523 1.667-4.523 3.452 0 1.091.973 1.726 2.222 1.726z"/><path d="m123.725 323.769 2.797-2.063c1.23-.893 1.706-1.904 1.746-2.658 0-1.111-1.012-1.944-2.202-1.944-.833 0-1.448.317-1.845.972l.139-6.249h-.635zm1.845-5.872c.635 0 1.111.457 1.111 1.072 0 1.031-1.369 3.015-2.4 3.67-.06-.338-.1-.992-.1-1.964 0-.536.04-1.191.119-1.944.298-.556.715-.834 1.27-.834z"/><path d="m148.729 320.238c2.043 0 4.563-1.706 4.563-3.452 0-1.051-.933-1.725-2.262-1.725-2.003 0-4.523 1.666-4.523 3.451 0 1.091.972 1.726 2.222 1.726z"/><path d="m140.618 321.29 2.797-2.064c1.23-.892 1.706-1.904 1.746-2.658 0-1.111-1.012-1.944-2.202-1.944-.833 0-1.448.318-1.845.972l.139-6.249h-.635zm1.845-5.872c.635 0 1.111.456 1.111 1.071 0 1.031-1.369 3.015-2.4 3.67-.06-.337-.1-.992-.1-1.964 0-.536.04-1.19.119-1.944.298-.556.715-.833 1.27-.833z"/><path d="m179.809 319.53v-2.896l-9.125 9.105v2.896z"/><path d="m203.057 319.53v-2.896l-9.126 9.105v2.896z"/><path d="m226.459 319.53v-2.896l-9.126 9.105v2.896z"/><path d="m249.706 319.53v-2.896l-9.126 9.105v2.896z"/><path d="m280.392 319.53v-2.896l-9.126 9.105v2.896z"/><path d="m303.639 319.53v-2.896l-9.125 9.105v2.896z"/><path d="m327.041 319.53v-2.896l-9.125 9.105v2.896z"/><path d="m350.288 319.53v-2.896l-9.125 9.105v2.896z"/><path d="m380.974 319.53v-2.896l-9.125 9.105v2.896z"/><path d="m404.221 319.53v-2.896l-9.125 9.105v2.896z"/><path d="m427.623 319.53v-2.896l-9.125 9.105v2.896z"/><path d="m450.87 319.53v-2.896l-9.125 9.105v2.896z"/><path d="m30.789 411.987c2.043 0 4.563-1.706 4.563-3.452 0-1.052-.933-1.726-2.262-1.726-2.003 0-4.523 1.666-4.523 3.452 0 1.091.972 1.726 2.222 1.726z"/><path d="m47.837 409.507c2.043 0 4.563-1.706 4.563-3.452 0-1.051-.933-1.726-2.262-1.726-2.004 0-4.523 1.667-4.523 3.452 0 1.091.972 1.726 2.222 1.726z"/><path d="m64.885 407.027c2.043 0 4.562-1.706 4.562-3.452 0-1.051-.932-1.725-2.261-1.725-2.004 0-4.523 1.666-4.523 3.451 0 1.091.972 1.726 2.222 1.726z"/><path d="m82.088 404.547c2.043 0 4.562-1.706 4.562-3.451 0-1.052-.932-1.726-2.261-1.726-2.004 0-4.523 1.666-4.523 3.452 0 1.091.972 1.725 2.222 1.725z"/><path d="m99.135 402.068c2.044 0 4.563-1.706 4.563-3.452 0-1.051-.932-1.726-2.261-1.726-2.004 0-4.523 1.667-4.523 3.452 0 1.091.972 1.726 2.221 1.726z"/><path d="m116.183 399.588c2.044 0 4.563-1.706 4.563-3.452 0-1.051-.932-1.725-2.262-1.725-2.003 0-4.523 1.666-4.523 3.451 0 1.091.972 1.726 2.222 1.726z"/><path d="m111.039 398.398-1.904.635v-3.432l1.904-.635zm0-8.213v2.976l-1.904.635v-2.976h-.496v3.114l-1.032.338v1.805l1.032-.337v3.432l-1.032.337v1.805l1.032-.337v2.837h.496v-2.976l1.904-.635v2.976h.496v-3.115l1.032-.337v-1.805l-1.032.337v-3.432l1.032-.337v-1.805l-1.032.337v-2.837z"/><path d="m133.231 397.108c2.043 0 4.563-1.706 4.563-3.451 0-1.052-.933-1.726-2.262-1.726-2.003 0-4.523 1.666-4.523 3.452 0 1.091.972 1.725 2.222 1.725z"/></g><path d="m146.197 392.093h10.539" fill="none" stroke="#000" stroke-width=".77"/><path d="m150.279 394.629c2.043 0 4.563-1.706 4.563-3.452 0-1.051-.933-1.726-2.262-1.726-2.004 0-4.523 1.667-4.523 3.452 0 1.091.972 1.726 2.222 1.726z" fill-rule="nonzero"/><path d="m181.824 403.839v-2.896l-9.125 9.105v2.897z" fill-rule="nonzero"/><path d="m205.381 403.839v-2.896l-9.125 9.105v2.897z" fill-rule="nonzero"/><path d="m228.938 403.839v-2.896l-9.125 9.105v2.897z" fill-rule="nonzero"/><path d="m252.65 403.839v-2.896l-9.125 9.105v2.897z" fill-rule="nonzero"/><path d="m283.646 403.839v-2.896l-9.125 9.105v2.897z" fill-rule="nonzero"/><path d="m307.203 403.839v-2.896l-9.125 9.105v2.897z" fill-rule="nonzero"/><path d="m330.915 403.839v-2.896l-9.125 9.105v2.897z" fill-rule="nonzero"/><path d="m354.472 403.839v-2.896l-9.125 9.105v2.897z" fill-rule="nonzero"/><path d="m385.623 403.839v-2.896l-9.125 9.105v2.897z" fill-rule="nonzero"/><path d="m409.18 403.839v-2.896l-9.125 9.105v2.897z" fill-rule="nonzero"/><path d="m432.737 403.839v-2.896l-9.125 9.105v2.897z" fill-rule="nonzero"/><path d="m456.449 403.839v-2.896l-9.125 9.105v2.897z" fill-rule="nonzero"/><path d="m26.708 491.281h10.538" fill="none" stroke="#000" stroke-width=".77"/><path d="m30.789 493.816c2.043 0 4.563-1.706 4.563-3.452 0-1.051-.933-1.725-2.262-1.725-2.003 0-4.523 1.666-4.523 3.451 0 1.091.972 1.726 2.222 1.726z" fill-rule="nonzero"/><path d="m47.527 491.336c2.043 0 4.563-1.706 4.563-3.451 0-1.052-.933-1.726-2.262-1.726-2.003 0-4.523 1.666-4.523 3.452 0 1.091.972 1.725 2.222 1.725z" fill-rule="nonzero"/><path d="m64.265 488.857c2.043 0 4.562-1.706 4.562-3.452 0-1.051-.932-1.726-2.261-1.726-2.004 0-4.523 1.667-4.523 3.452 0 1.091.972 1.726 2.222 1.726z" fill-rule="nonzero"/><path d="m56.154 489.908 2.797-2.063c1.23-.893 1.706-1.904 1.746-2.658 0-1.111-1.012-1.944-2.202-1.944-.834 0-1.449.317-1.845.972l.139-6.249h-.635zm1.845-5.872c.634 0 1.111.457 1.111 1.072 0 1.031-1.369 3.015-2.401 3.669-.059-.337-.099-.991-.099-1.963 0-.536.04-1.191.119-1.945.298-.555.714-.833 1.27-.833z" fill-rule="nonzero"/><path d="m81.158 486.377c2.043 0 4.562-1.706 4.562-3.452 0-1.051-.932-1.725-2.261-1.725-2.004 0-4.523 1.666-4.523 3.451 0 1.091.972 1.726 2.222 1.726z" fill-rule="nonzero"/><path d="m97.896 483.897c2.043 0 4.562-1.706 4.562-3.451 0-1.052-.932-1.726-2.261-1.726-2.004 0-4.523 1.666-4.523 3.452 0 1.091.972 1.725 2.222 1.725z" fill-rule="nonzero"/><path d="m114.633 481.418c2.044 0 4.563-1.706 4.563-3.452 0-1.051-.932-1.726-2.261-1.726-2.004 0-4.523 1.666-4.523 3.452 0 1.091.972 1.726 2.221 1.726z" fill-rule="nonzero"/><path d="m131.371 478.938c2.044 0 4.563-1.706 4.563-3.452 0-1.051-.932-1.726-2.262-1.726-2.003 0-4.522 1.667-4.522 3.452 0 1.091.972 1.726 2.221 1.726z" fill-rule="nonzero"/><path d="m123.26 479.989 2.797-2.063c1.23-.892 1.706-1.904 1.746-2.658 0-1.111-1.012-1.944-2.202-1.944-.833 0-1.448.317-1.845.972l.139-6.249h-.635zm1.845-5.871c.635 0 1.111.456 1.111 1.071 0 1.031-1.369 3.015-2.4 3.67-.06-.338-.099-.992-.099-1.964 0-.536.039-1.19.119-1.944.297-.556.714-.833 1.269-.833z" fill-rule="nonzero"/><path d="m148.109 476.458c2.043 0 4.563-1.706 4.563-3.451 0-1.052-.933-1.726-2.262-1.726-2.003 0-4.523 1.666-4.523 3.451 0 1.092.972 1.726 2.222 1.726z" fill-rule="nonzero"/><path d="m179.345 473.27v-2.896l-9.126 9.105v2.897z" fill-rule="nonzero"/><path d="m202.437 473.27v-2.896l-9.126 9.105v2.897z" fill-rule="nonzero"/><path d="m225.684 473.27v-2.896l-9.126 9.105v2.897z" fill-rule="nonzero"/><path d="m248.776 473.27v-2.896l-9.125 9.105v2.897z" fill-rule="nonzero"/><path d="m279.462 473.27v-2.896l-9.125 9.105v2.897z" fill-rule="nonzero"/><path d="m302.709 473.27v-2.896l-9.125 9.105v2.897z" fill-rule="nonzero"/><path d="m325.801 473.27v-2.896l-9.125 9.105v2.897z" fill-rule="nonzero"/><path d="m349.048 473.27v-2.896l-9.125 9.105v2.897z" fill-rule="nonzero"/><path d="m379.734 473.27v-2.896l-9.125 9.105v2.897z" fill-rule="nonzero"/><path d="m402.826 473.27v-2.896l-9.125 9.105v2.897z" fill-rule="nonzero"/><path d="m426.073 473.27v-2.896l-9.125 9.105v2.897z" fill-rule="nonzero"/><path d="m449.165 473.27v-2.896l-9.125 9.105v2.897z" fill-rule="nonzero"/></svg>