<svg clip-rule="evenodd" fill-rule="evenodd" stroke-linejoin="round" stroke-miterlimit="2" viewBox="0 0 471 132" xmlns="http://www.w3.org/2000/svg"><path d="m40.346 24.145v19.837" fill="none" stroke="#000" stroke-width="2.48"/><path d="m43.755 24.145v19.837" fill="none" stroke="#000" stroke-width=".77"/><path d="m47.01 30.656c-.476 0-.913.417-.913.952 0 .457.457.893.913.893.536 0 .952-.436.952-.893 0-.535-.416-.952-.952-.952z" fill-rule="nonzero"/><path d="m47.01 35.615c-.476 0-.913.417-.913.953 0 .456.457.892.913.892.536 0 .952-.436.952-.892 0-.536-.416-.953-.952-.953z" fill-rule="nonzero"/><path d="m189.902 24.145v19.837" fill="none" stroke="#000" stroke-width=".77"/><path d="m283.51 24.145v19.837" fill="none" stroke="#000" stroke-width=".77"/><path d="m376.963 24.145v19.837" fill="none" stroke="#000" stroke-width=".77"/><path d="m470.571 24.145v19.837" fill="none" stroke="#000" stroke-width=".77"/><path d="m50.856 5.236c-.016 1.006-.08 1.82-.192 3.065-.59.591-.878 1.229-.878 1.772 0 .734.511 1.293 1.421 1.293 2.714 0 4.326-2.682 4.326-4.342 0-.974-.463-1.788-1.453-2.059.83-1.437 1.15-2.474 1.15-3.177 0-.957-.591-1.309-1.325-1.309-2.858 0-4.199 3.863-4.199 4.135 0 .479.32.702.719.702.143 0 .287-.032.431-.08zm1.117 1.98c.351-.336.942-.559 1.437-.559.59 0 .926.271.926.99 0 .894-1.357 2.059-2.443 2.059h-.143c0-.878.08-1.788.223-2.49zm.096-3.911c.032-.192.782-1.006 1.293-1.006.128 0 .319.064.319.271 0 .479-.75 1.724-1.692 2.235-.016-.207-.032-.383-.032-.542 0-.384.048-.671.112-.958z" fill-rule="nonzero"/><path d="m57.576-1.069c0-.016-.032-.032-.064-.032-.224 0-1.054.383-1.054.511.016.255.016.638.016 1.133 0 2.794-.223 8.796-.223 10.871.622-.096 3.959-3.241 3.959-6.369 0-1.07-.463-1.517-1.102-1.517-.463 0-1.021.24-1.564.655.016-1.245.032-2.634.032-3.911zm-.144 7.566c.208-.287.655-.798.942-.798.144 0 .287.128.287.495 0 .495-.479 1.596-1.309 2.187 0-.495.064-1.469.08-1.884z" fill-rule="nonzero"/><path d="m61.357 5.827c.287.575.447 2.315.447 3.608 0 .51-.032.957-.08 1.229-.016.048-.016.08-.016.111 0 .431.527.735.926.735.223 0 .415-.096.431-.32.111-1.133.495-4.102 1.005-4.15.24-.032.352 2.442.415 3.863.016.399.431.591.83.591.368 0 .735-.16.751-.463.095-1.197 1.293-4.278 1.484-4.262.351.032.862 4.102.862 4.15.016.415.383.671.703.671.223 0 .431-.144.431-.463 0-1.357-.463-3.704-.83-5.172-.128-.479-.591-.974-1.07-.974-.351 0-.718.255-.958.942l-1.165 2.889c0-.399-.495-3.017-.527-3.209-.159-.638-.415-.909-.702-.909-.575 0-1.261 1.069-1.517 2.25-.032-.431-.463-1.357-.495-1.436-.079-.176-.191-.24-.335-.24-.271 0-.606.256-.606.479 0 .032 0 .064.016.08z" fill-rule="nonzero"/><path d="m69.64 11.015c-.112.335-.16.622-.16.83 0 .335.128.495.304.495.223 0 .526-.24.782-.734 1.995-3.736 2.73-6.338 5.028-9.355.048-.08.064-.159.064-.239 0-.272-.255-.479-.559-.479-.191 0-.415.08-.59.271-1.932 2.842-3.448 5.731-4.869 9.211z" fill-rule="nonzero"/><path d="m78.164 3.512c.559-.511 2.554-.271 3.368-.558.399-.096.639-1.613.639-2.123 0-.272-.128-.447-.559-.447-1.548 0-4.741.399-4.773.893-.08 1.293-.159 3.816-.159 6.194 0 1.501.032 2.953.127 3.991 1.469 0 2.267-.048 3.48-.096h.192c.718-.016 1.405-.032 1.405-2.187 0-.175-.112-.287-.543-.287h-.176c-1.117.064-2.059.159-2.889.175-.032-.606-.064-.862-.064-1.372.511-.16.926-.336 1.612-.527.862-.16.878-.16.878-1.006v-.782c0-.239-.079-.447-.447-.447-.526 0-1.404.399-2.059.591-.016-.447-.048-1.006-.048-1.485 0-.191 0-.383.016-.527z" fill-rule="nonzero"/><path d="m84.404-1.069c0-.016-.032-.032-.064-.032-.223 0-1.053.383-1.053.511.016.255.016.638.016 1.133 0 2.794-.224 8.796-.224 10.871.623-.096 3.959-3.241 3.959-6.369 0-1.07-.463-1.517-1.101-1.517-.463 0-1.022.24-1.565.655.016-1.245.032-2.634.032-3.911zm-.143 7.566c.207-.287.654-.798.941-.798.144 0 .288.128.288.495 0 .495-.479 1.596-1.309 2.187 0-.495.064-1.469.08-1.884z" fill-rule="nonzero"/><path d="m196.32 9.195c-.048.048-.08.112-.08.192 0 .431.798 1.277 1.245 1.277.303 0 4.933-5.124 7.822-8.141.032-.032.048-.064.048-.096 0-.351-.942-1.277-1.261-1.277-.048 0-.08.016-.112.048-2.346 1.963-5.555 5.635-7.662 7.997zm6.305-.622c-.048.063-.064.127-.064.175 0 .415.751 1.07 1.23 1.07.383 0 1.739-1.836 1.739-1.948 0-.383-.718-1.245-1.165-1.245-.638 0-1.277 1.197-1.74 1.948zm-5.619-5.38c-.032.048-.048.096-.048.16 0 .367.687 1.069 1.022 1.069.319-.319.607-.622.846-.894.447-.447.878-.958.878-1.133 0-.415-.607-1.118-.99-1.118-.495 0-1.341 1.597-1.708 1.916z" fill-rule="nonzero"/><path d="m289.928 9.195c-.048.048-.08.112-.08.192 0 .431.798 1.277 1.245 1.277.304 0 4.933-5.124 7.822-8.141.032-.032.048-.064.048-.096 0-.351-.942-1.277-1.261-1.277-.048 0-.08.016-.112.048-2.346 1.963-5.555 5.635-7.662 7.997zm6.305-.622c-.048.063-.063.127-.063.175 0 .415.75 1.07 1.229 1.07.383 0 1.74-1.836 1.74-1.948 0-.383-.719-1.245-1.166-1.245-.638 0-1.277 1.197-1.74 1.948zm-5.619-5.38c-.032.048-.047.096-.047.16 0 .367.686 1.069 1.021 1.069.319-.319.607-.622.846-.894.447-.447.878-.958.878-1.133 0-.415-.606-1.118-.99-1.118-.494 0-1.34 1.597-1.708 1.916z" fill-rule="nonzero"/><path d="m383.381 9.195c-.048.048-.08.112-.08.192 0 .431.798 1.277 1.245 1.277.304 0 4.933-5.124 7.822-8.141.032-.032.048-.064.048-.096 0-.351-.942-1.277-1.261-1.277-.048 0-.08.016-.112.048-2.346 1.963-5.555 5.635-7.662 7.997zm6.305-.622c-.047.063-.063.127-.063.175 0 .415.75 1.07 1.229 1.07.383 0 1.74-1.836 1.74-1.948 0-.383-.719-1.245-1.166-1.245-.638 0-1.277 1.197-1.74 1.948zm-5.618-5.38c-.032.048-.048.096-.048.16 0 .367.686 1.069 1.021 1.069.32-.319.607-.622.846-.894.447-.447.878-.958.878-1.133 0-.415-.606-1.118-.989-1.118-.495 0-1.341 1.597-1.708 1.916z" fill-rule="nonzero"/><path d="m161.23 103.495v19.837" fill="none" stroke="#000" stroke-width=".77"/><path d="m260.573 103.495v19.837" fill="none" stroke="#000" stroke-width=".77"/><path d="m359.915 103.495v19.837" fill="none" stroke="#000" stroke-width=".77"/><path d="m466.232 103.495v19.837" fill="none" stroke="#000" stroke-width=".77"/><path d="m469.641 103.495v19.837" fill="none" stroke="#000" stroke-width="2.48"/><path d="m462.977 110.006c-.476 0-.912.417-.912.952 0 .456.456.893.912.893.536 0 .952-.437.952-.893 0-.535-.416-.952-.952-.952z" fill-rule="nonzero"/><path d="m462.977 114.965c-.476 0-.912.417-.912.953 0 .456.456.892.912.892.536 0 .952-.436.952-.892 0-.536-.416-.953-.952-.953z" fill-rule="nonzero"/><path d="m22.731 87.763c-.239-.064-.447-.16-.654-.192.064 1.15.064 1.724.095 2.634.4.479 1.166.607 2.986.607.399 0 .83 0 1.325-.016 1.676-.671 2.522-3.927 2.522-6.689 0-3.607-1.214-4.405-3.065-4.405-1.405 0-2.49.814-3.688 2.266-.095.671-.016 1.405-.127 2.57.159 0 .399-.239.51-.319.032.527.128 1.676.128 2.698 0 .303-.016.59-.032.846zm.814-4.151c.894-.782 2.044-1.165 2.762-1.165.958 0 1.357 1.006 1.357 2.027 0 1.325-.926 3.672-2.937 3.672-.272 0-.559-.032-.894-.112.032-.431.064-.989.064-1.564 0-.958-.08-2.011-.352-2.858z" fill-rule="nonzero"/><path d="m31.159 78.281c0-.016-.032-.032-.064-.032-.223 0-1.054.383-1.054.511.016.255.016.638.016 1.133 0 2.794-.223 8.796-.223 10.871.622-.096 3.959-3.241 3.959-6.369 0-1.07-.463-1.517-1.102-1.517-.463 0-1.021.24-1.564.655.016-1.245.032-2.634.032-3.911zm-.144 7.566c.208-.287.655-.798.942-.798.144 0 .287.128.287.495 0 .495-.479 1.596-1.309 2.187 0-.495.064-1.469.08-1.884z" fill-rule="nonzero"/><path d="m34.94 85.177c.287.575.447 2.314.447 3.607 0 .511-.032.958-.08 1.23-.016.048-.016.079-.016.111 0 .431.527.735.926.735.223 0 .415-.096.431-.32.112-1.133.495-4.102 1.005-4.15.24-.032.352 2.442.415 3.863.016.399.431.591.831.591.367 0 .734-.16.75-.463.096-1.197 1.293-4.278 1.484-4.262.352.032.862 4.102.862 4.15.016.415.383.67.703.67.223 0 .431-.143.431-.462 0-1.357-.463-3.704-.83-5.172-.128-.479-.591-.974-1.07-.974-.351 0-.718.255-.958.942l-1.165 2.889c0-.399-.495-3.017-.527-3.209-.159-.638-.415-.91-.702-.91-.575 0-1.261 1.07-1.517 2.251-.031-.431-.462-1.357-.494-1.436-.08-.176-.192-.24-.336-.24-.271 0-.606.256-.606.479 0 .032 0 .064.016.08z" fill-rule="nonzero"/><path d="m167.958 88.545c-.047.048-.079.112-.079.192 0 .431.798 1.277 1.245 1.277.303 0 4.932-5.124 7.822-8.141.032-.032.047-.064.047-.096 0-.351-.941-1.277-1.261-1.277-.047 0-.079.016-.111.048-2.347 1.963-5.555 5.635-7.663 7.997zm6.306-.623c-.048.064-.064.128-.064.176 0 .415.75 1.07 1.229 1.07.383 0 1.74-1.836 1.74-1.948 0-.383-.718-1.245-1.165-1.245-.639 0-1.277 1.197-1.74 1.947zm-5.619-5.379c-.032.048-.048.096-.048.16 0 .367.686 1.069 1.022 1.069.319-.319.606-.622.846-.894.447-.447.878-.958.878-1.133 0-.415-.607-1.118-.99-1.118-.495 0-1.341 1.597-1.708 1.916z" fill-rule="nonzero"/><path d="m267.301 88.545c-.048.048-.08.112-.08.192 0 .431.798 1.277 1.245 1.277.303 0 4.933-5.124 7.822-8.141.032-.032.048-.064.048-.096 0-.351-.942-1.277-1.261-1.277-.048 0-.08.016-.112.048-2.346 1.963-5.555 5.635-7.662 7.997zm6.305-.623c-.048.064-.064.128-.064.176 0 .415.751 1.07 1.23 1.07.383 0 1.739-1.836 1.739-1.948 0-.383-.718-1.245-1.165-1.245-.638 0-1.277 1.197-1.74 1.947zm-5.619-5.379c-.032.048-.048.096-.048.16 0 .367.687 1.069 1.022 1.069.319-.319.607-.622.846-.894.447-.447.878-.958.878-1.133 0-.415-.607-1.118-.99-1.118-.495 0-1.341 1.597-1.708 1.916z" fill-rule="nonzero"/><path d="m366.643 88.545c-.048.048-.08.112-.08.192 0 .431.799 1.277 1.246 1.277.303 0 4.932-5.124 7.821-8.141.032-.032.048-.064.048-.096 0-.351-.942-1.277-1.261-1.277-.048 0-.08.016-.112.048-2.346 1.963-5.555 5.635-7.662 7.997zm6.306-.623c-.048.064-.064.128-.064.176 0 .415.75 1.07 1.229 1.07.383 0 1.74-1.836 1.74-1.948 0-.383-.718-1.245-1.165-1.245-.639 0-1.277 1.197-1.74 1.947zm-5.619-5.379c-.032.048-.048.096-.048.16 0 .367.686 1.069 1.021 1.069.32-.319.607-.622.846-.894.447-.447.878-.958.878-1.133 0-.415-.606-1.118-.989-1.118-.495 0-1.341 1.597-1.708 1.916z" fill-rule="nonzero"/><path d="m33.305 31.335v-.84h-1.26v-4.498l-2.499 2.219v2.279h-2.699c.3-.759 1.12-1.799 2.459-3.138 1.22-1.22 1.92-2.3 2.119-3.199h-3.418c-.16 1.959-1.32 4.818-2.539 6.377v.8h4.078c0 .7-.02 1.1-.06 1.2-.12.22-.5.36-1.119.4l-.04.559h4.918l-.08-.579c-.96-.08-1.14-.18-1.14-.68 0-.06 0-.18.02-.38v-.52z" fill-rule="nonzero"/><path d="m33.305 41.387v-.84h-1.26v-4.498l-2.499 2.219v2.279h-2.699c.3-.759 1.12-1.799 2.459-3.138 1.22-1.22 1.92-2.3 2.119-3.199h-3.418c-.16 1.959-1.32 4.818-2.539 6.377v.8h4.078c0 .7-.02 1.1-.06 1.2-.12.22-.5.359-1.119.399l-.04.56h4.918l-.08-.58c-.96-.08-1.14-.179-1.14-.679 0-.06 0-.18.02-.38v-.52z" fill-rule="nonzero"/><path d="m.051 43.982h470.83" fill="none" stroke="#000" stroke-width=".46"/><path d="m.051 39.023h470.83" fill="none" stroke="#000" stroke-width=".46"/><path d="m.051 34.064h470.83" fill="none" stroke="#000" stroke-width=".46"/><path d="m.051 29.104h470.83" fill="none" stroke="#000" stroke-width=".46"/><path d="m.051 24.145h470.83" fill="none" stroke="#000" stroke-width=".46"/><path d="m14.145 43.324.754 3.67c.04.218.06.416.06.615 0 1.944-1.984 3.571-4.126 3.571-.655 0-1.29-.159-1.885-.457 1.528-.158 2.678-1.091 2.678-2.46 0-1.21-.992-2.479-2.261-2.479-1.449 0-2.44 1.111-2.44 2.559 0 2.023 1.646 3.352 3.63 3.352 2.658 0 4.92-1.726 4.92-4.205 0-.556-.873-4.483-.853-4.345 2.122-1.031 3.57-2.856 3.57-4.78 0-2.639-2.122-4.662-4.761-4.662-.039 0-.317.02-.793.059l-.873-4.185c2.956-2.5 4.305-5.158 4.305-8.074 0-2.242-.893-4.622-2.698-7.122-2.043 1.647-3.214 4.94-3.214 8.451 0 1.25.159 2.46.437 3.61-4.523 3.789-6.785 7.281-6.785 10.474 0 3.75 3.868 6.864 8.074 6.864.932 0 1.627-.139 2.261-.456zm-.059-26.067c.655.675.992 1.468.992 2.401 0 1.924-1.369 4.086-4.047 6.467-.139-.575-.179-1.21-.179-1.905 0-3.332 1.23-7.002 2.877-7.002.139 0 .258.02.357.039zm.417 25.254-1.409-6.626c.278-.02.436-.04.496-.04 1.706 0 2.896 1.607 2.896 3.254 0 1.309-.694 2.459-1.983 3.412zm-1.905-6.547 1.428 6.824c-.694.377-1.468.536-2.4.536-3.214 0-5.991-2.4-5.991-5.317 0-2.638 1.964-5.356 5.674-8.133l.833 3.968c-2.063.436-3.809 2.182-3.809 4.146 0 1.666 1.19 2.836 2.976 3.114-1.091-.674-1.627-1.527-1.627-2.539 0-1.369 1.27-2.381 2.916-2.599z" fill-rule="nonzero"/><path d="m.051 123.332h470.83" fill="none" stroke="#000" stroke-width=".46"/><path d="m.051 118.373h470.83" fill="none" stroke="#000" stroke-width=".46"/><path d="m.051 113.414h470.83" fill="none" stroke="#000" stroke-width=".46"/><path d="m.051 108.454h470.83" fill="none" stroke="#000" stroke-width=".46"/><path d="m.051 103.495h470.83" fill="none" stroke="#000" stroke-width=".46"/><path d="m14.145 122.674.754 3.67c.04.218.06.416.06.615 0 1.944-1.984 3.57-4.126 3.57-.655 0-1.29-.158-1.885-.456 1.528-.159 2.678-1.091 2.678-2.46 0-1.21-.992-2.479-2.261-2.479-1.449 0-2.44 1.111-2.44 2.559 0 2.023 1.646 3.352 3.63 3.352 2.658 0 4.92-1.726 4.92-4.205 0-.556-.873-4.484-.853-4.345 2.122-1.031 3.57-2.856 3.57-4.781 0-2.638-2.122-4.661-4.761-4.661-.039 0-.317.019-.793.059l-.873-4.186c2.956-2.499 4.305-5.157 4.305-8.073 0-2.242-.893-4.623-2.698-7.122-2.043 1.646-3.214 4.939-3.214 8.451 0 1.249.159 2.46.437 3.61-4.523 3.789-6.785 7.28-6.785 10.474 0 3.75 3.868 6.864 8.074 6.864.932 0 1.627-.139 2.261-.456zm-.059-26.067c.655.675.992 1.468.992 2.401 0 1.924-1.369 4.086-4.047 6.467-.139-.576-.179-1.21-.179-1.905 0-3.332 1.23-7.002 2.877-7.002.139 0 .258.02.357.039zm.417 25.253-1.409-6.625c.278-.02.436-.04.496-.04 1.706 0 2.896 1.607 2.896 3.253 0 1.31-.694 2.46-1.983 3.412zm-1.905-6.546 1.428 6.824c-.694.377-1.468.536-2.4.536-3.214 0-5.991-2.401-5.991-5.317 0-2.638 1.964-5.356 5.674-8.133l.833 3.967c-2.063.437-3.809 2.183-3.809 4.147 0 1.666 1.19 2.836 2.976 3.114-1.091-.674-1.627-1.527-1.627-2.539 0-1.369 1.27-2.381 2.916-2.599z" fill-rule="nonzero"/><path d="m66.9 36.599c2.043 0 4.562-1.706 4.562-3.452 0-1.051-.932-1.726-2.261-1.726-2.004 0-4.523 1.667-4.523 3.452 0 1.091.972 1.726 2.222 1.726z" fill-rule="nonzero"/><path d="m58.788 37.65 2.798-2.063c1.229-.892 1.706-1.904 1.745-2.658 0-1.111-1.011-1.944-2.202-1.944-.833 0-1.448.317-1.845.972l.139-6.249h-.635zm1.845-5.872c.635 0 1.111.457 1.111 1.072 0 1.031-1.369 3.015-2.4 3.67-.06-.338-.099-.992-.099-1.964 0-.536.039-1.191.119-1.944.297-.556.714-.834 1.269-.834z" fill-rule="nonzero"/><path d="m82.553 34.119c2.043 0 4.562-1.706 4.562-3.451 0-1.052-.932-1.726-2.261-1.726-2.004 0-4.523 1.666-4.523 3.451 0 1.092.972 1.726 2.222 1.726z" fill-rule="nonzero"/><path d="m98.051 31.64c2.043 0 4.562-1.706 4.562-3.452 0-1.051-.932-1.726-2.261-1.726-2.004 0-4.523 1.666-4.523 3.452 0 1.091.972 1.726 2.222 1.726z" fill-rule="nonzero"/><path d="m89.94 32.691 2.797-2.063c1.23-.893 1.706-1.904 1.745-2.658 0-1.111-1.011-1.944-2.202-1.944-.833 0-1.448.317-1.845.972l.139-6.249h-.634zm1.844-5.872c.635 0 1.111.456 1.111 1.071 0 1.032-1.368 3.016-2.4 3.67-.06-.337-.099-.992-.099-1.964 0-.535.039-1.19.119-1.944.297-.555.714-.833 1.269-.833z" fill-rule="nonzero"/><path d="m113.704 29.16c2.043 0 4.562-1.706 4.562-3.452 0-1.051-.932-1.726-2.261-1.726-2.004 0-4.523 1.667-4.523 3.452 0 1.091.972 1.726 2.222 1.726z" fill-rule="nonzero"/><path d="m105.593 30.211 2.797-2.063c1.23-.892 1.706-1.904 1.745-2.658 0-1.111-1.011-1.944-2.202-1.944-.833 0-1.448.317-1.845.972l.139-6.249h-.634zm1.844-5.872c.635 0 1.111.457 1.111 1.072 0 1.031-1.368 3.015-2.4 3.67-.06-.338-.099-.992-.099-1.964 0-.536.039-1.191.119-1.944.297-.556.714-.834 1.269-.834z" fill-rule="nonzero"/><path d="m129.357 26.68c2.043 0 4.562-1.706 4.562-3.451 0-1.052-.932-1.726-2.261-1.726-2.004 0-4.523 1.666-4.523 3.451 0 1.091.972 1.726 2.222 1.726z" fill-rule="nonzero"/><path d="m145.01 24.201c2.043 0 4.562-1.706 4.562-3.452 0-1.052-.932-1.726-2.261-1.726-2.004 0-4.523 1.666-4.523 3.452 0 1.091.972 1.726 2.222 1.726z" fill-rule="nonzero"/><path d="m156.581 19.186h10.539" fill="none" stroke="#000" stroke-width=".77"/><path d="m160.663 21.721c2.043 0 4.562-1.706 4.562-3.452 0-1.051-.932-1.726-2.261-1.726-2.004 0-4.523 1.667-4.523 3.452 0 1.091.972 1.726 2.222 1.726z" fill-rule="nonzero"/><path d="m151.312 22.772 2.797-2.063c1.23-.893 1.706-1.904 1.745-2.658 0-1.111-1.011-1.944-2.201-1.944-.834 0-1.449.317-1.845.972l.139-6.249h-.635zm1.845-5.872c.634 0 1.11.457 1.11 1.072 0 1.031-1.368 3.015-2.4 3.67-.059-.338-.099-.992-.099-1.964 0-.536.04-1.191.119-1.944.298-.556.714-.834 1.27-.834z" fill-rule="nonzero"/><path d="m172.854 19.186h10.539" fill="none" stroke="#000" stroke-width=".77"/><g fill-rule="nonzero"><path d="m176.936 19.241c2.043 0 4.562-1.706 4.562-3.452 0-1.051-.932-1.725-2.261-1.725-2.004 0-4.523 1.666-4.523 3.451 0 1.091.972 1.726 2.222 1.726z"/><path d="m167.585 20.293 2.797-2.064c1.23-.892 1.706-1.904 1.745-2.658 0-1.111-1.011-1.944-2.202-1.944-.833 0-1.448.318-1.844.972l.138-6.249h-.634zm1.845-5.872c.634 0 1.11.456 1.11 1.071 0 1.031-1.368 3.015-2.4 3.67-.059-.337-.099-.992-.099-1.964 0-.536.04-1.19.119-1.944.297-.556.714-.833 1.27-.833z"/><path d="m206.466 30.931v-2.896l-9.125 9.105v2.897z"/><path d="m228.163 30.931v-2.896l-9.125 9.105v2.897z"/><path d="m249.861 30.931v-2.896l-9.126 9.105v2.897z"/><path d="m271.248 30.931v-2.896l-9.125 9.105v2.897z"/><path d="m300.074 30.931v-2.896l-9.125 9.105v2.897z"/><path d="m321.617 30.931v-2.896l-9.126 9.105v2.897z"/><path d="m343.314 30.931v-2.896l-9.126 9.105v2.897z"/><path d="m364.856 30.931v-2.896l-9.125 9.105v2.897z"/><path d="m393.527 30.931v-2.896l-9.125 9.105v2.897z"/><path d="m415.225 30.931v-2.896l-9.126 9.105v2.897z"/><path d="m436.922 30.931v-2.896l-9.125 9.105v2.897z"/><path d="m458.309 30.931v-2.896l-9.125 9.105v2.897z"/><path d="m30.789 128.347c2.043 0 4.563-1.706 4.563-3.451 0-1.052-.933-1.726-2.262-1.726-2.003 0-4.523 1.666-4.523 3.451 0 1.092.972 1.726 2.222 1.726z"/><path d="m22.678 129.399 2.797-2.063c1.23-.893 1.706-1.905 1.746-2.659 0-1.11-1.012-1.944-2.202-1.944-.833 0-1.448.318-1.845.972l.139-6.248h-.635zm1.845-5.872c.635 0 1.111.456 1.111 1.071 0 1.032-1.369 3.015-2.401 3.67-.059-.337-.099-.992-.099-1.964 0-.536.04-1.19.119-1.944.298-.555.714-.833 1.27-.833z"/><path d="m47.372 125.868c2.043 0 4.563-1.706 4.563-3.452 0-1.051-.933-1.726-2.262-1.726-2.003 0-4.523 1.666-4.523 3.452 0 1.091.972 1.726 2.222 1.726z"/><path d="m39.261 126.919 2.797-2.063c1.23-.893 1.706-1.904 1.746-2.658 0-1.111-1.012-1.944-2.202-1.944-.833 0-1.448.317-1.845.972l.139-6.249h-.635zm1.845-5.872c.635 0 1.111.456 1.111 1.071 0 1.032-1.369 3.016-2.401 3.67-.059-.337-.099-.992-.099-1.964 0-.535.04-1.19.119-1.944.298-.555.714-.833 1.27-.833z"/><path d="m63.955 123.388c2.043 0 4.563-1.706 4.563-3.452 0-1.051-.933-1.726-2.262-1.726-2.004 0-4.523 1.667-4.523 3.452 0 1.091.972 1.726 2.222 1.726z"/><path d="m55.844 124.439 2.797-2.063c1.23-.892 1.706-1.904 1.746-2.658 0-1.111-1.012-1.944-2.202-1.944-.834 0-1.448.317-1.845.972l.139-6.249h-.635zm1.845-5.872c.635 0 1.111.457 1.111 1.072 0 1.031-1.369 3.015-2.401 3.67-.059-.338-.099-.992-.099-1.964 0-.536.04-1.191.119-1.944.298-.556.714-.834 1.27-.834z"/><path d="m80.693 120.908c2.043 0 4.562-1.706 4.562-3.451 0-1.052-.932-1.726-2.261-1.726-2.004 0-4.523 1.666-4.523 3.451 0 1.091.972 1.726 2.222 1.726z"/><path d="m72.582 121.96 2.797-2.063c1.23-.893 1.706-1.905 1.745-2.659 0-1.111-1.011-1.944-2.201-1.944-.834 0-1.449.318-1.845.972l.139-6.248h-.635zm1.845-5.872c.634 0 1.11.456 1.11 1.071 0 1.032-1.368 3.015-2.4 3.67-.059-.337-.099-.992-.099-1.964 0-.536.04-1.19.119-1.944.298-.556.714-.833 1.27-.833z"/><path d="m97.276 118.429c2.043 0 4.562-1.706 4.562-3.452 0-1.052-.932-1.726-2.261-1.726-2.004 0-4.523 1.666-4.523 3.452 0 1.091.972 1.726 2.222 1.726z"/><path d="m89.165 119.48 2.797-2.063c1.23-.893 1.706-1.905 1.745-2.658 0-1.111-1.011-1.944-2.202-1.944-.833 0-1.448.317-1.844.972l.138-6.249h-.634zm1.844-5.872c.635 0 1.111.456 1.111 1.071 0 1.032-1.368 3.016-2.4 3.67-.059-.337-.099-.992-.099-1.964 0-.535.04-1.19.119-1.944.297-.555.714-.833 1.269-.833z"/><path d="m113.859 115.949c2.043 0 4.562-1.706 4.562-3.452 0-1.051-.932-1.726-2.261-1.726-2.004 0-4.523 1.667-4.523 3.452 0 1.091.972 1.726 2.222 1.726z"/><path d="m105.748 117 2.797-2.063c1.23-.892 1.706-1.904 1.745-2.658 0-1.111-1.011-1.944-2.202-1.944-.833 0-1.448.317-1.845.972l.139-6.249h-.634zm1.844-5.872c.635 0 1.111.457 1.111 1.072 0 1.031-1.368 3.015-2.4 3.67-.06-.338-.099-.992-.099-1.964 0-.536.039-1.191.119-1.944.297-.556.714-.834 1.269-.834z"/><path d="m130.441 113.469c2.044 0 4.563-1.706 4.563-3.451 0-1.052-.932-1.726-2.261-1.726-2.004 0-4.523 1.666-4.523 3.451 0 1.091.972 1.726 2.221 1.726z"/><path d="m122.33 114.521 2.797-2.063c1.23-.893 1.707-1.905 1.746-2.659 0-1.111-1.012-1.944-2.202-1.944-.833 0-1.448.318-1.845.972l.139-6.249h-.635zm1.845-5.872c.635 0 1.111.456 1.111 1.071 0 1.031-1.369 3.015-2.4 3.67-.06-.337-.099-.992-.099-1.964 0-.536.039-1.19.119-1.944.297-.556.714-.833 1.269-.833z"/><path d="m147.179 110.99c2.044 0 4.563-1.706 4.563-3.452 0-1.052-.932-1.726-2.262-1.726-2.003 0-4.522 1.666-4.522 3.452 0 1.091.972 1.726 2.221 1.726z"/><path d="m139.068 112.041 2.797-2.063c1.23-.893 1.706-1.905 1.746-2.658 0-1.111-1.012-1.944-2.202-1.944-.833 0-1.448.317-1.845.972l.139-6.249h-.635zm1.845-5.872c.635 0 1.111.456 1.111 1.071 0 1.032-1.369 3.016-2.4 3.67-.06-.337-.099-.992-.099-1.964 0-.535.039-1.19.119-1.944.297-.555.714-.833 1.269-.833z"/><path d="m178.105 110.281v-2.896l-9.126 9.105v2.897z"/><path d="m201.042 110.281v-2.896l-9.125 9.105v2.897z"/><path d="m223.979 110.281v-2.896l-9.125 9.105v2.897z"/><path d="m247.071 110.281v-2.896l-9.125 9.105v2.897z"/><path d="m277.447 110.281v-2.896l-9.125 9.105v2.897z"/><path d="m300.384 110.281v-2.896l-9.125 9.105v2.897z"/><path d="m323.321 110.281v-2.896l-9.125 9.105v2.897z"/><path d="m346.413 110.281v-2.896l-9.125 9.105v2.897z"/><path d="m376.789 110.281v-2.896l-9.125 9.105v2.897z"/><path d="m399.727 110.281v-2.896l-9.126 9.105v2.897z"/><path d="m422.664 110.281v-2.896l-9.126 9.105v2.897z"/><path d="m445.756 110.281v-2.896l-9.126 9.105v2.897z"/></g></svg>