<svg clip-rule="evenodd" fill-rule="evenodd" stroke-linejoin="round" stroke-miterlimit="2" viewBox="0 0 291 39" xmlns="http://www.w3.org/2000/svg"><path d="m285.879 10.396v19.837" fill="none" stroke="#000" stroke-width=".77"/><path d="m289.289 10.396v19.837" fill="none" stroke="#000" stroke-width="2.48"/><path d="m.095 30.233h290.434" fill="none" stroke="#000" stroke-width=".46"/><path d="m.095 25.274h290.434" fill="none" stroke="#000" stroke-width=".46"/><path d="m.095 20.315h290.434" fill="none" stroke="#000" stroke-width=".46"/><path d="m.095 15.355h290.434" fill="none" stroke="#000" stroke-width=".46"/><path d="m.095 10.396h290.434" fill="none" stroke="#000" stroke-width=".46"/><g fill-rule="nonzero"><path d="m14.19 29.575.754 3.67c.039.218.059.416.059.615 0 1.944-1.984 3.57-4.126 3.57-.655 0-1.289-.158-1.885-.456 1.528-.158 2.679-1.091 2.679-2.46 0-1.21-.992-2.479-2.262-2.479-1.448 0-2.44 1.111-2.44 2.559 0 2.023 1.647 3.352 3.63 3.352 2.659 0 4.92-1.726 4.92-4.205 0-.556-.873-4.484-.853-4.345 2.123-1.031 3.571-2.856 3.571-4.781 0-2.638-2.123-4.661-4.761-4.661-.04 0-.318.02-.794.059l-.873-4.186c2.956-2.499 4.305-5.157 4.305-8.073 0-2.242-.893-4.623-2.698-7.122-2.043 1.646-3.213 4.939-3.213 8.451 0 1.249.158 2.46.436 3.61-4.523 3.789-6.784 7.281-6.784 10.474 0 3.75 3.868 6.864 8.073 6.864.933 0 1.627-.139 2.262-.456zm-.06-26.067c.655.675.992 1.468.992 2.401 0 1.924-1.369 4.086-4.047 6.467-.138-.576-.178-1.21-.178-1.905 0-3.332 1.23-7.002 2.876-7.002.139 0 .258.02.357.039zm.417 25.254-1.408-6.626c.277-.02.436-.04.495-.04 1.706 0 2.897 1.607 2.897 3.253 0 1.31-.695 2.46-1.984 3.413zm-1.904-6.547 1.428 6.824c-.694.377-1.468.536-2.4.536-3.214 0-5.991-2.4-5.991-5.317 0-2.638 1.964-5.356 5.673-8.133l.833 3.968c-2.063.436-3.808 2.182-3.808 4.146 0 1.666 1.19 2.836 2.975 3.114-1.091-.674-1.627-1.527-1.627-2.539 0-1.369 1.27-2.381 2.917-2.599z"/><path d="m57.948 4.168c0 .727-.141 1.378-.434 1.953s-.683 1.03-1.172 1.356c-.401.249-.813.412-1.226.499-.401.087-.932.13-1.573.13h-1.811v-7.887h1.79c.748 0 1.323.054 1.746.163.423.119.781.271 1.085.466.499.326.901.781 1.172 1.335.282.553.423 1.215.423 1.985zm-1.096-.011c0-.607-.097-1.128-.293-1.562-.206-.423-.51-.76-.9-.998-.282-.174-.575-.293-.89-.369-.325-.076-.716-.109-1.193-.109h-.803v6.087h.803c.466 0 .879-.033 1.226-.109s.672-.217.955-.412c.368-.25.64-.575.824-.987.184-.413.271-.933.271-1.541z"/><path d="m66.33 5.133c0-.716-.109-1.247-.326-1.616-.206-.358-.553-.542-1.03-.542-.271 0-.553.065-.825.184-.282.13-.531.293-.759.488v3.385c.249.13.477.217.673.271.195.044.401.076.64.076.509 0 .9-.184 1.193-.542s.434-.933.434-1.704zm1.031-.086c0 .965-.239 1.746-.706 2.343-.466.586-1.063.879-1.768.879-.315 0-.597-.044-.824-.12-.228-.076-.445-.184-.673-.314l-.065.271h-.933v-8.245h.998v2.951c.249-.228.521-.412.814-.564.292-.152.629-.228.998-.228.672 0 1.193.271 1.584.803.379.542.575 1.28.575 2.224z"/><path d="m68.409-.139h.998v8.245h-.998z"/><path d="m75.476 8.106h-.998v-.662c-.304.271-.597.478-.868.619-.282.141-.586.206-.923.206-.26 0-.499-.044-.726-.13-.228-.076-.434-.217-.597-.402-.174-.184-.304-.412-.401-.694-.087-.271-.131-.619-.131-1.009v-3.841h.988v3.364c0 .314.01.575.032.781.033.206.076.39.163.542.076.152.195.26.325.336.141.065.347.109.608.109.239 0 .499-.076.781-.206.271-.141.521-.315.749-.51v-4.416h.998z"/><path d="m79.485 8.247c-.944 0-1.671-.271-2.191-.803-.521-.531-.781-1.28-.781-2.267 0-.955.249-1.725.759-2.3.499-.564 1.161-.857 1.974-.857.369 0 .695.054.977.163.282.108.531.271.738.499.216.227.379.499.488.824.119.336.173.727.173 1.204v.543h-4.1c0 .683.173 1.215.52 1.573.347.369.825.553 1.432.553.217 0 .434-.032.651-.076.206-.054.391-.119.564-.195.185-.076.337-.163.456-.239s.228-.141.304-.206h.065v1.085c-.12.043-.261.098-.434.174-.174.065-.336.119-.467.162-.195.044-.368.087-.531.12-.152.021-.358.043-.597.043zm1.172-3.754c-.011-.271-.044-.51-.098-.694-.054-.195-.141-.369-.249-.499-.109-.152-.261-.26-.445-.336-.185-.076-.402-.12-.673-.12s-.488.044-.672.12c-.185.076-.358.195-.51.347s-.261.325-.337.521c-.076.184-.13.401-.151.661z"/><path d="m84.23 8.247c-.402 0-.771-.054-1.107-.152-.347-.108-.629-.228-.857-.347v-1.117h.054c.076.065.185.141.293.227.12.076.271.163.456.25.173.076.358.152.564.206.206.065.412.098.629.098.163 0 .336-.022.51-.065.184-.033.315-.076.401-.141.131-.076.217-.163.272-.25.054-.098.076-.239.076-.423 0-.228-.055-.412-.185-.532-.13-.119-.358-.217-.694-.303-.119-.033-.293-.066-.488-.109-.206-.043-.402-.087-.575-.141-.445-.13-.781-.325-.988-.607-.195-.272-.303-.597-.303-.988 0-.531.206-.965.607-1.302.402-.336.933-.509 1.606-.509.325 0 .651.043.987.13.336.076.608.184.835.304v1.063h-.054c-.249-.196-.531-.358-.846-.478-.315-.119-.629-.173-.944-.173-.325 0-.607.065-.835.206s-.336.347-.336.629c0 .239.065.423.195.553.141.12.358.217.651.293.152.044.314.076.499.12.173.032.369.076.575.13.434.108.759.293.987.542.217.261.325.597.325 1.042 0 .249-.043.488-.151.716-.098.228-.25.423-.434.586-.217.184-.456.314-.727.401-.261.098-.597.141-.998.141z"/><path d="m87.226 4.179h2.983v.954h-2.983z"/><path d="m93.01 8.247c-.401 0-.77-.054-1.106-.152-.347-.108-.63-.228-.857-.347v-1.117h.054c.076.065.184.141.293.227.119.076.271.163.455.25.174.076.358.152.565.206.206.065.412.098.629.098.163 0 .336-.022.51-.065.184-.033.314-.076.401-.141.13-.076.217-.163.271-.25.055-.098.076-.239.076-.423 0-.228-.054-.412-.184-.532-.13-.119-.358-.217-.695-.303-.119-.033-.292-.066-.488-.109-.206-.043-.401-.087-.575-.141-.444-.13-.781-.325-.987-.607-.195-.272-.304-.597-.304-.988 0-.531.206-.965.608-1.302.401-.336.933-.509 1.605-.509.326 0 .651.043.988.13.336.076.607.184.835.304v1.063h-.054c-.25-.196-.532-.358-.846-.478-.315-.119-.63-.173-.944-.173-.326 0-.608.065-.836.206-.227.141-.336.347-.336.629 0 .239.065.423.195.553.141.12.358.217.651.293.152.044.315.076.499.12.174.032.369.076.575.13.434.108.76.293.988.542.217.261.325.597.325 1.042 0 .249-.043.488-.152.716-.098.228-.249.423-.434.586-.217.184-.455.314-.727.401-.26.098-.596.141-.998.141z"/><path d="m98.6 8.236c-.402 0-.782-.065-1.118-.184-.336-.13-.629-.315-.868-.575-.249-.25-.434-.575-.575-.955-.13-.39-.195-.846-.195-1.367s.065-.965.206-1.345.326-.694.564-.955c.228-.26.521-.455.868-.596s.716-.207 1.118-.207c.325 0 .64.044.943.141.304.087.575.196.803.315v1.117h-.054c-.076-.065-.163-.13-.271-.206-.109-.076-.25-.162-.413-.238-.13-.076-.292-.13-.477-.185-.195-.054-.369-.087-.542-.087-.521 0-.933.196-1.248.586-.315.391-.466.944-.466 1.66 0 .694.151 1.248.455 1.638.304.391.716.586 1.259.586.325 0 .629-.076.922-.206s.553-.304.781-.521h.054v1.118c-.098.043-.217.108-.369.173s-.282.109-.401.141c-.174.055-.326.087-.456.12-.13.021-.304.032-.52.032z"/><path d="m104.56 6.652v-1.649c-.239.022-.532.055-.901.087-.358.043-.651.098-.868.163-.271.076-.488.206-.662.369-.173.173-.26.401-.26.705 0 .336.098.596.282.77.195.174.478.26.846.26.315 0 .597-.076.847-.206.26-.141.499-.303.716-.499zm0 .825c-.076.054-.185.141-.326.249-.13.109-.271.196-.39.261-.185.086-.348.162-.51.206-.174.054-.402.076-.695.076-.249 0-.477-.044-.694-.141-.217-.087-.412-.217-.575-.38s-.293-.369-.38-.608c-.097-.238-.152-.488-.152-.748 0-.412.087-.76.261-1.052.173-.282.445-.51.824-.684.337-.152.727-.26 1.172-.315.456-.054.944-.097 1.465-.13v-.184c0-.239-.033-.423-.109-.564-.065-.152-.163-.261-.293-.337-.13-.075-.282-.13-.466-.162-.185-.022-.369-.044-.564-.044-.228 0-.499.044-.814.109s-.618.173-.933.304h-.054v-1.02c.184-.054.444-.109.792-.174.336-.065.672-.097 1.009-.097.412 0 .748.032 1.03.097s.532.185.749.347c.217.163.379.369.488.63.108.26.152.575.152.943v4.047h-.987z"/><path d="m106.966-.139h.998v8.245h-.998z"/><path d="m111.992 8.247c-.944 0-1.67-.271-2.191-.803-.521-.531-.781-1.28-.781-2.267 0-.955.249-1.725.759-2.3.499-.564 1.161-.857 1.975-.857.368 0 .694.054.976.163.282.108.532.271.738.499.217.227.379.499.488.824.119.336.173.727.173 1.204v.543h-4.1c0 .683.173 1.215.52 1.573.348.369.825.553 1.432.553.217 0 .434-.032.651-.076.206-.054.391-.119.564-.195.185-.076.337-.163.456-.239s.228-.141.304-.206h.065v1.085c-.119.043-.26.098-.434.174-.174.065-.336.119-.467.162-.195.044-.368.087-.531.12-.152.021-.358.043-.597.043zm1.172-3.754c-.011-.271-.044-.51-.098-.694-.054-.195-.141-.369-.249-.499-.109-.152-.261-.26-.445-.336s-.401-.12-.673-.12c-.271 0-.488.044-.672.12-.185.076-.358.195-.51.347s-.261.325-.336.521c-.076.184-.131.401-.152.661z"/><path d="m62.605 35.248c2.043 0 4.562-1.706 4.562-3.451 0-1.052-.932-1.726-2.261-1.726-2.004 0-4.523 1.666-4.523 3.452 0 1.091.972 1.725 2.222 1.725z"/><path d="m94.375 30.289c2.044 0 4.563-1.706 4.563-3.452 0-1.051-.932-1.726-2.261-1.726-2.004 0-4.523 1.667-4.523 3.452 0 1.091.972 1.726 2.221 1.726z"/><path d="m126.146 27.809c2.044 0 4.563-1.706 4.563-3.451 0-1.052-.932-1.726-2.261-1.726-2.004 0-4.523 1.666-4.523 3.451 0 1.092.972 1.726 2.221 1.726z"/><path d="m158.072 25.33c2.044 0 4.563-1.706 4.563-3.452 0-1.051-.932-1.726-2.261-1.726-2.004 0-4.523 1.666-4.523 3.452 0 1.091.972 1.726 2.221 1.726z"/><path d="m149.961 26.381 2.797-2.063c1.23-.893 1.706-1.904 1.746-2.658 0-1.111-1.012-1.944-2.202-1.944-.833 0-1.448.317-1.845.972l.139-6.249h-.635zm1.845-5.872c.635 0 1.111.456 1.111 1.071 0 1.032-1.369 3.016-2.4 3.67-.06-.337-.099-.992-.099-1.964 0-.535.039-1.19.119-1.944.297-.555.714-.833 1.269-.833z"/><path d="m189.843 25.33c2.044 0 4.563-1.706 4.563-3.452 0-1.051-.932-1.726-2.261-1.726-2.004 0-4.523 1.666-4.523 3.452 0 1.091.972 1.726 2.221 1.726z"/><path d="m186.193 29.515v-10.652l-3.035 1.071v-3.988h-.496v10.653l3.035-1.051v3.967zm-3.035-7.974 2.539-.933v3.333l-2.539.913z"/><path d="m221.614 20.37c2.044 0 4.563-1.706 4.563-3.451 0-1.052-.932-1.726-2.262-1.726-2.003 0-4.522 1.666-4.522 3.451 0 1.091.972 1.726 2.221 1.726z"/><path d="m253.385 17.891c2.044 0 4.563-1.706 4.563-3.452 0-1.052-.932-1.726-2.262-1.726-2.003 0-4.523 1.666-4.523 3.452 0 1.091.973 1.726 2.222 1.726z"/></g></svg>