<svg clip-rule="evenodd" fill-rule="evenodd" stroke-linejoin="round" stroke-miterlimit="2" viewBox="0 0 513 56" xmlns="http://www.w3.org/2000/svg"><path d="m65.64 20.858v19.838" fill="none" stroke="#000" stroke-width=".77"/><path d="m169.942 20.858v19.838" fill="none" stroke="#000" stroke-width=".77"/><path d="m314.229 20.858v19.838" fill="none" stroke="#000" stroke-width=".77"/><path d="m427.054 20.858v19.838" fill="none" stroke="#000" stroke-width=".77"/><path d="m507.799 20.858v19.838" fill="none" stroke="#000" stroke-width=".77"/><path d="m511.209 20.858v19.838" fill="none" stroke="#000" stroke-width="2.48"/><path d="m244.047 51.457c.179-.489.43-.883.597-.883s.262.322.191.632l-.931 4.01h.907c.418-2.625 1.838-4.487 2.148-4.487.251 0-.107.752.453.752.287 0 .49-.334.49-.8 0-.489-.179-.763-.513-.763-.657 0-1.265.871-2.041 2.506l-.024-.024.31-1.313c.179-.776-.203-1.169-.596-1.169-.478 0-.979.584-1.325 1.539z" fill-rule="nonzero"/><path d="m250.479 51.385c.071-.226.167-.68.167-.823 0-.394-.239-.644-.621-.644-.68 0-1.265.525-1.826 1.646h.37c.287-.572.645-.942.931-.942.227 0 .203.286.072.68l-.955 2.792c-.227.657-.024 1.241.501 1.241.597 0 1.337-.644 1.874-1.682h-.394c-.394.62-.74.966-.991.966-.131 0-.191-.179-.107-.405zm-.156-3.83c0 .334.275.608.609.608s.609-.274.609-.608-.275-.609-.609-.609-.609.275-.609.609z" fill-rule="nonzero"/><path d="m253.735 50.622h1.086l.155-.478h-1.086l.275-.931h-.513c-.358.526-.919.836-1.647.931l-.155.478h1.002l-1.038 3.448c-.251.836-.036 1.277.525 1.277.728 0 1.492-.525 2.208-1.527h-.454c-.477.585-.883.883-1.181.883-.322 0-.334-.275-.239-.585z" fill-rule="nonzero"/><path d="m255.069 54.584c0 .417.335.763.752.763.418 0 .764-.346.764-.763 0-.418-.346-.752-.764-.752-.417 0-.752.334-.752.752z" fill-rule="nonzero"/><path d="m30.083 27.964v-.84h-1.26v-4.498l-2.499 2.219v2.279h-2.699c.3-.76 1.12-1.799 2.459-3.139 1.22-1.219 1.92-2.299 2.119-3.199h-3.418c-.16 1.96-1.32 4.819-2.539 6.378v.8h4.078c0 .699-.02 1.099-.06 1.199-.12.22-.5.36-1.119.4l-.04.56h4.918l-.08-.58c-.96-.08-1.14-.18-1.14-.68 0-.06 0-.18.02-.379v-.52z" fill-rule="nonzero"/><path d="m30.083 38.016v-.84h-1.26v-4.498l-2.499 2.219v2.279h-2.699c.3-.76 1.12-1.799 2.459-3.139 1.22-1.219 1.92-2.299 2.119-3.199h-3.418c-.16 1.96-1.32 4.819-2.539 6.378v.8h4.078c0 .699-.02 1.099-.06 1.199-.12.22-.5.36-1.119.4l-.04.56h4.918l-.08-.58c-.96-.08-1.14-.18-1.14-.68 0-.06 0-.18.02-.38v-.519z" fill-rule="nonzero"/><path d="m.084 40.696h512.365" fill="none" stroke="#000" stroke-width=".46"/><path d="m.084 35.736h512.365" fill="none" stroke="#000" stroke-width=".46"/><path d="m.084 30.777h512.365" fill="none" stroke="#000" stroke-width=".46"/><path d="m.084 25.818h512.365" fill="none" stroke="#000" stroke-width=".46"/><path d="m.084 20.858h512.365" fill="none" stroke="#000" stroke-width=".46"/><path d="m14.178 40.037.754 3.67c.04.218.059.417.059.615 0 1.944-1.983 3.571-4.126 3.571-.654 0-1.289-.159-1.884-.456 1.527-.159 2.678-1.091 2.678-2.46 0-1.21-.992-2.48-2.262-2.48-1.448 0-2.44 1.111-2.44 2.559 0 2.024 1.647 3.353 3.631 3.353 2.658 0 4.919-1.726 4.919-4.206 0-.555-.873-4.483-.853-4.344 2.123-1.032 3.571-2.857 3.571-4.781 0-2.639-2.123-4.662-4.761-4.662-.04 0-.317.02-.794.06l-.872-4.186c2.955-2.5 4.304-5.158 4.304-8.074 0-2.242-.892-4.622-2.698-7.122-2.043 1.647-3.213 4.94-3.213 8.451 0 1.25.158 2.46.436 3.611-4.523 3.788-6.784 7.28-6.784 10.474 0 3.749 3.868 6.863 8.074 6.863.932 0 1.626-.138 2.261-.456zm-.059-26.066c.654.674.991 1.468.991 2.4 0 1.924-1.368 4.087-4.046 6.467-.139-.575-.179-1.21-.179-1.904 0-3.333 1.23-7.003 2.876-7.003.139 0 .258.02.358.04zm.416 25.253-1.408-6.626c.277-.02.436-.04.496-.04 1.706 0 2.896 1.607 2.896 3.254 0 1.309-.694 2.46-1.984 3.412zm-1.904-6.546 1.428 6.824c-.694.377-1.468.535-2.4.535-3.214 0-5.991-2.4-5.991-5.316 0-2.639 1.964-5.356 5.673-8.134l.833 3.968c-2.063.436-3.808 2.182-3.808 4.146 0 1.666 1.19 2.837 2.975 3.114-1.091-.674-1.626-1.527-1.626-2.539 0-1.369 1.269-2.38 2.916-2.598z" fill-rule="nonzero"/><path d="m138.027 4.784c0-.813.258-1.21.754-1.21.159 0 .536.199.694.199.496 0 .734-.238.734-.695 0-.396-.337-.714-.714-.714-.992 0-1.944 1.349-1.944 2.341 0 1.25 1.051 2.281 2.321 2.281 2.242 0 3.591-3.352 5.793-3.352.833 0 1.249.337 1.249 1.012 0 .614-.337 1.21-.833 1.21-.158 0-.535-.199-.694-.199-.496 0-.734.238-.734.695 0 .396.337.734.714.734.952 0 1.964-1.31 1.964-2.321 0-1.31-1.071-2.302-2.341-2.302-2.241 0-3.63 3.353-5.713 3.353-.833 0-1.25-.337-1.25-1.032z" fill-rule="nonzero"/><path d="m136.466 17.139 20.148 1.24v-2.48l-20.148-1.24z"/><path d="m214.123 14.393c0-.813.257-1.21.753-1.21.159 0 .536.198.695.198.496 0 .734-.238.734-.694 0-.397-.338-.714-.714-.714-.992 0-1.945 1.349-1.945 2.341 0 1.25 1.052 2.281 2.321 2.281 2.242 0 3.591-3.352 5.793-3.352.833 0 1.25.337 1.25 1.011 0 .615-.338 1.21-.833 1.21-.159 0-.536-.198-.695-.198-.496 0-.734.238-.734.694 0 .397.338.734.714.734.953 0 1.964-1.309 1.964-2.321 0-1.309-1.071-2.301-2.34-2.301-2.242 0-3.631 3.353-5.714 3.353-.833 0-1.249-.338-1.249-1.032z" fill-rule="nonzero"/><path d="m212.252 20.858 20.302 2.48v-2.48l-20.302-2.479z"/><g fill-rule="nonzero"><path d="m281.074 17.493c0-.814.258-1.21.754-1.21.159 0 .535.198.694.198.496 0 .734-.238.734-.694 0-.397-.337-.714-.714-.714-.992 0-1.944 1.349-1.944 2.34 0 1.25 1.051 2.282 2.321 2.282 2.242 0 3.591-3.353 5.792-3.353.834 0 1.25.337 1.25 1.012 0 .615-.337 1.21-.833 1.21-.159 0-.536-.198-.694-.198-.496 0-.734.238-.734.694 0 .397.337.734.714.734.952 0 1.964-1.309 1.964-2.321 0-1.309-1.071-2.301-2.341-2.301-2.242 0-3.63 3.352-5.713 3.352-.833 0-1.25-.337-1.25-1.031z"/><path d="m324.868 8.417h-.998v-3.374c0-.271-.011-.521-.033-.759-.032-.228-.075-.424-.151-.565-.087-.141-.196-.249-.348-.325-.141-.076-.336-.109-.585-.109-.25 0-.51.066-.771.196-.26.13-.52.303-.77.52v4.416h-.998v-8.245h.998v2.983c.304-.26.597-.466.879-.607.293-.141.597-.217.922-.217.575 0 1.031.195 1.367.575.325.39.488.944.488 1.67z"/><path d="m327.283 8.417h-.998v-5.913h.998zm.076-6.911h-1.139v-1.03h1.139z"/><path d="m331.311 8.558c-.943 0-1.67-.271-2.191-.803s-.781-1.28-.781-2.267c0-.955.249-1.725.759-2.3.499-.564 1.161-.857 1.975-.857.369 0 .694.054.976.162.282.109.532.272.738.5.217.227.38.499.488.824.119.336.174.727.174 1.204v.543h-4.101c0 .683.173 1.215.521 1.573.347.369.824.553 1.432.553.217 0 .434-.033.651-.076.206-.054.39-.119.564-.195.184-.076.336-.163.455-.239.12-.076.228-.141.304-.206h.065v1.085c-.119.043-.26.097-.434.173-.173.065-.336.12-.466.163-.196.044-.369.087-.532.119-.152.022-.358.044-.597.044zm1.172-3.754c-.011-.271-.043-.51-.098-.694-.054-.195-.141-.369-.249-.499-.109-.152-.26-.26-.445-.336-.184-.076-.401-.12-.672-.12-.272 0-.489.044-.673.12s-.358.195-.51.347-.26.325-.336.52c-.076.185-.13.402-.152.662z"/><path d="m337.586 3.567h-.044c-.076-.021-.152-.032-.238-.032-.087-.011-.185-.011-.304-.011-.261 0-.532.054-.792.174-.271.119-.521.293-.76.52v4.199h-.998v-5.913h.998v.879c.369-.325.684-.553.955-.683.271-.131.532-.196.781-.196h.239c.043.011.108.022.163.033z"/><path d="m346.62 5.466c0 .987-.239 1.757-.716 2.3-.488.542-1.117.814-1.92.814-.825 0-1.476-.283-1.942-.836-.467-.564-.705-1.323-.705-2.278 0-.998.238-1.757.727-2.311.488-.542 1.128-.824 1.92-.824.803 0 1.432.282 1.92.824.477.543.716 1.313.716 2.311zm-1.031 0c0-.77-.13-1.345-.412-1.714s-.683-.553-1.193-.553c-.521 0-.922.184-1.204.553s-.413.944-.413 1.714c0 .738.131 1.302.413 1.682.282.379.683.575 1.204.575.51 0 .911-.185 1.193-.565.271-.379.412-.943.412-1.692z"/><path d="m350.763 1.127h-.055c-.097-.033-.217-.066-.39-.087-.163-.033-.304-.054-.445-.054-.412 0-.716.097-.89.292-.184.185-.271.521-.271 1.02v.206h1.649v.825h-1.616v5.088h-.998v-5.088h-.673v-.825h.673v-.195c0-.716.173-1.258.52-1.627.337-.38.825-.564 1.465-.564.184 0 .369.01.542.032.174.022.337.044.489.065z"/><path d="m359.136 8.417h-.998v-3.374c0-.271-.011-.521-.033-.759-.033-.228-.076-.424-.152-.565-.087-.141-.195-.249-.347-.325-.141-.076-.336-.109-.586-.109-.249 0-.51.066-.77.196s-.521.303-.77.52v4.416h-.998v-8.245h.998v2.983c.303-.26.596-.466.878-.607.293-.141.597-.217.923-.217.575 0 1.03.195 1.366.575.326.39.489.944.489 1.67z"/><path d="m361.55 8.417h-.998v-5.913h.998zm.076-6.911h-1.139v-1.03h1.139z"/><path d="m365.579 8.558c-.944 0-1.671-.271-2.191-.803-.521-.532-.781-1.28-.781-2.267 0-.955.249-1.725.759-2.3.499-.564 1.161-.857 1.974-.857.369 0 .695.054.977.162.282.109.531.272.737.5.217.227.38.499.489.824.119.336.173.727.173 1.204v.543h-4.101c0 .683.174 1.215.521 1.573.347.369.825.553 1.432.553.217 0 .434-.033.651-.076.206-.054.391-.119.564-.195.185-.076.337-.163.456-.239s.228-.141.304-.206h.065v1.085c-.12.043-.261.097-.434.173-.174.065-.337.12-.467.163-.195.044-.369.087-.531.119-.152.022-.358.044-.597.044zm1.172-3.754c-.011-.271-.044-.51-.098-.694-.054-.195-.141-.369-.249-.499-.109-.152-.261-.26-.445-.336-.185-.076-.402-.12-.673-.12s-.488.044-.673.12c-.184.076-.358.195-.509.347-.152.152-.261.325-.337.52-.076.185-.13.402-.152.662z"/><path d="m371.853 3.567h-.043c-.076-.021-.152-.032-.239-.032-.087-.011-.184-.011-.304-.011-.26 0-.531.054-.792.174-.271.119-.52.293-.759.52v4.199h-.998v-5.913h.998v.879c.369-.325.683-.553.955-.683.271-.131.531-.196.781-.196h.238c.044.011.109.022.163.033z"/></g><path d="m280.753 25.818 20.302 1.24v-2.48l-20.302-1.24z"/><path d="m331.401 18.335c0-4.325-2.361-7.459-5.952-7.459-3.59 0-5.951 3.214-5.951 7.459h.317c.199 0 .477-1.964.477-2.023.654-2.183 2.816-3.651 5.276-3.651 2.222 0 4.464 1.429 5.079 3.611.258.952.297 2.083.476 2.063zm-6.785-1.23c0 .456.377.833.833.833.457 0 .833-.377.833-.833s-.376-.833-.833-.833c-.456 0-.833.377-.833.833z" fill-rule="nonzero"/><path d="m369.216 18.335c0-4.325-2.361-7.459-5.952-7.459-3.59 0-5.951 3.214-5.951 7.459h.318c.198 0 .476-1.964.476-2.023.654-2.183 2.817-3.651 5.276-3.651 2.222 0 4.464 1.429 5.079 3.611.258.952.297 2.083.476 2.063zm-6.785-1.23c0 .456.377.833.833.833.457 0 .834-.377.834-.833s-.377-.833-.834-.833c-.456 0-.833.377-.833.833z" fill-rule="nonzero"/><path d="m463.32 25.774h5.574v2.381h-5.574z" fill-rule="nonzero"/><path d="m44.563 37.441v-16.583" fill="none"/><path d="m44.563 37.441v-16.583" fill="none" stroke="#000" stroke-width=".46"/><path d="m40.121 40.751c2.043 0 4.562-1.706 4.562-3.451 0-1.052-.932-1.726-2.261-1.726-2.004 0-4.523 1.666-4.523 3.452 0 1.091.972 1.725 2.222 1.725z" fill-rule="nonzero"/><path d="m73.544 29.072v16.583" fill="none"/><path d="m73.544 29.072v16.583" fill="none" stroke="#000" stroke-width=".46"/><path d="m73.389 29.166c0 1.111 1.091 1.766 2.44 1.766 2.262 0 4.543-1.508 4.543-3.373 0-1.269-1.071-2.003-2.718-2.003-2.023 0-4.265 1.785-4.265 3.61zm5.396-3.015c.754 0 1.131.317 1.131.932 0 1.151-3.531 3.254-4.94 3.254-.754 0-1.13-.318-1.13-.933 0-1.23 3.669-3.253 4.939-3.253z" fill-rule="nonzero"/><path d="m83.618 27.369c-.476 0-.913.417-.913.953 0 .456.457.892.913.892.536 0 .952-.436.952-.892 0-.536-.416-.953-.952-.953z" fill-rule="nonzero"/><path d="m136.466 30.002v-15.188" fill="none"/><path d="m136.466 30.002v-15.188" fill="none" stroke="#000" stroke-width=".46"/><path d="m132.024 33.312c2.043 0 4.563-1.706 4.563-3.451 0-1.052-.933-1.726-2.262-1.726-2.004 0-4.523 1.666-4.523 3.451 0 1.092.972 1.726 2.222 1.726z" fill-rule="nonzero"/><path d="m123.913 34.364 2.797-2.063c1.23-.893 1.706-1.905 1.746-2.659 0-1.111-1.012-1.944-2.202-1.944-.834 0-1.448.318-1.845.972l.139-6.248h-.635zm1.845-5.872c.635 0 1.111.456 1.111 1.071 0 1.032-1.369 3.015-2.401 3.67-.059-.337-.099-.992-.099-1.964 0-.536.04-1.19.119-1.944.298-.555.714-.833 1.27-.833z" fill-rule="nonzero"/><path d="m156.614 32.482v-16.428" fill="none"/><path d="m156.614 32.482v-16.428" fill="none" stroke="#000" stroke-width=".46"/><path d="m152.171 35.792c2.044 0 4.563-1.706 4.563-3.452 0-1.051-.932-1.726-2.262-1.726-2.003 0-4.522 1.667-4.522 3.452 0 1.091.972 1.726 2.221 1.726z" fill-rule="nonzero"/><path d="m144.06 36.843 2.797-2.063c1.23-.892 1.706-1.904 1.746-2.658 0-1.111-1.012-1.944-2.202-1.944-.833 0-1.448.317-1.845.972l.139-6.249h-.635zm1.845-5.872c.635 0 1.111.457 1.111 1.072 0 1.031-1.369 3.015-2.4 3.67-.06-.338-.099-.992-.099-1.964 0-.536.039-1.191.119-1.944.297-.556.714-.834 1.269-.834z" fill-rule="nonzero"/><path d="m177.846 31.552v16.583" fill="none"/><path d="m177.846 31.552v16.583" fill="none" stroke="#000" stroke-width=".46"/><path d="m179.913 33.312c2.043 0 4.562-1.706 4.562-3.451 0-1.052-.932-1.726-2.261-1.726-2.004 0-4.523 1.666-4.523 3.451 0 1.092.972 1.726 2.222 1.726z" fill-rule="nonzero"/><path d="m171.802 34.364 2.797-2.063c1.23-.893 1.706-1.905 1.746-2.659 0-1.111-1.012-1.944-2.202-1.944-.834 0-1.449.318-1.845.972l.139-6.248h-.635zm1.845-5.872c.634 0 1.111.456 1.111 1.071 0 1.032-1.369 3.015-2.401 3.67-.059-.337-.099-.992-.099-1.964 0-.536.04-1.19.119-1.944.298-.555.714-.833 1.27-.833z" fill-rule="nonzero"/><path d="m212.252 32.482v-13.948" fill="none"/><path d="m212.252 32.482v-13.948" fill="none" stroke="#000" stroke-width=".46"/><path d="m207.809 35.792c2.044 0 4.563-1.706 4.563-3.452 0-1.051-.932-1.726-2.262-1.726-2.003 0-4.523 1.667-4.523 3.452 0 1.091.972 1.726 2.222 1.726z" fill-rule="nonzero"/><path d="m199.698 36.843 2.797-2.063c1.23-.892 1.706-1.904 1.746-2.658 0-1.111-1.012-1.944-2.202-1.944-.833 0-1.448.317-1.845.972l.139-6.249h-.635zm1.845-5.872c.635 0 1.111.457 1.111 1.072 0 1.031-1.369 3.015-2.4 3.67-.06-.338-.1-.992-.1-1.964 0-.536.04-1.191.119-1.944.298-.556.715-.834 1.27-.834z" fill-rule="nonzero"/><path d="m232.554 37.441v-16.428" fill="none"/><path d="m232.554 37.441v-16.428" fill="none" stroke="#000" stroke-width=".46"/><path d="m228.112 40.751c2.043 0 4.562-1.706 4.562-3.451 0-1.052-.932-1.726-2.261-1.726-2.004 0-4.523 1.666-4.523 3.452 0 1.091.972 1.725 2.222 1.725z" fill-rule="nonzero"/><path d="m252.856 32.482v-16.583" fill="none"/><path d="m252.856 32.482v-16.583" fill="none" stroke="#000" stroke-width=".46"/><path d="m248.414 35.792c2.043 0 4.563-1.706 4.563-3.452 0-1.051-.933-1.726-2.262-1.726-2.003 0-4.523 1.667-4.523 3.452 0 1.091.972 1.726 2.222 1.726z" fill-rule="nonzero"/><path d="m280.753 37.441v-13.948" fill="none"/><path d="m280.753 37.441v-13.948" fill="none" stroke="#000" stroke-width=".46"/><path d="m276.311 40.751c2.043 0 4.562-1.706 4.562-3.451 0-1.052-.932-1.726-2.261-1.726-2.004 0-4.523 1.666-4.523 3.452 0 1.091.972 1.725 2.222 1.725z" fill-rule="nonzero"/><path d="m301.055 39.921v-15.188" fill="none"/><path d="m301.055 39.921v-15.188" fill="none" stroke="#000" stroke-width=".46"/><path d="m296.613 43.231c2.043 0 4.563-1.706 4.563-3.452 0-1.051-.933-1.726-2.262-1.726-2.003 0-4.523 1.667-4.523 3.452 0 1.091.972 1.726 2.222 1.726z" fill-rule="nonzero"/><path d="m288.502 44.282 2.797-2.063c1.23-.892 1.706-1.904 1.746-2.658 0-1.111-1.012-1.944-2.202-1.944-.833 0-1.448.317-1.845.972l.139-6.249h-.635zm1.845-5.871c.635 0 1.111.456 1.111 1.071 0 1.031-1.369 3.015-2.401 3.67-.059-.338-.099-.992-.099-1.964 0-.536.04-1.19.119-1.944.298-.556.714-.833 1.27-.833z" fill-rule="nonzero"/><path d="m328.642 37.441v-16.583" fill="none"/><path d="m328.642 37.441v-16.583" fill="none" stroke="#000" stroke-width=".46"/><path d="m324.2 40.751c2.043 0 4.562-1.706 4.562-3.451 0-1.052-.932-1.726-2.261-1.726-2.004 0-4.523 1.666-4.523 3.452 0 1.091.972 1.725 2.222 1.725z" fill-rule="nonzero"/><path d="m332.051 37.288c-.476 0-.912.417-.912.952 0 .457.456.893.912.893.536 0 .953-.436.953-.893 0-.535-.417-.952-.953-.952z" fill-rule="nonzero"/><path d="m366.457 39.921v-16.583" fill="none"/><path d="m366.457 39.921v-16.583" fill="none" stroke="#000" stroke-width=".46"/><path d="m362.015 43.231c2.043 0 4.562-1.706 4.562-3.452 0-1.051-.932-1.726-2.261-1.726-2.004 0-4.523 1.667-4.523 3.452 0 1.091.972 1.726 2.222 1.726z" fill-rule="nonzero"/><path d="m353.904 44.282 2.797-2.063c1.23-.892 1.706-1.904 1.745-2.658 0-1.111-1.011-1.944-2.202-1.944-.833 0-1.448.317-1.844.972l.138-6.249h-.634zm1.845-5.871c.634 0 1.11.456 1.11 1.071 0 1.031-1.368 3.015-2.4 3.67-.059-.338-.099-.992-.099-1.964 0-.536.04-1.19.119-1.944.297-.556.714-.833 1.27-.833z" fill-rule="nonzero"/><path d="m366.5 28.254c.992 0 1.33.377 1.905.793 1.607 1.131 2.42 2.381 2.42 3.769v.1c-.04 1.785-.06 1.924-.575 3.074-.08.179-.119.298-.119.377 0 .099.059.159.158.159.199 0 1.21-1.389 1.21-3.928v-.099c0-.853-.238-1.666-.714-2.42-.139-.238-.754-1.052-1.845-2.42-.853-1.091-1.587-2.44-2.182-4.008-.02-.059-.02-.119-.02-.178 0-.06 0-.119.02-.159.02-.02-.079-.02-.258-.02z" fill-rule="nonzero"/><path d="m379.94 28.353h5.575v2.38h-5.575z" fill-rule="nonzero"/></svg>