<svg clip-rule="evenodd" fill-rule="evenodd" stroke-linejoin="round" stroke-miterlimit="2" viewBox="0 0 513 235" xmlns="http://www.w3.org/2000/svg"><path d="m158.163 9.792v19.837" fill="none" stroke="#000" stroke-width=".77"/><path d="m266.495 9.792v19.837" fill="none" stroke="#000" stroke-width=".77"/><path d="m394.508 9.792v19.837" fill="none" stroke="#000" stroke-width=".77"/><path d="m512.139 9.792v19.837" fill="none" stroke="#000" stroke-width=".77"/><path d="m147.935 75.503v19.838" fill="none" stroke="#000" stroke-width=".77"/><path d="m275.329 75.503v19.838" fill="none" stroke="#000" stroke-width=".77"/><path d="m393.114 75.503v19.838" fill="none" stroke="#000" stroke-width=".77"/><path d="m512.139 75.503v19.838" fill="none" stroke="#000" stroke-width=".77"/><path d="m204.658 66.824c2.789-3.409 11.158-3.409 13.948 0" fill="none" stroke="#000" stroke-width=".31"/><path d="m204.658 66.824c2.789-4.184 11.158-4.184 13.948 0-2.79-2.634-11.159-2.634-13.948 0z"/><path d="m204.658 66.824c2.789-4.184 11.158-4.184 13.948 0-2.79-2.634-11.159-2.634-13.948 0z" fill="none" stroke="#000" stroke-width=".15"/><path d="m382.575 71.784c4.184-4.185 16.893-4.185 21.077 0" fill="none" stroke="#000" stroke-width=".31"/><path d="m382.575 71.784c4.184-4.96 16.893-4.96 21.077 0-4.184-3.41-16.893-3.41-21.077 0z"/><g fill="none"><path d="m382.575 71.784c4.184-4.96 16.893-4.96 21.077 0-4.184-3.41-16.893-3.41-21.077 0z" stroke="#000" stroke-width=".15"/><path d="m153.359 141.215v19.837"/><path d="m153.359 141.215v19.837" stroke="#000" stroke-width=".77"/><path d="m267.58 141.215v19.837"/><path d="m267.58 141.215v19.837" stroke="#000" stroke-width=".77"/><path d="m389.859 141.215v19.837"/><path d="m389.859 141.215v19.837" stroke="#000" stroke-width=".77"/><path d="m512.139 141.215v19.837"/><path d="m512.139 141.215v19.837" stroke="#000" stroke-width=".77"/><path d="m378.546 137.495c4.339-4.184 17.512-4.184 21.852 0" stroke="#000" stroke-width=".31"/></g><path d="m378.546 137.495c4.339-4.959 17.512-4.959 21.852 0-4.34-3.409-17.513-3.409-21.852 0z"/><path d="m378.546 137.495c4.339-4.959 17.512-4.959 21.852 0-4.34-3.409-17.513-3.409-21.852 0z" fill="none" stroke="#000" stroke-width=".15"/><path d="m174.281 206.926v19.838" fill="none"/><path d="m174.281 206.926v19.838" fill="none" stroke="#000" stroke-width=".77"/><path d="m286.952 206.926v19.838" fill="none"/><path d="m286.952 206.926v19.838" fill="none" stroke="#000" stroke-width=".77"/><path d="m399.468 206.926v19.838" fill="none"/><path d="m399.468 206.926v19.838" fill="none" stroke="#000" stroke-width=".77"/><path d="m512.139 206.926v19.838" fill="none"/><path d="m512.139 206.926v19.838" fill="none" stroke="#000" stroke-width=".77"/><path d="m30.083 16.94v-.84h-1.26v-4.498l-2.499 2.219v2.279h-2.699c.3-.76 1.12-1.799 2.459-3.139 1.22-1.219 1.92-2.299 2.119-3.199h-3.418c-.16 1.96-1.32 4.819-2.539 6.378v.8h4.078c0 .699-.02 1.099-.06 1.199-.12.22-.5.36-1.119.4l-.04.56h4.918l-.08-.58c-.96-.08-1.14-.18-1.14-.68 0-.06 0-.18.02-.379v-.52z" fill-rule="nonzero"/><path d="m30.083 26.992v-.84h-1.26v-4.498l-2.499 2.219v2.279h-2.699c.3-.76 1.12-1.799 2.459-3.139 1.22-1.219 1.92-2.299 2.119-3.199h-3.418c-.16 1.96-1.32 4.819-2.539 6.378v.8h4.078c0 .699-.02 1.099-.06 1.199-.12.22-.5.36-1.119.4l-.04.56h4.918l-.08-.58c-.96-.08-1.14-.18-1.14-.68 0-.06 0-.18.02-.38v-.519z" fill-rule="nonzero"/><path d="m.084 29.629h512.365" fill="none"/><path d="m.084 29.629h512.365" fill="none" stroke="#000" stroke-width=".46"/><path d="m.084 24.67h512.365" fill="none"/><path d="m.084 24.67h512.365" fill="none" stroke="#000" stroke-width=".46"/><path d="m.084 19.71h512.365" fill="none"/><path d="m.084 19.71h512.365" fill="none" stroke="#000" stroke-width=".46"/><path d="m.084 14.751h512.365" fill="none"/><path d="m.084 14.751h512.365" fill="none" stroke="#000" stroke-width=".46"/><path d="m.084 9.792h512.365" fill="none"/><path d="m.084 9.792h512.365" fill="none" stroke="#000" stroke-width=".46"/><path d="m14.178 28.97.754 3.67c.04.219.059.417.059.615 0 1.944-1.983 3.571-4.126 3.571-.654 0-1.289-.159-1.884-.456 1.527-.159 2.678-1.091 2.678-2.46 0-1.21-.992-2.48-2.262-2.48-1.448 0-2.44 1.111-2.44 2.559 0 2.024 1.647 3.353 3.631 3.353 2.658 0 4.919-1.726 4.919-4.206 0-.555-.873-4.483-.853-4.344 2.123-1.032 3.571-2.857 3.571-4.781 0-2.638-2.123-4.662-4.761-4.662-.04 0-.317.02-.794.06l-.872-4.186c2.955-2.499 4.304-5.158 4.304-8.074 0-2.241-.892-4.622-2.698-7.121-2.043 1.646-3.213 4.939-3.213 8.45 0 1.25.158 2.46.436 3.611-4.523 3.789-6.784 7.28-6.784 10.474 0 3.749 3.868 6.864 8.074 6.864.932 0 1.626-.139 2.261-.457zm-.059-26.066c.654.674.991 1.468.991 2.4 0 1.925-1.368 4.087-4.046 6.467-.139-.575-.179-1.21-.179-1.904 0-3.333 1.23-7.003 2.876-7.003.139 0 .258.02.358.04zm.416 25.253-1.408-6.626c.277-.019.436-.039.496-.039 1.706 0 2.896 1.607 2.896 3.253 0 1.309-.694 2.46-1.984 3.412zm-1.904-6.546 1.428 6.824c-.694.377-1.468.535-2.4.535-3.214 0-5.991-2.4-5.991-5.316 0-2.638 1.964-5.356 5.673-8.133l.833 3.967c-2.063.437-3.808 2.182-3.808 4.146 0 1.667 1.19 2.837 2.975 3.115-1.091-.675-1.626-1.528-1.626-2.54 0-1.368 1.269-2.38 2.916-2.598z" fill-rule="nonzero"/><path d="m38.054 32.109h44.789v2.479h-44.789z"/><path d="m274.399 32.109h44.789v2.479h-44.789z"/><path d="m468.589 9.792h15.033v2.479h-15.033z"/><path d="m.084 95.341h512.365" fill="none"/><path d="m.084 95.341h512.365" fill="none" stroke="#000" stroke-width=".46"/><path d="m.084 90.381h512.365" fill="none"/><path d="m.084 90.381h512.365" fill="none" stroke="#000" stroke-width=".46"/><path d="m.084 85.422h512.365" fill="none"/><path d="m.084 85.422h512.365" fill="none" stroke="#000" stroke-width=".46"/><path d="m.084 80.463h512.365" fill="none"/><path d="m.084 80.463h512.365" fill="none" stroke="#000" stroke-width=".46"/><path d="m.084 75.503h512.365" fill="none"/><path d="m.084 75.503h512.365" fill="none" stroke="#000" stroke-width=".46"/><path d="m14.178 94.682.754 3.67c.04.218.059.417.059.615 0 1.944-1.983 3.571-4.126 3.571-.654 0-1.289-.159-1.884-.457 1.527-.158 2.678-1.091 2.678-2.459 0-1.21-.992-2.48-2.262-2.48-1.448 0-2.44 1.111-2.44 2.559 0 2.023 1.647 3.353 3.631 3.353 2.658 0 4.919-1.726 4.919-4.206 0-.555-.873-4.483-.853-4.344 2.123-1.032 3.571-2.857 3.571-4.781 0-2.639-2.123-4.662-4.761-4.662-.04 0-.317.02-.794.059l-.872-4.185c2.955-2.5 4.304-5.158 4.304-8.074 0-2.242-.892-4.622-2.698-7.122-2.043 1.647-3.213 4.94-3.213 8.451 0 1.25.158 2.46.436 3.61-4.523 3.789-6.784 7.281-6.784 10.475 0 3.749 3.868 6.863 8.074 6.863.932 0 1.626-.138 2.261-.456zm-.059-26.066c.654.674.991 1.468.991 2.4 0 1.924-1.368 4.087-4.046 6.467-.139-.575-.179-1.21-.179-1.904 0-3.333 1.23-7.003 2.876-7.003.139 0 .258.02.358.04zm.416 25.253-1.408-6.626c.277-.02.436-.04.496-.04 1.706 0 2.896 1.607 2.896 3.254 0 1.309-.694 2.46-1.984 3.412zm-1.904-6.547 1.428 6.824c-.694.377-1.468.536-2.4.536-3.214 0-5.991-2.4-5.991-5.316 0-2.639 1.964-5.356 5.673-8.134l.833 3.968c-2.063.436-3.808 2.182-3.808 4.146 0 1.666 1.19 2.837 2.975 3.114-1.091-.674-1.626-1.527-1.626-2.539 0-1.369 1.269-2.38 2.916-2.599z" fill-rule="nonzero"/><path d="m28.755 97.82h44.944v2.48h-44.944z"/><path d="m215.971 92.861 44.789 4.959v-2.479l-44.789-4.96z"/><path d="m283.233 97.82h44.789v2.48h-44.789z"/><path d="m401.018 92.861 46.029-2.48v-2.479l-46.029 2.479z"/><path d="m461.925 89.141h15.033v2.48h-15.033z"/><path d="m.084 161.052h512.365" fill="none"/><path d="m.084 161.052h512.365" fill="none" stroke="#000" stroke-width=".46"/><path d="m.084 156.093h512.365" fill="none"/><path d="m.084 156.093h512.365" fill="none" stroke="#000" stroke-width=".46"/><path d="m.084 151.134h512.365" fill="none"/><path d="m.084 151.134h512.365" fill="none" stroke="#000" stroke-width=".46"/><path d="m.084 146.174h512.365" fill="none"/><path d="m.084 146.174h512.365" fill="none" stroke="#000" stroke-width=".46"/><path d="m.084 141.215h512.365" fill="none"/><path d="m.084 141.215h512.365" fill="none" stroke="#000" stroke-width=".46"/><path d="m14.178 160.394.754 3.67c.04.218.059.416.059.615 0 1.944-1.983 3.57-4.126 3.57-.654 0-1.289-.158-1.884-.456 1.527-.159 2.678-1.091 2.678-2.46 0-1.21-.992-2.479-2.262-2.479-1.448 0-2.44 1.111-2.44 2.559 0 2.023 1.647 3.352 3.631 3.352 2.658 0 4.919-1.726 4.919-4.205 0-.556-.873-4.484-.853-4.345 2.123-1.031 3.571-2.856 3.571-4.781 0-2.638-2.123-4.661-4.761-4.661-.04 0-.317.019-.794.059l-.872-4.186c2.955-2.499 4.304-5.157 4.304-8.073 0-2.242-.892-4.623-2.698-7.122-2.043 1.646-3.213 4.939-3.213 8.451 0 1.249.158 2.459.436 3.61-4.523 3.789-6.784 7.28-6.784 10.474 0 3.75 3.868 6.864 8.074 6.864.932 0 1.626-.139 2.261-.456zm-.059-26.067c.654.675.991 1.468.991 2.401 0 1.924-1.368 4.086-4.046 6.467-.139-.576-.179-1.21-.179-1.905 0-3.332 1.23-7.002 2.876-7.002.139 0 .258.019.358.039zm.416 25.253-1.408-6.625c.277-.02.436-.04.496-.04 1.706 0 2.896 1.607 2.896 3.253 0 1.31-.694 2.46-1.984 3.412zm-1.904-6.546 1.428 6.824c-.694.377-1.468.536-2.4.536-3.214 0-5.991-2.401-5.991-5.317 0-2.638 1.964-5.356 5.673-8.133l.833 3.967c-2.063.437-3.808 2.183-3.808 4.146 0 1.667 1.19 2.837 2.975 3.115-1.091-.675-1.626-1.528-1.626-2.539 0-1.369 1.269-2.381 2.916-2.599z" fill-rule="nonzero"/><path d="m28.755 163.532h46.649v2.48h-46.649z"/><path d="m212.252 146.174 46.649-4.959v-2.48l-46.649 4.96z"/><path d="m275.484 163.532h46.649v2.48h-46.649z"/><path d="m397.763 162.292 46.649 4.96v-2.48l-46.649-4.96z"/><path d="m459.91 163.532 15.653-1.24v-2.48l-15.653 1.24z"/><path d="m.084 226.764h512.365" fill="none"/><path d="m.084 226.764h512.365" fill="none" stroke="#000" stroke-width=".46"/><path d="m.084 221.805h512.365" fill="none"/><path d="m.084 221.805h512.365" fill="none" stroke="#000" stroke-width=".46"/><path d="m.084 216.845h512.365" fill="none"/><path d="m.084 216.845h512.365" fill="none" stroke="#000" stroke-width=".46"/><path d="m.084 211.886h512.365" fill="none"/><path d="m.084 211.886h512.365" fill="none" stroke="#000" stroke-width=".46"/><path d="m.084 206.926h512.365" fill="none"/><path d="m.084 206.926h512.365" fill="none" stroke="#000" stroke-width=".46"/><path d="m14.178 226.105.754 3.67c.04.219.059.417.059.615 0 1.944-1.983 3.571-4.126 3.571-.654 0-1.289-.159-1.884-.456 1.527-.159 2.678-1.091 2.678-2.46 0-1.21-.992-2.48-2.262-2.48-1.448 0-2.44 1.111-2.44 2.559 0 2.024 1.647 3.353 3.631 3.353 2.658 0 4.919-1.726 4.919-4.206 0-.555-.873-4.483-.853-4.344 2.123-1.032 3.571-2.857 3.571-4.781 0-2.638-2.123-4.662-4.761-4.662-.04 0-.317.02-.794.06l-.872-4.186c2.955-2.499 4.304-5.158 4.304-8.074 0-2.241-.892-4.622-2.698-7.121-2.043 1.646-3.213 4.939-3.213 8.45 0 1.25.158 2.46.436 3.611-4.523 3.789-6.784 7.28-6.784 10.474 0 3.749 3.868 6.864 8.074 6.864.932 0 1.626-.139 2.261-.457zm-.059-26.066c.654.674.991 1.468.991 2.4 0 1.925-1.368 4.087-4.046 6.467-.139-.575-.179-1.21-.179-1.904 0-3.333 1.23-7.003 2.876-7.003.139 0 .258.02.358.04zm.416 25.253-1.408-6.626c.277-.019.436-.039.496-.039 1.706 0 2.896 1.607 2.896 3.253 0 1.309-.694 2.46-1.984 3.412zm-1.904-6.546 1.428 6.824c-.694.377-1.468.535-2.4.535-3.214 0-5.991-2.4-5.991-5.316 0-2.638 1.964-5.356 5.673-8.133l.833 3.967c-2.063.437-3.808 2.182-3.808 4.146 0 1.666 1.19 2.837 2.975 3.115-1.091-.675-1.626-1.528-1.626-2.54 0-1.368 1.269-2.38 2.916-2.598z" fill-rule="nonzero"/><path d="m28.755 229.244h47.579v2.479h-47.579z"/><path d="m38.054 15.526v18.907" fill="none"/><path d="m38.054 15.526v18.907" fill="none" stroke="#000" stroke-width=".46"/><path d="m40.121 17.286c2.043 0 4.562-1.706 4.562-3.452 0-1.051-.932-1.725-2.261-1.725-2.004 0-4.523 1.666-4.523 3.451 0 1.091.972 1.726 2.222 1.726z" fill-rule="nonzero"/><path d="m52.932 15.526v18.907" fill="none"/><path d="m52.932 15.526v18.907" fill="none" stroke="#000" stroke-width=".46"/><path d="m54.999 17.286c2.043 0 4.562-1.706 4.562-3.452 0-1.051-.932-1.725-2.261-1.725-2.004 0-4.523 1.666-4.523 3.451 0 1.091.972 1.726 2.222 1.726z" fill-rule="nonzero"/><path d="m67.965 18.005v16.428" fill="none"/><path d="m67.965 18.005v16.428" fill="none" stroke="#000" stroke-width=".46"/><path d="m70.032 19.766c2.043 0 4.562-1.706 4.562-3.452 0-1.051-.932-1.726-2.261-1.726-2.004 0-4.523 1.667-4.523 3.452 0 1.091.972 1.726 2.222 1.726z" fill-rule="nonzero"/><path d="m82.843 15.526v18.907" fill="none"/><path d="m82.843 15.526v18.907" fill="none" stroke="#000" stroke-width=".46"/><path d="m84.91 17.286c2.043 0 4.562-1.706 4.562-3.452 0-1.051-.932-1.725-2.261-1.725-2.004 0-4.523 1.666-4.523 3.451 0 1.091.972 1.726 2.222 1.726z" fill-rule="nonzero"/><path d="m102.823 16.413c-1.012.893-1.964 1.329-2.817 1.329-.119 0-.198-.019-.258-.059.219-.397.318-.734.318-1.032 0-.654-.377-.972-1.131-.972-.655 0-1.369.437-1.369 1.012 0 .972.615 1.448 1.845 1.448.675 0 1.528-.178 2.559-.516l-3.174 6.983h.833z" fill-rule="nonzero"/><path d="m119.108 21.415v-16.583" fill="none"/><path d="m119.108 21.415v-16.583" fill="none" stroke="#000" stroke-width=".46"/><path d="m114.666 24.725c2.043 0 4.563-1.706 4.563-3.451 0-1.052-.933-1.726-2.262-1.726-2.003 0-4.523 1.666-4.523 3.451 0 1.091.972 1.726 2.222 1.726z" fill-rule="nonzero"/><path d="m119.152 9.748c.992 0 1.329.377 1.904.793 1.607 1.131 2.42 2.381 2.42 3.77v.099c-.039 1.785-.059 1.924-.575 3.075-.079.178-.119.297-.119.376 0 .1.06.159.159.159.198 0 1.21-1.388 1.21-3.928v-.099c0-.853-.238-1.666-.714-2.42-.139-.238-.754-1.051-1.845-2.42-.853-1.091-1.587-2.44-2.182-4.007-.02-.06-.02-.119-.02-.179 0-.059 0-.119.02-.159.02-.019-.08-.019-.258-.019z" fill-rule="nonzero"/><path d="m132.734 16.413c-1.011.893-1.964 1.329-2.817 1.329-.119 0-.198-.019-.257-.059.218-.397.317-.734.317-1.032 0-.654-.377-.972-1.131-.972-.654 0-1.369.437-1.369 1.012 0 .972.615 1.448 1.845 1.448.675 0 1.528-.178 2.559-.516l-3.174 6.983h.833z" fill-rule="nonzero"/><path d="m149.02 21.415v-16.583" fill="none"/><path d="m149.02 21.415v-16.583" fill="none" stroke="#000" stroke-width=".46"/><path d="m144.577 24.725c2.044 0 4.563-1.706 4.563-3.451 0-1.052-.932-1.726-2.262-1.726-2.003 0-4.523 1.666-4.523 3.451 0 1.091.973 1.726 2.222 1.726z" fill-rule="nonzero"/><path d="m136.466 25.777 2.797-2.063c1.23-.893 1.706-1.905 1.746-2.659 0-1.111-1.012-1.944-2.202-1.944-.833 0-1.448.318-1.845.972l.139-6.249h-.635zm1.845-5.872c.635 0 1.111.456 1.111 1.071 0 1.031-1.369 3.015-2.4 3.67-.06-.337-.099-.992-.099-1.964 0-.536.039-1.19.119-1.944.297-.556.714-.833 1.269-.833z" fill-rule="nonzero"/><path d="m149.063 9.748c.992 0 1.329.377 1.904.793 1.607 1.131 2.421 2.381 2.421 3.77v.099c-.04 1.785-.06 1.924-.576 3.075-.079.178-.119.297-.119.376 0 .1.06.159.159.159.198 0 1.21-1.388 1.21-3.928v-.099c0-.853-.238-1.666-.714-2.42-.139-.238-.754-1.051-1.845-2.42-.853-1.091-1.587-2.44-2.182-4.007-.02-.06-.02-.119-.02-.179 0-.059 0-.119.02-.159.02-.019-.079-.019-.258-.019z" fill-rule="nonzero"/><path d="m171.169 16.413c-1.011.893-1.963 1.329-2.816 1.329-.12 0-.199-.019-.258-.059.218-.397.317-.734.317-1.032 0-.654-.377-.972-1.131-.972-.654 0-1.368.437-1.368 1.012 0 .972.614 1.448 1.844 1.448.675 0 1.528-.178 2.559-.516l-3.174 6.983h.834z" fill-rule="nonzero"/><path d="m187.455 23.895v-16.583" fill="none"/><path d="m187.455 23.895v-16.583" fill="none" stroke="#000" stroke-width=".46"/><path d="m183.012 27.205c2.044 0 4.563-1.706 4.563-3.452 0-1.051-.932-1.726-2.261-1.726-2.004 0-4.523 1.667-4.523 3.452 0 1.091.972 1.726 2.221 1.726z" fill-rule="nonzero"/><path d="m187.498 12.228c.992 0 1.329.377 1.905.793 1.606 1.131 2.42 2.381 2.42 3.769v.099c-.04 1.786-.06 1.925-.576 3.075-.079.179-.119.298-.119.377 0 .099.06.159.159.159.198 0 1.21-1.389 1.21-3.928v-.099c0-.853-.238-1.667-.714-2.42-.139-.238-.754-1.052-1.845-2.421-.853-1.091-1.587-2.44-2.182-4.007-.02-.059-.02-.119-.02-.178 0-.06 0-.119.02-.159.02-.02-.079-.02-.258-.02z" fill-rule="nonzero"/><path d="m200.926 16.413c-1.012.893-1.964 1.329-2.817 1.329-.119 0-.199-.019-.258-.059.218-.397.317-.734.317-1.032 0-.654-.377-.972-1.13-.972-.655 0-1.369.437-1.369 1.012 0 .972.615 1.448 1.845 1.448.674 0 1.527-.178 2.559-.516l-3.174 6.983h.833z" fill-rule="nonzero"/><path d="m217.366 31.334v-16.583" fill="none"/><path d="m217.366 31.334v-16.583" fill="none" stroke="#000" stroke-width=".46"/><path d="m212.924 34.644c2.043 0 4.562-1.706 4.562-3.452 0-1.051-.932-1.726-2.261-1.726-2.004 0-4.523 1.667-4.523 3.452 0 1.091.972 1.726 2.222 1.726z" fill-rule="nonzero"/><path d="m217.409 19.667c.992 0 1.329.377 1.905.793 1.607 1.131 2.42 2.381 2.42 3.769v.099c-.04 1.786-.06 1.925-.575 3.075-.08.179-.119.298-.119.377 0 .099.059.159.158.159.199 0 1.21-1.389 1.21-3.928v-.099c0-.853-.238-1.666-.714-2.42-.139-.238-.754-1.052-1.845-2.42-.853-1.092-1.587-2.44-2.182-4.008-.02-.059-.02-.119-.02-.178 0-.06 0-.119.02-.159.02-.02-.079-.02-.258-.02z" fill-rule="nonzero"/><path d="m232.244 26.374v-16.582" fill="none"/><path d="m232.244 26.374v-16.582" fill="none" stroke="#000" stroke-width=".46"/><path d="m227.802 29.685c2.043 0 4.562-1.706 4.562-3.452 0-1.052-.932-1.726-2.261-1.726-2.004 0-4.523 1.666-4.523 3.452 0 1.091.972 1.726 2.222 1.726z" fill-rule="nonzero"/><path d="m252.856 31.334v-16.583" fill="none"/><path d="m252.856 31.334v-16.583" fill="none" stroke="#000" stroke-width=".46"/><path d="m248.414 34.644c2.043 0 4.563-1.706 4.563-3.452 0-1.051-.933-1.726-2.262-1.726-2.003 0-4.523 1.667-4.523 3.452 0 1.091.972 1.726 2.222 1.726z" fill-rule="nonzero"/><path d="m274.399 15.526v18.907" fill="none"/><path d="m274.399 15.526v18.907" fill="none" stroke="#000" stroke-width=".46"/><path d="m276.466 17.286c2.043 0 4.562-1.706 4.562-3.452 0-1.051-.932-1.725-2.261-1.725-2.004 0-4.523 1.666-4.523 3.451 0 1.091.972 1.726 2.222 1.726z" fill-rule="nonzero"/><path d="m289.432 15.526v18.907" fill="none"/><path d="m289.432 15.526v18.907" fill="none" stroke="#000" stroke-width=".46"/><path d="m291.499 17.286c2.043 0 4.562-1.706 4.562-3.452 0-1.051-.932-1.725-2.261-1.725-2.004 0-4.523 1.666-4.523 3.451 0 1.091.972 1.726 2.222 1.726z" fill-rule="nonzero"/><path d="m304.31 18.005v16.428" fill="none"/><path d="m304.31 18.005v16.428" fill="none" stroke="#000" stroke-width=".46"/><path d="m306.377 19.766c2.043 0 4.562-1.706 4.562-3.452 0-1.051-.932-1.726-2.261-1.726-2.004 0-4.523 1.667-4.523 3.452 0 1.091.972 1.726 2.222 1.726z" fill-rule="nonzero"/><path d="m319.188 15.526v18.907" fill="none"/><path d="m319.188 15.526v18.907" fill="none" stroke="#000" stroke-width=".46"/><path d="m321.255 17.286c2.043 0 4.562-1.706 4.562-3.452 0-1.051-.932-1.725-2.261-1.725-2.004 0-4.523 1.666-4.523 3.451 0 1.091.972 1.726 2.222 1.726z" fill-rule="nonzero"/><path d="m339.168 16.413c-1.012.893-1.964 1.329-2.817 1.329-.119 0-.198-.019-.258-.059.219-.397.318-.734.318-1.032 0-.654-.377-.972-1.131-.972-.655 0-1.369.437-1.369 1.012 0 .972.615 1.448 1.845 1.448.675 0 1.528-.178 2.559-.516l-3.174 6.983h.833z" fill-rule="nonzero"/><path d="m355.608 21.415v-16.583" fill="none"/><path d="m355.608 21.415v-16.583" fill="none" stroke="#000" stroke-width=".46"/><path d="m351.166 24.725c2.043 0 4.563-1.706 4.563-3.451 0-1.052-.933-1.726-2.262-1.726-2.003 0-4.523 1.666-4.523 3.451 0 1.091.972 1.726 2.222 1.726z" fill-rule="nonzero"/><path d="m355.652 9.748c.992 0 1.329.377 1.904.793 1.607 1.131 2.42 2.381 2.42 3.77v.099c-.039 1.785-.059 1.924-.575 3.075-.079.178-.119.297-.119.376 0 .1.06.159.159.159.198 0 1.21-1.388 1.21-3.928v-.099c0-.853-.238-1.666-.714-2.42-.139-.238-.754-1.051-1.845-2.42-.853-1.091-1.587-2.44-2.182-4.007-.02-.06-.02-.119-.02-.179 0-.059 0-.119.02-.159.02-.019-.08-.019-.258-.019z" fill-rule="nonzero"/><path d="m369.079 16.413c-1.011.893-1.964 1.329-2.817 1.329-.119 0-.198-.019-.258-.059.219-.397.318-.734.318-1.032 0-.654-.377-.972-1.131-.972-.654 0-1.369.437-1.369 1.012 0 .972.615 1.448 1.845 1.448.675 0 1.528-.178 2.559-.516l-3.174 6.983h.833z" fill-rule="nonzero"/><path d="m385.365 21.415v-16.583" fill="none"/><path d="m385.365 21.415v-16.583" fill="none" stroke="#000" stroke-width=".46"/><path d="m380.922 24.725c2.044 0 4.563-1.706 4.563-3.451 0-1.052-.932-1.726-2.262-1.726-2.003 0-4.523 1.666-4.523 3.451 0 1.091.973 1.726 2.222 1.726z" fill-rule="nonzero"/><path d="m372.811 25.777 2.797-2.063c1.23-.893 1.706-1.905 1.746-2.659 0-1.111-1.012-1.944-2.202-1.944-.833 0-1.448.318-1.845.972l.139-6.249h-.635zm1.845-5.872c.635 0 1.111.456 1.111 1.071 0 1.031-1.369 3.015-2.4 3.67-.06-.337-.1-.992-.1-1.964 0-.536.04-1.19.12-1.944.297-.556.714-.833 1.269-.833z" fill-rule="nonzero"/><path d="m385.408 9.748c.992 0 1.329.377 1.904.793 1.607 1.131 2.421 2.381 2.421 3.77v.099c-.04 1.785-.06 1.924-.576 3.075-.079.178-.119.297-.119.376 0 .1.06.159.159.159.198 0 1.21-1.388 1.21-3.928v-.099c0-.853-.238-1.666-.714-2.42-.139-.238-.754-1.051-1.845-2.42-.853-1.091-1.587-2.44-2.182-4.007-.02-.06-.02-.119-.02-.179 0-.059 0-.119.02-.159.02-.019-.079-.019-.258-.019z" fill-rule="nonzero"/><path d="m407.514 16.413c-1.011.893-1.963 1.329-2.817 1.329-.119 0-.198-.019-.257-.059.218-.397.317-.734.317-1.032 0-.654-.377-.972-1.131-.972-.654 0-1.369.437-1.369 1.012 0 .972.615 1.448 1.845 1.448.675 0 1.528-.178 2.559-.516l-3.174 6.983h.834z" fill-rule="nonzero"/><path d="m423.8 23.895v-16.583" fill="none"/><path d="m423.8 23.895v-16.583" fill="none" stroke="#000" stroke-width=".46"/><path d="m419.357 27.205c2.044 0 4.563-1.706 4.563-3.452 0-1.051-.932-1.726-2.261-1.726-2.004 0-4.523 1.667-4.523 3.452 0 1.091.972 1.726 2.221 1.726z" fill-rule="nonzero"/><path d="m423.843 12.228c.992 0 1.329.377 1.905.793 1.606 1.131 2.42 2.381 2.42 3.769v.099c-.04 1.786-.06 1.925-.576 3.075-.079.179-.119.298-.119.377 0 .099.06.159.159.159.198 0 1.21-1.389 1.21-3.928v-.099c0-.853-.238-1.667-.714-2.42-.139-.238-.754-1.052-1.845-2.421-.853-1.091-1.587-2.44-2.182-4.007-.02-.059-.02-.119-.02-.178 0-.06 0-.119.02-.159.02-.02-.079-.02-.258-.02z" fill-rule="nonzero"/><path d="m437.426 16.413c-1.012.893-1.964 1.329-2.817 1.329-.119 0-.199-.019-.258-.059.218-.397.317-.734.317-1.032 0-.654-.377-.972-1.131-.972-.654 0-1.368.437-1.368 1.012 0 .972.615 1.448 1.845 1.448.674 0 1.527-.178 2.559-.516l-3.174 6.983h.833z" fill-rule="nonzero"/><path d="m453.711 31.334v-16.583" fill="none"/><path d="m453.711 31.334v-16.583" fill="none" stroke="#000" stroke-width=".46"/><path d="m449.269 34.644c2.043 0 4.562-1.706 4.562-3.452 0-1.051-.932-1.726-2.261-1.726-2.004 0-4.523 1.667-4.523 3.452 0 1.091.972 1.726 2.222 1.726z" fill-rule="nonzero"/><path d="m453.754 19.667c.992 0 1.329.377 1.905.793 1.607 1.131 2.42 2.381 2.42 3.769v.099c-.04 1.786-.06 1.925-.575 3.075-.08.179-.119.298-.119.377 0 .099.059.159.158.159.199 0 1.21-1.389 1.21-3.928v-.099c0-.853-.238-1.666-.714-2.42-.139-.238-.754-1.052-1.845-2.42-.853-1.092-1.587-2.44-2.182-4.008-.02-.059-.02-.119-.02-.178 0-.06 0-.119.02-.159.02-.02-.079-.02-.258-.02z" fill-rule="nonzero"/><path d="m468.589 26.374v-16.428" fill="none"/><path d="m468.589 26.374v-16.428" fill="none" stroke="#000" stroke-width=".46"/><path d="m464.147 29.685c2.043 0 4.562-1.706 4.562-3.452 0-1.052-.932-1.726-2.261-1.726-2.004 0-4.523 1.666-4.523 3.452 0 1.091.972 1.726 2.222 1.726z" fill-rule="nonzero"/><path d="m483.622 26.374v-16.428" fill="none"/><path d="m483.622 26.374v-16.428" fill="none" stroke="#000" stroke-width=".46"/><path d="m479.18 29.685c2.043 0 4.562-1.706 4.562-3.452 0-1.052-.932-1.726-2.261-1.726-2.004 0-4.523 1.666-4.523 3.452 0 1.091.972 1.726 2.222 1.726z" fill-rule="nonzero"/><path d="m498.5 31.334v-16.583" fill="none"/><path d="m498.5 31.334v-16.583" fill="none" stroke="#000" stroke-width=".46"/><path d="m494.058 34.644c2.043 0 4.563-1.706 4.563-3.452 0-1.051-.933-1.726-2.262-1.726-2.003 0-4.523 1.667-4.523 3.452 0 1.091.972 1.726 2.222 1.726z" fill-rule="nonzero"/><path d="m28.755 81.237v18.908" fill="none"/><path d="m28.755 81.237v18.908" fill="none" stroke="#000" stroke-width=".46"/><path d="m30.822 82.998c2.043 0 4.562-1.706 4.562-3.452 0-1.051-.932-1.726-2.261-1.726-2.004 0-4.523 1.667-4.523 3.452 0 1.091.972 1.726 2.222 1.726z" fill-rule="nonzero"/><path d="m43.788 81.237v18.908" fill="none"/><path d="m43.788 81.237v18.908" fill="none" stroke="#000" stroke-width=".46"/><path d="m45.855 82.998c2.043 0 4.562-1.706 4.562-3.452 0-1.051-.932-1.726-2.261-1.726-2.004 0-4.523 1.667-4.523 3.452 0 1.091.972 1.726 2.222 1.726z" fill-rule="nonzero"/><path d="m58.666 83.717v16.428" fill="none"/><path d="m58.666 83.717v16.428" fill="none" stroke="#000" stroke-width=".46"/><path d="m60.733 85.478c2.043 0 4.563-1.707 4.563-3.452 0-1.052-.933-1.726-2.262-1.726-2.004 0-4.523 1.666-4.523 3.452 0 1.091.972 1.726 2.222 1.726z" fill-rule="nonzero"/><path d="m73.699 81.237v18.908" fill="none"/><path d="m73.699 81.237v18.908" fill="none" stroke="#000" stroke-width=".46"/><path d="m75.766 82.998c2.043 0 4.563-1.706 4.563-3.452 0-1.051-.933-1.726-2.262-1.726-2.003 0-4.523 1.667-4.523 3.452 0 1.091.972 1.726 2.222 1.726z" fill-rule="nonzero"/><path d="m93.679 82.125c-1.011.893-1.964 1.329-2.817 1.329-.119 0-.198-.02-.258-.059.219-.397.318-.734.318-1.032 0-.655-.377-.972-1.131-.972-.655 0-1.369.436-1.369 1.012 0 .972.615 1.448 1.845 1.448.675 0 1.528-.179 2.559-.516l-3.174 6.983h.833z" fill-rule="nonzero"/><path d="m103.61 76.278v16.583" fill="none"/><path d="m103.61 76.278v16.583" fill="none" stroke="#000" stroke-width=".46"/><path d="m105.677 78.038c2.043 0 4.563-1.706 4.563-3.451 0-1.052-.933-1.726-2.262-1.726-2.003 0-4.523 1.666-4.523 3.452 0 1.091.972 1.725 2.222 1.725z" fill-rule="nonzero"/><path d="m103.654 92.798c.178 0 .278 0 .258-.02-.02-.04-.02-.099-.02-.159s0-.119.02-.179c.615-1.547 1.309-2.935 2.182-4.007.714-.873 1.527-1.666 2.261-2.539.774-.912 1.131-1.984 1.131-2.995 0-.536-.059-1.052-.198-1.587-.258-1.012-1.052-2.956-1.528-2.956-.059 0-.079.059-.079.178 0 .1.039.238.119.377.694 1.29 1.031 2.381 1.031 3.234 0 1.21-.456 2.321-1.309 3.273-.178.179-.754.655-1.726 1.428-1.23.992-1.309 1.012-2.142 1.012z" fill-rule="nonzero"/><path d="m123.59 82.125c-1.011.893-1.963 1.329-2.816 1.329-.119 0-.199-.02-.258-.059.218-.397.317-.734.317-1.032 0-.655-.377-.972-1.131-.972-.654 0-1.368.436-1.368 1.012 0 .972.614 1.448 1.844 1.448.675 0 1.528-.179 2.559-.516l-3.174 6.983h.834z" fill-rule="nonzero"/><path d="m133.522 73.798v16.583" fill="none"/><path d="m133.522 73.798v16.583" fill="none" stroke="#000" stroke-width=".46"/><path d="m135.588 75.559c2.044 0 4.563-1.706 4.563-3.452 0-1.051-.932-1.726-2.261-1.726-2.004 0-4.523 1.667-4.523 3.452 0 1.091.972 1.726 2.221 1.726z" fill-rule="nonzero"/><path d="m133.565 90.318c.179 0 .278 0 .258-.02-.02-.04-.02-.099-.02-.159 0-.059 0-.119.02-.178.615-1.548 1.309-2.936 2.182-4.007.714-.873 1.528-1.667 2.261-2.54.774-.912 1.131-1.983 1.131-2.995 0-.536-.059-1.051-.198-1.587-.258-1.012-1.052-2.956-1.528-2.956-.059 0-.079.06-.079.179 0 .099.04.238.119.377.694 1.289 1.032 2.38 1.032 3.233 0 1.21-.457 2.321-1.31 3.273-.178.179-.754.655-1.726 1.429-1.229.991-1.309 1.011-2.142 1.011z" fill-rule="nonzero"/><path d="m160.941 82.125c-1.012.893-1.964 1.329-2.817 1.329-.119 0-.199-.02-.258-.059.218-.397.317-.734.317-1.032 0-.655-.377-.972-1.13-.972-.655 0-1.369.436-1.369 1.012 0 .972.615 1.448 1.845 1.448.674 0 1.527-.179 2.559-.516l-3.174 6.983h.833z" fill-rule="nonzero"/><path d="m168.857 70.544h10.539" fill="none"/><path d="m168.857 70.544h10.539" fill="none" stroke="#000" stroke-width=".77"/><path d="m170.872 71.319v16.583" fill="none"/><path d="m170.872 71.319v16.583" fill="none" stroke="#000" stroke-width=".46"/><path d="m172.939 73.079c2.043 0 4.562-1.706 4.562-3.452 0-1.051-.932-1.725-2.261-1.725-2.004 0-4.523 1.666-4.523 3.451 0 1.091.972 1.726 2.222 1.726z" fill-rule="nonzero"/><path d="m163.588 74.13 2.797-2.063c1.23-.892 1.706-1.904 1.746-2.658 0-1.111-1.012-1.944-2.202-1.944-.834 0-1.449.317-1.845.972l.139-6.249h-.635zm1.845-5.871c.634 0 1.111.456 1.111 1.071 0 1.031-1.369 3.015-2.401 3.67-.059-.338-.099-.992-.099-1.964 0-.536.04-1.19.119-1.944.298-.556.714-.833 1.27-.833z" fill-rule="nonzero"/><path d="m170.915 87.838c.179 0 .278 0 .258-.02-.02-.039-.02-.099-.02-.158 0-.06 0-.119.02-.179.615-1.547 1.309-2.936 2.182-4.007.714-.873 1.528-1.666 2.262-2.539.773-.913 1.13-1.984 1.13-2.996 0-.535-.059-1.051-.198-1.587-.258-1.011-1.051-2.956-1.527-2.956-.06 0-.08.06-.08.179 0 .099.04.238.119.377.695 1.289 1.032 2.38 1.032 3.233 0 1.211-.456 2.321-1.309 3.274-.179.178-.754.654-1.726 1.428-1.23.992-1.31 1.012-2.143 1.012z" fill-rule="nonzero"/><path d="m190.852 82.125c-1.012.893-1.964 1.329-2.817 1.329-.119 0-.198-.02-.258-.059.218-.397.318-.734.318-1.032 0-.655-.377-.972-1.131-.972-.655 0-1.369.436-1.369 1.012 0 .972.615 1.448 1.845 1.448.674 0 1.527-.179 2.559-.516l-3.174 6.983h.833z" fill-rule="nonzero"/><path d="m198.768 70.544h10.539" fill="none"/><path d="m198.768 70.544h10.539" fill="none" stroke="#000" stroke-width=".77"/><path d="m200.783 71.319v16.583" fill="none"/><path d="m200.783 71.319v16.583" fill="none" stroke="#000" stroke-width=".46"/><path d="m202.85 73.079c2.043 0 4.563-1.706 4.563-3.452 0-1.051-.933-1.725-2.262-1.725-2.004 0-4.523 1.666-4.523 3.451 0 1.091.972 1.726 2.222 1.726z" fill-rule="nonzero"/><path d="m197.96 77.265v-10.653l-3.035 1.071v-3.987h-.496v10.653l3.035-1.052v3.968zm-3.035-7.975 2.539-.932v3.332l-2.539.913z" fill-rule="nonzero"/><path d="m200.826 87.838c.179 0 .278 0 .258-.02-.019-.039-.019-.099-.019-.158 0-.06 0-.119.019-.179.615-1.547 1.31-2.936 2.182-4.007.715-.873 1.528-1.666 2.262-2.539.774-.913 1.131-1.984 1.131-2.996 0-.535-.06-1.051-.199-1.587-.258-1.011-1.051-2.956-1.527-2.956-.06 0-.08.06-.08.179 0 .099.04.238.119.377.695 1.289 1.032 2.38 1.032 3.233 0 1.211-.456 2.321-1.309 3.274-.179.178-.754.654-1.726 1.428-1.23.992-1.309 1.012-2.143 1.012z" fill-rule="nonzero"/><path d="m213.956 70.544h10.539" fill="none"/><path d="m213.956 70.544h10.539" fill="none" stroke="#000" stroke-width=".77"/><path d="m215.971 71.319v21.387" fill="none"/><path d="m215.971 71.319v21.387" fill="none" stroke="#000" stroke-width=".46"/><path d="m218.038 73.079c2.043 0 4.563-1.706 4.563-3.452 0-1.051-.933-1.725-2.262-1.725-2.003 0-4.523 1.666-4.523 3.451 0 1.091.972 1.726 2.222 1.726z" fill-rule="nonzero"/><path d="m230.849 76.278v17.978" fill="none"/><path d="m230.849 76.278v17.978" fill="none" stroke="#000" stroke-width=".46"/><path d="m232.916 78.038c2.043 0 4.563-1.706 4.563-3.451 0-1.052-.933-1.726-2.262-1.726-2.003 0-4.523 1.666-4.523 3.452 0 1.091.972 1.725 2.222 1.725z" fill-rule="nonzero"/><path d="m245.882 81.237v14.724" fill="none"/><path d="m245.882 81.237v14.724" fill="none" stroke="#000" stroke-width=".46"/><path d="m247.949 82.998c2.043 0 4.563-1.706 4.563-3.452 0-1.051-.933-1.726-2.262-1.726-2.003 0-4.523 1.667-4.523 3.452 0 1.091.972 1.726 2.222 1.726z" fill-rule="nonzero"/><path d="m260.76 83.717v13.948" fill="none"/><path d="m260.76 83.717v13.948" fill="none" stroke="#000" stroke-width=".46"/><path d="m262.827 85.478c2.044 0 4.563-1.707 4.563-3.452 0-1.052-.932-1.726-2.262-1.726-2.003 0-4.523 1.666-4.523 3.452 0 1.091.973 1.726 2.222 1.726z" fill-rule="nonzero"/><path d="m283.233 81.237v18.908" fill="none"/><path d="m283.233 81.237v18.908" fill="none" stroke="#000" stroke-width=".46"/><path d="m285.299 82.998c2.044 0 4.563-1.706 4.563-3.452 0-1.051-.932-1.726-2.261-1.726-2.004 0-4.523 1.667-4.523 3.452 0 1.091.972 1.726 2.221 1.726z" fill-rule="nonzero"/><path d="m298.111 81.237v18.908" fill="none"/><path d="m298.111 81.237v18.908" fill="none" stroke="#000" stroke-width=".46"/><path d="m300.178 82.998c2.043 0 4.562-1.706 4.562-3.452 0-1.051-.932-1.726-2.261-1.726-2.004 0-4.523 1.667-4.523 3.452 0 1.091.972 1.726 2.222 1.726z" fill-rule="nonzero"/><path d="m313.144 83.717v16.428" fill="none"/><path d="m313.144 83.717v16.428" fill="none" stroke="#000" stroke-width=".46"/><path d="m315.211 85.478c2.043 0 4.562-1.707 4.562-3.452 0-1.052-.932-1.726-2.261-1.726-2.004 0-4.523 1.666-4.523 3.452 0 1.091.972 1.726 2.222 1.726z" fill-rule="nonzero"/><path d="m328.022 81.237v18.908" fill="none"/><path d="m328.022 81.237v18.908" fill="none" stroke="#000" stroke-width=".46"/><path d="m330.089 82.998c2.043 0 4.562-1.706 4.562-3.452 0-1.051-.932-1.726-2.261-1.726-2.004 0-4.523 1.667-4.523 3.452 0 1.091.972 1.726 2.222 1.726z" fill-rule="nonzero"/><path d="m348.117 89.326c-.813-1.309-2.479-2.757-2.479-3.809 0-.694.615-1.785 1.864-3.293l-3.531-4.84c-.218.039-.337.119-.337.258 0-.02 1.448 1.726 1.448 2.777 0 1.031-.674 2.162-2.043 3.412 1.547 1.904 2.42 2.817 3.035 3.769-.417-.218-.813-.337-1.19-.337-1.21 0-1.984 1.15-1.984 2.321 0 1.428 2.381 3.154 2.837 3.154.079 0 .139-.04.158-.119-.833-.813-1.249-1.567-1.249-2.261 0-.913.773-1.429 1.785-1.429.536 0 1.111.139 1.686.397z" fill-rule="nonzero"/><path d="m368.769 82.125c-1.011.893-1.964 1.329-2.817 1.329-.119 0-.198-.02-.257-.059.218-.397.317-.734.317-1.032 0-.655-.377-.972-1.131-.972-.654 0-1.369.436-1.369 1.012 0 .972.615 1.448 1.845 1.448.675 0 1.528-.179 2.559-.516l-3.174 6.983h.834z" fill-rule="nonzero"/><path d="m378.7 76.278v16.583" fill="none"/><path d="m378.7 76.278v16.583" fill="none" stroke="#000" stroke-width=".46"/><path d="m380.767 78.038c2.044 0 4.563-1.706 4.563-3.451 0-1.052-.932-1.726-2.262-1.726-2.003 0-4.522 1.666-4.522 3.452 0 1.091.972 1.725 2.221 1.725z" fill-rule="nonzero"/><path d="m378.744 92.798c.178 0 .278 0 .258-.02-.02-.04-.02-.099-.02-.159s0-.119.02-.179c.615-1.547 1.309-2.935 2.182-4.007.714-.873 1.527-1.666 2.261-2.539.774-.912 1.131-1.984 1.131-2.995 0-.536-.059-1.052-.198-1.587-.258-1.012-1.052-2.956-1.528-2.956-.059 0-.079.059-.079.178 0 .1.04.238.119.377.694 1.29 1.031 2.381 1.031 3.234 0 1.21-.456 2.321-1.309 3.273-.178.179-.754.655-1.726 1.428-1.23.992-1.309 1.012-2.142 1.012z" fill-rule="nonzero"/><path d="m401.018 76.278v16.428" fill="none"/><path d="m401.018 76.278v16.428" fill="none" stroke="#000" stroke-width=".46"/><path d="m403.084 78.038c2.044 0 4.563-1.706 4.563-3.451 0-1.052-.932-1.726-2.261-1.726-2.004 0-4.523 1.666-4.523 3.452 0 1.091.972 1.725 2.221 1.725z" fill-rule="nonzero"/><path d="m416.051 73.798v18.133" fill="none"/><path d="m416.051 73.798v18.133" fill="none" stroke="#000" stroke-width=".46"/><path d="m418.118 75.559c2.043 0 4.562-1.706 4.562-3.452 0-1.051-.932-1.726-2.261-1.726-2.004 0-4.523 1.667-4.523 3.452 0 1.091.972 1.726 2.222 1.726z" fill-rule="nonzero"/><path d="m429.069 70.544h10.539" fill="none"/><path d="m429.069 70.544h10.539" fill="none" stroke="#000" stroke-width=".77"/><path d="m431.084 71.319v19.837" fill="none"/><path d="m431.084 71.319v19.837" fill="none" stroke="#000" stroke-width=".46"/><path d="m433.151 73.079c2.043 0 4.562-1.706 4.562-3.452 0-1.051-.932-1.725-2.261-1.725-2.004 0-4.523 1.666-4.523 3.451 0 1.091.972 1.726 2.222 1.726z" fill-rule="nonzero"/><path d="m423.8 74.13 2.797-2.063c1.23-.892 1.706-1.904 1.746-2.658 0-1.111-1.012-1.944-2.202-1.944-.834 0-1.449.317-1.845.972l.139-6.249h-.635zm1.845-5.871c.634 0 1.111.456 1.111 1.071 0 1.031-1.369 3.015-2.401 3.67-.059-.338-.099-.992-.099-1.964 0-.536.04-1.19.119-1.944.298-.556.714-.833 1.27-.833z" fill-rule="nonzero"/><path d="m445.032 70.544h10.539" fill="none"/><path d="m445.032 70.544h10.539" fill="none" stroke="#000" stroke-width=".77"/><path d="m447.047 71.319v18.907" fill="none"/><path d="m447.047 71.319v18.907" fill="none" stroke="#000" stroke-width=".46"/><path d="m449.114 73.079c2.043 0 4.562-1.706 4.562-3.452 0-1.051-.932-1.725-2.261-1.725-2.004 0-4.523 1.666-4.523 3.451 0 1.091.972 1.726 2.222 1.726z" fill-rule="nonzero"/><path d="m444.224 77.265v-10.653l-3.035 1.071v-3.987h-.496v10.653l3.035-1.052v3.968zm-3.035-7.975 2.539-.932v3.332l-2.539.913z" fill-rule="nonzero"/><path d="m461.925 76.278v15.188" fill="none"/><path d="m461.925 76.278v15.188" fill="none" stroke="#000" stroke-width=".46"/><path d="m463.992 78.038c2.043 0 4.562-1.706 4.562-3.451 0-1.052-.932-1.726-2.261-1.726-2.004 0-4.523 1.666-4.523 3.452 0 1.091.972 1.725 2.222 1.725z" fill-rule="nonzero"/><path d="m476.958 76.278v15.188" fill="none"/><path d="m476.958 76.278v15.188" fill="none" stroke="#000" stroke-width=".46"/><path d="m479.025 78.038c2.043 0 4.562-1.706 4.562-3.451 0-1.052-.932-1.726-2.261-1.726-2.004 0-4.523 1.666-4.523 3.452 0 1.091.972 1.725 2.222 1.725z" fill-rule="nonzero"/><path d="m491.991 81.237v16.583" fill="none"/><path d="m491.991 81.237v16.583" fill="none" stroke="#000" stroke-width=".46"/><path d="m494.058 82.998c2.043 0 4.563-1.706 4.563-3.452 0-1.051-.933-1.726-2.262-1.726-2.003 0-4.523 1.667-4.523 3.452 0 1.091.972 1.726 2.222 1.726z" fill-rule="nonzero"/><path d="m28.755 146.949v18.908" fill="none"/><path d="m28.755 146.949v18.908" fill="none" stroke="#000" stroke-width=".46"/><path d="m30.822 148.709c2.043 0 4.562-1.706 4.562-3.451 0-1.052-.932-1.726-2.261-1.726-2.004 0-4.523 1.666-4.523 3.452 0 1.091.972 1.725 2.222 1.725z" fill-rule="nonzero"/><path d="m44.253 146.949v18.908" fill="none"/><path d="m44.253 146.949v18.908" fill="none" stroke="#000" stroke-width=".46"/><path d="m46.32 148.709c2.043 0 4.562-1.706 4.562-3.451 0-1.052-.932-1.726-2.261-1.726-2.004 0-4.523 1.666-4.523 3.452 0 1.091.972 1.725 2.222 1.725z" fill-rule="nonzero"/><path d="m59.906 149.429v16.428" fill="none"/><path d="m59.906 149.429v16.428" fill="none" stroke="#000" stroke-width=".46"/><path d="m61.973 151.189c2.043 0 4.562-1.706 4.562-3.452 0-1.051-.932-1.725-2.261-1.725-2.004 0-4.523 1.666-4.523 3.451 0 1.091.972 1.726 2.222 1.726z" fill-rule="nonzero"/><path d="m75.404 146.949v18.908" fill="none"/><path d="m75.404 146.949v18.908" fill="none" stroke="#000" stroke-width=".46"/><path d="m77.471 148.709c2.043 0 4.562-1.706 4.562-3.451 0-1.052-.932-1.726-2.261-1.726-2.004 0-4.523 1.666-4.523 3.452 0 1.091.972 1.725 2.222 1.725z" fill-rule="nonzero"/><path d="m96.159 147.837c-1.012.892-1.964 1.329-2.817 1.329-.119 0-.198-.02-.258-.06.218-.397.318-.734.318-1.031 0-.655-.377-.972-1.131-.972-.655 0-1.369.436-1.369 1.011 0 .972.615 1.448 1.845 1.448.674 0 1.527-.178 2.559-.515l-3.174 6.983h.833z" fill-rule="nonzero"/><path d="m113.064 152.838v-16.583" fill="none"/><path d="m113.064 152.838v-16.583" fill="none" stroke="#000" stroke-width=".46"/><path d="m108.622 156.149c2.043 0 4.562-1.706 4.562-3.452 0-1.052-.932-1.726-2.261-1.726-2.004 0-4.523 1.666-4.523 3.452 0 1.091.972 1.726 2.222 1.726z" fill-rule="nonzero"/><path d="m104.972 160.334v-10.652l-3.035 1.071v-3.988h-.496v10.653l3.035-1.051v3.967zm-3.035-7.974 2.539-.933v3.333l-2.539.912z" fill-rule="nonzero"/><path d="m113.108 141.171c.991 0 1.329.377 1.904.794 1.607 1.13 2.42 2.38 2.42 3.769v.099c-.04 1.785-.059 1.924-.575 3.075-.079.178-.119.297-.119.377 0 .099.059.158.159.158.198 0 1.21-1.388 1.21-3.927v-.1c0-.853-.238-1.666-.715-2.42-.138-.238-.753-1.051-1.844-2.42-.853-1.091-1.587-2.44-2.183-4.007-.019-.06-.019-.119-.019-.179 0-.059 0-.119.019-.158.02-.02-.079-.02-.257-.02z" fill-rule="nonzero"/><path d="m127.155 147.837c-1.012.892-1.964 1.329-2.817 1.329-.119 0-.198-.02-.258-.06.218-.397.318-.734.318-1.031 0-.655-.377-.972-1.131-.972-.655 0-1.369.436-1.369 1.011 0 .972.615 1.448 1.845 1.448.674 0 1.527-.178 2.559-.515l-3.174 6.983h.833z" fill-rule="nonzero"/><path d="m144.215 152.838v-16.583" fill="none"/><path d="m144.215 152.838v-16.583" fill="none" stroke="#000" stroke-width=".46"/><path d="m139.773 156.149c2.043 0 4.563-1.706 4.563-3.452 0-1.052-.933-1.726-2.262-1.726-2.004 0-4.523 1.666-4.523 3.452 0 1.091.972 1.726 2.222 1.726z" fill-rule="nonzero"/><path d="m131.662 157.2 2.797-2.063c1.23-.893 1.706-1.905 1.746-2.658 0-1.111-1.012-1.944-2.202-1.944-.833 0-1.448.317-1.845.972l.139-6.249h-.635zm1.845-5.872c.635 0 1.111.456 1.111 1.071 0 1.032-1.369 3.016-2.401 3.67-.059-.337-.099-.992-.099-1.964 0-.535.04-1.19.119-1.944.298-.555.714-.833 1.27-.833z" fill-rule="nonzero"/><path d="m144.259 141.171c.992 0 1.329.377 1.904.794 1.607 1.13 2.42 2.38 2.42 3.769v.099c-.039 1.785-.059 1.924-.575 3.075-.079.178-.119.297-.119.377 0 .099.059.158.159.158.198 0 1.21-1.388 1.21-3.927v-.1c0-.853-.238-1.666-.714-2.42-.139-.238-.754-1.051-1.845-2.42-.853-1.091-1.587-2.44-2.182-4.007-.02-.06-.02-.119-.02-.179 0-.059 0-.119.02-.158.019-.02-.08-.02-.258-.02z" fill-rule="nonzero"/><path d="m166.365 147.837c-1.012.892-1.964 1.329-2.817 1.329-.119 0-.198-.02-.258-.06.218-.397.318-.734.318-1.031 0-.655-.377-.972-1.131-.972-.655 0-1.369.436-1.369 1.011 0 .972.615 1.448 1.845 1.448.674 0 1.527-.178 2.559-.515l-3.174 6.983h.833z" fill-rule="nonzero"/><path d="m183.27 155.318v-16.583" fill="none"/><path d="m183.27 155.318v-16.583" fill="none" stroke="#000" stroke-width=".46"/><path d="m178.828 158.628c2.043 0 4.563-1.706 4.563-3.452 0-1.051-.933-1.725-2.262-1.725-2.003 0-4.523 1.666-4.523 3.451 0 1.091.972 1.726 2.222 1.726z" fill-rule="nonzero"/><path d="m186.68 152.685c-.476 0-.913.417-.913.952 0 .457.457.893.913.893.535 0 .952-.436.952-.893 0-.535-.417-.952-.952-.952z" fill-rule="nonzero"/><path d="m212.252 162.757v-18.908" fill="none"/><path d="m212.252 162.757v-18.908" fill="none" stroke="#000" stroke-width=".46"/><path d="m207.809 166.067c2.044 0 4.563-1.706 4.563-3.451 0-1.052-.932-1.726-2.262-1.726-2.003 0-4.523 1.666-4.523 3.451 0 1.091.972 1.726 2.222 1.726z" fill-rule="nonzero"/><path d="m227.905 157.798v-15.498" fill="none"/><path d="m227.905 157.798v-15.498" fill="none" stroke="#000" stroke-width=".46"/><path d="m223.462 161.108c2.044 0 4.563-1.706 4.563-3.452 0-1.051-.932-1.726-2.262-1.726-2.003 0-4.523 1.667-4.523 3.452 0 1.091.973 1.726 2.222 1.726z" fill-rule="nonzero"/><path d="m243.403 155.318v-14.723" fill="none"/><path d="m243.403 155.318v-14.723" fill="none" stroke="#000" stroke-width=".46"/><path d="m238.96 158.628c2.044 0 4.563-1.706 4.563-3.452 0-1.051-.932-1.725-2.262-1.725-2.003 0-4.522 1.666-4.522 3.451 0 1.091.972 1.726 2.221 1.726z" fill-rule="nonzero"/><path d="m258.901 152.838v-13.948" fill="none"/><path d="m258.901 152.838v-13.948" fill="none" stroke="#000" stroke-width=".46"/><path d="m254.458 156.149c2.044 0 4.563-1.706 4.563-3.452 0-1.052-.932-1.726-2.262-1.726-2.003 0-4.522 1.666-4.522 3.452 0 1.091.972 1.726 2.221 1.726z" fill-rule="nonzero"/><path d="m250.808 160.334v-10.652l-3.035 1.071v-3.988h-.496v10.653l3.035-1.051v3.967zm-3.035-7.974 2.539-.933v3.333l-2.539.912z" fill-rule="nonzero"/><path d="m275.484 146.949v18.908" fill="none"/><path d="m275.484 146.949v18.908" fill="none" stroke="#000" stroke-width=".46"/><path d="m277.55 148.709c2.044 0 4.563-1.706 4.563-3.451 0-1.052-.932-1.726-2.261-1.726-2.004 0-4.523 1.666-4.523 3.452 0 1.091.972 1.725 2.221 1.725z" fill-rule="nonzero"/><path d="m290.982 146.949v18.908" fill="none"/><path d="m290.982 146.949v18.908" fill="none" stroke="#000" stroke-width=".46"/><path d="m293.048 148.709c2.044 0 4.563-1.706 4.563-3.451 0-1.052-.932-1.726-2.261-1.726-2.004 0-4.523 1.666-4.523 3.452 0 1.091.972 1.725 2.221 1.725z" fill-rule="nonzero"/><path d="m306.635 149.429v16.428" fill="none"/><path d="m306.635 149.429v16.428" fill="none" stroke="#000" stroke-width=".46"/><path d="m308.701 151.189c2.044 0 4.563-1.706 4.563-3.452 0-1.051-.932-1.725-2.261-1.725-2.004 0-4.523 1.666-4.523 3.451 0 1.091.972 1.726 2.221 1.726z" fill-rule="nonzero"/><path d="m322.133 146.949v18.908" fill="none"/><path d="m322.133 146.949v18.908" fill="none" stroke="#000" stroke-width=".46"/><path d="m324.2 148.709c2.043 0 4.562-1.706 4.562-3.451 0-1.052-.932-1.726-2.261-1.726-2.004 0-4.523 1.666-4.523 3.452 0 1.091.972 1.725 2.222 1.725z" fill-rule="nonzero"/><path d="m342.693 155.038c-.813-1.31-2.48-2.758-2.48-3.809 0-.694.615-1.786 1.865-3.293l-3.531-4.841c-.218.04-.337.12-.337.258 0-.019 1.448 1.726 1.448 2.778 0 1.031-.675 2.162-2.043 3.412 1.547 1.904 2.42 2.817 3.035 3.769-.417-.218-.814-.337-1.191-.337-1.21 0-1.983 1.15-1.983 2.321 0 1.428 2.38 3.154 2.836 3.154.08 0 .139-.04.159-.119-.833-.814-1.25-1.568-1.25-2.262 0-.912.774-1.428 1.786-1.428.535 0 1.111.139 1.686.397z" fill-rule="nonzero"/><path d="m364.275 147.837c-1.012.892-1.964 1.329-2.817 1.329-.119 0-.198-.02-.258-.06.218-.397.318-.734.318-1.031 0-.655-.377-.972-1.131-.972-.655 0-1.369.436-1.369 1.011 0 .972.615 1.448 1.845 1.448.674 0 1.527-.178 2.559-.515l-3.174 6.983h.833z" fill-rule="nonzero"/><path d="m374.671 141.99v16.583" fill="none"/><path d="m374.671 141.99v16.583" fill="none" stroke="#000" stroke-width=".46"/><path d="m376.738 143.75c2.043 0 4.562-1.706 4.562-3.452 0-1.051-.932-1.725-2.261-1.725-2.004 0-4.523 1.666-4.523 3.451 0 1.091.972 1.726 2.222 1.726z" fill-rule="nonzero"/><path d="m374.714 158.509c.179 0 .278 0 .258-.02-.02-.039-.02-.099-.02-.158 0-.06 0-.119.02-.179.615-1.547 1.31-2.936 2.182-4.007.715-.873 1.528-1.666 2.262-2.539.774-.913 1.131-1.984 1.131-2.996 0-.535-.06-1.051-.199-1.587-.258-1.011-1.051-2.955-1.527-2.955-.06 0-.08.059-.08.178 0 .099.04.238.119.377.695 1.289 1.032 2.38 1.032 3.233 0 1.211-.456 2.321-1.309 3.274-.179.178-.754.654-1.726 1.428-1.23.992-1.309 1.012-2.143 1.012z" fill-rule="nonzero"/><path d="m397.763 141.99v20.147" fill="none"/><path d="m397.763 141.99v20.147" fill="none" stroke="#000" stroke-width=".46"/><path d="m399.83 143.75c2.043 0 4.562-1.706 4.562-3.452 0-1.051-.932-1.725-2.261-1.725-2.004 0-4.523 1.666-4.523 3.451 0 1.091.972 1.726 2.222 1.726z" fill-rule="nonzero"/><path d="m413.261 141.99v21.697" fill="none"/><path d="m413.261 141.99v21.697" fill="none" stroke="#000" stroke-width=".46"/><path d="m415.328 143.75c2.043 0 4.563-1.706 4.563-3.452 0-1.051-.933-1.725-2.262-1.725-2.004 0-4.523 1.666-4.523 3.451 0 1.091.972 1.726 2.222 1.726z" fill-rule="nonzero"/><path d="m428.914 146.949v18.443" fill="none"/><path d="m428.914 146.949v18.443" fill="none" stroke="#000" stroke-width=".46"/><path d="m430.981 148.709c2.043 0 4.563-1.706 4.563-3.451 0-1.052-.933-1.726-2.262-1.726-2.003 0-4.523 1.666-4.523 3.452 0 1.091.972 1.725 2.222 1.725z" fill-rule="nonzero"/><path d="m444.412 154.388v12.709" fill="none"/><path d="m444.412 154.388v12.709" fill="none" stroke="#000" stroke-width=".46"/><path d="m446.479 156.149c2.043 0 4.563-1.706 4.563-3.452 0-1.052-.933-1.726-2.262-1.726-2.003 0-4.523 1.666-4.523 3.452 0 1.091.972 1.726 2.222 1.726z" fill-rule="nonzero"/><path d="m459.91 149.429v13.948" fill="none"/><path d="m459.91 149.429v13.948" fill="none" stroke="#000" stroke-width=".46"/><path d="m461.977 151.189c2.043 0 4.563-1.706 4.563-3.452 0-1.051-.933-1.725-2.262-1.725-2.003 0-4.523 1.666-4.523 3.451 0 1.091.972 1.726 2.222 1.726z" fill-rule="nonzero"/><path d="m475.563 146.949v15.188" fill="none"/><path d="m475.563 146.949v15.188" fill="none" stroke="#000" stroke-width=".46"/><path d="m477.63 148.709c2.043 0 4.563-1.706 4.563-3.451 0-1.052-.933-1.726-2.262-1.726-2.003 0-4.523 1.666-4.523 3.452 0 1.091.972 1.725 2.222 1.725z" fill-rule="nonzero"/><path d="m496.123 155.038c-.813-1.31-2.479-2.758-2.479-3.809 0-.694.615-1.786 1.864-3.293l-3.531-4.841c-.218.04-.337.12-.337.258 0-.019 1.448 1.726 1.448 2.778 0 1.031-.674 2.162-2.043 3.412 1.547 1.904 2.42 2.817 3.035 3.769-.416-.218-.813-.337-1.19-.337-1.21 0-1.984 1.15-1.984 2.321 0 1.428 2.381 3.154 2.837 3.154.079 0 .139-.04.159-.119-.834-.814-1.25-1.568-1.25-2.262 0-.912.774-1.428 1.785-1.428.536 0 1.111.139 1.686.397z" fill-rule="nonzero"/><path d="m28.755 212.661v18.907" fill="none"/><path d="m28.755 212.661v18.907" fill="none" stroke="#000" stroke-width=".46"/><path d="m30.822 214.421c2.043 0 4.562-1.706 4.562-3.452 0-1.051-.932-1.725-2.261-1.725-2.004 0-4.523 1.666-4.523 3.451 0 1.091.972 1.726 2.222 1.726z" fill-rule="nonzero"/><path d="m42.238 212.661v18.907" fill="none"/><path d="m42.238 212.661v18.907" fill="none" stroke="#000" stroke-width=".46"/><path d="m44.305 214.421c2.043 0 4.563-1.706 4.563-3.452 0-1.051-.933-1.725-2.262-1.725-2.003 0-4.523 1.666-4.523 3.451 0 1.091.972 1.726 2.222 1.726z" fill-rule="nonzero"/><path d="m58.511 215.14v16.428" fill="none"/><path d="m58.511 215.14v16.428" fill="none" stroke="#000" stroke-width=".46"/><path d="m60.578 216.901c2.043 0 4.563-1.706 4.563-3.452 0-1.051-.933-1.726-2.262-1.726-2.003 0-4.523 1.667-4.523 3.452 0 1.091.972 1.726 2.222 1.726z" fill-rule="nonzero"/><path d="m76.334 212.661v18.907" fill="none"/><path d="m76.334 212.661v18.907" fill="none" stroke="#000" stroke-width=".46"/><path d="m78.401 214.421c2.043 0 4.562-1.706 4.562-3.452 0-1.051-.932-1.725-2.261-1.725-2.004 0-4.523 1.666-4.523 3.451 0 1.091.972 1.726 2.222 1.726z" fill-rule="nonzero"/></svg>