<svg clip-rule="evenodd" fill-rule="evenodd" stroke-linejoin="round" stroke-miterlimit="2" viewBox="0 0 293 38" xmlns="http://www.w3.org/2000/svg"><path d="m167.219 9.533v19.837" fill="none" stroke="#000" stroke-width=".77"/><path d="m287.639 9.533v19.837" fill="none" stroke="#000" stroke-width=".77"/><path d="m291.049 9.533v19.837" fill="none" stroke="#000" stroke-width="2.48"/><path d="m29.995 16.691v-.84h-1.26v-4.498l-2.499 2.219v2.279h-2.699c.3-.76 1.12-1.799 2.459-3.139 1.22-1.219 1.92-2.299 2.12-3.198h-3.419c-.16 1.959-1.32 4.818-2.539 6.377v.8h4.078c0 .7-.02 1.099-.06 1.199-.12.22-.5.36-1.119.4l-.04.56h4.918l-.08-.58c-.96-.08-1.14-.18-1.14-.68 0-.06 0-.179.02-.379v-.52z" fill-rule="nonzero"/><path d="m29.995 26.743v-.84h-1.26v-4.498l-2.499 2.219v2.279h-2.699c.3-.76 1.12-1.799 2.459-3.139 1.22-1.219 1.92-2.299 2.12-3.199h-3.419c-.16 1.96-1.32 4.819-2.539 6.378v.8h4.078c0 .699-.02 1.099-.06 1.199-.12.22-.5.36-1.119.4l-.04.56h4.918l-.08-.58c-.96-.08-1.14-.18-1.14-.68 0-.06 0-.18.02-.379v-.52z" fill-rule="nonzero"/><g fill="none" stroke="#000"><path d="m-.003 29.37h292.292" stroke-width=".46"/><path d="m-.003 24.411h292.292" stroke-width=".46"/><path d="m-.003 19.451h292.292" stroke-width=".46"/><path d="m-.003 14.492h292.292" stroke-width=".46"/><path d="m-.003 9.533h292.292" stroke-width=".46"/></g><path d="m14.09 28.712.754 3.67c.04.218.059.416.059.614 0 1.945-1.983 3.571-4.126 3.571-.654 0-1.289-.158-1.884-.456 1.527-.159 2.678-1.091 2.678-2.46 0-1.21-.992-2.48-2.262-2.48-1.448 0-2.44 1.111-2.44 2.559 0 2.024 1.647 3.353 3.631 3.353 2.658 0 4.919-1.726 4.919-4.206 0-.555-.873-4.483-.853-4.344 2.123-1.031 3.571-2.857 3.571-4.781 0-2.638-2.123-4.662-4.761-4.662-.04 0-.317.02-.794.06l-.872-4.186c2.955-2.499 4.304-5.158 4.304-8.074 0-2.241-.892-4.622-2.698-7.121-2.043 1.646-3.213 4.939-3.213 8.45 0 1.25.158 2.46.436 3.611-4.523 3.789-6.784 7.28-6.784 10.474 0 3.749 3.868 6.864 8.074 6.864.932 0 1.626-.139 2.261-.456zm-.059-26.067c.654.675.991 1.468.991 2.4 0 1.925-1.368 4.087-4.046 6.467-.139-.575-.179-1.21-.179-1.904 0-3.333 1.23-7.003 2.877-7.003.138 0 .257.02.357.04zm.416 25.253-1.408-6.625c.277-.02.436-.04.496-.04 1.706 0 2.896 1.607 2.896 3.253 0 1.309-.694 2.46-1.984 3.412zm-1.904-6.546 1.428 6.824c-.694.377-1.468.536-2.4.536-3.214 0-5.991-2.401-5.991-5.317 0-2.638 1.964-5.356 5.673-8.133l.834 3.967c-2.064.437-3.809 2.182-3.809 4.146 0 1.667 1.19 2.837 2.975 3.115-1.091-.675-1.626-1.528-1.626-2.539 0-1.369 1.269-2.381 2.916-2.599z" fill-rule="nonzero"/><path d="m37.966 31.85h48.664v2.48h-48.664z"/><path d="m37.966 15.267v18.908" fill="none"/><path d="m37.966 15.267v18.908" fill="none" stroke="#000" stroke-width=".46"/><path d="m40.033 17.027c2.043 0 4.562-1.706 4.562-3.451 0-1.052-.932-1.726-2.261-1.726-2.004 0-4.523 1.666-4.523 3.451 0 1.092.972 1.726 2.222 1.726z" fill-rule="nonzero"/><path d="m54.239 15.267v18.908" fill="none"/><path d="m54.239 15.267v18.908" fill="none" stroke="#000" stroke-width=".46"/><path d="m56.306 17.027c2.043 0 4.562-1.706 4.562-3.451 0-1.052-.932-1.726-2.261-1.726-2.004 0-4.523 1.666-4.523 3.451 0 1.092.972 1.726 2.222 1.726z" fill-rule="nonzero"/><path d="m70.357 17.747v16.428" fill="none"/><path d="m70.357 17.747v16.428" fill="none" stroke="#000" stroke-width=".46"/><path d="m72.423 19.507c2.044 0 4.563-1.706 4.563-3.452 0-1.051-.932-1.726-2.261-1.726-2.004 0-4.523 1.667-4.523 3.452 0 1.091.972 1.726 2.221 1.726z" fill-rule="nonzero"/><path d="m86.63 15.267v18.908" fill="none"/><path d="m86.63 15.267v18.908" fill="none" stroke="#000" stroke-width=".46"/><path d="m88.696 17.027c2.044 0 4.563-1.706 4.563-3.451 0-1.052-.932-1.726-2.261-1.726-2.004 0-4.523 1.666-4.523 3.451 0 1.092.972 1.726 2.221 1.726z" fill-rule="nonzero"/><path d="m108.004 16.154c-1.011.893-1.963 1.33-2.816 1.33-.119 0-.199-.02-.258-.06.218-.397.317-.734.317-1.031 0-.655-.377-.972-1.131-.972-.654 0-1.368.436-1.368 1.011 0 .972.615 1.448 1.844 1.448.675 0 1.528-.178 2.559-.515l-3.174 6.982h.834z" fill-rule="nonzero"/><path d="m125.53 21.156v-16.583" fill="none"/><path d="m125.53 21.156v-16.583" fill="none" stroke="#000" stroke-width=".46"/><path d="m121.087 24.466c2.044 0 4.563-1.706 4.563-3.451 0-1.052-.932-1.726-2.262-1.726-2.003 0-4.522 1.666-4.522 3.452 0 1.091.972 1.725 2.221 1.725z" fill-rule="nonzero"/><path d="m125.573 9.489c.992 0 1.329.377 1.904.794 1.607 1.13 2.421 2.38 2.421 3.769v.099c-.04 1.785-.06 1.924-.576 3.075-.079.178-.119.297-.119.377 0 .099.06.158.159.158.198 0 1.21-1.388 1.21-3.928v-.099c0-.853-.238-1.666-.714-2.42-.139-.238-.754-1.051-1.845-2.42-.853-1.091-1.587-2.44-2.182-4.007-.02-.06-.02-.119-.02-.179 0-.059 0-.119.02-.158.02-.02-.079-.02-.258-.02z" fill-rule="nonzero"/><path d="m140.395 16.154c-1.011.893-1.964 1.33-2.817 1.33-.119 0-.198-.02-.257-.06.218-.397.317-.734.317-1.031 0-.655-.377-.972-1.131-.972-.654 0-1.369.436-1.369 1.011 0 .972.615 1.448 1.845 1.448.675 0 1.528-.178 2.559-.515l-3.174 6.982h.834z" fill-rule="nonzero"/><path d="m157.921 21.156v-16.583" fill="none"/><path d="m157.921 21.156v-16.583" fill="none" stroke="#000" stroke-width=".46"/><path d="m153.478 24.466c2.043 0 4.563-1.706 4.563-3.451 0-1.052-.933-1.726-2.262-1.726-2.003 0-4.523 1.666-4.523 3.452 0 1.091.972 1.725 2.222 1.725z" fill-rule="nonzero"/><path d="m145.367 25.518 2.797-2.063c1.23-.893 1.706-1.905 1.746-2.659 0-1.11-1.012-1.944-2.202-1.944-.833 0-1.448.318-1.845.972l.139-6.248h-.635zm1.845-5.872c.635 0 1.111.456 1.111 1.071 0 1.032-1.369 3.015-2.4 3.67-.06-.337-.1-.992-.1-1.964 0-.535.04-1.19.119-1.944.298-.555.715-.833 1.27-.833z" fill-rule="nonzero"/><path d="m157.964 9.489c.992 0 1.329.377 1.904.794 1.607 1.13 2.421 2.38 2.421 3.769v.099c-.04 1.785-.06 1.924-.576 3.075-.079.178-.119.297-.119.377 0 .099.06.158.159.158.198 0 1.21-1.388 1.21-3.928v-.099c0-.853-.238-1.666-.714-2.42-.139-.238-.754-1.051-1.845-2.42-.853-1.091-1.587-2.44-2.182-4.007-.02-.06-.02-.119-.02-.179 0-.059 0-.119.02-.158.02-.02-.08-.02-.258-.02z" fill-rule="nonzero"/><path d="m180.225 16.154c-1.011.893-1.964 1.33-2.817 1.33-.119 0-.198-.02-.257-.06.218-.397.317-.734.317-1.031 0-.655-.377-.972-1.131-.972-.654 0-1.369.436-1.369 1.011 0 .972.615 1.448 1.845 1.448.675 0 1.528-.178 2.559-.515l-3.174 6.982h.833z" fill-rule="nonzero"/><path d="m197.905 23.636v-16.583" fill="none"/><path d="m197.905 23.636v-16.583" fill="none" stroke="#000" stroke-width=".46"/><path d="m193.463 26.946c2.043 0 4.563-1.706 4.563-3.452 0-1.051-.933-1.726-2.262-1.726-2.003 0-4.523 1.667-4.523 3.452 0 1.091.972 1.726 2.222 1.726z" fill-rule="nonzero"/><path d="m197.949 11.969c.992 0 1.329.377 1.904.793 1.607 1.131 2.42 2.381 2.42 3.769v.1c-.039 1.785-.059 1.924-.575 3.074-.079.179-.119.298-.119.377 0 .099.06.159.159.159.198 0 1.21-1.389 1.21-3.928v-.099c0-.853-.238-1.666-.714-2.42-.139-.238-.754-1.052-1.845-2.42-.853-1.091-1.587-2.44-2.182-4.008-.02-.059-.02-.119-.02-.178 0-.06 0-.119.02-.159.02-.02-.08-.02-.258-.02z" fill-rule="nonzero"/><path d="m212.616 16.154c-1.011.893-1.964 1.33-2.817 1.33-.119 0-.198-.02-.258-.06.219-.397.318-.734.318-1.031 0-.655-.377-.972-1.131-.972-.655 0-1.369.436-1.369 1.011 0 .972.615 1.448 1.845 1.448.675 0 1.528-.178 2.559-.515l-3.174 6.982h.833z" fill-rule="nonzero"/><path d="m230.296 31.075v-16.583" fill="none"/><path d="m230.296 31.075v-16.583" fill="none" stroke="#000" stroke-width=".46"/><path d="m225.854 34.385c2.043 0 4.563-1.706 4.563-3.452 0-1.051-.933-1.725-2.262-1.725-2.003 0-4.523 1.666-4.523 3.451 0 1.091.972 1.726 2.222 1.726z" fill-rule="nonzero"/><path d="m230.34 19.408c.992 0 1.329.377 1.904.793 1.607 1.131 2.42 2.381 2.42 3.769v.1c-.039 1.785-.059 1.924-.575 3.074-.079.179-.119.298-.119.377 0 .1.06.159.159.159.198 0 1.21-1.389 1.21-3.928v-.099c0-.853-.238-1.666-.714-2.42-.139-.238-.754-1.051-1.845-2.42-.853-1.091-1.587-2.44-2.182-4.007-.02-.06-.02-.119-.02-.179s0-.119.02-.159c.019-.02-.08-.02-.258-.02z" fill-rule="nonzero"/><path d="m246.569 26.116v-16.583" fill="none"/><path d="m246.569 26.116v-16.583" fill="none" stroke="#000" stroke-width=".46"/><path d="m242.127 29.426c2.043 0 4.563-1.706 4.563-3.452 0-1.051-.933-1.726-2.262-1.726-2.004 0-4.523 1.667-4.523 3.452 0 1.091.972 1.726 2.222 1.726z" fill-rule="nonzero"/><path d="m268.886 31.075v-16.583" fill="none"/><path d="m268.886 31.075v-16.583" fill="none" stroke="#000" stroke-width=".46"/><path d="m264.444 34.385c2.043 0 4.563-1.706 4.563-3.452 0-1.051-.933-1.725-2.262-1.725-2.003 0-4.523 1.666-4.523 3.451 0 1.091.972 1.726 2.222 1.726z" fill-rule="nonzero"/></svg>