<svg clip-rule="evenodd" fill-rule="evenodd" stroke-linejoin="round" stroke-miterlimit="2" viewBox="0 0 246 45" xmlns="http://www.w3.org/2000/svg"><path d="m242.286 16.739v19.882" fill="none" stroke="#000" stroke-width=".78"/><path d="m244.927 16.739v19.882" fill="none" stroke="#000" stroke-width=".78"/><path d="m24.905 9.158c-.273-.072-.509-.181-.745-.218.073 1.309.073 1.963.109 2.999.454.545 1.327.69 3.398.69.455 0 .945 0 1.509-.018 1.908-.763 2.871-4.47 2.871-7.614 0-4.107-1.381-5.016-3.489-5.016-1.599 0-2.835.927-4.198 2.58-.109.764-.018 1.6-.146 2.926.182 0 .455-.272.582-.363.036.6.145 1.908.145 3.071 0 .345-.018.673-.036.963zm.927-4.725c1.018-.89 2.326-1.326 3.144-1.326 1.09 0 1.544 1.145 1.544 2.308 0 1.508-1.054 4.179-3.343 4.179-.309 0-.636-.036-1.018-.127.036-.49.073-1.126.073-1.781 0-1.09-.091-2.29-.4-3.253z" fill-rule="nonzero"/><path d="m33.282 6.214c.327.655.509 2.635.509 4.107 0 .582-.037 1.091-.091 1.4-.018.054-.018.091-.018.127 0 .491.599.836 1.054.836.254 0 .472-.109.49-.364.128-1.29.564-4.67 1.145-4.725.273-.036.4 2.781.473 4.398.018.455.49.673.945.673.418 0 .836-.182.854-.527.109-1.363 1.472-4.871 1.69-4.853.4.037.981 4.671.981 4.725.019.473.436.764.8.764.254 0 .491-.164.491-.527 0-1.545-.527-4.216-.945-5.888-.146-.546-.673-1.109-1.218-1.109-.4 0-.818.291-1.09 1.072l-1.327 3.29c0-.455-.563-3.435-.6-3.653-.181-.727-.472-1.036-.799-1.036-.655 0-1.436 1.218-1.727 2.562-.036-.49-.527-1.544-.563-1.635-.091-.2-.218-.273-.382-.273-.309 0-.69.291-.69.545 0 .037 0 .073.018.091z" fill-rule="nonzero"/><g fill="none" stroke="#000" stroke-width=".47"><path d="m.134 36.621h245.104"/><path d="m.134 31.651h245.104"/><path d="m.134 26.68h245.104"/><path d="m.134 21.71h245.104"/><path d="m.134 16.739h245.104"/></g><path d="m14.26 35.961.756 3.678c.039.219.059.418.059.616 0 1.949-1.988 3.579-4.135 3.579-.656 0-1.292-.159-1.889-.457 1.531-.159 2.684-1.094 2.684-2.465 0-1.213-.994-2.486-2.266-2.486-1.452 0-2.446 1.114-2.446 2.565 0 2.028 1.65 3.36 3.639 3.36 2.664 0 4.93-1.73 4.93-4.215 0-.557-.875-4.493-.855-4.354 2.128-1.034 3.579-2.863 3.579-4.791 0-2.645-2.127-4.673-4.772-4.673-.039 0-.318.02-.795.06l-.875-4.195c2.963-2.505 4.315-5.169 4.315-8.092 0-2.246-.895-4.632-2.704-7.137-2.048 1.65-3.221 4.95-3.221 8.469 0 1.253.159 2.466.437 3.619-4.533 3.797-6.799 7.296-6.799 10.497 0 3.758 3.877 6.879 8.092 6.879.934 0 1.63-.139 2.266-.457zm-.06-26.124c.657.675.995 1.471.995 2.405 0 1.929-1.372 4.096-4.056 6.482-.139-.577-.179-1.213-.179-1.909 0-3.34 1.232-7.018 2.883-7.018.139 0 .258.02.357.04zm.418 25.309-1.412-6.641c.279-.02.438-.039.497-.039 1.71 0 2.903 1.61 2.903 3.26 0 1.312-.696 2.466-1.988 3.42zm-1.909-6.561 1.432 6.839c-.696.378-1.471.537-2.406.537-3.221 0-6.004-2.406-6.004-5.328 0-2.645 1.968-5.368 5.686-8.152l.835 3.977c-2.068.437-3.817 2.187-3.817 4.155 0 1.67 1.193 2.843 2.982 3.121-1.093-.676-1.63-1.531-1.63-2.545 0-1.371 1.272-2.385 2.922-2.604z" fill-rule="nonzero"/><path d="m51.547 22.952 73.003-4.97v-2.485l-73.003 4.97z"/><path d="m142.257 44.077 73.003-4.971v-2.485l-73.003 4.97z"/><path d="m51.547 38.33v-17.708" fill="none"/><path d="m51.547 38.33v-17.708" fill="none" stroke="#000" stroke-width=".47"/><path d="m47.095 41.647c2.047 0 4.572-1.71 4.572-3.459 0-1.054-.934-1.73-2.266-1.73-2.008 0-4.533 1.67-4.533 3.459 0 1.094.974 1.73 2.227 1.73z" fill-rule="nonzero"/><path d="m75.933 35.844v-16.775" fill="none"/><path d="m75.933 35.844v-16.775" fill="none" stroke="#000" stroke-width=".47"/><path d="m71.481 39.162c2.048 0 4.572-1.71 4.572-3.459 0-1.054-.934-1.73-2.266-1.73-2.008 0-4.533 1.67-4.533 3.459 0 1.094.974 1.73 2.227 1.73z" fill-rule="nonzero"/><path d="m100.164 33.359v-15.998" fill="none"/><path d="m100.164 33.359v-15.998" fill="none" stroke="#000" stroke-width=".47"/><path d="m95.711 36.677c2.048 0 4.573-1.71 4.573-3.46 0-1.053-.934-1.729-2.266-1.729-2.008 0-4.533 1.67-4.533 3.459 0 1.094.974 1.73 2.226 1.73z" fill-rule="nonzero"/><path d="m124.55 30.874v-15.222" fill="none"/><path d="m124.55 30.874v-15.222" fill="none" stroke="#000" stroke-width=".47"/><path d="m120.098 34.192c2.047 0 4.572-1.71 4.572-3.46 0-1.054-.934-1.73-2.266-1.73-2.008 0-4.533 1.67-4.533 3.46 0 1.093.974 1.73 2.227 1.73z" fill-rule="nonzero"/><path d="m142.257 29.942v13.979" fill="none"/><path d="m142.257 29.942v13.979" fill="none" stroke="#000" stroke-width=".47"/><path d="m144.328 31.706c2.048 0 4.573-1.71 4.573-3.459 0-1.054-.934-1.73-2.266-1.73-2.008 0-4.533 1.67-4.533 3.46 0 1.093.974 1.729 2.226 1.729z" fill-rule="nonzero"/><path d="m166.643 27.457v14.911" fill="none"/><path d="m166.643 27.457v14.911" fill="none" stroke="#000" stroke-width=".47"/><path d="m168.714 29.221c2.048 0 4.573-1.71 4.573-3.459 0-1.054-.934-1.73-2.266-1.73-2.008 0-4.533 1.67-4.533 3.459 0 1.094.974 1.73 2.226 1.73z" fill-rule="nonzero"/><path d="m190.874 24.972v15.687" fill="none"/><path d="m190.874 24.972v15.687" fill="none" stroke="#000" stroke-width=".47"/><path d="m192.945 26.736c2.048 0 4.573-1.71 4.573-3.459 0-1.054-.935-1.73-2.267-1.73-2.008 0-4.533 1.67-4.533 3.459 0 1.094.975 1.73 2.227 1.73z" fill-rule="nonzero"/><path d="m189.287 30.931v-10.677l-3.042 1.074v-3.996h-.497v10.676l3.042-1.053v3.976zm-3.042-7.992 2.545-.935v3.34l-2.545.915z" fill-rule="nonzero"/><path d="m215.26 22.486v16.465" fill="none"/><path d="m215.26 22.486v16.465" fill="none" stroke="#000" stroke-width=".47"/><path d="m217.331 24.251c2.048 0 4.573-1.71 4.573-3.46 0-1.053-.934-1.729-2.267-1.729-2.008 0-4.533 1.67-4.533 3.459 0 1.093.975 1.73 2.227 1.73z" fill-rule="nonzero"/></svg>