<svg clip-rule="evenodd" fill-rule="evenodd" stroke-linejoin="round" stroke-miterlimit="2" viewBox="0 0 245 47" xmlns="http://www.w3.org/2000/svg"><path d="m241.666 18.525v19.882" fill="none" stroke="#000" stroke-width=".78"/><path d="m244.306 18.525v19.882" fill="none" stroke="#000" stroke-width=".78"/><path d="m25.682 9.699c-.272-.073-.509-.182-.745-.218.073 1.308.073 1.962.109 2.998.455.545 1.327.691 3.399.691.454 0 .945 0 1.508-.018 1.908-.764 2.871-4.471 2.871-7.615 0-4.107-1.381-5.016-3.489-5.016-1.599 0-2.835.927-4.198 2.581-.109.763-.018 1.599-.145 2.926.181 0 .454-.273.581-.364.037.6.146 1.909.146 3.072 0 .345-.019.672-.037.963zm.927-4.725c1.018-.891 2.326-1.327 3.144-1.327 1.09 0 1.545 1.145 1.545 2.308 0 1.508-1.054 4.18-3.344 4.18-.309 0-.636-.036-1.018-.127.037-.491.073-1.127.073-1.781 0-1.091-.091-2.29-.4-3.253z" fill-rule="nonzero"/><path d="m35.277-1.096c0-.018-.037-.036-.073-.036-.254 0-1.199.436-1.199.581.018.291.018.727.018 1.29 0 3.181-.255 10.014-.255 12.376.709-.109 4.507-3.689 4.507-7.251 0-1.217-.527-1.726-1.254-1.726-.527 0-1.163.272-1.781.745.018-1.418.037-2.999.037-4.452v-1.527zm-.164 8.614c.236-.327.745-.909 1.072-.909.164 0 .327.146.327.564 0 .563-.545 1.817-1.49 2.489 0-.563.073-1.671.091-2.144z" fill-rule="nonzero"/><path d="m39.928-.278c-.018.763-.145 1.544-.2 2.362.836-.254 1.781-.618 2.726-.618.364 0 .709.055 1.072.182-.381 1.418-1.145 3.78-2.071 6.979.2.199.381.363.545.363.109 0 .218-.073.345-.254.981-2.926 1.563-4.489 2.508-8.215.036-.163.055-.327.055-.454 0-.8-.691-1.072-1.582-1.072-1.181 0-2.689.454-3.398.727z" fill-rule="nonzero"/><g fill="none" stroke="#000" stroke-width=".47"><path d="m.135 38.407h244.482"/><path d="m.135 33.436h244.482"/><path d="m.135 28.466h244.482"/><path d="m.135 23.496h244.482"/><path d="m.135 18.525h244.482"/></g><path d="m14.261 37.747.755 3.678c.04.219.06.417.06.616 0 1.949-1.988 3.579-4.136 3.579-.656 0-1.292-.159-1.888-.457 1.531-.159 2.684-1.094 2.684-2.466 0-1.212-.994-2.485-2.267-2.485-1.451 0-2.445 1.114-2.445 2.565 0 2.028 1.65 3.36 3.638 3.36 2.664 0 4.931-1.73 4.931-4.215 0-.557-.875-4.493-.855-4.354 2.127-1.034 3.579-2.863 3.579-4.792 0-2.644-2.128-4.672-4.772-4.672-.04 0-.318.02-.795.06l-.875-4.195c2.962-2.505 4.314-5.169 4.314-8.092 0-2.247-.894-4.632-2.704-7.138-2.047 1.651-3.22 4.951-3.22 8.47 0 1.253.159 2.465.437 3.619-4.533 3.797-6.8 7.296-6.8 10.497 0 3.758 3.877 6.879 8.092 6.879.935 0 1.631-.139 2.267-.457zm-.06-26.125c.656.676.994 1.472.994 2.406 0 1.929-1.372 4.096-4.056 6.481-.139-.576-.179-1.212-.179-1.908 0-3.34 1.233-7.018 2.883-7.018.139 0 .259.019.358.039zm.418 25.31-1.412-6.641c.278-.02.437-.04.497-.04 1.71 0 2.903 1.611 2.903 3.261 0 1.312-.696 2.465-1.988 3.42zm-1.909-6.561 1.431 6.839c-.695.378-1.471.537-2.405.537-3.221 0-6.005-2.406-6.005-5.328 0-2.645 1.969-5.369 5.687-8.152l.835 3.976c-2.068.438-3.818 2.187-3.818 4.156 0 1.67 1.193 2.843 2.983 3.121-1.094-.676-1.631-1.531-1.631-2.545 0-1.372 1.273-2.386 2.923-2.604z" fill-rule="nonzero"/><path d="m50.926 24.738 73.003-4.97v-2.485l-73.003 4.97z"/><path d="m141.636 45.862 73.003-4.97v-2.485l-73.003 4.97z"/><path d="m50.926 40.115v-17.707" fill="none"/><path d="m50.926 40.115v-17.707" fill="none" stroke="#000" stroke-width=".47"/><path d="m46.474 43.433c2.048 0 4.573-1.71 4.573-3.459 0-1.054-.935-1.73-2.267-1.73-2.008 0-4.533 1.67-4.533 3.459 0 1.094.974 1.73 2.227 1.73z" fill-rule="nonzero"/><path d="m38.345 44.487 2.803-2.068c1.233-.895 1.71-1.909 1.75-2.664 0-1.114-1.014-1.949-2.207-1.949-.835 0-1.451.319-1.849.975l.139-6.263h-.636zm1.849-5.885c.636 0 1.113.457 1.113 1.073 0 1.034-1.372 3.022-2.405 3.678-.06-.338-.1-.994-.1-1.968 0-.537.04-1.193.119-1.948.299-.557.716-.835 1.273-.835z" fill-rule="nonzero"/><path d="m75.312 37.63v-16.775" fill="none"/><path d="m75.312 37.63v-16.775" fill="none" stroke="#000" stroke-width=".47"/><path d="m70.86 40.948c2.048 0 4.573-1.71 4.573-3.46 0-1.053-.935-1.729-2.267-1.729-2.008 0-4.533 1.67-4.533 3.459 0 1.094.974 1.73 2.227 1.73z" fill-rule="nonzero"/><path d="m62.731 42.001 2.803-2.067c1.233-.895 1.71-1.909 1.75-2.664 0-1.114-1.014-1.949-2.207-1.949-.835 0-1.451.318-1.849.974l.139-6.262h-.636zm1.849-5.884c.636 0 1.113.457 1.113 1.073 0 1.034-1.372 3.022-2.405 3.678-.06-.338-.1-.994-.1-1.968 0-.537.04-1.193.12-1.948.298-.557.715-.835 1.272-.835z" fill-rule="nonzero"/><path d="m99.543 35.145v-15.999" fill="none"/><path d="m99.543 35.145v-15.999" fill="none" stroke="#000" stroke-width=".47"/><path d="m95.091 38.463c2.048 0 4.573-1.71 4.573-3.46 0-1.054-.935-1.73-2.267-1.73-2.008 0-4.533 1.67-4.533 3.46 0 1.093.974 1.73 2.227 1.73z" fill-rule="nonzero"/><path d="m123.929 32.66v-15.222" fill="none"/><path d="m123.929 32.66v-15.222" fill="none" stroke="#000" stroke-width=".47"/><path d="m119.477 35.977c2.048 0 4.573-1.709 4.573-3.459 0-1.054-.935-1.73-2.267-1.73-2.008 0-4.533 1.67-4.533 3.46 0 1.093.974 1.729 2.227 1.729z" fill-rule="nonzero"/><path d="m141.636 31.728v13.979" fill="none"/><path d="m141.636 31.728v13.979" fill="none" stroke="#000" stroke-width=".47"/><path d="m143.708 33.492c2.047 0 4.572-1.71 4.572-3.459 0-1.054-.934-1.73-2.266-1.73-2.008 0-4.533 1.67-4.533 3.459 0 1.094.974 1.73 2.227 1.73z" fill-rule="nonzero"/><path d="m135.579 34.546 2.803-2.068c1.232-.894 1.71-1.908 1.749-2.664 0-1.113-1.014-1.948-2.206-1.948-.835 0-1.452.318-1.849.974l.139-6.263h-.636zm1.849-5.885c.636 0 1.113.457 1.113 1.074 0 1.033-1.372 3.022-2.406 3.678-.059-.338-.099-.994-.099-1.969 0-.536.04-1.193.119-1.948.298-.557.716-.835 1.273-.835z" fill-rule="nonzero"/><path d="m166.022 29.243v14.911" fill="none"/><path d="m166.022 29.243v14.911" fill="none" stroke="#000" stroke-width=".47"/><path d="m168.094 31.007c2.047 0 4.572-1.71 4.572-3.459 0-1.054-.934-1.73-2.266-1.73-2.008 0-4.533 1.67-4.533 3.459 0 1.094.974 1.73 2.227 1.73z" fill-rule="nonzero"/><path d="m159.965 32.061 2.803-2.068c1.233-.895 1.71-1.909 1.749-2.664 0-1.114-1.013-1.949-2.206-1.949-.835 0-1.452.319-1.849.975l.139-6.263h-.636zm1.849-5.885c.636 0 1.113.457 1.113 1.073 0 1.034-1.372 3.022-2.406 3.678-.059-.338-.099-.994-.099-1.968 0-.537.04-1.193.119-1.948.298-.557.716-.835 1.273-.835z" fill-rule="nonzero"/><path d="m190.253 26.757v15.688" fill="none"/><path d="m190.253 26.757v15.688" fill="none" stroke="#000" stroke-width=".47"/><path d="m192.324 28.522c2.048 0 4.573-1.71 4.573-3.46 0-1.053-.934-1.729-2.266-1.729-2.008 0-4.533 1.67-4.533 3.459 0 1.094.974 1.73 2.226 1.73z" fill-rule="nonzero"/><path d="m184.195 29.575 2.804-2.067c1.232-.895 1.709-1.909 1.749-2.664 0-1.114-1.014-1.949-2.207-1.949-.835 0-1.451.318-1.849.974l.14-6.262h-.637zm1.849-5.885c.637 0 1.114.458 1.114 1.074 0 1.034-1.372 3.022-2.406 3.678-.06-.338-.099-.994-.099-1.968 0-.537.039-1.193.119-1.948.298-.557.716-.836 1.272-.836z" fill-rule="nonzero"/><path d="m214.639 24.272v16.465" fill="none"/><path d="m214.639 24.272v16.465" fill="none" stroke="#000" stroke-width=".47"/><path d="m216.711 26.037c2.047 0 4.572-1.71 4.572-3.46 0-1.054-.934-1.73-2.266-1.73-2.008 0-4.533 1.67-4.533 3.46 0 1.093.974 1.73 2.227 1.73z" fill-rule="nonzero"/><path d="m208.581 27.09 2.804-2.067c1.232-.895 1.71-1.909 1.749-2.665 0-1.113-1.014-1.948-2.207-1.948-.835 0-1.451.318-1.849.974l.14-6.263h-.637zm1.849-5.885c.637 0 1.114.458 1.114 1.074 0 1.034-1.372 3.022-2.406 3.678-.06-.338-.099-.994-.099-1.968 0-.537.039-1.193.119-1.949.298-.556.716-.835 1.272-.835z" fill-rule="nonzero"/></svg>