<svg clip-rule="evenodd" fill-rule="evenodd" stroke-linejoin="round" stroke-miterlimit="2" viewBox="0 0 210 38" xmlns="http://www.w3.org/2000/svg"><g fill="none" stroke="#000"><path d="m206.752 9.616v19.882" stroke-width=".78"/><path d="m209.392 9.616v19.882" stroke-width=".78"/><g stroke-width=".47"><path d="m.014 29.498h209.689"/><path d="m.014 24.528h209.689"/><path d="m.014 19.557h209.689"/><path d="m.014 14.587h209.689"/><path d="m.014 9.616h209.689"/></g></g><path d="m14.14 28.838.755 3.678c.04.219.06.418.06.617 0 1.948-1.988 3.578-4.135 3.578-.657 0-1.293-.159-1.889-.457 1.531-.159 2.684-1.094 2.684-2.465 0-1.213-.994-2.486-2.267-2.486-1.451 0-2.445 1.114-2.445 2.565 0 2.028 1.65 3.36 3.638 3.36 2.664 0 4.931-1.73 4.931-4.215 0-.556-.875-4.493-.855-4.354 2.127-1.034 3.579-2.863 3.579-4.791 0-2.645-2.128-4.673-4.772-4.673-.04 0-.318.02-.795.06l-.875-4.195c2.962-2.505 4.314-5.169 4.314-8.092 0-2.246-.894-4.632-2.704-7.137-2.047 1.65-3.22 4.95-3.22 8.469 0 1.253.159 2.466.437 3.619-4.533 3.797-6.8 7.296-6.8 10.497 0 3.758 3.877 6.879 8.092 6.879.935 0 1.631-.139 2.267-.457zm-.06-26.124c.656.676.994 1.471.994 2.405 0 1.929-1.372 4.096-4.056 6.482-.139-.577-.179-1.213-.179-1.909 0-3.34 1.233-7.018 2.883-7.018.139 0 .259.02.358.04zm.418 25.309-1.412-6.641c.278-.019.437-.039.497-.039 1.71 0 2.903 1.61 2.903 3.26 0 1.312-.696 2.466-1.988 3.42zm-1.909-6.561 1.432 6.839c-.696.378-1.472.537-2.406.537-3.221 0-6.004-2.406-6.004-5.328 0-2.644 1.968-5.368 5.686-8.152l.835 3.977c-2.068.437-3.818 2.187-3.818 4.155 0 1.67 1.193 2.843 2.983 3.121-1.094-.676-1.631-1.531-1.631-2.544 0-1.372 1.273-2.386 2.923-2.605z" fill-rule="nonzero"/><path d="m44.592 28.721v-16.619" fill="none" stroke="#000" stroke-width=".47"/><path d="m40.14 32.039c2.048 0 4.573-1.71 4.573-3.459 0-1.054-.935-1.73-2.267-1.73-2.008 0-4.533 1.67-4.533 3.459 0 1.094.974 1.73 2.227 1.73z" fill-rule="nonzero"/><path d="m32.011 33.093 2.803-2.068c1.233-.895 1.71-1.909 1.75-2.664 0-1.113-1.014-1.948-2.207-1.948-.835 0-1.451.318-1.849.974l.139-6.263h-.636zm1.849-5.885c.636 0 1.113.457 1.113 1.073 0 1.034-1.372 3.022-2.405 3.679-.06-.338-.1-.995-.1-1.969 0-.537.04-1.193.12-1.948.298-.557.715-.835 1.272-.835z" fill-rule="nonzero"/><path d="m77.832 26.236v-16.62" fill="none" stroke="#000" stroke-width=".47"/><path d="m73.38 29.554c2.047 0 4.572-1.71 4.572-3.46 0-1.053-.934-1.729-2.266-1.729-2.008 0-4.533 1.67-4.533 3.459 0 1.094.974 1.73 2.227 1.73z" fill-rule="nonzero"/><path d="m110.916 23.751v-16.62" fill="none" stroke="#000" stroke-width=".47"/><path d="m106.464 27.069c2.048 0 4.573-1.71 4.573-3.46 0-1.054-.935-1.729-2.267-1.729-2.008 0-4.533 1.67-4.533 3.459 0 1.093.974 1.73 2.227 1.73z" fill-rule="nonzero"/><path d="m137.632 20.334v16.62" fill="none" stroke="#000" stroke-width=".47"/><path d="m139.704 22.098c2.047 0 4.572-1.71 4.572-3.459 0-1.054-.934-1.73-2.266-1.73-2.008 0-4.533 1.67-4.533 3.46 0 1.093.974 1.729 2.227 1.729z" fill-rule="nonzero"/><path d="m131.574 23.152 2.804-2.068c1.232-.894 1.71-1.908 1.749-2.664 0-1.113-1.014-1.948-2.206-1.948-.836 0-1.452.318-1.849.974l.139-6.263h-.637zm1.849-5.885c.637 0 1.114.457 1.114 1.074 0 1.033-1.372 3.022-2.406 3.678-.059-.338-.099-.994-.099-1.969 0-.536.04-1.192.119-1.948.298-.557.716-.835 1.272-.835z" fill-rule="nonzero"/><path d="m170.716 17.849v16.62" fill="none" stroke="#000" stroke-width=".47"/><path d="m172.788 19.613c2.048 0 4.573-1.71 4.573-3.459 0-1.054-.935-1.73-2.267-1.73-2.008 0-4.533 1.67-4.533 3.459 0 1.094.974 1.73 2.227 1.73z" fill-rule="nonzero"/></svg>