<svg clip-rule="evenodd" fill-rule="evenodd" stroke-linejoin="round" stroke-miterlimit="2" viewBox="0 0 471 474" xmlns="http://www.w3.org/2000/svg"><path d="m138.758 96.624v19.837" fill="none" stroke="#000" stroke-width=".77"/><path d="m247.4 96.624v19.837" fill="none" stroke="#000" stroke-width=".77"/><path d="m356.041 96.624v19.837" fill="none" stroke="#000" stroke-width=".77"/><path d="m467.937 96.624v19.837" fill="none" stroke="#000" stroke-width=".77"/><path d="m470.571 96.624v19.837" fill="none" stroke="#000" stroke-width=".77"/><path d="m43.855 69.538v9.26c-.251-.25-.621-.381-1.098-.381-1.194 0-2.721.99-2.721 2.088 0 .668.573 1.026 1.336 1.026 1.253 0 2.745-1.014 2.745-2.076v-9.917z" fill-rule="nonzero"/><path d="m48.924 75.608v.919h6.384v-.919zm0 2.757v.918h6.384v-.918z" fill-rule="nonzero"/><path d="m62.941 81.336c.012-2.124 1.133-5.43 2.243-7.172v-.609h-3.532c-.191 0-.358 0-.501-.012-.144-.012-.275-.047-.382-.131h-.287l-.489 2.148h.442c.203-.764.561-1.038 1.324-1.038h2.697c-1.694 3.043-2.685 5.167-2.685 6.814z" fill-rule="nonzero"/><path d="m68.37 77.386c-1.003.43-1.683 1.098-1.683 2.029 0 1.169 1.122 2.064 2.59 2.064 1.539 0 2.613-.919 2.613-2.231 0-.955-.561-1.731-1.682-2.28 1.014-.429 1.467-.954 1.467-1.694 0-1.038-1.05-1.862-2.374-1.862-1.337 0-2.435.919-2.435 2.041 0 .811.466 1.384 1.504 1.933zm1.384-.633c-.835-.393-1.933-.668-1.933-1.658 0-.657.608-1.17 1.396-1.17.919 0 1.587.609 1.587 1.444 0 .609-.346 1.062-1.05 1.384zm-.955.848c1.42.596 2.22 1.038 2.22 2.017 0 .823-.68 1.42-1.647 1.42-1.038 0-1.754-.704-1.754-1.719 0-.752.418-1.36 1.181-1.718z" fill-rule="nonzero"/><path d="m179.518 161.096v19.837" fill="none" stroke="#000" stroke-width=".77"/><path d="m246.78 161.096v19.837" fill="none" stroke="#000" stroke-width=".77"/><path d="m403.31 161.096v19.837" fill="none" stroke="#000" stroke-width=".77"/><path d="m470.571 161.096v19.837" fill="none" stroke="#000" stroke-width=".77"/><path d="m146.042 167.295c2.48-3.255 9.764-3.255 12.244 0" fill="none" stroke="#000" stroke-width=".31"/><path d="m146.042 167.295c2.48-4.03 9.764-4.03 12.244 0-2.48-2.48-9.764-2.48-12.244 0z"/><path d="m146.042 167.295c2.48-4.03 9.764-4.03 12.244 0-2.48-2.48-9.764-2.48-12.244 0z" fill="none" stroke="#000" stroke-width=".15"/><path d="m368.749 187.132c1.86 2.945 7.749 2.945 9.609 0" fill="none" stroke="#000" stroke-width=".31"/><path d="m368.749 187.132c1.86 2.17 7.749 2.17 9.609 0-1.86 3.72-7.749 3.72-9.609 0z"/><path d="m368.749 187.132c1.86 2.17 7.749 2.17 9.609 0-1.86 3.72-7.749 3.72-9.609 0z" fill="none" stroke="#000" stroke-width=".15"/><path d="m368.749 178.454c1.86 2.944 7.749 2.944 9.609 0" fill="none" stroke="#000" stroke-width=".31"/><path d="m368.749 178.454c1.86 2.169 7.749 2.169 9.609 0-1.86 3.719-7.749 3.719-9.609 0z"/><path d="m368.749 178.454c1.86 2.169 7.749 2.169 9.609 0-1.86 3.719-7.749 3.719-9.609 0z" fill="none" stroke="#000" stroke-width=".15"/><path d="m368.749 173.494c1.86 2.945 7.749 2.945 9.609 0" fill="none" stroke="#000" stroke-width=".31"/><path d="m368.749 173.494c1.86 2.17 7.749 2.17 9.609 0-1.86 3.72-7.749 3.72-9.609 0z"/><path d="m368.749 173.494c1.86 2.17 7.749 2.17 9.609 0-1.86 3.72-7.749 3.72-9.609 0z" fill="none" stroke="#000" stroke-width=".15"/><path d="m368.749 169.775c1.86-2.945 7.749-2.945 9.609 0" fill="none" stroke="#000" stroke-width=".31"/><path d="m368.749 169.775c1.86-3.72 7.749-3.72 9.609 0-1.86-2.17-7.749-2.17-9.609 0z"/><path d="m368.749 169.775c1.86-3.72 7.749-3.72 9.609 0-1.86-2.17-7.749-2.17-9.609 0z" fill="none" stroke="#000" stroke-width=".15"/><path d="m180.293 225.568v19.837" fill="none"/><path d="m180.293 225.568v19.837" fill="none" stroke="#000" stroke-width=".77"/><path d="m248.484 225.568v19.837" fill="none"/><path d="m248.484 225.568v19.837" fill="none" stroke="#000" stroke-width=".77"/><path d="m394.941 225.568v19.837" fill="none"/><path d="m394.941 225.568v19.837" fill="none" stroke="#000" stroke-width=".77"/><path d="m466.232 225.568v19.837" fill="none"/><path d="m466.232 225.568v19.837" fill="none" stroke="#000" stroke-width=".77"/><path d="m469.641 225.568v19.837" fill="none"/><path d="m469.641 225.568v19.837" fill="none" stroke="#000" stroke-width="2.48"/><path d="m146.507 231.767c2.48-3.255 9.764-3.255 12.244 0" fill="none" stroke="#000" stroke-width=".31"/><path d="m146.507 231.767c2.48-4.03 9.764-4.03 12.244 0-2.48-2.48-9.764-2.48-12.244 0z"/><path d="m146.507 231.767c2.48-4.03 9.764-4.03 12.244 0-2.48-2.48-9.764-2.48-12.244 0z" fill="none" stroke="#000" stroke-width=".15"/><path d="m361 231.767c2.48-3.255 9.919-3.255 12.399 0" fill="none" stroke="#000" stroke-width=".31"/><path d="m361 231.767c2.48-4.03 9.919-4.03 12.399 0-2.48-2.48-9.919-2.48-12.399 0z"/><path d="m361 231.767c2.48-4.03 9.919-4.03 12.399 0-2.48-2.48-9.919-2.48-12.399 0z" fill="none" stroke="#000" stroke-width=".15"/><path d="m40.966 303.058v19.682" fill="none"/><path d="m40.966 303.058v19.682" fill="none" stroke="#000" stroke-width="2.48"/><path d="m44.375 303.058v19.682" fill="none"/><path d="m44.375 303.058v19.682" fill="none" stroke="#000" stroke-width=".77"/><path d="m47.63 309.569c-.476 0-.913.416-.913.952 0 .456.457.893.913.893.535 0 .952-.437.952-.893 0-.536-.417-.952-.952-.952z" fill-rule="nonzero"/><path d="m47.63 314.528c-.476 0-.913.417-.913.952 0 .457.457.893.913.893.535 0 .952-.436.952-.893 0-.535-.417-.952-.952-.952z" fill-rule="nonzero"/><path d="m166.19 303.058v19.682" fill="none"/><path d="m166.19 303.058v19.682" fill="none" stroke="#000" stroke-width=".77"/><path d="m258.713 303.058v19.682" fill="none"/><path d="m258.713 303.058v19.682" fill="none" stroke="#000" stroke-width=".77"/><path d="m367.199 303.058v19.682" fill="none"/><path d="m367.199 303.058v19.682" fill="none" stroke="#000" stroke-width=".77"/><path d="m466.232 303.058v19.682" fill="none"/><path d="m466.232 303.058v19.682" fill="none" stroke="#000" stroke-width=".77"/><path d="m469.641 303.058v19.682" fill="none"/><path d="m469.641 303.058v19.682" fill="none" stroke="#000" stroke-width="2.48"/><path d="m462.977 309.569c-.476 0-.912.416-.912.952 0 .456.456.893.912.893.536 0 .952-.437.952-.893 0-.536-.416-.952-.952-.952z" fill-rule="nonzero"/><path d="m462.977 314.528c-.476 0-.912.417-.912.952 0 .457.456.893.912.893.536 0 .952-.436.952-.893 0-.535-.416-.952-.952-.952z" fill-rule="nonzero"/><path d="m94.744 380.393v19.837" fill="none"/><path d="m94.744 380.393v19.837" fill="none" stroke="#000" stroke-width=".77"/><path d="m97.379 380.393v19.837" fill="none"/><path d="m97.379 380.393v19.837" fill="none" stroke="#000" stroke-width=".77"/><path d="m271.731 380.393v19.837" fill="none"/><path d="m271.731 380.393v19.837" fill="none" stroke="#000" stroke-width=".77"/><path d="m470.571 380.393v19.837" fill="none"/><path d="m470.571 380.393v19.837" fill="none" stroke="#000" stroke-width=".77"/><path d="m79.556 381.633c5.579-4.805 22.627-4.805 28.361 0" fill="none" stroke="#000" stroke-width=".31"/><path d="m79.556 381.633c5.579-5.58 22.627-5.58 28.361 0-5.734-4.03-22.782-4.03-28.361 0z"/><path d="m79.556 381.633c5.579-5.58 22.627-5.58 28.361 0-5.734-4.03-22.782-4.03-28.361 0z" fill="none" stroke="#000" stroke-width=".15"/><path d="m458.638 381.633c1.859-2.945 7.749-2.945 9.763 0" fill="none" stroke="#000" stroke-width=".31"/><path d="m458.638 381.633c1.859-3.72 7.749-3.72 9.763 0-2.014-2.17-7.904-2.17-9.763 0z"/><path d="m458.638 381.633c1.859-3.72 7.749-3.72 9.763 0-2.014-2.17-7.904-2.17-9.763 0z" fill="none" stroke="#000" stroke-width=".15"/><path d="m262.743 444.865v19.837" fill="none"/><path d="m262.743 444.865v19.837" fill="none" stroke="#000" stroke-width=".77"/><path d="m466.232 444.865v19.837" fill="none"/><path d="m466.232 444.865v19.837" fill="none" stroke="#000" stroke-width=".77"/><path d="m469.641 444.865v19.837" fill="none"/><path d="m469.641 444.865v19.837" fill="none" stroke="#000" stroke-width="2.48"/><path d="m21.128 446.105c2.015-3.1 8.214-3.1 10.229 0" fill="none" stroke="#000" stroke-width=".31"/><path d="m21.128 446.105c2.015-3.875 8.214-3.875 10.229 0-2.015-2.325-8.214-2.325-10.229 0z"/><path d="m21.128 446.105c2.015-3.875 8.214-3.875 10.229 0-2.015-2.325-8.214-2.325-10.229 0z" fill="none" stroke="#000" stroke-width=".15"/><path d="m30.05 103.827v-.839h-1.259v-4.499l-2.499 2.22v2.279h-2.699c.299-.76 1.119-1.8 2.459-3.139 1.219-1.22 1.919-2.299 2.119-3.199h-3.419c-.16 1.959-1.319 4.818-2.539 6.378v.799h4.079c0 .7-.02 1.1-.06 1.2-.12.22-.5.36-1.12.4l-.04.56h4.918l-.08-.58c-.959-.08-1.139-.18-1.139-.68 0-.06 0-.18.02-.38v-.52z" fill-rule="nonzero"/><path d="m30.05 113.879v-.839h-1.259v-4.499l-2.499 2.22v2.279h-2.699c.299-.76 1.119-1.8 2.459-3.139 1.219-1.22 1.919-2.299 2.119-3.199h-3.419c-.16 1.959-1.319 4.818-2.539 6.378v.799h4.079c0 .7-.02 1.1-.06 1.2-.12.22-.5.36-1.12.4l-.04.56h4.918l-.08-.58c-.959-.08-1.139-.18-1.139-.68 0-.06 0-.18.02-.38v-.52z" fill-rule="nonzero"/><path d="m33.305 310.261v-.839h-1.26v-4.499l-2.499 2.219v2.28h-2.699c.3-.76 1.12-1.8 2.459-3.139 1.22-1.22 1.92-2.299 2.119-3.199h-3.418c-.16 1.959-1.32 4.818-2.539 6.378v.799h4.078c0 .7-.02 1.1-.06 1.2-.12.22-.5.36-1.119.4l-.04.559h4.918l-.08-.579c-.96-.08-1.14-.18-1.14-.68 0-.06 0-.18.02-.38v-.52z" fill-rule="nonzero"/><path d="m33.305 320.313v-.839h-1.26v-4.499l-2.499 2.219v2.28h-2.699c.3-.76 1.12-1.8 2.459-3.139 1.22-1.22 1.92-2.299 2.119-3.199h-3.418c-.16 1.959-1.32 4.818-2.539 6.377v.8h4.078c0 .7-.02 1.1-.06 1.2-.12.22-.5.36-1.119.4l-.04.559h4.918l-.08-.579c-.96-.08-1.14-.18-1.14-.68 0-.06 0-.18.02-.38v-.52z" fill-rule="nonzero"/><path d="m30.05 387.751v-.839h-1.259v-4.499l-2.499 2.22v2.279h-2.699c.299-.76 1.119-1.8 2.459-3.139 1.219-1.22 1.919-2.299 2.119-3.199h-3.419c-.16 1.959-1.319 4.818-2.539 6.378v.799h4.079c0 .7-.02 1.1-.06 1.2-.12.22-.5.36-1.12.4l-.04.56h4.918l-.08-.58c-.959-.08-1.139-.18-1.139-.68 0-.06 0-.18.02-.38v-.52z" fill-rule="nonzero"/><path d="m30.05 397.803v-.839h-1.259v-4.499l-2.499 2.22v2.279h-2.699c.299-.76 1.119-1.8 2.459-3.139 1.219-1.22 1.919-2.299 2.119-3.199h-3.419c-.16 1.959-1.319 4.818-2.539 6.378v.799h4.079c0 .7-.02 1.1-.06 1.2-.12.22-.5.36-1.12.4l-.04.56h4.918l-.08-.58c-.959-.08-1.139-.18-1.139-.68 0-.06 0-.18.02-.38v-.52z" fill-rule="nonzero"/><path d="m.051 116.461h470.83" fill="none"/><path d="m.051 116.461h470.83" fill="none" stroke="#000" stroke-width=".46"/><path d="m.051 111.502h470.83" fill="none"/><path d="m.051 111.502h470.83" fill="none" stroke="#000" stroke-width=".46"/><path d="m.051 106.543h470.83" fill="none"/><path d="m.051 106.543h470.83" fill="none" stroke="#000" stroke-width=".46"/><path d="m.051 101.583h470.83" fill="none"/><path d="m.051 101.583h470.83" fill="none" stroke="#000" stroke-width=".46"/><path d="m.051 96.624h470.83" fill="none"/><path d="m.051 96.624h470.83" fill="none" stroke="#000" stroke-width=".46"/><g fill-rule="nonzero"><path d="m14.145 115.803.754 3.67c.04.218.06.416.06.615 0 1.944-1.984 3.571-4.126 3.571-.655 0-1.29-.159-1.885-.457 1.528-.158 2.678-1.091 2.678-2.46 0-1.21-.992-2.479-2.261-2.479-1.449 0-2.44 1.111-2.44 2.559 0 2.023 1.646 3.352 3.63 3.352 2.658 0 4.92-1.726 4.92-4.205 0-.556-.873-4.484-.853-4.345 2.122-1.031 3.57-2.856 3.57-4.78 0-2.639-2.122-4.662-4.761-4.662-.039 0-.317.02-.793.059l-.873-4.185c2.956-2.5 4.305-5.158 4.305-8.074 0-2.242-.893-4.622-2.698-7.122-2.043 1.647-3.214 4.94-3.214 8.451 0 1.25.159 2.46.437 3.61-4.523 3.789-6.785 7.281-6.785 10.474 0 3.75 3.868 6.864 8.074 6.864.932 0 1.627-.139 2.261-.456zm-.059-26.067c.655.675.992 1.468.992 2.401 0 1.924-1.369 4.086-4.047 6.467-.139-.575-.179-1.21-.179-1.905 0-3.332 1.23-7.002 2.877-7.002.139 0 .258.02.357.039zm.417 25.254-1.409-6.626c.278-.02.436-.04.496-.04 1.706 0 2.896 1.607 2.896 3.254 0 1.309-.694 2.459-1.983 3.412zm-1.905-6.547 1.428 6.824c-.694.377-1.468.536-2.4.536-3.214 0-5.991-2.4-5.991-5.317 0-2.638 1.964-5.356 5.674-8.133l.833 3.968c-2.063.436-3.809 2.182-3.809 4.146 0 1.666 1.19 2.836 2.976 3.114-1.091-.674-1.627-1.527-1.627-2.539 0-1.369 1.27-2.381 2.916-2.599z"/><path d="m81.881 101.54h5.574v2.38h-5.574z"/><path d="m190.522 101.54h5.574v2.38h-5.574z"/><path d="m299.163 101.54h5.574v2.38h-5.574z"/><path d="m407.804 101.54h5.574v2.38h-5.574z"/><path d="m401.015 54.532v-8.627h1.134l3.345 7.141 3.455-7.141h1.067v8.627h-.781v-7.494l-3.554 7.494h-.374l-3.5-7.483v7.483z"/><path d="m415.616 50.724v2.773c0 .121.033.231.088.33.055.088.154.132.297.132h.11c.033-.011.055-.011.088-.022.044-.011.088-.033.121-.044s.055-.022.077-.033v.617c-.132.044-.264.077-.396.099-.132.011-.231.022-.308.022-.374 0-.617-.099-.738-.297-.099-.122-.143-.397-.143-.804-.099.165-.187.308-.286.429s-.187.22-.286.298c-.385.297-.825.451-1.331.451-.539 0-1.002-.154-1.398-.473-.407-.342-.616-.771-.616-1.288 0-.649.33-1.133.99-1.441.242-.121.562-.22.969-.308.396-.089.869-.166 1.43-.243l.528-.055c0-.517-.132-.913-.385-1.199-.264-.297-.649-.44-1.155-.44-.187 0-.374.022-.561.077-.187.044-.385.121-.573.22-.099.055-.22.132-.341.209s-.264.187-.407.308v-.902c.627-.418 1.299-.627 2.014-.627.737 0 1.298.231 1.694.693.342.407.518.913.518 1.518zm-.804 1.156v-.352l-.374.044c-.913.099-1.562.22-1.936.385-.496.198-.749.517-.749.968 0 .132.033.264.088.385s.143.22.242.319.232.176.386.231c.143.055.308.088.495.088.495 0 .935-.198 1.309-.605.363-.407.539-.902.539-1.463z"/><path d="m422.063 49.162v1.034c-.407-.385-.836-.671-1.266-.836-.121-.055-.253-.088-.385-.099-.132-.022-.264-.033-.396-.033-.605 0-1.111.231-1.496.682-.385.473-.584 1.023-.584 1.673 0 .66.199 1.221.606 1.694.407.451.913.671 1.518.671.385 0 .726-.077 1.046-.242.319-.165.638-.418.957-.748v1.045c-.385.243-.737.419-1.056.518-.32.099-.639.154-.958.154-.825 0-1.529-.297-2.113-.881-.572-.605-.858-1.342-.858-2.2 0-.848.286-1.574.847-2.179.573-.605 1.288-.902 2.135-.902.429 0 .836.077 1.211.22.22.077.484.22.792.429z"/><path d="m428.136 51.352h-4.478c0 .847.198 1.485.594 1.936.385.44.902.66 1.54.66.484 0 .947-.154 1.398-.462.121-.077.253-.176.396-.297s.286-.264.451-.429v.957c-.176.132-.341.253-.484.352-.154.099-.297.177-.429.243-.462.242-.925.363-1.387.363-.803 0-1.474-.275-2.035-.826-.606-.583-.903-1.331-.903-2.255 0-.87.275-1.607.815-2.19.55-.594 1.232-.891 2.035-.891.781 0 1.409.286 1.871.858.407.517.616 1.177.616 1.981zm-4.368-.672h3.444c-.088-.495-.275-.869-.561-1.111-.298-.253-.65-.374-1.057-.374-.451 0-.836.143-1.155.429-.297.264-.517.616-.671 1.056z"/><path d="m431.755 54.675c-.76 0-1.42-.275-1.992-.826-.605-.583-.913-1.331-.913-2.255 0-.87.264-1.607.803-2.19.55-.594 1.232-.891 2.036-.891.803 0 1.474.297 2.024.891.539.583.815 1.309.815 2.179 0 .913-.298 1.661-.881 2.255-.539.562-1.177.837-1.892.837zm-.077-.727c.528 0 1.001-.22 1.408-.66.396-.451.594-1.012.594-1.705 0-.716-.209-1.288-.638-1.739-.385-.407-.836-.616-1.353-.616-.529 0-.98.209-1.354.638-.407.473-.616 1.045-.616 1.728 0 .693.198 1.265.605 1.727.374.418.825.627 1.354.627z"/><path d="m438.895 45.905h2.762c.793 0 1.442.132 1.948.407.682.385 1.023.99 1.023 1.827 0 .803-.286 1.43-.847 1.87-.517.407-1.177.616-1.981.616h-2.035v3.907h-.87zm2.751.759h-1.881v3.202h1.947c.517 0 .958-.132 1.332-.407.418-.308.627-.726.627-1.243 0-.584-.242-1.013-.737-1.266-.363-.187-.793-.286-1.288-.286z"/><path d="m450.152 50.724v2.773c0 .121.033.231.088.33.055.088.154.132.297.132h.11c.033-.011.055-.011.088-.022.044-.011.088-.033.121-.044s.055-.022.077-.033v.617c-.132.044-.264.077-.396.099-.132.011-.231.022-.308.022-.374 0-.616-.099-.737-.297-.099-.122-.143-.397-.143-.804-.099.165-.187.308-.286.429s-.187.22-.286.298c-.386.297-.826.451-1.332.451-.539 0-1.001-.154-1.397-.473-.407-.342-.617-.771-.617-1.288 0-.649.331-1.133.991-1.441.242-.121.561-.22.968-.308.396-.089.869-.166 1.431-.243l.528-.055c0-.517-.132-.913-.385-1.199-.264-.297-.65-.44-1.156-.44-.187 0-.374.022-.561.077-.187.044-.385.121-.572.22-.099.055-.22.132-.341.209s-.264.187-.407.308v-.902c.627-.418 1.298-.627 2.013-.627.738 0 1.299.231 1.695.693.341.407.517.913.517 1.518zm-.803 1.156v-.352l-.374.044c-.914.099-1.563.22-1.937.385-.495.198-.748.517-.748.968 0 .132.033.264.088.385s.143.22.242.319.231.176.385.231c.143.055.308.088.495.088.495 0 .935-.198 1.31-.605.363-.407.539-.902.539-1.463z"/><path d="m454.949 48.645v.792c-.077-.033-.143-.055-.198-.066-.055-.022-.099-.033-.132-.044s-.077-.011-.11-.011c-.044-.011-.099-.011-.166-.011-.539 0-.979.264-1.32.781-.297.473-.44 1.012-.44 1.596v2.85h-.792v-5.887h.726l.055 1.012c.187-.308.352-.528.517-.66.33-.275.726-.407 1.188-.407.122 0 .243 0 .353.011.099.011.209.022.319.044z"/><path d="m455.663 45.905h.803v5.337l2.707-2.597h1.122l-2.476 2.288 2.828 3.599h-1.089l-2.333-3.07-.759.704v2.366h-.803z"/><path d="m466.489 51.352h-4.479c0 .847.198 1.485.595 1.936.385.44.902.66 1.54.66.484 0 .946-.154 1.397-.462.122-.077.254-.176.397-.297s.286-.264.451-.429v.957c-.176.132-.341.253-.484.352-.154.099-.297.177-.43.243-.462.242-.924.363-1.386.363-.803 0-1.474-.275-2.036-.826-.605-.583-.902-1.331-.902-2.255 0-.87.275-1.607.814-2.19.551-.594 1.233-.891 2.036-.891.781 0 1.408.286 1.871.858.407.517.616 1.177.616 1.981zm-4.369-.672h3.445c-.089-.495-.276-.869-.562-1.111-.297-.253-.649-.374-1.056-.374-.451 0-.836.143-1.155.429-.297.264-.518.616-.672 1.056z"/><path d="m470.515 48.645v.792c-.078-.033-.144-.055-.199-.066-.055-.022-.099-.033-.132-.044s-.077-.011-.11-.011c-.044-.011-.099-.011-.165-.011-.539 0-.979.264-1.32.781-.297.473-.44 1.012-.44 1.596v2.85h-.793v-5.887h.727l.055 1.012c.187-.308.352-.528.517-.66.33-.275.726-.407 1.188-.407.121 0 .242 0 .352.011.099.011.209.022.32.044z"/><path d="m215.438 27.486h6.807v.962h-5.705v4.059h5.468v.893h-5.468v5.021h-1.102z"/><path d="m223.388 30.959h1.018v4.756c0 .53.153.976.46 1.339.335.418.809.628 1.423.628.711 0 1.311-.279 1.813-.851.516-.6.781-1.256.781-1.967v-3.905h1.005v7.462h-.879l-.07-1.269c-.153.209-.307.39-.474.558-.168.153-.349.292-.544.418-.516.321-1.088.474-1.716.474-.851 0-1.534-.265-2.05-.795-.516-.544-.767-1.199-.767-1.967z"/><path d="m237.669 33.427v4.994h-1.005v-4.924c0-.516-.195-.948-.571-1.283-.377-.349-.837-.516-1.367-.516-.712 0-1.312.293-1.828.879-.516.599-.767 1.269-.767 2.008v3.836h-.948v-7.462h.878l.042 1.394c.251-.376.544-.697.879-.948.544-.405 1.172-.614 1.855-.614.795 0 1.465.237 2.009.726.544.474.823 1.115.823 1.91z"/><path d="m238.978 27.486h1.018v6.764l3.431-3.291h1.423l-3.138 2.901 3.584 4.561h-1.381l-2.957-3.892-.962.893v2.999h-1.018z"/><path d="m122.855 14.802v-1.98c0-.176.044-.286.154-.352s.198-.11.308-.11.264.022.418.066.264.066.33.088c.242.066.616.154 1.123.22.506.066.902.11 1.188.11.638 0 1.166-.132 1.541-.396.374-.287.55-.661.55-1.123 0-.682-.418-1.342-1.277-1.936-.616-.397-1.078-.683-1.364-.881-1.079-.726-1.827-1.32-2.223-1.826-.528-.661-.792-1.475-.792-2.465 0-1.343.462-2.377 1.364-3.081.903-.704 2.135-1.056 3.697-1.056.683 0 1.343.066 2.003.176.99.176 1.497.44 1.497.77v2.135c-.044.176-.176.264-.374.264l-1.057-.198c-.594-.11-.968-.177-1.122-.199s-.396-.044-.704-.044c-.595 0-1.035.088-1.299.287-.286.198-.418.418-.418.704 0 .506.836 1.276 2.487 2.355.968.638 1.672 1.254 2.113 1.826.704.902 1.056 1.981 1.056 3.213 0 1.387-.484 2.465-1.431 3.279-.968.793-2.288 1.189-3.961 1.189-.55 0-1.166-.044-1.849-.11-.682-.088-1.188-.198-1.518-.33-.198-.066-.308-.155-.352-.265-.066-.11-.088-.22-.088-.33z"/><path d="m134.033 15.044v-14.172c0-.264.066-.44.176-.506s.242-.11.44-.11h1.76c.265 0 .441.066.507.176s.11.242.11.44v3.037c0 .066.066.132.198.154.154 0 .418-.132.748-.396.33-.286.77-.418 1.342-.418.771 0 1.409.242 1.915.704.594.572.902 1.43.902 2.575v8.516c0 .264-.044.441-.154.507s-.264.11-.462.11h-1.76c-.265 0-.441-.044-.507-.154s-.11-.265-.11-.463v-7.878c0-.286-.088-.528-.264-.726-.198-.198-.44-.309-.77-.309-.462 0-.792.199-.946.617-.088.242-.132.572-.132 1.012v7.284c0 .264-.044.441-.154.507s-.264.11-.463.11h-1.76c-.264 0-.44-.044-.506-.154s-.11-.265-.11-.463z"/><path d="m151.703 6.726v8.164c0 .242-.022.396-.066.485-.11.198-.308.286-.594.286h-1.848c-.286 0-.419-.11-.419-.353 0-.11-.066-.154-.176-.154-.11.044-.176.088-.198.11-.198.177-.462.309-.792.419-.352.11-.682.154-1.012.154-.859 0-1.541-.308-2.091-.925-.594-.682-.902-1.672-.902-2.927 0-1.496.484-2.662 1.452-3.499.572-.484 1.541-.968 2.883-1.474l.55-.198c.154-.066.22-.176.22-.352 0-.309-.132-.529-.396-.639-.286-.11-.616-.176-1.012-.176-.418 0-.726.022-.946.066-.242.066-.462.132-.639.176-.198.044-.33.088-.44.132-.286.11-.462.155-.528.155-.286 0-.418-.133-.418-.397v-1.364c0-.286.154-.506.484-.704.55-.308 1.453-.462 2.751-.462 1.673 0 2.839.374 3.477 1.144.44.528.66 1.298.66 2.333zm-2.993 5.634v-2.817c0-.066-.022-.132-.088-.154s-.132-.022-.22.044l-.374.242c-.44.286-.748.55-.924.792-.242.352-.374.792-.374 1.342 0 .374.088.705.242.969.154.242.396.374.726.374.286 0 .528-.088.726-.242s.286-.352.286-.55z"/><path d="m159.603 3.425h2.399c.264 0 .396.11.396.308 0 .066-.044.154-.11.264l-2.817 3.455c-.11.154-.132.286-.066.418l3.015 6.954c.088.198.132.374.132.484 0 .243-.132.353-.396.353h-2.179c-.198 0-.374-.11-.528-.308-.066-.089-.154-.287-.308-.617l-1.782-4.357c-.044-.088-.088-.132-.154-.132-.044 0-.088.022-.132.088l-.463.594c-.11.11-.154.264-.154.44v3.675c0 .264-.044.441-.154.507s-.264.11-.462.11h-1.76c-.265 0-.441-.044-.507-.154s-.11-.265-.11-.463v-14.172c0-.264.066-.44.176-.506s.242-.11.441-.11h1.76c.264 0 .44.066.506.176s.11.242.11.44v5.722c0 .11.044.154.11.154.022 0 .088-.044.154-.11l2.223-2.883c.11-.132.176-.198.198-.22.11-.066.264-.11.462-.11z"/><path d="m171.331 10.357h-4.423c-.11 0-.176.022-.198.088-.044.044-.066.11-.066.176v.704c0 .594.198 1.035.572 1.365.374.308.902.462 1.585.462.462 0 .902-.022 1.276-.088s.792-.176 1.21-.33c.374-.11.551 0 .551.352v1.804c0 .11-.022.22-.066.286-.067.066-.177.132-.353.199-.484.176-.968.308-1.474.374s-.946.088-1.343.088c-1.276 0-2.31-.242-3.103-.705-1.232-.726-1.848-1.98-1.848-3.741v-3.719c0-1.166.22-2.113.682-2.817.682-1.078 1.849-1.606 3.499-1.606.991 0 1.827.198 2.465.616 1.1.704 1.651 1.98 1.651 3.807v2.069c0 .264-.044.44-.154.506-.111.066-.265.11-.463.11zm-4.467-2.421h1.871c.088 0 .154-.066.22-.22v-.484c0-.418-.044-.748-.154-.968-.199-.397-.507-.595-.969-.595-.374 0-.682.132-.88.396-.198.243-.308.639-.308 1.167v.484c0 .154.066.22.22.22z"/><path d="m180.197 14.89v-13.864c0-.264.022-.44.088-.528.11-.154.353-.242.683-.242h7.218c.33 0 .55.066.638.198.088.11.132.308.132.572v1.562c0 .154-.044.286-.154.396-.11.088-.286.133-.528.133h-4.423c-.264 0-.397.11-.397.352v2.31c0 .264.089.397.243.397h3.477c.154 0 .264.044.374.11.088.066.132.176.132.308v2.002c0 .286-.154.44-.44.44h-3.499c-.198 0-.287.132-.287.375v3.125c0 .176.089.264.243.264h4.951c.242 0 .418.044.484.154.066.088.11.22.11.396v1.54c0 .264-.022.441-.088.529-.11.154-.352.242-.682.242h-7.504c-.264 0-.44-.022-.528-.088-.155-.11-.243-.353-.243-.683z"/><path d="m190.561 3.425h2.201c.198 0 .352.066.44.198.088.11.154.264.198.418l.264 1.078c.308 1.255.528 2.267.66 3.015s.22 1.277.286 1.563c.044.286.088.55.11.77.022.198.088.308.154.308s.132-.132.176-.418c.022-.286.066-.572.11-.836.133-.705.243-1.321.331-1.827.176-.924.352-1.783.55-2.597l.264-1.078c.088-.396.308-.594.66-.594h2.113c.33 0 .462.198.352.594l-.44 1.738c-.396 1.607-.815 3.235-1.255 4.886-.638 2.377-1.056 3.851-1.254 4.401-.088.287-.176.463-.286.529s-.242.088-.44.088h-2.047c-.242 0-.396-.044-.462-.154-.088-.11-.154-.265-.198-.463l-2.949-11.003c-.044-.11-.044-.242 0-.396.022-.154.176-.22.462-.22z"/><path d="m208.079 10.357h-4.424c-.11 0-.176.022-.198.088-.044.044-.066.11-.066.176v.704c0 .594.198 1.035.572 1.365.374.308.903.462 1.585.462.462 0 .902-.022 1.276-.088s.793-.176 1.211-.33c.374-.11.55 0 .55.352v1.804c0 .11-.022.22-.066.286-.066.066-.176.132-.352.199-.484.176-.969.308-1.475.374s-.946.088-1.342.088c-1.277 0-2.311-.242-3.103-.705-1.233-.726-1.849-1.98-1.849-3.741v-3.719c0-1.166.22-2.113.682-2.817.683-1.078 1.849-1.606 3.5-1.606.99 0 1.826.198 2.464.616 1.101.704 1.651 1.98 1.651 3.807v2.069c0 .264-.044.44-.154.506s-.264.11-.462.11zm-4.468-2.421h1.871c.088 0 .154-.066.22-.22v-.484c0-.418-.044-.748-.154-.968-.198-.397-.506-.595-.968-.595-.375 0-.683.132-.881.396-.198.243-.308.639-.308 1.167v.484c0 .154.066.22.22.22z"/><path d="m213.336 9.455v5.589c0 .264-.044.441-.154.507s-.264.11-.462.11h-1.76c-.264 0-.44-.044-.506-.154s-.11-.265-.11-.463v-11.003c0-.264.066-.44.176-.506s.242-.11.44-.11h2.002c.264 0 .397.11.397.308v.242c0 .066.044.11.11.176l.308-.198c.308-.242.55-.396.748-.484.33-.154.748-.22 1.232-.22.22 0 .396.044.506.11s.155.198.155.418v2.134c0 .176-.045.287-.155.353s-.242.088-.374.088h-.418c-.352 0-.638.044-.836.132s-.418.242-.616.44c-.33.33-.506.682-.572 1.056s-.111.88-.111 1.475z"/><path d="m217.121 3.425h2.112c.242 0 .397.044.463.154.066.088.132.242.176.44l1.056 5.193c.022.089.044.199.066.353s.11.22.22.22.198-.198.264-.573l.946-5.193c.066-.396.265-.594.639-.594h2.068c.33 0 .484.11.484.33 0 .066-.022.154-.044.264l-2.486 11.289c-.33 1.453-.815 2.421-1.497 2.927-.616.463-1.452.683-2.487.683-.924 0-1.54-.088-1.848-.264-.154-.088-.242-.264-.242-.507v-1.65c0-.286.132-.418.396-.418.11 0 .308.044.55.11.088.022.176.044.264.066s.198.022.352.022c.308 0 .528-.066.638-.176s.154-.286.154-.506c0-.176-.022-.331-.066-.463l-2.596-11.113c-.088-.396.044-.594.418-.594z"/><path d="m227.265 1.224 2.179-.704c.088-.022.154-.044.22-.044.176 0 .264.132.264.374v2.465c0 .198.088.286.286.286h.858c.199 0 .353.044.463.11s.154.242.154.506v1.034c0 .264-.044.44-.154.506s-.264.11-.463.11h-.902c-.154 0-.242.088-.242.242v5.986c0 .419.066.727.198.903.11.176.374.264.748.264.154 0 .286 0 .374-.022.089-.022.177-.044.287-.044.176 0 .264.11.264.33v1.672c0 .243-.088.397-.286.507-.198.088-.595.132-1.233.132-1.188 0-2.046-.22-2.553-.639-.528-.44-.792-1.188-.792-2.222v-6.823c0-.11-.022-.198-.088-.22s-.132-.044-.198-.066h-.352c-.154 0-.286-.044-.352-.11s-.11-.242-.11-.506v-1.034c0-.264.044-.44.11-.506s.198-.11.352-.11h.44c.132-.044.198-.132.198-.286v-1.629c0-.242.11-.396.33-.462z"/><path d="m232.854 15.044v-14.172c0-.264.066-.44.176-.506s.243-.11.441-.11h1.76c.264 0 .44.066.506.176s.11.242.11.44v3.037c0 .066.066.132.198.154.155 0 .419-.132.749-.396.33-.286.77-.418 1.342-.418.77 0 1.409.242 1.915.704.594.572.902 1.43.902 2.575v8.516c0 .264-.044.441-.154.507s-.264.11-.462.11h-1.761c-.264 0-.44-.044-.506-.154s-.11-.265-.11-.463v-7.878c0-.286-.088-.528-.264-.726-.198-.198-.44-.309-.77-.309-.462 0-.793.199-.947.617-.088.242-.132.572-.132 1.012v7.284c0 .264-.044.441-.154.507s-.264.11-.462.11h-1.76c-.264 0-.441-.044-.507-.154s-.11-.265-.11-.463z"/><path d="m245.706.542v1.342c0 .198-.044.352-.11.462s-.243.154-.507.154h-1.76c-.264 0-.44-.044-.506-.154s-.11-.264-.11-.462v-1.342c0-.198.044-.33.11-.44.066-.111.242-.177.506-.177h1.76c.198 0 .353.044.463.11.11.067.154.243.154.507zm0 3.499v11.003c0 .264-.044.441-.154.507s-.265.11-.463.11h-1.76c-.264 0-.44-.044-.506-.154s-.11-.265-.11-.463v-11.003c0-.264.066-.44.176-.506s.242-.11.44-.11h1.76c.198 0 .353.044.463.11s.154.242.154.506z"/><path d="m247.466 15.044v-11.003c0-.264.066-.44.176-.506s.242-.11.44-.11h1.959c.11 0 .22.044.308.132.066.066.11.176.11.286 0 .154.044.22.154.22.022 0 .088-.044.198-.11.22-.198.44-.33.66-.44.375-.176.815-.264 1.277-.264.77 0 1.408.242 1.914.704.595.572.903 1.43.903 2.575v8.516c0 .264-.044.441-.154.507s-.264.11-.462.11h-1.761c-.264 0-.44-.044-.506-.154s-.11-.265-.11-.463v-7.878c0-.286-.088-.528-.264-.726-.198-.198-.44-.309-.771-.309-.462 0-.792.199-.946.617-.088.242-.132.572-.132 1.012v7.284c0 .264-.044.441-.154.507s-.264.11-.462.11h-1.761c-.264 0-.44-.044-.506-.154s-.11-.265-.11-.463z"/><path d="m262.76 3.425h2.003c.198 0 .352.044.462.11s.154.242.154.506v9.595c0 1.695-.176 2.861-.528 3.499-.66 1.188-2.047 1.783-4.16 1.783-1.43 0-2.398-.088-2.86-.264-.265-.11-.397-.264-.397-.485v-1.738c0-.198.088-.308.264-.308.397.088.837.176 1.321.242.462.066.902.11 1.276.11.859 0 1.431-.154 1.761-.484.22-.22.33-.528.33-.947v-.242c-.022-.11-.044-.176-.066-.176-.33.22-.66.396-.968.506-.33.11-.705.176-1.123.176-1.254 0-2.112-.528-2.575-1.606-.308-.682-.462-1.673-.462-2.949v-3.389c0-1.166.132-2.025.396-2.619.441-.99 1.277-1.496 2.487-1.496.506 0 .925.088 1.255.242.286.198.55.374.836.572.132-.022.198-.088.198-.154v-.176c0-.198.132-.308.396-.308zm-.374 7.746v-3.785c0-.374-.044-.682-.154-.902-.176-.375-.484-.551-.924-.551s-.749.176-.925.551c-.11.22-.154.528-.154.902v3.785c0 .374.044.682.154.902.176.375.485.551.925.551s.748-.176.924-.551c.11-.22.154-.528.154-.902z"/><path d="m273.454.256h2.553c.198 0 .33.044.44.154.066.066.11.154.176.286l1.739 4.445c0 .022.044.088.11.176.066-.066.088-.11.11-.154l1.98-4.423c.088-.176.176-.308.286-.374.089-.066.199-.11.309-.11h2.574c.331 0 .507.132.507.374 0 .088-.022.154-.044.22s-.044.088-.044.11l-3.786 7.35c-.066.11-.132.264-.198.418s-.11.33-.11.529v5.633c0 .33-.066.551-.176.639-.132.088-.33.132-.594.132h-1.717c-.264 0-.44-.022-.528-.088-.154-.11-.242-.353-.242-.683v-5.633c0-.199 0-.353-.022-.419s-.088-.242-.22-.528l-3.477-7.35c-.066-.176-.11-.308-.11-.396 0-.132.044-.22.154-.242.088-.044.198-.066.33-.066z"/><path d="m285.118 11.413v-3.741c0-1.188.22-2.135.682-2.839.682-1.056 1.849-1.584 3.499-1.584 1.651 0 2.817.528 3.499 1.584.462.704.683 1.651.683 2.839v3.741c0 1.189-.221 2.135-.683 2.839-.682 1.056-1.848 1.585-3.499 1.585-1.65 0-2.817-.529-3.499-1.585-.462-.704-.682-1.65-.682-2.839zm2.993-4.247v4.753c0 .551.132.925.374 1.167.198.198.484.286.814.286s.594-.088.792-.286c.265-.242.397-.638.397-1.167v-4.753c0-.55-.11-.924-.331-1.123-.242-.22-.528-.33-.858-.33s-.594.088-.792.286c-.264.243-.396.639-.396 1.167z"/><path d="m303.207 4.041v11.003c0 .264-.044.441-.154.507s-.264.11-.462.11h-1.959c-.11 0-.22-.044-.286-.11-.088-.088-.132-.198-.132-.309 0-.132-.022-.198-.066-.198-.066-.022-.11-.022-.132-.022-.088.066-.132.088-.154.11-.264.243-.551.441-.881.551s-.682.154-1.056.154c-.77 0-1.408-.242-1.915-.705-.594-.572-.902-1.43-.902-2.574v-8.517c0-.264.066-.44.176-.506s.242-.11.44-.11h1.761c.198 0 .352.044.462.11s.154.242.154.506v7.878c0 .286.088.551.286.749.176.198.418.286.748.286.463 0 .793-.198.947-.616.088-.243.132-.573.132-1.013v-7.284c0-.264.066-.44.176-.506s.242-.11.44-.11h1.761c.198 0 .352.044.462.11s.154.242.154.506z"/><path d="m315.969 9.102v-1.936c0-.11.044-.22.154-.33s.22-.154.33-.154h4.379c.331 0 .485.154.485.484v4.269c0 1.079-.22 1.981-.661 2.663-.748 1.166-2.068 1.739-3.961 1.739-1.518 0-2.663-.286-3.433-.837-1.21-.88-1.805-2.486-1.805-4.819v-4.644c0-2.288.705-3.851 2.135-4.687.858-.506 2.113-.77 3.719-.77 1.431 0 2.377.11 2.839.352.264.132.396.352.396.682v1.87c0 .199 0 .309-.022.353-.066.154-.176.22-.374.22-.418-.11-.858-.198-1.32-.264-.462-.088-.947-.132-1.431-.132-1.166 0-1.958.352-2.332 1.034-.243.418-.353 1.122-.353 2.113v3.125c0 1.122.066 1.87.177 2.288.242.837.748 1.255 1.562 1.255.594 0 1.012-.198 1.276-.594.221-.331.331-.793.331-1.365v-1.012c0-.11-.022-.22-.066-.308s-.155-.132-.353-.132h-1.21c-.308 0-.462-.154-.462-.463z"/><path d="m322.834 11.413v-3.741c0-1.188.22-2.135.682-2.839.682-1.056 1.849-1.584 3.499-1.584 1.651 0 2.817.528 3.499 1.584.462.704.682 1.651.682 2.839v3.741c0 1.189-.22 2.135-.682 2.839-.682 1.056-1.848 1.585-3.499 1.585-1.65 0-2.817-.529-3.499-1.585-.462-.704-.682-1.65-.682-2.839zm2.993-4.247v4.753c0 .551.132.925.374 1.167.198.198.484.286.814.286s.594-.088.792-.286c.264-.242.396-.638.396-1.167v-4.753c0-.55-.11-.924-.33-1.123-.242-.22-.528-.33-.858-.33s-.594.088-.792.286c-.264.243-.396.639-.396 1.167z"/><path d="m333.55 1.224 2.179-.704c.088-.022.154-.044.22-.044.176 0 .264.132.264.374v2.465c0 .198.088.286.286.286h.858c.198 0 .353.044.463.11s.154.242.154.506v1.034c0 .264-.044.44-.154.506s-.265.11-.463.11h-.902c-.154 0-.242.088-.242.242v5.986c0 .419.066.727.198.903.11.176.374.264.748.264.154 0 .286 0 .374-.022.089-.022.177-.044.287-.044.176 0 .264.11.264.33v1.672c0 .243-.088.397-.286.507-.199.088-.595.132-1.233.132-1.188 0-2.047-.22-2.553-.639-.528-.44-.792-1.188-.792-2.222v-6.823c0-.11-.022-.198-.088-.22s-.132-.044-.198-.066h-.352c-.154 0-.286-.044-.352-.11s-.11-.242-.11-.506v-1.034c0-.264.044-.44.11-.506s.198-.11.352-.11h.44c.132-.044.198-.132.198-.286v-1.629c0-.242.11-.396.33-.462z"/></g><path d="m.051 180.933h470.83" fill="none"/><path d="m.051 180.933h470.83" fill="none" stroke="#000" stroke-width=".46"/><path d="m.051 175.974h470.83" fill="none"/><path d="m.051 175.974h470.83" fill="none" stroke="#000" stroke-width=".46"/><path d="m.051 171.015h470.83" fill="none"/><path d="m.051 171.015h470.83" fill="none" stroke="#000" stroke-width=".46"/><path d="m.051 166.055h470.83" fill="none"/><path d="m.051 166.055h470.83" fill="none" stroke="#000" stroke-width=".46"/><path d="m.051 161.096h470.83" fill="none"/><path d="m.051 161.096h470.83" fill="none" stroke="#000" stroke-width=".46"/><path d="m14.145 180.275.754 3.67c.04.218.06.416.06.615 0 1.944-1.984 3.57-4.126 3.57-.655 0-1.29-.158-1.885-.456 1.528-.159 2.678-1.091 2.678-2.46 0-1.21-.992-2.479-2.261-2.479-1.449 0-2.44 1.11-2.44 2.559 0 2.023 1.646 3.352 3.63 3.352 2.658 0 4.92-1.726 4.92-4.205 0-.556-.873-4.484-.853-4.345 2.122-1.031 3.57-2.856 3.57-4.781 0-2.638-2.122-4.661-4.761-4.661-.039 0-.317.019-.793.059l-.873-4.186c2.956-2.499 4.305-5.157 4.305-8.074 0-2.241-.893-4.622-2.698-7.121-2.043 1.646-3.214 4.939-3.214 8.451 0 1.249.159 2.459.437 3.61-4.523 3.789-6.785 7.28-6.785 10.474 0 3.749 3.868 6.864 8.074 6.864.932 0 1.627-.139 2.261-.456zm-.059-26.067c.655.675.992 1.468.992 2.401 0 1.924-1.369 4.086-4.047 6.467-.139-.576-.179-1.21-.179-1.905 0-3.332 1.23-7.002 2.877-7.002.139 0 .258.019.357.039zm.417 25.253-1.409-6.625c.278-.02.436-.04.496-.04 1.706 0 2.896 1.607 2.896 3.253 0 1.31-.694 2.46-1.983 3.412zm-1.905-6.546 1.428 6.824c-.694.377-1.468.536-2.4.536-3.214 0-5.991-2.401-5.991-5.317 0-2.638 1.964-5.356 5.674-8.133l.833 3.967c-2.063.437-3.809 2.183-3.809 4.146 0 1.667 1.19 2.837 2.976 3.115-1.091-.675-1.627-1.528-1.627-2.539 0-1.369 1.27-2.381 2.916-2.599z" fill-rule="nonzero"/><path d="m210.669 166.012h5.574v2.38h-5.574z" fill-rule="nonzero"/><path d="m434.461 166.012h5.574v2.38h-5.574z" fill-rule="nonzero"/><path d="m.051 245.405h470.83" fill="none"/><path d="m.051 245.405h470.83" fill="none" stroke="#000" stroke-width=".46"/><path d="m.051 240.446h470.83" fill="none"/><path d="m.051 240.446h470.83" fill="none" stroke="#000" stroke-width=".46"/><path d="m.051 235.486h470.83" fill="none"/><path d="m.051 235.486h470.83" fill="none" stroke="#000" stroke-width=".46"/><path d="m.051 230.527h470.83" fill="none"/><path d="m.051 230.527h470.83" fill="none" stroke="#000" stroke-width=".46"/><path d="m.051 225.568h470.83" fill="none"/><path d="m.051 225.568h470.83" fill="none" stroke="#000" stroke-width=".46"/><path d="m14.145 244.747.754 3.669c.04.219.06.417.06.615 0 1.944-1.984 3.571-4.126 3.571-.655 0-1.29-.159-1.885-.456 1.528-.159 2.678-1.091 2.678-2.46 0-1.21-.992-2.48-2.261-2.48-1.449 0-2.44 1.111-2.44 2.559 0 2.024 1.646 3.353 3.63 3.353 2.658 0 4.92-1.726 4.92-4.206 0-.555-.873-4.483-.853-4.344 2.122-1.032 3.57-2.857 3.57-4.781 0-2.638-2.122-4.662-4.761-4.662-.039 0-.317.02-.793.06l-.873-4.186c2.956-2.499 4.305-5.158 4.305-8.074 0-2.241-.893-4.622-2.698-7.121-2.043 1.646-3.214 4.939-3.214 8.45 0 1.25.159 2.46.437 3.611-4.523 3.789-6.785 7.28-6.785 10.474 0 3.749 3.868 6.864 8.074 6.864.932 0 1.627-.139 2.261-.456zm-.059-26.067c.655.675.992 1.468.992 2.4 0 1.925-1.369 4.087-4.047 6.467-.139-.575-.179-1.21-.179-1.904 0-3.333 1.23-7.003 2.877-7.003.139 0 .258.02.357.04zm.417 25.253-1.409-6.626c.278-.019.436-.039.496-.039 1.706 0 2.896 1.607 2.896 3.253 0 1.309-.694 2.46-1.983 3.412zm-1.905-6.546 1.428 6.824c-.694.377-1.468.536-2.4.536-3.214 0-5.991-2.401-5.991-5.317 0-2.638 1.964-5.356 5.674-8.133l.833 3.967c-2.063.437-3.809 2.182-3.809 4.146 0 1.667 1.19 2.837 2.976 3.115-1.091-.675-1.627-1.528-1.627-2.539 0-1.369 1.27-2.381 2.916-2.599z" fill-rule="nonzero"/><path d="m211.909 230.483h5.574v2.381h-5.574z" fill-rule="nonzero"/><path d="m426.402 230.483h5.574v2.381h-5.574z" fill-rule="nonzero"/><path d="m.051 322.74h470.83" fill="none"/><path d="m.051 322.74h470.83" fill="none" stroke="#000" stroke-width=".46"/><path d="m.051 317.936h470.83" fill="none"/><path d="m.051 317.936h470.83" fill="none" stroke="#000" stroke-width=".46"/><path d="m.051 312.976h470.83" fill="none"/><path d="m.051 312.976h470.83" fill="none" stroke="#000" stroke-width=".46"/><path d="m.051 308.017h470.83" fill="none"/><path d="m.051 308.017h470.83" fill="none" stroke="#000" stroke-width=".46"/><path d="m.051 303.058h470.83" fill="none"/><path d="m.051 303.058h470.83" fill="none" stroke="#000" stroke-width=".46"/><path d="m14.145 322.237.754 3.67c.04.218.06.416.06.615 0 1.944-1.984 3.57-4.126 3.57-.655 0-1.29-.158-1.885-.456 1.528-.159 2.678-1.091 2.678-2.46 0-1.21-.992-2.479-2.261-2.479-1.449 0-2.44 1.11-2.44 2.559 0 2.023 1.646 3.352 3.63 3.352 2.658 0 4.92-1.726 4.92-4.205 0-.556-.873-4.484-.853-4.345 2.122-1.031 3.57-2.856 3.57-4.781 0-2.638-2.122-4.661-4.761-4.661-.039 0-.317.019-.793.059l-.873-4.186c2.956-2.499 4.305-5.157 4.305-8.074 0-2.241-.893-4.622-2.698-7.121-2.043 1.646-3.214 4.939-3.214 8.451 0 1.249.159 2.459.437 3.61-4.523 3.789-6.785 7.28-6.785 10.474 0 3.749 3.868 6.864 8.074 6.864.932 0 1.627-.139 2.261-.456zm-.059-26.067c.655.675.992 1.468.992 2.401 0 1.924-1.369 4.086-4.047 6.467-.139-.576-.179-1.211-.179-1.905 0-3.333 1.23-7.002 2.877-7.002.139 0 .258.019.357.039zm.417 25.253-1.409-6.625c.278-.02.436-.04.496-.04 1.706 0 2.896 1.607 2.896 3.253 0 1.31-.694 2.46-1.983 3.412zm-1.905-6.546 1.428 6.824c-.694.377-1.468.536-2.4.536-3.214 0-5.991-2.401-5.991-5.317 0-2.638 1.964-5.356 5.674-8.133l.833 3.967c-2.063.437-3.809 2.182-3.809 4.146 0 1.667 1.19 2.837 2.976 3.115-1.091-.675-1.627-1.528-1.627-2.539 0-1.369 1.27-2.381 2.916-2.599z" fill-rule="nonzero"/><path d="m132.559 303.058 30.531 4.959v-2.48l-30.531-4.959z"/><path d="m132.559 299.338 30.531 4.96v-2.48l-30.531-4.959z"/><path d="m229.887 304.298 12.398-1.24v-2.48l-12.398 1.24z"/><path d="m229.887 300.578 22.627-2.48v-2.479l-22.627 2.479z"/><path d="m333.569 303.058 30.376 4.959v-2.48l-30.376-4.959z"/><path d="m333.569 299.338 30.376 4.96v-2.48l-30.376-4.959z"/><path d="m430.896 304.298 12.399-1.24v-2.48l-12.399 1.24z"/><path d="m430.896 300.578 22.472-2.48v-2.479l-22.472 2.479z"/><path d="m227.407 325.22c2.015 1.705 8.834 1.705 10.849 0" fill="none" stroke="#000" stroke-width=".31"/><path d="m227.407 325.22c2.015.93 8.834.93 10.849 0-2.015 2.48-8.834 2.48-10.849 0z"/><path d="m227.407 325.22c2.015.93 8.834.93 10.849 0-2.015 2.48-8.834 2.48-10.849 0z" fill="none" stroke="#000" stroke-width=".15"/><path d="m428.417 325.22c2.014 1.705 8.833 1.705 10.848 0" fill="none" stroke="#000" stroke-width=".31"/><path d="m428.417 325.22c2.014.93 8.833.93 10.848 0-2.015 2.48-8.834 2.48-10.848 0z"/><path d="m428.417 325.22c2.014.93 8.833.93 10.848 0-2.015 2.48-8.834 2.48-10.848 0z" fill="none" stroke="#000" stroke-width=".15"/><path d="m.051 400.23h470.83" fill="none"/><path d="m.051 400.23h470.83" fill="none" stroke="#000" stroke-width=".46"/><path d="m.051 395.271h470.83" fill="none"/><path d="m.051 395.271h470.83" fill="none" stroke="#000" stroke-width=".46"/><path d="m.051 390.312h470.83" fill="none"/><path d="m.051 390.312h470.83" fill="none" stroke="#000" stroke-width=".46"/><path d="m.051 385.352h470.83" fill="none"/><path d="m.051 385.352h470.83" fill="none" stroke="#000" stroke-width=".46"/><path d="m.051 380.393h470.83" fill="none"/><path d="m.051 380.393h470.83" fill="none" stroke="#000" stroke-width=".46"/><path d="m14.145 399.572.754 3.67c.04.218.06.416.06.615 0 1.944-1.984 3.571-4.126 3.571-.655 0-1.29-.159-1.885-.457 1.528-.158 2.678-1.091 2.678-2.46 0-1.21-.992-2.479-2.261-2.479-1.449 0-2.44 1.111-2.44 2.559 0 2.023 1.646 3.352 3.63 3.352 2.658 0 4.92-1.726 4.92-4.205 0-.556-.873-4.484-.853-4.345 2.122-1.031 3.57-2.856 3.57-4.781 0-2.638-2.122-4.661-4.761-4.661-.039 0-.317.02-.793.059l-.873-4.186c2.956-2.499 4.305-5.157 4.305-8.073 0-2.242-.893-4.622-2.698-7.122-2.043 1.646-3.214 4.94-3.214 8.451 0 1.25.159 2.46.437 3.61-4.523 3.789-6.785 7.281-6.785 10.474 0 3.75 3.868 6.864 8.074 6.864.932 0 1.627-.139 2.261-.456zm-.059-26.067c.655.675.992 1.468.992 2.401 0 1.924-1.369 4.086-4.047 6.467-.139-.576-.179-1.21-.179-1.905 0-3.332 1.23-7.002 2.877-7.002.139 0 .258.02.357.039zm.417 25.254-1.409-6.626c.278-.02.436-.04.496-.04 1.706 0 2.896 1.607 2.896 3.253 0 1.31-.694 2.46-1.983 3.413zm-1.905-6.547 1.428 6.824c-.694.377-1.468.536-2.4.536-3.214 0-5.991-2.4-5.991-5.317 0-2.638 1.964-5.356 5.674-8.133l.833 3.968c-2.063.436-3.809 2.182-3.809 4.146 0 1.666 1.19 2.836 2.976 3.114-1.091-.674-1.627-1.527-1.627-2.539 0-1.369 1.27-2.381 2.916-2.599z" fill-rule="nonzero"/><path d="m56.805 382.861c0 .397.337.754.773.754.437 0 .774-.357.774-.754 0-.436-.337-.773-.774-.773-.436 0-.773.337-.773.773z" fill-rule="nonzero"/><path d="m38.021 402.71 6.199-.775v-2.48l-6.199.775z"/><path d="m69.482 398.526 6.199-.775v-2.48l-6.199.775z"/><path d="m38.021 406.43 37.66-4.96v-2.479l-37.66 4.959z"/><path d="m140.494 377.902c0 .397.337.754.774.754.436 0 .773-.357.773-.754 0-.437-.337-.774-.773-.774-.437 0-.774.337-.774.774z" fill-rule="nonzero"/><path d="m105.283 398.991h16.427v2.479h-16.427z"/><path d="m105.283 402.71h32.7v2.48h-32.7z"/><path d="m234.381 377.319h6.844v1.171h-6.844z" fill-rule="nonzero"/><path d="m258.434 374.802c0 .397.337.754.774.754.436 0 .773-.357.773-.754 0-.436-.337-.773-.773-.773-.437 0-.774.337-.774.773z" fill-rule="nonzero"/><path d="m218.263 401.47 6.199-.775v-2.479l-6.199.775z"/><path d="m249.724 397.286 6.199-.775v-2.48l-6.199.775z"/><path d="m218.263 405.19 37.66-4.96v-2.479l-37.66 4.959z"/><path d="m295.908 402.71 32.701-1.24v-2.479l-32.701 1.239z"/><path d="m295.908 406.43 32.701-1.24v-2.48l-32.701 1.24z"/><path d="m347.393 382.861c0 .397.337.754.773.754.437 0 .774-.357.774-.754 0-.436-.337-.773-.774-.773-.436 0-.773.337-.773.773z" fill-rule="nonzero"/><path d="m435.887 382.861c0 .397.337.754.773.754.437 0 .774-.357.774-.754 0-.436-.337-.773-.774-.773-.436 0-.773.337-.773.773z" fill-rule="nonzero"/><path d="m417.103 402.71 6.199-.775v-2.48l-6.199.775z"/><path d="m448.564 398.526 6.199-.775v-2.48l-6.199.775z"/><path d="m417.103 406.43 37.66-4.96v-2.479l-37.66 4.959z"/><path d="m.051 464.702h470.83" fill="none"/><path d="m.051 464.702h470.83" fill="none" stroke="#000" stroke-width=".46"/><path d="m.051 459.743h470.83" fill="none"/><path d="m.051 459.743h470.83" fill="none" stroke="#000" stroke-width=".46"/><path d="m.051 454.783h470.83" fill="none"/><path d="m.051 454.783h470.83" fill="none" stroke="#000" stroke-width=".46"/><path d="m.051 449.824h470.83" fill="none"/><path d="m.051 449.824h470.83" fill="none" stroke="#000" stroke-width=".46"/><path d="m.051 444.865h470.83" fill="none"/><path d="m.051 444.865h470.83" fill="none" stroke="#000" stroke-width=".46"/><path d="m14.145 464.044.754 3.67c.04.218.06.416.06.615 0 1.944-1.984 3.57-4.126 3.57-.655 0-1.29-.158-1.885-.456 1.528-.159 2.678-1.091 2.678-2.46 0-1.21-.992-2.479-2.261-2.479-1.449 0-2.44 1.11-2.44 2.559 0 2.023 1.646 3.352 3.63 3.352 2.658 0 4.92-1.726 4.92-4.205 0-.556-.873-4.484-.853-4.345 2.122-1.031 3.57-2.856 3.57-4.781 0-2.638-2.122-4.661-4.761-4.661-.039 0-.317.019-.793.059l-.873-4.186c2.956-2.499 4.305-5.157 4.305-8.074 0-2.241-.893-4.622-2.698-7.121-2.043 1.646-3.214 4.939-3.214 8.451 0 1.249.159 2.459.437 3.61-4.523 3.789-6.785 7.28-6.785 10.474 0 3.749 3.868 6.864 8.074 6.864.932 0 1.627-.139 2.261-.456zm-.059-26.067c.655.675.992 1.468.992 2.401 0 1.924-1.369 4.086-4.047 6.467-.139-.576-.179-1.21-.179-1.905 0-3.333 1.23-7.002 2.877-7.002.139 0 .258.019.357.039zm.417 25.253-1.409-6.625c.278-.02.436-.04.496-.04 1.706 0 2.896 1.607 2.896 3.253 0 1.31-.694 2.46-1.983 3.412zm-1.905-6.546 1.428 6.824c-.694.377-1.468.536-2.4.536-3.214 0-5.991-2.401-5.991-5.317 0-2.638 1.964-5.356 5.674-8.133l.833 3.967c-2.063.437-3.809 2.182-3.809 4.146 0 1.667 1.19 2.837 2.976 3.115-1.091-.675-1.627-1.528-1.627-2.539 0-1.369 1.27-2.381 2.916-2.599z" fill-rule="nonzero"/><path d="m74.163 442.374c0 .396.337.754.773.754.437 0 .774-.358.774-.754 0-.437-.337-.774-.774-.774-.436 0-.773.337-.773.774z" fill-rule="nonzero"/><path d="m28.722 463.462h21.543v2.48h-21.543z"/><path d="m28.722 467.182h42.93v2.48h-42.93z"/><path d="m201.246 462.366c0 .397.338.754.774.754s.774-.357.774-.754c0-.436-.338-.773-.774-.773s-.774.337-.774.773z" fill-rule="nonzero"/><path d="m222.789 457.407c0 .397.337.754.773.754.437 0 .774-.357.774-.754 0-.437-.337-.774-.774-.774-.436 0-.773.337-.773.774z" fill-rule="nonzero"/><path d="m244.176 462.366c0 .397.337.754.774.754.436 0 .773-.357.773-.754 0-.436-.337-.773-.773-.773-.437 0-.774.337-.774.773z" fill-rule="nonzero"/><path d="m205.245 439.905h42.929v2.48h-42.929z"/><path d="m205.245 436.186h42.929v2.48h-42.929z"/><path d="m312.66 467.562c-.496 1.11-.972 1.944-1.468 2.479-.476.536-1.051.972-1.706 1.329-.655.338-1.349.556-2.123.615-.754.06-1.765.06-3.015 0-.456.238-.575.417-.536.774.06.179.08.218.377.456 2.143.06 3.928-.297 5.436-1.111 1.507-.813 2.856-2.499 3.412-4.562.238-.417-.139-.437-.377.02z" fill-rule="nonzero"/><path d="m273.157 457.407c0 .397.337.754.774.754.436 0 .774-.357.774-.754 0-.437-.338-.774-.774-.774-.437 0-.774.337-.774.774z" fill-rule="nonzero"/><path d="m294.545 462.366c0 .397.337.754.773.754.437 0 .774-.357.774-.754 0-.436-.337-.773-.774-.773-.436 0-.773.337-.773.773z" fill-rule="nonzero"/><path d="m277.156 442.385 21.387 2.325v-2.48l-21.387-2.325z"/><path d="m277.156 438.666 42.929 4.959v-2.48l-42.929-4.959z"/><path d="m42.361 166.83v16.583" fill="none"/><path d="m42.361 166.83v16.583" fill="none" stroke="#000" stroke-width=".46"/><path d="m44.427 168.59c2.044 0 4.563-1.706 4.563-3.451 0-1.052-.932-1.726-2.261-1.726-2.004 0-4.523 1.666-4.523 3.452 0 1.091.972 1.725 2.221 1.725z" fill-rule="nonzero"/><path d="m42.404 183.35c.178 0 .278 0 .258-.02-.02-.04-.02-.1-.02-.159 0-.06 0-.119.02-.179.615-1.547 1.309-2.936 2.182-4.007.714-.873 1.527-1.666 2.261-2.539.774-.912 1.131-1.984 1.131-2.995 0-.536-.059-1.052-.198-1.587-.258-1.012-1.052-2.956-1.528-2.956-.059 0-.079.059-.079.178 0 .1.04.238.119.377.694 1.29 1.032 2.381 1.032 3.234 0 1.21-.457 2.321-1.31 3.273-.178.179-.754.655-1.726 1.428-1.23.992-1.309 1.012-2.142 1.012z" fill-rule="nonzero"/><path d="m67.019 167.638c-1.29.893-2.202 1.329-2.738 1.329-.119 0-.238-.02-.337-.039.198-.377.297-.734.297-1.032 0-.655-.357-.972-1.071-.972-.734 0-1.389.456-1.389 1.17 0 .853.615 1.27 1.865 1.27.714 0 1.528-.159 2.46-.496l-2.023 4.503c-.814.298-1.349.457-1.607.457-.139 0-.298 0-.437-.02.199-.377.298-.695.298-.992 0-.615-.377-.933-1.111-.933-.754 0-1.488.457-1.488 1.111 0 .913.615 1.369 1.825 1.369.754 0 1.528-.159 2.301-.496l-2.896 6.507h.913z" fill-rule="nonzero"/><path d="m73.357 169.31v16.583" fill="none"/><path d="m73.357 169.31v16.583" fill="none" stroke="#000" stroke-width=".46"/><path d="m75.423 171.07c2.044 0 4.563-1.706 4.563-3.452 0-1.051-.932-1.725-2.261-1.725-2.004 0-4.523 1.666-4.523 3.451 0 1.091.972 1.726 2.221 1.726z" fill-rule="nonzero"/><path d="m79.093 172.776c0-.416-.595-3.313-1.309-3.313-.099 0-.159.06-.159.159 0 .079.04.198.119.377.417.932.615 1.765.615 2.48 0 .853-.297 1.626-.912 2.321-.337.396-2.44 2.301-4.047 2.301v8.728c.179 0 .258 0 .258-.02-.02-.039-.02-.099-.02-.158 0-.06 0-.119.02-.179.536-1.468 1.23-2.817 2.182-4.007.694-.873 1.508-1.647 2.242-2.5.793-.932 1.15-2.003 1.15-3.035 0-.734-.099-1.309-.317-1.745.119-.417.178-.873.178-1.409zm-.535 2.837c0 .893-.357 1.706-1.071 2.48-.159.178-.893.793-2.183 1.884-.496.417-.912.655-1.23.754.477-1.071 1.072-2.063 1.766-2.976.278-.357 2.361-2.023 2.698-2.698.02.258.02.437.02.556z" fill-rule="nonzero"/><path d="m91.942 167.718c-1.012.892-1.964 1.329-2.817 1.329-.119 0-.198-.02-.258-.06.218-.397.317-.734.317-1.031 0-.655-.376-.972-1.13-.972-.655 0-1.369.436-1.369 1.011 0 .972.615 1.448 1.845 1.448.674 0 1.527-.178 2.559-.515l-3.174 6.982h.833z" fill-rule="nonzero"/><path d="m93.969 167.607c-.476 0-.913.416-.913.952 0 .456.457.893.913.893.536 0 .952-.437.952-.893 0-.536-.416-.952-.952-.952z" fill-rule="nonzero"/><path d="m114.271 172.719v-16.583" fill="none"/><path d="m114.271 172.719v-16.583" fill="none" stroke="#000" stroke-width=".46"/><path d="m109.829 176.029c2.043 0 4.563-1.706 4.563-3.451 0-1.052-.933-1.726-2.262-1.726-2.003 0-4.523 1.666-4.523 3.452 0 1.091.972 1.725 2.222 1.725z" fill-rule="nonzero"/><path d="m118.501 171.268c.396 0 .952-1.706.952-2.44v-.099c-.02-.595-.08-1.051-.218-1.388.218-.437.317-1.012.317-1.746 0-1.012-.278-2.063-.873-2.857-.615-.813-1.329-1.507-1.904-2.301-1.131-1.388-1.865-2.737-2.202-3.987-.06-.238-.04-.357-.199-.357h-.059v8.728c.714 0 .893.08 1.904.853 2.103 1.647 2.48 2.083 2.52 3.035 0 .715-.397 2.103-.397 2.401 0 .099.059.158.159.158zm.376-5.356c0 .179 0 .357-.019.556-.338-.675-1.944-2.103-2.103-2.301-.694-.853-1.27-1.845-1.766-2.976 1.012.317 3.016 2.301 3.095 2.4.536.655.793 1.429.793 2.321z" fill-rule="nonzero"/><path d="m126.502 167.718c-1.011.892-1.963 1.329-2.816 1.329-.119 0-.199-.02-.258-.06.218-.397.317-.734.317-1.031 0-.655-.377-.972-1.131-.972-.654 0-1.368.436-1.368 1.011 0 .972.614 1.448 1.844 1.448.675 0 1.528-.178 2.559-.515l-3.174 6.982h.834z" fill-rule="nonzero"/><path d="m128.53 167.607c-.477 0-.913.416-.913.952 0 .456.456.893.913.893.535 0 .952-.437.952-.893 0-.536-.417-.952-.952-.952z" fill-rule="nonzero"/><path d="m142.168 171.789v16.583" fill="none"/><path d="m142.168 171.789v16.583" fill="none" stroke="#000" stroke-width=".46"/><path d="m144.235 173.55c2.043 0 4.562-1.706 4.562-3.452 0-1.051-.932-1.726-2.261-1.726-2.004 0-4.523 1.667-4.523 3.452 0 1.091.972 1.726 2.222 1.726z" fill-rule="nonzero"/><path d="m147.905 175.256c0-.417-.595-3.313-1.31-3.313-.099 0-.158.059-.158.159 0 .079.039.198.119.377.416.932.615 1.765.615 2.479 0 .853-.298 1.627-.913 2.321-.337.397-2.44 2.301-4.047 2.301v8.729c.179 0 .258 0 .258-.02-.02-.04-.02-.099-.02-.159 0-.059 0-.119.02-.178.536-1.468 1.23-2.817 2.182-4.007.695-.873 1.508-1.647 2.242-2.5.793-.932 1.15-2.003 1.15-3.035 0-.734-.099-1.309-.317-1.746.119-.416.179-.873.179-1.408zm-.536 2.837c0 .892-.357 1.706-1.071 2.479-.159.179-.893.794-2.182 1.885-.496.416-.913.654-1.23.754.476-1.072 1.071-2.063 1.765-2.976.278-.357 2.361-2.023 2.698-2.698.02.258.02.437.02.556z" fill-rule="nonzero"/><path d="m155.651 171.789v16.583" fill="none"/><path d="m155.651 171.789v16.583" fill="none" stroke="#000" stroke-width=".46"/><path d="m157.718 173.55c2.043 0 4.563-1.706 4.563-3.452 0-1.051-.933-1.726-2.262-1.726-2.003 0-4.523 1.667-4.523 3.452 0 1.091.972 1.726 2.222 1.726z" fill-rule="nonzero"/><path d="m261.193 182.638v-31.461" fill="none"/><path d="m261.193 182.638v-31.461" fill="none" stroke="#000" stroke-width=".46"/><path d="m256.75 185.948c2.044 0 4.563-1.706 4.563-3.451 0-1.052-.932-1.726-2.261-1.726-2.004 0-4.523 1.666-4.523 3.451 0 1.091.972 1.726 2.221 1.726z" fill-rule="nonzero"/><path d="m256.75 168.59c2.044 0 4.563-1.706 4.563-3.451 0-1.052-.932-1.726-2.261-1.726-2.004 0-4.523 1.666-4.523 3.452 0 1.091.972 1.725 2.221 1.725z" fill-rule="nonzero"/><path d="m261.236 156.093c.992 0 1.329.377 1.905.793 1.606 1.131 2.42 2.381 2.42 3.769v.1c-.04 1.785-.06 1.924-.576 3.074-.079.179-.119.298-.119.377 0 .1.06.159.159.159.199 0 1.21-1.389 1.21-3.928v-.099c0-.853-.238-1.666-.714-2.42-.139-.238-.754-1.052-1.845-2.42-.853-1.091-1.587-2.44-2.182-4.007-.02-.06-.02-.12-.02-.179 0-.06 0-.119.02-.159.02-.02-.079-.02-.258-.02z" fill-rule="nonzero"/><path d="m279.497 167.638c-1.29.893-2.202 1.329-2.738 1.329-.119 0-.238-.02-.337-.039.198-.377.297-.734.297-1.032 0-.655-.357-.972-1.071-.972-.734 0-1.389.456-1.389 1.17 0 .853.615 1.27 1.865 1.27.714 0 1.528-.159 2.46-.496l-2.023 4.503c-.814.298-1.349.457-1.607.457-.139 0-.298 0-.437-.02.199-.377.298-.695.298-.992 0-.615-.377-.933-1.111-.933-.754 0-1.488.457-1.488 1.111 0 .913.615 1.369 1.825 1.369.754 0 1.528-.159 2.301-.496l-2.896 6.507h.913z" fill-rule="nonzero"/><path d="m283.82 185.893h10.539" fill="none"/><path d="m283.82 185.893h10.539" fill="none" stroke="#000" stroke-width=".77"/><path d="m292.344 185.118v-32.701" fill="none"/><path d="m292.344 185.118v-32.701" fill="none" stroke="#000" stroke-width=".46"/><path d="m287.901 188.428c2.044 0 4.563-1.706 4.563-3.452 0-1.051-.932-1.726-2.261-1.726-2.004 0-4.523 1.667-4.523 3.452 0 1.091.972 1.726 2.221 1.726z" fill-rule="nonzero"/><path d="m287.901 171.07c2.044 0 4.563-1.706 4.563-3.452 0-1.051-.932-1.725-2.261-1.725-2.004 0-4.523 1.666-4.523 3.451 0 1.091.972 1.726 2.221 1.726z" fill-rule="nonzero"/><path d="m296.573 167.549c.397 0 .952-1.706.952-2.44v-.099c-.02-.595-.079-1.052-.218-1.389.218-.436.317-1.012.317-1.746 0-1.011-.277-2.063-.873-2.856-.615-.813-1.329-1.508-1.904-2.301-1.131-1.389-1.865-2.738-2.202-3.988-.059-.238-.04-.357-.198-.357h-.06v8.729c.714 0 .893.079 1.905.853 2.102 1.646 2.479 2.083 2.519 3.035 0 .714-.397 2.103-.397 2.4 0 .099.06.159.159.159zm.377-5.356c0 .178 0 .357-.02.555-.337-.674-1.944-2.102-2.103-2.301-.694-.853-1.269-1.845-1.765-2.975 1.011.317 3.015 2.301 3.094 2.4.536.655.794 1.428.794 2.321z" fill-rule="nonzero"/><path d="m304.575 167.718c-1.012.892-1.964 1.329-2.817 1.329-.119 0-.198-.02-.258-.06.218-.397.317-.734.317-1.031 0-.655-.376-.972-1.13-.972-.655 0-1.369.436-1.369 1.011 0 .972.615 1.448 1.845 1.448.674 0 1.527-.178 2.559-.515l-3.174 6.982h.833z" fill-rule="nonzero"/><path d="m306.602 167.607c-.476 0-.913.416-.913.952 0 .456.457.893.913.893.536 0 .952-.437.952-.893 0-.536-.416-.952-.952-.952z" fill-rule="nonzero"/><path d="m318.226 185.893h10.538" fill="none"/><path d="m318.226 185.893h10.538" fill="none" stroke="#000" stroke-width=".77"/><path d="m318.226 190.852h10.538" fill="none"/><path d="m318.226 190.852h10.538" fill="none" stroke="#000" stroke-width=".77"/><path d="m326.749 190.077v-33.941" fill="none"/><path d="m326.749 190.077v-33.941" fill="none" stroke="#000" stroke-width=".46"/><path d="m322.307 193.387c2.043 0 4.563-1.706 4.563-3.451 0-1.052-.933-1.726-2.262-1.726-2.003 0-4.523 1.666-4.523 3.451 0 1.091.972 1.726 2.222 1.726z" fill-rule="nonzero"/><path d="m322.307 176.029c2.043 0 4.563-1.706 4.563-3.451 0-1.052-.933-1.726-2.262-1.726-2.003 0-4.523 1.666-4.523 3.452 0 1.091.972 1.725 2.222 1.725z" fill-rule="nonzero"/><path d="m330.979 171.268c.396 0 .952-1.706.952-2.44v-.099c-.02-.595-.08-1.051-.218-1.388.218-.437.317-1.012.317-1.746 0-1.012-.278-2.063-.873-2.857-.615-.813-1.329-1.507-1.904-2.301-1.131-1.388-1.865-2.737-2.202-3.987-.06-.238-.04-.357-.199-.357h-.059v8.728c.714 0 .893.08 1.904.853 2.103 1.647 2.48 2.083 2.52 3.035 0 .715-.397 2.103-.397 2.401 0 .099.059.158.159.158zm.376-5.356c0 .179 0 .357-.019.556-.338-.675-1.944-2.103-2.103-2.301-.694-.853-1.27-1.845-1.766-2.976 1.012.317 3.016 2.301 3.095 2.4.536.655.793 1.429.793 2.321z" fill-rule="nonzero"/><path d="m338.98 167.718c-1.011.892-1.963 1.329-2.816 1.329-.119 0-.199-.02-.258-.06.218-.397.317-.734.317-1.031 0-.655-.377-.972-1.131-.972-.654 0-1.368.436-1.368 1.011 0 .972.615 1.448 1.844 1.448.675 0 1.528-.178 2.559-.515l-3.174 6.982h.834z" fill-rule="nonzero"/><path d="m341.008 167.607c-.476 0-.913.416-.913.952 0 .456.456.893.913.893.535 0 .952-.437.952-.893 0-.536-.417-.952-.952-.952z" fill-rule="nonzero"/><path d="m352.786 185.893h10.539" fill="none"/><path d="m352.786 185.893h10.539" fill="none" stroke="#000" stroke-width=".77"/><path d="m361.31 185.118v-31.461" fill="none"/><path d="m361.31 185.118v-31.461" fill="none" stroke="#000" stroke-width=".46"/><path d="m356.868 188.428c2.043 0 4.562-1.706 4.562-3.452 0-1.051-.932-1.726-2.261-1.726-2.004 0-4.523 1.667-4.523 3.452 0 1.091.972 1.726 2.222 1.726z" fill-rule="nonzero"/><path d="m356.868 180.989c2.043 0 4.562-1.706 4.562-3.452 0-1.051-.932-1.726-2.261-1.726-2.004 0-4.523 1.667-4.523 3.452 0 1.091.972 1.726 2.222 1.726z" fill-rule="nonzero"/><path d="m356.868 176.029c2.043 0 4.562-1.706 4.562-3.451 0-1.052-.932-1.726-2.261-1.726-2.004 0-4.523 1.666-4.523 3.452 0 1.091.972 1.725 2.222 1.725z" fill-rule="nonzero"/><path d="m363.222 173.55c2.043 0 4.562-1.706 4.562-3.452 0-1.051-.932-1.726-2.261-1.726-2.004 0-4.523 1.667-4.523 3.452 0 1.091.972 1.726 2.222 1.726z" fill-rule="nonzero"/><path d="m365.539 168.789c.397 0 .952-1.706.952-2.44v-.099c-.019-.596-.079-1.052-.218-1.389.218-.436.318-1.012.318-1.746 0-1.011-.278-2.063-.873-2.856-.615-.814-1.329-1.508-1.905-2.301-1.13-1.389-1.864-2.738-2.202-3.988-.059-.238-.039-.357-.198-.357h-.06v8.729c.715 0 .893.079 1.905.853 2.103 1.646 2.48 2.083 2.519 3.035 0 .714-.397 2.103-.397 2.4 0 .099.06.159.159.159zm.377-5.356c0 .178 0 .357-.02.555-.337-.674-1.944-2.103-2.103-2.301-.694-.853-1.269-1.845-1.765-2.976 1.012.318 3.015 2.301 3.095 2.401.535.654.793 1.428.793 2.321z" fill-rule="nonzero"/><path d="m377.428 185.893h10.539" fill="none"/><path d="m377.428 185.893h10.539" fill="none" stroke="#000" stroke-width=".77"/><path d="m385.952 185.118v-31.461" fill="none"/><path d="m385.952 185.118v-31.461" fill="none" stroke="#000" stroke-width=".46"/><path d="m381.51 188.428c2.043 0 4.562-1.706 4.562-3.452 0-1.051-.932-1.726-2.261-1.726-2.004 0-4.523 1.667-4.523 3.452 0 1.091.972 1.726 2.222 1.726z" fill-rule="nonzero"/><path d="m381.51 180.989c2.043 0 4.562-1.706 4.562-3.452 0-1.051-.932-1.726-2.261-1.726-2.004 0-4.523 1.667-4.523 3.452 0 1.091.972 1.726 2.222 1.726z" fill-rule="nonzero"/><path d="m381.51 176.029c2.043 0 4.562-1.706 4.562-3.451 0-1.052-.932-1.726-2.261-1.726-2.004 0-4.523 1.666-4.523 3.452 0 1.091.972 1.725 2.222 1.725z" fill-rule="nonzero"/><path d="m387.864 173.55c2.043 0 4.562-1.706 4.562-3.452 0-1.051-.932-1.726-2.261-1.726-2.004 0-4.523 1.667-4.523 3.452 0 1.091.972 1.726 2.222 1.726z" fill-rule="nonzero"/><path d="m41.741 231.302v16.583" fill="none"/><path d="m41.741 231.302v16.583" fill="none" stroke="#000" stroke-width=".46"/><path d="m43.807 233.062c2.044 0 4.563-1.706 4.563-3.451 0-1.052-.932-1.726-2.261-1.726-2.004 0-4.523 1.666-4.523 3.451 0 1.091.972 1.726 2.221 1.726z" fill-rule="nonzero"/><path d="m41.784 247.821c.179 0 .278 0 .258-.02-.02-.039-.02-.099-.02-.158 0-.06 0-.119.02-.179.615-1.547 1.309-2.936 2.182-4.007.714-.873 1.528-1.666 2.262-2.539.773-.913 1.13-1.984 1.13-2.996 0-.535-.059-1.051-.198-1.587-.258-1.011-1.052-2.955-1.528-2.955-.059 0-.079.059-.079.178 0 .099.04.238.119.377.694 1.29 1.032 2.381 1.032 3.234 0 1.21-.457 2.321-1.31 3.273-.178.178-.753.654-1.726 1.428-1.229.992-1.309 1.012-2.142 1.012z" fill-rule="nonzero"/><path d="m66.709 232.11c-1.29.893-2.202 1.329-2.738 1.329-.119 0-.238-.02-.337-.04.198-.376.297-.734.297-1.031 0-.655-.357-.972-1.071-.972-.734 0-1.389.456-1.389 1.17 0 .853.615 1.27 1.865 1.27.714 0 1.528-.159 2.46-.496l-2.023 4.503c-.814.298-1.349.456-1.607.456-.139 0-.298 0-.437-.019.199-.377.298-.695.298-.992 0-.615-.377-.933-1.111-.933-.754 0-1.488.457-1.488 1.111 0 .913.615 1.369 1.825 1.369.754 0 1.528-.159 2.301-.496l-2.896 6.507h.913z" fill-rule="nonzero"/><path d="m73.202 233.782v16.582" fill="none"/><path d="m73.202 233.782v16.582" fill="none" stroke="#000" stroke-width=".46"/><path d="m75.268 235.542c2.044 0 4.563-1.706 4.563-3.452 0-1.051-.932-1.726-2.261-1.726-2.004 0-4.523 1.667-4.523 3.452 0 1.091.972 1.726 2.221 1.726z" fill-rule="nonzero"/><path d="m78.938 237.248c0-.417-.595-3.313-1.309-3.313-.099 0-.159.06-.159.159 0 .079.04.198.119.377.417.932.615 1.765.615 2.479 0 .853-.297 1.627-.912 2.321-.337.397-2.44 2.302-4.047 2.302v8.728c.179 0 .258 0 .258-.02-.02-.039-.02-.099-.02-.159 0-.059 0-.119.02-.178.536-1.468 1.23-2.817 2.182-4.007.694-.873 1.508-1.647 2.242-2.5.793-.932 1.15-2.003 1.15-3.035 0-.734-.099-1.309-.317-1.746.119-.416.178-.872.178-1.408zm-.535 2.837c0 .892-.357 1.706-1.071 2.479-.159.179-.893.794-2.183 1.885-.496.417-.912.655-1.23.754.477-1.071 1.072-2.063 1.766-2.976.278-.357 2.361-2.023 2.698-2.698.02.258.02.437.02.556z" fill-rule="nonzero"/><path d="m91.942 232.189c-1.012.893-1.964 1.33-2.817 1.33-.119 0-.198-.02-.258-.06.218-.397.317-.734.317-1.032 0-.654-.376-.972-1.13-.972-.655 0-1.369.437-1.369 1.012 0 .972.615 1.448 1.845 1.448.674 0 1.527-.178 2.559-.516l-3.174 6.983h.833z" fill-rule="nonzero"/><path d="m93.969 232.079c-.476 0-.913.416-.913.952 0 .456.457.893.913.893.536 0 .952-.437.952-.893 0-.536-.416-.952-.952-.952z" fill-rule="nonzero"/><path d="m114.426 237.191v-16.583" fill="none"/><path d="m114.426 237.191v-16.583" fill="none" stroke="#000" stroke-width=".46"/><path d="m109.984 240.501c2.043 0 4.563-1.706 4.563-3.451 0-1.052-.933-1.726-2.262-1.726-2.003 0-4.523 1.666-4.523 3.451 0 1.092.972 1.726 2.222 1.726z" fill-rule="nonzero"/><path d="m118.655 235.74c.397 0 .953-1.706.953-2.44v-.099c-.02-.595-.08-1.051-.219-1.389.219-.436.318-1.011.318-1.745 0-1.012-.278-2.063-.873-2.857-.615-.813-1.329-1.507-1.904-2.301-1.131-1.389-1.865-2.738-2.202-3.987-.06-.238-.04-.357-.199-.357h-.059v8.728c.714 0 .892.079 1.904.853 2.103 1.647 2.48 2.083 2.52 3.035 0 .714-.397 2.103-.397 2.401 0 .099.059.158.158.158zm.377-5.356c0 .179 0 .357-.019.556-.338-.675-1.945-2.103-2.103-2.302-.695-.853-1.27-1.844-1.766-2.975 1.012.317 3.016 2.301 3.095 2.4.536.655.793 1.429.793 2.321z" fill-rule="nonzero"/><path d="m126.657 232.189c-1.011.893-1.963 1.33-2.816 1.33-.12 0-.199-.02-.258-.06.218-.397.317-.734.317-1.032 0-.654-.377-.972-1.131-.972-.654 0-1.368.437-1.368 1.012 0 .972.614 1.448 1.844 1.448.675 0 1.528-.178 2.559-.516l-3.174 6.983h.834z" fill-rule="nonzero"/><path d="m128.685 232.079c-.477 0-.913.416-.913.952 0 .456.456.893.913.893.535 0 .952-.437.952-.893 0-.536-.417-.952-.952-.952z" fill-rule="nonzero"/><path d="m142.633 236.261v16.583" fill="none"/><path d="m142.633 236.261v16.583" fill="none" stroke="#000" stroke-width=".46"/><path d="m144.7 238.022c2.043 0 4.562-1.706 4.562-3.452 0-1.051-.932-1.726-2.261-1.726-2.004 0-4.523 1.666-4.523 3.452 0 1.091.972 1.726 2.222 1.726z" fill-rule="nonzero"/><path d="m148.37 239.728c0-.417-.596-3.313-1.31-3.313-.099 0-.158.059-.158.158 0 .08.039.199.119.377.416.933.615 1.766.615 2.48 0 .853-.298 1.627-.913 2.321-.337.397-2.44 2.301-4.047 2.301v8.729c.179 0 .258 0 .258-.02-.02-.04-.02-.099-.02-.159 0-.059 0-.119.02-.178.536-1.468 1.23-2.817 2.182-4.008.695-.872 1.508-1.646 2.242-2.499.793-.932 1.15-2.004 1.15-3.035 0-.734-.099-1.309-.317-1.746.119-.416.179-.873.179-1.408zm-.536 2.836c0 .893-.357 1.706-1.071 2.48-.159.179-.893.794-2.182 1.885-.496.416-.913.654-1.23.753.476-1.071 1.071-2.063 1.765-2.975.278-.357 2.361-2.024 2.698-2.698.02.258.02.436.02.555z" fill-rule="nonzero"/><path d="m156.116 236.261v16.583" fill="none"/><path d="m156.116 236.261v16.583" fill="none" stroke="#000" stroke-width=".46"/><path d="m158.183 238.022c2.043 0 4.563-1.706 4.563-3.452 0-1.051-.933-1.726-2.262-1.726-2.004 0-4.523 1.666-4.523 3.452 0 1.091.972 1.726 2.222 1.726z" fill-rule="nonzero"/><path d="m256.388 231.302v16.583" fill="none"/><path d="m256.388 231.302v16.583" fill="none" stroke="#000" stroke-width=".46"/><path d="m258.455 233.062c2.043 0 4.563-1.706 4.563-3.451 0-1.052-.933-1.726-2.262-1.726-2.003 0-4.523 1.666-4.523 3.451 0 1.091.972 1.726 2.222 1.726z" fill-rule="nonzero"/><path d="m256.432 247.821c.178 0 .277 0 .258-.02-.02-.039-.02-.099-.02-.158 0-.06 0-.119.02-.179.615-1.547 1.309-2.936 2.182-4.007.714-.873 1.527-1.666 2.261-2.539.774-.913 1.131-1.984 1.131-2.996 0-.535-.06-1.051-.198-1.587-.258-1.011-1.052-2.955-1.528-2.955-.059 0-.079.059-.079.178 0 .099.039.238.119.377.694 1.29 1.031 2.381 1.031 3.234 0 1.21-.456 2.321-1.309 3.273-.178.178-.754.654-1.726 1.428-1.23.992-1.309 1.012-2.142 1.012z" fill-rule="nonzero"/><path d="m281.201 232.11c-1.289.893-2.202 1.329-2.737 1.329-.119 0-.238-.02-.337-.04.198-.376.297-.734.297-1.031 0-.655-.357-.972-1.071-.972-.734 0-1.389.456-1.389 1.17 0 .853.615 1.27 1.865 1.27.714 0 1.527-.159 2.46-.496l-2.024 4.503c-.813.298-1.349.456-1.606.456-.139 0-.298 0-.437-.019.199-.377.298-.695.298-.992 0-.615-.377-.933-1.111-.933-.754 0-1.488.457-1.488 1.111 0 .913.615 1.369 1.825 1.369.754 0 1.528-.159 2.301-.496l-2.896 6.507h.912z" fill-rule="nonzero"/><path d="m287.694 233.782v16.582" fill="none"/><path d="m287.694 233.782v16.582" fill="none" stroke="#000" stroke-width=".46"/><path d="m289.761 235.542c2.043 0 4.563-1.706 4.563-3.452 0-1.051-.933-1.726-2.262-1.726-2.003 0-4.523 1.667-4.523 3.452 0 1.091.972 1.726 2.222 1.726z" fill-rule="nonzero"/><path d="m293.431 237.248c0-.417-.595-3.313-1.309-3.313-.099 0-.159.06-.159.159 0 .079.04.198.119.377.417.932.615 1.765.615 2.479 0 .853-.297 1.627-.912 2.321-.338.397-2.44 2.302-4.047 2.302v8.728c.178 0 .258 0 .258-.02-.02-.039-.02-.099-.02-.159 0-.059 0-.119.02-.178.535-1.468 1.23-2.817 2.182-4.007.694-.873 1.507-1.647 2.241-2.5.794-.932 1.151-2.003 1.151-3.035 0-.734-.099-1.309-.317-1.746.119-.416.178-.872.178-1.408zm-.535 2.837c0 .892-.358 1.706-1.072 2.479-.158.179-.892.794-2.182 1.885-.496.417-.912.655-1.23.754.476-1.071 1.071-2.063 1.766-2.976.278-.357 2.36-2.023 2.698-2.698.02.258.02.437.02.556z" fill-rule="nonzero"/><path d="m306.435 232.189c-1.012.893-1.964 1.33-2.817 1.33-.119 0-.199-.02-.258-.06.218-.397.317-.734.317-1.032 0-.654-.377-.972-1.131-.972-.654 0-1.368.437-1.368 1.012 0 .972.615 1.448 1.845 1.448.674 0 1.527-.178 2.559-.516l-3.174 6.983h.833z" fill-rule="nonzero"/><path d="m308.462 232.079c-.476 0-.913.416-.913.952 0 .456.457.893.913.893.535 0 .952-.437.952-.893 0-.536-.417-.952-.952-.952z" fill-rule="nonzero"/><path d="m328.919 237.191v-16.583" fill="none"/><path d="m328.919 237.191v-16.583" fill="none" stroke="#000" stroke-width=".46"/><path d="m324.477 240.501c2.043 0 4.562-1.706 4.562-3.451 0-1.052-.932-1.726-2.261-1.726-2.004 0-4.523 1.666-4.523 3.451 0 1.092.972 1.726 2.222 1.726z" fill-rule="nonzero"/><path d="m333.148 235.74c.397 0 .952-1.706.952-2.44v-.099c-.019-.595-.079-1.051-.218-1.389.218-.436.318-1.011.318-1.745 0-1.012-.278-2.063-.873-2.857-.615-.813-1.329-1.507-1.905-2.301-1.13-1.389-1.864-2.738-2.202-3.987-.059-.238-.039-.357-.198-.357h-.059v8.728c.714 0 .892.079 1.904.853 2.103 1.647 2.48 2.083 2.519 3.035 0 .714-.396 2.103-.396 2.401 0 .099.059.158.158.158zm.377-5.356c0 .179 0 .357-.02.556-.337-.675-1.944-2.103-2.102-2.302-.695-.853-1.27-1.844-1.766-2.975 1.012.317 3.015 2.301 3.095 2.4.535.655.793 1.429.793 2.321z" fill-rule="nonzero"/><path d="m341.15 232.189c-1.012.893-1.964 1.33-2.817 1.33-.119 0-.198-.02-.258-.06.219-.397.318-.734.318-1.032 0-.654-.377-.972-1.131-.972-.655 0-1.369.437-1.369 1.012 0 .972.615 1.448 1.845 1.448.675 0 1.528-.178 2.559-.516l-3.174 6.983h.833z" fill-rule="nonzero"/><path d="m343.177 232.079c-.476 0-.912.416-.912.952 0 .456.456.893.912.893.536 0 .953-.437.953-.893 0-.536-.417-.952-.953-.952z" fill-rule="nonzero"/><path d="m357.126 236.261v16.583" fill="none"/><path d="m357.126 236.261v16.583" fill="none" stroke="#000" stroke-width=".46"/><path d="m359.192 238.022c2.044 0 4.563-1.706 4.563-3.452 0-1.051-.932-1.726-2.261-1.726-2.004 0-4.523 1.666-4.523 3.452 0 1.091.972 1.726 2.221 1.726z" fill-rule="nonzero"/><path d="m362.862 239.728c0-.417-.595-3.313-1.309-3.313-.099 0-.159.059-.159.158 0 .08.04.199.119.377.417.933.615 1.766.615 2.48 0 .853-.297 1.627-.912 2.321-.337.397-2.44 2.301-4.047 2.301v8.729c.179 0 .258 0 .258-.02-.02-.04-.02-.099-.02-.159 0-.059 0-.119.02-.178.535-1.468 1.23-2.817 2.182-4.008.694-.872 1.508-1.646 2.242-2.499.793-.932 1.15-2.004 1.15-3.035 0-.734-.099-1.309-.317-1.746.119-.416.178-.873.178-1.408zm-.535 2.836c0 .893-.357 1.706-1.071 2.48-.159.179-.893.794-2.183 1.885-.496.416-.912.654-1.23.753.477-1.071 1.072-2.063 1.766-2.975.278-.357 2.361-2.024 2.698-2.698.02.258.02.436.02.555z" fill-rule="nonzero"/><path d="m370.764 236.261v16.583" fill="none"/><path d="m370.764 236.261v16.583" fill="none" stroke="#000" stroke-width=".46"/><path d="m372.831 238.022c2.043 0 4.562-1.706 4.562-3.452 0-1.051-.932-1.726-2.261-1.726-2.004 0-4.523 1.666-4.523 3.452 0 1.091.972 1.726 2.222 1.726z" fill-rule="nonzero"/><path d="m65.298 310.552h5.574v2.381h-5.574z" fill-rule="nonzero"/><path d="m101.706 309.68c-1.012.892-1.964 1.329-2.817 1.329-.119 0-.199-.02-.258-.06.218-.397.317-.734.317-1.031 0-.655-.377-.972-1.131-.972-.654 0-1.368.436-1.368 1.011 0 .972.615 1.448 1.845 1.448.674 0 1.527-.178 2.559-.515l-3.174 6.982h.833z" fill-rule="nonzero"/><path d="m103.733 309.569c-.476 0-.913.416-.913.952 0 .456.456.893.913.893.535 0 .952-.437.952-.893 0-.536-.417-.952-.952-.952z" fill-rule="nonzero"/><path d="m118.921 314.681v-16.583" fill="none"/><path d="m118.921 314.681v-16.583" fill="none" stroke="#000" stroke-width=".46"/><path d="m114.478 317.991c2.044 0 4.563-1.706 4.563-3.451 0-1.052-.932-1.726-2.261-1.726-2.004 0-4.523 1.666-4.523 3.452 0 1.091.972 1.725 2.221 1.725z" fill-rule="nonzero"/><path d="m123.15 313.23c.397 0 .952-1.706.952-2.44v-.099c-.02-.595-.079-1.051-.218-1.388.218-.437.317-1.012.317-1.746 0-1.012-.277-2.063-.873-2.857-.614-.813-1.329-1.507-1.904-2.301-1.131-1.388-1.865-2.737-2.202-3.987-.059-.238-.04-.357-.198-.357h-.06v8.728c.714 0 .893.08 1.905.853 2.102 1.647 2.479 2.083 2.519 3.035 0 .715-.397 2.103-.397 2.401 0 .099.06.158.159.158zm.377-5.356c0 .179 0 .357-.02.556-.337-.675-1.944-2.103-2.103-2.301-.694-.853-1.269-1.845-1.765-2.976 1.011.317 3.015 2.301 3.094 2.4.536.655.794 1.429.794 2.321z" fill-rule="nonzero"/><path d="m132.559 309.722v-12.708" fill="none"/><path d="m132.559 309.722v-12.708" fill="none" stroke="#000" stroke-width=".46"/><path d="m128.117 313.032c2.043 0 4.562-1.706 4.562-3.452 0-1.051-.932-1.725-2.261-1.725-2.004 0-4.523 1.666-4.523 3.451 0 1.091.972 1.726 2.222 1.726z" fill-rule="nonzero"/><path d="m142.788 314.681v-16.118" fill="none"/><path d="m142.788 314.681v-16.118" fill="none" stroke="#000" stroke-width=".46"/><path d="m138.345 317.991c2.044 0 4.563-1.706 4.563-3.451 0-1.052-.932-1.726-2.261-1.726-2.004 0-4.523 1.666-4.523 3.452 0 1.091.972 1.725 2.221 1.725z" fill-rule="nonzero"/><path d="m152.862 324.445v-24.177" fill="none"/><path d="m152.862 324.445v-24.177" fill="none" stroke="#000" stroke-width=".46"/><path d="m148.419 327.755c2.043 0 4.563-1.706 4.563-3.451 0-1.052-.933-1.726-2.262-1.726-2.003 0-4.523 1.666-4.523 3.451 0 1.091.972 1.726 2.222 1.726z" fill-rule="nonzero"/><path d="m163.09 324.445v-22.472" fill="none"/><path d="m163.09 324.445v-22.472" fill="none" stroke="#000" stroke-width=".46"/><path d="m158.648 327.755c2.043 0 4.562-1.706 4.562-3.451 0-1.052-.932-1.726-2.261-1.726-2.004 0-4.523 1.666-4.523 3.451 0 1.091.972 1.726 2.222 1.726z" fill-rule="nonzero"/><path d="m173.629 310.552h5.574v2.381h-5.574z" fill-rule="nonzero"/><path d="m209.997 316.881c-.813-1.31-2.48-2.758-2.48-3.809 0-.695.615-1.786 1.865-3.293l-3.531-4.841c-.218.04-.337.119-.337.258 0-.02 1.448 1.726 1.448 2.778 0 1.031-.674 2.162-2.043 3.412 1.547 1.904 2.42 2.817 3.035 3.769-.417-.219-.813-.338-1.19-.338-1.21 0-1.984 1.151-1.984 2.321 0 1.429 2.38 3.155 2.837 3.155.079 0 .139-.04.158-.119-.833-.814-1.249-1.568-1.249-2.262 0-.912.773-1.428 1.785-1.428.536 0 1.111.139 1.686.397z" fill-rule="nonzero"/><path d="m229.887 314.681v-16.428" fill="none"/><path d="m229.887 314.681v-16.428" fill="none" stroke="#000" stroke-width=".46"/><path d="m225.444 317.991c2.044 0 4.563-1.706 4.563-3.451 0-1.052-.932-1.726-2.261-1.726-2.004 0-4.523 1.666-4.523 3.452 0 1.091.972 1.725 2.221 1.725z" fill-rule="nonzero"/><path d="m217.333 319.043 2.797-2.063c1.23-.893 1.706-1.905 1.746-2.658 0-1.111-1.012-1.945-2.202-1.945-.833 0-1.448.318-1.845.972l.139-6.248h-.635zm1.845-5.872c.635 0 1.111.456 1.111 1.071 0 1.032-1.369 3.015-2.4 3.67-.06-.337-.099-.992-.099-1.964 0-.535.039-1.19.119-1.944.297-.555.714-.833 1.269-.833z" fill-rule="nonzero"/><path d="m242.285 314.681v-17.667" fill="none"/><path d="m242.285 314.681v-17.667" fill="none" stroke="#000" stroke-width=".46"/><path d="m237.843 317.991c2.043 0 4.562-1.706 4.562-3.451 0-1.052-.932-1.726-2.261-1.726-2.004 0-4.523 1.666-4.523 3.452 0 1.091.972 1.725 2.222 1.725z" fill-rule="nonzero"/><path d="m234.193 322.177v-10.653l-3.035 1.072v-3.988h-.496v10.653l3.035-1.051v3.967zm-3.035-7.975 2.539-.932v3.333l-2.539.912z" fill-rule="nonzero"/><path d="m252.514 309.722v-13.948" fill="none"/><path d="m252.514 309.722v-13.948" fill="none" stroke="#000" stroke-width=".46"/><path d="m248.071 313.032c2.044 0 4.563-1.706 4.563-3.452 0-1.051-.932-1.725-2.261-1.725-2.004 0-4.523 1.666-4.523 3.451 0 1.091.972 1.726 2.221 1.726z" fill-rule="nonzero"/><path d="m266.152 310.552h5.574v2.381h-5.574z" fill-rule="nonzero"/><path d="m302.56 309.68c-1.012.892-1.964 1.329-2.817 1.329-.119 0-.198-.02-.258-.06.219-.397.318-.734.318-1.031 0-.655-.377-.972-1.131-.972-.655 0-1.369.436-1.369 1.011 0 .972.615 1.448 1.845 1.448.675 0 1.528-.178 2.559-.515l-3.174 6.982h.833z" fill-rule="nonzero"/><path d="m304.587 309.569c-.476 0-.912.416-.912.952 0 .456.456.893.912.893.536 0 .952-.437.952-.893 0-.536-.416-.952-.952-.952z" fill-rule="nonzero"/><path d="m319.775 314.681v-16.583" fill="none"/><path d="m319.775 314.681v-16.583" fill="none" stroke="#000" stroke-width=".46"/><path d="m315.333 317.991c2.043 0 4.563-1.706 4.563-3.451 0-1.052-.933-1.726-2.262-1.726-2.003 0-4.523 1.666-4.523 3.452 0 1.091.972 1.725 2.222 1.725z" fill-rule="nonzero"/><path d="m324.004 313.23c.397 0 .953-1.706.953-2.44v-.099c-.02-.595-.08-1.051-.219-1.388.219-.437.318-1.012.318-1.746 0-1.012-.278-2.063-.873-2.857-.615-.813-1.329-1.507-1.904-2.301-1.131-1.388-1.865-2.737-2.202-3.987-.06-.238-.04-.357-.199-.357h-.059v8.728c.714 0 .892.08 1.904.853 2.103 1.647 2.48 2.083 2.519 3.035 0 .715-.396 2.103-.396 2.401 0 .099.059.158.158.158zm.377-5.356c0 .179 0 .357-.019.556-.338-.675-1.945-2.103-2.103-2.301-.695-.853-1.27-1.845-1.766-2.976 1.012.317 3.016 2.301 3.095 2.4.535.655.793 1.429.793 2.321z" fill-rule="nonzero"/><path d="m333.569 309.722v-12.708" fill="none"/><path d="m333.569 309.722v-12.708" fill="none" stroke="#000" stroke-width=".46"/><path d="m329.126 313.032c2.043 0 4.563-1.706 4.563-3.452 0-1.051-.933-1.725-2.262-1.725-2.003 0-4.523 1.666-4.523 3.451 0 1.091.972 1.726 2.222 1.726z" fill-rule="nonzero"/><path d="m343.642 314.681v-16.118" fill="none"/><path d="m343.642 314.681v-16.118" fill="none" stroke="#000" stroke-width=".46"/><path d="m339.2 317.991c2.043 0 4.563-1.706 4.563-3.451 0-1.052-.933-1.726-2.262-1.726-2.003 0-4.523 1.666-4.523 3.452 0 1.091.972 1.725 2.222 1.725z" fill-rule="nonzero"/><path d="m353.871 324.445v-24.177" fill="none"/><path d="m353.871 324.445v-24.177" fill="none" stroke="#000" stroke-width=".46"/><path d="m349.429 327.755c2.043 0 4.562-1.706 4.562-3.451 0-1.052-.932-1.726-2.261-1.726-2.004 0-4.523 1.666-4.523 3.451 0 1.091.972 1.726 2.222 1.726z" fill-rule="nonzero"/><path d="m363.945 324.445v-22.472" fill="none"/><path d="m363.945 324.445v-22.472" fill="none" stroke="#000" stroke-width=".46"/><path d="m359.502 327.755c2.044 0 4.563-1.706 4.563-3.451 0-1.052-.932-1.726-2.262-1.726-2.003 0-4.522 1.666-4.522 3.451 0 1.091.972 1.726 2.221 1.726z" fill-rule="nonzero"/><path d="m374.638 310.552h5.575v2.381h-5.575z" fill-rule="nonzero"/><path d="m411.007 316.881c-.814-1.31-2.48-2.758-2.48-3.809 0-.695.615-1.786 1.865-3.293l-3.531-4.841c-.219.04-.338.119-.338.258 0-.02 1.449 1.726 1.449 2.778 0 1.031-.675 2.162-2.044 3.412 1.548 1.904 2.42 2.817 3.035 3.769-.416-.219-.813-.338-1.19-.338-1.21 0-1.984 1.151-1.984 2.321 0 1.429 2.381 3.155 2.837 3.155.08 0 .139-.04.159-.119-.833-.814-1.25-1.568-1.25-2.262 0-.912.774-1.428 1.785-1.428.536 0 1.111.139 1.687.397z" fill-rule="nonzero"/><path d="m430.896 314.681v-16.428" fill="none"/><path d="m430.896 314.681v-16.428" fill="none" stroke="#000" stroke-width=".46"/><path d="m426.454 317.991c2.043 0 4.562-1.706 4.562-3.451 0-1.052-.932-1.726-2.261-1.726-2.004 0-4.523 1.666-4.523 3.452 0 1.091.972 1.725 2.222 1.725z" fill-rule="nonzero"/><path d="m418.343 319.043 2.797-2.063c1.23-.893 1.706-1.905 1.746-2.658 0-1.111-1.012-1.945-2.202-1.945-.834 0-1.449.318-1.845.972l.139-6.248h-.635zm1.845-5.872c.634 0 1.111.456 1.111 1.071 0 1.032-1.369 3.015-2.401 3.67-.059-.337-.099-.992-.099-1.964 0-.535.04-1.19.119-1.944.298-.555.714-.833 1.27-.833z" fill-rule="nonzero"/><path d="m443.295 314.681v-17.667" fill="none"/><path d="m443.295 314.681v-17.667" fill="none" stroke="#000" stroke-width=".46"/><path d="m438.852 317.991c2.044 0 4.563-1.706 4.563-3.451 0-1.052-.932-1.726-2.262-1.726-2.003 0-4.523 1.666-4.523 3.452 0 1.091.973 1.725 2.222 1.725z" fill-rule="nonzero"/><path d="m435.202 322.177v-10.653l-3.035 1.072v-3.988h-.496v10.653l3.035-1.051v3.967zm-3.035-7.975 2.539-.932v3.333l-2.539.912z" fill-rule="nonzero"/><path d="m453.368 309.722v-13.948" fill="none"/><path d="m453.368 309.722v-13.948" fill="none" stroke="#000" stroke-width=".46"/><path d="m448.926 313.032c2.043 0 4.563-1.706 4.563-3.452 0-1.051-.933-1.725-2.262-1.725-2.003 0-4.523 1.666-4.523 3.451 0 1.091.972 1.726 2.222 1.726z" fill-rule="nonzero"/><path d="m38.021 393.566v12.709" fill="none"/><path d="m38.021 393.566v12.709" fill="none" stroke="#000" stroke-width=".46"/><path d="m40.088 395.327c2.043 0 4.563-1.706 4.563-3.452 0-1.051-.933-1.726-2.262-1.726-2.004 0-4.523 1.666-4.523 3.452 0 1.091.972 1.726 2.222 1.726z" fill-rule="nonzero"/><path d="m54.294 388.607v15.653" fill="none"/><path d="m54.294 388.607v15.653" fill="none" stroke="#000" stroke-width=".46"/><path d="m56.361 390.367c2.043 0 4.562-1.706 4.562-3.451 0-1.052-.932-1.726-2.261-1.726-2.004 0-4.523 1.666-4.523 3.451 0 1.091.972 1.726 2.222 1.726z" fill-rule="nonzero"/><path d="m75.681 386.127v15.188" fill="none"/><path d="m75.681 386.127v15.188" fill="none" stroke="#000" stroke-width=".46"/><path d="m77.748 387.888c2.043 0 4.563-1.706 4.563-3.452 0-1.052-.933-1.726-2.262-1.726-2.003 0-4.523 1.666-4.523 3.452 0 1.091.972 1.726 2.222 1.726z" fill-rule="nonzero"/><path d="m105.283 386.127v18.908" fill="none"/><path d="m105.283 386.127v18.908" fill="none" stroke="#000" stroke-width=".46"/><path d="m107.349 387.888c2.044 0 4.563-1.706 4.563-3.452 0-1.052-.932-1.726-2.261-1.726-2.004 0-4.523 1.666-4.523 3.452 0 1.091.972 1.726 2.221 1.726z" fill-rule="nonzero"/><path d="m121.71 388.607v16.428" fill="none"/><path d="m121.71 388.607v16.428" fill="none" stroke="#000" stroke-width=".46"/><path d="m123.777 390.367c2.044 0 4.563-1.706 4.563-3.451 0-1.052-.932-1.726-2.262-1.726-2.003 0-4.523 1.666-4.523 3.451 0 1.091.973 1.726 2.222 1.726z" fill-rule="nonzero"/><path d="m137.983 386.127v18.908" fill="none"/><path d="m137.983 386.127v18.908" fill="none" stroke="#000" stroke-width=".46"/><path d="m140.05 387.888c2.043 0 4.563-1.706 4.563-3.452 0-1.052-.933-1.726-2.262-1.726-2.003 0-4.523 1.666-4.523 3.452 0 1.091.972 1.726 2.222 1.726z" fill-rule="nonzero"/><path d="m164.278 394.216c-.813-1.31-2.48-2.758-2.48-3.809 0-.694.615-1.785 1.865-3.293l-3.531-4.84c-.218.039-.337.119-.337.257 0-.019 1.448 1.726 1.448 2.778 0 1.031-.675 2.162-2.043 3.412 1.547 1.904 2.42 2.817 3.035 3.769-.417-.218-.814-.337-1.191-.337-1.21 0-1.983 1.15-1.983 2.321 0 1.428 2.38 3.154 2.836 3.154.08 0 .139-.04.159-.119-.833-.814-1.25-1.567-1.25-2.262 0-.912.774-1.428 1.786-1.428.535 0 1.111.139 1.686.397z" fill-rule="nonzero"/><path d="m193.879 394.216c-.813-1.31-2.479-2.758-2.479-3.809 0-.694.615-1.785 1.864-3.293l-3.531-4.84c-.218.039-.337.119-.337.257 0-.019 1.448 1.726 1.448 2.778 0 1.031-.674 2.162-2.043 3.412 1.547 1.904 2.42 2.817 3.035 3.769-.417-.218-.813-.337-1.19-.337-1.21 0-1.984 1.15-1.984 2.321 0 1.428 2.38 3.154 2.837 3.154.079 0 .139-.04.158-.119-.833-.814-1.249-1.567-1.249-2.262 0-.912.773-1.428 1.785-1.428.536 0 1.111.139 1.686.397z" fill-rule="nonzero"/><path d="m218.263 388.607v16.428" fill="none"/><path d="m218.263 388.607v16.428" fill="none" stroke="#000" stroke-width=".46"/><path d="m220.33 390.367c2.043 0 4.563-1.706 4.563-3.451 0-1.052-.933-1.726-2.262-1.726-2.003 0-4.523 1.666-4.523 3.451 0 1.091.972 1.726 2.222 1.726z" fill-rule="nonzero"/><path d="m234.536 386.127v16.893" fill="none"/><path d="m234.536 386.127v16.893" fill="none" stroke="#000" stroke-width=".46"/><path d="m236.603 387.888c2.043 0 4.563-1.706 4.563-3.452 0-1.052-.933-1.726-2.262-1.726-2.003 0-4.523 1.666-4.523 3.452 0 1.091.972 1.726 2.222 1.726z" fill-rule="nonzero"/><path d="m255.923 381.168v18.907" fill="none"/><path d="m255.923 381.168v18.907" fill="none" stroke="#000" stroke-width=".46"/><path d="m257.99 382.928c2.044 0 4.563-1.706 4.563-3.452 0-1.051-.932-1.725-2.262-1.725-2.003 0-4.523 1.666-4.523 3.451 0 1.091.972 1.726 2.222 1.726z" fill-rule="nonzero"/><path d="m286.781 386.935c-1.29.893-2.202 1.33-2.738 1.33-.119 0-.238-.02-.337-.04.198-.377.297-.734.297-1.032 0-.654-.357-.972-1.071-.972-.734 0-1.388.457-1.388 1.171 0 .853.615 1.269 1.864 1.269.714 0 1.528-.158 2.46-.496l-2.023 4.503c-.814.298-1.349.457-1.607.457-.139 0-.298 0-.437-.02.199-.377.298-.694.298-.992 0-.615-.377-.932-1.111-.932-.754 0-1.488.456-1.488 1.111 0 .912.615 1.368 1.825 1.368.754 0 1.528-.158 2.301-.496l-2.896 6.507h.913z" fill-rule="nonzero"/><path d="m295.908 388.607v17.668" fill="none"/><path d="m295.908 388.607v17.668" fill="none" stroke="#000" stroke-width=".46"/><path d="m297.975 390.367c2.043 0 4.563-1.706 4.563-3.451 0-1.052-.933-1.726-2.262-1.726-2.003 0-4.523 1.666-4.523 3.451 0 1.091.972 1.726 2.222 1.726z" fill-rule="nonzero"/><path d="m312.336 386.127v19.528" fill="none"/><path d="m312.336 386.127v19.528" fill="none" stroke="#000" stroke-width=".46"/><path d="m314.403 387.888c2.043 0 4.563-1.706 4.563-3.452 0-1.052-.933-1.726-2.262-1.726-2.003 0-4.523 1.666-4.523 3.452 0 1.091.972 1.726 2.222 1.726z" fill-rule="nonzero"/><path d="m328.609 386.127v18.908" fill="none"/><path d="m328.609 386.127v18.908" fill="none" stroke="#000" stroke-width=".46"/><path d="m330.676 387.888c2.043 0 4.563-1.706 4.563-3.452 0-1.052-.933-1.726-2.262-1.726-2.003 0-4.523 1.666-4.523 3.452 0 1.091.972 1.726 2.222 1.726z" fill-rule="nonzero"/><path d="m344.882 388.607v16.583" fill="none"/><path d="m344.882 388.607v16.583" fill="none" stroke="#000" stroke-width=".46"/><path d="m346.949 390.367c2.043 0 4.563-1.706 4.563-3.451 0-1.052-.933-1.726-2.262-1.726-2.003 0-4.523 1.666-4.523 3.451 0 1.091.972 1.726 2.222 1.726z" fill-rule="nonzero"/><path d="m344.926 405.126c.178 0 .277 0 .257-.019-.019-.04-.019-.1-.019-.159 0-.06 0-.119.019-.179.615-1.547 1.31-2.936 2.183-4.007.714-.873 1.527-1.666 2.261-2.539.774-.913 1.131-1.984 1.131-2.996 0-.535-.06-1.051-.199-1.587-.257-1.011-1.051-2.955-1.527-2.955-.06 0-.079.059-.079.178 0 .099.039.238.119.377.694 1.29 1.031 2.381 1.031 3.234 0 1.21-.456 2.321-1.309 3.273-.179.178-.754.654-1.726 1.428-1.23.992-1.309 1.012-2.142 1.012z" fill-rule="nonzero"/><path d="m371.371 387.015c-1.011.892-1.964 1.329-2.817 1.329-.119 0-.198-.02-.257-.06.218-.396.317-.734.317-1.031 0-.655-.377-.972-1.131-.972-.654 0-1.369.436-1.369 1.011 0 .973.615 1.449 1.845 1.449.675 0 1.528-.179 2.559-.516l-3.174 6.983h.834z" fill-rule="nonzero"/><path d="m392.719 394.216c-.813-1.31-2.48-2.758-2.48-3.809 0-.694.615-1.785 1.865-3.293l-3.531-4.84c-.218.039-.337.119-.337.257 0-.019 1.448 1.726 1.448 2.778 0 1.031-.675 2.162-2.043 3.412 1.547 1.904 2.42 2.817 3.035 3.769-.417-.218-.814-.337-1.191-.337-1.21 0-1.983 1.15-1.983 2.321 0 1.428 2.38 3.154 2.836 3.154.08 0 .139-.04.159-.119-.833-.814-1.25-1.567-1.25-2.262 0-.912.774-1.428 1.786-1.428.535 0 1.111.139 1.686.397z" fill-rule="nonzero"/><path d="m417.103 393.566v12.709" fill="none"/><path d="m417.103 393.566v12.709" fill="none" stroke="#000" stroke-width=".46"/><path d="m419.17 395.327c2.043 0 4.562-1.706 4.562-3.452 0-1.051-.932-1.726-2.261-1.726-2.004 0-4.523 1.666-4.523 3.452 0 1.091.972 1.726 2.222 1.726z" fill-rule="nonzero"/><path d="m433.376 388.607v15.653" fill="none"/><path d="m433.376 388.607v15.653" fill="none" stroke="#000" stroke-width=".46"/><path d="m435.443 390.367c2.043 0 4.562-1.706 4.562-3.451 0-1.052-.932-1.726-2.261-1.726-2.004 0-4.523 1.666-4.523 3.451 0 1.091.972 1.726 2.222 1.726z" fill-rule="nonzero"/><path d="m454.763 386.127v15.188" fill="none"/><path d="m454.763 386.127v15.188" fill="none" stroke="#000" stroke-width=".46"/><path d="m456.83 387.888c2.043 0 4.563-1.706 4.563-3.452 0-1.052-.933-1.726-2.262-1.726-2.003 0-4.523 1.666-4.523 3.452 0 1.091.972 1.726 2.222 1.726z" fill-rule="nonzero"/><path d="m28.722 450.599v18.908" fill="none"/><path d="m28.722 450.599v18.908" fill="none" stroke="#000" stroke-width=".46"/><path d="m30.789 452.359c2.043 0 4.563-1.706 4.563-3.451 0-1.052-.933-1.726-2.262-1.726-2.003 0-4.523 1.666-4.523 3.452 0 1.091.972 1.725 2.222 1.725z" fill-rule="nonzero"/><path d="m50.265 453.079v16.428" fill="none"/><path d="m50.265 453.079v16.428" fill="none" stroke="#000" stroke-width=".46"/><path d="m52.331 454.839c2.044 0 4.563-1.706 4.563-3.452 0-1.051-.932-1.725-2.261-1.725-2.004 0-4.523 1.666-4.523 3.451 0 1.091.972 1.726 2.221 1.726z" fill-rule="nonzero"/><path d="m71.652 450.599v18.908" fill="none"/><path d="m71.652 450.599v18.908" fill="none" stroke="#000" stroke-width=".46"/><path d="m73.719 452.359c2.043 0 4.562-1.706 4.562-3.451 0-1.052-.932-1.726-2.261-1.726-2.004 0-4.523 1.666-4.523 3.452 0 1.091.972 1.725 2.222 1.725z" fill-rule="nonzero"/><path d="m104.766 458.688c-.814-1.31-2.48-2.758-2.48-3.809 0-.695.615-1.786 1.865-3.293l-3.531-4.841c-.219.04-.338.119-.338.258 0-.02 1.448 1.726 1.448 2.778 0 1.031-.674 2.162-2.043 3.412 1.547 1.904 2.42 2.817 3.035 3.769-.416-.219-.813-.338-1.19-.338-1.21 0-1.984 1.151-1.984 2.321 0 1.429 2.381 3.155 2.837 3.155.079 0 .139-.04.159-.119-.833-.814-1.25-1.568-1.25-2.262 0-.912.774-1.428 1.785-1.428.536 0 1.111.139 1.687.397z" fill-rule="nonzero"/><path d="m143.511 458.688c-.814-1.31-2.48-2.758-2.48-3.809 0-.695.615-1.786 1.865-3.293l-3.531-4.841c-.219.04-.338.119-.338.258 0-.02 1.448 1.726 1.448 2.778 0 1.031-.674 2.162-2.043 3.412 1.548 1.904 2.42 2.817 3.035 3.769-.416-.219-.813-.338-1.19-.338-1.21 0-1.984 1.151-1.984 2.321 0 1.429 2.381 3.155 2.837 3.155.079 0 .139-.04.159-.119-.833-.814-1.25-1.568-1.25-2.262 0-.912.774-1.428 1.785-1.428.536 0 1.111.139 1.687.397z" fill-rule="nonzero"/><path d="m184.339 451.407c-1.29.893-2.202 1.329-2.738 1.329-.119 0-.238-.02-.337-.039.198-.377.297-.734.297-1.032 0-.655-.357-.972-1.071-.972-.734 0-1.388.456-1.388 1.17 0 .853.615 1.27 1.864 1.27.714 0 1.528-.159 2.46-.496l-2.023 4.503c-.814.298-1.349.457-1.607.457-.139 0-.298 0-.437-.02.199-.377.298-.695.298-.992 0-.615-.377-.933-1.111-.933-.754 0-1.488.457-1.488 1.111 0 .913.615 1.369 1.825 1.369.754 0 1.528-.159 2.301-.496l-2.896 6.507h.913z" fill-rule="nonzero"/><path d="m205.245 456.488v-20.147" fill="none"/><path d="m205.245 456.488v-20.147" fill="none" stroke="#000" stroke-width=".46"/><path d="m200.802 459.798c2.044 0 4.563-1.706 4.563-3.451 0-1.052-.932-1.726-2.261-1.726-2.004 0-4.523 1.666-4.523 3.452 0 1.091.972 1.725 2.221 1.725z" fill-rule="nonzero"/><path d="m226.787 451.529v-15.188" fill="none"/><path d="m226.787 451.529v-15.188" fill="none" stroke="#000" stroke-width=".46"/><path d="m222.345 454.839c2.043 0 4.562-1.706 4.562-3.452 0-1.051-.932-1.725-2.261-1.725-2.004 0-4.523 1.666-4.523 3.451 0 1.091.972 1.726 2.222 1.726z" fill-rule="nonzero"/><path d="m248.174 456.488v-20.147" fill="none"/><path d="m248.174 456.488v-20.147" fill="none" stroke="#000" stroke-width=".46"/><path d="m243.732 459.798c2.043 0 4.563-1.706 4.563-3.451 0-1.052-.933-1.726-2.262-1.726-2.003 0-4.523 1.666-4.523 3.452 0 1.091.972 1.725 2.222 1.725z" fill-rule="nonzero"/><path d="m277.156 449.049v-12.708" fill="none"/><path d="m277.156 449.049v-12.708" fill="none" stroke="#000" stroke-width=".46"/><path d="m272.713 452.359c2.044 0 4.563-1.706 4.563-3.451 0-1.052-.932-1.726-2.261-1.726-2.004 0-4.523 1.666-4.523 3.452 0 1.091.972 1.725 2.221 1.725z" fill-rule="nonzero"/><path d="m298.543 456.488v-17.822" fill="none"/><path d="m298.543 456.488v-17.822" fill="none" stroke="#000" stroke-width=".46"/><path d="m294.101 459.798c2.043 0 4.562-1.706 4.562-3.451 0-1.052-.932-1.726-2.261-1.726-2.004 0-4.523 1.666-4.523 3.452 0 1.091.972 1.725 2.222 1.725z" fill-rule="nonzero"/><path d="m320.085 461.448v-20.148" fill="none"/><path d="m320.085 461.448v-20.148" fill="none" stroke="#000" stroke-width=".46"/><path d="m315.643 464.758c2.043 0 4.563-1.706 4.563-3.452 0-1.051-.933-1.726-2.262-1.726-2.003 0-4.523 1.667-4.523 3.452 0 1.091.972 1.726 2.222 1.726z" fill-rule="nonzero"/><path d="m348.137 466.407v-16.583" fill="none"/><path d="m348.137 466.407v-16.583" fill="none" stroke="#000" stroke-width=".46"/><path d="m343.694 469.717c2.044 0 4.563-1.706 4.563-3.452 0-1.051-.932-1.725-2.261-1.725-2.004 0-4.523 1.666-4.523 3.451 0 1.091.972 1.726 2.221 1.726z" fill-rule="nonzero"/><path d="m348.18 454.74c.992 0 1.329.377 1.905.793 1.606 1.131 2.42 2.381 2.42 3.77v.099c-.04 1.785-.06 1.924-.576 3.075-.079.178-.119.297-.119.376 0 .1.06.159.159.159.198 0 1.21-1.388 1.21-3.928v-.099c0-.853-.238-1.666-.714-2.42-.139-.238-.754-1.051-1.845-2.42-.853-1.091-1.587-2.44-2.182-4.007-.02-.06-.02-.119-.02-.179 0-.059 0-.119.02-.159.02-.019-.079-.019-.258-.019z" fill-rule="nonzero"/><path d="m374.781 451.487c-1.012.892-1.964 1.329-2.817 1.329-.119 0-.198-.02-.258-.06.218-.397.318-.734.318-1.031 0-.655-.377-.972-1.131-.972-.655 0-1.369.436-1.369 1.011 0 .972.615 1.448 1.845 1.448.674 0 1.527-.178 2.559-.515l-3.174 6.982h.833z" fill-rule="nonzero"/><path d="m397.575 452.359h5.575v2.381h-5.575z" fill-rule="nonzero"/></svg>
