<svg clip-rule="evenodd" fill-rule="evenodd" stroke-linejoin="round" stroke-miterlimit="2" viewBox="0 0 473 580" xmlns="http://www.w3.org/2000/svg"><path d="m178.069 96.831v19.882" fill="none" stroke="#000" stroke-width=".78"/><path d="m471.634 96.831v19.882" fill="none" stroke="#000" stroke-width=".78"/><path d="m261.323 161.447v19.881" fill="none" stroke="#000" stroke-width=".78"/><path d="m471.634 161.447v19.881" fill="none" stroke="#000" stroke-width=".78"/><path d="m262.255 225.907v19.881" fill="none" stroke="#000" stroke-width=".78"/><path d="m471.634 225.907v19.881" fill="none" stroke="#000" stroke-width=".78"/><path d="m345.044 290.522v19.882" fill="none" stroke="#000" stroke-width=".78"/><path d="m468.993 290.522v19.882" fill="none" stroke="#000" stroke-width=".78"/><path d="m471.634 290.522v19.882" fill="none" stroke="#000" stroke-width=".78"/><path d="m254.8 355.137v19.882" fill="none" stroke="#000" stroke-width=".78"/><path d="m471.634 355.137v19.882" fill="none" stroke="#000" stroke-width=".78"/><path d="m270.022 419.753v19.881" fill="none" stroke="#000" stroke-width=".78"/><path d="m471.634 419.753v19.881" fill="none" stroke="#000" stroke-width=".78"/><path d="m254.489 484.368v19.882" fill="none" stroke="#000" stroke-width=".78"/><path d="m471.634 484.368v19.882" fill="none" stroke="#000" stroke-width=".78"/><path d="m264.43 548.983v19.882" fill="none" stroke="#000" stroke-width=".78"/><path d="m467.285 548.983v19.882" fill="none" stroke="#000" stroke-width=".78"/><path d="m470.702 548.983v19.882" fill="none" stroke="#000" stroke-width="2.49"/><path d="m30.132 103.97v-.841h-1.262v-4.508l-2.505 2.224v2.284h-2.705c.301-.762 1.122-1.803 2.465-3.146 1.222-1.222 1.923-2.304 2.124-3.206h-3.427c-.16 1.964-1.322 4.829-2.544 6.392v.801h4.087c0 .702-.02 1.102-.06 1.203-.12.22-.501.36-1.122.4l-.04.561h4.929l-.08-.581c-.962-.08-1.142-.18-1.142-.681 0-.06 0-.18.02-.381v-.521z" fill-rule="nonzero"/><path d="m30.132 114.045v-.842h-1.262v-4.508l-2.505 2.224v2.284h-2.705c.301-.761 1.122-1.803 2.465-3.146 1.222-1.222 1.923-2.304 2.124-3.206h-3.427c-.16 1.964-1.322 4.829-2.544 6.392v.802h4.087c0 .701-.02 1.102-.06 1.202-.12.22-.501.361-1.122.401l-.04.561h4.929l-.08-.581c-.962-.08-1.142-.181-1.142-.682 0-.06 0-.18.02-.38v-.521z" fill-rule="nonzero"/><path d="m.066 116.713h471.878" fill="none" stroke="#000" stroke-width=".47"/><path d="m.066 111.743h471.878" fill="none" stroke="#000" stroke-width=".47"/><path d="m.066 106.772h471.878" fill="none" stroke="#000" stroke-width=".47"/><path d="m.066 101.802h471.878" fill="none" stroke="#000" stroke-width=".47"/><path d="m.066 96.831h471.878" fill="none" stroke="#000" stroke-width=".47"/><path d="m14.192 116.053.756 3.678c.039.219.059.418.059.617 0 1.948-1.988 3.578-4.135 3.578-.656 0-1.292-.159-1.889-.457 1.531-.159 2.684-1.094 2.684-2.465 0-1.213-.994-2.486-2.266-2.486-1.452 0-2.446 1.114-2.446 2.565 0 2.028 1.65 3.36 3.638 3.36 2.665 0 4.931-1.73 4.931-4.215 0-.556-.875-4.493-.855-4.354 2.128-1.034 3.579-2.863 3.579-4.791 0-2.645-2.127-4.673-4.772-4.673-.039 0-.318.02-.795.06l-.875-4.195c2.963-2.505 4.315-5.169 4.315-8.092 0-2.246-.895-4.632-2.704-7.137-2.048 1.65-3.221 4.95-3.221 8.469 0 1.253.159 2.466.437 3.619-4.533 3.797-6.799 7.296-6.799 10.497 0 3.758 3.877 6.879 8.092 6.879.934 0 1.63-.139 2.266-.457zm-.06-26.124c.657.676.995 1.471.995 2.405 0 1.929-1.372 4.096-4.056 6.482-.14-.577-.179-1.213-.179-1.909 0-3.34 1.232-7.018 2.883-7.018.139 0 .258.02.357.04zm.418 25.309-1.412-6.641c.279-.019.438-.039.497-.039 1.71 0 2.903 1.61 2.903 3.26 0 1.312-.696 2.466-1.988 3.42zm-1.909-6.561 1.432 6.839c-.696.378-1.471.537-2.406.537-3.221 0-6.004-2.406-6.004-5.328 0-2.644 1.968-5.368 5.686-8.152l.835 3.977c-2.068.437-3.817 2.187-3.817 4.155 0 1.67 1.193 2.843 2.982 3.121-1.093-.676-1.63-1.531-1.63-2.544 0-1.372 1.272-2.386 2.922-2.605z" fill-rule="nonzero"/><path d="m101.649 101.758h5.587v2.386h-5.587z" fill-rule="nonzero"/><path d="m338.24 114.372c0 .397.338.755.776.755.437 0 .775-.358.775-.755 0-.438-.338-.776-.775-.776-.438 0-.776.338-.776.776z" fill-rule="nonzero"/><path d="m312.736 98.074 6.213.155v-2.485l-6.213-.155z"/><path d="m312.736 94.346 29.512 1.243v-2.485l-29.512-1.243z"/><g fill-rule="nonzero"><path d="m401.923 54.565v-8.646h1.136l3.352 7.157 3.463-7.157h1.07v8.646h-.783v-7.51l-3.562 7.51h-.375l-3.507-7.499v7.499z"/><path d="m416.556 50.749v2.779c0 .122.033.232.088.331.055.088.155.132.298.132h.11c.033-.011.055-.011.088-.022.045-.011.089-.033.122-.044s.055-.022.077-.033v.618c-.132.044-.265.077-.397.099-.132.011-.232.022-.309.022-.375 0-.617-.099-.739-.298-.099-.121-.143-.397-.143-.805-.099.166-.188.309-.287.43-.099.122-.187.221-.287.298-.386.298-.827.452-1.334.452-.54 0-1.004-.154-1.401-.474-.408-.342-.617-.772-.617-1.29 0-.651.331-1.136.992-1.445.243-.121.563-.221.971-.309.397-.088.871-.165 1.434-.242l.529-.056c0-.518-.132-.915-.386-1.202-.265-.297-.651-.441-1.158-.441-.188 0-.375.022-.563.077-.187.045-.385.122-.573.221-.099.055-.221.132-.342.21-.121.077-.265.187-.408.308v-.904c.629-.419 1.301-.629 2.018-.629.739 0 1.302.232 1.699.695.341.408.518.916.518 1.522zm-.805 1.158v-.353l-.375.044c-.915.1-1.566.221-1.941.386-.496.199-.75.519-.75.971 0 .132.033.264.088.386.055.121.144.22.243.32.099.099.231.176.386.231.143.055.309.088.496.088.496 0 .938-.198 1.312-.606.364-.408.541-.904.541-1.467z"/><path d="m423.017 49.183v1.037c-.408-.386-.838-.673-1.268-.838-.121-.056-.253-.089-.386-.1-.132-.022-.264-.033-.397-.033-.606 0-1.114.232-1.5.684-.386.474-.584 1.026-.584 1.676 0 .662.198 1.224.607 1.699.408.452.915.672 1.521.672.386 0 .728-.077 1.048-.242.32-.166.64-.419.959-.75v1.047c-.385.243-.738.42-1.058.519s-.64.154-.96.154c-.827 0-1.533-.298-2.117-.882-.574-.607-.86-1.345-.86-2.206 0-.849.286-1.577.849-2.183.573-.607 1.29-.905 2.139-.905.43 0 .839.078 1.213.221.221.077.486.221.794.43z"/><path d="m429.104 51.378h-4.488c0 .849.198 1.489.595 1.941.386.441.905.661 1.544.661.485 0 .949-.154 1.401-.463.121-.077.253-.176.397-.298.143-.121.287-.264.452-.43v.96c-.176.132-.342.253-.485.353-.155.099-.298.176-.43.242-.464.243-.927.364-1.39.364-.805 0-1.478-.275-2.04-.827-.607-.584-.904-1.334-.904-2.261 0-.871.275-1.61.816-2.194.551-.596 1.235-.894 2.04-.894.783 0 1.411.287 1.875.861.408.518.617 1.18.617 1.985zm-4.378-.673h3.452c-.088-.496-.276-.871-.563-1.114-.297-.253-.65-.375-1.058-.375-.452 0-.838.144-1.158.43-.298.265-.519.618-.673 1.059z"/><path d="m432.731 54.708c-.761 0-1.423-.275-1.996-.827-.607-.584-.916-1.334-.916-2.261 0-.871.265-1.61.806-2.194.551-.596 1.235-.894 2.04-.894s1.477.298 2.029.894c.54.584.816 1.312.816 2.183 0 .916-.298 1.666-.882 2.261-.541.563-1.18.838-1.897.838zm-.077-.728c.529 0 1.003-.22 1.411-.661.397-.452.596-1.015.596-1.71 0-.717-.21-1.29-.64-1.742-.386-.408-.838-.618-1.356-.618-.53 0-.982.21-1.357.64-.408.474-.617 1.048-.617 1.731 0 .695.198 1.269.606 1.732.375.419.827.628 1.357.628z"/><path d="m439.888 45.919h2.768c.794 0 1.444.132 1.952.408.683.386 1.025.992 1.025 1.831 0 .805-.287 1.433-.849 1.874-.518.408-1.18.618-1.985.618h-2.04v3.915h-.871zm2.757.761h-1.886v3.209h1.952c.518 0 .959-.132 1.334-.408.419-.309.629-.728.629-1.246 0-.585-.243-1.015-.739-1.269-.364-.187-.794-.286-1.29-.286z"/><path d="m451.169 50.749v2.779c0 .122.033.232.088.331.056.088.155.132.298.132h.11c.034-.011.056-.011.089-.022.044-.011.088-.033.121-.044s.055-.022.077-.033v.618c-.132.044-.264.077-.397.099-.132.011-.231.022-.309.022-.375 0-.617-.099-.738-.298-.1-.121-.144-.397-.144-.805-.099.166-.187.309-.287.43-.099.122-.187.221-.286.298-.386.298-.827.452-1.335.452-.54 0-1.003-.154-1.4-.474-.408-.342-.618-.772-.618-1.29 0-.651.331-1.136.993-1.445.242-.121.562-.221.97-.309.397-.088.871-.165 1.434-.242l.529-.056c0-.518-.132-.915-.386-1.202-.264-.297-.65-.441-1.158-.441-.187 0-.375.022-.562.077-.188.045-.386.122-.574.221-.099.055-.22.132-.342.21-.121.077-.264.187-.408.308v-.904c.629-.419 1.302-.629 2.019-.629.738 0 1.301.232 1.698.695.342.408.518.916.518 1.522zm-.805 1.158v-.353l-.375.044c-.915.1-1.566.221-1.941.386-.496.199-.75.519-.75.971 0 .132.033.264.089.386.055.121.143.22.242.32.099.099.232.176.386.231.144.055.309.088.496.088.497 0 .938-.198 1.313-.606.364-.408.54-.904.54-1.467z"/><path d="m455.977 48.665v.794c-.078-.033-.144-.055-.199-.066-.055-.022-.099-.033-.132-.044s-.077-.011-.111-.011c-.044-.012-.099-.012-.165-.012-.54 0-.981.265-1.323.783-.298.475-.441 1.015-.441 1.6v2.856h-.794v-5.9h.727l.056 1.014c.187-.308.352-.529.518-.661.331-.276.728-.408 1.191-.408.121 0 .242 0 .353.011.099.011.209.022.32.044z"/><path d="m456.692 45.919h.805v5.348l2.713-2.602h1.125l-2.481 2.294 2.834 3.606h-1.092l-2.338-3.077-.761.706v2.371h-.805z"/><path d="m467.542 51.378h-4.488c0 .849.198 1.489.595 1.941.386.441.905.661 1.544.661.486 0 .949-.154 1.401-.463.121-.077.254-.176.397-.298.143-.121.287-.264.452-.43v.96c-.176.132-.342.253-.485.353-.154.099-.298.176-.43.242-.463.243-.927.364-1.39.364-.805 0-1.477-.275-2.04-.827-.606-.584-.904-1.334-.904-2.261 0-.871.275-1.61.816-2.194.551-.596 1.235-.894 2.04-.894.783 0 1.412.287 1.875.861.408.518.617 1.18.617 1.985zm-4.378-.673h3.452c-.088-.496-.276-.871-.562-1.114-.298-.253-.651-.375-1.059-.375-.452 0-.838.144-1.158.43-.298.265-.518.618-.673 1.059z"/><path d="m471.577 48.665v.794c-.077-.033-.143-.055-.198-.066-.056-.022-.1-.033-.133-.044s-.077-.011-.11-.011c-.044-.012-.099-.012-.165-.012-.541 0-.982.265-1.324.783-.298.475-.441 1.015-.441 1.6v2.856h-.794v-5.9h.728l.055 1.014c.188-.308.353-.529.518-.661.331-.276.728-.408 1.191-.408.122 0 .243 0 .353.011.1.011.21.022.32.044z"/><path d="m215.933 22.488h6.822v.965h-5.718v4.068h5.48v.894h-5.48v5.033h-1.104z"/><path d="m223.9 25.969h1.021v4.767c0 .531.153.978.461 1.342.335.419.811.629 1.426.629.713 0 1.314-.28 1.817-.853.517-.601.783-1.258.783-1.971v-3.914h1.006v7.479h-.88l-.07-1.272c-.154.209-.308.391-.476.559-.167.154-.349.293-.545.419-.517.322-1.09.476-1.719.476-.853 0-1.538-.266-2.055-.797-.517-.545-.769-1.202-.769-1.971z"/><path d="m238.213 28.443v5.005h-1.007v-4.935c0-.517-.195-.95-.573-1.286-.377-.349-.839-.517-1.37-.517-.713 0-1.314.293-1.831.881-.517.601-.769 1.272-.769 2.013v3.844h-.951v-7.479h.881l.042 1.398c.252-.378.545-.699.881-.951.545-.405 1.174-.615 1.859-.615.797 0 1.468.238 2.013.727.545.475.825 1.118.825 1.915z"/><path d="m239.525 22.488h1.02v6.78l3.439-3.299h1.426l-3.145 2.908 3.592 4.571h-1.383l-2.964-3.9-.965.894v3.006h-1.02z"/><path d="m179.638 10.711v-9.771c0-.265.022-.441.088-.529.11-.155.353-.243.684-.243h1.72c.331 0 .551.066.64.198.088.111.132.309.132.574v9.749c0 .551.066.97.177 1.257.242.551.683.838 1.367.838.551 0 .948-.154 1.191-.485s.353-.86.353-1.61v-9.749c0-.265.022-.441.088-.529.11-.155.353-.243.684-.243h1.72c.331 0 .552.066.64.198.088.111.132.309.132.574v9.771c0 1.301-.242 2.36-.75 3.176-.772 1.257-2.139 1.897-4.058 1.897s-3.286-.618-4.058-1.875c-.508-.816-.75-1.875-.75-3.198z"/><path d="m192.011.168h4.014c2.206 0 3.75.573 4.654 1.742.595.772.882 1.765.882 2.978 0 1.5-.485 2.625-1.456 3.375-.992.749-2.271 1.124-3.859 1.124h-1.412c-.221 0-.331.111-.331.331v5.117c0 .331-.066.552-.176.64-.133.088-.331.132-.596.132h-1.72c-.265 0-.441-.022-.529-.088-.155-.11-.243-.353-.243-.684v-13.895c0-.265.022-.441.088-.529.11-.155.353-.243.684-.243zm2.735 6.352h1.279c.551 0 1.037-.154 1.434-.485.375-.331.573-.772.573-1.301 0-.508-.132-.905-.419-1.191-.353-.375-.882-.552-1.61-.552h-1.213c-.199 0-.287.088-.287.287v3.022c0 .154.088.22.243.22z"/><path d="m202.597.168h9.771c.176 0 .308.066.375.176.066.111.088.221.088.353v1.963c0 .309-.155.463-.463.463h-2.868c-.264 0-.397.133-.397.397v11.315c0 .265-.022.441-.088.53-.11.154-.353.242-.684.242h-1.72c-.331 0-.551-.066-.64-.176-.088-.133-.132-.331-.132-.596v-11.315c0-.264-.132-.397-.397-.397h-2.779c-.375 0-.552-.154-.552-.441v-2.095c0-.287.155-.419.486-.419z"/><path d="m213.711 9.983v-4.191c0-1.477.199-2.624.574-3.44.728-1.566 2.139-2.361 4.235-2.361 1.963 0 3.308.706 4.08 2.118.485.904.728 2.117.728 3.683v4.191c0 1.456-.199 2.603-.574 3.419-.727 1.588-2.139 2.382-4.234 2.382-1.632 0-2.846-.463-3.618-1.412-.794-.948-1.191-2.426-1.191-4.389zm6.353-.375v-3.441c0-1.147-.067-1.919-.199-2.338-.198-.639-.662-.97-1.345-.97-.684 0-1.147.309-1.346.948-.132.419-.198 1.191-.198 2.36v3.441c0 1.147.066 1.919.198 2.338.199.64.662.97 1.346.97.683 0 1.147-.308 1.345-.948.132-.419.199-1.191.199-2.36z"/><path d="m232.612 10.865-1.08 4.169c-.067.264-.155.419-.243.485-.11.066-.287.088-.551.088h-2.427c-.242 0-.441-.066-.551-.176-.132-.11-.221-.243-.265-.397l-3.22-14.094c-.022-.154-.044-.265-.044-.375 0-.265.154-.397.463-.397h2.316c.199 0 .331.066.441.198.11.133.177.265.199.397l2.051 9.485c.022.066.022.11.044.176s.044.132.088.199c.022 0 .066-.045.088-.133.023-.088.045-.154.067-.22l1.102-4.831c.023-.11.045-.242.045-.419 0-.154-.045-.397-.111-.728l-.772-3.352c-.022-.11-.044-.221-.044-.309 0-.309.155-.463.463-.463h2.316c.243 0 .419.066.508.176.044.067.088.199.132.442l1.742 8.403c.022.066.022.11.044.132.023.022.045.044.067.066.066-.066.11-.132.11-.198l.265-1.346 1.698-7.08c.066-.264.132-.419.22-.485.067-.066.199-.11.398-.11h2.293c.309 0 .464.132.464.419 0 .044-.023.154-.045.331l-3.396 13.961c-.066.287-.155.486-.265.596-.11.088-.265.132-.463.132h-2.448c-.199 0-.353-.066-.464-.22-.066-.066-.11-.199-.154-.353z"/><path d="m248.403 7.711v-6.771c0-.265.022-.441.088-.529.111-.155.353-.243.684-.243h1.654c.331 0 .552.066.64.198.088.111.132.309.132.574v13.895c0 .265-.022.441-.088.53-.11.154-.353.242-.684.242h-1.411c-.265 0-.441-.044-.552-.132-.044-.022-.11-.132-.176-.309l-3.573-7.874v7.543c0 .331-.066.552-.177.64-.132.088-.331.132-.595.132h-1.654c-.265 0-.442-.022-.53-.088-.154-.11-.242-.353-.242-.684v-13.895c0-.265.022-.441.088-.529.11-.155.353-.243.684-.243h1.72c.397 0 .662.176.816.529z"/><path d="m260.201 10.711v-9.771c0-.265.022-.441.088-.529.11-.155.353-.243.684-.243h1.72c.331 0 .551.066.64.198.088.111.132.309.132.574v9.749c0 .551.066.97.176 1.257.243.551.684.838 1.368.838.551 0 .948-.154 1.191-.485s.353-.86.353-1.61v-9.749c0-.265.022-.441.088-.529.11-.155.353-.243.684-.243h1.72c.331 0 .552.066.64.198.088.111.132.309.132.574v9.771c0 1.301-.242 2.36-.75 3.176-.772 1.257-2.139 1.897-4.058 1.897s-3.287-.618-4.058-1.875c-.508-.816-.75-1.875-.75-3.198z"/><path d="m272.574.168h4.014c2.206 0 3.75.573 4.654 1.742.595.772.882 1.765.882 2.978 0 1.5-.485 2.625-1.456 3.375-.992.749-2.271 1.124-3.859 1.124h-1.412c-.221 0-.331.111-.331.331v5.117c0 .331-.066.552-.176.64-.133.088-.331.132-.596.132h-1.72c-.265 0-.441-.022-.53-.088-.154-.11-.242-.353-.242-.684v-13.895c0-.265.022-.441.088-.529.11-.155.353-.243.684-.243zm2.735 6.352h1.279c.551 0 1.037-.154 1.434-.485.375-.331.573-.772.573-1.301 0-.508-.132-.905-.419-1.191-.353-.375-.882-.552-1.61-.552h-1.213c-.199 0-.287.088-.287.287v3.022c0 .154.088.22.243.22z"/></g><path d="m.066 181.328h471.878" fill="none"/><path d="m.066 181.328h471.878" fill="none" stroke="#000" stroke-width=".47"/><path d="m.066 176.358h471.878" fill="none"/><path d="m.066 176.358h471.878" fill="none" stroke="#000" stroke-width=".47"/><path d="m.066 171.388h471.878" fill="none"/><path d="m.066 171.388h471.878" fill="none" stroke="#000" stroke-width=".47"/><path d="m.066 166.417h471.878" fill="none"/><path d="m.066 166.417h471.878" fill="none" stroke="#000" stroke-width=".47"/><path d="m.066 161.447h471.878" fill="none"/><path d="m.066 161.447h471.878" fill="none" stroke="#000" stroke-width=".47"/><path d="m14.192 180.668.756 3.679c.039.218.059.417.059.616 0 1.948-1.988 3.579-4.135 3.579-.656 0-1.292-.159-1.889-.458 1.531-.159 2.684-1.093 2.684-2.465 0-1.213-.994-2.485-2.266-2.485-1.452 0-2.446 1.113-2.446 2.564 0 2.028 1.65 3.36 3.638 3.36 2.665 0 4.931-1.729 4.931-4.214 0-.557-.875-4.494-.855-4.354 2.128-1.034 3.579-2.863 3.579-4.792 0-2.644-2.127-4.672-4.772-4.672-.039 0-.318.02-.795.059l-.875-4.195c2.963-2.505 4.315-5.169 4.315-8.091 0-2.247-.895-4.633-2.704-7.138-2.048 1.65-3.221 4.951-3.221 8.47 0 1.252.159 2.465.437 3.618-4.533 3.798-6.799 7.297-6.799 10.498 0 3.757 3.877 6.879 8.092 6.879.934 0 1.63-.139 2.266-.458zm-.06-26.124c.657.676.995 1.471.995 2.406 0 1.928-1.372 4.095-4.056 6.481-.14-.577-.179-1.213-.179-1.909 0-3.34 1.232-7.018 2.883-7.018.139 0 .258.02.357.04zm.418 25.309-1.412-6.64c.279-.02.438-.04.497-.04 1.71 0 2.903 1.61 2.903 3.261 0 1.312-.696 2.465-1.988 3.419zm-1.909-6.561 1.432 6.84c-.696.377-1.471.536-2.406.536-3.221 0-6.004-2.405-6.004-5.328 0-2.644 1.968-5.368 5.686-8.151l.835 3.976c-2.068.437-3.817 2.187-3.817 4.155 0 1.67 1.193 2.843 2.982 3.122-1.093-.676-1.63-1.531-1.63-2.545 0-1.372 1.272-2.386 2.922-2.605z" fill-rule="nonzero"/><path d="m50.858 165.175h62.906v2.485h-62.906z"/><path d="m50.858 161.447h62.906v2.485h-62.906z"/><path d="m134.733 167.66 20.969-4.971v-2.485l-20.969 4.971z"/><path d="m134.733 163.932 20.969-4.97v-2.486l-20.969 4.971z"/><path d="m377.848 178.987c0 .398.338.756.776.756.437 0 .775-.358.775-.756 0-.437-.338-.775-.775-.775-.438 0-.776.338-.776.775z" fill-rule="nonzero"/><path d="m360.887 162.689 6.213.311v-2.485l-6.213-.311z"/><path d="m360.887 158.962 20.969 1.242v-2.485l-20.969-1.243z"/><path d="m.066 245.788h471.878" fill="none"/><path d="m.066 245.788h471.878" fill="none" stroke="#000" stroke-width=".47"/><path d="m.066 240.818h471.878" fill="none"/><path d="m.066 240.818h471.878" fill="none" stroke="#000" stroke-width=".47"/><path d="m.066 235.848h471.878" fill="none"/><path d="m.066 235.848h471.878" fill="none" stroke="#000" stroke-width=".47"/><path d="m.066 230.877h471.878" fill="none"/><path d="m.066 230.877h471.878" fill="none" stroke="#000" stroke-width=".47"/><path d="m.066 225.907h471.878" fill="none"/><path d="m.066 225.907h471.878" fill="none" stroke="#000" stroke-width=".47"/><path d="m14.192 245.128.756 3.679c.039.218.059.417.059.616 0 1.948-1.988 3.579-4.135 3.579-.656 0-1.292-.159-1.889-.458 1.531-.159 2.684-1.093 2.684-2.465 0-1.213-.994-2.485-2.266-2.485-1.452 0-2.446 1.113-2.446 2.564 0 2.028 1.65 3.36 3.638 3.36 2.665 0 4.931-1.729 4.931-4.214 0-.557-.875-4.494-.855-4.354 2.128-1.034 3.579-2.863 3.579-4.792 0-2.644-2.127-4.672-4.772-4.672-.039 0-.318.02-.795.059l-.875-4.195c2.963-2.505 4.315-5.169 4.315-8.091 0-2.247-.895-4.633-2.704-7.138-2.048 1.65-3.221 4.951-3.221 8.47 0 1.252.159 2.465.437 3.618-4.533 3.798-6.799 7.297-6.799 10.498 0 3.757 3.877 6.879 8.092 6.879.934 0 1.63-.139 2.266-.458zm-.06-26.124c.657.676.995 1.471.995 2.406 0 1.928-1.372 4.095-4.056 6.481-.14-.577-.179-1.213-.179-1.909 0-3.34 1.232-7.018 2.883-7.018.139 0 .258.02.357.04zm.418 25.309-1.412-6.64c.279-.02.438-.04.497-.04 1.71 0 2.903 1.61 2.903 3.261 0 1.312-.696 2.465-1.988 3.419zm-1.909-6.561 1.432 6.84c-.696.377-1.471.536-2.406.536-3.221 0-6.004-2.405-6.004-5.328 0-2.644 1.968-5.368 5.686-8.151l.835 3.976c-2.068.437-3.817 2.187-3.817 4.155 0 1.67 1.193 2.843 2.982 3.122-1.093-.676-1.63-1.531-1.63-2.545 0-1.372 1.272-2.386 2.922-2.605z" fill-rule="nonzero"/><path d="m52.721 229.635h62.597v2.485h-62.597z"/><path d="m52.721 225.907h62.597v2.485h-62.597z"/><path d="m136.131 232.12 20.969-4.971v-2.485l-20.969 4.971z"/><path d="m136.131 228.392 20.969-4.97v-2.486l-20.969 4.971z"/><path d="m378.314 243.447c0 .398.338.756.776.756.437 0 .775-.358.775-.756 0-.437-.338-.775-.775-.775-.438 0-.776.338-.776.775z" fill-rule="nonzero"/><path d="m361.508 227.149 6.213.311v-2.485l-6.213-.311z"/><path d="m361.508 223.422 20.814 1.242v-2.485l-20.814-1.243z"/><path d="m.066 310.404h471.878" fill="none"/><path d="m.066 310.404h471.878" fill="none" stroke="#000" stroke-width=".47"/><path d="m.066 305.433h471.878" fill="none"/><path d="m.066 305.433h471.878" fill="none" stroke="#000" stroke-width=".47"/><path d="m.066 300.463h471.878" fill="none"/><path d="m.066 300.463h471.878" fill="none" stroke="#000" stroke-width=".47"/><path d="m.066 295.493h471.878" fill="none"/><path d="m.066 295.493h471.878" fill="none" stroke="#000" stroke-width=".47"/><path d="m.066 290.522h471.878" fill="none"/><path d="m.066 290.522h471.878" fill="none" stroke="#000" stroke-width=".47"/><path d="m14.192 309.744.756 3.678c.039.219.059.417.059.616 0 1.949-1.988 3.579-4.135 3.579-.656 0-1.292-.159-1.889-.457 1.531-.159 2.684-1.094 2.684-2.466 0-1.213-.994-2.485-2.266-2.485-1.452 0-2.446 1.113-2.446 2.565 0 2.028 1.65 3.36 3.638 3.36 2.665 0 4.931-1.73 4.931-4.215 0-.557-.875-4.493-.855-4.354 2.128-1.034 3.579-2.863 3.579-4.792 0-2.644-2.127-4.672-4.772-4.672-.039 0-.318.02-.795.06l-.875-4.195c2.963-2.505 4.315-5.169 4.315-8.092 0-2.247-.895-4.632-2.704-7.138-2.048 1.651-3.221 4.951-3.221 8.47 0 1.253.159 2.465.437 3.618-4.533 3.798-6.799 7.297-6.799 10.498 0 3.758 3.877 6.879 8.092 6.879.934 0 1.63-.139 2.266-.457zm-.06-26.125c.657.676.995 1.472.995 2.406 0 1.928-1.372 4.096-4.056 6.481-.14-.576-.179-1.212-.179-1.908 0-3.34 1.232-7.018 2.883-7.018.139 0 .258.019.357.039zm.418 25.31-1.412-6.641c.279-.02.438-.04.497-.04 1.71 0 2.903 1.611 2.903 3.261 0 1.312-.696 2.465-1.988 3.42zm-1.909-6.561 1.432 6.839c-.696.378-1.471.537-2.406.537-3.221 0-6.004-2.406-6.004-5.329 0-2.644 1.968-5.368 5.686-8.151l.835 3.976c-2.068.438-3.817 2.187-3.817 4.156 0 1.67 1.193 2.843 2.982 3.121-1.093-.676-1.63-1.531-1.63-2.545 0-1.372 1.272-2.386 2.922-2.604z" fill-rule="nonzero"/><path d="m52.1 294.25h72.382v2.485h-72.382z"/><path d="m52.1 290.522h72.382v2.485h-72.382z"/><path d="m148.712 296.735 24.076 4.971v-2.486l-24.076-4.97z"/><path d="m148.712 293.007 24.076 4.971v-2.485l-24.076-4.971z"/><path d="m228.55 300.463 24.075 1.243v-2.486l-24.075-1.242z"/><path d="m228.55 296.735 24.075 1.243v-2.485l-24.075-1.243z"/><path d="m402.825 295.449h5.586v2.386h-5.586z" fill-rule="nonzero"/><path d="m.066 375.019h471.878" fill="none"/><path d="m.066 375.019h471.878" fill="none" stroke="#000" stroke-width=".47"/><path d="m.066 370.049h471.878" fill="none"/><path d="m.066 370.049h471.878" fill="none" stroke="#000" stroke-width=".47"/><path d="m.066 365.078h471.878" fill="none"/><path d="m.066 365.078h471.878" fill="none" stroke="#000" stroke-width=".47"/><path d="m.066 360.108h471.878" fill="none"/><path d="m.066 360.108h471.878" fill="none" stroke="#000" stroke-width=".47"/><path d="m.066 355.137h471.878" fill="none"/><path d="m.066 355.137h471.878" fill="none" stroke="#000" stroke-width=".47"/><path d="m14.192 374.359.756 3.678c.039.219.059.418.059.617 0 1.948-1.988 3.578-4.135 3.578-.656 0-1.292-.159-1.889-.457 1.531-.159 2.684-1.094 2.684-2.465 0-1.213-.994-2.486-2.266-2.486-1.452 0-2.446 1.114-2.446 2.565 0 2.028 1.65 3.36 3.638 3.36 2.665 0 4.931-1.73 4.931-4.215 0-.556-.875-4.493-.855-4.354 2.128-1.034 3.579-2.863 3.579-4.791 0-2.645-2.127-4.672-4.772-4.672-.039 0-.318.019-.795.059l-.875-4.195c2.963-2.505 4.315-5.169 4.315-8.092 0-2.246-.895-4.632-2.704-7.137-2.048 1.65-3.221 4.95-3.221 8.469 0 1.253.159 2.466.437 3.619-4.533 3.797-6.799 7.296-6.799 10.497 0 3.758 3.877 6.879 8.092 6.879.934 0 1.63-.139 2.266-.457zm-.06-26.124c.657.676.995 1.471.995 2.405 0 1.929-1.372 4.096-4.056 6.482-.14-.577-.179-1.213-.179-1.909 0-3.34 1.232-7.018 2.883-7.018.139 0 .258.02.357.04zm.418 25.309-1.412-6.641c.279-.019.438-.039.497-.039 1.71 0 2.903 1.61 2.903 3.26 0 1.313-.696 2.466-1.988 3.42zm-1.909-6.561 1.432 6.839c-.696.378-1.471.537-2.406.537-3.221 0-6.004-2.406-6.004-5.328 0-2.644 1.968-5.368 5.686-8.152l.835 3.977c-2.068.437-3.817 2.187-3.817 4.155 0 1.67 1.193 2.843 2.982 3.121-1.093-.676-1.63-1.531-1.63-2.544 0-1.372 1.272-2.386 2.922-2.605z" fill-rule="nonzero"/><path d="m129.452 352.652h60.577v2.485h-60.577z"/><path d="m129.452 348.924h60.577v2.486h-60.577z"/><path d="m309.629 356.225 6.214.155v-2.485l-6.214-.155z"/><path d="m289.437 351.41 26.406 1.242v-2.485l-26.406-1.243z"/><path d="m329.511 373.777h60.577v2.485h-60.577z"/><path d="m329.511 377.504h60.577v2.486h-60.577z"/><path d="m.066 439.634h471.878" fill="none"/><path d="m.066 439.634h471.878" fill="none" stroke="#000" stroke-width=".47"/><path d="m.066 434.664h471.878" fill="none"/><path d="m.066 434.664h471.878" fill="none" stroke="#000" stroke-width=".47"/><path d="m.066 429.694h471.878" fill="none"/><path d="m.066 429.694h471.878" fill="none" stroke="#000" stroke-width=".47"/><path d="m.066 424.723h471.878" fill="none"/><path d="m.066 424.723h471.878" fill="none" stroke="#000" stroke-width=".47"/><path d="m.066 419.753h471.878" fill="none"/><path d="m.066 419.753h471.878" fill="none" stroke="#000" stroke-width=".47"/><path d="m14.192 438.974.756 3.679c.039.218.059.417.059.616 0 1.948-1.988 3.579-4.135 3.579-.656 0-1.292-.159-1.889-.458 1.531-.159 2.684-1.093 2.684-2.465 0-1.213-.994-2.485-2.266-2.485-1.452 0-2.446 1.113-2.446 2.564 0 2.028 1.65 3.36 3.638 3.36 2.665 0 4.931-1.729 4.931-4.214 0-.557-.875-4.494-.855-4.355 2.128-1.033 3.579-2.862 3.579-4.791 0-2.644-2.127-4.672-4.772-4.672-.039 0-.318.02-.795.059l-.875-4.195c2.963-2.505 4.315-5.169 4.315-8.091 0-2.247-.895-4.633-2.704-7.138-2.048 1.65-3.221 4.951-3.221 8.47 0 1.252.159 2.465.437 3.618-4.533 3.798-6.799 7.297-6.799 10.498 0 3.757 3.877 6.879 8.092 6.879.934 0 1.63-.139 2.266-.458zm-.06-26.124c.657.676.995 1.471.995 2.406 0 1.928-1.372 4.095-4.056 6.481-.14-.577-.179-1.213-.179-1.909 0-3.34 1.232-7.018 2.883-7.018.139 0 .258.02.357.04zm.418 25.309-1.412-6.64c.279-.02.438-.04.497-.04 1.71 0 2.903 1.61 2.903 3.261 0 1.312-.696 2.465-1.988 3.419zm-1.909-6.561 1.432 6.84c-.696.377-1.471.536-2.406.536-3.221 0-6.004-2.405-6.004-5.328 0-2.644 1.968-5.368 5.686-8.151l.835 3.976c-2.068.437-3.817 2.187-3.817 4.155 0 1.67 1.193 2.843 2.982 3.122-1.093-.676-1.63-1.531-1.63-2.545 0-1.372 1.272-2.386 2.922-2.605z" fill-rule="nonzero"/><path d="m135.51 417.268h64.77v2.485h-64.77z"/><path d="m135.51 413.54h64.77v2.485h-64.77z"/><path d="m328.113 420.84 6.213.155v-2.485l-6.213-.155z"/><path d="m306.057 416.025 28.269 1.243v-2.486l-28.269-1.242z"/><path d="m355.916 416.025 28.27 4.97v-2.485l-28.27-4.97z"/><path d="m.066 504.25h471.878" fill="none"/><path d="m.066 504.25h471.878" fill="none" stroke="#000" stroke-width=".47"/><path d="m.066 499.279h471.878" fill="none"/><path d="m.066 499.279h471.878" fill="none" stroke="#000" stroke-width=".47"/><path d="m.066 494.309h471.878" fill="none"/><path d="m.066 494.309h471.878" fill="none" stroke="#000" stroke-width=".47"/><path d="m.066 489.339h471.878" fill="none"/><path d="m.066 489.339h471.878" fill="none" stroke="#000" stroke-width=".47"/><path d="m.066 484.368h471.878" fill="none"/><path d="m.066 484.368h471.878" fill="none" stroke="#000" stroke-width=".47"/><path d="m14.192 503.59.756 3.678c.039.219.059.417.059.616 0 1.949-1.988 3.579-4.135 3.579-.656 0-1.292-.159-1.889-.457 1.531-.159 2.684-1.094 2.684-2.466 0-1.212-.994-2.485-2.266-2.485-1.452 0-2.446 1.113-2.446 2.565 0 2.028 1.65 3.36 3.638 3.36 2.665 0 4.931-1.73 4.931-4.215 0-.557-.875-4.493-.855-4.354 2.128-1.034 3.579-2.863 3.579-4.792 0-2.644-2.127-4.672-4.772-4.672-.039 0-.318.02-.795.06l-.875-4.195c2.963-2.505 4.315-5.169 4.315-8.092 0-2.247-.895-4.632-2.704-7.138-2.048 1.651-3.221 4.951-3.221 8.47 0 1.253.159 2.465.437 3.618-4.533 3.798-6.799 7.297-6.799 10.498 0 3.758 3.877 6.879 8.092 6.879.934 0 1.63-.139 2.266-.457zm-.06-26.125c.657.676.995 1.472.995 2.406 0 1.928-1.372 4.096-4.056 6.481-.14-.576-.179-1.212-.179-1.908 0-3.34 1.232-7.018 2.883-7.018.139 0 .258.019.357.039zm.418 25.31-1.412-6.641c.279-.02.438-.04.497-.04 1.71 0 2.903 1.611 2.903 3.261 0 1.312-.696 2.465-1.988 3.42zm-1.909-6.561 1.432 6.839c-.696.378-1.471.537-2.406.537-3.221 0-6.004-2.406-6.004-5.329 0-2.644 1.968-5.368 5.686-8.151l.835 3.976c-2.068.438-3.817 2.187-3.817 4.156 0 1.67 1.193 2.843 2.982 3.121-1.093-.676-1.63-1.531-1.63-2.545 0-1.372 1.272-2.386 2.922-2.604z" fill-rule="nonzero"/><path d="m128.986 481.883h60.732v2.485h-60.732z"/><path d="m128.986 478.155h60.732v2.485h-60.732z"/><path d="m309.319 485.455 6.213.156v-2.485l-6.213-.156z"/><path d="m289.127 480.64 26.405 1.243v-2.485l-26.405-1.243z"/><path d="m329.201 503.007h60.732v2.485h-60.732z"/><path d="m329.201 506.735h60.732v2.485h-60.732z"/><path d="m.066 568.865h471.878" fill="none"/><path d="m.066 568.865h471.878" fill="none" stroke="#000" stroke-width=".47"/><path d="m.066 563.895h471.878" fill="none"/><path d="m.066 563.895h471.878" fill="none" stroke="#000" stroke-width=".47"/><path d="m.066 558.924h471.878" fill="none"/><path d="m.066 558.924h471.878" fill="none" stroke="#000" stroke-width=".47"/><path d="m.066 553.954h471.878" fill="none"/><path d="m.066 553.954h471.878" fill="none" stroke="#000" stroke-width=".47"/><path d="m.066 548.983h471.878" fill="none"/><path d="m.066 548.983h471.878" fill="none" stroke="#000" stroke-width=".47"/><path d="m14.192 568.205.756 3.678c.039.219.059.418.059.617 0 1.948-1.988 3.578-4.135 3.578-.656 0-1.292-.159-1.889-.457 1.531-.159 2.684-1.094 2.684-2.465 0-1.213-.994-2.486-2.266-2.486-1.452 0-2.446 1.114-2.446 2.565 0 2.028 1.65 3.36 3.638 3.36 2.665 0 4.931-1.73 4.931-4.215 0-.556-.875-4.493-.855-4.354 2.128-1.034 3.579-2.863 3.579-4.791 0-2.645-2.127-4.672-4.772-4.672-.039 0-.318.019-.795.059l-.875-4.195c2.963-2.505 4.315-5.169 4.315-8.092 0-2.246-.895-4.632-2.704-7.137-2.048 1.65-3.221 4.95-3.221 8.469 0 1.253.159 2.466.437 3.619-4.533 3.797-6.799 7.296-6.799 10.497 0 3.758 3.877 6.879 8.092 6.879.934 0 1.63-.139 2.266-.457zm-.06-26.124c.657.676.995 1.471.995 2.405 0 1.929-1.372 4.096-4.056 6.482-.14-.577-.179-1.213-.179-1.909 0-3.34 1.232-7.018 2.883-7.018.139 0 .258.02.357.04zm.418 25.309-1.412-6.641c.279-.019.438-.039.497-.039 1.71 0 2.903 1.61 2.903 3.26 0 1.313-.696 2.466-1.988 3.42zm-1.909-6.561 1.432 6.839c-.696.378-1.471.537-2.406.537-3.221 0-6.004-2.406-6.004-5.328 0-2.644 1.968-5.368 5.686-8.152l.835 3.977c-2.068.437-3.817 2.187-3.817 4.155 0 1.67 1.193 2.843 2.982 3.121-1.093-.676-1.63-1.531-1.63-2.544 0-1.372 1.272-2.386 2.922-2.605z" fill-rule="nonzero"/><path d="m131.471 546.498h64.15v2.485h-64.15z"/><path d="m131.471 542.77h64.15v2.486h-64.15z"/><path d="m322.056 550.071 6.213.155v-2.485l-6.213-.155z"/><path d="m300.31 545.256 27.959 1.242v-2.485l-27.959-1.243z"/><path d="m349.703 545.256 27.804 4.97v-2.485l-27.804-4.971z"/><path d="m185.835 104.343h5.587v2.386h-5.587z" fill-rule="nonzero"/><path d="m283.706 103.388c-1.292.895-2.207 1.333-2.743 1.333-.12 0-.239-.02-.338-.04.198-.378.298-.736.298-1.034 0-.656-.358-.974-1.074-.974-.735 0-1.391.457-1.391 1.173 0 .855.616 1.272 1.868 1.272.716 0 1.531-.159 2.466-.497l-2.028 4.513c-.815.299-1.352.458-1.611.458-.139 0-.298 0-.437-.02.199-.378.298-.696.298-.994 0-.617-.377-.935-1.113-.935-.756 0-1.491.457-1.491 1.114 0 .914.616 1.371 1.829 1.371.755 0 1.531-.159 2.306-.497l-2.903 6.522h.915z" fill-rule="nonzero"/><path d="m312.736 105.996v-13.98" fill="none"/><path d="m312.736 105.996v-13.98" fill="none" stroke="#000" stroke-width=".47"/><path d="m308.284 109.313c2.048 0 4.573-1.71 4.573-3.459 0-1.054-.935-1.73-2.267-1.73-2.008 0-4.533 1.67-4.533 3.46 0 1.093.974 1.729 2.227 1.729z" fill-rule="nonzero"/><path d="m300.155 110.367 2.803-2.068c1.233-.894 1.71-1.908 1.75-2.664 0-1.113-1.014-1.948-2.207-1.948-.835 0-1.452.318-1.849.974l.139-6.263h-.636zm1.849-5.885c.636 0 1.113.457 1.113 1.074 0 1.033-1.372 3.022-2.406 3.678-.059-.338-.099-.994-.099-1.969 0-.536.04-1.192.119-1.948.298-.557.716-.835 1.273-.835z" fill-rule="nonzero"/><path d="m342.248 108.481v-15.222" fill="none"/><path d="m342.248 108.481v-15.222" fill="none" stroke="#000" stroke-width=".47"/><path d="m337.796 111.798c2.047 0 4.572-1.709 4.572-3.459 0-1.054-.934-1.73-2.266-1.73-2.008 0-4.533 1.67-4.533 3.46 0 1.093.974 1.729 2.227 1.729z" fill-rule="nonzero"/><path d="m329.666 112.852 2.804-2.068c1.232-.894 1.71-1.908 1.749-2.664 0-1.113-1.014-1.948-2.206-1.948-.836 0-1.452.318-1.849.974l.139-6.263h-.637zm1.849-5.885c.637 0 1.114.457 1.114 1.074 0 1.034-1.372 3.022-2.406 3.678-.059-.338-.099-.994-.099-1.968 0-.537.04-1.193.119-1.949.298-.556.716-.835 1.272-.835z" fill-rule="nonzero"/><path d="m374.4 107.549v16.62" fill="none"/><path d="m374.4 107.549v16.62" fill="none" stroke="#000" stroke-width=".47"/><path d="m376.472 109.313c2.047 0 4.572-1.71 4.572-3.459 0-1.054-.934-1.73-2.266-1.73-2.008 0-4.533 1.67-4.533 3.46 0 1.093.974 1.729 2.227 1.729z" fill-rule="nonzero"/><path d="m374.444 124.105c.179 0 .278 0 .258-.02-.02-.04-.02-.099-.02-.159 0-.059 0-.119.02-.179.616-1.55 1.312-2.942 2.187-4.016.716-.875 1.531-1.67 2.267-2.545.775-.914 1.133-1.988 1.133-3.002 0-.537-.06-1.054-.199-1.59-.258-1.014-1.054-2.963-1.531-2.963-.059 0-.079.06-.079.179 0 .1.039.239.119.378.696 1.292 1.034 2.386 1.034 3.241 0 1.212-.457 2.326-1.312 3.28-.179.179-.756.656-1.73 1.432-1.233.994-1.312 1.014-2.147 1.014z" fill-rule="nonzero"/><path d="m420.082 103.388c-1.292.895-2.207 1.333-2.744 1.333-.119 0-.238-.02-.338-.04.199-.378.299-.736.299-1.034 0-.656-.358-.974-1.074-.974-.736 0-1.392.457-1.392 1.173 0 .855.617 1.272 1.869 1.272.716 0 1.531-.159 2.465-.497l-2.027 4.513c-.816.299-1.352.458-1.611.458-.139 0-.298 0-.437-.02.199-.378.298-.696.298-.994 0-.617-.378-.935-1.113-.935-.756 0-1.492.457-1.492 1.114 0 .914.617 1.371 1.83 1.371.755 0 1.53-.159 2.306-.497l-2.903 6.522h.915z" fill-rule="nonzero"/><path d="m449.112 115.936v-16.619" fill="none"/><path d="m449.112 115.936v-16.619" fill="none" stroke="#000" stroke-width=".47"/><path d="m444.659 119.254c2.048 0 4.573-1.71 4.573-3.459 0-1.054-.934-1.73-2.266-1.73-2.008 0-4.533 1.67-4.533 3.459 0 1.094.974 1.73 2.226 1.73z" fill-rule="nonzero"/><path d="m453.35 114.482c.398 0 .954-1.709.954-2.445v-.099c-.019-.597-.079-1.054-.218-1.392.218-.438.318-1.014.318-1.75 0-1.014-.278-2.067-.875-2.863-.616-.815-1.332-1.511-1.909-2.306-1.133-1.392-1.868-2.744-2.206-3.996-.06-.239-.04-.358-.199-.358h-.06v8.748c.716 0 .895.079 1.909.855 2.107 1.65 2.485 2.087 2.525 3.042 0 .715-.398 2.107-.398 2.405 0 .1.06.159.159.159zm.378-5.368c0 .179 0 .358-.02.557-.338-.676-1.948-2.107-2.107-2.306-.696-.855-1.273-1.849-1.77-2.982 1.014.318 3.022 2.306 3.102 2.405.536.656.795 1.432.795 2.326z" fill-rule="nonzero"/><path d="m50.858 178.067v-16.465" fill="none"/><path d="m50.858 178.067v-16.465" fill="none" stroke="#000" stroke-width=".47"/><path d="m46.405 181.384c2.048 0 4.573-1.71 4.573-3.459 0-1.054-.934-1.73-2.266-1.73-2.008 0-4.533 1.67-4.533 3.459 0 1.094.974 1.73 2.226 1.73z" fill-rule="nonzero"/><path d="m71.826 180.552v-18.95" fill="none"/><path d="m71.826 180.552v-18.95" fill="none" stroke="#000" stroke-width=".47"/><path d="m67.374 183.869c2.048 0 4.573-1.709 4.573-3.459 0-1.054-.934-1.73-2.267-1.73-2.008 0-4.533 1.67-4.533 3.46 0 1.093.975 1.729 2.227 1.729z" fill-rule="nonzero"/><path d="m92.795 178.067v-16.465" fill="none"/><path d="m92.795 178.067v-16.465" fill="none" stroke="#000" stroke-width=".47"/><path d="m88.343 181.384c2.048 0 4.573-1.71 4.573-3.459 0-1.054-.935-1.73-2.267-1.73-2.008 0-4.533 1.67-4.533 3.459 0 1.094.975 1.73 2.227 1.73z" fill-rule="nonzero"/><path d="m113.764 180.552v-18.95" fill="none"/><path d="m113.764 180.552v-18.95" fill="none" stroke="#000" stroke-width=".47"/><path d="m109.312 183.869c2.048 0 4.573-1.709 4.573-3.459 0-1.054-.935-1.73-2.267-1.73-2.008 0-4.533 1.67-4.533 3.46 0 1.093.975 1.729 2.227 1.729z" fill-rule="nonzero"/><path d="m134.733 178.067v-16.465" fill="none"/><path d="m134.733 178.067v-16.465" fill="none" stroke="#000" stroke-width=".47"/><path d="m130.281 181.384c2.048 0 4.573-1.71 4.573-3.459 0-1.054-.935-1.73-2.267-1.73-2.008 0-4.533 1.67-4.533 3.459 0 1.094.974 1.73 2.227 1.73z" fill-rule="nonzero"/><path d="m155.702 173.096v-16.464" fill="none"/><path d="m155.702 173.096v-16.464" fill="none" stroke="#000" stroke-width=".47"/><path d="m151.25 176.414c2.048 0 4.573-1.71 4.573-3.46 0-1.053-.935-1.729-2.267-1.729-2.008 0-4.533 1.67-4.533 3.459 0 1.094.974 1.73 2.227 1.73z" fill-rule="nonzero"/><path d="m143.121 177.467 2.803-2.067c1.233-.895 1.71-1.909 1.75-2.664 0-1.114-1.014-1.949-2.207-1.949-.835 0-1.452.318-1.849.974l.139-6.262h-.636zm1.849-5.884c.636 0 1.113.457 1.113 1.073 0 1.034-1.372 3.022-2.406 3.678-.059-.338-.099-.994-.099-1.968 0-.537.04-1.193.119-1.948.299-.557.716-.835 1.273-.835z" fill-rule="nonzero"/><path d="m175.261 168.083c-1.014.895-1.969 1.332-2.823 1.332-.12 0-.199-.019-.259-.059.219-.398.318-.736.318-1.034 0-.656-.378-.974-1.133-.974-.656 0-1.372.437-1.372 1.014 0 .974.616 1.451 1.849 1.451.676 0 1.531-.179 2.565-.517l-3.181 6.998h.835z" fill-rule="nonzero"/><path d="m197.329 168.958h5.587v2.386h-5.587z" fill-rule="nonzero"/><path d="m269.09 168.958h5.586v2.386h-5.586z" fill-rule="nonzero"/><path d="m340.555 168.004c-1.292.894-2.206 1.332-2.743 1.332-.12 0-.239-.02-.338-.04.199-.378.298-.736.298-1.034 0-.656-.358-.974-1.074-.974-.735 0-1.391.457-1.391 1.173 0 .855.616 1.273 1.869 1.273.715 0 1.53-.16 2.465-.498l-2.028 4.514c-.815.298-1.352.457-1.61.457-.14 0-.299 0-.438-.02.199-.378.298-.696.298-.994 0-.616-.377-.935-1.113-.935-.756 0-1.491.458-1.491 1.114 0 .914.616 1.372 1.829 1.372.755 0 1.531-.159 2.306-.497l-2.902 6.521h.914z" fill-rule="nonzero"/><path d="m360.887 170.611v-13.979" fill="none"/><path d="m360.887 170.611v-13.979" fill="none" stroke="#000" stroke-width=".47"/><path d="m356.435 173.929c2.047 0 4.572-1.71 4.572-3.46 0-1.054-.934-1.73-2.266-1.73-2.008 0-4.533 1.67-4.533 3.46 0 1.093.974 1.73 2.227 1.73z" fill-rule="nonzero"/><path d="m348.306 174.982 2.803-2.067c1.232-.895 1.71-1.909 1.749-2.665 0-1.113-1.014-1.948-2.206-1.948-.835 0-1.452.318-1.849.974l.139-6.262h-.636zm1.849-5.885c.636 0 1.113.458 1.113 1.074 0 1.034-1.372 3.022-2.406 3.678-.059-.338-.099-.994-.099-1.968 0-.537.04-1.193.119-1.949.298-.556.716-.835 1.273-.835z" fill-rule="nonzero"/><path d="m381.856 173.096v-15.222" fill="none"/><path d="m381.856 173.096v-15.222" fill="none" stroke="#000" stroke-width=".47"/><path d="m377.404 176.414c2.047 0 4.572-1.71 4.572-3.46 0-1.053-.934-1.729-2.266-1.729-2.008 0-4.533 1.67-4.533 3.459 0 1.094.974 1.73 2.227 1.73z" fill-rule="nonzero"/><path d="m369.274 177.467 2.804-2.067c1.232-.895 1.71-1.909 1.749-2.664 0-1.114-1.014-1.949-2.207-1.949-.835 0-1.451.318-1.849.974l.14-6.262h-.637zm1.849-5.884c.637 0 1.114.457 1.114 1.073 0 1.034-1.372 3.022-2.406 3.678-.06-.338-.099-.994-.099-1.968 0-.537.039-1.193.119-1.948.298-.557.716-.835 1.272-.835z" fill-rule="nonzero"/><path d="m402.825 172.164v16.62" fill="none"/><path d="m402.825 172.164v16.62" fill="none" stroke="#000" stroke-width=".47"/><path d="m404.896 173.929c2.048 0 4.573-1.71 4.573-3.46 0-1.054-.935-1.73-2.267-1.73-2.008 0-4.533 1.67-4.533 3.46 0 1.093.975 1.73 2.227 1.73z" fill-rule="nonzero"/><path d="m402.868 188.72c.179 0 .279 0 .259-.019-.02-.04-.02-.1-.02-.159 0-.06 0-.12.02-.179.616-1.551 1.312-2.943 2.187-4.016.715-.875 1.531-1.671 2.266-2.545.776-.915 1.133-1.988 1.133-3.002 0-.537-.059-1.054-.198-1.591-.259-1.014-1.054-2.962-1.531-2.962-.06 0-.08.059-.08.179 0 .099.04.238.119.377.696 1.293 1.034 2.386 1.034 3.241 0 1.213-.457 2.326-1.312 3.281-.179.178-.755.656-1.73 1.431-1.232.994-1.312 1.014-2.147 1.014z" fill-rule="nonzero"/><path d="m437.323 168.004c-1.292.894-2.207 1.332-2.744 1.332-.119 0-.238-.02-.338-.04.199-.378.299-.736.299-1.034 0-.656-.358-.974-1.074-.974-.736 0-1.392.457-1.392 1.173 0 .855.617 1.273 1.869 1.273.716 0 1.531-.16 2.466-.498l-2.028 4.514c-.816.298-1.352.457-1.611.457-.139 0-.298 0-.437-.02.199-.378.298-.696.298-.994 0-.616-.378-.935-1.113-.935-.756 0-1.491.458-1.491 1.114 0 .914.616 1.372 1.829 1.372.755 0 1.531-.159 2.306-.497l-2.903 6.521h.915z" fill-rule="nonzero"/><path d="m457.655 180.552v-16.62" fill="none"/><path d="m457.655 180.552v-16.62" fill="none" stroke="#000" stroke-width=".47"/><path d="m453.202 183.869c2.048 0 4.573-1.709 4.573-3.459 0-1.054-.934-1.73-2.266-1.73-2.008 0-4.533 1.67-4.533 3.46 0 1.093.974 1.729 2.226 1.729z" fill-rule="nonzero"/><path d="m461.893 179.098c.398 0 .954-1.71.954-2.446v-.099c-.02-.597-.079-1.054-.218-1.392.218-.437.318-1.014.318-1.749 0-1.014-.279-2.068-.875-2.863-.616-.815-1.332-1.511-1.909-2.307-1.133-1.391-1.869-2.743-2.207-3.996-.059-.238-.039-.358-.198-.358h-.06v8.748c.716 0 .895.08 1.909.855 2.107 1.65 2.485 2.088 2.525 3.042 0 .716-.398 2.108-.398 2.406 0 .099.06.159.159.159zm.378-5.368c0 .179 0 .358-.02.556-.338-.676-1.948-2.107-2.108-2.306-.695-.855-1.272-1.849-1.769-2.982 1.014.318 3.022 2.306 3.102 2.406.536.656.795 1.431.795 2.326z" fill-rule="nonzero"/><path d="m52.721 242.527v-16.465" fill="none"/><path d="m52.721 242.527v-16.465" fill="none" stroke="#000" stroke-width=".47"/><path d="m48.269 245.844c2.048 0 4.573-1.71 4.573-3.459 0-1.054-.934-1.73-2.267-1.73-2.008 0-4.533 1.67-4.533 3.459 0 1.094.975 1.73 2.227 1.73z" fill-rule="nonzero"/><path d="m73.535 245.012v-18.95" fill="none"/><path d="m73.535 245.012v-18.95" fill="none" stroke="#000" stroke-width=".47"/><path d="m69.083 248.329c2.048 0 4.573-1.709 4.573-3.459 0-1.054-.935-1.73-2.267-1.73-2.008 0-4.533 1.67-4.533 3.46 0 1.093.974 1.729 2.227 1.729z" fill-rule="nonzero"/><path d="m94.504 242.527v-16.465" fill="none"/><path d="m94.504 242.527v-16.465" fill="none" stroke="#000" stroke-width=".47"/><path d="m90.052 245.844c2.048 0 4.572-1.71 4.572-3.459 0-1.054-.934-1.73-2.266-1.73-2.008 0-4.533 1.67-4.533 3.459 0 1.094.974 1.73 2.227 1.73z" fill-rule="nonzero"/><path d="m115.318 245.012v-18.95" fill="none"/><path d="m115.318 245.012v-18.95" fill="none" stroke="#000" stroke-width=".47"/><path d="m110.865 248.329c2.048 0 4.573-1.709 4.573-3.459 0-1.054-.934-1.73-2.266-1.73-2.008 0-4.533 1.67-4.533 3.46 0 1.093.974 1.729 2.226 1.729z" fill-rule="nonzero"/><path d="m136.131 242.527v-16.465" fill="none"/><path d="m136.131 242.527v-16.465" fill="none" stroke="#000" stroke-width=".47"/><path d="m131.679 245.844c2.048 0 4.573-1.71 4.573-3.459 0-1.054-.935-1.73-2.267-1.73-2.008 0-4.533 1.67-4.533 3.459 0 1.094.974 1.73 2.227 1.73z" fill-rule="nonzero"/><path d="m157.1 237.556v-16.464" fill="none"/><path d="m157.1 237.556v-16.464" fill="none" stroke="#000" stroke-width=".47"/><path d="m152.648 240.874c2.048 0 4.573-1.71 4.573-3.46 0-1.053-.935-1.729-2.267-1.729-2.008 0-4.533 1.67-4.533 3.459 0 1.094.974 1.73 2.227 1.73z" fill-rule="nonzero"/><path d="m144.519 241.927 2.803-2.067c1.233-.895 1.71-1.909 1.75-2.664 0-1.114-1.014-1.949-2.207-1.949-.835 0-1.452.318-1.849.974l.139-6.262h-.636zm1.849-5.884c.636 0 1.113.457 1.113 1.073 0 1.034-1.372 3.022-2.406 3.678-.059-.338-.099-.994-.099-1.968 0-.537.04-1.193.119-1.948.299-.557.716-.835 1.273-.835z" fill-rule="nonzero"/><path d="m176.503 232.543c-1.014.895-1.968 1.332-2.823 1.332-.119 0-.199-.019-.258-.059.218-.398.318-.736.318-1.034 0-.656-.378-.974-1.134-.974-.656 0-1.371.437-1.371 1.014 0 .974.616 1.451 1.849 1.451.676 0 1.531-.179 2.564-.517l-3.181 6.998h.835z" fill-rule="nonzero"/><path d="m198.572 233.418h5.587v2.386h-5.587z" fill-rule="nonzero"/><path d="m270.022 233.418h5.586v2.386h-5.586z" fill-rule="nonzero"/><path d="m341.177 232.464c-1.293.895-2.207 1.332-2.744 1.332-.119 0-.239-.02-.338-.04.199-.378.298-.735.298-1.034 0-.656-.358-.974-1.073-.974-.736 0-1.392.457-1.392 1.173 0 .855.616 1.273 1.869 1.273.716 0 1.531-.16 2.465-.498l-2.028 4.514c-.815.298-1.352.457-1.61.457-.139 0-.298 0-.438-.02.199-.378.299-.696.299-.994 0-.616-.378-.934-1.114-.934-.755 0-1.491.457-1.491 1.113 0 .914.616 1.372 1.829 1.372.756 0 1.531-.159 2.307-.497l-2.903 6.521h.914z" fill-rule="nonzero"/><path d="m361.508 235.071v-13.979" fill="none"/><path d="m361.508 235.071v-13.979" fill="none" stroke="#000" stroke-width=".47"/><path d="m357.056 238.389c2.048 0 4.573-1.71 4.573-3.46 0-1.054-.935-1.73-2.267-1.73-2.008 0-4.533 1.671-4.533 3.46 0 1.093.974 1.73 2.227 1.73z" fill-rule="nonzero"/><path d="m348.927 239.442 2.803-2.067c1.233-.895 1.71-1.909 1.75-2.665 0-1.113-1.014-1.948-2.207-1.948-.835 0-1.451.318-1.849.974l.139-6.262h-.636zm1.849-5.885c.636 0 1.113.458 1.113 1.074 0 1.034-1.372 3.022-2.405 3.678-.06-.338-.1-.994-.1-1.968 0-.537.04-1.193.119-1.949.299-.556.716-.835 1.273-.835z" fill-rule="nonzero"/><path d="m382.322 237.556v-15.222" fill="none"/><path d="m382.322 237.556v-15.222" fill="none" stroke="#000" stroke-width=".47"/><path d="m377.87 240.874c2.047 0 4.572-1.71 4.572-3.46 0-1.053-.934-1.729-2.266-1.729-2.008 0-4.533 1.67-4.533 3.459 0 1.094.974 1.73 2.227 1.73z" fill-rule="nonzero"/><path d="m369.74 241.927 2.804-2.067c1.232-.895 1.71-1.909 1.749-2.664 0-1.114-1.014-1.949-2.207-1.949-.835 0-1.451.318-1.849.974l.14-6.262h-.637zm1.849-5.884c.637 0 1.114.457 1.114 1.073 0 1.034-1.372 3.022-2.406 3.678-.06-.338-.099-.994-.099-1.968 0-.537.039-1.193.119-1.948.298-.557.716-.835 1.272-.835z" fill-rule="nonzero"/><path d="m403.135 236.624v16.62" fill="none"/><path d="m403.135 236.624v16.62" fill="none" stroke="#000" stroke-width=".47"/><path d="m405.207 238.389c2.048 0 4.573-1.71 4.573-3.46 0-1.054-.935-1.73-2.267-1.73-2.008 0-4.533 1.671-4.533 3.46 0 1.093.974 1.73 2.227 1.73z" fill-rule="nonzero"/><path d="m403.179 253.18c.179 0 .278 0 .258-.019-.02-.04-.02-.1-.02-.159 0-.06 0-.12.02-.179.617-1.551 1.313-2.943 2.187-4.016.716-.875 1.531-1.671 2.267-2.545.775-.915 1.133-1.988 1.133-3.002 0-.537-.06-1.054-.199-1.591-.258-1.014-1.053-2.962-1.531-2.962-.059 0-.079.059-.079.179 0 .099.04.238.119.377.696 1.293 1.034 2.386 1.034 3.241 0 1.213-.457 2.326-1.312 3.281-.179.178-.756.656-1.73 1.431-1.233.994-1.312 1.014-2.147 1.014z" fill-rule="nonzero"/><path d="m437.478 232.464c-1.292.895-2.206 1.332-2.743 1.332-.12 0-.239-.02-.338-.04.199-.378.298-.735.298-1.034 0-.656-.358-.974-1.074-.974-.735 0-1.391.457-1.391 1.173 0 .855.616 1.273 1.869 1.273.715 0 1.53-.16 2.465-.498l-2.028 4.514c-.815.298-1.352.457-1.61.457-.14 0-.299 0-.438-.02.199-.378.298-.696.298-.994 0-.616-.377-.934-1.113-.934-.756 0-1.491.457-1.491 1.113 0 .914.616 1.372 1.829 1.372.755 0 1.531-.159 2.306-.497l-2.902 6.521h.914z" fill-rule="nonzero"/><path d="m457.81 245.012v-16.62" fill="none"/><path d="m457.81 245.012v-16.62" fill="none" stroke="#000" stroke-width=".47"/><path d="m453.358 248.329c2.047 0 4.572-1.709 4.572-3.459 0-1.054-.934-1.73-2.266-1.73-2.008 0-4.533 1.67-4.533 3.46 0 1.093.974 1.729 2.227 1.729z" fill-rule="nonzero"/><path d="m462.048 243.558c.398 0 .955-1.71.955-2.446v-.099c-.02-.597-.08-1.054-.219-1.392.219-.437.318-1.014.318-1.749 0-1.014-.278-2.068-.875-2.863-.616-.815-1.332-1.511-1.908-2.307-1.134-1.391-1.869-2.743-2.207-3.996-.06-.238-.04-.358-.199-.358h-.06v8.748c.716 0 .895.08 1.909.855 2.107 1.65 2.485 2.088 2.525 3.042 0 .716-.398 2.108-.398 2.406 0 .099.06.159.159.159zm.378-5.368c0 .179 0 .358-.02.556-.338-.676-1.948-2.107-2.107-2.306-.696-.855-1.273-1.849-1.77-2.982 1.014.318 3.022 2.306 3.102 2.406.537.656.795 1.431.795 2.326z" fill-rule="nonzero"/><path d="m52.1 307.142v-16.465" fill="none"/><path d="m52.1 307.142v-16.465" fill="none" stroke="#000" stroke-width=".47"/><path d="m47.648 310.46c2.048 0 4.573-1.71 4.573-3.46 0-1.054-.935-1.73-2.267-1.73-2.008 0-4.533 1.67-4.533 3.46 0 1.093.974 1.73 2.227 1.73z" fill-rule="nonzero"/><path d="m76.176 309.627v-18.95" fill="none"/><path d="m76.176 309.627v-18.95" fill="none" stroke="#000" stroke-width=".47"/><path d="m71.723 312.945c2.048 0 4.573-1.71 4.573-3.46 0-1.053-.934-1.729-2.266-1.729-2.008 0-4.533 1.67-4.533 3.459 0 1.094.974 1.73 2.226 1.73z" fill-rule="nonzero"/><path d="m100.406 307.142v-16.465" fill="none"/><path d="m100.406 307.142v-16.465" fill="none" stroke="#000" stroke-width=".47"/><path d="m95.954 310.46c2.048 0 4.573-1.71 4.573-3.46 0-1.054-.935-1.73-2.267-1.73-2.008 0-4.533 1.67-4.533 3.46 0 1.093.975 1.73 2.227 1.73z" fill-rule="nonzero"/><path d="m124.482 309.627v-18.95" fill="none"/><path d="m124.482 309.627v-18.95" fill="none" stroke="#000" stroke-width=".47"/><path d="m120.029 312.945c2.048 0 4.573-1.71 4.573-3.46 0-1.053-.934-1.729-2.266-1.729-2.008 0-4.533 1.67-4.533 3.459 0 1.094.974 1.73 2.226 1.73z" fill-rule="nonzero"/><path d="m148.713 307.142v-16.465" fill="none"/><path d="m148.713 307.142v-16.465" fill="none" stroke="#000" stroke-width=".47"/><path d="m144.26 310.46c2.048 0 4.573-1.71 4.573-3.46 0-1.054-.934-1.73-2.266-1.73-2.009 0-4.533 1.67-4.533 3.46 0 1.093.974 1.73 2.226 1.73z" fill-rule="nonzero"/><path d="m172.788 312.112v-16.464" fill="none"/><path d="m172.788 312.112v-16.464" fill="none" stroke="#000" stroke-width=".47"/><path d="m168.336 315.43c2.047 0 4.572-1.71 4.572-3.459 0-1.054-.934-1.73-2.266-1.73-2.008 0-4.533 1.67-4.533 3.459 0 1.094.974 1.73 2.227 1.73z" fill-rule="nonzero"/><path d="m195.608 297.159c-1.014.894-1.968 1.332-2.823 1.332-.119 0-.199-.02-.258-.06.218-.398.318-.736.318-1.034 0-.656-.378-.974-1.133-.974-.657 0-1.372.437-1.372 1.014 0 .974.616 1.451 1.849 1.451.676 0 1.531-.179 2.564-.517l-3.181 6.999h.835z" fill-rule="nonzero"/><path d="m228.55 309.627v-15.222" fill="none"/><path d="m228.55 309.627v-15.222" fill="none" stroke="#000" stroke-width=".47"/><path d="m224.097 312.945c2.048 0 4.573-1.71 4.573-3.46 0-1.053-.934-1.729-2.266-1.729-2.008 0-4.533 1.67-4.533 3.459 0 1.094.974 1.73 2.226 1.73z" fill-rule="nonzero"/><path d="m215.968 313.998 2.804-2.067c1.232-.895 1.709-1.909 1.749-2.664 0-1.114-1.014-1.949-2.207-1.949-.835 0-1.451.318-1.849.974l.14-6.262h-.637zm1.849-5.885c.637 0 1.114.458 1.114 1.074 0 1.034-1.372 3.022-2.406 3.678-.06-.338-.099-.994-.099-1.968 0-.537.039-1.193.119-1.948.298-.557.716-.836 1.272-.836z" fill-rule="nonzero"/><path d="m252.625 312.112v-16.464" fill="none"/><path d="m252.625 312.112v-16.464" fill="none" stroke="#000" stroke-width=".47"/><path d="m248.173 315.43c2.048 0 4.573-1.71 4.573-3.459 0-1.054-.935-1.73-2.267-1.73-2.008 0-4.533 1.67-4.533 3.459 0 1.094.974 1.73 2.227 1.73z" fill-rule="nonzero"/><path d="m275.446 297.159c-1.014.894-1.969 1.332-2.824 1.332-.119 0-.198-.02-.258-.06.219-.398.318-.736.318-1.034 0-.656-.378-.974-1.133-.974-.656 0-1.372.437-1.372 1.014 0 .974.616 1.451 1.849 1.451.676 0 1.531-.179 2.565-.517l-3.181 6.999h.835z" fill-rule="nonzero"/><path d="m306.937 304.376c-.815-1.312-2.485-2.764-2.485-3.818 0-.695.616-1.789 1.868-3.3l-3.538-4.851c-.219.04-.338.119-.338.258 0-.019 1.451 1.73 1.451 2.784 0 1.034-.676 2.167-2.048 3.419 1.551 1.909 2.426 2.824 3.042 3.778-.418-.219-.815-.338-1.193-.338-1.213 0-1.988 1.153-1.988 2.326 0 1.432 2.386 3.161 2.843 3.161.08 0 .139-.039.159-.119-.835-.815-1.252-1.571-1.252-2.266 0-.915.775-1.432 1.789-1.432.537 0 1.113.139 1.69.398z" fill-rule="nonzero"/><path d="m47.44 365.855v16.62" fill="none"/><path d="m47.44 365.855v16.62" fill="none" stroke="#000" stroke-width=".47"/><path d="m49.512 367.619c2.048 0 4.573-1.71 4.573-3.459 0-1.054-.935-1.73-2.267-1.73-2.008 0-4.533 1.67-4.533 3.46 0 1.093.974 1.729 2.227 1.729z" fill-rule="nonzero"/><path d="m41.383 368.673 2.803-2.068c1.233-.894 1.71-1.908 1.75-2.664 0-1.113-1.014-1.948-2.207-1.948-.835 0-1.452.318-1.849.974l.139-6.263h-.636zm1.849-5.885c.636 0 1.113.457 1.113 1.074 0 1.033-1.372 3.022-2.406 3.678-.059-.338-.099-.994-.099-1.969 0-.536.04-1.192.119-1.948.298-.557.716-.835 1.273-.835z" fill-rule="nonzero"/><path d="m57.381 361.663c-.477 0-.914.418-.914.954 0 .458.457.895.914.895.537 0 .955-.437.955-.895 0-.536-.418-.954-.955-.954z" fill-rule="nonzero"/><path d="m103.202 371.757v-16.62" fill="none"/><path d="m103.202 371.757v-16.62" fill="none" stroke="#000" stroke-width=".47"/><path d="m98.75 375.075c2.048 0 4.573-1.71 4.573-3.46 0-1.053-.935-1.729-2.267-1.729-2.008 0-4.533 1.67-4.533 3.459 0 1.094.974 1.73 2.227 1.73z" fill-rule="nonzero"/><path d="m103.246 360.064c.994 0 1.332.378 1.908.795 1.611 1.134 2.426 2.386 2.426 3.778v.099c-.04 1.79-.06 1.929-.577 3.082-.079.179-.119.298-.119.378 0 .099.06.159.159.159.199 0 1.213-1.392 1.213-3.937v-.099c0-.855-.239-1.67-.716-2.426-.139-.238-.755-1.053-1.849-2.425-.855-1.094-1.59-2.446-2.187-4.016-.02-.06-.02-.12-.02-.179 0-.06 0-.12.02-.159.02-.02-.079-.02-.258-.02z" fill-rule="nonzero"/><path d="m129.452 366.787v-17.707" fill="none"/><path d="m129.452 366.787v-17.707" fill="none" stroke="#000" stroke-width=".47"/><path d="m125 370.104c2.048 0 4.573-1.709 4.573-3.459 0-1.054-.935-1.73-2.267-1.73-2.008 0-4.533 1.67-4.533 3.46 0 1.093.974 1.729 2.227 1.729z" fill-rule="nonzero"/><path d="m116.871 371.158 2.803-2.068c1.233-.894 1.71-1.908 1.75-2.664 0-1.113-1.014-1.948-2.207-1.948-.835 0-1.452.318-1.849.974l.139-6.263h-.636zm1.849-5.885c.636 0 1.113.457 1.113 1.074 0 1.034-1.372 3.022-2.406 3.678-.059-.338-.099-.994-.099-1.968 0-.537.04-1.193.119-1.949.299-.556.716-.835 1.273-.835z" fill-rule="nonzero"/><path d="m149.644 364.302v-15.222" fill="none"/><path d="m149.644 364.302v-15.222" fill="none" stroke="#000" stroke-width=".47"/><path d="m145.192 367.619c2.048 0 4.573-1.71 4.573-3.459 0-1.054-.934-1.73-2.267-1.73-2.008 0-4.533 1.67-4.533 3.46 0 1.093.975 1.729 2.227 1.729z" fill-rule="nonzero"/><path d="m169.837 366.787v-17.707" fill="none"/><path d="m169.837 366.787v-17.707" fill="none" stroke="#000" stroke-width=".47"/><path d="m165.385 370.104c2.047 0 4.572-1.709 4.572-3.459 0-1.054-.934-1.73-2.266-1.73-2.008 0-4.533 1.67-4.533 3.46 0 1.093.974 1.729 2.227 1.729z" fill-rule="nonzero"/><path d="m190.029 364.302v-15.222" fill="none"/><path d="m190.029 364.302v-15.222" fill="none" stroke="#000" stroke-width=".47"/><path d="m185.577 367.619c2.048 0 4.573-1.71 4.573-3.459 0-1.054-.935-1.73-2.267-1.73-2.008 0-4.533 1.67-4.533 3.46 0 1.093.974 1.729 2.227 1.729z" fill-rule="nonzero"/><path d="m208.811 361.774c-1.014.895-1.968 1.332-2.823 1.332-.12 0-.199-.02-.259-.06.219-.397.318-.735.318-1.033 0-.656-.377-.975-1.133-.975-.656 0-1.372.438-1.372 1.014 0 .975.617 1.452 1.849 1.452.676 0 1.531-.179 2.565-.517l-3.181 6.998h.835z" fill-rule="nonzero"/><path d="m210.843 361.663c-.478 0-.915.418-.915.954 0 .458.457.895.915.895.536 0 .954-.437.954-.895 0-.536-.418-.954-.954-.954z" fill-rule="nonzero"/><path d="m241.597 366.787v-16.62" fill="none"/><path d="m241.597 366.787v-16.62" fill="none" stroke="#000" stroke-width=".47"/><path d="m237.145 370.104c2.048 0 4.573-1.709 4.573-3.459 0-1.054-.935-1.73-2.267-1.73-2.008 0-4.533 1.67-4.533 3.46 0 1.093.974 1.729 2.227 1.729z" fill-rule="nonzero"/><path d="m245.836 365.333c.397 0 .954-1.71.954-2.446v-.099c-.02-.596-.08-1.054-.219-1.392.219-.437.318-1.014.318-1.749 0-1.014-.278-2.068-.875-2.863-.616-.815-1.332-1.511-1.908-2.307-1.133-1.391-1.869-2.743-2.207-3.996-.06-.238-.04-.358-.199-.358h-.059v8.748c.715 0 .894.08 1.908.855 2.108 1.65 2.485 2.088 2.525 3.042 0 .716-.398 2.108-.398 2.406 0 .099.06.159.16.159zm.377-5.368c0 .179 0 .358-.02.556-.338-.675-1.948-2.107-2.107-2.306-.696-.855-1.272-1.849-1.77-2.982 1.014.318 3.022 2.306 3.102 2.406.537.656.795 1.431.795 2.326z" fill-rule="nonzero"/><path d="m269.882 361.695c-1.292.894-2.206 1.332-2.743 1.332-.12 0-.239-.02-.338-.04.199-.378.298-.736.298-1.034 0-.656-.358-.974-1.074-.974-.735 0-1.391.457-1.391 1.173 0 .855.616 1.272 1.869 1.272.715 0 1.53-.159 2.465-.497l-2.028 4.513c-.815.299-1.352.458-1.61.458-.14 0-.299 0-.438-.02.199-.378.298-.696.298-.994 0-.617-.377-.935-1.113-.935-.756 0-1.491.457-1.491 1.114 0 .914.616 1.371 1.829 1.371.755 0 1.531-.159 2.306-.497l-2.903 6.522h.915z" fill-rule="nonzero"/><path d="m289.437 364.302v-15.222" fill="none"/><path d="m289.437 364.302v-15.222" fill="none" stroke="#000" stroke-width=".47"/><path d="m284.985 367.619c2.048 0 4.573-1.71 4.573-3.459 0-1.054-.935-1.73-2.267-1.73-2.008 0-4.533 1.67-4.533 3.46 0 1.093.974 1.729 2.227 1.729z" fill-rule="nonzero"/><path d="m276.856 368.673 2.803-2.068c1.233-.894 1.71-1.908 1.75-2.664 0-1.113-1.014-1.948-2.207-1.948-.835 0-1.451.318-1.849.974l.139-6.263h-.636zm1.849-5.885c.636 0 1.113.457 1.113 1.074 0 1.033-1.372 3.022-2.405 3.678-.06-.338-.1-.994-.1-1.969 0-.536.04-1.192.119-1.948.299-.557.716-.835 1.273-.835z" fill-rule="nonzero"/><path d="m315.843 366.787v-16.465" fill="none"/><path d="m315.843 366.787v-16.465" fill="none" stroke="#000" stroke-width=".47"/><path d="m311.39 370.104c2.048 0 4.573-1.709 4.573-3.459 0-1.054-.934-1.73-2.266-1.73-2.008 0-4.533 1.67-4.533 3.46 0 1.093.974 1.729 2.226 1.729z" fill-rule="nonzero"/><path d="m303.261 371.158 2.803-2.068c1.233-.894 1.71-1.908 1.75-2.664 0-1.113-1.014-1.948-2.207-1.948-.835 0-1.451.318-1.849.974l.139-6.263h-.636zm1.849-5.885c.636 0 1.114.457 1.114 1.074 0 1.034-1.372 3.022-2.406 3.678-.06-.338-.1-.994-.1-1.968 0-.537.04-1.193.12-1.949.298-.556.715-.835 1.272-.835z" fill-rule="nonzero"/><path d="m329.511 363.37v16.464" fill="none"/><path d="m329.511 363.37v16.464" fill="none" stroke="#000" stroke-width=".47"/><path d="m331.583 365.134c2.047 0 4.572-1.71 4.572-3.459 0-1.054-.934-1.73-2.266-1.73-2.008 0-4.533 1.67-4.533 3.459 0 1.094.974 1.73 2.227 1.73z" fill-rule="nonzero"/><path d="m326.427 363.941-1.909.636v-3.439l1.909-.636zm0-8.231v2.982l-1.909.637v-2.983h-.497v3.122l-1.033.338v1.809l1.033-.338v3.44l-1.033.338v1.809l1.033-.338v2.843h.497v-2.982l1.909-.637v2.983h.497v-3.122l1.034-.338v-1.809l-1.034.338v-3.44l1.034-.338v-1.809l-1.034.338v-2.843z" fill-rule="nonzero"/><path d="m349.703 360.885v18.949" fill="none"/><path d="m349.703 360.885v18.949" fill="none" stroke="#000" stroke-width=".47"/><path d="m351.775 362.649c2.048 0 4.573-1.71 4.573-3.46 0-1.053-.935-1.729-2.267-1.729-2.008 0-4.533 1.67-4.533 3.459 0 1.094.974 1.73 2.227 1.73z" fill-rule="nonzero"/><path d="m369.896 363.37v16.464" fill="none"/><path d="m369.896 363.37v16.464" fill="none" stroke="#000" stroke-width=".47"/><path d="m371.967 365.134c2.048 0 4.573-1.71 4.573-3.459 0-1.054-.934-1.73-2.267-1.73-2.008 0-4.533 1.67-4.533 3.459 0 1.094.975 1.73 2.227 1.73z" fill-rule="nonzero"/><path d="m390.088 360.885v18.949" fill="none"/><path d="m390.088 360.885v18.949" fill="none" stroke="#000" stroke-width=".47"/><path d="m392.159 362.649c2.048 0 4.573-1.71 4.573-3.46 0-1.053-.934-1.729-2.266-1.729-2.008 0-4.533 1.67-4.533 3.459 0 1.094.974 1.73 2.226 1.73z" fill-rule="nonzero"/><path d="m410.125 362.649h5.587v2.386h-5.587z" fill-rule="nonzero"/><path d="m48.062 430.47v16.62" fill="none"/><path d="m48.062 430.47v16.62" fill="none" stroke="#000" stroke-width=".47"/><path d="m50.133 432.235c2.048 0 4.573-1.71 4.573-3.46 0-1.054-.935-1.73-2.267-1.73-2.008 0-4.533 1.671-4.533 3.46 0 1.093.975 1.73 2.227 1.73z" fill-rule="nonzero"/><path d="m42.004 433.288 2.803-2.067c1.233-.895 1.71-1.909 1.75-2.665 0-1.113-1.014-1.948-2.207-1.948-.835 0-1.451.318-1.849.974l.139-6.262h-.636zm1.849-5.885c.636 0 1.113.458 1.113 1.074 0 1.034-1.371 3.022-2.405 3.678-.06-.338-.1-.994-.1-1.968 0-.537.04-1.193.12-1.949.298-.556.715-.835 1.272-.835z" fill-rule="nonzero"/><path d="m58.003 426.278c-.478 0-.915.418-.915.955 0 .457.457.894.915.894.536 0 .954-.437.954-.894 0-.537-.418-.955-.954-.955z" fill-rule="nonzero"/><path d="m107.241 436.373v-16.62" fill="none"/><path d="m107.241 436.373v-16.62" fill="none" stroke="#000" stroke-width=".47"/><path d="m102.788 439.69c2.048 0 4.573-1.71 4.573-3.459 0-1.054-.934-1.73-2.266-1.73-2.008 0-4.533 1.67-4.533 3.459 0 1.094.974 1.73 2.226 1.73z" fill-rule="nonzero"/><path d="m107.284 424.68c.994 0 1.332.377 1.909.795 1.61 1.133 2.425 2.386 2.425 3.777v.1c-.039 1.789-.059 1.928-.576 3.081-.08.179-.12.299-.12.378 0 .1.06.159.16.159.198 0 1.212-1.392 1.212-3.936v-.1c0-.855-.238-1.67-.715-2.425-.14-.239-.756-1.054-1.849-2.426-.855-1.093-1.591-2.445-2.187-4.016-.02-.06-.02-.119-.02-.179s0-.119.02-.159c.019-.02-.08-.02-.259-.02z" fill-rule="nonzero"/><path d="m135.51 431.402v-17.707" fill="none"/><path d="m135.51 431.402v-17.707" fill="none" stroke="#000" stroke-width=".47"/><path d="m131.058 434.72c2.047 0 4.572-1.71 4.572-3.46 0-1.053-.934-1.729-2.266-1.729-2.008 0-4.533 1.67-4.533 3.459 0 1.094.974 1.73 2.227 1.73z" fill-rule="nonzero"/><path d="m122.928 435.773 2.804-2.067c1.232-.895 1.71-1.909 1.749-2.664 0-1.114-1.014-1.949-2.206-1.949-.835 0-1.452.318-1.849.974l.139-6.262h-.637zm1.849-5.884c.637 0 1.114.457 1.114 1.073 0 1.034-1.372 3.022-2.406 3.678-.059-.338-.099-.994-.099-1.968 0-.537.04-1.193.119-1.948.298-.557.716-.835 1.272-.835z" fill-rule="nonzero"/><path d="m157.1 428.917v-15.222" fill="none"/><path d="m157.1 428.917v-15.222" fill="none" stroke="#000" stroke-width=".47"/><path d="m152.648 432.235c2.048 0 4.573-1.71 4.573-3.46 0-1.054-.935-1.73-2.267-1.73-2.008 0-4.533 1.671-4.533 3.46 0 1.093.974 1.73 2.227 1.73z" fill-rule="nonzero"/><path d="m178.69 431.402v-17.707" fill="none"/><path d="m178.69 431.402v-17.707" fill="none" stroke="#000" stroke-width=".47"/><path d="m174.238 434.72c2.048 0 4.573-1.71 4.573-3.46 0-1.053-.935-1.729-2.267-1.729-2.008 0-4.533 1.67-4.533 3.459 0 1.094.974 1.73 2.227 1.73z" fill-rule="nonzero"/><path d="m200.281 428.917v-15.222" fill="none"/><path d="m200.281 428.917v-15.222" fill="none" stroke="#000" stroke-width=".47"/><path d="m195.828 432.235c2.048 0 4.573-1.71 4.573-3.46 0-1.054-.934-1.73-2.266-1.73-2.009 0-4.533 1.671-4.533 3.46 0 1.093.974 1.73 2.226 1.73z" fill-rule="nonzero"/><path d="m220.46 426.389c-1.014.895-1.968 1.332-2.823 1.332-.119 0-.199-.019-.258-.059.218-.398.318-.736.318-1.034 0-.656-.378-.974-1.133-.974-.657 0-1.372.437-1.372 1.014 0 .974.616 1.451 1.849 1.451.676 0 1.531-.179 2.564-.517l-3.181 6.998h.835z" fill-rule="nonzero"/><path d="m222.492 426.278c-.477 0-.915.418-.915.955 0 .457.458.894.915.894.537 0 .954-.437.954-.894 0-.537-.417-.955-.954-.955z" fill-rule="nonzero"/><path d="m255.421 431.402v-16.62" fill="none"/><path d="m255.421 431.402v-16.62" fill="none" stroke="#000" stroke-width=".47"/><path d="m250.969 434.72c2.048 0 4.572-1.71 4.572-3.46 0-1.053-.934-1.729-2.266-1.729-2.008 0-4.533 1.67-4.533 3.459 0 1.094.974 1.73 2.227 1.73z" fill-rule="nonzero"/><path d="m259.66 429.948c.397 0 .954-1.71.954-2.445v-.1c-.02-.596-.08-1.053-.219-1.391.219-.438.318-1.014.318-1.75 0-1.014-.278-2.068-.875-2.863-.616-.815-1.332-1.511-1.908-2.306-1.133-1.392-1.869-2.744-2.207-3.996-.06-.239-.04-.358-.199-.358h-.06v8.748c.716 0 .895.079 1.909.855 2.108 1.65 2.485 2.087 2.525 3.041 0 .716-.398 2.108-.398 2.406 0 .1.06.159.16.159zm.377-5.368c0 .179 0 .358-.02.557-.338-.676-1.948-2.108-2.107-2.306-.696-.855-1.273-1.849-1.77-2.983 1.014.318 3.022 2.307 3.102 2.406.537.656.795 1.431.795 2.326z" fill-rule="nonzero"/><path d="m285.104 426.31c-1.292.895-2.207 1.332-2.743 1.332-.12 0-.239-.02-.338-.04.198-.378.298-.735.298-1.034 0-.656-.358-.974-1.074-.974-.735 0-1.391.457-1.391 1.173 0 .855.616 1.273 1.868 1.273.716 0 1.531-.16 2.466-.498l-2.028 4.514c-.815.298-1.352.457-1.611.457-.139 0-.298 0-.437-.02.199-.378.298-.696.298-.994 0-.616-.378-.934-1.113-.934-.756 0-1.491.457-1.491 1.113 0 .914.616 1.372 1.829 1.372.755 0 1.531-.159 2.306-.497l-2.903 6.521h.915z" fill-rule="nonzero"/><path d="m306.057 428.917v-15.222" fill="none"/><path d="m306.057 428.917v-15.222" fill="none" stroke="#000" stroke-width=".47"/><path d="m301.605 432.235c2.048 0 4.573-1.71 4.573-3.46 0-1.054-.935-1.73-2.267-1.73-2.008 0-4.533 1.671-4.533 3.46 0 1.093.974 1.73 2.227 1.73z" fill-rule="nonzero"/><path d="m293.476 433.288 2.803-2.067c1.233-.895 1.71-1.909 1.75-2.665 0-1.113-1.014-1.948-2.207-1.948-.835 0-1.452.318-1.849.974l.139-6.262h-.636zm1.849-5.885c.636 0 1.113.458 1.113 1.074 0 1.034-1.372 3.022-2.406 3.678-.059-.338-.099-.994-.099-1.968 0-.537.04-1.193.119-1.949.298-.556.716-.835 1.273-.835z" fill-rule="nonzero"/><path d="m334.326 431.402v-16.464" fill="none"/><path d="m334.326 431.402v-16.464" fill="none" stroke="#000" stroke-width=".47"/><path d="m329.874 434.72c2.048 0 4.573-1.71 4.573-3.46 0-1.053-.935-1.729-2.267-1.729-2.008 0-4.533 1.67-4.533 3.459 0 1.094.974 1.73 2.227 1.73z" fill-rule="nonzero"/><path d="m321.745 435.773 2.803-2.067c1.233-.895 1.71-1.909 1.75-2.664 0-1.114-1.014-1.949-2.207-1.949-.835 0-1.451.318-1.849.974l.139-6.262h-.636zm1.849-5.884c.636 0 1.113.457 1.113 1.073 0 1.034-1.372 3.022-2.405 3.678-.06-.338-.1-.994-.1-1.968 0-.537.04-1.193.119-1.948.299-.557.716-.835 1.273-.835z" fill-rule="nonzero"/><path d="m355.916 428.917v-15.222" fill="none"/><path d="m355.916 428.917v-15.222" fill="none" stroke="#000" stroke-width=".47"/><path d="m351.464 432.235c2.048 0 4.573-1.71 4.573-3.46 0-1.054-.934-1.73-2.267-1.73-2.008 0-4.533 1.671-4.533 3.46 0 1.093.975 1.73 2.227 1.73z" fill-rule="nonzero"/><path d="m375.643 444.605h10.562" fill="none"/><path d="m375.643 444.605h10.562" fill="none" stroke="#000" stroke-width=".78"/><path d="m384.186 446.313v-27.647" fill="none"/><path d="m384.186 446.313v-27.647" fill="none" stroke="#000" stroke-width=".47"/><path d="m379.733 449.631c2.048 0 4.573-1.71 4.573-3.459 0-1.054-.934-1.73-2.266-1.73-2.008 0-4.533 1.67-4.533 3.459 0 1.094.974 1.73 2.226 1.73z" fill-rule="nonzero"/><path d="m370.362 450.685 2.803-2.068c1.233-.895 1.71-1.909 1.75-2.664 0-1.113-1.014-1.949-2.207-1.949-.835 0-1.452.319-1.849.975l.139-6.263h-.636zm1.849-5.885c.636 0 1.113.457 1.113 1.073 0 1.034-1.372 3.022-2.406 3.678-.059-.338-.099-.994-.099-1.968 0-.537.04-1.193.119-1.948.299-.557.716-.835 1.273-.835z" fill-rule="nonzero"/><path d="m405.776 427.264h5.587v2.386h-5.587z" fill-rule="nonzero"/><path d="m46.819 495.086v16.619" fill="none"/><path d="m46.819 495.086v16.619" fill="none" stroke="#000" stroke-width=".47"/><path d="m48.891 496.85c2.047 0 4.572-1.71 4.572-3.46 0-1.053-.934-1.729-2.266-1.729-2.008 0-4.533 1.67-4.533 3.459 0 1.094.974 1.73 2.227 1.73z" fill-rule="nonzero"/><path d="m40.761 497.904 2.804-2.068c1.232-.895 1.71-1.909 1.749-2.664 0-1.114-1.014-1.949-2.207-1.949-.835 0-1.451.318-1.849.975l.14-6.263h-.637zm1.849-5.885c.637 0 1.114.457 1.114 1.073 0 1.034-1.372 3.022-2.406 3.678-.06-.338-.099-.994-.099-1.968 0-.537.039-1.193.119-1.948.298-.557.716-.835 1.272-.835z" fill-rule="nonzero"/><path d="m56.76 490.894c-.477 0-.915.417-.915.954 0 .457.458.895.915.895.537 0 .954-.438.954-.895 0-.537-.417-.954-.954-.954z" fill-rule="nonzero"/><path d="m102.581 500.988v-16.62" fill="none"/><path d="m102.581 500.988v-16.62" fill="none" stroke="#000" stroke-width=".47"/><path d="m98.129 504.306c2.047 0 4.572-1.71 4.572-3.46 0-1.054-.934-1.73-2.266-1.73-2.008 0-4.533 1.67-4.533 3.46 0 1.093.974 1.73 2.227 1.73z" fill-rule="nonzero"/><path d="m102.624 489.295c.994 0 1.332.378 1.909.795 1.61 1.133 2.426 2.386 2.426 3.778v.099c-.04 1.789-.06 1.929-.577 3.082-.08.179-.119.298-.119.377 0 .1.059.16.159.16.199 0 1.213-1.392 1.213-3.937v-.099c0-.855-.239-1.671-.716-2.426-.139-.239-.756-1.054-1.849-2.426-.855-1.093-1.591-2.445-2.187-4.016-.02-.059-.02-.119-.02-.179 0-.059 0-.119.02-.159.02-.02-.08-.02-.259-.02z" fill-rule="nonzero"/><path d="m128.986 496.018v-17.708" fill="none"/><path d="m128.986 496.018v-17.708" fill="none" stroke="#000" stroke-width=".47"/><path d="m124.534 499.335c2.048 0 4.573-1.71 4.573-3.459 0-1.054-.935-1.73-2.267-1.73-2.008 0-4.533 1.67-4.533 3.459 0 1.094.974 1.73 2.227 1.73z" fill-rule="nonzero"/><path d="m116.405 500.389 2.803-2.068c1.233-.895 1.71-1.908 1.75-2.664 0-1.113-1.014-1.948-2.207-1.948-.835 0-1.452.318-1.849.974l.139-6.263h-.636zm1.849-5.885c.636 0 1.113.457 1.113 1.073 0 1.034-1.372 3.022-2.405 3.679-.06-.338-.1-.994-.1-1.969 0-.537.04-1.193.119-1.948.299-.557.716-.835 1.273-.835z" fill-rule="nonzero"/><path d="m149.178 493.532v-15.222" fill="none"/><path d="m149.178 493.532v-15.222" fill="none" stroke="#000" stroke-width=".47"/><path d="m144.726 496.85c2.048 0 4.573-1.71 4.573-3.46 0-1.053-.934-1.729-2.267-1.729-2.008 0-4.533 1.67-4.533 3.459 0 1.094.975 1.73 2.227 1.73z" fill-rule="nonzero"/><path d="m169.526 496.018v-17.708" fill="none"/><path d="m169.526 496.018v-17.708" fill="none" stroke="#000" stroke-width=".47"/><path d="m165.074 499.335c2.048 0 4.573-1.71 4.573-3.459 0-1.054-.935-1.73-2.267-1.73-2.008 0-4.533 1.67-4.533 3.459 0 1.094.974 1.73 2.227 1.73z" fill-rule="nonzero"/><path d="m189.718 493.532v-15.222" fill="none"/><path d="m189.718 493.532v-15.222" fill="none" stroke="#000" stroke-width=".47"/><path d="m185.266 496.85c2.048 0 4.573-1.71 4.573-3.46 0-1.053-.935-1.729-2.267-1.729-2.008 0-4.533 1.67-4.533 3.459 0 1.094.975 1.73 2.227 1.73z" fill-rule="nonzero"/><path d="m208.5 491.005c-1.014.894-1.968 1.332-2.823 1.332-.119 0-.199-.02-.258-.06.218-.398.318-.736.318-1.034 0-.656-.378-.974-1.134-.974-.656 0-1.371.437-1.371 1.014 0 .974.616 1.451 1.849 1.451.676 0 1.531-.179 2.564-.517l-3.181 6.999h.835z" fill-rule="nonzero"/><path d="m210.532 490.894c-.477 0-.915.417-.915.954 0 .457.458.895.915.895.537 0 .954-.438.954-.895 0-.537-.417-.954-.954-.954z" fill-rule="nonzero"/><path d="m241.286 496.018v-16.62" fill="none"/><path d="m241.286 496.018v-16.62" fill="none" stroke="#000" stroke-width=".47"/><path d="m236.834 499.335c2.048 0 4.573-1.71 4.573-3.459 0-1.054-.935-1.73-2.267-1.73-2.008 0-4.533 1.67-4.533 3.459 0 1.094.975 1.73 2.227 1.73z" fill-rule="nonzero"/><path d="m245.525 494.564c.398 0 .954-1.71.954-2.446v-.099c-.02-.597-.079-1.054-.218-1.392.218-.437.318-1.014.318-1.75 0-1.014-.279-2.067-.875-2.863-.617-.815-1.332-1.511-1.909-2.306-1.133-1.392-1.869-2.744-2.207-3.996-.059-.239-.039-.358-.198-.358h-.06v8.748c.716 0 .895.08 1.908.855 2.108 1.65 2.486 2.087 2.525 3.042 0 .716-.397 2.107-.397 2.405 0 .1.059.16.159.16zm.378-5.369c0 .179 0 .358-.02.557-.338-.676-1.949-2.107-2.108-2.306-.696-.855-1.272-1.849-1.769-2.982 1.014.318 3.022 2.306 3.101 2.405.537.656.796 1.432.796 2.326z" fill-rule="nonzero"/><path d="m269.572 490.925c-1.293.895-2.207 1.332-2.744 1.332-.119 0-.239-.02-.338-.04.199-.377.298-.735.298-1.033 0-.656-.358-.975-1.073-.975-.736 0-1.392.458-1.392 1.173 0 .855.616 1.273 1.869 1.273.716 0 1.531-.159 2.465-.497l-2.028 4.513c-.815.298-1.352.457-1.61.457-.139 0-.298 0-.438-.02.199-.377.299-.696.299-.994 0-.616-.378-.934-1.114-.934-.755 0-1.491.457-1.491 1.113 0 .915.617 1.372 1.829 1.372.756 0 1.531-.159 2.307-.497l-2.903 6.521h.914z" fill-rule="nonzero"/><path d="m289.127 493.532v-15.222" fill="none"/><path d="m289.127 493.532v-15.222" fill="none" stroke="#000" stroke-width=".47"/><path d="m284.674 496.85c2.048 0 4.573-1.71 4.573-3.46 0-1.053-.934-1.729-2.266-1.729-2.008 0-4.533 1.67-4.533 3.459 0 1.094.974 1.73 2.226 1.73z" fill-rule="nonzero"/><path d="m276.545 497.904 2.804-2.068c1.232-.895 1.709-1.909 1.749-2.664 0-1.114-1.014-1.949-2.207-1.949-.835 0-1.451.318-1.849.975l.139-6.263h-.636zm1.849-5.885c.636 0 1.114.457 1.114 1.073 0 1.034-1.372 3.022-2.406 3.678-.06-.338-.099-.994-.099-1.968 0-.537.039-1.193.119-1.948.298-.557.716-.835 1.272-.835z" fill-rule="nonzero"/><path d="m315.532 496.018v-16.465" fill="none"/><path d="m315.532 496.018v-16.465" fill="none" stroke="#000" stroke-width=".47"/><path d="m311.08 499.335c2.047 0 4.572-1.71 4.572-3.459 0-1.054-.934-1.73-2.266-1.73-2.008 0-4.533 1.67-4.533 3.459 0 1.094.974 1.73 2.227 1.73z" fill-rule="nonzero"/><path d="m302.951 500.389 2.803-2.068c1.233-.895 1.71-1.908 1.749-2.664 0-1.113-1.014-1.948-2.206-1.948-.835 0-1.452.318-1.849.974l.139-6.263h-.636zm1.849-5.885c.636 0 1.113.457 1.113 1.073 0 1.034-1.372 3.022-2.406 3.679-.059-.338-.099-.994-.099-1.969 0-.537.04-1.193.119-1.948.298-.557.716-.835 1.273-.835z" fill-rule="nonzero"/><path d="m329.201 492.6v16.465" fill="none"/><path d="m329.201 492.6v16.465" fill="none" stroke="#000" stroke-width=".47"/><path d="m331.272 494.365c2.048 0 4.573-1.71 4.573-3.46 0-1.053-.935-1.729-2.267-1.729-2.008 0-4.533 1.67-4.533 3.459 0 1.093.974 1.73 2.227 1.73z" fill-rule="nonzero"/><path d="m326.116 493.172-1.908.636v-3.44l1.908-.636zm0-8.231v2.982l-1.908.636v-2.982h-.497v3.121l-1.034.338v1.81l1.034-.338v3.439l-1.034.338v1.809l1.034-.338v2.843h.497v-2.982l1.908-.636v2.982h.497v-3.121l1.034-.338v-1.809l-1.034.338v-3.44l1.034-.338v-1.809l-1.034.338v-2.843z" fill-rule="nonzero"/><path d="m349.393 490.115v18.95" fill="none"/><path d="m349.393 490.115v18.95" fill="none" stroke="#000" stroke-width=".47"/><path d="m351.464 491.879c2.048 0 4.573-1.709 4.573-3.459 0-1.054-.934-1.73-2.267-1.73-2.008 0-4.533 1.67-4.533 3.46 0 1.093.975 1.729 2.227 1.729z" fill-rule="nonzero"/><path d="m369.74 492.6v16.465" fill="none"/><path d="m369.74 492.6v16.465" fill="none" stroke="#000" stroke-width=".47"/><path d="m371.812 494.365c2.048 0 4.573-1.71 4.573-3.46 0-1.053-.935-1.729-2.267-1.729-2.008 0-4.533 1.67-4.533 3.459 0 1.093.974 1.73 2.227 1.73z" fill-rule="nonzero"/><path d="m389.933 490.115v18.95" fill="none"/><path d="m389.933 490.115v18.95" fill="none" stroke="#000" stroke-width=".47"/><path d="m392.004 491.879c2.048 0 4.573-1.709 4.573-3.459 0-1.054-.935-1.73-2.267-1.73-2.008 0-4.533 1.67-4.533 3.46 0 1.093.975 1.729 2.227 1.729z" fill-rule="nonzero"/><path d="m409.97 491.879h5.586v2.386h-5.586z" fill-rule="nonzero"/><path d="m44.955 559.701v16.62" fill="none"/><path d="m44.955 559.701v16.62" fill="none" stroke="#000" stroke-width=".47"/><path d="m47.027 561.465c2.047 0 4.572-1.71 4.572-3.459 0-1.054-.934-1.73-2.266-1.73-2.008 0-4.533 1.67-4.533 3.46 0 1.093.974 1.729 2.227 1.729z" fill-rule="nonzero"/><path d="m38.897 562.519 2.804-2.068c1.232-.894 1.71-1.908 1.749-2.664 0-1.113-1.014-1.948-2.206-1.948-.836 0-1.452.318-1.849.974l.139-6.263h-.637zm1.849-5.885c.637 0 1.114.457 1.114 1.074 0 1.033-1.372 3.022-2.406 3.678-.059-.338-.099-.994-.099-1.969 0-.536.04-1.192.119-1.948.298-.557.716-.835 1.272-.835z" fill-rule="nonzero"/><path d="m54.896 555.509c-.477 0-.915.418-.915.954 0 .458.458.895.915.895.537 0 .954-.437.954-.895 0-.536-.417-.954-.954-.954z" fill-rule="nonzero"/><path d="m103.513 565.603v-16.62" fill="none"/><path d="m103.513 565.603v-16.62" fill="none" stroke="#000" stroke-width=".47"/><path d="m99.061 568.921c2.047 0 4.572-1.71 4.572-3.46 0-1.053-.934-1.729-2.266-1.729-2.008 0-4.533 1.67-4.533 3.459 0 1.094.974 1.73 2.227 1.73z" fill-rule="nonzero"/><path d="m103.556 553.91c.994 0 1.332.378 1.909.795 1.61 1.134 2.426 2.386 2.426 3.778v.099c-.04 1.79-.06 1.929-.577 3.082-.08.179-.119.298-.119.378 0 .099.059.159.159.159.199 0 1.212-1.392 1.212-3.937v-.099c0-.855-.238-1.67-.715-2.426-.139-.238-.756-1.053-1.849-2.425-.855-1.094-1.591-2.446-2.187-4.016-.02-.06-.02-.12-.02-.179 0-.06 0-.12.02-.159.02-.02-.08-.02-.259-.02z" fill-rule="nonzero"/><path d="m131.471 560.633v-17.707" fill="none"/><path d="m131.471 560.633v-17.707" fill="none" stroke="#000" stroke-width=".47"/><path d="m127.019 563.95c2.048 0 4.573-1.709 4.573-3.459 0-1.054-.935-1.73-2.267-1.73-2.008 0-4.533 1.67-4.533 3.46 0 1.093.975 1.729 2.227 1.729z" fill-rule="nonzero"/><path d="m118.89 565.004 2.803-2.068c1.233-.894 1.71-1.908 1.75-2.664 0-1.113-1.014-1.948-2.207-1.948-.835 0-1.451.318-1.849.974l.139-6.263h-.636zm1.849-5.885c.636 0 1.113.457 1.113 1.074 0 1.034-1.371 3.022-2.405 3.678-.06-.338-.1-.994-.1-1.968 0-.537.04-1.193.12-1.949.298-.556.715-.835 1.272-.835z" fill-rule="nonzero"/><path d="m152.906 558.148v-15.222" fill="none"/><path d="m152.906 558.148v-15.222" fill="none" stroke="#000" stroke-width=".47"/><path d="m148.454 561.465c2.048 0 4.573-1.71 4.573-3.459 0-1.054-.935-1.73-2.267-1.73-2.008 0-4.533 1.67-4.533 3.46 0 1.093.974 1.729 2.227 1.729z" fill-rule="nonzero"/><path d="m174.186 560.633v-17.707" fill="none"/><path d="m174.186 560.633v-17.707" fill="none" stroke="#000" stroke-width=".47"/><path d="m169.734 563.95c2.047 0 4.572-1.709 4.572-3.459 0-1.054-.934-1.73-2.266-1.73-2.008 0-4.533 1.67-4.533 3.46 0 1.093.974 1.729 2.227 1.729z" fill-rule="nonzero"/><path d="m195.621 558.148v-15.222" fill="none"/><path d="m195.621 558.148v-15.222" fill="none" stroke="#000" stroke-width=".47"/><path d="m191.169 561.465c2.047 0 4.572-1.71 4.572-3.459 0-1.054-.934-1.73-2.266-1.73-2.008 0-4.533 1.67-4.533 3.46 0 1.093.974 1.729 2.227 1.729z" fill-rule="nonzero"/><path d="m215.645 555.62c-1.014.895-1.968 1.332-2.823 1.332-.119 0-.199-.02-.258-.06.218-.397.318-.735.318-1.033 0-.656-.378-.975-1.134-.975-.656 0-1.371.438-1.371 1.014 0 .975.616 1.452 1.849 1.452.676 0 1.531-.179 2.564-.517l-3.181 6.998h.835z" fill-rule="nonzero"/><path d="m217.677 555.509c-.477 0-.915.418-.915.954 0 .458.458.895.915.895.537 0 .954-.437.954-.895 0-.536-.417-.954-.954-.954z" fill-rule="nonzero"/><path d="m250.14 560.633v-16.62" fill="none"/><path d="m250.14 560.633v-16.62" fill="none" stroke="#000" stroke-width=".47"/><path d="m245.688 563.95c2.047 0 4.572-1.709 4.572-3.459 0-1.054-.934-1.73-2.266-1.73-2.008 0-4.533 1.67-4.533 3.46 0 1.093.974 1.729 2.227 1.729z" fill-rule="nonzero"/><path d="m254.378 559.179c.398 0 .955-1.71.955-2.446v-.099c-.02-.596-.08-1.054-.219-1.392.219-.437.318-1.014.318-1.749 0-1.014-.278-2.068-.875-2.863-.616-.815-1.332-1.511-1.908-2.307-1.134-1.391-1.869-2.743-2.207-3.996-.06-.238-.04-.358-.199-.358h-.06v8.748c.716 0 .895.08 1.909.855 2.108 1.65 2.485 2.088 2.525 3.042 0 .716-.398 2.108-.398 2.406 0 .099.06.159.159.159zm.378-5.368c0 .179 0 .358-.02.556-.338-.676-1.948-2.107-2.107-2.306-.696-.855-1.273-1.849-1.77-2.982 1.014.318 3.022 2.306 3.102 2.406.537.656.795 1.431.795 2.326z" fill-rule="nonzero"/><path d="m279.513 555.541c-1.293.894-2.207 1.332-2.744 1.332-.119 0-.239-.02-.338-.04.199-.378.298-.736.298-1.034 0-.656-.358-.974-1.073-.974-.736 0-1.392.457-1.392 1.173 0 .855.616 1.272 1.869 1.272.715 0 1.531-.159 2.465-.497l-2.028 4.513c-.815.299-1.352.458-1.61.458-.14 0-.299 0-.438-.02.199-.378.298-.696.298-.994 0-.617-.377-.935-1.113-.935-.755 0-1.491.457-1.491 1.114 0 .914.616 1.371 1.829 1.371.756 0 1.531-.159 2.306-.497l-2.902 6.522h.914z" fill-rule="nonzero"/><path d="m300.31 558.148v-15.222" fill="none"/><path d="m300.31 558.148v-15.222" fill="none" stroke="#000" stroke-width=".47"/><path d="m295.858 561.465c2.048 0 4.573-1.71 4.573-3.459 0-1.054-.935-1.73-2.267-1.73-2.008 0-4.533 1.67-4.533 3.46 0 1.093.974 1.729 2.227 1.729z" fill-rule="nonzero"/><path d="m287.729 562.519 2.803-2.068c1.233-.894 1.71-1.908 1.75-2.664 0-1.113-1.014-1.948-2.207-1.948-.835 0-1.452.318-1.849.974l.139-6.263h-.636zm1.849-5.885c.636 0 1.113.457 1.113 1.074 0 1.033-1.372 3.022-2.406 3.678-.059-.338-.099-.994-.099-1.969 0-.536.04-1.192.119-1.948.298-.557.716-.835 1.273-.835z" fill-rule="nonzero"/><path d="m328.269 560.633v-16.465" fill="none"/><path d="m328.269 560.633v-16.465" fill="none" stroke="#000" stroke-width=".47"/><path d="m323.816 563.95c2.048 0 4.573-1.709 4.573-3.459 0-1.054-.934-1.73-2.266-1.73-2.008 0-4.533 1.67-4.533 3.46 0 1.093.974 1.729 2.226 1.729z" fill-rule="nonzero"/><path d="m315.687 565.004 2.804-2.068c1.232-.894 1.709-1.908 1.749-2.664 0-1.113-1.014-1.948-2.207-1.948-.835 0-1.451.318-1.849.974l.139-6.263h-.636zm1.849-5.885c.636 0 1.114.457 1.114 1.074 0 1.034-1.372 3.022-2.406 3.678-.06-.338-.1-.994-.1-1.968 0-.537.04-1.193.12-1.949.298-.556.716-.835 1.272-.835z" fill-rule="nonzero"/><path d="m349.703 558.148v-15.222" fill="none"/><path d="m349.703 558.148v-15.222" fill="none" stroke="#000" stroke-width=".47"/><path d="m345.251 561.465c2.048 0 4.573-1.71 4.573-3.459 0-1.054-.934-1.73-2.267-1.73-2.008 0-4.533 1.67-4.533 3.46 0 1.093.975 1.729 2.227 1.729z" fill-rule="nonzero"/><path d="m368.964 573.836h10.562" fill="none"/><path d="m368.964 573.836h10.562" fill="none" stroke="#000" stroke-width=".78"/><path d="m377.507 575.544v-27.648" fill="none"/><path d="m377.507 575.544v-27.648" fill="none" stroke="#000" stroke-width=".47"/><path d="m373.054 578.862c2.048 0 4.573-1.71 4.573-3.46 0-1.053-.934-1.729-2.266-1.729-2.008 0-4.533 1.67-4.533 3.459 0 1.093.974 1.73 2.226 1.73z" fill-rule="nonzero"/><path d="m363.683 579.915 2.803-2.067c1.233-.895 1.71-1.909 1.75-2.664 0-1.114-1.014-1.949-2.207-1.949-.835 0-1.452.318-1.849.974l.139-6.262h-.636zm1.849-5.885c.636 0 1.113.458 1.113 1.074 0 1.034-1.372 3.022-2.406 3.678-.059-.338-.099-.994-.099-1.968 0-.537.04-1.193.119-1.949.299-.556.716-.835 1.273-.835z" fill-rule="nonzero"/><path d="m398.786 556.495h5.587v2.386h-5.587z" fill-rule="nonzero"/></svg>