<svg clip-rule="evenodd" fill-rule="evenodd" stroke-linejoin="round" stroke-miterlimit="2" viewBox="0 0 289 46" xmlns="http://www.w3.org/2000/svg"><path d="m283.992 17.43v19.837" fill="none" stroke="#000" stroke-width=".77"/><path d="m287.401 17.43v19.837" fill="none" stroke="#000" stroke-width="2.48"/><path d="m33.469 14.324c.064.176.16.24.272.24.239 0 .527-.287.702-.575.176-2.075.431-4.134.431-5.363 0-2.091-1.053-2.554-1.963-2.554-.527 0-1.022.143-1.229.223-.032.559-.208 1.58-.208 2.411.367-.032.479-.048.527-.048.064 0 .048.032.383.095-.639.336-1.181.479-1.596.479-.942 0-1.341-.734-1.341-1.66 0-.463.096-.99.287-1.5.192-.83 1.181-2.554 1.964-2.554.67 0 .782 2.155 1.628 2.155.399 0 .606-.463.606-1.293 0-1.964-.782-3.64-1.979-3.64-1.9 0-3.799 4.071-3.799 7.311 0 1.932.622 4.023 2.713 4.023.942 0 1.98-.543 2.81-1.996-.032 1.932-.176 3.097-.208 4.246z" fill-rule="nonzero"/><path d="m36.757 7.604c1.453-.08 2.379-2.362 2.379-4.406 0-1.5-.575-3.24-1.932-3.24-.894 0-1.468 1.468-1.468 2.506 0 1.341 1.229 2.378 2.171 2.378-.32.974-1.677.783-1.677 1.709 0 .462.176 1.053.527 1.053zm1.485-4.023c-.607-.047-1.596-.494-1.596-1.436v-.112c.127-.463.415-.639.702-.639.766 0 .942 1.278.942 1.772 0 .144-.016.288-.048.415z" fill-rule="nonzero"/><g fill="none"><path d="m.068 37.267h288.573" stroke="#000" stroke-width=".46"/><path d="m.068 32.308h288.573" stroke="#000" stroke-width=".46"/><path d="m.068 27.348h288.573" stroke="#000" stroke-width=".46"/><path d="m.068 22.389h288.573" stroke="#000" stroke-width=".46"/><path d="m.068 17.43h288.573" stroke="#000" stroke-width=".46"/></g><path d="m14.162 36.609.754 3.67c.04.218.06.416.06.615 0 1.944-1.984 3.57-4.127 3.57-.654 0-1.289-.158-1.884-.456 1.527-.159 2.678-1.091 2.678-2.46 0-1.21-.992-2.479-2.262-2.479-1.448 0-2.44 1.11-2.44 2.559 0 2.023 1.647 3.352 3.631 3.352 2.658 0 4.919-1.726 4.919-4.205 0-.556-.872-4.484-.853-4.345 2.123-1.031 3.571-2.856 3.571-4.781 0-2.638-2.122-4.661-4.761-4.661-.04 0-.317.019-.793.059l-.873-4.186c2.956-2.499 4.305-5.157 4.305-8.074 0-2.241-.893-4.622-2.698-7.121-2.044 1.646-3.214 4.939-3.214 8.451 0 1.249.159 2.459.436 3.61-4.523 3.789-6.784 7.28-6.784 10.474 0 3.749 3.868 6.864 8.074 6.864.932 0 1.627-.139 2.261-.456zm-.059-26.067c.654.675.992 1.468.992 2.401 0 1.924-1.369 4.086-4.047 6.467-.139-.576-.179-1.21-.179-1.905 0-3.333 1.23-7.002 2.877-7.002.139 0 .258.019.357.039zm.416 25.253-1.408-6.625c.278-.02.436-.04.496-.04 1.706 0 2.896 1.607 2.896 3.253 0 1.31-.694 2.46-1.984 3.412zm-1.904-6.546 1.428 6.824c-.694.377-1.468.536-2.4.536-3.214 0-5.991-2.401-5.991-5.317 0-2.638 1.964-5.356 5.674-8.133l.833 3.967c-2.063.437-3.809 2.182-3.809 4.146 0 1.667 1.19 2.837 2.976 3.115-1.092-.675-1.627-1.528-1.627-2.539 0-1.369 1.269-2.381 2.916-2.599z" fill-rule="nonzero"/><path d="m44.547 31.533v-16.583" fill="none" stroke="#000" stroke-width=".46"/><path d="m40.105 34.843c2.043 0 4.562-1.706 4.562-3.452 0-1.051-.932-1.725-2.261-1.725-2.004 0-4.523 1.666-4.523 3.451 0 1.091.972 1.726 2.222 1.726z" fill-rule="nonzero"/><path d="m74.923 29.053v-16.583" fill="none" stroke="#000" stroke-width=".46"/><path d="m70.481 32.363c2.043 0 4.563-1.706 4.563-3.451 0-1.052-.933-1.726-2.262-1.726-2.004 0-4.523 1.666-4.523 3.452 0 1.091.972 1.725 2.222 1.725z" fill-rule="nonzero"/><path d="m98.79 28.123v16.583" fill="none" stroke="#000" stroke-width=".46"/><path d="m100.857 29.884c2.043 0 4.563-1.706 4.563-3.452 0-1.051-.933-1.726-2.262-1.726-2.003 0-4.523 1.667-4.523 3.452 0 1.091.972 1.726 2.222 1.726z" fill-rule="nonzero"/><path d="m129.166 25.644v16.583" fill="none" stroke="#000" stroke-width=".46"/><path d="m131.233 27.404c2.043 0 4.563-1.706 4.563-3.452 0-1.051-.933-1.725-2.262-1.725-2.003 0-4.523 1.666-4.523 3.451 0 1.091.972 1.726 2.222 1.726z" fill-rule="nonzero"/><path d="m125.292 24.869c0-1.395.93-2.48 2.79-3.41-1.395.93-1.86 1.86-1.86 3.41 0 1.705.465 2.634 1.86 3.564-1.86-.93-2.79-2.014-2.79-3.564z"/><path d="m125.292 24.869c0-1.395.93-2.48 2.79-3.41-1.395.93-1.86 1.86-1.86 3.41 0 1.705.465 2.634 1.86 3.564-1.86-.93-2.79-2.014-2.79-3.564z" fill="none" stroke="#000" stroke-width=".15"/><path d="m128.082 21.459c-1.705.93-2.325 2.015-2.325 3.41 0 1.55.62 2.634 2.325 3.564" fill="none" stroke="#000" stroke-width=".31"/><path d="m139.55 24.869c0-1.395-.93-2.48-2.79-3.41 1.395.93 1.86 1.86 1.86 3.41 0 1.705-.465 2.634-1.86 3.564 1.86-.93 2.79-2.014 2.79-3.564z"/><path d="m139.55 24.869c0-1.395-.93-2.48-2.79-3.41 1.395.93 1.86 1.86 1.86 3.41 0 1.705-.465 2.634-1.86 3.564 1.86-.93 2.79-2.014 2.79-3.564z" fill="none" stroke="#000" stroke-width=".15"/><path d="m136.76 21.459c1.705.93 2.325 2.015 2.325 3.41 0 1.55-.62 2.634-2.325 3.564" fill="none" stroke="#000" stroke-width=".31"/><path d="m159.698 23.164v16.583" fill="none"/><path d="m159.698 23.164v16.583" fill="none" stroke="#000" stroke-width=".46"/><path d="m161.764 24.924c2.044 0 4.563-1.706 4.563-3.451 0-1.052-.932-1.726-2.262-1.726-2.003 0-4.522 1.666-4.522 3.452 0 1.091.972 1.725 2.221 1.725z" fill-rule="nonzero"/><path d="m190.074 20.684v16.583" fill="none"/><path d="m190.074 20.684v16.583" fill="none" stroke="#000" stroke-width=".46"/><path d="m192.14 22.445c2.044 0 4.563-1.706 4.563-3.452 0-1.051-.932-1.726-2.261-1.726-2.004 0-4.523 1.666-4.523 3.452 0 1.091.972 1.726 2.221 1.726z" fill-rule="nonzero"/><path d="m220.45 18.205v16.583" fill="none"/><path d="m220.45 18.205v16.583" fill="none" stroke="#000" stroke-width=".46"/><path d="m222.517 19.965c2.043 0 4.562-1.706 4.562-3.452 0-1.051-.932-1.726-2.261-1.726-2.004 0-4.523 1.667-4.523 3.452 0 1.091.972 1.726 2.222 1.726z" fill-rule="nonzero"/><path d="m250.826 15.725v16.583" fill="none"/><path d="m250.826 15.725v16.583" fill="none" stroke="#000" stroke-width=".46"/><path d="m252.893 17.485c2.043 0 4.562-1.706 4.562-3.451 0-1.052-.932-1.726-2.261-1.726-2.004 0-4.523 1.666-4.523 3.451 0 1.092.972 1.726 2.222 1.726z" fill-rule="nonzero"/></svg>