<svg clip-rule="evenodd" fill-rule="evenodd" stroke-linejoin="round" stroke-miterlimit="2" viewBox="0 0 245 44" xmlns="http://www.w3.org/2000/svg"><path d="m244.331 16.093v19.837" fill="none" stroke="#000" stroke-width=".77"/><path d="m34.386 7.069c-.239-.064-.447-.16-.654-.192.063 1.15.063 1.724.095 2.634.399.479 1.166.607 2.985.607.399 0 .83 0 1.325-.016 1.676-.67 2.522-3.927 2.522-6.689 0-3.607-1.213-4.405-3.064-4.405-1.405 0-2.491.814-3.688 2.266-.096.671-.016 1.405-.128 2.57.16 0 .399-.239.511-.319.032.527.128 1.676.128 2.698 0 .303-.016.591-.032.846zm.814-4.15c.894-.783 2.043-1.166 2.762-1.166.957 0 1.357 1.006 1.357 2.028 0 1.325-.926 3.671-2.938 3.671-.271 0-.558-.032-.894-.112.032-.431.064-.989.064-1.564 0-.958-.08-2.011-.351-2.857z" fill-rule="nonzero"/><path d="m41.744 4.483c.287.575.447 2.315.447 3.608 0 .51-.032.957-.08 1.229-.016.048-.016.08-.016.112 0 .431.527.734.926.734.224 0 .415-.096.431-.319.112-1.134.495-4.103 1.006-4.151.239-.032.351 2.443.415 3.863.016.399.431.591.83.591.367 0 .734-.16.75-.463.096-1.197 1.293-4.278 1.485-4.262.351.032.862 4.102.862 4.15.016.415.383.671.702.671.224 0 .431-.144.431-.463 0-1.357-.463-3.704-.83-5.172-.128-.479-.591-.974-1.069-.974-.352 0-.719.255-.958.942l-1.166 2.889c0-.399-.494-3.017-.526-3.208-.16-.639-.415-.91-.703-.91-.574 0-1.261 1.069-1.516 2.25-.032-.431-.463-1.356-.495-1.436-.08-.176-.192-.24-.335-.24-.272 0-.607.256-.607.479 0 .032 0 .064.016.08z" fill-rule="nonzero"/><g fill="none" stroke="#000" stroke-width=".46"><path d="m.082 35.93h244.559"/><path d="m.082 30.971h244.559"/><path d="m.082 26.012h244.559"/><path d="m.082 21.052h244.559"/><path d="m.082 16.093h244.559"/></g><path d="m14.177 35.272.754 3.67c.039.218.059.416.059.615 0 1.944-1.984 3.571-4.126 3.571-.655 0-1.29-.159-1.885-.457 1.528-.158 2.678-1.091 2.678-2.46 0-1.21-.992-2.479-2.261-2.479-1.448 0-2.44 1.111-2.44 2.559 0 2.023 1.646 3.352 3.63 3.352 2.658 0 4.92-1.726 4.92-4.205 0-.556-.873-4.483-.853-4.345 2.122-1.031 3.571-2.856 3.571-4.78 0-2.639-2.123-4.662-4.761-4.662-.04 0-.318.02-.794.059l-.873-4.185c2.956-2.5 4.305-5.158 4.305-8.074 0-2.242-.893-4.622-2.698-7.122-2.043 1.647-3.214 4.94-3.214 8.451 0 1.25.159 2.46.437 3.61-4.523 3.789-6.785 7.281-6.785 10.474 0 3.75 3.869 6.864 8.074 6.864.933 0 1.627-.139 2.262-.456zm-.06-26.067c.655.675.992 1.468.992 2.401 0 1.924-1.369 4.086-4.047 6.467-.139-.575-.178-1.21-.178-1.905 0-3.332 1.23-7.002 2.876-7.002.139 0 .258.02.357.039zm.417 25.254-1.409-6.626c.278-.02.437-.04.496-.04 1.706 0 2.897 1.607 2.897 3.254 0 1.309-.695 2.459-1.984 3.412zm-1.905-6.547 1.429 6.824c-.695.377-1.468.536-2.401.536-3.213 0-5.991-2.4-5.991-5.317 0-2.638 1.964-5.356 5.674-8.133l.833 3.968c-2.063.436-3.809 2.182-3.809 4.146 0 1.666 1.191 2.836 2.976 3.114-1.091-.674-1.627-1.527-1.627-2.539 0-1.369 1.27-2.381 2.916-2.599z" fill-rule="nonzero"/><path d="m44.562 37.635v-16.583" fill="none" stroke="#000" stroke-width=".46"/><path d="m40.119 40.945c2.043 0 4.563-1.706 4.563-3.451 0-1.052-.933-1.726-2.262-1.726-2.003 0-4.523 1.666-4.523 3.452 0 1.091.972 1.725 2.222 1.725z" fill-rule="nonzero"/><path d="m85.941 32.676v-16.583" fill="none" stroke="#000" stroke-width=".46"/><path d="m81.499 35.986c2.043 0 4.563-1.706 4.563-3.452 0-1.051-.933-1.726-2.262-1.726-2.004 0-4.523 1.667-4.523 3.452 0 1.091.972 1.726 2.222 1.726z" fill-rule="nonzero"/><path d="m127.321 30.196v-16.583" fill="none" stroke="#000" stroke-width=".46"/><path d="m122.879 33.506c2.043 0 4.562-1.706 4.562-3.451 0-1.052-.932-1.726-2.261-1.726-2.004 0-4.523 1.666-4.523 3.452 0 1.091.972 1.725 2.222 1.725z" fill-rule="nonzero"/><path d="m168.546 27.717v-16.583" fill="none" stroke="#000" stroke-width=".46"/><path d="m164.103 31.027c2.044 0 4.563-1.706 4.563-3.452 0-1.051-.932-1.726-2.261-1.726-2.004 0-4.523 1.666-4.523 3.452 0 1.091.972 1.726 2.221 1.726z" fill-rule="nonzero"/><path d="m203.416 24.307v16.583" fill="none" stroke="#000" stroke-width=".46"/><path d="m205.483 26.067c2.043 0 4.563-1.706 4.563-3.451 0-1.052-.933-1.726-2.262-1.726-2.003 0-4.523 1.666-4.523 3.451 0 1.092.972 1.726 2.222 1.726z" fill-rule="nonzero"/></svg>