<svg clip-rule="evenodd" fill-rule="evenodd" stroke-linejoin="round" stroke-miterlimit="2" viewBox="0 0 210 38" xmlns="http://www.w3.org/2000/svg"><g fill="none" stroke="#000"><path d="m206.337 9.537v19.837" stroke-width=".77"/><path d="m208.971 9.537v19.837" stroke-width=".77"/><path d="m.058 29.374h209.223" stroke-width=".46"/><path d="m.058 24.415h209.223" stroke-width=".46"/><path d="m.058 19.456h209.223" stroke-width=".46"/><path d="m.058 14.496h209.223" stroke-width=".46"/><path d="m.058 9.537h209.223" stroke-width=".46"/></g><path d="m14.152 28.716.754 3.67c.04.218.06.416.06.615 0 1.944-1.984 3.571-4.127 3.571-.654 0-1.289-.159-1.884-.457 1.527-.158 2.678-1.091 2.678-2.46 0-1.21-.992-2.479-2.262-2.479-1.448 0-2.44 1.111-2.44 2.559 0 2.023 1.647 3.352 3.631 3.352 2.658 0 4.919-1.726 4.919-4.205 0-.556-.873-4.484-.853-4.345 2.123-1.031 3.571-2.856 3.571-4.781 0-2.638-2.123-4.661-4.761-4.661-.04 0-.317.02-.793.059l-.873-4.186c2.956-2.499 4.304-5.157 4.304-8.073 0-2.242-.892-4.623-2.697-7.122-2.044 1.646-3.214 4.94-3.214 8.451 0 1.25.159 2.46.436 3.61-4.523 3.789-6.784 7.281-6.784 10.474 0 3.75 3.868 6.864 8.074 6.864.932 0 1.626-.139 2.261-.456zm-.059-26.067c.654.675.992 1.468.992 2.401 0 1.924-1.369 4.086-4.047 6.467-.139-.576-.179-1.21-.179-1.905 0-3.332 1.23-7.002 2.877-7.002.138 0 .258.02.357.039zm.416 25.254-1.408-6.626c.278-.02.436-.04.496-.04 1.706 0 2.896 1.607 2.896 3.253 0 1.31-.694 2.46-1.984 3.413zm-1.904-6.547 1.428 6.824c-.694.377-1.468.536-2.4.536-3.214 0-5.991-2.4-5.991-5.317 0-2.638 1.964-5.356 5.673-8.133l.834 3.968c-2.063.436-3.809 2.182-3.809 4.146 0 1.666 1.19 2.836 2.975 3.114-1.091-.674-1.626-1.527-1.626-2.539 0-1.369 1.269-2.381 2.916-2.599z" fill-rule="nonzero"/><path d="m44.537 31.079v-16.583" fill="none" stroke="#000" stroke-width=".46"/><path d="m40.095 34.389c2.043 0 4.562-1.706 4.562-3.451 0-1.052-.932-1.726-2.261-1.726-2.004 0-4.523 1.666-4.523 3.452 0 1.091.972 1.725 2.222 1.725z" fill-rule="nonzero"/><path d="m77.703 26.12v-16.583" fill="none" stroke="#000" stroke-width=".46"/><path d="m73.26 29.43c2.044 0 4.563-1.706 4.563-3.452 0-1.051-.932-1.726-2.261-1.726-2.004 0-4.523 1.667-4.523 3.452 0 1.091.972 1.726 2.221 1.726z" fill-rule="nonzero"/><path d="m110.714 23.64v-16.583" fill="none" stroke="#000" stroke-width=".46"/><path d="m106.271 26.95c2.044 0 4.563-1.706 4.563-3.451 0-1.052-.932-1.726-2.262-1.726-2.003 0-4.523 1.666-4.523 3.451 0 1.092.973 1.726 2.222 1.726z" fill-rule="nonzero"/><path d="m143.879 21.16v-16.582" fill="none" stroke="#000" stroke-width=".46"/><path d="m139.437 24.471c2.043 0 4.563-1.706 4.563-3.452 0-1.051-.933-1.726-2.262-1.726-2.003 0-4.523 1.666-4.523 3.452 0 1.091.972 1.726 2.222 1.726z" fill-rule="nonzero"/><path d="m170.381 17.751v16.583" fill="none" stroke="#000" stroke-width=".46"/><path d="m172.448 19.511c2.043 0 4.563-1.706 4.563-3.451 0-1.052-.933-1.726-2.262-1.726-2.004 0-4.523 1.666-4.523 3.451 0 1.091.972 1.726 2.222 1.726z" fill-rule="nonzero"/></svg>
