<svg clip-rule="evenodd" fill-rule="evenodd" stroke-linejoin="round" stroke-miterlimit="2" viewBox="0 0 246 45" xmlns="http://www.w3.org/2000/svg"><path d="m242.286 16.771v19.882" fill="none" stroke="#000" stroke-width=".78"/><path d="m244.927 16.771v19.882" fill="none" stroke="#000" stroke-width=".78"/><path d="m26.422.939c-.236 2.69-.473 7.088-.473 9.578 0 1.599.146 2.144.673 2.144.89 0 .6-3.162.781-3.853 2.89-1.326 3.453-.49 3.453-2.489v-.2c0-.564-.018-.836-.381-.836-.691 0-2.799.763-3.163.818v-.237c0-.708.109-1.799.128-2.435.981-.491 2.835-.581 3.689-.763.472-.073.509-1.163.509-1.963 0-.418-.109-.709-.891-.709-1.417 0-4.289.6-4.325.945z" fill-rule="nonzero"/><path d="m32.908 6.246c.327.654.509 2.635.509 4.107 0 .582-.036 1.09-.091 1.399-.018.055-.018.091-.018.128 0 .49.6.836 1.054.836.254 0 .472-.11.491-.364.127-1.29.563-4.67 1.145-4.725.272-.036.399 2.781.472 4.398.018.454.491.672.945.672.418 0 .836-.181.854-.527.109-1.363 1.472-4.87 1.69-4.852.4.036.982 4.671.982 4.725.018.473.436.763.799.763.255 0 .491-.163.491-.527 0-1.544-.527-4.216-.945-5.888-.146-.545-.673-1.108-1.218-1.108-.4 0-.818.291-1.09 1.072l-1.327 3.289c0-.454-.563-3.434-.599-3.653-.182-.726-.473-1.035-.8-1.035-.654 0-1.436 1.217-1.726 2.562-.037-.491-.528-1.545-.564-1.636-.091-.199-.218-.272-.381-.272-.309 0-.691.291-.691.545 0 .036 0 .073.018.091z" fill-rule="nonzero"/><g fill="none" stroke="#000" stroke-width=".47"><path d="m.134 36.653h245.104"/><path d="m.134 31.682h245.104"/><path d="m.134 26.712h245.104"/><path d="m.134 21.741h245.104"/><path d="m.134 16.771h245.104"/></g><path d="m14.26 35.993.756 3.678c.039.218.059.417.059.616 0 1.948-1.988 3.579-4.135 3.579-.656 0-1.292-.159-1.889-.458 1.531-.159 2.684-1.093 2.684-2.465 0-1.213-.994-2.485-2.266-2.485-1.452 0-2.446 1.113-2.446 2.565 0 2.028 1.65 3.36 3.639 3.36 2.664 0 4.93-1.73 4.93-4.215 0-.557-.875-4.493-.855-4.354 2.128-1.034 3.579-2.863 3.579-4.792 0-2.644-2.127-4.672-4.772-4.672-.039 0-.318.02-.795.06l-.875-4.195c2.963-2.505 4.315-5.17 4.315-8.092 0-2.247-.895-4.633-2.704-7.138-2.048 1.65-3.221 4.951-3.221 8.47 0 1.252.159 2.465.437 3.618-4.533 3.798-6.799 7.297-6.799 10.498 0 3.757 3.877 6.879 8.092 6.879.934 0 1.63-.139 2.266-.457zm-.06-26.125c.657.676.995 1.471.995 2.406 0 1.928-1.372 4.095-4.056 6.481-.139-.576-.179-1.213-.179-1.908 0-3.341 1.232-7.019 2.883-7.019.139 0 .258.02.357.04zm.418 25.309-1.412-6.64c.279-.02.438-.04.497-.04 1.71 0 2.903 1.611 2.903 3.261 0 1.312-.696 2.465-1.988 3.419zm-1.909-6.56 1.432 6.839c-.696.378-1.471.537-2.406.537-3.221 0-6.004-2.406-6.004-5.329 0-2.644 1.968-5.368 5.686-8.151l.835 3.976c-2.068.438-3.817 2.187-3.817 4.155 0 1.671 1.193 2.844 2.982 3.122-1.093-.676-1.63-1.531-1.63-2.545 0-1.372 1.272-2.386 2.922-2.604z" fill-rule="nonzero"/><path d="m52.168 18.014 72.692-4.971v-2.485l-72.692 4.97z"/><path d="m142.568 39.138 72.692-4.971v-2.485l-72.692 4.971z"/><path d="m52.168 33.391v-17.707" fill="none"/><path d="m52.168 33.391v-17.707" fill="none" stroke="#000" stroke-width=".47"/><path d="m47.716 36.708c2.048 0 4.573-1.709 4.573-3.459 0-1.054-.935-1.73-2.267-1.73-2.008 0-4.533 1.67-4.533 3.46 0 1.093.974 1.729 2.227 1.729z" fill-rule="nonzero"/><path d="m76.399 30.906v-16.776" fill="none"/><path d="m76.399 30.906v-16.776" fill="none" stroke="#000" stroke-width=".47"/><path d="m71.947 34.223c2.047 0 4.572-1.71 4.572-3.459 0-1.054-.934-1.73-2.266-1.73-2.008 0-4.533 1.67-4.533 3.459 0 1.094.974 1.73 2.227 1.73z" fill-rule="nonzero"/><path d="m100.63 28.42v-15.998" fill="none"/><path d="m100.63 28.42v-15.998" fill="none" stroke="#000" stroke-width=".47"/><path d="m96.177 31.738c2.048 0 4.573-1.71 4.573-3.459 0-1.054-.934-1.73-2.266-1.73-2.008 0-4.533 1.67-4.533 3.459 0 1.094.974 1.73 2.226 1.73z" fill-rule="nonzero"/><path d="m88.048 32.792 2.804-2.068c1.232-.895 1.709-1.909 1.749-2.664 0-1.114-1.014-1.949-2.207-1.949-.835 0-1.451.319-1.849.975l.14-6.263h-.637zm1.849-5.885c.637 0 1.114.457 1.114 1.073 0 1.034-1.372 3.022-2.406 3.678-.06-.338-.099-.994-.099-1.968 0-.537.039-1.193.119-1.948.298-.557.716-.835 1.272-.835z" fill-rule="nonzero"/><path d="m124.86 25.935v-15.222" fill="none"/><path d="m124.86 25.935v-15.222" fill="none" stroke="#000" stroke-width=".47"/><path d="m120.408 29.253c2.048 0 4.573-1.71 4.573-3.46 0-1.053-.934-1.729-2.267-1.729-2.008 0-4.533 1.67-4.533 3.459 0 1.094.975 1.73 2.227 1.73z" fill-rule="nonzero"/><path d="m112.279 30.306 2.803-2.067c1.233-.895 1.71-1.909 1.75-2.664 0-1.114-1.014-1.949-2.207-1.949-.835 0-1.451.318-1.849.974l.139-6.262h-.636zm1.849-5.885c.636 0 1.113.458 1.113 1.074 0 1.034-1.371 3.022-2.405 3.678-.06-.338-.1-.994-.1-1.968 0-.537.04-1.193.12-1.948.298-.557.715-.836 1.272-.836z" fill-rule="nonzero"/><path d="m142.568 25.003v13.979" fill="none"/><path d="m142.568 25.003v13.979" fill="none" stroke="#000" stroke-width=".47"/><path d="m144.639 26.768c2.048 0 4.573-1.71 4.573-3.46 0-1.054-.935-1.73-2.267-1.73-2.008 0-4.533 1.67-4.533 3.46 0 1.093.974 1.73 2.227 1.73z" fill-rule="nonzero"/><path d="m166.798 22.518v14.911" fill="none"/><path d="m166.798 22.518v14.911" fill="none" stroke="#000" stroke-width=".47"/><path d="m168.87 24.282c2.047 0 4.572-1.709 4.572-3.459 0-1.054-.934-1.73-2.266-1.73-2.008 0-4.533 1.67-4.533 3.46 0 1.093.974 1.729 2.227 1.729z" fill-rule="nonzero"/><path d="m191.029 20.033v15.688" fill="none"/><path d="m191.029 20.033v15.688" fill="none" stroke="#000" stroke-width=".47"/><path d="m193.1 21.797c2.048 0 4.573-1.71 4.573-3.459 0-1.054-.934-1.73-2.266-1.73-2.008 0-4.533 1.67-4.533 3.459 0 1.094.974 1.73 2.226 1.73z" fill-rule="nonzero"/><path d="m184.971 22.851 2.804-2.068c1.232-.895 1.709-1.908 1.749-2.664 0-1.113-1.014-1.948-2.207-1.948-.835 0-1.451.318-1.849.974l.14-6.263h-.637zm1.849-5.885c.637 0 1.114.457 1.114 1.073 0 1.034-1.372 3.022-2.406 3.679-.06-.338-.099-.994-.099-1.969 0-.537.039-1.193.119-1.948.298-.557.716-.835 1.272-.835z" fill-rule="nonzero"/><path d="m215.26 17.548v16.464" fill="none"/><path d="m215.26 17.548v16.464" fill="none" stroke="#000" stroke-width=".47"/><path d="m217.331 19.312c2.048 0 4.573-1.71 4.573-3.46 0-1.053-.934-1.729-2.267-1.729-2.008 0-4.533 1.67-4.533 3.459 0 1.094.975 1.73 2.227 1.73z" fill-rule="nonzero"/></svg>