<svg clip-rule="evenodd" fill-rule="evenodd" stroke-linejoin="round" stroke-miterlimit="2" viewBox="0 0 473 360" xmlns="http://www.w3.org/2000/svg"><path d="m70.895 92.924v19.882" fill="none" stroke="#000" stroke-width=".78"/><path d="m69.963 92.924v19.882" fill="none" stroke="#000" stroke-width="2.49"/><path d="m73.38 92.924v19.882" fill="none" stroke="#000" stroke-width=".78"/><path d="m76.642 99.45c-.478 0-.915.418-.915.954 0 .458.457.895.915.895.536 0 .954-.437.954-.895 0-.536-.418-.954-.954-.954z" fill-rule="nonzero"/><path d="m76.642 104.42c-.478 0-.915.418-.915.955 0 .457.457.894.915.894.536 0 .954-.437.954-.894 0-.537-.418-.955-.954-.955z" fill-rule="nonzero"/><path d="m180.088 92.924v19.882" fill="none" stroke="#000" stroke-width=".78"/><path d="m305.125 92.924v19.882" fill="none" stroke="#000" stroke-width=".78"/><path d="m368.808 92.924v19.882" fill="none" stroke="#000" stroke-width=".78"/><path d="m471.634 92.924v19.882" fill="none" stroke="#000" stroke-width=".78"/><path d="m90.193 68.395c-.237 2.69-.473 7.088-.473 9.577 0 1.599.145 2.145.672 2.145.891 0 .6-3.162.782-3.853 2.889-1.327 3.453-.491 3.453-2.49v-.2c0-.563-.018-.836-.382-.836-.69 0-2.798.764-3.162.818v-.236c0-.709.109-1.799.127-2.435.982-.491 2.835-.582 3.689-.764.473-.072.509-1.163.509-1.962 0-.418-.109-.709-.89-.709-1.418 0-4.289.6-4.325.945z" fill-rule="nonzero"/><path d="m96.679 73.702c.327.654.509 2.635.509 4.107 0 .581-.037 1.09-.091 1.399-.018.055-.018.091-.018.127 0 .491.599.836 1.054.836.254 0 .472-.109.49-.363.127-1.291.564-4.671 1.145-4.725.273-.037.4 2.78.473 4.398.018.454.49.672.945.672.418 0 .836-.182.854-.527.109-1.363 1.472-4.87 1.69-4.852.4.036.981 4.67.981 4.725.018.472.436.763.8.763.254 0 .491-.163.491-.527 0-1.545-.527-4.216-.945-5.888-.146-.545-.673-1.109-1.218-1.109-.4 0-.818.291-1.09 1.073l-1.327 3.289c0-.454-.563-3.435-.6-3.653-.182-.727-.472-1.036-.799-1.036-.655 0-1.436 1.218-1.727 2.563-.036-.491-.527-1.545-.563-1.636-.091-.2-.218-.272-.382-.272-.309 0-.69.29-.69.545 0 .036 0 .072.018.091z" fill-rule="nonzero"/><path d="m161.449 99.137c5.903-4.815 23.299-4.815 29.201 0" fill="none" stroke="#000" stroke-width=".31"/><path d="m161.449 99.137c5.903-5.591 23.299-5.591 29.201 0-5.902-4.038-23.298-4.038-29.201 0z"/><path d="m161.449 99.137c5.903-5.591 23.299-5.591 29.201 0-5.902-4.038-23.298-4.038-29.201 0z" fill="none" stroke="#000" stroke-width=".16"/><path d="m194.917 77.536c-.055.055-.091.127-.091.218 0 .491.909 1.454 1.417 1.454.346 0 5.616-5.834 8.905-9.268.037-.037.055-.073.055-.109 0-.4-1.072-1.454-1.436-1.454-.054 0-.091.018-.127.054-2.672 2.236-6.324 6.415-8.723 9.105zm7.178-.709c-.054.073-.073.146-.073.2 0 .473.855 1.218 1.4 1.218.436 0 1.981-2.09 1.981-2.217 0-.436-.818-1.418-1.327-1.418-.727 0-1.454 1.363-1.981 2.217zm-6.397-6.124c-.036.055-.054.109-.054.182 0 .418.781 1.217 1.163 1.217.363-.363.69-.708.963-1.017.509-.509.999-1.091.999-1.291 0-.472-.69-1.272-1.126-1.272-.564 0-1.527 1.818-1.945 2.181z" fill-rule="nonzero"/><path d="m312.498 77.536c-.054.055-.091.127-.091.218 0 .491.909 1.454 1.418 1.454.345 0 5.615-5.834 8.904-9.268.037-.037.055-.073.055-.109 0-.4-1.072-1.454-1.436-1.454-.054 0-.091.018-.127.054-2.671 2.236-6.324 6.415-8.723 9.105zm7.178-.709c-.054.073-.072.146-.072.2 0 .473.854 1.218 1.399 1.218.436 0 1.981-2.09 1.981-2.217 0-.436-.818-1.418-1.327-1.418-.727 0-1.454 1.363-1.981 2.217zm-6.397-6.124c-.036.055-.054.109-.054.182 0 .418.781 1.217 1.163 1.217.364-.363.691-.708.963-1.017.509-.509 1-1.091 1-1.291 0-.472-.691-1.272-1.127-1.272-.563 0-1.527 1.818-1.945 2.181z" fill-rule="nonzero"/><path d="m383.637 77.536c-.054.055-.091.127-.091.218 0 .491.909 1.454 1.418 1.454.345 0 5.615-5.834 8.904-9.268.037-.037.055-.073.055-.109 0-.4-1.072-1.454-1.436-1.454-.054 0-.091.018-.127.054-2.671 2.236-6.324 6.415-8.723 9.105zm7.178-.709c-.054.073-.072.146-.072.2 0 .473.854 1.218 1.399 1.218.436 0 1.981-2.09 1.981-2.217 0-.436-.818-1.418-1.327-1.418-.727 0-1.454 1.363-1.981 2.217zm-6.397-6.124c-.036.055-.054.109-.054.182 0 .418.781 1.217 1.163 1.217.364-.363.691-.708.963-1.017.509-.509 1-1.091 1-1.291 0-.472-.691-1.272-1.127-1.272-.563 0-1.527 1.818-1.945 2.181z" fill-rule="nonzero"/><path d="m135.821 172.451v19.882" fill="none"/><path d="m135.821 172.451v19.882" fill="none" stroke="#000" stroke-width=".78"/><path d="m273.283 172.451v19.882" fill="none"/><path d="m273.283 172.451v19.882" fill="none" stroke="#000" stroke-width=".78"/><path d="m345.199 172.451v19.882" fill="none"/><path d="m345.199 172.451v19.882" fill="none" stroke="#000" stroke-width=".78"/><path d="m471.634 172.451v19.882" fill="none"/><path d="m471.634 172.451v19.882" fill="none" stroke="#000" stroke-width=".78"/><path d="m31.982 156.172c-.273-.072-.509-.182-.745-.218.073 1.309.073 1.963.109 2.999.454.545 1.327.69 3.398.69.455 0 .945 0 1.509-.018 1.908-.763 2.871-4.47 2.871-7.614 0-4.108-1.381-5.016-3.489-5.016-1.6 0-2.835.927-4.198 2.58-.109.764-.018 1.6-.146 2.926.182 0 .455-.272.582-.363.036.6.145 1.908.145 3.071 0 .345-.018.672-.036.963zm.927-4.725c1.017-.89 2.326-1.326 3.144-1.326 1.09 0 1.544 1.144 1.544 2.308 0 1.508-1.054 4.179-3.343 4.179-.309 0-.636-.036-1.018-.127.036-.491.073-1.127.073-1.781 0-1.09-.091-2.29-.4-3.253z" fill-rule="nonzero"/><path d="m41.576 145.377c0-.018-.036-.036-.072-.036-.255 0-1.2.436-1.2.582.018.29.018.727.018 1.29 0 3.18-.254 10.013-.254 12.376.709-.109 4.507-3.689 4.507-7.251 0-1.218-.527-1.727-1.254-1.727-.527 0-1.163.273-1.781.745.018-1.417.036-2.998.036-4.452zm-.163 8.614c.236-.327.745-.908 1.072-.908.164 0 .327.145.327.563 0 .564-.545 1.817-1.49 2.49 0-.563.073-1.672.091-2.145z" fill-rule="nonzero"/><path d="m46.228 146.195c-.018.763-.146 1.545-.2 2.363.836-.255 1.781-.618 2.726-.618.363 0 .709.054 1.072.182-.382 1.417-1.145 3.78-2.072 6.978.2.2.382.363.546.363.109 0 .218-.072.345-.254.981-2.926 1.563-4.489 2.508-8.214.036-.164.054-.327.054-.455 0-.799-.69-1.072-1.581-1.072-1.181 0-2.689.455-3.398.727z" fill-rule="nonzero"/><path d="m114.23 178.664c6.369-5.126 25.629-5.126 32.153 0" fill="none" stroke="#000" stroke-width=".31"/><path d="m114.23 178.664c6.369-5.902 25.629-5.902 32.153 0-6.524-4.349-25.784-4.349-32.153 0z"/><path d="m114.23 178.664c6.369-5.902 25.629-5.902 32.153 0-6.524-4.349-25.784-4.349-32.153 0z" fill="none" stroke="#000" stroke-width=".16"/><path d="m150.649 157.063c-.054.054-.091.127-.091.218 0 .49.909 1.454 1.418 1.454.345 0 5.615-5.834 8.905-9.269.036-.036.054-.072.054-.109 0-.399-1.072-1.454-1.436-1.454-.054 0-.091.019-.127.055-2.671 2.235-6.324 6.415-8.723 9.105zm7.178-.709c-.054.073-.072.145-.072.2 0 .472.854 1.217 1.399 1.217.436 0 1.981-2.089 1.981-2.217 0-.436-.818-1.417-1.327-1.417-.727 0-1.454 1.363-1.981 2.217zm-6.396-6.124c-.037.054-.055.109-.055.181 0 .418.781 1.218 1.163 1.218.364-.364.691-.709.963-1.018.509-.509 1-1.09 1-1.29 0-.473-.691-1.272-1.127-1.272-.563 0-1.527 1.817-1.944 2.181z" fill-rule="nonzero"/><path d="m280.656 157.063c-.054.054-.091.127-.091.218 0 .49.909 1.454 1.418 1.454.345 0 5.615-5.834 8.905-9.269.036-.036.054-.072.054-.109 0-.399-1.072-1.454-1.435-1.454-.055 0-.091.019-.128.055-2.671 2.235-6.324 6.415-8.723 9.105zm7.179-.709c-.055.073-.073.145-.073.2 0 .472.854 1.217 1.399 1.217.437 0 1.981-2.089 1.981-2.217 0-.436-.818-1.417-1.326-1.417-.727 0-1.454 1.363-1.981 2.217zm-6.397-6.124c-.037.054-.055.109-.055.181 0 .418.782 1.218 1.163 1.218.364-.364.691-.709.964-1.018.508-.509.999-1.09.999-1.29 0-.473-.691-1.272-1.127-1.272-.563 0-1.526 1.817-1.944 2.181z" fill-rule="nonzero"/><path d="m360.028 157.063c-.055.054-.091.127-.091.218 0 .49.908 1.454 1.417 1.454.346 0 5.616-5.834 8.905-9.269.036-.036.055-.072.055-.109 0-.399-1.073-1.454-1.436-1.454-.055 0-.091.019-.127.055-2.672 2.235-6.325 6.415-8.723 9.105zm7.178-.709c-.055.073-.073.145-.073.2 0 .472.854 1.217 1.4 1.217.436 0 1.98-2.089 1.98-2.217 0-.436-.817-1.417-1.326-1.417-.727 0-1.454 1.363-1.981 2.217zm-6.397-6.124c-.036.054-.054.109-.054.181 0 .418.781 1.218 1.163 1.218.363-.364.69-.709.963-1.018.509-.509.999-1.09.999-1.29 0-.473-.69-1.272-1.126-1.272-.564 0-1.527 1.817-1.945 2.181z" fill-rule="nonzero"/><path d="m141.723 251.978v19.881" fill="none"/><path d="m141.723 251.978v19.881" fill="none" stroke="#000" stroke-width=".78"/><path d="m274.992 251.978v19.881" fill="none"/><path d="m274.992 251.978v19.881" fill="none" stroke="#000" stroke-width=".78"/><path d="m395.835 251.978v19.881" fill="none"/><path d="m395.835 251.978v19.881" fill="none" stroke="#000" stroke-width=".78"/><path d="m471.634 251.978v19.881" fill="none"/><path d="m471.634 251.978v19.881" fill="none" stroke="#000" stroke-width=".78"/><path d="m32.914 235.699c-.273-.073-.509-.182-.745-.218.072 1.308.072 1.962.109 2.998.454.545 1.326.691 3.398.691.455 0 .945 0 1.509-.018 1.908-.764 2.871-4.471 2.871-7.615 0-4.107-1.381-5.016-3.489-5.016-1.6 0-2.835.927-4.198 2.581-.109.763-.018 1.599-.146 2.926.182 0 .455-.273.582-.364.036.6.145 1.909.145 3.072 0 .345-.018.672-.036.963zm.927-4.725c1.017-.891 2.326-1.327 3.144-1.327 1.09 0 1.544 1.145 1.544 2.308 0 1.508-1.054 4.18-3.343 4.18-.309 0-.637-.036-1.018-.127.036-.491.073-1.127.073-1.781 0-1.091-.091-2.29-.4-3.253z" fill-rule="nonzero"/><path d="m41.291 232.755c.327.654.509 2.635.509 4.107 0 .581-.037 1.09-.091 1.399-.018.055-.018.091-.018.127 0 .491.599.836 1.054.836.254 0 .472-.109.49-.363.127-1.29.564-4.671 1.145-4.725.273-.036.4 2.78.473 4.398.018.454.49.672.945.672.418 0 .836-.182.854-.527.109-1.363 1.472-4.87 1.69-4.852.4.036.981 4.67.981 4.725.018.472.436.763.8.763.254 0 .49-.163.49-.527 0-1.545-.527-4.216-.945-5.888-.145-.545-.672-1.108-1.217-1.108-.4 0-.818.29-1.09 1.072l-1.327 3.289c0-.454-.563-3.435-.6-3.653-.182-.727-.472-1.036-.799-1.036-.655 0-1.436 1.218-1.727 2.563-.036-.491-.527-1.545-.563-1.636-.091-.2-.218-.272-.382-.272-.309 0-.69.29-.69.545 0 .036 0 .073.018.091z" fill-rule="nonzero"/><path d="m79.903 273.102c3.728 3.883 14.756 3.883 18.484 0" fill="none" stroke="#000" stroke-width=".31"/><path d="m79.903 273.102c3.728 3.106 14.756 3.106 18.484 0-3.728 4.66-14.756 4.66-18.484 0z"/><path d="m79.903 273.102c3.728 3.106 14.756 3.106 18.484 0-3.728 4.66-14.756 4.66-18.484 0z" fill="none" stroke="#000" stroke-width=".16"/><path d="m156.551 236.589c-.054.055-.09.127-.09.218 0 .491.908 1.454 1.417 1.454.345 0 5.616-5.833 8.905-9.268.036-.036.054-.073.054-.109 0-.4-1.072-1.454-1.435-1.454-.055 0-.091.018-.127.055-2.672 2.235-6.325 6.415-8.724 9.104zm7.179-.709c-.055.073-.073.146-.073.2 0 .473.854 1.218 1.399 1.218.437 0 1.981-2.09 1.981-2.217 0-.436-.817-1.418-1.326-1.418-.727 0-1.454 1.363-1.981 2.217zm-6.397-6.124c-.036.055-.055.109-.055.182 0 .418.782 1.217 1.163 1.217.364-.363.691-.708.964-1.017.508-.509.999-1.091.999-1.29 0-.473-.69-1.273-1.127-1.273-.563 0-1.526 1.818-1.944 2.181z" fill-rule="nonzero"/><path d="m289.821 236.589c-.055.055-.091.127-.091.218 0 .491.908 1.454 1.417 1.454.345 0 5.616-5.833 8.905-9.268.036-.036.055-.073.055-.109 0-.4-1.073-1.454-1.436-1.454-.055 0-.091.018-.127.055-2.672 2.235-6.325 6.415-8.723 9.104zm7.178-.709c-.055.073-.073.146-.073.2 0 .473.854 1.218 1.4 1.218.436 0 1.98-2.09 1.98-2.217 0-.436-.817-1.418-1.326-1.418-.727 0-1.454 1.363-1.981 2.217zm-6.397-6.124c-.036.055-.055.109-.055.182 0 .418.782 1.217 1.164 1.217.363-.363.69-.708.963-1.017.509-.509.999-1.091.999-1.29 0-.473-.69-1.273-1.126-1.273-.564 0-1.527 1.818-1.945 2.181z" fill-rule="nonzero"/><path d="m333.86 273.102c3.728 3.883 14.912 3.883 18.639 0" fill="none" stroke="#000" stroke-width=".31"/><path d="m333.86 273.102c3.728 3.106 14.912 3.106 18.639 0-3.727 4.66-14.911 4.66-18.639 0z"/><path d="m333.86 273.102c3.728 3.106 14.912 3.106 18.639 0-3.727 4.66-14.911 4.66-18.639 0z" fill="none" stroke="#000" stroke-width=".16"/><path d="m403.208 236.589c-.054.055-.091.127-.091.218 0 .491.909 1.454 1.418 1.454.345 0 5.615-5.833 8.904-9.268.037-.036.055-.073.055-.109 0-.4-1.072-1.454-1.436-1.454-.054 0-.091.018-.127.055-2.671 2.235-6.324 6.415-8.723 9.104zm7.178-.709c-.054.073-.072.146-.072.2 0 .473.854 1.218 1.399 1.218.436 0 1.981-2.09 1.981-2.217 0-.436-.818-1.418-1.327-1.418-.727 0-1.454 1.363-1.981 2.217zm-6.397-6.124c-.036.055-.054.109-.054.182 0 .418.781 1.217 1.163 1.217.363-.363.691-.708.963-1.017.509-.509 1-1.091 1-1.29 0-.473-.691-1.273-1.127-1.273-.563 0-1.527 1.818-1.945 2.181z" fill-rule="nonzero"/><path d="m117.803 331.504v19.882" fill="none"/><path d="m117.803 331.504v19.882" fill="none" stroke="#000" stroke-width=".78"/><path d="m214.726 331.504v19.882" fill="none"/><path d="m214.726 331.504v19.882" fill="none" stroke="#000" stroke-width=".78"/><path d="m311.493 331.504v19.882" fill="none"/><path d="m311.493 331.504v19.882" fill="none" stroke="#000" stroke-width=".78"/><path d="m467.285 331.504v19.882" fill="none"/><path d="m467.285 331.504v19.882" fill="none" stroke="#000" stroke-width=".78"/><path d="m470.702 331.504v19.882" fill="none"/><path d="m470.702 331.504v19.882" fill="none" stroke="#000" stroke-width="2.49"/><path d="m26.354 306.975c-.236 2.689-.473 7.087-.473 9.577 0 1.599.146 2.144.673 2.144.89 0 .599-3.162.781-3.852 2.89-1.327 3.453-.491 3.453-2.49v-.2c0-.563-.018-.836-.382-.836-.69 0-2.798.763-3.162.818v-.236c0-.709.109-1.799.128-2.436.981-.49 2.835-.581 3.689-.763.472-.073.509-1.163.509-1.963 0-.417-.109-.708-.891-.708-1.417 0-4.289.599-4.325.945z" fill-rule="nonzero"/><path d="m32.84 312.281c.327.655.509 2.635.509 4.107 0 .582-.036 1.091-.091 1.4-.018.054-.018.091-.018.127 0 .491.6.836 1.054.836.254 0 .472-.109.491-.364.127-1.29.563-4.67 1.144-4.725.273-.036.4 2.781.473 4.398.018.455.491.673.945.673.418 0 .836-.182.854-.527.109-1.363 1.472-4.871 1.69-4.853.4.037.982 4.671.982 4.725.018.473.436.764.799.764.255 0 .491-.164.491-.527 0-1.545-.527-4.216-.945-5.888-.146-.546-.673-1.109-1.218-1.109-.4 0-.818.291-1.09 1.072l-1.327 3.29c0-.455-.563-3.435-.599-3.653-.182-.727-.473-1.036-.8-1.036-.654 0-1.436 1.218-1.727 2.562-.036-.49-.527-1.544-.563-1.635-.091-.2-.218-.273-.382-.273-.308 0-.69.291-.69.545 0 .037 0 .073.018.091z" fill-rule="nonzero"/><path d="m125.176 316.116c-.055.054-.091.127-.091.218 0 .491.909 1.454 1.417 1.454.346 0 5.616-5.834 8.905-9.269.037-.036.055-.072.055-.109 0-.399-1.073-1.453-1.436-1.453-.055 0-.091.018-.127.054-2.672 2.235-6.324 6.415-8.723 9.105zm7.178-.709c-.054.073-.073.145-.073.2 0 .472.855 1.218 1.4 1.218.436 0 1.981-2.09 1.981-2.218 0-.436-.818-1.417-1.327-1.417-.727 0-1.454 1.363-1.981 2.217zm-6.397-6.124c-.036.054-.054.109-.054.181 0 .418.781 1.218 1.163 1.218.363-.363.69-.709.963-1.018.509-.508.999-1.09.999-1.29 0-.472-.69-1.272-1.126-1.272-.564 0-1.527 1.817-1.945 2.181z" fill-rule="nonzero"/><path d="m222.099 316.116c-.055.054-.091.127-.091.218 0 .491.909 1.454 1.417 1.454.346 0 5.616-5.834 8.905-9.269.036-.036.055-.072.055-.109 0-.399-1.073-1.453-1.436-1.453-.055 0-.091.018-.127.054-2.672 2.235-6.324 6.415-8.723 9.105zm7.178-.709c-.054.073-.073.145-.073.2 0 .472.855 1.218 1.4 1.218.436 0 1.981-2.09 1.981-2.218 0-.436-.818-1.417-1.327-1.417-.727 0-1.454 1.363-1.981 2.217zm-6.397-6.124c-.036.054-.054.109-.054.181 0 .418.781 1.218 1.163 1.218.363-.363.69-.709.963-1.018.509-.508.999-1.09.999-1.29 0-.472-.69-1.272-1.126-1.272-.564 0-1.527 1.817-1.945 2.181z" fill-rule="nonzero"/><path d="m326.322 316.116c-.055.054-.091.127-.091.218 0 .491.909 1.454 1.418 1.454.345 0 5.615-5.834 8.904-9.269.037-.036.055-.072.055-.109 0-.399-1.072-1.453-1.436-1.453-.054 0-.091.018-.127.054-2.671 2.235-6.324 6.415-8.723 9.105zm7.178-.709c-.054.073-.072.145-.072.2 0 .472.854 1.218 1.399 1.218.436 0 1.981-2.09 1.981-2.218 0-.436-.818-1.417-1.327-1.417-.727 0-1.454 1.363-1.981 2.217zm-6.397-6.124c-.036.054-.054.109-.054.181 0 .418.781 1.218 1.163 1.218.363-.363.691-.709.963-1.018.509-.508 1-1.09 1-1.29 0-.472-.691-1.272-1.127-1.272-.563 0-1.527 1.817-1.945 2.181z" fill-rule="nonzero"/><path d="m30.132 100.126v-.842h-1.262v-4.508l-2.505 2.224v2.284h-2.705c.301-.761 1.122-1.803 2.465-3.146 1.222-1.222 1.923-2.304 2.124-3.206h-3.427c-.16 1.964-1.322 4.829-2.544 6.392v.802h4.087c0 .701-.02 1.102-.06 1.202-.12.22-.501.361-1.122.401l-.04.561h4.929l-.08-.581c-.962-.081-1.142-.181-1.142-.682 0-.06 0-.18.02-.38v-.521z" fill-rule="nonzero"/><path d="m30.132 110.2v-.842h-1.262v-4.508l-2.505 2.224v2.284h-2.705c.301-.761 1.122-1.803 2.465-3.145 1.222-1.223 1.923-2.305 2.124-3.206h-3.427c-.16 1.963-1.322 4.829-2.544 6.392v.801h4.087c0 .701-.02 1.102-.06 1.202-.12.221-.501.361-1.122.401l-.04.561h4.929l-.08-.581c-.962-.08-1.142-.18-1.142-.681 0-.06 0-.181.02-.381v-.521z" fill-rule="nonzero"/><path d="m.066 112.806h471.878" fill="none"/><path d="m.066 112.806h471.878" fill="none" stroke="#000" stroke-width=".47"/><path d="m.066 107.836h471.878" fill="none"/><path d="m.066 107.836h471.878" fill="none" stroke="#000" stroke-width=".47"/><path d="m.066 102.865h471.878" fill="none"/><path d="m.066 102.865h471.878" fill="none" stroke="#000" stroke-width=".47"/><path d="m.066 97.895h471.878" fill="none"/><path d="m.066 97.895h471.878" fill="none" stroke="#000" stroke-width=".47"/><path d="m.066 92.924h471.878" fill="none"/><path d="m.066 92.924h471.878" fill="none" stroke="#000" stroke-width=".47"/><path d="m14.192 112.146.756 3.678c.039.219.059.418.059.617 0 1.948-1.988 3.578-4.135 3.578-.656 0-1.292-.159-1.889-.457 1.531-.159 2.684-1.094 2.684-2.465 0-1.213-.994-2.486-2.266-2.486-1.452 0-2.446 1.114-2.446 2.565 0 2.028 1.65 3.36 3.638 3.36 2.665 0 4.931-1.73 4.931-4.215 0-.556-.875-4.493-.855-4.354 2.128-1.034 3.579-2.863 3.579-4.791 0-2.645-2.127-4.673-4.772-4.673-.039 0-.318.02-.795.06l-.875-4.195c2.963-2.505 4.315-5.169 4.315-8.092 0-2.246-.895-4.632-2.704-7.137-2.048 1.65-3.221 4.95-3.221 8.469 0 1.253.159 2.466.437 3.619-4.533 3.797-6.799 7.296-6.799 10.497 0 3.758 3.877 6.879 8.092 6.879.934 0 1.63-.139 2.266-.457zm-.06-26.124c.657.676.995 1.471.995 2.405 0 1.929-1.372 4.096-4.056 6.482-.14-.577-.179-1.213-.179-1.909 0-3.34 1.232-7.018 2.883-7.018.139 0 .258.02.357.04zm.418 25.309-1.412-6.641c.279-.019.438-.039.497-.039 1.71 0 2.903 1.61 2.903 3.26 0 1.312-.696 2.466-1.988 3.42zm-1.909-6.561 1.432 6.839c-.696.378-1.471.537-2.406.537-3.221 0-6.004-2.406-6.004-5.328 0-2.644 1.968-5.368 5.686-8.152l.835 3.977c-2.068.437-3.817 2.187-3.817 4.155 0 1.67 1.193 2.843 2.982 3.121-1.093-.676-1.63-1.531-1.63-2.545 0-1.371 1.272-2.385 2.922-2.604z" fill-rule="nonzero"/><path d="m57.257 116.057c0 .397.338.755.775.755.438 0 .776-.358.776-.755 0-.438-.338-.776-.776-.776-.437 0-.775.338-.775.776z" fill-rule="nonzero"/><path d="m44.645 92.924h16.619v2.486h-16.619z"/><path d="m143.462 110.465c0 .397.338.755.776.755.437 0 .775-.358.775-.755 0-.438-.338-.776-.775-.776-.438 0-.776.338-.776.776z" fill-rule="nonzero"/><path d="m130.85 90.439 16.62-1.242v-2.486l-16.62 1.243z"/><path d="m164.941 90.483-8.152-2.088v.795l5.667 1.293-5.667 1.292v.795z" fill-rule="nonzero"/><path d="m334.482 97.851h5.586v2.386h-5.586z" fill-rule="nonzero"/><path d="m258.248 105.494c0 .398.338.756.775.756.438 0 .776-.358.776-.756 0-.437-.338-.775-.776-.775-.437 0-.775.338-.775.775z" fill-rule="nonzero"/><path d="m291.488 116.057c0 .397.338.755.775.755s.775-.358.775-.755c0-.438-.338-.776-.775-.776s-.775.338-.775.776z" fill-rule="nonzero"/><path d="m245.635 85.469h49.86v2.485h-49.86z"/><path d="m457.996 116.057c0 .397.338.755.776.755.437 0 .775-.358.775-.755 0-.438-.338-.776-.775-.776-.438 0-.776.338-.776.776z" fill-rule="nonzero"/><path d="m445.384 92.924h16.62v2.486h-16.62z"/><path d="m223.113 110.321c5.592 6.834 29.357 6.834 35.104 0" fill="none" stroke="#000" stroke-width=".31"/><path d="m223.113 110.321c5.592 6.058 29.357 6.058 35.104 0-5.747 7.611-29.512 7.611-35.104 0z"/><path d="m223.113 110.321c5.592 6.058 29.357 6.058 35.104 0-5.747 7.611-29.512 7.611-35.104 0z" fill="none" stroke="#000" stroke-width=".16"/><path d="m276.39 117.311c2.64 5.281 12.271 5.281 15.066 1.087" fill="none" stroke="#000" stroke-width=".31"/><path d="m276.39 117.311c2.64 4.504 12.271 4.504 15.066 1.087-2.795 4.97-12.426 4.97-15.066-1.087z"/><path d="m276.39 117.311c2.64 4.504 12.271 4.504 15.066 1.087-2.795 4.97-12.426 4.97-15.066-1.087z" fill="none" stroke="#000" stroke-width=".16"/><g fill-rule="nonzero"><path d="m393.646 42.074h.86v3.772h4.753v-3.772h.86v8.646h-.86v-4.146h-4.753v4.146h-.86z"/><path d="m406.47 47.533h-4.488c0 .849.198 1.489.595 1.941.386.441.905.662 1.544.662.486 0 .949-.155 1.401-.464.121-.077.254-.176.397-.297.143-.122.287-.265.452-.43v.959c-.176.132-.342.254-.485.353-.155.099-.298.176-.43.243-.463.242-.927.363-1.39.363-.805 0-1.478-.275-2.04-.827-.607-.584-.904-1.334-.904-2.26 0-.872.275-1.611.816-2.195.551-.596 1.235-.893 2.04-.893.783 0 1.412.286 1.875.86.408.518.617 1.18.617 1.985zm-4.378-.673h3.452c-.088-.496-.276-.871-.562-1.114-.298-.253-.651-.375-1.059-.375-.452 0-.838.144-1.158.431-.298.264-.518.617-.673 1.058z"/><path d="m410.505 44.82v.794c-.077-.033-.143-.055-.198-.066-.056-.022-.1-.033-.133-.044s-.077-.011-.11-.011c-.044-.011-.099-.011-.165-.011-.541 0-.982.264-1.324.783-.298.474-.441 1.014-.441 1.599v2.856h-.794v-5.9h.728l.055 1.015c.187-.309.353-.53.518-.662.331-.276.728-.408 1.191-.408.122 0 .243 0 .353.011.1.011.21.022.32.044z"/><path d="m411.221 42.074h.805v3.739c.099-.155.209-.287.309-.397.099-.111.198-.21.297-.287.386-.298.827-.441 1.335-.441.761 0 1.389.286 1.886.871.507.584.76 1.301.76 2.139 0 .861-.253 1.588-.76 2.195-.541.651-1.225.97-2.041.97-.452 0-.838-.099-1.169-.297-.209-.122-.419-.287-.617-.508l-.21.662h-.595zm.805 5.437v1.709c.099.122.209.232.309.331.099.099.198.177.286.243.32.231.695.342 1.103.342.563 0 1.037-.232 1.401-.695.364-.474.551-1.059.551-1.732 0-.705-.209-1.279-.618-1.731-.352-.386-.76-.573-1.224-.573-.496 0-.926.209-1.29.639-.342.408-.518.904-.518 1.467z"/><path d="m417.362 44.82h.794v5.9h-.794zm.386-2.492c.154 0 .286.055.386.154.099.099.154.254.154.441 0 .188-.044.342-.143.441-.1.1-.232.155-.397.155-.166 0-.298-.055-.386-.177-.1-.121-.144-.253-.144-.408 0-.242.055-.408.166-.485.11-.077.231-.121.364-.121z"/><path d="m424.352 47.533h-4.488c0 .849.198 1.489.595 1.941.386.441.905.662 1.544.662.485 0 .949-.155 1.401-.464.121-.077.253-.176.397-.297.143-.122.287-.265.452-.43v.959c-.176.132-.342.254-.485.353-.155.099-.298.176-.43.243-.464.242-.927.363-1.39.363-.805 0-1.478-.275-2.04-.827-.607-.584-.904-1.334-.904-2.26 0-.872.275-1.611.816-2.195.551-.596 1.235-.893 2.04-.893.783 0 1.411.286 1.875.86.408.518.617 1.18.617 1.985zm-4.378-.673h3.452c-.088-.496-.276-.871-.563-1.114-.297-.253-.65-.375-1.058-.375-.452 0-.838.144-1.158.431-.298.264-.519.617-.673 1.058z"/><path d="m428.861 42.074h.86v3.772h4.753v-3.772h.86v8.646h-.86v-4.146h-4.753v4.146h-.86z"/><path d="m441.09 46.904v2.779c0 .122.033.232.088.331.055.089.155.133.298.133h.11c.033-.011.055-.011.089-.022.044-.011.088-.034.121-.045s.055-.022.077-.033v.618c-.132.044-.265.077-.397.099-.132.011-.232.022-.309.022-.375 0-.617-.099-.739-.298-.099-.121-.143-.397-.143-.805-.099.166-.187.309-.287.431-.099.121-.187.22-.286.297-.386.298-.828.452-1.335.452-.54 0-1.003-.154-1.4-.474-.408-.342-.618-.772-.618-1.29 0-.651.331-1.136.993-1.445.242-.121.562-.22.97-.309.397-.088.871-.165 1.434-.242l.529-.055c0-.519-.132-.916-.386-1.202-.265-.298-.651-.441-1.158-.441-.187 0-.375.022-.562.077-.188.044-.386.121-.574.22-.099.055-.22.133-.342.21-.121.077-.264.187-.408.309v-.905c.629-.419 1.302-.628 2.018-.628.739 0 1.302.231 1.699.694.342.409.518.916.518 1.522zm-.805 1.158v-.353l-.375.045c-.915.099-1.566.22-1.941.386-.496.198-.75.518-.75.97 0 .132.033.265.088.386.056.121.144.221.243.32s.232.176.386.231c.143.056.309.089.496.089.497 0 .938-.199 1.313-.607.364-.408.54-.904.54-1.467z"/><path d="m447.86 46.772v3.948h-.794v-3.893c0-.408-.154-.75-.452-1.014-.297-.276-.661-.408-1.08-.408-.563 0-1.037.231-1.445.694-.408.475-.607 1.004-.607 1.588v3.033h-.75v-5.9h.695l.033 1.103c.199-.298.43-.552.695-.75.43-.32.926-.485 1.467-.485.628 0 1.158.187 1.588.573.43.375.65.882.65 1.511z"/><path d="m453.716 45.338v1.037c-.408-.386-.838-.673-1.268-.838-.121-.055-.254-.088-.386-.099-.132-.022-.265-.033-.397-.033-.607 0-1.114.231-1.5.683-.386.474-.584 1.026-.584 1.677 0 .661.198 1.224.606 1.698.408.452.915.673 1.522.673.386 0 .728-.078 1.048-.243.319-.165.639-.419.959-.75v1.048c-.386.242-.739.419-1.059.518-.319.099-.639.154-.959.154-.827 0-1.533-.297-2.117-.882-.574-.606-.861-1.345-.861-2.205 0-.85.287-1.577.85-2.184.573-.607 1.29-.904 2.139-.904.43 0 .838.077 1.213.22.221.077.485.221.794.43z"/><path d="m457.377 50.863c-.761 0-1.423-.275-1.996-.827-.607-.584-.916-1.334-.916-2.26 0-.872.265-1.611.805-2.195.552-.596 1.235-.893 2.04-.893.806 0 1.478.297 2.03.893.54.584.816 1.312.816 2.184 0 .915-.298 1.665-.883 2.26-.54.563-1.18.838-1.896.838zm-.078-.727c.53 0 1.004-.221 1.412-.662.397-.452.596-1.015.596-1.709 0-.717-.21-1.291-.64-1.743-.386-.408-.838-.617-1.357-.617-.529 0-.981.209-1.356.639-.408.474-.618 1.048-.618 1.732 0 .694.199 1.268.607 1.731.375.419.827.629 1.356.629z"/><path d="m465.868 45.338v1.037c-.408-.386-.838-.673-1.268-.838-.122-.055-.254-.088-.386-.099-.133-.022-.265-.033-.397-.033-.607 0-1.114.231-1.5.683-.386.474-.585 1.026-.585 1.677 0 .661.199 1.224.607 1.698.408.452.915.673 1.522.673.386 0 .728-.078 1.047-.243.32-.165.64-.419.96-.75v1.048c-.386.242-.739.419-1.059.518s-.639.154-.959.154c-.827 0-1.533-.297-2.118-.882-.573-.606-.86-1.345-.86-2.205 0-.85.287-1.577.849-2.184.574-.607 1.291-.904 2.14-.904.43 0 .838.077 1.213.22.22.077.485.221.794.43z"/><path d="m466.771 42.074h.805v5.349l2.713-2.603h1.125l-2.481 2.294 2.834 3.606h-1.092l-2.338-3.077-.761.706v2.371h-.805z"/><path d="m167.253.558v2.029c0 .111-.022.221-.044.287s-.11.088-.22.088c-.331-.066-.684-.132-1.037-.198-.375-.066-.706-.11-.992-.11-.993 0-1.655.308-1.963.948-.199.397-.287 1.103-.287 2.14v3.727c0 1.257.176 2.117.507 2.536.331.42.948.618 1.897.618.529 0 .882-.044 1.081-.132.198-.111.507-.155.948-.155.221 0 .331.133.331.397v1.963c0 .331-.177.596-.529.75-.375.155-1.191.221-2.493.221-2.029 0-3.441-.552-4.213-1.632-.529-.75-.794-1.897-.794-3.419v-6.264c0-1.301.309-2.316.927-3.022.838-.97 2.25-1.455 4.257-1.455 1.102 0 1.852.066 2.249.22.243.088.375.243.375.463z"/><path d="m176.957 6.536v8.182c0 .243-.022.397-.066.486-.111.198-.309.286-.596.286h-1.853c-.286 0-.419-.11-.419-.353 0-.11-.066-.154-.176-.154-.11.044-.177.088-.199.11-.198.177-.463.309-.794.419-.353.111-.683.155-1.014.155-.86 0-1.544-.309-2.096-.927-.595-.683-.904-1.676-.904-2.933 0-1.5.485-2.669 1.456-3.507.573-.485 1.544-.97 2.889-1.478l.552-.198c.154-.066.22-.177.22-.353 0-.309-.132-.529-.397-.64-.287-.11-.617-.176-1.014-.176-.419 0-.728.022-.949.066-.242.066-.463.132-.639.176-.199.045-.331.089-.442.133-.286.11-.463.154-.529.154-.287 0-.419-.132-.419-.397v-1.367c0-.287.154-.508.485-.706.552-.309 1.456-.463 2.757-.463 1.677 0 2.846.375 3.485 1.147.441.529.662 1.301.662 2.338zm-3 5.646v-2.823c0-.066-.022-.133-.088-.155s-.132-.022-.221.044l-.375.243c-.441.287-.749.551-.926.794-.243.353-.375.794-.375 1.346 0 .374.088.705.243.97.154.243.397.375.728.375.286 0 .529-.088.727-.243.199-.154.287-.353.287-.551z"/><path d="m178.721 14.873v-11.028c0-.265.066-.441.176-.508.11-.066.243-.11.441-.11h1.963c.111 0 .221.044.309.132.066.067.11.177.11.287 0 .155.044.221.155.221.022 0 .088-.044.198-.111.221-.198.441-.33.662-.441.375-.176.816-.264 1.279-.264.772 0 1.412.242 1.919.705.596.574.904 1.434.904 2.581v8.536c0 .264-.044.441-.154.507s-.265.11-.463.11h-1.765c-.264 0-.441-.044-.507-.154s-.11-.265-.11-.463v-7.896c0-.287-.089-.53-.265-.728-.198-.199-.441-.309-.772-.309-.463 0-.794.199-.948.618-.089.242-.133.573-.133 1.014v7.301c0 .264-.044.441-.154.507s-.265.11-.463.11h-1.765c-.264 0-.441-.044-.507-.154s-.11-.265-.11-.463z"/><path d="m189.329 1.021 2.183-.705c.088-.022.155-.044.221-.044.176 0 .264.132.264.375v2.47c0 .198.089.287.287.287h.86c.199 0 .353.044.464.11.11.066.154.242.154.507v1.037c0 .264-.044.441-.154.507-.111.066-.265.11-.464.11h-.904c-.154 0-.243.089-.243.243v5.999c0 .419.067.728.199.905.11.176.375.264.75.264.154 0 .287 0 .375-.022s.176-.044.287-.044c.176 0 .264.11.264.331v1.676c0 .243-.088.397-.287.507-.198.089-.595.133-1.235.133-1.191 0-2.051-.221-2.558-.64-.53-.441-.794-1.191-.794-2.227v-6.838c0-.11-.022-.198-.088-.22-.067-.023-.133-.045-.199-.067h-.353c-.154 0-.287-.044-.353-.11s-.11-.243-.11-.507v-1.037c0-.265.044-.441.11-.507s.199-.11.353-.11h.441c.133-.045.199-.133.199-.287v-1.632c0-.243.11-.397.331-.464z"/><path d="m202.76 6.536v8.182c0 .243-.022.397-.066.486-.11.198-.309.286-.595.286h-1.853c-.287 0-.419-.11-.419-.353 0-.11-.066-.154-.177-.154-.11.044-.176.088-.198.11-.199.177-.463.309-.794.419-.353.111-.684.155-1.015.155-.86 0-1.544-.309-2.095-.927-.596-.683-.904-1.676-.904-2.933 0-1.5.485-2.669 1.455-3.507.574-.485 1.544-.97 2.89-1.478l.551-.198c.154-.066.221-.177.221-.353 0-.309-.133-.529-.397-.64-.287-.11-.618-.176-1.015-.176-.419 0-.728.022-.948.066-.243.066-.464.132-.64.176-.199.045-.331.089-.441.133-.287.11-.463.154-.53.154-.286 0-.419-.132-.419-.397v-1.367c0-.287.155-.508.486-.706.551-.309 1.455-.463 2.757-.463 1.676 0 2.845.375 3.485 1.147.441.529.661 1.301.661 2.338zm-2.999 5.646v-2.823c0-.066-.022-.133-.089-.155-.066-.022-.132-.022-.22.044l-.375.243c-.441.287-.75.551-.927.794-.242.353-.374.794-.374 1.346 0 .374.088.705.242.97.155.243.397.375.728.375.287 0 .529-.088.728-.243.198-.154.287-.353.287-.551z"/><path d="m207.524.669v14.204c0 .264-.044.441-.155.507-.11.066-.264.11-.463.11h-1.764c-.265 0-.441-.044-.508-.154-.066-.11-.11-.265-.11-.463v-14.204c0-.265.066-.442.177-.508.11-.066.242-.11.441-.11h1.764c.265 0 .441.066.507.176.067.111.111.243.111.442z"/><path d="m209.156 11.234v-3.75c0-1.191.22-2.139.684-2.845.683-1.059 1.852-1.588 3.507-1.588 1.654 0 2.823.529 3.506 1.588.464.706.684 1.654.684 2.845v3.75c0 1.191-.22 2.139-.684 2.845-.683 1.058-1.852 1.588-3.506 1.588-1.655 0-2.824-.53-3.507-1.588-.464-.706-.684-1.654-.684-2.845zm2.999-4.257v4.764c0 .551.133.926.375 1.169.199.198.486.287.817.287.33 0 .595-.089.794-.287.264-.243.397-.64.397-1.169v-4.764c0-.552-.111-.927-.331-1.125-.243-.221-.53-.331-.86-.331-.331 0-.596.088-.795.287-.264.242-.397.639-.397 1.169z"/><path d="m227.285 3.845v11.028c0 .264-.044.441-.154.507-.111.066-.265.11-.464.11h-1.963c-.11 0-.22-.044-.286-.11-.089-.088-.133-.198-.133-.309 0-.132-.022-.198-.066-.198-.066-.022-.11-.022-.132-.022-.088.066-.132.088-.155.11-.264.243-.551.441-.882.551-.331.111-.684.155-1.058.155-.772 0-1.412-.243-1.919-.706-.596-.573-.905-1.434-.905-2.581v-8.535c0-.265.066-.441.177-.508.11-.066.242-.11.441-.11h1.764c.199 0 .353.044.464.11.11.067.154.243.154.508v7.896c0 .287.088.551.287.75.176.198.419.286.75.286.463 0 .794-.198.948-.617.088-.243.132-.574.132-1.015v-7.3c0-.265.067-.441.177-.508.11-.066.242-.11.441-.11h1.764c.199 0 .353.044.464.11.11.067.154.243.154.508z"/><path d="m232.048 15.16v2.889c0 .265-.044.441-.154.507-.111.066-.265.11-.463.11h-1.765c-.265 0-.441-.044-.507-.154s-.111-.265-.111-.463v-14.204c0-.265.067-.441.177-.508.11-.066.243-.11.441-.11h2.007c.265 0 .397.11.397.309v.176c0 .111.044.155.155.155.022 0 .088-.044.198-.111.243-.22.463-.374.662-.463.331-.154.772-.242 1.279-.242 1.235 0 2.073.507 2.514 1.544.243.595.375 1.455.375 2.58v4.456c0 1.102-.154 1.963-.463 2.58-.485.971-1.345 1.456-2.58 1.456-.508 0-.905-.066-1.213-.199-.287-.154-.552-.308-.839-.463-.066.066-.11.11-.11.155zm0-7.963v4.323c0 .375.044.684.154.905.177.375.486.551.927.551s.75-.176.926-.551c.11-.221.155-.53.155-.905v-4.323c0-.375-.045-.684-.155-.904-.176-.375-.485-.551-.926-.551s-.75.176-.927.551c-.11.22-.154.529-.154.904z"/><path d="m246.714 10.175h-4.434c-.11 0-.176.022-.198.088-.044.044-.066.11-.066.176v.706c0 .596.198 1.037.573 1.368.375.309.904.463 1.588.463.463 0 .904-.022 1.279-.088s.794-.177 1.213-.331c.375-.11.552 0 .552.353v1.808c0 .111-.022.221-.066.287-.066.066-.177.132-.353.199-.485.176-.971.308-1.478.375-.507.066-.948.088-1.345.088-1.28 0-2.316-.243-3.11-.706-1.235-.728-1.853-1.985-1.853-3.75v-3.727c0-1.169.221-2.117.684-2.823.683-1.081 1.852-1.61 3.507-1.61.992 0 1.83.198 2.47.617 1.103.706 1.654 1.985 1.654 3.816v2.073c0 .265-.044.441-.154.508-.111.066-.265.11-.463.11zm-4.478-2.426h1.875c.088 0 .154-.067.221-.221v-.485c0-.419-.045-.75-.155-.971-.198-.397-.507-.595-.97-.595-.375 0-.684.132-.883.397-.198.242-.308.639-.308 1.169v.485c0 .154.066.221.22.221z"/><path d="m255.599 14.718v-13.895c0-.265.022-.441.089-.529.11-.155.353-.243.683-.243h1.721c.331 0 .551.066.639.199.089.11.133.308.133.573v13.895c0 .331-.066.552-.177.64-.132.088-.331.132-.595.132h-1.721c-.264 0-.441-.022-.529-.088-.154-.11-.243-.353-.243-.684z"/><path d="m260.187 14.586v-1.434c0-.352.11-.529.353-.529.066 0 .287.044.617.154.331.089.706.177 1.125.243s.75.11 1.037.11c.463 0 .794-.088.992-.286.199-.199.309-.419.309-.706 0-.419-.309-.838-.904-1.279-.441-.287-.75-.508-.926-.64-.772-.551-1.324-1.015-1.655-1.412-.617-.728-.926-1.522-.926-2.426 0-.86.243-1.566.728-2.139.662-.794 1.698-1.191 3.132-1.191 1.125 0 1.941.088 2.47.286.507.199.772.464.772.839v1.588c-.044.176-.176.264-.419.264-.706 0-1.213-.088-1.5-.286-.154-.111-.485-.155-.992-.155-.375 0-.618.088-.75.243-.155.154-.221.309-.221.485 0 .375.353.816 1.059 1.301.331.221.662.441.992.662.772.551 1.324 1.059 1.655 1.522.463.639.705 1.411.705 2.294 0 1.125-.397 1.985-1.169 2.624-.772.64-1.808.949-3.109.949-1.434 0-2.405-.155-2.934-.441-.287-.155-.441-.375-.441-.64z"/><path d="m272.117.669v14.204c0 .264-.044.441-.154.507s-.265.11-.463.11h-1.765c-.265 0-.441-.044-.507-.154s-.11-.265-.11-.463v-14.204c0-.265.066-.442.176-.508s.243-.11.441-.11h1.765c.264 0 .441.066.507.176.066.111.11.243.11.442z"/><path d="m281.712 6.536v8.182c0 .243-.022.397-.067.486-.11.198-.308.286-.595.286h-1.853c-.287 0-.419-.11-.419-.353 0-.11-.066-.154-.176-.154-.111.044-.177.088-.199.11-.198.177-.463.309-.794.419-.353.111-.684.155-1.014.155-.861 0-1.544-.309-2.096-.927-.595-.683-.904-1.676-.904-2.933 0-1.5.485-2.669 1.456-3.507.573-.485 1.544-.97 2.889-1.478l.551-.198c.155-.066.221-.177.221-.353 0-.309-.132-.529-.397-.64-.287-.11-.618-.176-1.015-.176-.419 0-.727.022-.948.066-.243.066-.463.132-.64.176-.198.045-.331.089-.441.133-.287.11-.463.154-.529.154-.287 0-.419-.132-.419-.397v-1.367c0-.287.154-.508.485-.706.551-.309 1.456-.463 2.757-.463 1.676 0 2.845.375 3.485 1.147.441.529.662 1.301.662 2.338zm-3 5.646v-2.823c0-.066-.022-.133-.088-.155s-.133-.022-.221.044l-.375.243c-.441.287-.75.551-.926.794-.243.353-.375.794-.375 1.346 0 .374.088.705.243.97.154.243.397.375.727.375.287 0 .53-.088.728-.243.199-.154.287-.353.287-.551z"/><path d="m283.475 14.873v-11.028c0-.265.067-.441.177-.508.11-.066.243-.11.441-.11h1.963c.11 0 .221.044.309.132.066.067.11.177.11.287 0 .155.044.221.154.221.023 0 .089-.044.199-.111.221-.198.441-.33.662-.441.375-.176.816-.264 1.279-.264.772 0 1.412.242 1.919.705.595.574.904 1.434.904 2.581v8.536c0 .264-.044.441-.154.507-.111.066-.265.11-.463.11h-1.765c-.265 0-.441-.044-.507-.154s-.111-.265-.111-.463v-7.896c0-.287-.088-.53-.264-.728-.199-.199-.441-.309-.772-.309-.463 0-.794.199-.949.618-.088.242-.132.573-.132 1.014v7.301c0 .264-.044.441-.154.507-.111.066-.265.11-.463.11h-1.765c-.265 0-.441-.044-.507-.154s-.111-.265-.111-.463z"/><path d="m298.781 3.558v-2.889c0-.265.067-.442.177-.508s.242-.11.441-.11h1.765c.264 0 .441.066.507.176.066.111.11.243.11.442v14.204c0 .264-.044.441-.154.507-.111.066-.265.11-.463.11h-2.008c-.264 0-.397-.11-.397-.308v-.177c0-.066-.066-.132-.198-.154-.221.22-.507.419-.838.573-.353.155-.772.243-1.257.243-1.214 0-2.03-.485-2.471-1.478-.286-.618-.419-1.5-.419-2.647v-3.926c0-1.257.155-2.227.463-2.911.508-1.103 1.412-1.654 2.713-1.654.463 0 .794.044 1.015.154.287.177.595.353.882.529.066 0 .11-.066.132-.176zm0 7.962v-4.323c0-.375-.044-.684-.154-.904-.176-.375-.485-.551-.926-.551s-.75.176-.927.551c-.11.22-.154.529-.154.904v4.323c0 .375.044.684.154.905.177.375.486.551.927.551s.75-.176.926-.551c.11-.221.154-.53.154-.905z"/></g><path d="m.066 192.333h471.878" fill="none"/><path d="m.066 192.333h471.878" fill="none" stroke="#000" stroke-width=".47"/><path d="m.066 187.362h471.878" fill="none"/><path d="m.066 187.362h471.878" fill="none" stroke="#000" stroke-width=".47"/><path d="m.066 182.392h471.878" fill="none"/><path d="m.066 182.392h471.878" fill="none" stroke="#000" stroke-width=".47"/><path d="m.066 177.421h471.878" fill="none"/><path d="m.066 177.421h471.878" fill="none" stroke="#000" stroke-width=".47"/><path d="m.066 172.451h471.878" fill="none"/><path d="m.066 172.451h471.878" fill="none" stroke="#000" stroke-width=".47"/><path d="m14.192 191.673.756 3.678c.039.218.059.417.059.616 0 1.948-1.988 3.579-4.135 3.579-.656 0-1.292-.159-1.889-.458 1.531-.159 2.684-1.093 2.684-2.465 0-1.213-.994-2.485-2.266-2.485-1.452 0-2.446 1.113-2.446 2.565 0 2.028 1.65 3.36 3.638 3.36 2.665 0 4.931-1.73 4.931-4.215 0-.557-.875-4.493-.855-4.354 2.128-1.034 3.579-2.863 3.579-4.792 0-2.644-2.127-4.672-4.772-4.672-.039 0-.318.02-.795.06l-.875-4.195c2.963-2.505 4.315-5.17 4.315-8.092 0-2.247-.895-4.633-2.704-7.138-2.048 1.65-3.221 4.951-3.221 8.47 0 1.252.159 2.465.437 3.618-4.533 3.798-6.799 7.297-6.799 10.498 0 3.757 3.877 6.879 8.092 6.879.934 0 1.63-.139 2.266-.457zm-.06-26.125c.657.676.995 1.471.995 2.406 0 1.928-1.372 4.095-4.056 6.481-.14-.576-.179-1.213-.179-1.908 0-3.341 1.232-7.019 2.883-7.019.139 0 .258.02.357.04zm.418 25.309-1.412-6.64c.279-.02.438-.04.497-.04 1.71 0 2.903 1.611 2.903 3.261 0 1.312-.696 2.465-1.988 3.419zm-1.909-6.56 1.432 6.839c-.696.378-1.471.537-2.406.537-3.221 0-6.004-2.406-6.004-5.329 0-2.644 1.968-5.368 5.686-8.151l.835 3.976c-2.068.438-3.817 2.187-3.817 4.155 0 1.671 1.193 2.844 2.982 3.122-1.093-.676-1.63-1.531-1.63-2.545 0-1.372 1.272-2.386 2.922-2.604z" fill-rule="nonzero"/><path d="m94.069 189.991c0 .398.338.756.775.756.438 0 .776-.358.776-.756 0-.437-.338-.775-.776-.775-.437 0-.775.338-.775.775z" fill-rule="nonzero"/><path d="m79.282 169.966 18.794-1.243v-2.485l-18.794 1.243z"/><path d="m117.722 170.009-8.151-2.087v.795l5.666 1.292-5.666 1.292v.796z" fill-rule="nonzero"/><path d="m306.678 177.378h5.587v2.386h-5.587z" fill-rule="nonzero"/><path d="m220.038 185.021c0 .398.338.755.775.755.438 0 .776-.357.776-.755 0-.437-.338-.775-.776-.775-.437 0-.775.338-.775.775z" fill-rule="nonzero"/><path d="m257.471 195.583c0 .398.338.756.776.756.437 0 .775-.358.775-.756 0-.437-.338-.775-.775-.775-.438 0-.776.338-.776.775z" fill-rule="nonzero"/><path d="m205.251 164.995h56.228v2.486h-56.228z"/><path d="m418.388 169.333c0 .398.338.756.776.756.437 0 .775-.358.775-.756 0-.437-.338-.775-.775-.775-.438 0-.776.338-.776.775z" fill-rule="nonzero"/><path d="m455.822 169.333c0 .398.338.756.775.756s.775-.358.775-.756c0-.437-.338-.775-.775-.775s-.775.338-.775.775z" fill-rule="nonzero"/><path d="m397.078 194.818h56.227v2.485h-56.227z"/><path d="m182.729 189.847c5.902 6.99 31.22 6.99 37.278 0" fill="none" stroke="#000" stroke-width=".31"/><path d="m182.729 189.847c5.902 6.213 31.22 6.213 37.278 0-6.058 7.767-31.376 7.767-37.278 0z"/><path d="m182.729 189.847c5.902 6.213 31.22 6.213 37.278 0-6.058 7.767-31.376 7.767-37.278 0z" fill="none" stroke="#000" stroke-width=".16"/><path d="m240.354 196.837c2.952 5.436 13.98 5.436 17.086 1.087" fill="none" stroke="#000" stroke-width=".31"/><path d="m240.354 196.837c2.952 4.66 13.98 4.66 17.086 1.087-3.106 5.126-14.134 5.126-17.086-1.087z"/><path d="m240.354 196.837c2.952 4.66 13.98 4.66 17.086 1.087-3.106 5.126-14.134 5.126-17.086-1.087z" fill="none" stroke="#000" stroke-width=".16"/><path d="m401.116 169.966c.777-4.039 12.271-9.164 17.863-3.728" fill="none" stroke="#000" stroke-width=".31"/><path d="m401.116 169.966c.621-4.815 12.116-9.941 17.863-3.728-5.437-4.66-16.931.466-17.863 3.728z"/><path d="m401.116 169.966c.621-4.815 12.116-9.941 17.863-3.728-5.437-4.66-16.931.466-17.863 3.728z" fill="none" stroke="#000" stroke-width=".16"/><path d="m438.55 174.936c.621-6.368 11.649-11.494 17.241-8.077" fill="none" stroke="#000" stroke-width=".31"/><path d="m438.55 174.936c.31-7.145 11.338-12.271 17.241-8.077-5.281-2.64-16.31 2.485-17.241 8.077z"/><path d="m438.55 174.936c.31-7.145 11.338-12.271 17.241-8.077-5.281-2.64-16.31 2.485-17.241 8.077z" fill="none" stroke="#000" stroke-width=".16"/><path d="m.066 271.859h471.878" fill="none"/><path d="m.066 271.859h471.878" fill="none" stroke="#000" stroke-width=".47"/><path d="m.066 266.889h471.878" fill="none"/><path d="m.066 266.889h471.878" fill="none" stroke="#000" stroke-width=".47"/><path d="m.066 261.918h471.878" fill="none"/><path d="m.066 261.918h471.878" fill="none" stroke="#000" stroke-width=".47"/><path d="m.066 256.948h471.878" fill="none"/><path d="m.066 256.948h471.878" fill="none" stroke="#000" stroke-width=".47"/><path d="m.066 251.978h471.878" fill="none"/><path d="m.066 251.978h471.878" fill="none" stroke="#000" stroke-width=".47"/><path d="m14.192 271.199.756 3.678c.039.219.059.418.059.617 0 1.948-1.988 3.578-4.135 3.578-.656 0-1.292-.159-1.889-.457 1.531-.159 2.684-1.093 2.684-2.465 0-1.213-.994-2.485-2.266-2.485-1.452 0-2.446 1.113-2.446 2.564 0 2.028 1.65 3.36 3.638 3.36 2.665 0 4.931-1.729 4.931-4.215 0-.556-.875-4.493-.855-4.354 2.128-1.034 3.579-2.863 3.579-4.791 0-2.644-2.127-4.672-4.772-4.672-.039 0-.318.019-.795.059l-.875-4.195c2.963-2.505 4.315-5.169 4.315-8.092 0-2.246-.895-4.632-2.704-7.137-2.048 1.65-3.221 4.95-3.221 8.469 0 1.253.159 2.466.437 3.619-4.533 3.797-6.799 7.296-6.799 10.497 0 3.758 3.877 6.879 8.092 6.879.934 0 1.63-.139 2.266-.457zm-.06-26.124c.657.676.995 1.471.995 2.405 0 1.929-1.372 4.096-4.056 6.482-.14-.577-.179-1.213-.179-1.909 0-3.34 1.232-7.018 2.883-7.018.139 0 .258.02.357.04zm.418 25.309-1.412-6.64c.279-.02.438-.04.497-.04 1.71 0 2.903 1.61 2.903 3.26 0 1.313-.696 2.466-1.988 3.42zm-1.909-6.561 1.432 6.839c-.696.378-1.471.537-2.406.537-3.221 0-6.004-2.405-6.004-5.328 0-2.644 1.968-5.368 5.686-8.152l.835 3.977c-2.068.437-3.817 2.187-3.817 4.155 0 1.67 1.193 2.843 2.982 3.121-1.093-.676-1.63-1.53-1.63-2.544 0-1.372 1.272-2.386 2.922-2.605z" fill-rule="nonzero"/><path d="m83.395 278.892-8.151-2.087v.795l5.666 1.292-5.666 1.292v.796z" fill-rule="nonzero"/><path d="m218.485 248.86c0 .397.338.755.775.755s.775-.358.775-.755c0-.438-.338-.776-.775-.776s-.775.338-.775.776z" fill-rule="nonzero"/><path d="m258.093 248.86c0 .397.338.755.775.755s.775-.358.775-.755c0-.438-.338-.776-.775-.776s-.775.338-.775.776z" fill-rule="nonzero"/><path d="m196.242 274.344h59.334v2.486h-59.334z"/><path d="m337.352 278.892-8.151-2.087v.795l5.666 1.292-5.666 1.292v.796z" fill-rule="nonzero"/><path d="m431.249 256.904h5.587v2.386h-5.587z" fill-rule="nonzero"/><path d="m200.281 249.492c.776-3.572 12.581-8.853 18.173-3.727" fill="none" stroke="#000" stroke-width=".31"/><path d="m200.281 249.492c.621-4.349 12.426-9.63 18.173-3.727-5.437-4.35-17.242.931-18.173 3.727z"/><path d="m200.281 249.492c.621-4.349 12.426-9.63 18.173-3.727-5.437-4.35-17.242.931-18.173 3.727z" fill="none" stroke="#000" stroke-width=".16"/><path d="m239.888 254.463c.777-6.524 12.582-11.65 18.174-8.077" fill="none" stroke="#000" stroke-width=".31"/><path d="m239.888 254.463c.466-7.301 12.271-12.426 18.174-8.077-5.282-2.796-17.086 2.33-18.174 8.077z"/><path d="m239.888 254.463c.466-7.301 12.271-12.426 18.174-8.077-5.282-2.796-17.086 2.33-18.174 8.077z" fill="none" stroke="#000" stroke-width=".16"/><path d="m.066 351.386h471.878" fill="none"/><path d="m.066 351.386h471.878" fill="none" stroke="#000" stroke-width=".47"/><path d="m.066 346.415h471.878" fill="none"/><path d="m.066 346.415h471.878" fill="none" stroke="#000" stroke-width=".47"/><path d="m.066 341.445h471.878" fill="none"/><path d="m.066 341.445h471.878" fill="none" stroke="#000" stroke-width=".47"/><path d="m.066 336.475h471.878" fill="none"/><path d="m.066 336.475h471.878" fill="none" stroke="#000" stroke-width=".47"/><path d="m.066 331.504h471.878" fill="none"/><path d="m.066 331.504h471.878" fill="none" stroke="#000" stroke-width=".47"/><path d="m14.192 350.726.756 3.678c.039.219.059.417.059.616 0 1.949-1.988 3.579-4.135 3.579-.656 0-1.292-.159-1.889-.457 1.531-.159 2.684-1.094 2.684-2.466 0-1.213-.994-2.485-2.266-2.485-1.452 0-2.446 1.113-2.446 2.565 0 2.028 1.65 3.36 3.638 3.36 2.665 0 4.931-1.73 4.931-4.215 0-.557-.875-4.493-.855-4.354 2.128-1.034 3.579-2.863 3.579-4.792 0-2.644-2.127-4.672-4.772-4.672-.039 0-.318.02-.795.06l-.875-4.195c2.963-2.505 4.315-5.169 4.315-8.092 0-2.247-.895-4.632-2.704-7.138-2.048 1.651-3.221 4.951-3.221 8.47 0 1.253.159 2.465.437 3.618-4.533 3.798-6.799 7.297-6.799 10.498 0 3.758 3.877 6.879 8.092 6.879.934 0 1.63-.139 2.266-.457zm-.06-26.125c.657.676.995 1.472.995 2.406 0 1.928-1.372 4.096-4.056 6.481-.14-.576-.179-1.212-.179-1.908 0-3.34 1.232-7.018 2.883-7.018.139 0 .258.019.357.039zm.418 25.31-1.412-6.641c.279-.02.438-.04.497-.04 1.71 0 2.903 1.611 2.903 3.261 0 1.312-.696 2.465-1.988 3.42zm-1.909-6.561 1.432 6.839c-.696.378-1.471.537-2.406.537-3.221 0-6.004-2.406-6.004-5.329 0-2.644 1.968-5.368 5.686-8.151l.835 3.976c-2.068.438-3.817 2.187-3.817 4.156 0 1.67 1.193 2.843 2.982 3.121-1.093-.676-1.63-1.531-1.63-2.545 0-1.372 1.272-2.386 2.922-2.604z" fill-rule="nonzero"/><path d="m66.856 336.431h5.587v2.386h-5.587z" fill-rule="nonzero"/><path d="m163.779 336.431h5.587v2.386h-5.587z" fill-rule="nonzero"/><path d="m260.547 336.431h5.586v2.386h-5.586z" fill-rule="nonzero"/><path d="m441.687 354.636c0 .398.338.756.776.756.437 0 .775-.358.775-.756 0-.437-.338-.775-.775-.775-.438 0-.776.338-.776.775z" fill-rule="nonzero"/><path d="m420.376 331.504h25.318v2.485h-25.318z"/><path d="m44.645 109.544v-16.464" fill="none"/><path d="m44.645 109.544v-16.464" fill="none" stroke="#000" stroke-width=".47"/><path d="m40.192 112.862c2.048 0 4.573-1.71 4.573-3.46 0-1.053-.934-1.729-2.266-1.729-2.008 0-4.533 1.67-4.533 3.459 0 1.094.974 1.73 2.226 1.73z" fill-rule="nonzero"/><path d="m61.264 109.544v-16.464" fill="none"/><path d="m61.264 109.544v-16.464" fill="none" stroke="#000" stroke-width=".47"/><path d="m56.812 112.862c2.048 0 4.573-1.71 4.573-3.46 0-1.053-.935-1.729-2.267-1.729-2.008 0-4.533 1.67-4.533 3.459 0 1.094.975 1.73 2.227 1.73z" fill-rule="nonzero"/><path d="m85.029 100.436h5.587v2.386h-5.587z" fill-rule="nonzero"/><path d="m130.85 104.574v-16.465" fill="none"/><path d="m130.85 104.574v-16.465" fill="none" stroke="#000" stroke-width=".47"/><path d="m126.398 107.891c2.048 0 4.573-1.709 4.573-3.459 0-1.054-.935-1.73-2.267-1.73-2.008 0-4.533 1.67-4.533 3.46 0 1.093.974 1.729 2.227 1.729z" fill-rule="nonzero"/><path d="m118.269 108.945 2.803-2.068c1.233-.894 1.71-1.908 1.75-2.664 0-1.113-1.014-1.948-2.207-1.948-.835 0-1.452.318-1.849.974l.139-6.263h-.636zm1.849-5.885c.636 0 1.113.457 1.113 1.074 0 1.034-1.372 3.022-2.406 3.678-.059-.338-.099-.994-.099-1.968 0-.537.04-1.193.119-1.949.299-.557.716-.835 1.273-.835z" fill-rule="nonzero"/><path d="m147.47 102.089v-15.222" fill="none"/><path d="m147.47 102.089v-15.222" fill="none" stroke="#000" stroke-width=".47"/><path d="m143.018 105.406c2.047 0 4.572-1.71 4.572-3.459 0-1.054-.934-1.73-2.266-1.73-2.008 0-4.533 1.67-4.533 3.459 0 1.094.974 1.73 2.227 1.73z" fill-rule="nonzero"/><path d="m134.889 106.46 2.803-2.068c1.233-.894 1.71-1.908 1.749-2.664 0-1.113-1.014-1.948-2.206-1.948-.835 0-1.452.318-1.849.974l.139-6.263h-.636zm1.849-5.885c.636 0 1.113.457 1.113 1.074 0 1.033-1.372 3.022-2.406 3.678-.059-.338-.099-.994-.099-1.969 0-.536.04-1.193.119-1.948.298-.557.716-.835 1.273-.835z" fill-rule="nonzero"/><path d="m157.566 103.642v16.62" fill="none"/><path d="m157.566 103.642v16.62" fill="none" stroke="#000" stroke-width=".47"/><path d="m159.637 105.406c2.048 0 4.573-1.71 4.573-3.459 0-1.054-.934-1.73-2.266-1.73-2.008 0-4.533 1.67-4.533 3.459 0 1.094.974 1.73 2.226 1.73z" fill-rule="nonzero"/><path d="m188.01 103.642v16.62" fill="none"/><path d="m188.01 103.642v16.62" fill="none" stroke="#000" stroke-width=".47"/><path d="m190.081 105.406c2.048 0 4.573-1.71 4.573-3.459 0-1.054-.934-1.73-2.267-1.73-2.008 0-4.533 1.67-4.533 3.459 0 1.094.975 1.73 2.227 1.73z" fill-rule="nonzero"/><path d="m197.951 99.45c-.478 0-.915.418-.915.954 0 .458.457.895.915.895.536 0 .954-.437.954-.895 0-.536-.418-.954-.954-.954z" fill-rule="nonzero"/><path d="m225.599 104.574v-16.62" fill="none"/><path d="m225.599 104.574v-16.62" fill="none" stroke="#000" stroke-width=".47"/><path d="m221.146 107.891c2.048 0 4.573-1.709 4.573-3.459 0-1.054-.934-1.73-2.266-1.73-2.008 0-4.533 1.67-4.533 3.46 0 1.093.974 1.729 2.226 1.729z" fill-rule="nonzero"/><path d="m213.017 108.945 2.803-2.068c1.233-.894 1.71-1.908 1.75-2.664 0-1.113-1.014-1.948-2.207-1.948-.835 0-1.451.318-1.849.974l.139-6.263h-.636zm1.849-5.885c.636 0 1.114.457 1.114 1.074 0 1.034-1.372 3.022-2.406 3.678-.06-.338-.1-.994-.1-1.968 0-.537.04-1.193.12-1.949.298-.557.715-.835 1.272-.835z" fill-rule="nonzero"/><path d="m225.642 92.881c.994 0 1.332.377 1.909.795 1.61 1.133 2.425 2.386 2.425 3.778v.099c-.04 1.789-.059 1.928-.576 3.082-.08.179-.12.298-.12.377 0 .1.06.159.159.159.199 0 1.213-1.391 1.213-3.936v-.1c0-.855-.238-1.67-.716-2.425-.139-.239-.755-1.054-1.849-2.426-.854-1.093-1.59-2.445-2.187-4.016-.019-.059-.019-.119-.019-.179 0-.059 0-.119.019-.159.02-.02-.079-.02-.258-.02z" fill-rule="nonzero"/><path d="m245.635 102.089v-16.465" fill="none"/><path d="m245.635 102.089v-16.465" fill="none" stroke="#000" stroke-width=".47"/><path d="m241.183 105.406c2.048 0 4.573-1.71 4.573-3.459 0-1.054-.934-1.73-2.266-1.73-2.009 0-4.533 1.67-4.533 3.459 0 1.094.974 1.73 2.226 1.73z" fill-rule="nonzero"/><path d="m233.054 106.46 2.803-2.068c1.233-.894 1.71-1.908 1.75-2.664 0-1.113-1.014-1.948-2.207-1.948-.835 0-1.451.318-1.849.974l.139-6.263h-.636zm1.849-5.885c.636 0 1.113.457 1.113 1.074 0 1.033-1.371 3.022-2.405 3.678-.06-.338-.1-.994-.1-1.969 0-.536.04-1.193.12-1.948.298-.557.715-.835 1.272-.835z" fill-rule="nonzero"/><path d="m262.255 99.603v-13.979" fill="none"/><path d="m262.255 99.603v-13.979" fill="none" stroke="#000" stroke-width=".47"/><path d="m257.803 102.921c2.048 0 4.573-1.71 4.573-3.459 0-1.054-.935-1.73-2.267-1.73-2.008 0-4.533 1.67-4.533 3.459 0 1.094.975 1.73 2.227 1.73z" fill-rule="nonzero"/><path d="m278.875 112.029v-26.405" fill="none"/><path d="m278.875 112.029v-26.405" fill="none" stroke="#000" stroke-width=".47"/><path d="m274.423 115.347c2.048 0 4.573-1.71 4.573-3.459 0-1.054-.935-1.73-2.267-1.73-2.008 0-4.533 1.67-4.533 3.459 0 1.094.974 1.73 2.227 1.73z" fill-rule="nonzero"/><path d="m266.294 116.401 2.803-2.068c1.233-.895 1.71-1.909 1.75-2.664 0-1.113-1.014-1.948-2.207-1.948-.835 0-1.452.318-1.849.974l.139-6.263h-.636zm1.849-5.885c.636 0 1.113.457 1.113 1.073 0 1.034-1.372 3.022-2.406 3.678-.059-.338-.099-.994-.099-1.968 0-.537.04-1.193.119-1.948.299-.557.716-.835 1.273-.835z" fill-rule="nonzero"/><path d="m295.495 109.544v-23.92" fill="none"/><path d="m295.495 109.544v-23.92" fill="none" stroke="#000" stroke-width=".47"/><path d="m291.043 112.862c2.047 0 4.572-1.71 4.572-3.46 0-1.053-.934-1.729-2.266-1.729-2.008 0-4.533 1.67-4.533 3.459 0 1.094.974 1.73 2.227 1.73z" fill-rule="nonzero"/><path d="m376.575 100.436h5.586v2.386h-5.586z" fill-rule="nonzero"/><path d="m420.946 106.778c-.816-1.312-2.486-2.764-2.486-3.817 0-.696.617-1.79 1.869-3.301l-3.539-4.851c-.218.04-.338.12-.338.259 0-.02 1.452 1.729 1.452 2.783 0 1.034-.676 2.167-2.048 3.42 1.551 1.908 2.425 2.823 3.042 3.777-.418-.218-.815-.338-1.193-.338-1.213 0-1.988 1.153-1.988 2.326 0 1.432 2.386 3.162 2.843 3.162.079 0 .139-.04.159-.12-.835-.815-1.253-1.57-1.253-2.266 0-.915.776-1.432 1.79-1.432.536 0 1.113.14 1.69.398z" fill-rule="nonzero"/><path d="m445.384 109.544v-16.464" fill="none"/><path d="m445.384 109.544v-16.464" fill="none" stroke="#000" stroke-width=".47"/><path d="m440.932 112.862c2.047 0 4.572-1.71 4.572-3.46 0-1.053-.934-1.729-2.266-1.729-2.008 0-4.533 1.67-4.533 3.459 0 1.094.974 1.73 2.227 1.73z" fill-rule="nonzero"/><path d="m462.004 109.544v-16.464" fill="none"/><path d="m462.004 109.544v-16.464" fill="none" stroke="#000" stroke-width=".47"/><path d="m457.551 112.862c2.048 0 4.573-1.71 4.573-3.46 0-1.053-.934-1.729-2.266-1.729-2.008 0-4.533 1.67-4.533 3.459 0 1.094.974 1.73 2.226 1.73z" fill-rule="nonzero"/><path d="m28.646 179.962h5.587v2.386h-5.587z" fill-rule="nonzero"/><path d="m79.282 184.1v-16.464" fill="none"/><path d="m79.282 184.1v-16.464" fill="none" stroke="#000" stroke-width=".47"/><path d="m74.83 187.418c2.048 0 4.573-1.71 4.573-3.459 0-1.054-.935-1.73-2.267-1.73-2.008 0-4.533 1.67-4.533 3.459 0 1.094.974 1.73 2.227 1.73z" fill-rule="nonzero"/><path d="m66.701 188.472 2.803-2.068c1.233-.895 1.71-1.909 1.75-2.664 0-1.114-1.014-1.949-2.207-1.949-.835 0-1.452.319-1.849.975l.139-6.263h-.636zm1.849-5.885c.636 0 1.113.457 1.113 1.073 0 1.034-1.372 3.022-2.406 3.678-.059-.338-.099-.994-.099-1.968 0-.537.04-1.193.119-1.948.299-.557.716-.835 1.273-.835z" fill-rule="nonzero"/><path d="m98.076 181.615v-15.222" fill="none"/><path d="m98.076 181.615v-15.222" fill="none" stroke="#000" stroke-width=".47"/><path d="m93.624 184.933c2.048 0 4.573-1.71 4.573-3.46 0-1.053-.934-1.729-2.267-1.729-2.008 0-4.533 1.67-4.533 3.459 0 1.094.975 1.73 2.227 1.73z" fill-rule="nonzero"/><path d="m85.495 185.986 2.803-2.067c1.233-.895 1.71-1.909 1.75-2.664 0-1.114-1.014-1.949-2.207-1.949-.835 0-1.451.318-1.849.974l.139-6.262h-.636zm1.849-5.884c.636 0 1.113.457 1.113 1.073 0 1.034-1.371 3.022-2.405 3.678-.06-.338-.1-.994-.1-1.968 0-.537.04-1.193.12-1.948.298-.557.715-.835 1.272-.835z" fill-rule="nonzero"/><path d="m110.347 183.168v16.62" fill="none"/><path d="m110.347 183.168v16.62" fill="none" stroke="#000" stroke-width=".47"/><path d="m112.419 184.933c2.047 0 4.572-1.71 4.572-3.46 0-1.053-.934-1.729-2.266-1.729-2.008 0-4.533 1.67-4.533 3.459 0 1.094.974 1.73 2.227 1.73z" fill-rule="nonzero"/><path d="m143.742 183.168v16.62" fill="none"/><path d="m143.742 183.168v16.62" fill="none" stroke="#000" stroke-width=".47"/><path d="m145.814 184.933c2.047 0 4.572-1.71 4.572-3.46 0-1.053-.934-1.729-2.266-1.729-2.008 0-4.533 1.67-4.533 3.459 0 1.094.974 1.73 2.227 1.73z" fill-rule="nonzero"/><path d="m153.683 178.977c-.477 0-.915.417-.915.954 0 .457.458.895.915.895.537 0 .954-.438.954-.895 0-.537-.417-.954-.954-.954z" fill-rule="nonzero"/><path d="m185.214 184.1v-16.619" fill="none"/><path d="m185.214 184.1v-16.619" fill="none" stroke="#000" stroke-width=".47"/><path d="m180.762 187.418c2.047 0 4.572-1.71 4.572-3.459 0-1.054-.934-1.73-2.266-1.73-2.008 0-4.533 1.67-4.533 3.459 0 1.094.974 1.73 2.227 1.73z" fill-rule="nonzero"/><path d="m172.633 188.472 2.803-2.068c1.233-.895 1.71-1.909 1.749-2.664 0-1.114-1.013-1.949-2.206-1.949-.835 0-1.452.319-1.849.975l.139-6.263h-.636zm1.849-5.885c.636 0 1.113.457 1.113 1.073 0 1.034-1.372 3.022-2.406 3.678-.059-.338-.099-.994-.099-1.968 0-.537.04-1.193.119-1.948.298-.557.716-.835 1.273-.835z" fill-rule="nonzero"/><path d="m185.257 172.407c.995 0 1.333.378 1.909.796 1.61 1.133 2.426 2.385 2.426 3.777v.099c-.04 1.79-.06 1.929-.577 3.082-.079.179-.119.298-.119.378 0 .099.059.159.159.159.199 0 1.213-1.392 1.213-3.937v-.099c0-.855-.239-1.67-.716-2.426-.139-.238-.756-1.053-1.849-2.425-.855-1.094-1.591-2.446-2.187-4.016-.02-.06-.02-.12-.02-.179 0-.06 0-.119.02-.159.02-.02-.08-.02-.259-.02z" fill-rule="nonzero"/><path d="m205.251 181.615v-16.464" fill="none"/><path d="m205.251 181.615v-16.464" fill="none" stroke="#000" stroke-width=".47"/><path d="m200.799 184.933c2.047 0 4.572-1.71 4.572-3.46 0-1.053-.934-1.729-2.266-1.729-2.008 0-4.533 1.67-4.533 3.459 0 1.094.974 1.73 2.227 1.73z" fill-rule="nonzero"/><path d="m192.67 185.986 2.803-2.067c1.233-.895 1.71-1.909 1.749-2.664 0-1.114-1.013-1.949-2.206-1.949-.835 0-1.452.318-1.849.974l.139-6.262h-.636zm1.849-5.884c.636 0 1.113.457 1.113 1.073 0 1.034-1.372 3.022-2.406 3.678-.059-.338-.099-.994-.099-1.968 0-.537.04-1.193.119-1.948.298-.557.716-.835 1.273-.835z" fill-rule="nonzero"/><path d="m224.045 179.13v-13.979" fill="none"/><path d="m224.045 179.13v-13.979" fill="none" stroke="#000" stroke-width=".47"/><path d="m219.593 182.448c2.048 0 4.573-1.71 4.573-3.46 0-1.054-.935-1.73-2.267-1.73-2.008 0-4.533 1.67-4.533 3.46 0 1.093.974 1.73 2.227 1.73z" fill-rule="nonzero"/><path d="m242.84 191.556v-26.405" fill="none"/><path d="m242.84 191.556v-26.405" fill="none" stroke="#000" stroke-width=".47"/><path d="m238.387 194.874c2.048 0 4.573-1.71 4.573-3.46 0-1.054-.934-1.73-2.266-1.73-2.008 0-4.533 1.671-4.533 3.46 0 1.093.974 1.73 2.226 1.73z" fill-rule="nonzero"/><path d="m230.258 195.927 2.804-2.067c1.232-.895 1.709-1.909 1.749-2.665 0-1.113-1.014-1.948-2.207-1.948-.835 0-1.451.318-1.849.974l.14-6.262h-.637zm1.849-5.885c.636 0 1.114.458 1.114 1.074 0 1.034-1.372 3.022-2.406 3.678-.06-.338-.099-.994-.099-1.968 0-.537.039-1.193.119-1.949.298-.556.716-.835 1.272-.835z" fill-rule="nonzero"/><path d="m261.479 189.071v-23.92" fill="none"/><path d="m261.479 189.071v-23.92" fill="none" stroke="#000" stroke-width=".47"/><path d="m257.026 192.388c2.048 0 4.573-1.709 4.573-3.459 0-1.054-.934-1.73-2.266-1.73-2.008 0-4.533 1.67-4.533 3.46 0 1.093.974 1.729 2.226 1.729z" fill-rule="nonzero"/><path d="m352.965 179.962h5.587v2.386h-5.587z" fill-rule="nonzero"/><path d="m397.078 180.683v16.465" fill="none"/><path d="m397.078 180.683v16.465" fill="none" stroke="#000" stroke-width=".47"/><path d="m399.149 182.448c2.048 0 4.573-1.71 4.573-3.46 0-1.054-.935-1.73-2.267-1.73-2.008 0-4.533 1.67-4.533 3.46 0 1.093.975 1.73 2.227 1.73z" fill-rule="nonzero"/><path d="m415.872 175.713v21.435" fill="none"/><path d="m415.872 175.713v21.435" fill="none" stroke="#000" stroke-width=".47"/><path d="m417.943 177.477c2.048 0 4.573-1.71 4.573-3.459 0-1.054-.934-1.73-2.266-1.73-2.008 0-4.533 1.67-4.533 3.459 0 1.094.974 1.73 2.226 1.73z" fill-rule="nonzero"/><path d="m409.814 178.531 2.804-2.068c1.232-.895 1.709-1.908 1.749-2.664 0-1.113-1.014-1.948-2.207-1.948-.835 0-1.451.318-1.849.974l.14-6.263h-.637zm1.849-5.885c.637 0 1.114.457 1.114 1.074 0 1.033-1.372 3.022-2.406 3.678-.06-.338-.099-.994-.099-1.969 0-.536.039-1.193.119-1.948.298-.557.716-.835 1.272-.835z" fill-rule="nonzero"/><path d="m434.511 180.683v16.465" fill="none"/><path d="m434.511 180.683v16.465" fill="none" stroke="#000" stroke-width=".47"/><path d="m436.583 182.448c2.047 0 4.572-1.71 4.572-3.46 0-1.054-.934-1.73-2.266-1.73-2.008 0-4.533 1.67-4.533 3.46 0 1.093.974 1.73 2.227 1.73z" fill-rule="nonzero"/><path d="m453.305 175.713v21.435" fill="none"/><path d="m453.305 175.713v21.435" fill="none" stroke="#000" stroke-width=".47"/><path d="m455.377 177.477c2.048 0 4.573-1.71 4.573-3.459 0-1.054-.935-1.73-2.267-1.73-2.008 0-4.533 1.67-4.533 3.459 0 1.094.974 1.73 2.227 1.73z" fill-rule="nonzero"/><path d="m35.325 268.597v-16.619" fill="none"/><path d="m35.325 268.597v-16.619" fill="none" stroke="#000" stroke-width=".47"/><path d="m30.873 271.915c2.048 0 4.573-1.71 4.573-3.459 0-1.054-.935-1.73-2.267-1.73-2.008 0-4.533 1.67-4.533 3.459 0 1.094.974 1.73 2.227 1.73z" fill-rule="nonzero"/><path d="m61.252 258.614c-1.014.895-1.968 1.332-2.823 1.332-.12 0-.199-.02-.259-.059.219-.398.318-.736.318-1.034 0-.656-.377-.975-1.133-.975-.656 0-1.372.438-1.372 1.014 0 .975.617 1.452 1.849 1.452.676 0 1.531-.179 2.565-.517l-3.181 6.998h.835z" fill-rule="nonzero"/><path d="m82.544 268.597v-16.619" fill="none"/><path d="m82.544 268.597v-16.619" fill="none" stroke="#000" stroke-width=".47"/><path d="m78.092 271.915c2.047 0 4.572-1.71 4.572-3.459 0-1.054-.934-1.73-2.266-1.73-2.008 0-4.533 1.67-4.533 3.459 0 1.094.974 1.73 2.227 1.73z" fill-rule="nonzero"/><path d="m82.587 256.904c.994 0 1.332.378 1.909.796 1.61 1.133 2.426 2.385 2.426 3.777v.099c-.04 1.79-.06 1.929-.577 3.082-.08.179-.119.298-.119.378 0 .099.059.159.159.159.199 0 1.213-1.392 1.213-3.937v-.099c0-.855-.239-1.67-.716-2.426-.139-.238-.756-1.053-1.849-2.425-.855-1.094-1.591-2.446-2.187-4.016-.02-.06-.02-.12-.02-.179 0-.06 0-.119.02-.159.02-.02-.08-.02-.259-.02z" fill-rule="nonzero"/><path d="m102.426 268.597v-16.619" fill="none"/><path d="m102.426 268.597v-16.619" fill="none" stroke="#000" stroke-width=".47"/><path d="m95.591 270.245c0 1.113 1.094 1.769 2.446 1.769 2.266 0 4.553-1.511 4.553-3.38 0-1.272-1.074-2.008-2.724-2.008-2.028 0-4.275 1.79-4.275 3.619zm5.408-3.022c.756 0 1.133.318 1.133.934 0 1.153-3.539 3.261-4.95 3.261-.756 0-1.133-.318-1.133-.935 0-1.232 3.678-3.26 4.95-3.26z" fill-rule="nonzero"/><path d="m149.489 259.489h5.587v2.386h-5.587z" fill-rule="nonzero"/><path d="m196.242 260.21v16.464" fill="none"/><path d="m196.242 260.21v16.464" fill="none" stroke="#000" stroke-width=".47"/><path d="m198.313 261.974c2.048 0 4.573-1.71 4.573-3.459 0-1.054-.934-1.73-2.266-1.73-2.008 0-4.533 1.67-4.533 3.459 0 1.094.974 1.73 2.226 1.73z" fill-rule="nonzero"/><path d="m215.968 255.239v21.435" fill="none"/><path d="m215.968 255.239v21.435" fill="none" stroke="#000" stroke-width=".47"/><path d="m218.04 257.004c2.048 0 4.573-1.71 4.573-3.46 0-1.053-.935-1.729-2.267-1.729-2.008 0-4.533 1.67-4.533 3.459 0 1.093.974 1.73 2.227 1.73z" fill-rule="nonzero"/><path d="m209.911 258.057 2.803-2.067c1.233-.895 1.71-1.909 1.75-2.664 0-1.114-1.014-1.949-2.207-1.949-.835 0-1.452.318-1.849.974l.139-6.262h-.636zm1.849-5.885c.636 0 1.113.458 1.113 1.074 0 1.034-1.372 3.022-2.406 3.678-.059-.338-.099-.994-.099-1.968 0-.537.04-1.193.119-1.949.298-.556.716-.835 1.273-.835z" fill-rule="nonzero"/><path d="m235.85 260.21v16.464" fill="none"/><path d="m235.85 260.21v16.464" fill="none" stroke="#000" stroke-width=".47"/><path d="m237.921 261.974c2.048 0 4.573-1.71 4.573-3.459 0-1.054-.934-1.73-2.266-1.73-2.008 0-4.533 1.67-4.533 3.459 0 1.094.974 1.73 2.226 1.73z" fill-rule="nonzero"/><path d="m255.576 255.239v21.435" fill="none"/><path d="m255.576 255.239v21.435" fill="none" stroke="#000" stroke-width=".47"/><path d="m257.648 257.004c2.048 0 4.573-1.71 4.573-3.46 0-1.053-.935-1.729-2.267-1.729-2.008 0-4.533 1.67-4.533 3.459 0 1.093.974 1.73 2.227 1.73z" fill-rule="nonzero"/><path d="m289.437 268.597v-16.619" fill="none"/><path d="m289.437 268.597v-16.619" fill="none" stroke="#000" stroke-width=".47"/><path d="m284.985 271.915c2.048 0 4.573-1.71 4.573-3.459 0-1.054-.935-1.73-2.267-1.73-2.008 0-4.533 1.67-4.533 3.459 0 1.094.974 1.73 2.227 1.73z" fill-rule="nonzero"/><path d="m315.364 258.614c-1.014.895-1.968 1.332-2.823 1.332-.119 0-.199-.02-.259-.059.219-.398.319-.736.319-1.034 0-.656-.378-.975-1.134-.975-.656 0-1.371.438-1.371 1.014 0 .975.616 1.452 1.849 1.452.675 0 1.53-.179 2.564-.517l-3.181 6.998h.835z" fill-rule="nonzero"/><path d="m336.501 268.597v-16.619" fill="none"/><path d="m336.501 268.597v-16.619" fill="none" stroke="#000" stroke-width=".47"/><path d="m332.049 271.915c2.047 0 4.572-1.71 4.572-3.459 0-1.054-.934-1.73-2.266-1.73-2.008 0-4.533 1.67-4.533 3.459 0 1.094.974 1.73 2.227 1.73z" fill-rule="nonzero"/><path d="m336.544 256.904c.994 0 1.332.378 1.909.796 1.61 1.133 2.425 2.385 2.425 3.777v.099c-.039 1.79-.059 1.929-.576 3.082-.08.179-.119.298-.119.378 0 .099.059.159.159.159.199 0 1.212-1.392 1.212-3.937v-.099c0-.855-.238-1.67-.715-2.426-.139-.238-.756-1.053-1.849-2.425-.855-1.094-1.591-2.446-2.187-4.016-.02-.06-.02-.12-.02-.179 0-.06 0-.119.02-.159.02-.02-.08-.02-.259-.02z" fill-rule="nonzero"/><path d="m356.538 268.597v-16.619" fill="none"/><path d="m356.538 268.597v-16.619" fill="none" stroke="#000" stroke-width=".47"/><path d="m349.703 270.245c0 1.113 1.094 1.769 2.446 1.769 2.266 0 4.553-1.511 4.553-3.38 0-1.272-1.074-2.008-2.724-2.008-2.028 0-4.275 1.79-4.275 3.619zm5.408-3.022c.756 0 1.134.318 1.134.934 0 1.153-3.539 3.261-4.951 3.261-.756 0-1.133-.318-1.133-.935 0-1.232 3.678-3.26 4.95-3.26z" fill-rule="nonzero"/><path d="m319.26 339.015h5.586v2.386h-5.586z" fill-rule="nonzero"/><path d="m383.978 345.358c-.815-1.312-2.485-2.764-2.485-3.818 0-.695.616-1.789 1.869-3.3l-3.539-4.851c-.219.04-.338.119-.338.258 0-.019 1.451 1.73 1.451 2.784 0 1.034-.676 2.167-2.048 3.419 1.551 1.909 2.426 2.824 3.042 3.778-.417-.219-.815-.338-1.193-.338-1.212 0-1.988 1.153-1.988 2.326 0 1.432 2.386 3.161 2.843 3.161.08 0 .14-.039.159-.119-.835-.815-1.252-1.571-1.252-2.266 0-.915.775-1.432 1.789-1.432.537 0 1.114.139 1.69.398z" fill-rule="nonzero"/><path d="m420.376 348.124v-16.465" fill="none"/><path d="m420.376 348.124v-16.465" fill="none" stroke="#000" stroke-width=".47"/><path d="m415.924 351.441c2.048 0 4.573-1.709 4.573-3.459 0-1.054-.934-1.73-2.267-1.73-2.008 0-4.533 1.67-4.533 3.46 0 1.093.975 1.729 2.227 1.729z" fill-rule="nonzero"/><path d="m445.695 348.124v-16.465" fill="none"/><path d="m445.695 348.124v-16.465" fill="none" stroke="#000" stroke-width=".47"/><path d="m441.242 351.441c2.048 0 4.573-1.709 4.573-3.459 0-1.054-.934-1.73-2.266-1.73-2.009 0-4.533 1.67-4.533 3.46 0 1.093.974 1.729 2.226 1.729z" fill-rule="nonzero"/></svg>