<svg clip-rule="evenodd" fill-rule="evenodd" stroke-linejoin="round" stroke-miterlimit="2" viewBox="0 0 473 123" xmlns="http://www.w3.org/2000/svg"><path d="m70.895 93.105v19.881" fill="none" stroke="#000" stroke-width=".78"/><path d="m69.963 93.105v19.881" fill="none" stroke="#000" stroke-width="2.49"/><path d="m73.38 93.105v19.881" fill="none" stroke="#000" stroke-width=".78"/><path d="m76.642 99.63c-.478 0-.915.418-.915.955 0 .457.457.894.915.894.536 0 .954-.437.954-.894 0-.537-.418-.955-.954-.955z" fill-rule="nonzero"/><path d="m76.642 104.601c-.478 0-.915.417-.915.954 0 .457.457.895.915.895.536 0 .954-.438.954-.895 0-.537-.418-.954-.954-.954z" fill-rule="nonzero"/><path d="m180.088 93.105v19.881" fill="none" stroke="#000" stroke-width=".78"/><path d="m305.125 93.105v19.881" fill="none" stroke="#000" stroke-width=".78"/><path d="m368.808 93.105v19.881" fill="none" stroke="#000" stroke-width=".78"/><path d="m471.634 93.105v19.881" fill="none" stroke="#000" stroke-width=".78"/><path d="m90.193 68.498c-.237 2.69-.473 7.088-.473 9.578 0 1.599.145 2.144.672 2.144.891 0 .6-3.162.782-3.853 2.889-1.326 3.453-.49 3.453-2.489v-.2c0-.564-.018-.836-.382-.836-.69 0-2.798.763-3.162.818v-.237c0-.708.109-1.799.127-2.435.982-.49 2.835-.581 3.689-.763.473-.073.509-1.163.509-1.963 0-.418-.109-.709-.89-.709-1.418 0-4.289.6-4.325.945z" fill-rule="nonzero"/><path d="m96.679 73.805c.327.654.509 2.635.509 4.107 0 .582-.037 1.091-.091 1.399-.018.055-.018.091-.018.128 0 .49.599.836 1.054.836.254 0 .472-.109.49-.364.127-1.29.564-4.67 1.145-4.725.273-.036.4 2.781.473 4.398.018.454.49.672.945.672.418 0 .836-.181.854-.527.109-1.363 1.472-4.87 1.69-4.852.4.037.981 4.671.981 4.725.018.473.436.764.8.764.254 0 .491-.164.491-.528 0-1.544-.527-4.216-.945-5.888-.146-.545-.673-1.108-1.218-1.108-.4 0-.818.291-1.09 1.072l-1.327 3.289c0-.454-.563-3.434-.6-3.652-.182-.727-.472-1.036-.799-1.036-.655 0-1.436 1.217-1.727 2.562-.036-.491-.527-1.545-.563-1.635-.091-.2-.218-.273-.382-.273-.309 0-.69.291-.69.545 0 .037 0 .073.018.091z" fill-rule="nonzero"/><path d="m161.449 99.318c5.903-4.815 23.299-4.815 29.201 0" fill="none" stroke="#000" stroke-width=".31"/><path d="m161.449 99.318c5.903-5.592 23.299-5.592 29.201 0-5.902-4.039-23.298-4.039-29.201 0z"/><path d="m161.449 99.318c5.903-5.592 23.299-5.592 29.201 0-5.902-4.039-23.298-4.039-29.201 0z" fill="none" stroke="#000" stroke-width=".16"/><path d="m194.917 77.64c-.055.054-.091.127-.091.218 0 .49.909 1.453 1.417 1.453.346 0 5.616-5.833 8.905-9.268.037-.036.055-.072.055-.109 0-.4-1.072-1.454-1.436-1.454-.054 0-.091.018-.127.055-2.672 2.235-6.324 6.415-8.723 9.105zm7.178-.709c-.054.072-.073.145-.073.2 0 .472.855 1.217 1.4 1.217.436 0 1.981-2.09 1.981-2.217 0-.436-.818-1.417-1.327-1.417-.727 0-1.454 1.363-1.981 2.217zm-6.397-6.125c-.036.055-.054.11-.054.182 0 .418.781 1.218 1.163 1.218.363-.364.69-.709.963-1.018.509-.509.999-1.09.999-1.29 0-.473-.69-1.272-1.126-1.272-.564 0-1.527 1.817-1.945 2.18z" fill-rule="nonzero"/><path d="m312.498 77.64c-.054.054-.091.127-.091.218 0 .49.909 1.453 1.418 1.453.345 0 5.615-5.833 8.904-9.268.037-.036.055-.072.055-.109 0-.4-1.072-1.454-1.436-1.454-.054 0-.091.018-.127.055-2.671 2.235-6.324 6.415-8.723 9.105zm7.178-.709c-.054.072-.072.145-.072.2 0 .472.854 1.217 1.399 1.217.436 0 1.981-2.09 1.981-2.217 0-.436-.818-1.417-1.327-1.417-.727 0-1.454 1.363-1.981 2.217zm-6.397-6.125c-.036.055-.054.11-.054.182 0 .418.781 1.218 1.163 1.218.364-.364.691-.709.963-1.018.509-.509 1-1.09 1-1.29 0-.473-.691-1.272-1.127-1.272-.563 0-1.527 1.817-1.945 2.18z" fill-rule="nonzero"/><path d="m383.637 77.64c-.054.054-.091.127-.091.218 0 .49.909 1.453 1.418 1.453.345 0 5.615-5.833 8.904-9.268.037-.036.055-.072.055-.109 0-.4-1.072-1.454-1.436-1.454-.054 0-.091.018-.127.055-2.671 2.235-6.324 6.415-8.723 9.105zm7.178-.709c-.054.072-.072.145-.072.2 0 .472.854 1.217 1.399 1.217.436 0 1.981-2.09 1.981-2.217 0-.436-.818-1.417-1.327-1.417-.727 0-1.454 1.363-1.981 2.217zm-6.397-6.125c-.036.055-.054.11-.054.182 0 .418.781 1.218 1.163 1.218.364-.364.691-.709.963-1.018.509-.509 1-1.09 1-1.29 0-.473-.691-1.272-1.127-1.272-.563 0-1.527 1.817-1.945 2.18z" fill-rule="nonzero"/><path d="m30.132 100.229v-.841h-1.262v-4.509l-2.505 2.224v2.285h-2.705c.301-.762 1.122-1.804 2.465-3.146 1.222-1.223 1.923-2.305 2.124-3.206h-3.427c-.16 1.963-1.322 4.829-2.544 6.392v.801h4.087c0 .701-.02 1.102-.06 1.202-.12.221-.501.361-1.122.401l-.04.561h4.929l-.08-.581c-.962-.08-1.142-.18-1.142-.681 0-.06 0-.181.02-.381v-.521z" fill-rule="nonzero"/><path d="m30.132 110.303v-.841h-1.262v-4.508l-2.505 2.224v2.284h-2.705c.301-.762 1.122-1.803 2.465-3.146 1.222-1.222 1.923-2.304 2.124-3.206h-3.427c-.16 1.964-1.322 4.829-2.544 6.392v.801h4.087c0 .702-.02 1.102-.06 1.203-.12.22-.501.36-1.122.4l-.04.561h4.929l-.08-.581c-.962-.08-1.142-.18-1.142-.681 0-.06 0-.18.02-.381v-.521z" fill-rule="nonzero"/><path d="m.066 112.986h471.878" fill="none"/><path d="m.066 112.986h471.878" fill="none" stroke="#000" stroke-width=".47"/><path d="m.066 108.016h471.878" fill="none"/><path d="m.066 108.016h471.878" fill="none" stroke="#000" stroke-width=".47"/><path d="m.066 103.046h471.878" fill="none"/><path d="m.066 103.046h471.878" fill="none" stroke="#000" stroke-width=".47"/><path d="m.066 98.075h471.878" fill="none"/><path d="m.066 98.075h471.878" fill="none" stroke="#000" stroke-width=".47"/><path d="m.066 93.105h471.878" fill="none"/><path d="m.066 93.105h471.878" fill="none" stroke="#000" stroke-width=".47"/><path d="m14.192 112.327.756 3.678c.039.218.059.417.059.616 0 1.948-1.988 3.579-4.135 3.579-.656 0-1.292-.159-1.889-.458 1.531-.159 2.684-1.093 2.684-2.465 0-1.213-.994-2.485-2.266-2.485-1.452 0-2.446 1.113-2.446 2.565 0 2.027 1.65 3.36 3.638 3.36 2.665 0 4.931-1.73 4.931-4.215 0-.557-.875-4.494-.855-4.354 2.128-1.034 3.579-2.863 3.579-4.792 0-2.644-2.127-4.672-4.772-4.672-.039 0-.318.02-.795.06l-.875-4.195c2.963-2.506 4.315-5.17 4.315-8.092 0-2.247-.895-4.633-2.704-7.138-2.048 1.65-3.221 4.951-3.221 8.47 0 1.252.159 2.465.437 3.618-4.533 3.798-6.799 7.297-6.799 10.498 0 3.757 3.877 6.879 8.092 6.879.934 0 1.63-.139 2.266-.457zm-.06-26.125c.657.676.995 1.471.995 2.406 0 1.928-1.372 4.095-4.056 6.481-.14-.576-.179-1.213-.179-1.909 0-3.34 1.232-7.018 2.883-7.018.139 0 .258.02.357.04zm.418 25.309-1.412-6.64c.279-.02.438-.04.497-.04 1.71 0 2.903 1.611 2.903 3.261 0 1.312-.696 2.465-1.988 3.419zm-1.909-6.561 1.432 6.84c-.696.377-1.471.537-2.406.537-3.221 0-6.004-2.406-6.004-5.329 0-2.644 1.968-5.368 5.686-8.151l.835 3.976c-2.068.437-3.817 2.187-3.817 4.155 0 1.67 1.193 2.843 2.982 3.122-1.093-.676-1.63-1.531-1.63-2.545 0-1.372 1.272-2.386 2.922-2.605z" fill-rule="nonzero"/><path d="m57.257 116.237c0 .398.338.755.775.755.438 0 .776-.357.776-.755 0-.437-.338-.775-.776-.775-.437 0-.775.338-.775.775z" fill-rule="nonzero"/><path d="m44.645 93.105h16.619v2.485h-16.619z"/><path d="m143.462 110.645c0 .398.338.756.776.756.437 0 .775-.358.775-.756 0-.437-.338-.775-.775-.775-.438 0-.776.338-.776.775z" fill-rule="nonzero"/><path d="m130.85 90.62 16.62-1.243v-2.485l-16.62 1.243z"/><path d="m164.941 90.663-8.152-2.088v.796l5.667 1.292-5.667 1.292v.796z" fill-rule="nonzero"/><path d="m334.482 98.032h5.586v2.385h-5.586z" fill-rule="nonzero"/><path d="m258.248 105.675c0 .397.338.755.775.755.438 0 .776-.358.776-.755 0-.438-.338-.776-.776-.776-.437 0-.775.338-.775.776z" fill-rule="nonzero"/><path d="m291.488 116.237c0 .398.338.755.775.755s.775-.357.775-.755c0-.437-.338-.775-.775-.775s-.775.338-.775.775z" fill-rule="nonzero"/><path d="m245.635 85.649h49.86v2.486h-49.86z"/><path d="m457.996 116.237c0 .398.338.755.776.755.437 0 .775-.357.775-.755 0-.437-.338-.775-.775-.775-.438 0-.776.338-.776.775z" fill-rule="nonzero"/><path d="m445.384 93.105h16.62v2.485h-16.62z"/><path d="m223.113 110.501c5.592 6.835 29.357 6.835 35.104 0" fill="none" stroke="#000" stroke-width=".31"/><path d="m223.113 110.501c5.592 6.058 29.357 6.058 35.104 0-5.747 7.611-29.512 7.611-35.104 0z"/><path d="m223.113 110.501c5.592 6.058 29.357 6.058 35.104 0-5.747 7.611-29.512 7.611-35.104 0z" fill="none" stroke="#000" stroke-width=".16"/><path d="m276.39 117.491c2.64 5.281 12.271 5.281 15.066 1.087" fill="none" stroke="#000" stroke-width=".31"/><path d="m276.39 117.491c2.64 4.504 12.271 4.504 15.066 1.087-2.795 4.97-12.426 4.97-15.066-1.087z"/><path d="m276.39 117.491c2.64 4.504 12.271 4.504 15.066 1.087-2.795 4.97-12.426 4.97-15.066-1.087z" fill="none" stroke="#000" stroke-width=".16"/><g fill-rule="nonzero"><path d="m393.646 42.177h.86v3.772h4.753v-3.772h.86v8.646h-.86v-4.146h-4.753v4.146h-.86z"/><path d="m406.47 47.636h-4.488c0 .85.198 1.489.595 1.941.386.441.905.662 1.544.662.486 0 .949-.154 1.401-.463.121-.077.254-.177.397-.298s.287-.265.452-.43v.959c-.176.133-.342.254-.485.353-.155.1-.298.177-.43.243-.463.243-.927.364-1.39.364-.805 0-1.478-.276-2.04-.827-.607-.585-.904-1.335-.904-2.261 0-.871.275-1.61.816-2.195.551-.595 1.235-.893 2.04-.893.783 0 1.412.287 1.875.86.408.519.617 1.18.617 1.985zm-4.378-.672h3.452c-.088-.497-.276-.872-.562-1.114-.298-.254-.651-.375-1.059-.375-.452 0-.838.143-1.158.43-.298.265-.518.618-.673 1.059z"/><path d="m410.505 44.923v.794c-.077-.033-.143-.055-.198-.066-.056-.022-.1-.033-.133-.044s-.077-.011-.11-.011c-.044-.011-.099-.011-.165-.011-.541 0-.982.265-1.324.783-.298.474-.441 1.015-.441 1.599v2.856h-.794v-5.9h.728l.055 1.015c.187-.309.353-.529.518-.662.331-.275.728-.408 1.191-.408.122 0 .243 0 .353.011.1.011.21.022.32.044z"/><path d="m411.221 42.177h.805v3.739c.099-.154.209-.287.309-.397.099-.11.198-.21.297-.287.386-.298.827-.441 1.335-.441.761 0 1.389.287 1.886.871.507.585.76 1.302.76 2.14 0 .86-.253 1.588-.76 2.194-.541.651-1.225.971-2.041.971-.452 0-.838-.099-1.169-.298-.209-.121-.419-.287-.617-.507l-.21.661h-.595zm.805 5.437v1.71c.099.121.209.231.309.331.099.099.198.176.286.242.32.232.695.342 1.103.342.563 0 1.037-.232 1.401-.695.364-.474.551-1.058.551-1.731 0-.706-.209-1.279-.618-1.732-.352-.386-.76-.573-1.224-.573-.496 0-.926.209-1.29.64-.342.408-.518.904-.518 1.466z"/><path d="m417.362 44.923h.794v5.9h-.794zm.386-2.492c.154 0 .286.055.386.155.099.099.154.253.154.441 0 .187-.044.342-.143.441-.1.099-.232.154-.397.154-.166 0-.298-.055-.386-.176-.1-.122-.144-.254-.144-.408 0-.243.055-.408.166-.486.11-.077.231-.121.364-.121z"/><path d="m424.352 47.636h-4.488c0 .85.198 1.489.595 1.941.386.441.905.662 1.544.662.485 0 .949-.154 1.401-.463.121-.077.253-.177.397-.298.143-.121.287-.265.452-.43v.959c-.176.133-.342.254-.485.353-.155.1-.298.177-.43.243-.464.243-.927.364-1.39.364-.805 0-1.478-.276-2.04-.827-.607-.585-.904-1.335-.904-2.261 0-.871.275-1.61.816-2.195.551-.595 1.235-.893 2.04-.893.783 0 1.411.287 1.875.86.408.519.617 1.18.617 1.985zm-4.378-.672h3.452c-.088-.497-.276-.872-.563-1.114-.297-.254-.65-.375-1.058-.375-.452 0-.838.143-1.158.43-.298.265-.519.618-.673 1.059z"/><path d="m428.861 42.177h.86v3.772h4.753v-3.772h.86v8.646h-.86v-4.146h-4.753v4.146h-.86z"/><path d="m441.09 47.008v2.779c0 .121.033.231.088.331.055.088.155.132.298.132h.11c.033-.011.055-.011.089-.022.044-.011.088-.033.121-.044s.055-.022.077-.033v.617c-.132.044-.265.078-.397.1-.132.011-.232.022-.309.022-.375 0-.617-.1-.739-.298-.099-.121-.143-.397-.143-.805-.099.165-.187.309-.287.43-.099.121-.187.221-.286.298-.386.297-.828.452-1.335.452-.54 0-1.003-.155-1.4-.474-.408-.342-.618-.772-.618-1.291 0-.65.331-1.136.993-1.444.242-.122.562-.221.97-.309.397-.088.871-.166 1.434-.243l.529-.055c0-.518-.132-.915-.386-1.202-.265-.298-.651-.441-1.158-.441-.187 0-.375.022-.562.077-.188.044-.386.121-.574.221-.099.055-.22.132-.342.209-.121.077-.264.188-.408.309v-.904c.629-.419 1.302-.629 2.018-.629.739 0 1.302.232 1.699.695.342.408.518.915.518 1.522zm-.805 1.158v-.353l-.375.044c-.915.099-1.566.22-1.941.386-.496.198-.75.518-.75.97 0 .133.033.265.088.386.056.122.144.221.243.32s.232.177.386.232c.143.055.309.088.496.088.497 0 .938-.198 1.313-.607.364-.408.54-.904.54-1.466z"/><path d="m447.86 46.875v3.948h-.794v-3.892c0-.408-.154-.75-.452-1.015-.297-.276-.661-.408-1.08-.408-.563 0-1.037.232-1.445.695-.408.474-.607 1.003-.607 1.588v3.032h-.75v-5.9h.695l.033 1.103c.199-.297.43-.551.695-.75.43-.319.926-.485 1.467-.485.628 0 1.158.188 1.588.574.43.375.65.882.65 1.51z"/><path d="m453.716 45.442v1.036c-.408-.386-.838-.672-1.268-.838-.121-.055-.254-.088-.386-.099-.132-.022-.265-.033-.397-.033-.607 0-1.114.232-1.5.684-.386.474-.584 1.025-.584 1.676 0 .662.198 1.224.606 1.698.408.452.915.673 1.522.673.386 0 .728-.077 1.048-.243.319-.165.639-.419.959-.75v1.048c-.386.243-.739.419-1.059.518-.319.1-.639.155-.959.155-.827 0-1.533-.298-2.117-.882-.574-.607-.861-1.346-.861-2.206 0-.849.287-1.577.85-2.184.573-.606 1.29-.904 2.139-.904.43 0 .838.077 1.213.221.221.077.485.22.794.43z"/><path d="m457.377 50.967c-.761 0-1.423-.276-1.996-.827-.607-.585-.916-1.335-.916-2.261 0-.871.265-1.61.805-2.195.552-.595 1.235-.893 2.04-.893.806 0 1.478.298 2.03.893.54.585.816 1.313.816 2.184 0 .915-.298 1.665-.883 2.261-.54.562-1.18.838-1.896.838zm-.078-.728c.53 0 1.004-.221 1.412-.662.397-.452.596-1.014.596-1.709 0-.717-.21-1.29-.64-1.742-.386-.409-.838-.618-1.357-.618-.529 0-.981.209-1.356.64-.408.474-.618 1.047-.618 1.731 0 .695.199 1.268.607 1.731.375.419.827.629 1.356.629z"/><path d="m465.868 45.442v1.036c-.408-.386-.838-.672-1.268-.838-.122-.055-.254-.088-.386-.099-.133-.022-.265-.033-.397-.033-.607 0-1.114.232-1.5.684-.386.474-.585 1.025-.585 1.676 0 .662.199 1.224.607 1.698.408.452.915.673 1.522.673.386 0 .728-.077 1.047-.243.32-.165.64-.419.96-.75v1.048c-.386.243-.739.419-1.059.518-.32.1-.639.155-.959.155-.827 0-1.533-.298-2.118-.882-.573-.607-.86-1.346-.86-2.206 0-.849.287-1.577.849-2.184.574-.606 1.291-.904 2.14-.904.43 0 .838.077 1.213.221.22.077.485.22.794.43z"/><path d="m466.771 42.177h.805v5.349l2.713-2.603h1.125l-2.481 2.294 2.834 3.606h-1.092l-2.338-3.076-.761.705v2.371h-.805z"/><path d="m167.253.662v2.029c0 .11-.022.22-.044.287-.022.066-.11.088-.22.088-.331-.066-.684-.132-1.037-.199-.375-.066-.706-.11-.992-.11-.993 0-1.655.309-1.963.948-.199.397-.287 1.103-.287 2.14v3.727c0 1.258.176 2.118.507 2.537s.948.617 1.897.617c.529 0 .882-.044 1.081-.132.198-.11.507-.154.948-.154.221 0 .331.132.331.397v1.963c0 .331-.177.595-.529.75-.375.154-1.191.22-2.493.22-2.029 0-3.441-.551-4.213-1.632-.529-.75-.794-1.897-.794-3.419v-6.264c0-1.301.309-2.316.927-3.021.838-.971 2.25-1.456 4.257-1.456 1.102 0 1.852.066 2.249.221.243.088.375.242.375.463z"/><path d="m176.957 6.639v8.183c0 .242-.022.397-.066.485-.111.199-.309.287-.596.287h-1.853c-.286 0-.419-.111-.419-.353 0-.11-.066-.155-.176-.155-.11.045-.177.089-.199.111-.198.176-.463.309-.794.419-.353.11-.683.154-1.014.154-.86 0-1.544-.309-2.096-.926-.595-.684-.904-1.676-.904-2.934 0-1.499.485-2.668 1.456-3.507.573-.485 1.544-.97 2.889-1.477l.552-.199c.154-.066.22-.176.22-.353 0-.308-.132-.529-.397-.639-.287-.111-.617-.177-1.014-.177-.419 0-.728.022-.949.066-.242.067-.463.133-.639.177-.199.044-.331.088-.442.132-.286.11-.463.155-.529.155-.287 0-.419-.133-.419-.397v-1.368c0-.287.154-.507.485-.706.552-.309 1.456-.463 2.757-.463 1.677 0 2.846.375 3.485 1.147.441.529.662 1.301.662 2.338zm-3 5.646v-2.823c0-.066-.022-.132-.088-.154s-.132-.022-.221.044l-.375.242c-.441.287-.749.552-.926.795-.243.352-.375.794-.375 1.345 0 .375.088.706.243.97.154.243.397.375.728.375.286 0 .529-.088.727-.242.199-.155.287-.353.287-.552z"/><path d="m178.721 14.976v-11.028c0-.265.066-.441.176-.507s.243-.11.441-.11h1.963c.111 0 .221.044.309.132.066.066.11.176.11.287 0 .154.044.22.155.22.022 0 .088-.044.198-.11.221-.199.441-.331.662-.441.375-.177.816-.265 1.279-.265.772 0 1.412.243 1.919.706.596.573.904 1.434.904 2.58v8.536c0 .265-.044.441-.154.507-.11.067-.265.111-.463.111h-1.765c-.264 0-.441-.044-.507-.155-.066-.11-.11-.264-.11-.463v-7.896c0-.287-.089-.529-.265-.728-.198-.198-.441-.309-.772-.309-.463 0-.794.199-.948.618-.089.243-.133.573-.133 1.015v7.3c0 .265-.044.441-.154.507-.11.067-.265.111-.463.111h-1.765c-.264 0-.441-.044-.507-.155-.066-.11-.11-.264-.11-.463z"/><path d="m189.329 1.125 2.183-.706c.088-.022.155-.044.221-.044.176 0 .264.132.264.375v2.47c0 .199.089.287.287.287h.86c.199 0 .353.044.464.11.11.066.154.243.154.508v1.036c0 .265-.044.441-.154.507-.111.067-.265.111-.464.111h-.904c-.154 0-.243.088-.243.242v6c0 .419.067.728.199.904.11.176.375.265.75.265.154 0 .287 0 .375-.022s.176-.045.287-.045c.176 0 .264.111.264.331v1.677c0 .242-.088.397-.287.507-.198.088-.595.132-1.235.132-1.191 0-2.051-.22-2.558-.639-.53-.442-.794-1.191-.794-2.228v-6.837c0-.111-.022-.199-.088-.221-.067-.022-.133-.044-.199-.066h-.353c-.154 0-.287-.044-.353-.111-.066-.066-.11-.242-.11-.507v-1.036c0-.265.044-.442.11-.508s.199-.11.353-.11h.441c.133-.044.199-.132.199-.287v-1.632c0-.243.11-.397.331-.463z"/><path d="m202.76 6.639v8.183c0 .242-.022.397-.066.485-.11.199-.309.287-.595.287h-1.853c-.287 0-.419-.111-.419-.353 0-.11-.066-.155-.177-.155-.11.045-.176.089-.198.111-.199.176-.463.309-.794.419-.353.11-.684.154-1.015.154-.86 0-1.544-.309-2.095-.926-.596-.684-.904-1.676-.904-2.934 0-1.499.485-2.668 1.455-3.507.574-.485 1.544-.97 2.89-1.477l.551-.199c.154-.066.221-.176.221-.353 0-.308-.133-.529-.397-.639-.287-.111-.618-.177-1.015-.177-.419 0-.728.022-.948.066-.243.067-.464.133-.64.177-.199.044-.331.088-.441.132-.287.11-.463.155-.53.155-.286 0-.419-.133-.419-.397v-1.368c0-.287.155-.507.486-.706.551-.309 1.455-.463 2.757-.463 1.676 0 2.845.375 3.485 1.147.441.529.661 1.301.661 2.338zm-2.999 5.646v-2.823c0-.066-.022-.132-.089-.154-.066-.022-.132-.022-.22.044l-.375.242c-.441.287-.75.552-.927.795-.242.352-.374.794-.374 1.345 0 .375.088.706.242.97.155.243.397.375.728.375.287 0 .529-.088.728-.242.198-.155.287-.353.287-.552z"/><path d="m207.524.772v14.204c0 .265-.044.441-.155.507-.11.067-.264.111-.463.111h-1.764c-.265 0-.441-.044-.508-.155-.066-.11-.11-.264-.11-.463v-14.204c0-.265.066-.441.177-.507.11-.066.242-.111.441-.111h1.764c.265 0 .441.067.507.177.067.11.111.243.111.441z"/><path d="m209.156 11.337v-3.75c0-1.191.22-2.139.684-2.845.683-1.059 1.852-1.588 3.507-1.588 1.654 0 2.823.529 3.506 1.588.464.706.684 1.654.684 2.845v3.75c0 1.191-.22 2.139-.684 2.845-.683 1.059-1.852 1.588-3.506 1.588-1.655 0-2.824-.529-3.507-1.588-.464-.706-.684-1.654-.684-2.845zm2.999-4.257v4.764c0 .552.133.927.375 1.169.199.199.486.287.817.287.33 0 .595-.088.794-.287.264-.242.397-.639.397-1.169v-4.764c0-.551-.111-.926-.331-1.125-.243-.22-.53-.331-.86-.331-.331 0-.596.089-.795.287-.264.243-.397.64-.397 1.169z"/><path d="m227.285 3.948v11.028c0 .265-.044.441-.154.507-.111.067-.265.111-.464.111h-1.963c-.11 0-.22-.044-.286-.111-.089-.088-.133-.198-.133-.308 0-.133-.022-.199-.066-.199-.066-.022-.11-.022-.132-.022-.088.066-.132.088-.155.11-.264.243-.551.442-.882.552s-.684.154-1.058.154c-.772 0-1.412-.242-1.919-.706-.596-.573-.905-1.433-.905-2.58v-8.536c0-.265.066-.441.177-.507.11-.066.242-.11.441-.11h1.764c.199 0 .353.044.464.11.11.066.154.242.154.507v7.896c0 .287.088.552.287.75.176.199.419.287.75.287.463 0 .794-.199.948-.618.088-.242.132-.573.132-1.014v-7.301c0-.265.067-.441.177-.507s.242-.11.441-.11h1.764c.199 0 .353.044.464.11.11.066.154.242.154.507z"/><path d="m232.048 15.263v2.889c0 .265-.044.441-.154.508-.111.066-.265.11-.463.11h-1.765c-.265 0-.441-.044-.507-.155-.066-.11-.111-.264-.111-.463v-14.204c0-.265.067-.441.177-.507s.243-.11.441-.11h2.007c.265 0 .397.11.397.308v.177c0 .11.044.154.155.154.022 0 .088-.044.198-.11.243-.221.463-.375.662-.463.331-.155.772-.243 1.279-.243 1.235 0 2.073.507 2.514 1.544.243.596.375 1.456.375 2.581v4.455c0 1.103-.154 1.963-.463 2.581-.485.97-1.345 1.455-2.58 1.455-.508 0-.905-.066-1.213-.198-.287-.155-.552-.309-.839-.463-.066.066-.11.11-.11.154zm0-7.962v4.323c0 .375.044.683.154.904.177.375.486.551.927.551s.75-.176.926-.551c.11-.221.155-.529.155-.904v-4.323c0-.375-.045-.684-.155-.905-.176-.375-.485-.551-.926-.551s-.75.176-.927.551c-.11.221-.154.53-.154.905z"/><path d="m246.714 10.278h-4.434c-.11 0-.176.022-.198.088-.044.045-.066.111-.066.177v.706c0 .595.198 1.036.573 1.367.375.309.904.463 1.588.463.463 0 .904-.022 1.279-.088s.794-.176 1.213-.331c.375-.11.552 0 .552.353v1.809c0 .11-.022.22-.066.287-.066.066-.177.132-.353.198-.485.176-.971.309-1.478.375s-.948.088-1.345.088c-1.28 0-2.316-.242-3.11-.706-1.235-.727-1.853-1.985-1.853-3.749v-3.728c0-1.169.221-2.117.684-2.823.683-1.081 1.852-1.61 3.507-1.61.992 0 1.83.199 2.47.618 1.103.705 1.654 1.985 1.654 3.815v2.074c0 .264-.044.441-.154.507-.111.066-.265.11-.463.11zm-4.478-2.426h1.875c.088 0 .154-.066.221-.221v-.485c0-.419-.045-.75-.155-.97-.198-.397-.507-.596-.97-.596-.375 0-.684.133-.883.397-.198.243-.308.64-.308 1.169v.485c0 .155.066.221.22.221z"/><path d="m255.599 14.822v-13.896c0-.264.022-.441.089-.529.11-.154.353-.243.683-.243h1.721c.331 0 .551.067.639.199.089.11.133.309.133.573v13.896c0 .331-.066.551-.177.639-.132.089-.331.133-.595.133h-1.721c-.264 0-.441-.022-.529-.088-.154-.111-.243-.353-.243-.684z"/><path d="m260.187 14.689v-1.433c0-.353.11-.53.353-.53.066 0 .287.045.617.155.331.088.706.176 1.125.242.419.067.75.111 1.037.111.463 0 .794-.088.992-.287.199-.198.309-.419.309-.706 0-.419-.309-.838-.904-1.279-.441-.287-.75-.507-.926-.64-.772-.551-1.324-1.014-1.655-1.411-.617-.728-.926-1.522-.926-2.426 0-.861.243-1.566.728-2.14.662-.794 1.698-1.191 3.132-1.191 1.125 0 1.941.088 2.47.287.507.198.772.463.772.838v1.588c-.044.176-.176.265-.419.265-.706 0-1.213-.089-1.5-.287-.154-.11-.485-.154-.992-.154-.375 0-.618.088-.75.242-.155.155-.221.309-.221.485 0 .375.353.816 1.059 1.302.331.22.662.441.992.661.772.552 1.324 1.059 1.655 1.522.463.64.705 1.412.705 2.294 0 1.125-.397 1.985-1.169 2.625-.772.639-1.808.948-3.109.948-1.434 0-2.405-.154-2.934-.441-.287-.154-.441-.375-.441-.64z"/><path d="m272.117.772v14.204c0 .265-.044.441-.154.507-.11.067-.265.111-.463.111h-1.765c-.265 0-.441-.044-.507-.155-.066-.11-.11-.264-.11-.463v-14.204c0-.265.066-.441.176-.507s.243-.111.441-.111h1.765c.264 0 .441.067.507.177s.11.243.11.441z"/><path d="m281.712 6.639v8.183c0 .242-.022.397-.067.485-.11.199-.308.287-.595.287h-1.853c-.287 0-.419-.111-.419-.353 0-.11-.066-.155-.176-.155-.111.045-.177.089-.199.111-.198.176-.463.309-.794.419-.353.11-.684.154-1.014.154-.861 0-1.544-.309-2.096-.926-.595-.684-.904-1.676-.904-2.934 0-1.499.485-2.668 1.456-3.507.573-.485 1.544-.97 2.889-1.477l.551-.199c.155-.066.221-.176.221-.353 0-.308-.132-.529-.397-.639-.287-.111-.618-.177-1.015-.177-.419 0-.727.022-.948.066-.243.067-.463.133-.64.177-.198.044-.331.088-.441.132-.287.11-.463.155-.529.155-.287 0-.419-.133-.419-.397v-1.368c0-.287.154-.507.485-.706.551-.309 1.456-.463 2.757-.463 1.676 0 2.845.375 3.485 1.147.441.529.662 1.301.662 2.338zm-3 5.646v-2.823c0-.066-.022-.132-.088-.154s-.133-.022-.221.044l-.375.242c-.441.287-.75.552-.926.795-.243.352-.375.794-.375 1.345 0 .375.088.706.243.97.154.243.397.375.727.375.287 0 .53-.088.728-.242.199-.155.287-.353.287-.552z"/><path d="m283.475 14.976v-11.028c0-.265.067-.441.177-.507s.243-.11.441-.11h1.963c.11 0 .221.044.309.132.066.066.11.176.11.287 0 .154.044.22.154.22.023 0 .089-.044.199-.11.221-.199.441-.331.662-.441.375-.177.816-.265 1.279-.265.772 0 1.412.243 1.919.706.595.573.904 1.434.904 2.58v8.536c0 .265-.044.441-.154.507-.111.067-.265.111-.463.111h-1.765c-.265 0-.441-.044-.507-.155-.066-.11-.111-.264-.111-.463v-7.896c0-.287-.088-.529-.264-.728-.199-.198-.441-.309-.772-.309-.463 0-.794.199-.949.618-.088.243-.132.573-.132 1.015v7.3c0 .265-.044.441-.154.507-.111.067-.265.111-.463.111h-1.765c-.265 0-.441-.044-.507-.155-.066-.11-.111-.264-.111-.463z"/><path d="m298.781 3.661v-2.889c0-.265.067-.441.177-.507s.242-.111.441-.111h1.765c.264 0 .441.067.507.177s.11.243.11.441v14.204c0 .265-.044.441-.154.507-.111.067-.265.111-.463.111h-2.008c-.264 0-.397-.111-.397-.309v-.176c0-.067-.066-.133-.198-.155-.221.221-.507.419-.838.574-.353.154-.772.242-1.257.242-1.214 0-2.03-.485-2.471-1.478-.286-.617-.419-1.499-.419-2.646v-3.926c0-1.257.155-2.228.463-2.912.508-1.103 1.412-1.654 2.713-1.654.463 0 .794.044 1.015.154.287.177.595.353.882.53.066 0 .11-.066.132-.177zm0 7.963v-4.323c0-.375-.044-.684-.154-.905-.176-.375-.485-.551-.926-.551s-.75.176-.927.551c-.11.221-.154.53-.154.905v4.323c0 .375.044.683.154.904.177.375.486.551.927.551s.75-.176.926-.551c.11-.221.154-.529.154-.904z"/></g><path d="m44.645 109.725v-16.465" fill="none"/><path d="m44.645 109.725v-16.465" fill="none" stroke="#000" stroke-width=".47"/><path d="m40.192 113.042c2.048 0 4.573-1.71 4.573-3.459 0-1.054-.934-1.73-2.266-1.73-2.008 0-4.533 1.67-4.533 3.46 0 1.093.974 1.729 2.226 1.729z" fill-rule="nonzero"/><path d="m61.264 109.725v-16.465" fill="none"/><path d="m61.264 109.725v-16.465" fill="none" stroke="#000" stroke-width=".47"/><path d="m56.812 113.042c2.048 0 4.573-1.71 4.573-3.459 0-1.054-.935-1.73-2.267-1.73-2.008 0-4.533 1.67-4.533 3.46 0 1.093.975 1.729 2.227 1.729z" fill-rule="nonzero"/><path d="m85.029 100.616h5.587v2.386h-5.587z" fill-rule="nonzero"/><path d="m130.85 104.754v-16.464" fill="none"/><path d="m130.85 104.754v-16.464" fill="none" stroke="#000" stroke-width=".47"/><path d="m126.398 108.072c2.048 0 4.573-1.71 4.573-3.46 0-1.053-.935-1.729-2.267-1.729-2.008 0-4.533 1.67-4.533 3.459 0 1.094.974 1.73 2.227 1.73z" fill-rule="nonzero"/><path d="m118.269 109.126 2.803-2.068c1.233-.895 1.71-1.909 1.75-2.664 0-1.114-1.014-1.949-2.207-1.949-.835 0-1.452.318-1.849.975l.139-6.263h-.636zm1.849-5.885c.636 0 1.113.457 1.113 1.073 0 1.034-1.372 3.022-2.406 3.678-.059-.338-.099-.994-.099-1.968 0-.537.04-1.193.119-1.948.299-.557.716-.835 1.273-.835z" fill-rule="nonzero"/><path d="m147.47 102.269v-15.222" fill="none"/><path d="m147.47 102.269v-15.222" fill="none" stroke="#000" stroke-width=".47"/><path d="m143.018 105.587c2.047 0 4.572-1.71 4.572-3.46 0-1.054-.934-1.729-2.266-1.729-2.008 0-4.533 1.67-4.533 3.459 0 1.093.974 1.73 2.227 1.73z" fill-rule="nonzero"/><path d="m134.889 106.64 2.803-2.067c1.233-.895 1.71-1.909 1.749-2.664 0-1.114-1.014-1.949-2.206-1.949-.835 0-1.452.318-1.849.974l.139-6.262h-.636zm1.849-5.885c.636 0 1.113.458 1.113 1.074 0 1.034-1.372 3.022-2.406 3.678-.059-.338-.099-.994-.099-1.968 0-.537.04-1.193.119-1.949.298-.556.716-.835 1.273-.835z" fill-rule="nonzero"/><path d="m157.566 103.822v16.62" fill="none"/><path d="m157.566 103.822v16.62" fill="none" stroke="#000" stroke-width=".47"/><path d="m159.637 105.587c2.048 0 4.573-1.71 4.573-3.46 0-1.054-.934-1.729-2.266-1.729-2.008 0-4.533 1.67-4.533 3.459 0 1.093.974 1.73 2.226 1.73z" fill-rule="nonzero"/><path d="m188.01 103.822v16.62" fill="none"/><path d="m188.01 103.822v16.62" fill="none" stroke="#000" stroke-width=".47"/><path d="m190.081 105.587c2.048 0 4.573-1.71 4.573-3.46 0-1.054-.934-1.729-2.267-1.729-2.008 0-4.533 1.67-4.533 3.459 0 1.093.975 1.73 2.227 1.73z" fill-rule="nonzero"/><path d="m197.951 99.63c-.478 0-.915.418-.915.955 0 .457.457.894.915.894.536 0 .954-.437.954-.894 0-.537-.418-.955-.954-.955z" fill-rule="nonzero"/><path d="m225.599 104.754v-16.62" fill="none"/><path d="m225.599 104.754v-16.62" fill="none" stroke="#000" stroke-width=".47"/><path d="m221.146 108.072c2.048 0 4.573-1.71 4.573-3.46 0-1.053-.934-1.729-2.266-1.729-2.008 0-4.533 1.67-4.533 3.459 0 1.094.974 1.73 2.226 1.73z" fill-rule="nonzero"/><path d="m213.017 109.126 2.803-2.068c1.233-.895 1.71-1.909 1.75-2.664 0-1.114-1.014-1.949-2.207-1.949-.835 0-1.451.318-1.849.975l.139-6.263h-.636zm1.849-5.885c.636 0 1.114.457 1.114 1.073 0 1.034-1.372 3.022-2.406 3.678-.06-.338-.1-.994-.1-1.968 0-.537.04-1.193.12-1.948.298-.557.715-.835 1.272-.835z" fill-rule="nonzero"/><path d="m225.642 93.061c.994 0 1.332.378 1.909.795 1.61 1.134 2.425 2.386 2.425 3.778v.099c-.04 1.79-.059 1.929-.576 3.082-.08.179-.12.298-.12.378 0 .099.06.159.159.159.199 0 1.213-1.392 1.213-3.937v-.099c0-.855-.238-1.67-.716-2.426-.139-.238-.755-1.053-1.849-2.425-.854-1.094-1.59-2.446-2.187-4.016-.019-.06-.019-.12-.019-.179 0-.06 0-.12.019-.159.02-.02-.079-.02-.258-.02z" fill-rule="nonzero"/><path d="m245.635 102.269v-16.464" fill="none"/><path d="m245.635 102.269v-16.464" fill="none" stroke="#000" stroke-width=".47"/><path d="m241.183 105.587c2.048 0 4.573-1.71 4.573-3.46 0-1.054-.934-1.729-2.266-1.729-2.009 0-4.533 1.67-4.533 3.459 0 1.093.974 1.73 2.226 1.73z" fill-rule="nonzero"/><path d="m233.054 106.64 2.803-2.067c1.233-.895 1.71-1.909 1.75-2.664 0-1.114-1.014-1.949-2.207-1.949-.835 0-1.451.318-1.849.974l.139-6.262h-.636zm1.849-5.885c.636 0 1.113.458 1.113 1.074 0 1.034-1.371 3.022-2.405 3.678-.06-.338-.1-.994-.1-1.968 0-.537.04-1.193.12-1.949.298-.556.715-.835 1.272-.835z" fill-rule="nonzero"/><path d="m262.255 99.784v-13.979" fill="none"/><path d="m262.255 99.784v-13.979" fill="none" stroke="#000" stroke-width=".47"/><path d="m257.803 103.101c2.048 0 4.573-1.709 4.573-3.459 0-1.054-.935-1.73-2.267-1.73-2.008 0-4.533 1.67-4.533 3.46 0 1.093.975 1.729 2.227 1.729z" fill-rule="nonzero"/><path d="m278.875 112.21v-26.405" fill="none"/><path d="m278.875 112.21v-26.405" fill="none" stroke="#000" stroke-width=".47"/><path d="m274.423 115.527c2.048 0 4.573-1.709 4.573-3.459 0-1.054-.935-1.73-2.267-1.73-2.008 0-4.533 1.67-4.533 3.46 0 1.093.974 1.729 2.227 1.729z" fill-rule="nonzero"/><path d="m266.294 116.581 2.803-2.068c1.233-.894 1.71-1.908 1.75-2.664 0-1.113-1.014-1.948-2.207-1.948-.835 0-1.452.318-1.849.974l.139-6.263h-.636zm1.849-5.885c.636 0 1.113.457 1.113 1.074 0 1.034-1.372 3.022-2.406 3.678-.059-.338-.099-.994-.099-1.968 0-.537.04-1.193.119-1.949.299-.556.716-.835 1.273-.835z" fill-rule="nonzero"/><path d="m295.495 109.725v-23.92" fill="none"/><path d="m295.495 109.725v-23.92" fill="none" stroke="#000" stroke-width=".47"/><path d="m291.043 113.042c2.047 0 4.572-1.71 4.572-3.459 0-1.054-.934-1.73-2.266-1.73-2.008 0-4.533 1.67-4.533 3.46 0 1.093.974 1.729 2.227 1.729z" fill-rule="nonzero"/><path d="m376.575 100.616h5.586v2.386h-5.586z" fill-rule="nonzero"/><path d="m420.946 106.958c-.816-1.312-2.486-2.763-2.486-3.817 0-.696.617-1.789 1.869-3.3l-3.539-4.851c-.218.039-.338.119-.338.258 0-.02 1.452 1.73 1.452 2.784 0 1.033-.676 2.167-2.048 3.419 1.551 1.909 2.425 2.823 3.042 3.778-.418-.219-.815-.338-1.193-.338-1.213 0-1.988 1.153-1.988 2.326 0 1.431 2.386 3.161 2.843 3.161.079 0 .139-.04.159-.119-.835-.815-1.253-1.571-1.253-2.267 0-.914.776-1.431 1.79-1.431.536 0 1.113.139 1.69.397z" fill-rule="nonzero"/><path d="m445.384 109.725v-16.465" fill="none"/><path d="m445.384 109.725v-16.465" fill="none" stroke="#000" stroke-width=".47"/><path d="m440.932 113.042c2.047 0 4.572-1.71 4.572-3.459 0-1.054-.934-1.73-2.266-1.73-2.008 0-4.533 1.67-4.533 3.46 0 1.093.974 1.729 2.227 1.729z" fill-rule="nonzero"/><path d="m462.004 109.725v-16.465" fill="none"/><path d="m462.004 109.725v-16.465" fill="none" stroke="#000" stroke-width=".47"/><path d="m457.551 113.042c2.048 0 4.573-1.71 4.573-3.459 0-1.054-.934-1.73-2.266-1.73-2.008 0-4.533 1.67-4.533 3.46 0 1.093.974 1.729 2.226 1.729z" fill-rule="nonzero"/></svg>