<?xml version="1.0" encoding="UTF-8" standalone="no"?><!DOCTYPE svg PUBLIC "-//W3C//DTD SVG 1.1//EN" "http://www.w3.org/Graphics/SVG/1.1/DTD/svg11.dtd"><svg width="100%" height="100%" viewBox="0 0 471 493" version="1.1" xmlns="http://www.w3.org/2000/svg" xmlns:xlink="http://www.w3.org/1999/xlink" xml:space="preserve" xmlns:serif="http://www.serif.com/" style="fill-rule:evenodd;clip-rule:evenodd;stroke-linejoin:round;stroke-miterlimit:2;"><g><path d="M39.755,91.763l0,19.806" style="fill:none;stroke:#000;stroke-width:2.48px;"/><path d="M43.159,91.763l0,19.806" style="fill:none;stroke:#000;stroke-width:0.77px;"/><path d="M46.408,98.263c-0.475,0 -0.911,0.416 -0.911,0.951c0,0.456 0.456,0.891 0.911,0.891c0.535,0 0.951,-0.435 0.951,-0.891c0,-0.535 -0.416,-0.951 -0.951,-0.951Z" style="fill-rule:nonzero;"/><path d="M46.408,103.215c-0.475,-0 -0.911,0.416 -0.911,0.951c0,0.455 0.456,0.891 0.911,0.891c0.535,0 0.951,-0.436 0.951,-0.891c0,-0.535 -0.416,-0.951 -0.951,-0.951Z" style="fill-rule:nonzero;"/><path d="M159.827,91.763l-0,19.806" style="fill:none;stroke:#000;stroke-width:0.77px;"/><path d="M263.342,91.763l0,19.806" style="fill:none;stroke:#000;stroke-width:0.77px;"/><path d="M366.548,91.763l0,19.806" style="fill:none;stroke:#000;stroke-width:0.77px;"/><path d="M469.909,91.763l-0,19.806" style="fill:none;stroke:#000;stroke-width:0.77px;"/><path d="M68.101,123.622l-0.332,0c-0.561,0.435 -1.03,0.584 -1.843,0.584l0,0.412l0.194,0c0.664,0 0.905,0.321 0.905,0.939l0,4.214c0,0.698 -0.298,1.042 -0.95,1.042l-0.184,-0l-0,0.412l3.252,0l-0,-0.412l-0.114,-0c-0.676,-0 -0.928,-0.378 -0.928,-1.077l-0,-6.114Z" style="fill-rule:nonzero;"/><path d="M90.356,127.733c0.423,-0.287 0.824,-0.435 1.179,-0.435c0.744,0 1.317,0.606 1.317,1.454c-0,1.202 -1.076,2.118 -2.382,2.118c-0.481,-0 -0.859,-0.092 -1.408,-0.355l-0.229,0.332c0.412,0.309 1.145,0.515 1.82,0.515c1.775,-0 3.275,-1.351 3.275,-2.874c0,-0.984 -0.778,-1.958 -1.878,-1.797l-0.023,-0.023c0.974,-0.641 1.352,-1.099 1.352,-1.683c-0,-0.802 -0.733,-1.363 -1.741,-1.363c-1.019,0 -1.843,0.561 -2.633,1.626l0.32,0.252c0.676,-0.756 1.363,-1.157 1.981,-1.157c0.573,-0 0.996,0.424 0.996,0.951c0,0.744 -0.698,1.259 -2.13,2.061l0.184,0.378Z" style="fill-rule:nonzero;"/><path d="M79.427,78.429c0.399,-0.363 0.58,-0.869 0.58,-1.34c0,-0.38 -0.127,-0.76 -0.381,-1.05c-0.869,0.253 -1.774,0.362 -2.552,0.362c-2.118,0 -2.68,-0.797 -2.68,-2.317c-0,-1.231 1.286,-4.653 2.517,-4.653c0.887,-0 1.43,2.806 2.046,2.806c0.724,-0 0.76,-1.394 0.76,-1.937c0,-2.462 -1.086,-3.874 -2.408,-3.874c-1.901,-0 -4.363,3.313 -4.363,7.241c-0,2.137 0.598,5.305 3.53,5.305c0.996,-0 2.137,-0.236 2.951,-0.543Z" style="fill-rule:nonzero;"/><path d="M114.082,123.759l-0.813,3.504l0.263,0.069c0.447,-0.355 0.87,-0.504 1.408,-0.504c1.088,0 1.878,0.767 1.878,1.855c0,1.214 -1.076,2.187 -2.404,2.187c-0.321,-0 -0.653,-0.046 -1.088,-0.137l-0.172,0.389c0.481,0.16 1.008,0.24 1.523,0.24c1.866,-0 3.252,-1.202 3.252,-2.839c0,-1.477 -1.157,-2.622 -2.645,-2.622c-0.435,0 -0.802,0.091 -1.328,0.309l0.343,-1.523l3.435,0l0.218,-1.065l-0.39,0c-0.091,0.115 -0.206,0.137 -0.664,0.137l-2.816,0Z" style="fill-rule:nonzero;"/><path d="M138.477,127.733c0.424,-0.287 0.825,-0.435 1.18,-0.435c0.744,0 1.316,0.606 1.316,1.454c0,1.202 -1.076,2.118 -2.381,2.118c-0.481,-0 -0.859,-0.092 -1.409,-0.355l-0.229,0.332c0.413,0.309 1.145,0.515 1.821,0.515c1.775,-0 3.275,-1.351 3.275,-2.874c0,-0.984 -0.779,-1.958 -1.878,-1.797l-0.023,-0.023c0.973,-0.641 1.351,-1.099 1.351,-1.683c-0,-0.802 -0.733,-1.363 -1.74,-1.363c-1.019,0 -1.844,0.561 -2.634,1.626l0.321,0.252c0.675,-0.756 1.362,-1.157 1.981,-1.157c0.572,-0 0.996,0.424 0.996,0.951c-0,0.744 -0.699,1.259 -2.13,2.061l0.183,0.378Z" style="fill-rule:nonzero;"/><path d="M167.521,129.943c-0.389,-0 -0.698,0.309 -0.698,0.698c-0,0.389 0.309,0.71 0.698,0.71c0.39,0 0.71,-0.321 0.71,-0.71c0,-0.389 -0.32,-0.698 -0.71,-0.698Z" style="fill-rule:nonzero;"/><path d="M170.863,129.943c-0.39,-0 -0.699,0.309 -0.699,0.698c0,0.389 0.309,0.71 0.699,0.71c0.389,0 0.71,-0.321 0.71,-0.71c-0,-0.389 -0.321,-0.698 -0.71,-0.698Z" style="fill-rule:nonzero;"/><path d="M174.204,129.943c-0.389,-0 -0.699,0.309 -0.699,0.698c0,0.389 0.31,0.71 0.699,0.71c0.389,0 0.71,-0.321 0.71,-0.71c0,-0.389 -0.321,-0.698 -0.71,-0.698Z" style="fill-rule:nonzero;"/><path d="M174.753,76.419c-0.054,0.054 -0.09,0.127 -0.09,0.217c-0,0.489 0.905,1.449 1.412,1.449c0.344,-0 5.594,-5.812 8.871,-9.233c0.036,-0.036 0.054,-0.073 0.054,-0.109c-0,-0.398 -1.068,-1.448 -1.43,-1.448c-0.055,0 -0.091,0.018 -0.127,0.054c-2.661,2.227 -6.3,6.391 -8.69,9.07Zm7.151,-0.706c-0.054,0.072 -0.072,0.145 -0.072,0.199c0,0.471 0.851,1.213 1.394,1.213c0.434,0 1.973,-2.082 1.973,-2.209c0,-0.434 -0.815,-1.412 -1.322,-1.412c-0.724,-0 -1.448,1.358 -1.973,2.209Zm-6.372,-6.101c-0.037,0.054 -0.055,0.109 -0.055,0.181c0,0.417 0.779,1.213 1.159,1.213c0.362,-0.362 0.688,-0.706 0.96,-1.014c0.506,-0.507 0.995,-1.086 0.995,-1.285c0,-0.471 -0.688,-1.267 -1.122,-1.267c-0.561,0 -1.521,1.81 -1.937,2.172Z" style="fill-rule:nonzero;"/><path d="M271.926,75.532c-0.271,-0.072 -0.507,-0.181 -0.742,-0.217c0.072,1.303 0.072,1.955 0.109,2.987c0.452,0.543 1.321,0.688 3.385,0.688c0.453,-0 0.941,-0 1.503,-0.018c1.901,-0.761 2.86,-4.454 2.86,-7.586c-0,-4.091 -1.376,-4.996 -3.476,-4.996c-1.593,0 -2.824,0.923 -4.182,2.57c-0.108,0.761 -0.018,1.593 -0.145,2.915c0.181,0 0.453,-0.272 0.58,-0.362c0.036,0.597 0.144,1.901 0.144,3.059c0,0.344 -0.018,0.67 -0.036,0.96Zm0.924,-4.707c1.013,-0.887 2.317,-1.322 3.131,-1.322c1.087,-0 1.539,1.141 1.539,2.3c-0,1.502 -1.05,4.163 -3.331,4.163c-0.308,0 -0.633,-0.036 -1.014,-0.126c0.037,-0.489 0.073,-1.123 0.073,-1.774c-0,-1.087 -0.091,-2.281 -0.398,-3.241Z" style="fill-rule:nonzero;"/><path d="M280.271,72.599c0.326,0.652 0.507,2.625 0.507,4.092c0,0.579 -0.036,1.086 -0.09,1.394c-0.019,0.054 -0.019,0.09 -0.019,0.126c0,0.489 0.598,0.833 1.05,0.833c0.254,0 0.471,-0.109 0.489,-0.362c0.127,-1.285 0.561,-4.653 1.141,-4.707c0.271,-0.036 0.398,2.77 0.47,4.381c0.019,0.453 0.489,0.67 0.942,0.67c0.416,0 0.833,-0.181 0.851,-0.525c0.108,-1.358 1.466,-4.852 1.683,-4.834c0.399,0.037 0.978,4.653 0.978,4.707c0.018,0.471 0.434,0.761 0.796,0.761c0.254,0 0.489,-0.163 0.489,-0.525c0,-1.539 -0.525,-4.2 -0.941,-5.866c-0.145,-0.543 -0.67,-1.104 -1.213,-1.104c-0.398,0 -0.815,0.289 -1.086,1.068l-1.322,3.277c0,-0.453 -0.561,-3.422 -0.597,-3.639c-0.181,-0.724 -0.471,-1.032 -0.797,-1.032c-0.652,-0 -1.43,1.213 -1.72,2.552c-0.036,-0.488 -0.525,-1.538 -0.561,-1.629c-0.09,-0.199 -0.217,-0.271 -0.38,-0.271c-0.308,0 -0.688,0.289 -0.688,0.543c-0,0.036 -0,0.072 0.018,0.09Z" style="fill-rule:nonzero;"/><path d="M290.661,65.593c-0.019,0.76 -0.145,1.539 -0.2,2.354c0.833,-0.254 1.775,-0.616 2.716,-0.616c0.362,-0 0.706,0.054 1.068,0.181c-0.38,1.412 -1.14,3.766 -2.064,6.952c0.199,0.199 0.38,0.362 0.543,0.362c0.109,-0 0.218,-0.072 0.344,-0.254c0.978,-2.914 1.557,-4.471 2.499,-8.182c0.036,-0.163 0.054,-0.326 0.054,-0.453c0,-0.797 -0.688,-1.068 -1.575,-1.068c-1.177,-0 -2.679,0.453 -3.385,0.724Z" style="fill-rule:nonzero;"/><path d="M381.475,76.419c-0.054,0.054 -0.09,0.127 -0.09,0.217c0,0.489 0.905,1.449 1.412,1.449c0.344,-0 5.594,-5.812 8.87,-9.233c0.037,-0.036 0.055,-0.073 0.055,-0.109c-0,-0.398 -1.068,-1.448 -1.43,-1.448c-0.055,0 -0.091,0.018 -0.127,0.054c-2.661,2.227 -6.3,6.391 -8.69,9.07Zm7.151,-0.706c-0.054,0.072 -0.072,0.145 -0.072,0.199c-0,0.471 0.85,1.213 1.394,1.213c0.434,0 1.973,-2.082 1.973,-2.209c-0,-0.434 -0.815,-1.412 -1.322,-1.412c-0.724,-0 -1.448,1.358 -1.973,2.209Zm-6.372,-6.101c-0.037,0.054 -0.055,0.109 -0.055,0.181c0,0.417 0.779,1.213 1.159,1.213c0.362,-0.362 0.688,-0.706 0.959,-1.014c0.507,-0.507 0.996,-1.086 0.996,-1.285c-0,-0.471 -0.688,-1.267 -1.122,-1.267c-0.562,0 -1.521,1.81 -1.937,2.172Z" style="fill-rule:nonzero;"/><path d="M132.284,170.986l-0,19.805" style="fill:none;stroke:#000;stroke-width:0.77px;"/><path d="M243.537,170.986l0,19.805" style="fill:none;stroke:#000;stroke-width:0.77px;"/><path d="M358.502,170.986l0,19.805" style="fill:none;stroke:#000;stroke-width:0.77px;"/><path d="M469.909,170.986l-0,19.805" style="fill:none;stroke:#000;stroke-width:0.77px;"/><path d="M42.193,160.747c0.072,0.199 0.181,0.272 0.308,0.272c0.271,0 0.597,-0.326 0.796,-0.652c0.199,-2.354 0.489,-4.689 0.489,-6.083c-0,-2.372 -1.195,-2.897 -2.227,-2.897c-0.597,-0 -1.158,0.163 -1.394,0.254c-0.036,0.633 -0.235,1.792 -0.235,2.734c0.416,-0.037 0.543,-0.055 0.597,-0.055c0.073,0 0.055,0.036 0.435,0.109c-0.724,0.38 -1.34,0.543 -1.81,0.543c-1.069,-0 -1.521,-0.833 -1.521,-1.883c0,-0.525 0.108,-1.122 0.326,-1.702c0.217,-0.941 1.339,-2.896 2.226,-2.896c0.761,-0 0.887,2.444 1.847,2.444c0.453,-0 0.688,-0.525 0.688,-1.467c-0,-2.226 -0.887,-4.127 -2.245,-4.127c-2.154,0 -4.309,4.616 -4.309,8.291c0,2.191 0.706,4.562 3.078,4.562c1.068,0 2.245,-0.615 3.186,-2.263c-0.036,2.191 -0.199,3.513 -0.235,4.816Z" style="fill-rule:nonzero;"/><path d="M45.36,144.816c-0.018,0.76 -0.145,1.539 -0.199,2.353c0.832,-0.253 1.774,-0.615 2.715,-0.615c0.362,-0 0.706,0.054 1.068,0.181c-0.38,1.412 -1.14,3.765 -2.064,6.952c0.2,0.199 0.381,0.362 0.544,0.362c0.108,0 0.217,-0.073 0.344,-0.254c0.977,-2.914 1.556,-4.471 2.498,-8.183c0.036,-0.163 0.054,-0.326 0.054,-0.452c-0,-0.797 -0.688,-1.068 -1.575,-1.068c-1.177,0 -2.679,0.452 -3.385,0.724Z" style="fill-rule:nonzero;"/><path d="M149.377,155.642c-0.054,0.054 -0.09,0.126 -0.09,0.217c0,0.489 0.905,1.448 1.412,1.448c0.344,0 5.594,-5.811 8.871,-9.233c0.036,-0.036 0.054,-0.072 0.054,-0.108c-0,-0.398 -1.068,-1.448 -1.43,-1.448c-0.055,0 -0.091,0.018 -0.127,0.054c-2.661,2.227 -6.3,6.39 -8.69,9.07Zm7.151,-0.706c-0.054,0.072 -0.072,0.145 -0.072,0.199c-0,0.471 0.851,1.213 1.394,1.213c0.434,-0 1.973,-2.082 1.973,-2.209c-0,-0.434 -0.815,-1.412 -1.322,-1.412c-0.724,-0 -1.448,1.358 -1.973,2.209Zm-6.372,-6.101c-0.037,0.054 -0.055,0.108 -0.055,0.181c-0,0.416 0.779,1.213 1.159,1.213c0.362,-0.362 0.688,-0.706 0.96,-1.014c0.506,-0.507 0.995,-1.086 0.995,-1.285c-0,-0.471 -0.688,-1.268 -1.122,-1.268c-0.561,-0 -1.521,1.811 -1.937,2.173Z" style="fill-rule:nonzero;"/><path d="M268.664,157.651c0.399,-0.362 0.58,-0.869 0.58,-1.339c-0,-0.381 -0.127,-0.761 -0.38,-1.05c-0.869,0.253 -1.775,0.362 -2.553,0.362c-2.118,-0 -2.679,-0.797 -2.679,-2.318c-0,-1.231 1.285,-4.652 2.516,-4.652c0.887,-0 1.43,2.806 2.046,2.806c0.724,-0 0.76,-1.394 0.76,-1.937c0,-2.462 -1.086,-3.874 -2.408,-3.874c-1.901,-0 -4.363,3.313 -4.363,7.241c0,2.136 0.598,5.304 3.53,5.304c0.996,0 2.137,-0.235 2.951,-0.543Z" style="fill-rule:nonzero;"/><path d="M333.153,201.07c-1.305,-1.053 -2.095,-2.782 -2.095,-4.591c0,-1.809 0.79,-3.538 2.095,-4.592l-0.229,-0.504c-1.901,0.928 -3.275,3.081 -3.275,5.096c-0,2.015 1.374,4.168 3.275,5.095l0.229,-0.504Z" style="fill-rule:nonzero;"/><path d="M334.456,193.914c0.092,-0.515 0.229,-0.653 0.905,-0.653l2.221,-0l-2.107,6.183l0.756,0l2.588,-7.58l-4.317,0l-0.515,2.05l0.469,0Z" style="fill-rule:nonzero;"/><path d="M339.482,191.887c1.305,1.054 2.095,2.783 2.095,4.592c-0,1.809 -0.79,3.538 -2.095,4.591l0.229,0.504c1.901,-0.927 3.275,-3.08 3.275,-5.095c-0,-2.015 -1.374,-4.168 -3.275,-5.096l-0.229,0.504Z" style="fill-rule:nonzero;"/><path d="M313.718,212.628c-1.283,-0.783 -2.001,-2.076 -2.001,-3.794c0,-1.718 0.718,-3.011 2.001,-3.795l-0.292,-0.358c-1.52,0.896 -2.303,2.35 -2.303,4.153c-0,1.803 0.783,3.256 2.303,4.153l0.292,-0.359Z" style="fill-rule:nonzero;"/><path d="M317.796,209.995c-0.265,0.415 -0.623,0.604 -1.218,0.604c-0.991,-0 -1.538,-0.944 -1.538,-1.775c0,-0.915 0.519,-1.529 1.302,-1.529c1.086,0 0.68,0.897 1.293,0.897c0.217,-0 0.359,-0.17 0.359,-0.453c-0,-0.623 -0.717,-0.85 -1.491,-0.85c-1.605,0 -2.228,1.256 -2.228,2.266c-0,1 0.604,2.189 2.01,2.189c0.869,-0 1.53,-0.462 1.728,-1.208l-0.217,-0.141Z" style="fill-rule:nonzero;"/><path d="M319.983,208.334c0.378,-0.538 0.548,-0.699 0.774,-0.699c0.312,0 0.387,0.444 0.708,0.444c0.293,0 0.387,-0.567 0.387,-0.614c-0,-0.189 -0.283,-0.538 -0.699,-0.538c-0.49,0 -0.726,0.198 -1.151,0.897l-0.019,0l0,-0.935l-0.236,0l-1.255,0.51l0,0.217l0.698,0.349l0,2.209c0,0.538 -0.321,0.727 -0.698,0.727l0,0.34l2.454,-0l0,-0.34c-0.831,0 -0.963,-0.198 -0.963,-0.906l0,-1.661Z" style="fill-rule:nonzero;"/><path d="M322.23,209.089c0,1.227 0.991,2.255 2.18,2.255c1.208,-0 2.124,-0.981 2.124,-2.265c-0,-1.283 -0.907,-2.19 -2.2,-2.19c-1.17,0 -2.104,0.973 -2.104,2.2Zm0.896,-0.359c0,-1.095 0.463,-1.491 1.171,-1.491c1.066,0 1.387,1.604 1.387,2.416c-0,0.821 -0.453,1.34 -1.189,1.34c-0.972,-0 -1.369,-1.425 -1.369,-2.265Z" style="fill-rule:nonzero;"/><path d="M328.636,207.994c0.378,-0.349 0.689,-0.472 1.161,-0.472c0.613,0 0.849,0.274 0.849,0.972l-0,1.623c-0,0.548 -0.226,0.784 -0.764,0.784l-0,0.34l2.218,-0l0,-0.34c-0.538,-0.057 -0.661,-0.302 -0.661,-0.802l-0,-2.152c0.312,-0.246 0.718,-0.435 1.076,-0.435c0.529,-0 0.935,0.265 0.935,0.831l0,1.774c0,0.529 -0.198,0.756 -0.718,0.784l-0,0.34l2.162,-0l0,-0.34c-0.491,-0.057 -0.651,-0.302 -0.651,-0.755l0,-2.077c0,-0.793 -0.557,-1.18 -1.312,-1.18c-0.567,0 -0.954,0.18 -1.529,0.718c-0.227,-0.51 -0.576,-0.718 -1.19,-0.718c-0.594,0 -1.01,0.189 -1.576,0.718l-0,-0.718l-0.236,0l-1.236,0.444l0,0.217l0.679,0.397l-0,2.237c-0,0.481 -0.264,0.698 -0.698,0.717l-0,0.34l2.152,-0l-0,-0.34c-0.538,-0.057 -0.661,-0.274 -0.661,-0.84l-0,-2.067Z" style="fill-rule:nonzero;"/><path d="M337.978,208.683l-1.01,0.349c-1.048,0.359 -1.444,0.717 -1.444,1.303c-0,0.585 0.443,1.009 1.057,1.009c0.463,-0 0.849,-0.188 1.397,-0.679c0.047,0.434 0.283,0.679 0.642,0.679c0.255,-0 0.491,-0.132 0.764,-0.443l-0.085,-0.34c-0.321,0.208 -0.528,0.104 -0.528,-0.245l-0,-2.417c-0,-0.717 -0.482,-1.01 -1.378,-1.01c-1.237,0 -1.737,0.661 -1.737,1.105c0,0.207 0.255,0.679 0.311,0.651l0.557,-0.264c0.246,-0.114 -0.141,-0.434 -0.141,-0.642c-0,-0.217 0.358,-0.444 0.727,-0.444c0.311,0 0.868,0.189 0.868,0.746l-0,0.642Zm-0,0.358l-0,1.18c-0.321,0.34 -0.614,0.491 -0.953,0.491c-0.472,0 -0.661,-0.321 -0.661,-0.613c0,-0.397 0.349,-0.586 1.114,-0.869l0.5,-0.189Z" style="fill-rule:nonzero;"/><path d="M341.31,207.465l1.283,-0l-0,-0.472l-1.283,0l-0,-0.755l-0.321,0c-0.293,0.368 -0.642,0.784 -1.18,0.972l-0,0.255l0.708,-0l-0,3.049c-0,0.576 0.264,0.83 0.887,0.83c0.397,-0 0.821,-0.094 1.237,-0.16l-0,-0.462c-0.17,0.028 -0.482,0.047 -0.671,0.047c-0.556,0 -0.66,-0.132 -0.66,-0.567l-0,-2.737Z" style="fill-rule:nonzero;"/><path d="M343.726,210.212c0,0.472 -0.321,0.689 -0.68,0.689l-0,0.34l2.058,-0l0,-0.34c-0.34,-0.01 -0.585,-0.236 -0.585,-0.755l0,-3.257l-0.236,0l-1.274,0.463l0,0.217l0.717,0.359l0,2.284Zm-0.151,-5.022c0,0.284 0.226,0.51 0.51,0.51c0.283,0 0.509,-0.226 0.509,-0.51c-0,-0.283 -0.226,-0.509 -0.509,-0.509c-0.284,-0 -0.51,0.226 -0.51,0.509Z" style="fill-rule:nonzero;"/><path d="M348.358,207.295c-0.349,-0.273 -0.774,-0.406 -1.274,-0.406c-0.812,0 -1.378,0.482 -1.378,1.171c-0,0.274 0.104,0.594 0.292,0.783c0.774,0.774 2.02,0.755 2.02,1.482c0,0.387 -0.359,0.67 -0.859,0.67c-0.566,-0 -0.915,-0.406 -1.01,-1.142l-0.311,-0l0,1.189c0.358,0.18 0.915,0.302 1.387,0.302c0.888,-0 1.444,-0.471 1.444,-1.245c0,-0.312 -0.103,-0.614 -0.302,-0.812c-0.538,-0.538 -1.972,-0.708 -1.972,-1.416c-0,-0.406 0.264,-0.632 0.708,-0.632c0.519,0 0.821,0.33 0.962,1.076l0.293,0l0,-1.02Z" style="fill-rule:nonzero;"/><path d="M352.99,209.995c-0.264,0.415 -0.623,0.604 -1.218,0.604c-0.991,-0 -1.538,-0.944 -1.538,-1.775c0,-0.915 0.519,-1.529 1.302,-1.529c1.086,0 0.68,0.897 1.293,0.897c0.218,-0 0.359,-0.17 0.359,-0.453c-0,-0.623 -0.717,-0.85 -1.491,-0.85c-1.605,0 -2.228,1.256 -2.228,2.266c-0,1 0.604,2.189 2.011,2.189c0.868,-0 1.529,-0.462 1.727,-1.208l-0.217,-0.141Z" style="fill-rule:nonzero;"/><path d="M357.933,208.258c0,-1 -0.613,-1.369 -1.293,-1.369c-0.566,0 -0.972,0.18 -1.566,0.708l0,-2.916l-0.236,-0l-1.265,0.434l-0,0.217l0.708,0.397l0,4.417c0,0.396 -0.151,0.755 -0.708,0.755l-0,0.34l2.256,-0l0,-0.34c-0.557,0 -0.755,-0.246 -0.755,-0.821l0,-2.124c0.349,-0.274 0.755,-0.434 1.151,-0.434c0.547,0 0.916,0.349 0.916,0.925l-0,1.774c-0,0.378 -0.208,0.68 -0.708,0.68l0,0.34l2.189,-0l0,-0.34c-0.396,0 -0.689,-0.217 -0.689,-0.727l0,-1.916Z" style="fill-rule:nonzero;"/><path d="M358.915,205.039c1.283,0.784 2.001,2.077 2.001,3.795c-0,1.718 -0.718,3.011 -2.001,3.794l0.292,0.359c1.52,-0.897 2.303,-2.35 2.303,-4.153c0,-1.803 -0.783,-3.257 -2.303,-4.153l-0.292,0.358Z" style="fill-rule:nonzero;"/><path d="M375.595,155.642c-0.054,0.054 -0.09,0.126 -0.09,0.217c0,0.489 0.905,1.448 1.412,1.448c0.344,0 5.594,-5.811 8.871,-9.233c0.036,-0.036 0.054,-0.072 0.054,-0.108c0,-0.398 -1.068,-1.448 -1.43,-1.448c-0.055,0 -0.091,0.018 -0.127,0.054c-2.661,2.227 -6.3,6.39 -8.69,9.07Zm7.151,-0.706c-0.054,0.072 -0.072,0.145 -0.072,0.199c0,0.471 0.851,1.213 1.394,1.213c0.434,-0 1.973,-2.082 1.973,-2.209c-0,-0.434 -0.815,-1.412 -1.322,-1.412c-0.724,-0 -1.448,1.358 -1.973,2.209Zm-6.372,-6.101c-0.037,0.054 -0.055,0.108 -0.055,0.181c0,0.416 0.779,1.213 1.159,1.213c0.362,-0.362 0.688,-0.706 0.96,-1.014c0.506,-0.507 0.995,-1.086 0.995,-1.285c0,-0.471 -0.688,-1.268 -1.122,-1.268c-0.561,-0 -1.521,1.811 -1.937,2.173Z" style="fill-rule:nonzero;"/><path d="M133.213,250.208l-0,19.806" style="fill:none;stroke:#000;stroke-width:0.77px;"/><path d="M245.393,250.208l0,19.806" style="fill:none;stroke:#000;stroke-width:0.77px;"/><path d="M357.729,250.208l0,19.806" style="fill:none;stroke:#000;stroke-width:0.77px;"/><path d="M469.909,250.208l-0,19.806" style="fill:none;stroke:#000;stroke-width:0.77px;"/><path d="M35.23,237.327c0.018,0.144 0.271,0.199 0.579,0.199c0.471,0 1.068,-0.145 1.068,-0.362c0.018,-0.779 -0,-1.286 0.181,-2.281c0.67,-0.236 1.412,-0.598 2.263,-0.906c0.109,1.412 0.145,2.897 0.199,3.187c0,0.108 0.254,0.144 0.561,0.144c0.543,-0 1.304,-0.126 1.304,-0.344c-0,-2.878 -0.018,-12.093 -2.064,-12.093c-1.865,0 -4.091,6.463 -4.091,12.184l-0,0.272Zm3.331,-8.31c0.561,-0 0.579,1.684 0.651,2.697c-0.507,0.272 -1.176,0.544 -1.756,0.779c0.218,-1.014 0.543,-3.44 1.105,-3.476Z" style="fill-rule:nonzero;"/><path d="M42.308,231.045c0.326,0.651 0.507,2.625 0.507,4.091c-0,0.579 -0.036,1.086 -0.091,1.394c-0.018,0.054 -0.018,0.091 -0.018,0.127c0,0.489 0.598,0.832 1.05,0.832c0.254,-0 0.471,-0.108 0.489,-0.362c0.127,-1.285 0.561,-4.652 1.141,-4.707c0.271,-0.036 0.398,2.77 0.47,4.382c0.018,0.452 0.489,0.669 0.942,0.669c0.416,-0 0.832,-0.181 0.851,-0.525c0.108,-1.357 1.466,-4.851 1.683,-4.833c0.398,0.036 0.978,4.652 0.978,4.707c0.018,0.47 0.434,0.76 0.796,0.76c0.254,0 0.489,-0.163 0.489,-0.525c0,-1.539 -0.525,-4.2 -0.941,-5.866c-0.145,-0.543 -0.67,-1.104 -1.213,-1.104c-0.398,-0 -0.815,0.29 -1.086,1.068l-1.322,3.277c0,-0.453 -0.561,-3.422 -0.597,-3.639c-0.181,-0.724 -0.471,-1.032 -0.797,-1.032c-0.652,0 -1.43,1.213 -1.72,2.553c-0.036,-0.489 -0.525,-1.539 -0.561,-1.629c-0.091,-0.2 -0.217,-0.272 -0.38,-0.272c-0.308,0 -0.688,0.29 -0.688,0.543c0,0.036 0,0.072 0.018,0.091Z" style="fill-rule:nonzero;"/><path d="M150.46,234.864c-0.054,0.055 -0.09,0.127 -0.09,0.218c-0,0.489 0.905,1.448 1.412,1.448c0.344,-0 5.594,-5.811 8.871,-9.233c0.036,-0.036 0.054,-0.072 0.054,-0.108c0,-0.399 -1.068,-1.449 -1.43,-1.449c-0.054,-0 -0.091,0.018 -0.127,0.055c-2.661,2.226 -6.3,6.39 -8.69,9.069Zm7.151,-0.706c-0.054,0.073 -0.072,0.145 -0.072,0.2c0,0.47 0.851,1.213 1.394,1.213c0.434,0 1.973,-2.082 1.973,-2.209c0,-0.435 -0.815,-1.412 -1.321,-1.412c-0.725,0 -1.449,1.358 -1.974,2.208Zm-6.372,-6.101c-0.036,0.055 -0.054,0.109 -0.054,0.182c-0,0.416 0.778,1.212 1.158,1.212c0.362,-0.362 0.688,-0.706 0.96,-1.013c0.507,-0.507 0.995,-1.087 0.995,-1.286c0,-0.47 -0.688,-1.267 -1.122,-1.267c-0.561,0 -1.521,1.81 -1.937,2.172Z" style="fill-rule:nonzero;"/><path d="M256.453,233.977c-0.271,-0.072 -0.507,-0.181 -0.742,-0.217c0.072,1.304 0.072,1.955 0.108,2.987c0.453,0.543 1.322,0.688 3.386,0.688c0.452,-0 0.941,-0 1.502,-0.018c1.901,-0.76 2.861,-4.453 2.861,-7.585c-0,-4.092 -1.376,-4.997 -3.476,-4.997c-1.593,-0 -2.824,0.923 -4.182,2.571c-0.109,0.76 -0.018,1.593 -0.145,2.914c0.181,0 0.453,-0.271 0.579,-0.362c0.037,0.598 0.145,1.901 0.145,3.06c0,0.344 -0.018,0.67 -0.036,0.959Zm0.923,-4.707c1.014,-0.887 2.318,-1.321 3.132,-1.321c1.087,0 1.539,1.14 1.539,2.299c-0,1.503 -1.05,4.164 -3.331,4.164c-0.308,-0 -0.634,-0.036 -1.014,-0.127c0.036,-0.489 0.073,-1.122 0.073,-1.774c-0,-1.086 -0.091,-2.281 -0.399,-3.241Z" style="fill-rule:nonzero;"/><path d="M264.798,231.045c0.326,0.651 0.507,2.625 0.507,4.091c-0,0.579 -0.036,1.086 -0.091,1.394c-0.018,0.054 -0.018,0.091 -0.018,0.127c0,0.489 0.598,0.832 1.05,0.832c0.254,-0 0.471,-0.108 0.489,-0.362c0.127,-1.285 0.561,-4.652 1.141,-4.707c0.271,-0.036 0.398,2.77 0.47,4.382c0.018,0.452 0.489,0.669 0.942,0.669c0.416,-0 0.832,-0.181 0.85,-0.525c0.109,-1.357 1.467,-4.851 1.684,-4.833c0.398,0.036 0.978,4.652 0.978,4.707c0.018,0.47 0.434,0.76 0.796,0.76c0.254,0 0.489,-0.163 0.489,-0.525c-0,-1.539 -0.525,-4.2 -0.941,-5.866c-0.145,-0.543 -0.67,-1.104 -1.213,-1.104c-0.399,-0 -0.815,0.29 -1.086,1.068l-1.322,3.277c0,-0.453 -0.561,-3.422 -0.597,-3.639c-0.182,-0.724 -0.471,-1.032 -0.797,-1.032c-0.652,0 -1.43,1.213 -1.72,2.553c-0.036,-0.489 -0.525,-1.539 -0.561,-1.629c-0.091,-0.2 -0.217,-0.272 -0.38,-0.272c-0.308,0 -0.688,0.29 -0.688,0.543c-0,0.036 -0,0.072 0.018,0.091Z" style="fill-rule:nonzero;"/><path d="M275.187,224.038c-0.018,0.761 -0.144,1.539 -0.199,2.354c0.833,-0.253 1.774,-0.616 2.716,-0.616c0.362,0 0.706,0.055 1.068,0.181c-0.38,1.413 -1.141,3.766 -2.064,6.952c0.199,0.199 0.38,0.362 0.543,0.362c0.109,-0 0.217,-0.072 0.344,-0.253c0.978,-2.915 1.557,-4.472 2.498,-8.183c0.037,-0.163 0.055,-0.326 0.055,-0.453c0,-0.796 -0.688,-1.068 -1.575,-1.068c-1.177,-0 -2.68,0.453 -3.386,0.724Z" style="fill-rule:nonzero;"/><path d="M374.976,234.864c-0.054,0.055 -0.09,0.127 -0.09,0.218c-0,0.489 0.905,1.448 1.412,1.448c0.344,-0 5.594,-5.811 8.871,-9.233c0.036,-0.036 0.054,-0.072 0.054,-0.108c-0,-0.399 -1.068,-1.449 -1.43,-1.449c-0.055,-0 -0.091,0.018 -0.127,0.055c-2.661,2.226 -6.3,6.39 -8.69,9.069Zm7.151,-0.706c-0.054,0.073 -0.072,0.145 -0.072,0.2c-0,0.47 0.851,1.213 1.394,1.213c0.434,0 1.973,-2.082 1.973,-2.209c-0,-0.435 -0.815,-1.412 -1.321,-1.412c-0.725,0 -1.449,1.358 -1.974,2.208Zm-6.372,-6.101c-0.036,0.055 -0.055,0.109 -0.055,0.182c0,0.416 0.779,1.212 1.159,1.212c0.362,-0.362 0.688,-0.706 0.96,-1.013c0.506,-0.507 0.995,-1.087 0.995,-1.286c-0,-0.47 -0.688,-1.267 -1.122,-1.267c-0.561,0 -1.521,1.81 -1.937,2.172Z" style="fill-rule:nonzero;"/><path d="M134.296,329.276l0,19.806" style="fill:none;stroke:#000;stroke-width:0.77px;"/><path d="M247.869,329.276l0,19.806" style="fill:none;stroke:#000;stroke-width:0.77px;"/><path d="M361.287,329.276l-0,19.806" style="fill:none;stroke:#000;stroke-width:0.77px;"/><path d="M465.577,329.276l-0,19.806" style="fill:none;stroke:#000;stroke-width:0.77px;"/><path d="M468.981,329.276l-0,19.806" style="fill:none;stroke:#000;stroke-width:2.48px;"/><path d="M462.327,335.777c-0.475,-0 -0.911,0.416 -0.911,0.951c-0,0.455 0.456,0.891 0.911,0.891c0.535,0 0.951,-0.436 0.951,-0.891c0,-0.535 -0.416,-0.951 -0.951,-0.951Z" style="fill-rule:nonzero;"/><path d="M462.327,340.728c-0.475,-0 -0.911,0.416 -0.911,0.951c-0,0.456 0.456,0.891 0.911,0.891c0.535,0 0.951,-0.435 0.951,-0.891c0,-0.535 -0.416,-0.951 -0.951,-0.951Z" style="fill-rule:nonzero;"/><path d="M30.663,304.981c-0.235,2.679 -0.471,7.06 -0.471,9.541c-0,1.593 0.145,2.136 0.67,2.136c0.887,0 0.598,-3.15 0.779,-3.838c2.878,-1.322 3.439,-0.489 3.439,-2.48l0,-0.199c0,-0.562 -0.018,-0.833 -0.38,-0.833c-0.688,-0 -2.788,0.76 -3.15,0.814l-0,-0.235c-0,-0.706 0.109,-1.792 0.127,-2.426c0.977,-0.489 2.824,-0.579 3.675,-0.76c0.471,-0.073 0.507,-1.159 0.507,-1.955c0,-0.417 -0.109,-0.706 -0.887,-0.706c-1.412,-0 -4.273,0.597 -4.309,0.941Z" style="fill-rule:nonzero;"/><path d="M38.537,306.484c0.072,-0.308 0.162,-1.847 0.452,-1.847l0.199,0.018c0.344,-0 0.417,-0.778 0.417,-1.14c-0,-0.724 -0.254,-0.761 -0.489,-0.761c-0.742,-0 -1.973,3.006 -1.973,5.793c0,1.394 0.525,2.843 1.683,2.843c0.779,-0 1.684,-0.743 2.299,-2.698c0.181,-0.561 0.29,-1.032 0.29,-1.394c0,-0.814 -0.489,-1.158 -1.702,-1.158c-0.362,-0 -0.814,0.163 -1.176,0.344Zm-0.109,1.285c0.326,-0.036 0.941,-0.344 1.412,-0.344c0.29,0 0.525,0.127 0.561,0.507c0,1.014 -1.195,1.792 -1.466,1.792c-0.435,-0 -0.634,-0.633 -0.634,-1.231c-0,-0.271 0.036,-0.543 0.127,-0.724Z" style="fill-rule:nonzero;"/><path d="M41.884,316.151c-0.127,0.38 -0.182,0.706 -0.182,0.941c-0,0.381 0.145,0.562 0.344,0.562c0.254,0 0.598,-0.272 0.888,-0.833c2.262,-4.236 3.095,-7.187 5.702,-10.609c0.054,-0.09 0.073,-0.181 0.073,-0.271c-0,-0.308 -0.29,-0.544 -0.634,-0.544c-0.217,0 -0.471,0.091 -0.67,0.308c-2.19,3.223 -3.91,6.499 -5.521,10.446Z" style="fill-rule:nonzero;"/><path d="M55.894,319.192c0.072,0.2 0.181,0.272 0.308,0.272c0.271,0 0.597,-0.326 0.796,-0.652c0.199,-2.353 0.489,-4.689 0.489,-6.083c-0,-2.371 -1.195,-2.896 -2.227,-2.896c-0.597,-0 -1.158,0.163 -1.394,0.253c-0.036,0.634 -0.235,1.793 -0.235,2.734c0.416,-0.036 0.543,-0.054 0.597,-0.054c0.073,0 0.055,0.036 0.435,0.108c-0.724,0.38 -1.34,0.543 -1.81,0.543c-1.069,0 -1.521,-0.832 -1.521,-1.882c0,-0.525 0.108,-1.123 0.326,-1.702c0.217,-0.942 1.339,-2.897 2.226,-2.897c0.761,0 0.888,2.444 1.847,2.444c0.453,0 0.688,-0.525 0.688,-1.466c-0,-2.227 -0.887,-4.128 -2.245,-4.128c-2.154,-0 -4.309,4.617 -4.309,8.292c0,2.19 0.706,4.562 3.078,4.562c1.068,-0 2.245,-0.616 3.186,-2.263c-0.036,2.19 -0.199,3.512 -0.235,4.815Z" style="fill-rule:nonzero;"/><path d="M170.311,319.192c0.072,0.2 0.181,0.272 0.308,0.272c0.271,0 0.597,-0.326 0.796,-0.652c0.199,-2.353 0.489,-4.689 0.489,-6.083c0,-2.371 -1.195,-2.896 -2.227,-2.896c-0.597,-0 -1.158,0.163 -1.394,0.253c-0.036,0.634 -0.235,1.793 -0.235,2.734c0.416,-0.036 0.543,-0.054 0.597,-0.054c0.073,0 0.055,0.036 0.435,0.108c-0.724,0.38 -1.34,0.543 -1.81,0.543c-1.069,0 -1.521,-0.832 -1.521,-1.882c-0,-0.525 0.108,-1.123 0.326,-1.702c0.217,-0.942 1.339,-2.897 2.226,-2.897c0.761,0 0.887,2.444 1.847,2.444c0.453,0 0.688,-0.525 0.688,-1.466c-0,-2.227 -0.887,-4.128 -2.245,-4.128c-2.154,-0 -4.309,4.617 -4.309,8.292c-0,2.19 0.706,4.562 3.078,4.562c1.068,-0 2.245,-0.616 3.186,-2.263c-0.036,2.19 -0.199,3.512 -0.235,4.815Z" style="fill-rule:nonzero;"/><path d="M173.478,303.261c-0.018,0.761 -0.145,1.539 -0.199,2.354c0.832,-0.254 1.774,-0.616 2.715,-0.616c0.362,-0 0.706,0.054 1.068,0.181c-0.38,1.412 -1.14,3.766 -2.064,6.952c0.2,0.199 0.381,0.362 0.544,0.362c0.108,0 0.217,-0.072 0.344,-0.253c0.977,-2.915 1.556,-4.472 2.498,-8.183c0.036,-0.163 0.054,-0.326 0.054,-0.453c0,-0.796 -0.688,-1.068 -1.575,-1.068c-1.177,0 -2.679,0.453 -3.385,0.724Z" style="fill-rule:nonzero;"/><path d="M273.461,316.097c0.398,-0.362 0.579,-0.869 0.579,-1.34c0,-0.38 -0.126,-0.76 -0.38,-1.05c-0.869,0.253 -1.774,0.362 -2.552,0.362c-2.119,0 -2.68,-0.796 -2.68,-2.317c0,-1.231 1.286,-4.653 2.517,-4.653c0.887,-0 1.43,2.806 2.045,2.806c0.725,-0 0.761,-1.394 0.761,-1.937c0,-2.462 -1.086,-3.874 -2.408,-3.874c-1.901,-0 -4.363,3.313 -4.363,7.241c0,2.137 0.597,5.305 3.53,5.305c0.996,-0 2.136,-0.236 2.951,-0.543Z" style="fill-rule:nonzero;"/><path d="M383.011,316.097c0.399,-0.362 0.58,-0.869 0.58,-1.34c0,-0.38 -0.127,-0.76 -0.381,-1.05c-0.869,0.253 -1.774,0.362 -2.552,0.362c-2.118,0 -2.68,-0.796 -2.68,-2.317c-0,-1.231 1.286,-4.653 2.517,-4.653c0.887,-0 1.43,2.806 2.046,2.806c0.724,-0 0.76,-1.394 0.76,-1.937c-0,-2.462 -1.086,-3.874 -2.408,-3.874c-1.901,-0 -4.363,3.313 -4.363,7.241c-0,2.137 0.598,5.305 3.53,5.305c0.996,-0 2.137,-0.236 2.951,-0.543Z" style="fill-rule:nonzero;"/><path d="M424.071,319.192c0.073,0.2 0.181,0.272 0.308,0.272c0.271,0 0.597,-0.326 0.797,-0.652c0.199,-2.353 0.488,-4.689 0.488,-6.083c0,-2.371 -1.195,-2.896 -2.226,-2.896c-0.598,-0 -1.159,0.163 -1.394,0.253c-0.037,0.634 -0.236,1.793 -0.236,2.734c0.417,-0.036 0.543,-0.054 0.598,-0.054c0.072,0 0.054,0.036 0.434,0.108c-0.724,0.38 -1.34,0.543 -1.81,0.543c-1.068,0 -1.521,-0.832 -1.521,-1.882c0,-0.525 0.109,-1.123 0.326,-1.702c0.217,-0.942 1.34,-2.897 2.227,-2.897c0.76,0 0.887,2.444 1.846,2.444c0.453,0 0.688,-0.525 0.688,-1.466c0,-2.227 -0.887,-4.128 -2.245,-4.128c-2.154,-0 -4.308,4.617 -4.308,8.292c-0,2.19 0.706,4.562 3.077,4.562c1.068,-0 2.245,-0.616 3.187,-2.263c-0.037,2.19 -0.2,3.512 -0.236,4.815Z" style="fill-rule:nonzero;"/><path d="M427.238,303.261c-0.018,0.761 -0.145,1.539 -0.199,2.354c0.833,-0.254 1.774,-0.616 2.715,-0.616c0.363,-0 0.706,0.054 1.069,0.181c-0.381,1.412 -1.141,3.766 -2.064,6.952c0.199,0.199 0.38,0.362 0.543,0.362c0.108,0 0.217,-0.072 0.344,-0.253c0.977,-2.915 1.557,-4.472 2.498,-8.183c0.036,-0.163 0.054,-0.326 0.054,-0.453c-0,-0.796 -0.688,-1.068 -1.575,-1.068c-1.176,0 -2.679,0.453 -3.385,0.724Z" style="fill-rule:nonzero;"/><path d="M245.393,464.821l0,19.806" style="fill:none;stroke:#000;stroke-width:0.77px;"/><path d="M469.909,464.821l-0,19.806" style="fill:none;stroke:#000;stroke-width:0.77px;"/><path d="M32.725,98.922l-0,-0.838l-1.258,0l-0,-4.491l-2.495,2.215l0,2.276l-2.694,0c0.299,-0.759 1.117,-1.796 2.455,-3.134c1.217,-1.217 1.916,-2.295 2.116,-3.194l-3.414,0c-0.159,1.957 -1.317,4.811 -2.535,6.368l-0,0.798l4.072,-0c0,0.699 -0.02,1.098 -0.06,1.198c-0.119,0.219 -0.499,0.359 -1.117,0.399l-0.04,0.559l4.91,0l-0.08,-0.579c-0.958,-0.08 -1.138,-0.179 -1.138,-0.678c0,-0.06 0,-0.18 0.02,-0.38l-0,-0.519l1.258,-0Z" style="fill-rule:nonzero;"/><path d="M32.725,108.958l-0,-0.838l-1.258,-0l-0,-4.491l-2.495,2.215l0,2.276l-2.694,-0c0.299,-0.759 1.117,-1.797 2.455,-3.134c1.217,-1.218 1.916,-2.295 2.116,-3.194l-3.414,-0c-0.159,1.956 -1.317,4.811 -2.535,6.368l-0,0.798l4.072,0c0,0.699 -0.02,1.098 -0.06,1.198c-0.119,0.219 -0.499,0.359 -1.117,0.399l-0.04,0.559l4.91,0l-0.08,-0.579c-0.958,-0.08 -1.138,-0.18 -1.138,-0.679c0,-0.06 0,-0.179 0.02,-0.379l-0,-0.519l1.258,0Z" style="fill-rule:nonzero;"/><path d="M0.143,111.569l470.076,0" style="fill:none;stroke:#000;stroke-width:0.46px;"/><path d="M0.143,106.617l470.076,0" style="fill:none;stroke:#000;stroke-width:0.46px;"/><path d="M0.143,101.666l470.076,-0" style="fill:none;stroke:#000;stroke-width:0.46px;"/><path d="M0.143,96.714l470.076,-0" style="fill:none;stroke:#000;stroke-width:0.46px;"/><path d="M0.143,91.763l470.076,0" style="fill:none;stroke:#000;stroke-width:0.46px;"/><path d="M14.215,110.911l0.753,3.664c0.039,0.218 0.059,0.416 0.059,0.614c0,1.941 -1.98,3.565 -4.119,3.565c-0.654,-0 -1.288,-0.158 -1.882,-0.455c1.525,-0.159 2.674,-1.09 2.674,-2.456c-0,-1.209 -0.99,-2.476 -2.258,-2.476c-1.446,0 -2.436,1.109 -2.436,2.555c0,2.02 1.644,3.347 3.624,3.347c2.654,0 4.912,-1.723 4.912,-4.199c-0,-0.554 -0.871,-4.476 -0.851,-4.337c2.119,-1.03 3.565,-2.852 3.565,-4.773c0,-2.635 -2.12,-4.655 -4.754,-4.655c-0.039,-0 -0.317,0.02 -0.792,0.06l-0.871,-4.179c2.951,-2.496 4.297,-5.15 4.297,-8.061c-0,-2.238 -0.891,-4.615 -2.693,-7.11c-2.04,1.643 -3.209,4.931 -3.209,8.437c0,1.248 0.159,2.456 0.436,3.604c-4.516,3.783 -6.774,7.269 -6.774,10.458c-0,3.743 3.863,6.853 8.061,6.853c0.931,0 1.624,-0.139 2.258,-0.456Zm-0.059,-26.025c0.653,0.674 0.99,1.466 0.99,2.397c-0,1.921 -1.366,4.08 -4.04,6.456c-0.139,-0.574 -0.179,-1.208 -0.179,-1.901c0,-3.327 1.228,-6.991 2.872,-6.991c0.139,-0 0.258,0.02 0.357,0.039Zm0.416,25.213l-1.406,-6.615c0.277,-0.02 0.435,-0.04 0.495,-0.04c1.703,0 2.891,1.605 2.891,3.248c0,1.308 -0.693,2.456 -1.98,3.407Zm-1.902,-6.536l1.426,6.813c-0.693,0.377 -1.465,0.535 -2.396,0.535c-3.209,0 -5.981,-2.396 -5.981,-5.308c-0,-2.634 1.96,-5.347 5.664,-8.12l0.832,3.961c-2.06,0.436 -3.803,2.179 -3.803,4.139c-0,1.664 1.189,2.833 2.971,3.11c-1.089,-0.674 -1.624,-1.525 -1.624,-2.535c-0,-1.367 1.268,-2.377 2.911,-2.595Z" style="fill-rule:nonzero;"/><path d="M143.765,33.046l0.802,-0l0,3.725c0.098,-0.154 0.208,-0.286 0.307,-0.396c0.099,-0.11 0.198,-0.209 0.297,-0.285c0.384,-0.297 0.824,-0.44 1.329,-0.44c0.758,-0 1.384,0.286 1.879,0.868c0.505,0.582 0.758,1.296 0.758,2.131c-0,0.857 -0.253,1.582 -0.758,2.186c-0.539,0.649 -1.22,0.967 -2.033,0.967c-0.45,0 -0.835,-0.099 -1.164,-0.296c-0.209,-0.121 -0.418,-0.286 -0.615,-0.506l-0.209,0.659l-0.593,-0l-0,-8.613Zm0.802,5.416l0,1.703c0.098,0.121 0.208,0.231 0.307,0.33c0.099,0.099 0.198,0.176 0.286,0.242c0.318,0.23 0.692,0.34 1.098,0.34c0.561,-0 1.033,-0.231 1.396,-0.692c0.362,-0.472 0.549,-1.055 0.549,-1.725c0,-0.703 -0.209,-1.274 -0.615,-1.725c-0.352,-0.384 -0.758,-0.571 -1.22,-0.571c-0.494,0 -0.923,0.209 -1.285,0.637c-0.341,0.407 -0.516,0.901 -0.516,1.461Z" style="fill-rule:nonzero;"/><path d="M154.507,37.858l0,2.769c0,0.121 0.033,0.23 0.088,0.329c0.055,0.088 0.154,0.132 0.297,0.132l0.11,0c0.032,-0.011 0.054,-0.011 0.087,-0.022c0.044,-0.011 0.088,-0.033 0.121,-0.044c0.033,-0.011 0.055,-0.022 0.077,-0.033l0,0.615c-0.132,0.044 -0.264,0.077 -0.395,0.099c-0.132,0.011 -0.231,0.022 -0.308,0.022c-0.373,0 -0.615,-0.099 -0.736,-0.296c-0.099,-0.121 -0.143,-0.396 -0.143,-0.802c-0.099,0.164 -0.187,0.307 -0.285,0.428c-0.099,0.121 -0.187,0.22 -0.286,0.297c-0.385,0.296 -0.824,0.45 -1.329,0.45c-0.539,0 -1,-0.154 -1.396,-0.472c-0.406,-0.341 -0.615,-0.769 -0.615,-1.286c0,-0.648 0.33,-1.131 0.989,-1.439c0.242,-0.121 0.56,-0.219 0.967,-0.307c0.395,-0.088 0.868,-0.165 1.428,-0.242l0.527,-0.055c0,-0.516 -0.132,-0.912 -0.384,-1.197c-0.264,-0.297 -0.649,-0.44 -1.154,-0.44c-0.187,0 -0.373,0.022 -0.56,0.077c-0.187,0.044 -0.385,0.121 -0.571,0.22c-0.099,0.055 -0.22,0.132 -0.341,0.209c-0.121,0.076 -0.264,0.186 -0.406,0.307l0,-0.901c0.626,-0.417 1.296,-0.626 2.01,-0.626c0.736,-0 1.296,0.231 1.692,0.692c0.34,0.407 0.516,0.912 0.516,1.516Zm-0.802,1.154l0,-0.352l-0.373,0.044c-0.912,0.099 -1.56,0.22 -1.934,0.385c-0.494,0.197 -0.747,0.516 -0.747,0.966c0,0.132 0.033,0.264 0.088,0.385c0.055,0.121 0.143,0.22 0.242,0.319c0.099,0.098 0.23,0.175 0.384,0.23c0.143,0.055 0.308,0.088 0.495,0.088c0.494,-0 0.933,-0.198 1.307,-0.604c0.362,-0.407 0.538,-0.901 0.538,-1.461Z" style="fill-rule:nonzero;"/><path d="M156.033,41.154l0,-0.956c0.451,0.363 0.912,0.626 1.385,0.769c0.142,0.033 0.274,0.066 0.406,0.088c0.132,0.011 0.264,0.022 0.407,0.022c0.45,-0 0.812,-0.099 1.109,-0.307c0.297,-0.22 0.451,-0.462 0.451,-0.737c0,-0.142 -0.055,-0.296 -0.165,-0.45c-0.154,-0.187 -0.561,-0.362 -1.231,-0.516c-0.791,-0.198 -1.318,-0.363 -1.582,-0.495c-0.516,-0.296 -0.769,-0.703 -0.769,-1.23c0,-0.494 0.209,-0.89 0.638,-1.209c0.428,-0.318 0.966,-0.483 1.614,-0.483c0.297,-0 0.561,0.022 0.791,0.077c0.231,0.055 0.451,0.121 0.66,0.209c0.208,0.077 0.395,0.186 0.571,0.307l-0,0.956c-0.308,-0.253 -0.626,-0.461 -0.967,-0.604c-0.34,-0.154 -0.692,-0.231 -1.066,-0.231c-0.373,0 -0.692,0.088 -0.966,0.253c-0.275,0.165 -0.418,0.384 -0.418,0.659c0,0.363 0.33,0.648 0.989,0.857c0.308,0.088 0.615,0.176 0.912,0.264c0.296,0.087 0.604,0.175 0.912,0.263c0.67,0.286 0.999,0.714 0.999,1.297c-0,0.494 -0.23,0.922 -0.692,1.296c-0.472,0.362 -1.054,0.549 -1.747,0.549c-0.307,0 -0.604,-0.033 -0.9,-0.099c-0.473,-0.099 -0.912,-0.285 -1.341,-0.549Z" style="fill-rule:nonzero;"/><rect x="161.59" y="33.046" width="0.791" height="8.613" style="fill-rule:nonzero;"/><path d="M163.368,35.782l0.791,0l-0,5.877l-0.791,-0l-0,-5.877Zm0.384,-2.483c0.154,0 0.286,0.055 0.385,0.154c0.099,0.099 0.154,0.253 0.154,0.439c0,0.187 -0.044,0.341 -0.143,0.44c-0.099,0.099 -0.231,0.154 -0.396,0.154c-0.164,-0 -0.296,-0.055 -0.384,-0.176c-0.099,-0.121 -0.143,-0.253 -0.143,-0.407c0,-0.241 0.055,-0.406 0.165,-0.483c0.11,-0.077 0.231,-0.121 0.362,-0.121Z" style="fill-rule:nonzero;"/><path d="M166.311,35.782l0.791,0l0,6.317c0,0.56 -0.165,0.978 -0.483,1.241c-0.275,0.231 -0.616,0.352 -1.044,0.352c-0.198,-0 -0.363,-0.022 -0.494,-0.055c-0.132,-0.033 -0.264,-0.088 -0.396,-0.154l-0,-0.725c0.132,0.066 0.264,0.121 0.396,0.165c0.12,0.033 0.252,0.055 0.373,0.055c0.275,-0 0.494,-0.077 0.637,-0.242c0.143,-0.165 0.22,-0.395 0.22,-0.681l0,-6.273Zm0.341,-2.483c0.153,0 0.285,0.055 0.384,0.154c0.099,0.099 0.154,0.253 0.154,0.439c0,0.187 -0.044,0.341 -0.143,0.44c-0.099,0.099 -0.231,0.154 -0.395,0.154c-0.165,-0 -0.297,-0.055 -0.385,-0.176c-0.099,-0.121 -0.143,-0.253 -0.143,-0.407c-0,-0.241 0.055,-0.406 0.165,-0.483c0.11,-0.077 0.231,-0.121 0.363,-0.121Z" style="fill-rule:nonzero;"/><path d="M173.309,37.726l0,3.933l-0.791,-0l0,-3.878c0,-0.406 -0.154,-0.747 -0.451,-1.01c-0.296,-0.275 -0.659,-0.407 -1.076,-0.407c-0.561,0 -1.033,0.231 -1.44,0.692c-0.406,0.473 -0.604,1 -0.604,1.582l0,3.021l-0.747,-0l-0,-5.877l0.692,0l0.033,1.098c0.198,-0.296 0.429,-0.549 0.692,-0.747c0.429,-0.318 0.923,-0.483 1.462,-0.483c0.626,-0 1.153,0.187 1.581,0.571c0.429,0.374 0.649,0.879 0.649,1.505Z" style="fill-rule:nonzero;"/><path d="M179.505,38.484l-4.472,0c0,0.846 0.198,1.484 0.593,1.934c0.385,0.439 0.901,0.659 1.539,0.659c0.483,-0 0.944,-0.154 1.395,-0.461c0.121,-0.077 0.252,-0.176 0.395,-0.297c0.143,-0.121 0.286,-0.264 0.451,-0.428l0,0.955c-0.176,0.132 -0.341,0.253 -0.484,0.352c-0.154,0.099 -0.296,0.176 -0.428,0.242c-0.462,0.241 -0.923,0.362 -1.384,0.362c-0.802,0 -1.473,-0.274 -2.033,-0.824c-0.604,-0.582 -0.901,-1.329 -0.901,-2.252c-0,-0.868 0.275,-1.604 0.813,-2.186c0.55,-0.593 1.231,-0.89 2.033,-0.89c0.78,-0 1.406,0.286 1.867,0.857c0.407,0.516 0.616,1.175 0.616,1.977Zm-4.362,-0.67l3.439,-0c-0.088,-0.494 -0.275,-0.868 -0.561,-1.109c-0.296,-0.253 -0.648,-0.374 -1.054,-0.374c-0.451,-0 -0.835,0.143 -1.154,0.429c-0.296,0.263 -0.516,0.615 -0.67,1.054Z" style="fill-rule:nonzero;"/><path d="M185.479,37.726l0,3.933l-0.791,-0l0,-3.878c0,-0.406 -0.154,-0.747 -0.45,-1.01c-0.297,-0.275 -0.659,-0.407 -1.077,-0.407c-0.56,0 -1.032,0.231 -1.439,0.692c-0.406,0.473 -0.604,1 -0.604,1.582l-0,3.021l-0.747,-0l0,-5.877l0.692,0l0.033,1.098c0.198,-0.296 0.428,-0.549 0.692,-0.747c0.428,-0.318 0.923,-0.483 1.461,-0.483c0.626,-0 1.154,0.187 1.582,0.571c0.429,0.374 0.648,0.879 0.648,1.505Z" style="fill-rule:nonzero;"/><path d="M189.917,41.154l0,-0.956c0.451,0.363 0.912,0.626 1.384,0.769c0.143,0.033 0.275,0.066 0.407,0.088c0.132,0.011 0.264,0.022 0.406,0.022c0.451,-0 0.813,-0.099 1.11,-0.307c0.297,-0.22 0.45,-0.462 0.45,-0.737c-0,-0.142 -0.055,-0.296 -0.164,-0.45c-0.154,-0.187 -0.561,-0.362 -1.231,-0.516c-0.791,-0.198 -1.318,-0.363 -1.582,-0.495c-0.516,-0.296 -0.769,-0.703 -0.769,-1.23c-0,-0.494 0.209,-0.89 0.637,-1.209c0.429,-0.318 0.967,-0.483 1.615,-0.483c0.297,-0 0.561,0.022 0.791,0.077c0.231,0.055 0.451,0.121 0.659,0.209c0.209,0.077 0.396,0.186 0.572,0.307l-0,0.956c-0.308,-0.253 -0.626,-0.461 -0.967,-0.604c-0.341,-0.154 -0.692,-0.231 -1.066,-0.231c-0.373,0 -0.692,0.088 -0.966,0.253c-0.275,0.165 -0.418,0.384 -0.418,0.659c0,0.363 0.33,0.648 0.989,0.857c0.307,0.088 0.615,0.176 0.912,0.264c0.296,0.087 0.604,0.175 0.911,0.263c0.671,0.286 1,0.714 1,1.297c0,0.494 -0.23,0.922 -0.692,1.296c-0.472,0.362 -1.055,0.549 -1.747,0.549c-0.307,0 -0.604,-0.033 -0.901,-0.099c-0.472,-0.099 -0.911,-0.285 -1.34,-0.549Z" style="fill-rule:nonzero;"/><path d="M196.243,41.132l-0,2.417l-0.769,0l-0,-7.767l0.714,0l0.044,1.066c0.242,-0.396 0.516,-0.693 0.835,-0.89c0.319,-0.209 0.692,-0.308 1.143,-0.308c0.736,-0 1.34,0.286 1.823,0.857c0.253,0.286 0.44,0.604 0.561,0.967c0.12,0.351 0.186,0.747 0.186,1.186c-0,0.912 -0.274,1.659 -0.824,2.252c-0.549,0.594 -1.208,0.89 -1.966,0.89c-0.385,0 -0.736,-0.077 -1.055,-0.241c-0.099,-0.033 -0.198,-0.088 -0.307,-0.165c-0.11,-0.077 -0.242,-0.165 -0.385,-0.264Zm-0,-2.604l-0,1.758c0.121,0.11 0.231,0.209 0.33,0.286c0.099,0.077 0.186,0.132 0.263,0.187c0.363,0.208 0.725,0.318 1.088,0.318c0.582,-0 1.066,-0.231 1.439,-0.692c0.385,-0.483 0.571,-1.066 0.571,-1.758c0,-0.648 -0.175,-1.186 -0.527,-1.615c-0.34,-0.428 -0.78,-0.648 -1.318,-0.648c-0.55,0 -1,0.242 -1.363,0.714c-0.318,0.429 -0.483,0.912 -0.483,1.45Z" style="fill-rule:nonzero;"/><path d="M206.723,38.484l-4.471,0c-0,0.846 0.197,1.484 0.593,1.934c0.384,0.439 0.901,0.659 1.538,0.659c0.483,-0 0.945,-0.154 1.395,-0.461c0.121,-0.077 0.253,-0.176 0.396,-0.297c0.142,-0.121 0.285,-0.264 0.45,-0.428l-0,0.955c-0.176,0.132 -0.341,0.253 -0.483,0.352c-0.154,0.099 -0.297,0.176 -0.429,0.242c-0.461,0.241 -0.923,0.362 -1.384,0.362c-0.802,0 -1.472,-0.274 -2.033,-0.824c-0.604,-0.582 -0.9,-1.329 -0.9,-2.252c0,-0.868 0.274,-1.604 0.813,-2.186c0.549,-0.593 1.23,-0.89 2.032,-0.89c0.78,-0 1.406,0.286 1.868,0.857c0.406,0.516 0.615,1.175 0.615,1.977Zm-4.362,-0.67l3.439,-0c-0.088,-0.494 -0.275,-0.868 -0.56,-1.109c-0.297,-0.253 -0.648,-0.374 -1.055,-0.374c-0.45,-0 -0.835,0.143 -1.153,0.429c-0.297,0.263 -0.517,0.615 -0.671,1.054Z" style="fill-rule:nonzero;"/><rect x="207.589" y="33.046" width="0.791" height="8.613" style="fill-rule:nonzero;"/><path d="M214.585,38.484l-4.471,0c-0,0.846 0.198,1.484 0.593,1.934c0.385,0.439 0.901,0.659 1.538,0.659c0.483,-0 0.945,-0.154 1.395,-0.461c0.121,-0.077 0.253,-0.176 0.396,-0.297c0.143,-0.121 0.285,-0.264 0.45,-0.428l-0,0.955c-0.176,0.132 -0.34,0.253 -0.483,0.352c-0.154,0.099 -0.297,0.176 -0.429,0.242c-0.461,0.241 -0.922,0.362 -1.384,0.362c-0.802,0 -1.472,-0.274 -2.032,-0.824c-0.604,-0.582 -0.901,-1.329 -0.901,-2.252c0,-0.868 0.275,-1.604 0.813,-2.186c0.549,-0.593 1.23,-0.89 2.032,-0.89c0.78,-0 1.406,0.286 1.868,0.857c0.406,0.516 0.615,1.175 0.615,1.977Zm-4.361,-0.67l3.438,-0c-0.088,-0.494 -0.274,-0.868 -0.56,-1.109c-0.297,-0.253 -0.648,-0.374 -1.055,-0.374c-0.45,-0 -0.835,0.143 -1.153,0.429c-0.297,0.263 -0.517,0.615 -0.67,1.054Z" style="fill-rule:nonzero;"/><path d="M220.56,37.726l-0,3.933l-0.791,-0l-0,-3.878c-0,-0.406 -0.154,-0.747 -0.451,-1.01c-0.296,-0.275 -0.659,-0.407 -1.076,-0.407c-0.56,0 -1.033,0.231 -1.439,0.692c-0.407,0.473 -0.605,1 -0.605,1.582l-0,3.021l-0.747,-0l0,-5.877l0.693,0l0.032,1.098c0.198,-0.296 0.429,-0.549 0.693,-0.747c0.428,-0.318 0.922,-0.483 1.461,-0.483c0.626,-0 1.153,0.187 1.582,0.571c0.428,0.374 0.648,0.879 0.648,1.505Z" style="fill-rule:nonzero;"/><path d="M233.863,37.891l0,3.768l-0.802,-0l0,-3.955c0,-0.417 -0.142,-0.758 -0.428,-1.01c-0.242,-0.22 -0.527,-0.33 -0.857,-0.33c-0.494,0 -0.934,0.231 -1.318,0.681c-0.385,0.451 -0.571,1 -0.571,1.659l-0,2.955l-0.802,-0l0,-3.955c0,-0.395 -0.132,-0.714 -0.407,-0.955c-0.253,-0.253 -0.549,-0.385 -0.879,-0.385c-0.472,0 -0.901,0.209 -1.274,0.637c-0.407,0.473 -0.615,1.044 -0.615,1.736l0,2.922l-0.802,-0l0,-5.877l0.747,0l0.033,0.934c0.208,-0.341 0.516,-0.616 0.911,-0.813c0.352,-0.165 0.704,-0.253 1.066,-0.253c0.56,-0 1.022,0.165 1.406,0.483c0.275,0.242 0.451,0.484 0.528,0.726c0.142,-0.275 0.351,-0.517 0.626,-0.737c0.428,-0.318 0.89,-0.472 1.406,-0.472c0.626,-0 1.11,0.187 1.45,0.56c0.385,0.429 0.582,0.989 0.582,1.681Z" style="fill-rule:nonzero;"/><path d="M240.08,38.484l-4.472,0c0,0.846 0.198,1.484 0.594,1.934c0.384,0.439 0.9,0.659 1.538,0.659c0.483,-0 0.944,-0.154 1.395,-0.461c0.121,-0.077 0.252,-0.176 0.395,-0.297c0.143,-0.121 0.286,-0.264 0.451,-0.428l0,0.955c-0.176,0.132 -0.341,0.253 -0.484,0.352c-0.153,0.099 -0.296,0.176 -0.428,0.242c-0.462,0.241 -0.923,0.362 -1.384,0.362c-0.802,0 -1.472,-0.274 -2.033,-0.824c-0.604,-0.582 -0.901,-1.329 -0.901,-2.252c0,-0.868 0.275,-1.604 0.813,-2.186c0.55,-0.593 1.231,-0.89 2.033,-0.89c0.78,-0 1.406,0.286 1.867,0.857c0.407,0.516 0.616,1.175 0.616,1.977Zm-4.362,-0.67l3.439,-0c-0.088,-0.494 -0.275,-0.868 -0.56,-1.109c-0.297,-0.253 -0.649,-0.374 -1.055,-0.374c-0.451,-0 -0.835,0.143 -1.154,0.429c-0.296,0.263 -0.516,0.615 -0.67,1.054Z" style="fill-rule:nonzero;"/><path d="M241.638,34.046l0.725,-0l0,1.725l1.549,-0l0,0.714l-1.549,-0l0,3.735c0,0.308 0.055,0.528 0.176,0.659c0.11,0.132 0.307,0.198 0.582,0.198c0.165,-0 0.297,-0.022 0.418,-0.055c0.109,-0.033 0.23,-0.088 0.373,-0.143l0,0.714c-0.121,0.033 -0.253,0.077 -0.417,0.11c-0.165,0.033 -0.341,0.044 -0.506,0.044c-0.439,0 -0.78,-0.099 -1.021,-0.296c-0.275,-0.209 -0.407,-0.539 -0.407,-0.989l0,-3.977l-0.989,-0l0,-0.714l0.989,-0l0.077,-1.725Z" style="fill-rule:nonzero;"/><path d="M252.788,37.858l-0,2.769c-0,0.121 0.033,0.23 0.088,0.329c0.055,0.088 0.154,0.132 0.297,0.132l0.11,0c0.033,-0.011 0.055,-0.011 0.088,-0.022c0.044,-0.011 0.088,-0.033 0.121,-0.044c0.033,-0.011 0.054,-0.022 0.076,-0.033l-0,0.615c-0.131,0.044 -0.263,0.077 -0.395,0.099c-0.132,0.011 -0.231,0.022 -0.308,0.022c-0.373,0 -0.615,-0.099 -0.736,-0.296c-0.099,-0.121 -0.143,-0.396 -0.143,-0.802c-0.098,0.164 -0.186,0.307 -0.285,0.428c-0.099,0.121 -0.187,0.22 -0.286,0.297c-0.384,0.296 -0.824,0.45 -1.329,0.45c-0.538,0 -1,-0.154 -1.395,-0.472c-0.407,-0.341 -0.616,-0.769 -0.616,-1.286c-0,-0.648 0.33,-1.131 0.989,-1.439c0.242,-0.121 0.561,-0.219 0.967,-0.307c0.395,-0.088 0.868,-0.165 1.428,-0.242l0.527,-0.055c-0,-0.516 -0.131,-0.912 -0.384,-1.197c-0.264,-0.297 -0.648,-0.44 -1.154,-0.44c-0.186,0 -0.373,0.022 -0.56,0.077c-0.187,0.044 -0.384,0.121 -0.571,0.22c-0.099,0.055 -0.22,0.132 -0.341,0.209c-0.121,0.076 -0.263,0.186 -0.406,0.307l0,-0.901c0.626,-0.417 1.296,-0.626 2.01,-0.626c0.736,-0 1.297,0.231 1.692,0.692c0.341,0.407 0.516,0.912 0.516,1.516Zm-0.802,1.154l-0,-0.352l-0.373,0.044c-0.912,0.099 -1.56,0.22 -1.934,0.385c-0.494,0.197 -0.747,0.516 -0.747,0.966c0,0.132 0.033,0.264 0.088,0.385c0.055,0.121 0.143,0.22 0.242,0.319c0.099,0.098 0.231,0.175 0.384,0.23c0.143,0.055 0.308,0.088 0.495,0.088c0.494,-0 0.934,-0.198 1.307,-0.604c0.363,-0.407 0.538,-0.901 0.538,-1.461Z" style="fill-rule:nonzero;"/><path d="M254.425,33.046l0.801,-0l-0,5.329l2.703,-2.593l1.121,0l-2.472,2.285l2.823,3.592l-1.087,-0l-2.329,-3.065l-0.759,0.703l-0,2.362l-0.801,-0l0,-8.613Z" style="fill-rule:nonzero;"/><path d="M260.07,33.046l0.802,-0l0,5.329l2.702,-2.593l1.121,0l-2.472,2.285l2.823,3.592l-1.087,-0l-2.329,-3.065l-0.758,0.703l0,2.362l-0.802,-0l0,-8.613Z" style="fill-rule:nonzero;"/><path d="M268.462,41.802c-0.758,0 -1.418,-0.274 -1.989,-0.824c-0.604,-0.582 -0.912,-1.329 -0.912,-2.252c0,-0.868 0.264,-1.604 0.802,-2.186c0.55,-0.593 1.231,-0.89 2.033,-0.89c0.802,-0 1.472,0.297 2.021,0.89c0.538,0.582 0.813,1.307 0.813,2.175c0,0.912 -0.297,1.659 -0.879,2.252c-0.538,0.561 -1.175,0.835 -1.889,0.835Zm-0.077,-0.725c0.527,-0 0.999,-0.22 1.406,-0.659c0.395,-0.45 0.593,-1.011 0.593,-1.703c0,-0.714 -0.209,-1.285 -0.637,-1.736c-0.385,-0.406 -0.835,-0.615 -1.351,-0.615c-0.528,0 -0.978,0.209 -1.352,0.637c-0.406,0.473 -0.615,1.044 -0.615,1.725c-0,0.692 0.198,1.264 0.604,1.725c0.374,0.417 0.824,0.626 1.352,0.626Z" style="fill-rule:nonzero;"/><path d="M274.866,41.802c-0.758,0 -1.417,-0.274 -1.988,-0.824c-0.605,-0.582 -0.912,-1.329 -0.912,-2.252c0,-0.868 0.263,-1.604 0.802,-2.186c0.549,-0.593 1.23,-0.89 2.032,-0.89c0.802,-0 1.472,0.297 2.022,0.89c0.538,0.582 0.812,1.307 0.812,2.175c0,0.912 -0.296,1.659 -0.878,2.252c-0.539,0.561 -1.176,0.835 -1.89,0.835Zm-0.077,-0.725c0.527,-0 1,-0.22 1.406,-0.659c0.396,-0.45 0.594,-1.011 0.594,-1.703c0,-0.714 -0.209,-1.285 -0.638,-1.736c-0.384,-0.406 -0.835,-0.615 -1.351,-0.615c-0.527,0 -0.978,0.209 -1.351,0.637c-0.407,0.473 -0.615,1.044 -0.615,1.725c0,0.692 0.197,1.264 0.604,1.725c0.373,0.417 0.824,0.626 1.351,0.626Z" style="fill-rule:nonzero;"/><path d="M281.677,35.782l0,0.791c-0.077,-0.033 -0.143,-0.055 -0.198,-0.066c-0.055,-0.022 -0.099,-0.033 -0.132,-0.044c-0.033,-0.011 -0.077,-0.011 -0.109,-0.011c-0.044,-0.011 -0.099,-0.011 -0.165,-0.011c-0.539,0 -0.978,0.264 -1.319,0.78c-0.296,0.472 -0.439,1.011 -0.439,1.593l0,2.845l-0.791,-0l-0,-5.877l0.725,0l0.055,1.011c0.187,-0.308 0.352,-0.528 0.516,-0.66c0.33,-0.274 0.725,-0.406 1.187,-0.406c0.121,-0 0.241,-0 0.351,0.011c0.099,0.011 0.209,0.022 0.319,0.044Z" style="fill-rule:nonzero;"/><path d="M286.499,33.046l0.846,-0l0,8.613l-0.759,-0l-0.076,-0.955c-0.099,0.142 -0.209,0.274 -0.308,0.395c-0.099,0.11 -0.209,0.209 -0.308,0.286c-0.362,0.274 -0.791,0.417 -1.274,0.417c-0.758,0 -1.384,-0.296 -1.879,-0.879c-0.494,-0.582 -0.736,-1.296 -0.736,-2.131c0,-0.868 0.264,-1.604 0.78,-2.208c0.528,-0.626 1.187,-0.934 1.978,-0.934c0.329,-0 0.637,0.055 0.923,0.176c0.099,0.044 0.219,0.099 0.362,0.176c0.132,0.077 0.286,0.164 0.451,0.263l-0,-3.219Zm-0,5.768l-0,-1.692c-0.341,-0.296 -0.649,-0.505 -0.901,-0.604c-0.253,-0.099 -0.506,-0.154 -0.747,-0.154c-0.605,0 -1.088,0.253 -1.461,0.758c-0.352,0.473 -0.528,1.033 -0.528,1.659c-0,0.67 0.198,1.23 0.583,1.681c0.362,0.406 0.78,0.615 1.274,0.615c0.483,-0 0.901,-0.209 1.252,-0.637c0.352,-0.429 0.528,-0.967 0.528,-1.626Z" style="fill-rule:nonzero;"/><path d="M293.429,37.726l-0,3.933l-0.791,-0l0,-3.878c0,-0.406 -0.154,-0.747 -0.45,-1.01c-0.297,-0.275 -0.66,-0.407 -1.077,-0.407c-0.56,0 -1.033,0.231 -1.439,0.692c-0.407,0.473 -0.605,1 -0.605,1.582l-0,3.021l-0.747,-0l0,-5.877l0.693,0l0.033,1.098c0.197,-0.296 0.428,-0.549 0.692,-0.747c0.428,-0.318 0.922,-0.483 1.461,-0.483c0.626,-0 1.153,0.187 1.582,0.571c0.428,0.374 0.648,0.879 0.648,1.505Z" style="fill-rule:nonzero;"/><path d="M297.208,41.802c-0.758,0 -1.417,-0.274 -1.989,-0.824c-0.604,-0.582 -0.911,-1.329 -0.911,-2.252c0,-0.868 0.263,-1.604 0.802,-2.186c0.549,-0.593 1.23,-0.89 2.032,-0.89c0.802,-0 1.472,0.297 2.021,0.89c0.539,0.582 0.813,1.307 0.813,2.175c0,0.912 -0.296,1.659 -0.879,2.252c-0.538,0.561 -1.175,0.835 -1.889,0.835Zm-0.077,-0.725c0.527,-0 1,-0.22 1.406,-0.659c0.396,-0.45 0.593,-1.011 0.593,-1.703c0,-0.714 -0.208,-1.285 -0.637,-1.736c-0.384,-0.406 -0.835,-0.615 -1.351,-0.615c-0.527,0 -0.978,0.209 -1.351,0.637c-0.407,0.473 -0.616,1.044 -0.616,1.725c-0,0.692 0.198,1.264 0.605,1.725c0.373,0.417 0.824,0.626 1.351,0.626Z" style="fill-rule:nonzero;"/><path d="M301.558,34.046l0.725,-0l-0,1.725l1.549,-0l0,0.714l-1.549,-0l-0,3.735c-0,0.308 0.055,0.528 0.176,0.659c0.11,0.132 0.307,0.198 0.582,0.198c0.165,-0 0.297,-0.022 0.417,-0.055c0.11,-0.033 0.231,-0.088 0.374,-0.143l0,0.714c-0.121,0.033 -0.253,0.077 -0.417,0.11c-0.165,0.033 -0.341,0.044 -0.506,0.044c-0.439,0 -0.78,-0.099 -1.022,-0.296c-0.274,-0.209 -0.406,-0.539 -0.406,-0.989l-0,-3.977l-0.989,-0l0,-0.714l0.989,-0l0.077,-1.725Z" style="fill-rule:nonzero;"/><path d="M309.786,38.484l-4.471,0c0,0.846 0.198,1.484 0.593,1.934c0.385,0.439 0.901,0.659 1.538,0.659c0.484,-0 0.945,-0.154 1.395,-0.461c0.121,-0.077 0.253,-0.176 0.396,-0.297c0.143,-0.121 0.286,-0.264 0.45,-0.428l0,0.955c-0.175,0.132 -0.34,0.253 -0.483,0.352c-0.154,0.099 -0.297,0.176 -0.428,0.242c-0.462,0.241 -0.923,0.362 -1.385,0.362c-0.802,0 -1.472,-0.274 -2.032,-0.824c-0.604,-0.582 -0.901,-1.329 -0.901,-2.252c0,-0.868 0.275,-1.604 0.813,-2.186c0.549,-0.593 1.23,-0.89 2.032,-0.89c0.78,-0 1.407,0.286 1.868,0.857c0.407,0.516 0.615,1.175 0.615,1.977Zm-4.361,-0.67l3.438,-0c-0.087,-0.494 -0.274,-0.868 -0.56,-1.109c-0.296,-0.253 -0.648,-0.374 -1.054,-0.374c-0.451,-0 -0.835,0.143 -1.154,0.429c-0.297,0.263 -0.516,0.615 -0.67,1.054Z" style="fill-rule:nonzero;"/><path d="M315.761,37.726l-0,3.933l-0.791,-0l0,-3.878c0,-0.406 -0.154,-0.747 -0.45,-1.01c-0.297,-0.275 -0.659,-0.407 -1.077,-0.407c-0.56,0 -1.033,0.231 -1.439,0.692c-0.407,0.473 -0.604,1 -0.604,1.582l-0,3.021l-0.747,-0l0,-5.877l0.692,0l0.033,1.098c0.197,-0.296 0.428,-0.549 0.692,-0.747c0.428,-0.318 0.923,-0.483 1.461,-0.483c0.626,-0 1.153,0.187 1.582,0.571c0.428,0.374 0.648,0.879 0.648,1.505Z" style="fill-rule:nonzero;"/><path d="M169.528,11.348l-0,8.064c-0,0.329 -0.066,0.549 -0.176,0.637c-0.132,0.088 -0.33,0.132 -0.593,0.132l-1.714,-0c-0.264,-0 -0.44,-0.022 -0.528,-0.088c-0.153,-0.11 -0.241,-0.352 -0.241,-0.681l0,-13.843c0,-0.263 0.022,-0.439 0.088,-0.527c0.11,-0.154 0.351,-0.242 0.681,-0.242l1.955,-0c0.22,-0 0.418,0.066 0.572,0.22c0.087,0.066 0.153,0.176 0.219,0.308l2.373,4.746c0.022,0.066 0.066,0.153 0.132,0.241c0.044,0.088 0.088,0.132 0.132,0.132c0.066,-0 0.11,-0.044 0.176,-0.154c0.044,-0.11 0.066,-0.175 0.066,-0.197l2.373,-4.702c0.109,-0.22 0.241,-0.374 0.373,-0.462c0.132,-0.088 0.286,-0.132 0.462,-0.132l1.845,-0c0.33,-0 0.549,0.066 0.637,0.198c0.088,0.11 0.132,0.308 0.132,0.571l0,13.843c0,0.329 -0.066,0.549 -0.176,0.637c-0.131,0.088 -0.329,0.132 -0.593,0.132l-1.714,-0c-0.329,-0 -0.549,-0.066 -0.637,-0.176c-0.088,-0.132 -0.132,-0.33 -0.132,-0.593l0,-7.822c-0.022,-0.088 -0.066,-0.132 -0.088,-0.132l-0.065,0.044l-1.714,4.131c-0.088,0.241 -0.176,0.395 -0.264,0.461c-0.088,0.066 -0.198,0.11 -0.33,0.11l-0.747,0c-0.241,0 -0.439,-0.198 -0.593,-0.571l-1.758,-4.307c-0.065,0.022 -0.109,0.022 -0.153,0.022Z" style="fill-rule:nonzero;"/><path d="M188.048,11.26l0,8.152c0,0.241 -0.022,0.395 -0.066,0.483c-0.11,0.198 -0.308,0.286 -0.594,0.286l-1.845,-0c-0.286,-0 -0.418,-0.11 -0.418,-0.352c0,-0.11 -0.066,-0.154 -0.175,-0.154c-0.11,0.044 -0.176,0.088 -0.198,0.11c-0.198,0.176 -0.462,0.308 -0.791,0.418c-0.352,0.11 -0.681,0.153 -1.011,0.153c-0.857,-0 -1.538,-0.307 -2.087,-0.922c-0.593,-0.681 -0.901,-1.67 -0.901,-2.923c0,-1.494 0.483,-2.658 1.45,-3.493c0.571,-0.484 1.538,-0.967 2.878,-1.472l0.55,-0.198c0.154,-0.066 0.219,-0.176 0.219,-0.352c0,-0.307 -0.131,-0.527 -0.395,-0.637c-0.286,-0.11 -0.615,-0.176 -1.011,-0.176c-0.417,0 -0.725,0.022 -0.945,0.066c-0.241,0.066 -0.461,0.132 -0.637,0.176c-0.197,0.044 -0.329,0.088 -0.439,0.132c-0.286,0.11 -0.462,0.154 -0.527,0.154c-0.286,-0 -0.418,-0.132 -0.418,-0.396l-0,-1.362c-0,-0.286 0.154,-0.505 0.483,-0.703c0.55,-0.308 1.451,-0.461 2.747,-0.461c1.67,0 2.834,0.373 3.471,1.142c0.44,0.527 0.66,1.296 0.66,2.329Zm-2.989,5.625l0,-2.812c0,-0.066 -0.022,-0.132 -0.087,-0.154c-0.066,-0.022 -0.132,-0.022 -0.22,0.044l-0.374,0.241c-0.439,0.286 -0.747,0.55 -0.922,0.791c-0.242,0.352 -0.374,0.791 -0.374,1.341c0,0.373 0.088,0.703 0.242,0.966c0.153,0.242 0.395,0.374 0.725,0.374c0.285,-0 0.527,-0.088 0.725,-0.242c0.198,-0.154 0.285,-0.351 0.285,-0.549Z" style="fill-rule:nonzero;"/><path d="M192.683,12.447l-0,3.251c-0,0.506 0.066,0.901 0.22,1.165c0.263,0.461 0.747,0.703 1.45,0.703l0.989,-0.11c0.109,-0.022 0.241,-0.044 0.395,-0.066c0.154,-0.044 0.286,-0.066 0.374,-0.066c0.153,0 0.263,0.044 0.329,0.132c0.044,0.088 0.066,0.198 0.066,0.308l-0,1.758c-0,0.263 -0.088,0.439 -0.285,0.549c-0.33,0.198 -1.033,0.285 -2.088,0.285c-1.955,-0 -3.252,-0.549 -3.911,-1.669c-0.351,-0.594 -0.527,-1.538 -0.527,-2.813l0,-3.779c0,-1.296 0.242,-2.263 0.703,-2.9c0.681,-0.945 1.933,-1.406 3.735,-1.406c1.055,0 1.758,0.087 2.088,0.285c0.197,0.11 0.285,0.286 0.285,0.549l-0,1.758c-0,0.286 -0.132,0.44 -0.395,0.44c-0.242,0 -0.55,-0.044 -0.879,-0.11c-0.352,-0.088 -0.637,-0.132 -0.879,-0.132c-0.681,0 -1.143,0.198 -1.406,0.615c-0.176,0.286 -0.264,0.703 -0.264,1.253Z" style="fill-rule:nonzero;"/><path d="M204.174,7.964l2.395,-0c0.264,-0 0.396,0.11 0.396,0.308c-0,0.066 -0.044,0.154 -0.11,0.264l-2.812,3.449c-0.11,0.154 -0.132,0.286 -0.066,0.418l3.01,6.943c0.088,0.198 0.132,0.373 0.132,0.483c0,0.242 -0.132,0.352 -0.396,0.352l-2.175,-0c-0.198,-0 -0.374,-0.11 -0.527,-0.308c-0.066,-0.088 -0.154,-0.286 -0.308,-0.615l-1.78,-4.351c-0.044,-0.087 -0.088,-0.131 -0.154,-0.131c-0.044,0 -0.087,0.022 -0.131,0.087l-0.462,0.594c-0.11,0.11 -0.154,0.263 -0.154,0.439l-0,3.669c-0,0.264 -0.044,0.44 -0.153,0.506c-0.11,0.066 -0.264,0.11 -0.462,0.11l-1.758,-0c-0.263,-0 -0.439,-0.044 -0.505,-0.154c-0.066,-0.11 -0.11,-0.264 -0.11,-0.462l0,-14.149c0,-0.264 0.066,-0.44 0.176,-0.506c0.11,-0.066 0.242,-0.11 0.439,-0.11l1.758,-0c0.264,-0 0.44,0.066 0.506,0.176c0.065,0.11 0.109,0.242 0.109,0.44l-0,5.712c-0,0.11 0.044,0.154 0.11,0.154c0.022,0 0.088,-0.044 0.154,-0.11l2.219,-2.878c0.11,-0.132 0.176,-0.198 0.198,-0.22c0.11,-0.066 0.264,-0.11 0.461,-0.11Z" style="fill-rule:nonzero;"/><path d="M214.52,4.8l9.734,-0c0.176,-0 0.308,0.066 0.373,0.176c0.066,0.11 0.088,0.22 0.088,0.352l-0,1.955c-0,0.308 -0.153,0.462 -0.461,0.462l-2.856,-0c-0.264,-0 -0.396,0.131 -0.396,0.395l-0,11.272c-0,0.263 -0.022,0.439 -0.088,0.527c-0.11,0.154 -0.351,0.242 -0.681,0.242l-1.714,-0c-0.329,-0 -0.549,-0.066 -0.637,-0.176c-0.088,-0.132 -0.132,-0.33 -0.132,-0.593l0,-11.272c0,-0.264 -0.132,-0.395 -0.395,-0.395l-2.769,-0c-0.373,-0 -0.549,-0.154 -0.549,-0.44l0,-2.087c0,-0.286 0.154,-0.418 0.483,-0.418Z" style="fill-rule:nonzero;"/><path d="M225.703,19.565l0,-14.149c0,-0.264 0.065,-0.44 0.175,-0.506c0.11,-0.066 0.242,-0.11 0.44,-0.11l1.757,-0c0.264,-0 0.44,0.066 0.506,0.176c0.066,0.11 0.11,0.242 0.11,0.44l-0,3.032c-0,0.066 0.066,0.132 0.197,0.153c0.154,0 0.418,-0.131 0.747,-0.395c0.33,-0.286 0.77,-0.417 1.341,-0.417c0.769,0 1.406,0.241 1.911,0.703c0.594,0.571 0.901,1.428 0.901,2.57l-0,8.503c-0,0.264 -0.044,0.44 -0.154,0.506c-0.109,0.066 -0.263,0.11 -0.461,0.11l-1.758,-0c-0.263,-0 -0.439,-0.044 -0.505,-0.154c-0.066,-0.11 -0.11,-0.264 -0.11,-0.462l0,-7.865c0,-0.286 -0.088,-0.528 -0.264,-0.726c-0.197,-0.197 -0.439,-0.307 -0.769,-0.307c-0.461,-0 -0.791,0.198 -0.944,0.615c-0.088,0.242 -0.132,0.571 -0.132,1.011l-0,7.272c-0,0.264 -0.044,0.44 -0.154,0.506c-0.11,0.066 -0.264,0.11 -0.462,0.11l-1.757,-0c-0.264,-0 -0.44,-0.044 -0.506,-0.154c-0.066,-0.11 -0.109,-0.264 -0.109,-0.462Z" style="fill-rule:nonzero;"/><path d="M243.213,14.885l-4.416,0c-0.11,0 -0.176,0.022 -0.198,0.088c-0.044,0.044 -0.066,0.11 -0.066,0.176l0,0.703c0,0.593 0.198,1.033 0.571,1.362c0.374,0.308 0.901,0.462 1.582,0.462c0.462,-0 0.901,-0.022 1.275,-0.088c0.373,-0.066 0.791,-0.176 1.208,-0.33c0.374,-0.109 0.549,-0 0.549,0.352l0,1.802c0,0.11 -0.022,0.219 -0.065,0.285c-0.066,0.066 -0.176,0.132 -0.352,0.198c-0.483,0.176 -0.967,0.308 -1.472,0.374c-0.505,0.066 -0.945,0.087 -1.34,0.087c-1.275,-0 -2.307,-0.241 -3.098,-0.703c-1.231,-0.725 -1.846,-1.977 -1.846,-3.735l-0,-3.713c-0,-1.165 0.22,-2.109 0.681,-2.813c0.681,-1.076 1.846,-1.603 3.494,-1.603c0.988,0 1.823,0.197 2.46,0.615c1.099,0.703 1.648,1.977 1.648,3.801l0,2.065c0,0.264 -0.044,0.44 -0.153,0.506c-0.11,0.066 -0.264,0.109 -0.462,0.109Zm-4.46,-2.416l1.867,-0c0.088,-0 0.154,-0.066 0.22,-0.22l-0,-0.484c-0,-0.417 -0.044,-0.747 -0.154,-0.966c-0.197,-0.396 -0.505,-0.594 -0.966,-0.594c-0.374,-0 -0.682,0.132 -0.879,0.396c-0.198,0.242 -0.308,0.637 -0.308,1.164l0,0.484c0,0.154 0.066,0.22 0.22,0.22Z" style="fill-rule:nonzero;"/><path d="M252.285,19.412l0,-13.843c0,-0.263 0.022,-0.439 0.088,-0.527c0.109,-0.154 0.351,-0.242 0.681,-0.242l1.713,-0c0.33,-0 0.55,0.066 0.638,0.198c0.088,0.11 0.132,0.308 0.132,0.571l0,4.175l3.098,-4.438c0.241,-0.33 0.527,-0.506 0.9,-0.506l2.439,-0c0.286,-0 0.418,0.132 0.418,0.396c-0,0.11 -0.022,0.176 -0.044,0.242c-0.022,0.065 -0.088,0.131 -0.154,0.219l-3.472,4.724l4.197,8.613c0.154,0.286 0.22,0.506 0.22,0.703c0,0.33 -0.176,0.484 -0.528,0.484l-2.263,-0c-0.197,-0 -0.373,-0.066 -0.505,-0.198c-0.132,-0.154 -0.242,-0.33 -0.352,-0.571l-2.988,-6.109l-0.966,1.319l0,4.79c0,0.329 -0.066,0.549 -0.176,0.637c-0.132,0.088 -0.33,0.132 -0.594,0.132l-1.713,-0c-0.33,-0 -0.55,-0.066 -0.638,-0.176c-0.087,-0.132 -0.131,-0.33 -0.131,-0.593Z" style="fill-rule:nonzero;"/><path d="M264.236,19.565l-0,-10.985c-0,-0.264 0.065,-0.44 0.175,-0.506c0.11,-0.066 0.242,-0.11 0.44,-0.11l1.955,-0c0.11,-0 0.22,0.044 0.308,0.132c0.066,0.066 0.11,0.176 0.11,0.286c-0,0.154 0.044,0.219 0.154,0.219c0.022,0 0.087,-0.043 0.197,-0.109c0.22,-0.198 0.44,-0.33 0.659,-0.44c0.374,-0.176 0.813,-0.263 1.275,-0.263c0.769,0 1.406,0.241 1.911,0.703c0.594,0.571 0.901,1.428 0.901,2.57l0,8.503c0,0.264 -0.044,0.44 -0.154,0.506c-0.109,0.066 -0.263,0.11 -0.461,0.11l-1.758,-0c-0.263,-0 -0.439,-0.044 -0.505,-0.154c-0.066,-0.11 -0.11,-0.264 -0.11,-0.462l0,-7.865c0,-0.286 -0.088,-0.528 -0.264,-0.726c-0.197,-0.197 -0.439,-0.307 -0.769,-0.307c-0.461,-0 -0.791,0.198 -0.944,0.615c-0.088,0.242 -0.132,0.571 -0.132,1.011l-0,7.272c-0,0.264 -0.044,0.44 -0.154,0.506c-0.11,0.066 -0.264,0.11 -0.461,0.11l-1.758,-0c-0.264,-0 -0.44,-0.044 -0.506,-0.154c-0.065,-0.11 -0.109,-0.264 -0.109,-0.462Z" style="fill-rule:nonzero;"/><path d="M277.066,5.086l0,1.34c0,0.198 -0.044,0.352 -0.11,0.462c-0.066,0.11 -0.241,0.153 -0.505,0.153l-1.758,-0c-0.263,-0 -0.439,-0.043 -0.505,-0.153c-0.066,-0.11 -0.11,-0.264 -0.11,-0.462l0,-1.34c0,-0.198 0.044,-0.33 0.11,-0.439c0.066,-0.11 0.242,-0.176 0.505,-0.176l1.758,0c0.198,0 0.352,0.044 0.461,0.11c0.11,0.066 0.154,0.241 0.154,0.505Zm0,3.494l0,10.985c0,0.264 -0.044,0.44 -0.154,0.506c-0.109,0.066 -0.263,0.11 -0.461,0.11l-1.758,-0c-0.263,-0 -0.439,-0.044 -0.505,-0.154c-0.066,-0.11 -0.11,-0.264 -0.11,-0.462l0,-10.985c0,-0.264 0.066,-0.44 0.176,-0.506c0.11,-0.066 0.241,-0.11 0.439,-0.11l1.758,-0c0.198,-0 0.352,0.044 0.461,0.11c0.11,0.066 0.154,0.242 0.154,0.506Z" style="fill-rule:nonzero;"/><path d="M279.461,19.565l-0,-8.92c-0,-0.154 -0.088,-0.242 -0.242,-0.242l-0.373,0c-0.264,0 -0.44,-0.044 -0.505,-0.154c-0.066,-0.109 -0.11,-0.263 -0.11,-0.461l-0,-1.033c-0,-0.197 0.044,-0.329 0.11,-0.439c0.065,-0.11 0.241,-0.176 0.505,-0.176l0.527,0l0.088,-0.088c-0,-0.066 -0.044,-0.154 -0.11,-0.285c-0.066,-0.132 -0.132,-0.264 -0.176,-0.374c-0.044,-0.132 -0.065,-0.308 -0.065,-0.527c-0,-0.33 0.087,-0.659 0.285,-0.945c0.176,-0.308 0.418,-0.549 0.747,-0.703c0.308,-0.154 0.637,-0.264 1.011,-0.286c0.351,-0.044 0.659,-0.066 0.945,-0.066c0.769,-0 1.296,0.066 1.538,0.22c0.154,0.088 0.219,0.242 0.219,0.461l0,1.363c0,0.219 -0.087,0.329 -0.263,0.329l-0.352,-0.044l-0.417,-0.044c-0.242,0 -0.418,0.066 -0.506,0.198c-0.087,0.11 -0.131,0.22 -0.131,0.33c0,0.307 0.175,0.461 0.549,0.461l0.505,0c0.198,0 0.352,0.044 0.462,0.11c0.11,0.066 0.153,0.242 0.153,0.505l0,1.033c0,0.264 -0.043,0.439 -0.153,0.505c-0.11,0.066 -0.264,0.11 -0.462,0.11l-0.549,0c-0.154,0 -0.242,0.088 -0.242,0.242l0,8.92c0,0.198 -0.044,0.352 -0.11,0.462c-0.066,0.11 -0.241,0.154 -0.505,0.154l-1.758,-0c-0.263,-0 -0.439,-0.044 -0.505,-0.154c-0.066,-0.11 -0.11,-0.264 -0.11,-0.462Z" style="fill-rule:nonzero;"/><path d="M292.621,14.885l-4.416,0c-0.11,0 -0.176,0.022 -0.198,0.088c-0.044,0.044 -0.066,0.11 -0.066,0.176l0,0.703c0,0.593 0.198,1.033 0.571,1.362c0.374,0.308 0.901,0.462 1.582,0.462c0.462,-0 0.901,-0.022 1.275,-0.088c0.373,-0.066 0.791,-0.176 1.208,-0.33c0.374,-0.109 0.549,-0 0.549,0.352l0,1.802c0,0.11 -0.022,0.219 -0.066,0.285c-0.066,0.066 -0.175,0.132 -0.351,0.198c-0.484,0.176 -0.967,0.308 -1.472,0.374c-0.506,0.066 -0.945,0.087 -1.341,0.087c-1.274,-0 -2.307,-0.241 -3.098,-0.703c-1.23,-0.725 -1.845,-1.977 -1.845,-3.735l0,-3.713c0,-1.165 0.219,-2.109 0.681,-2.813c0.681,-1.076 1.846,-1.603 3.493,-1.603c0.989,0 1.824,0.197 2.461,0.615c1.099,0.703 1.648,1.977 1.648,3.801l-0,2.065c-0,0.264 -0.044,0.44 -0.154,0.506c-0.11,0.066 -0.263,0.109 -0.461,0.109Zm-4.46,-2.416l1.867,-0c0.088,-0 0.154,-0.066 0.22,-0.22l-0,-0.484c-0,-0.417 -0.044,-0.747 -0.154,-0.966c-0.198,-0.396 -0.505,-0.594 -0.967,-0.594c-0.373,-0 -0.681,0.132 -0.878,0.396c-0.198,0.242 -0.308,0.637 -0.308,1.164l0,0.484c0,0.154 0.066,0.22 0.22,0.22Z" style="fill-rule:nonzero;"/><path d="M0.143,190.791l470.076,-0" style="fill:none;stroke:#000;stroke-width:0.46px;"/><path d="M0.143,185.84l470.076,-0" style="fill:none;stroke:#000;stroke-width:0.46px;"/><path d="M0.143,180.888l470.076,0" style="fill:none;stroke:#000;stroke-width:0.46px;"/><path d="M0.143,175.937l470.076,0" style="fill:none;stroke:#000;stroke-width:0.46px;"/><path d="M0.143,170.986l470.076,-0" style="fill:none;stroke:#000;stroke-width:0.46px;"/><path d="M14.215,190.134l0.753,3.664c0.039,0.218 0.059,0.416 0.059,0.614c0,1.941 -1.98,3.565 -4.119,3.565c-0.654,-0 -1.288,-0.159 -1.882,-0.456c1.525,-0.158 2.674,-1.089 2.674,-2.456c-0,-1.208 -0.99,-2.475 -2.258,-2.475c-1.446,-0 -2.436,1.109 -2.436,2.555c0,2.02 1.644,3.347 3.624,3.347c2.654,0 4.912,-1.723 4.912,-4.199c-0,-0.555 -0.871,-4.476 -0.851,-4.338c2.119,-1.029 3.565,-2.852 3.565,-4.773c0,-2.634 -2.12,-4.654 -4.754,-4.654c-0.039,0 -0.317,0.02 -0.792,0.059l-0.871,-4.179c2.951,-2.495 4.297,-5.149 4.297,-8.061c-0,-2.238 -0.891,-4.614 -2.693,-7.11c-2.04,1.644 -3.209,4.932 -3.209,8.437c0,1.248 0.159,2.456 0.436,3.605c-4.516,3.783 -6.774,7.269 -6.774,10.458c-0,3.743 3.863,6.852 8.061,6.852c0.931,-0 1.624,-0.138 2.258,-0.455Zm-0.059,-26.025c0.653,0.673 0.99,1.466 0.99,2.397c-0,1.921 -1.366,4.08 -4.04,6.456c-0.139,-0.574 -0.179,-1.208 -0.179,-1.901c0,-3.327 1.228,-6.992 2.872,-6.992c0.139,0 0.258,0.02 0.357,0.04Zm0.416,25.213l-1.406,-6.615c0.277,-0.02 0.435,-0.04 0.495,-0.04c1.703,-0 2.891,1.604 2.891,3.248c0,1.307 -0.693,2.456 -1.98,3.407Zm-1.902,-6.536l1.426,6.813c-0.693,0.376 -1.465,0.535 -2.396,0.535c-3.209,0 -5.981,-2.397 -5.981,-5.308c-0,-2.634 1.96,-5.348 5.664,-8.121l0.832,3.962c-2.06,0.435 -3.803,2.178 -3.803,4.139c-0,1.664 1.189,2.832 2.971,3.11c-1.089,-0.674 -1.624,-1.526 -1.624,-2.536c-0,-1.366 1.268,-2.376 2.911,-2.594Z" style="fill-rule:nonzero;"/><path d="M0.143,270.014l470.076,0" style="fill:none;stroke:#000;stroke-width:0.46px;"/><path d="M0.143,265.063l470.076,0" style="fill:none;stroke:#000;stroke-width:0.46px;"/><path d="M0.143,260.111l470.076,-0" style="fill:none;stroke:#000;stroke-width:0.46px;"/><path d="M0.143,255.16l470.076,0" style="fill:none;stroke:#000;stroke-width:0.46px;"/><path d="M0.143,250.208l470.076,-0" style="fill:none;stroke:#000;stroke-width:0.46px;"/><path d="M14.215,269.356l0.753,3.665c0.039,0.217 0.059,0.415 0.059,0.613c0,1.941 -1.98,3.566 -4.119,3.566c-0.654,-0 -1.288,-0.159 -1.882,-0.456c1.525,-0.158 2.674,-1.089 2.674,-2.456c-0,-1.208 -0.99,-2.476 -2.258,-2.476c-1.446,-0 -2.436,1.109 -2.436,2.555c0,2.02 1.644,3.347 3.624,3.347c2.654,0 4.912,-1.723 4.912,-4.198c-0,-0.555 -0.871,-4.476 -0.851,-4.338c2.119,-1.03 3.565,-2.852 3.565,-4.773c0,-2.634 -2.12,-4.654 -4.754,-4.654c-0.039,0 -0.317,0.02 -0.792,0.059l-0.871,-4.179c2.951,-2.495 4.297,-5.149 4.297,-8.061c-0,-2.238 -0.891,-4.615 -2.693,-7.11c-2.04,1.644 -3.209,4.932 -3.209,8.437c0,1.248 0.159,2.456 0.436,3.605c-4.516,3.783 -6.774,7.269 -6.774,10.457c-0,3.744 3.863,6.853 8.061,6.853c0.931,-0 1.624,-0.139 2.258,-0.456Zm-0.059,-26.024c0.653,0.673 0.99,1.465 0.99,2.396c-0,1.921 -1.366,4.08 -4.04,6.457c-0.139,-0.574 -0.179,-1.208 -0.179,-1.901c0,-3.328 1.228,-6.992 2.872,-6.992c0.139,0 0.258,0.02 0.357,0.04Zm0.416,25.212l-1.406,-6.615c0.277,-0.019 0.435,-0.039 0.495,-0.039c1.703,-0 2.891,1.604 2.891,3.248c0,1.307 -0.693,2.456 -1.98,3.406Zm-1.902,-6.535l1.426,6.813c-0.693,0.376 -1.465,0.534 -2.396,0.534c-3.209,0 -5.981,-2.396 -5.981,-5.307c-0,-2.635 1.96,-5.348 5.664,-8.121l0.832,3.961c-2.06,0.436 -3.803,2.179 -3.803,4.14c-0,1.663 1.189,2.832 2.971,3.109c-1.089,-0.673 -1.624,-1.525 -1.624,-2.535c-0,-1.366 1.268,-2.377 2.911,-2.594Z" style="fill-rule:nonzero;"/><path d="M0.143,349.082l470.076,0" style="fill:none;stroke:#000;stroke-width:0.46px;"/><path d="M0.143,344.131l470.076,-0" style="fill:none;stroke:#000;stroke-width:0.46px;"/><path d="M0.143,339.179l470.076,0" style="fill:none;stroke:#000;stroke-width:0.46px;"/><path d="M0.143,334.228l470.076,-0" style="fill:none;stroke:#000;stroke-width:0.46px;"/><path d="M0.143,329.276l470.076,0" style="fill:none;stroke:#000;stroke-width:0.46px;"/><path d="M14.215,348.424l0.753,3.665c0.039,0.217 0.059,0.415 0.059,0.613c0,1.941 -1.98,3.566 -4.119,3.566c-0.654,0 -1.288,-0.159 -1.882,-0.456c1.525,-0.158 2.674,-1.089 2.674,-2.456c-0,-1.208 -0.99,-2.476 -2.258,-2.476c-1.446,0 -2.436,1.109 -2.436,2.555c0,2.02 1.644,3.347 3.624,3.347c2.654,-0 4.912,-1.723 4.912,-4.198c-0,-0.555 -0.871,-4.476 -0.851,-4.338c2.119,-1.03 3.565,-2.852 3.565,-4.773c0,-2.634 -2.12,-4.654 -4.754,-4.654c-0.039,0 -0.317,0.02 -0.792,0.059l-0.871,-4.179c2.951,-2.495 4.297,-5.149 4.297,-8.061c-0,-2.238 -0.891,-4.615 -2.693,-7.11c-2.04,1.644 -3.209,4.932 -3.209,8.437c0,1.248 0.159,2.456 0.436,3.605c-4.516,3.783 -6.774,7.269 -6.774,10.457c-0,3.744 3.863,6.853 8.061,6.853c0.931,0 1.624,-0.139 2.258,-0.456Zm-0.059,-26.024c0.653,0.673 0.99,1.465 0.99,2.396c-0,1.921 -1.366,4.08 -4.04,6.457c-0.139,-0.574 -0.179,-1.208 -0.179,-1.901c0,-3.328 1.228,-6.992 2.872,-6.992c0.139,0 0.258,0.02 0.357,0.04Zm0.416,25.212l-1.406,-6.615c0.277,-0.019 0.435,-0.039 0.495,-0.039c1.703,-0 2.891,1.604 2.891,3.248c0,1.307 -0.693,2.456 -1.98,3.406Zm-1.902,-6.535l1.426,6.813c-0.693,0.376 -1.465,0.534 -2.396,0.534c-3.209,-0 -5.981,-2.396 -5.981,-5.307c-0,-2.635 1.96,-5.348 5.664,-8.121l0.832,3.961c-2.06,0.436 -3.803,2.179 -3.803,4.14c-0,1.663 1.189,2.832 2.971,3.109c-1.089,-0.673 -1.624,-1.525 -1.624,-2.535c-0,-1.366 1.268,-2.377 2.911,-2.594Z" style="fill-rule:nonzero;"/><path d="M0.143,484.627l470.076,-0" style="fill:none;stroke:#000;stroke-width:0.46px;"/><path d="M0.143,479.676l470.076,-0" style="fill:none;stroke:#000;stroke-width:0.46px;"/><path d="M0.143,474.724l470.076,0" style="fill:none;stroke:#000;stroke-width:0.46px;"/><path d="M0.143,469.773l470.076,0" style="fill:none;stroke:#000;stroke-width:0.46px;"/><path d="M0.143,464.821l470.076,-0" style="fill:none;stroke:#000;stroke-width:0.46px;"/><path d="M14.215,483.97l0.753,3.664c0.039,0.217 0.059,0.416 0.059,0.614c0,1.941 -1.98,3.565 -4.119,3.565c-0.654,-0 -1.288,-0.159 -1.882,-0.456c1.525,-0.158 2.674,-1.089 2.674,-2.456c-0,-1.208 -0.99,-2.476 -2.258,-2.476c-1.446,0 -2.436,1.11 -2.436,2.555c0,2.021 1.644,3.348 3.624,3.348c2.654,0 4.912,-1.724 4.912,-4.199c-0,-0.555 -0.871,-4.476 -0.851,-4.338c2.119,-1.03 3.565,-2.852 3.565,-4.773c0,-2.634 -2.12,-4.654 -4.754,-4.654c-0.039,0 -0.317,0.02 -0.792,0.059l-0.871,-4.179c2.951,-2.495 4.297,-5.149 4.297,-8.061c-0,-2.238 -0.891,-4.614 -2.693,-7.11c-2.04,1.644 -3.209,4.932 -3.209,8.437c0,1.248 0.159,2.456 0.436,3.605c-4.516,3.783 -6.774,7.269 -6.774,10.457c-0,3.744 3.863,6.853 8.061,6.853c0.931,0 1.624,-0.139 2.258,-0.455Zm-0.059,-26.025c0.653,0.673 0.99,1.466 0.99,2.396c-0,1.922 -1.366,4.08 -4.04,6.457c-0.139,-0.574 -0.179,-1.208 -0.179,-1.901c0,-3.328 1.228,-6.992 2.872,-6.992c0.139,-0 0.258,0.02 0.357,0.04Zm0.416,25.213l-1.406,-6.616c0.277,-0.019 0.435,-0.039 0.495,-0.039c1.703,0 2.891,1.604 2.891,3.248c0,1.307 -0.693,2.456 -1.98,3.407Zm-1.902,-6.536l1.426,6.813c-0.693,0.376 -1.465,0.535 -2.396,0.535c-3.209,0 -5.981,-2.397 -5.981,-5.308c-0,-2.634 1.96,-5.348 5.664,-8.121l0.832,3.961c-2.06,0.436 -3.803,2.179 -3.803,4.14c-0,1.664 1.189,2.832 2.971,3.109c-1.089,-0.673 -1.624,-1.525 -1.624,-2.535c-0,-1.366 1.268,-2.376 2.911,-2.594Z" style="fill-rule:nonzero;"/><path d="M62.191,116.52l10.522,-0" style="fill:none;stroke:#000;stroke-width:0.77px;"/><path d="M70.701,115.746l-0,-16.556" style="fill:none;stroke:#000;stroke-width:0.46px;"/><path d="M66.266,119.051c2.04,-0 4.555,-1.703 4.555,-3.446c-0,-1.05 -0.931,-1.723 -2.258,-1.723c-2,-0 -4.515,1.664 -4.515,3.446c-0,1.089 0.97,1.723 2.218,1.723Z" style="fill-rule:nonzero;"/><path d="M94.684,110.795l-0,-16.556" style="fill:none;stroke:#000;stroke-width:0.46px;"/><path d="M90.249,114.1c2.04,0 4.556,-1.704 4.556,-3.446c0,-1.05 -0.931,-1.724 -2.258,-1.724c-2.001,-0 -4.516,1.664 -4.516,3.447c-0,1.089 0.97,1.723 2.218,1.723Z" style="fill-rule:nonzero;"/><path d="M118.823,105.843l-0,-16.556" style="fill:none;stroke:#000;stroke-width:0.46px;"/><path d="M114.387,109.148c2.04,0 4.556,-1.703 4.556,-3.446c0,-1.05 -0.931,-1.723 -2.258,-1.723c-2.001,0 -4.516,1.664 -4.516,3.446c-0,1.09 0.971,1.723 2.218,1.723Z" style="fill-rule:nonzero;"/><path d="M142.806,110.795l-0,-16.556" style="fill:none;stroke:#000;stroke-width:0.46px;"/><path d="M138.371,114.1c2.04,0 4.555,-1.704 4.555,-3.446c-0,-1.05 -0.931,-1.724 -2.258,-1.724c-2,-0 -4.515,1.664 -4.515,3.447c-0,1.089 0.97,1.723 2.218,1.723Z" style="fill-rule:nonzero;"/><path d="M174.062,105.843l-0,-16.556" style="fill:none;stroke:#000;stroke-width:0.46px;"/><path d="M169.627,109.148c2.04,0 4.555,-1.703 4.555,-3.446c0,-1.05 -0.931,-1.723 -2.258,-1.723c-2,0 -4.516,1.664 -4.516,3.446c0,1.09 0.971,1.723 2.219,1.723Z" style="fill-rule:nonzero;"/><path d="M191.547,99.964l-0,16.556" style="fill:none;stroke:#000;stroke-width:0.46px;"/><path d="M193.61,101.721c2.04,0 4.555,-1.703 4.555,-3.446c-0,-1.05 -0.93,-1.723 -2.257,-1.723c-2.001,0 -4.516,1.664 -4.516,3.446c-0,1.089 0.97,1.723 2.218,1.723Z" style="fill-rule:nonzero;"/><path d="M222.029,105.843l0,-16.556" style="fill:none;stroke:#000;stroke-width:0.46px;"/><path d="M217.594,109.148c2.04,0 4.555,-1.703 4.555,-3.446c0,-1.05 -0.931,-1.723 -2.258,-1.723c-2,0 -4.516,1.664 -4.516,3.446c0,1.09 0.971,1.723 2.219,1.723Z" style="fill-rule:nonzero;"/><path d="M246.167,110.795l0,-16.556" style="fill:none;stroke:#000;stroke-width:0.46px;"/><path d="M241.732,114.1c2.04,0 4.555,-1.704 4.555,-3.446c0,-1.05 -0.931,-1.724 -2.258,-1.724c-2,-0 -4.515,1.664 -4.515,3.447c0,1.089 0.97,1.723 2.218,1.723Z" style="fill-rule:nonzero;"/><path d="M277.423,113.271l0,-16.557" style="fill:none;stroke:#000;stroke-width:0.46px;"/><path d="M272.988,116.575c2.04,0 4.555,-1.703 4.555,-3.446c-0,-1.049 -0.931,-1.723 -2.258,-1.723c-2,0 -4.516,1.664 -4.516,3.446c0,1.09 0.971,1.723 2.219,1.723Z" style="fill-rule:nonzero;"/><path d="M301.406,108.319l0,-16.556" style="fill:none;stroke:#000;stroke-width:0.46px;"/><path d="M296.971,111.624c2.04,-0 4.555,-1.703 4.555,-3.446c0,-1.05 -0.931,-1.723 -2.258,-1.723c-2,-0 -4.515,1.663 -4.515,3.446c-0,1.089 0.97,1.723 2.218,1.723Z" style="fill-rule:nonzero;"/><path d="M325.544,103.368l0,-16.557" style="fill:none;stroke:#000;stroke-width:0.46px;"/><path d="M321.109,106.673c2.04,0 4.555,-1.704 4.555,-3.447c0,-1.049 -0.93,-1.723 -2.257,-1.723c-2.001,-0 -4.516,1.664 -4.516,3.447c-0,1.089 0.97,1.723 2.218,1.723Z" style="fill-rule:nonzero;"/><path d="M343.029,99.964l-0,16.556" style="fill:none;stroke:#000;stroke-width:0.46px;"/><path d="M345.093,101.721c2.04,0 4.555,-1.703 4.555,-3.446c0,-1.05 -0.931,-1.723 -2.258,-1.723c-2,0 -4.516,1.664 -4.516,3.446c-0,1.089 0.971,1.723 2.219,1.723Z" style="fill-rule:nonzero;"/><path d="M374.285,97.488l0,16.556" style="fill:none;stroke:#000;stroke-width:0.46px;"/><path d="M376.348,99.245c2.04,-0 4.556,-1.703 4.556,-3.446c-0,-1.049 -0.931,-1.723 -2.258,-1.723c-2,-0 -4.516,1.664 -4.516,3.446c0,1.09 0.971,1.723 2.218,1.723Z" style="fill-rule:nonzero;"/><path d="M404.767,108.319l-0,-16.556" style="fill:none;stroke:#000;stroke-width:0.46px;"/><path d="M400.332,111.624c2.04,-0 4.555,-1.703 4.555,-3.446c-0,-1.05 -0.931,-1.723 -2.258,-1.723c-2,-0 -4.515,1.663 -4.515,3.446c0,1.089 0.97,1.723 2.218,1.723Z" style="fill-rule:nonzero;"/><path d="M428.751,103.368l0,-16.557" style="fill:none;stroke:#000;stroke-width:0.46px;"/><path d="M424.315,106.673c2.04,0 4.556,-1.704 4.556,-3.447c0,-1.049 -0.931,-1.723 -2.258,-1.723c-2.001,-0 -4.516,1.664 -4.516,3.447c-0,1.089 0.971,1.723 2.218,1.723Z" style="fill-rule:nonzero;"/><path d="M452.889,108.319l0,-16.556" style="fill:none;stroke:#000;stroke-width:0.46px;"/><path d="M448.454,111.624c2.04,-0 4.555,-1.703 4.555,-3.446c0,-1.05 -0.931,-1.723 -2.258,-1.723c-2,-0 -4.516,1.663 -4.516,3.446c-0,1.089 0.971,1.723 2.219,1.723Z" style="fill-rule:nonzero;"/><path d="M35.267,185.066l-0,-16.556" style="fill:none;stroke:#000;stroke-width:0.46px;"/><path d="M30.832,188.371c2.04,0 4.555,-1.703 4.555,-3.446c0,-1.05 -0.93,-1.723 -2.257,-1.723c-2.001,-0 -4.516,1.663 -4.516,3.446c0,1.089 0.97,1.723 2.218,1.723Z" style="fill-rule:nonzero;"/><path d="M54.764,181.662l-0,16.556" style="fill:none;stroke:#000;stroke-width:0.46px;"/><path d="M56.827,183.42c2.04,0 4.555,-1.704 4.555,-3.447c-0,-1.049 -0.93,-1.723 -2.257,-1.723c-2.001,0 -4.516,1.664 -4.516,3.447c0,1.089 0.97,1.723 2.218,1.723Z" style="fill-rule:nonzero;"/><path d="M80.759,176.711l0,16.556" style="fill:none;stroke:#000;stroke-width:0.46px;"/><path d="M82.822,178.468c2.04,-0 4.555,-1.703 4.555,-3.446c-0,-1.05 -0.93,-1.723 -2.257,-1.723c-2.001,0 -4.516,1.664 -4.516,3.446c-0,1.089 0.97,1.723 2.218,1.723Z" style="fill-rule:nonzero;"/><path d="M106.754,171.759l-0,16.557" style="fill:none;stroke:#000;stroke-width:0.46px;"/><path d="M108.817,173.517c2.04,-0 4.555,-1.704 4.555,-3.446c0,-1.05 -0.93,-1.723 -2.257,-1.723c-2.001,-0 -4.516,1.663 -4.516,3.446c-0,1.089 0.97,1.723 2.218,1.723Z" style="fill-rule:nonzero;"/><path d="M140.176,169.284l-0,16.556" style="fill:none;stroke:#000;stroke-width:0.46px;"/><path d="M142.239,171.041c2.04,-0 4.555,-1.703 4.555,-3.446c0,-1.05 -0.93,-1.723 -2.257,-1.723c-2.001,0 -4.516,1.663 -4.516,3.446c-0,1.089 0.97,1.723 2.218,1.723Z" style="fill-rule:nonzero;"/><path d="M166.171,171.759l0,16.557" style="fill:none;stroke:#000;stroke-width:0.46px;"/><path d="M168.234,173.517c2.04,-0 4.555,-1.704 4.555,-3.446c0,-1.05 -0.93,-1.723 -2.257,-1.723c-2.001,-0 -4.516,1.663 -4.516,3.446c0,1.089 0.97,1.723 2.218,1.723Z" style="fill-rule:nonzero;"/><path d="M192.166,176.711l0,16.556" style="fill:none;stroke:#000;stroke-width:0.46px;"/><path d="M194.229,178.468c2.04,-0 4.555,-1.703 4.555,-3.446c-0,-1.05 -0.931,-1.723 -2.257,-1.723c-2.001,0 -4.516,1.664 -4.516,3.446c0,1.089 0.97,1.723 2.218,1.723Z" style="fill-rule:nonzero;"/><path d="M218.161,181.662l-0,16.556" style="fill:none;stroke:#000;stroke-width:0.46px;"/><path d="M220.224,183.42c2.04,0 4.555,-1.704 4.555,-3.447c0,-1.049 -0.931,-1.723 -2.258,-1.723c-2,0 -4.515,1.664 -4.515,3.447c-0,1.089 0.97,1.723 2.218,1.723Z" style="fill-rule:nonzero;"/><path d="M251.428,179.186l-0,16.557" style="fill:none;stroke:#000;stroke-width:0.46px;"/><path d="M253.491,180.944c2.04,0 4.556,-1.703 4.556,-3.446c-0,-1.05 -0.931,-1.723 -2.258,-1.723c-2.001,-0 -4.516,1.663 -4.516,3.446c-0,1.089 0.971,1.723 2.218,1.723Z" style="fill-rule:nonzero;"/><path d="M283.922,190.018l-0,-16.557" style="fill:none;stroke:#000;stroke-width:0.46px;"/><path d="M279.486,193.322c2.04,-0 4.556,-1.703 4.556,-3.446c-0,-1.049 -0.931,-1.723 -2.258,-1.723c-2.001,0 -4.516,1.664 -4.516,3.446c0,1.09 0.971,1.723 2.218,1.723Z" style="fill-rule:nonzero;"/><path d="M309.917,185.066l-0,-16.556" style="fill:none;stroke:#000;stroke-width:0.46px;"/><path d="M305.481,188.371c2.04,0 4.556,-1.703 4.556,-3.446c-0,-1.05 -0.931,-1.723 -2.258,-1.723c-2.001,-0 -4.516,1.663 -4.516,3.446c0,1.089 0.971,1.723 2.218,1.723Z" style="fill-rule:nonzero;"/><path d="M335.911,180.115l0,-16.557" style="fill:none;stroke:#000;stroke-width:0.46px;"/><path d="M331.476,183.42c2.04,0 4.556,-1.704 4.556,-3.447c0,-1.049 -0.931,-1.723 -2.258,-1.723c-2.001,0 -4.516,1.664 -4.516,3.447c-0,1.089 0.97,1.723 2.218,1.723Z" style="fill-rule:nonzero;"/><path d="M366.394,179.186l0,16.557" style="fill:none;stroke:#000;stroke-width:0.46px;"/><path d="M368.457,180.944c2.04,0 4.555,-1.703 4.555,-3.446c-0,-1.05 -0.93,-1.723 -2.257,-1.723c-2.001,-0 -4.516,1.663 -4.516,3.446c0,1.089 0.97,1.723 2.218,1.723Z" style="fill-rule:nonzero;"/><path d="M398.887,185.066l-0,-16.556" style="fill:none;stroke:#000;stroke-width:0.46px;"/><path d="M394.452,188.371c2.04,0 4.555,-1.703 4.555,-3.446c-0,-1.05 -0.93,-1.723 -2.257,-1.723c-2.001,-0 -4.516,1.663 -4.516,3.446c0,1.089 0.97,1.723 2.218,1.723Z" style="fill-rule:nonzero;"/><path d="M424.882,190.018l-0,-16.557" style="fill:none;stroke:#000;stroke-width:0.46px;"/><path d="M420.447,193.322c2.04,-0 4.555,-1.703 4.555,-3.446c0,-1.049 -0.93,-1.723 -2.257,-1.723c-2.001,0 -4.516,1.664 -4.516,3.446c0,1.09 0.97,1.723 2.218,1.723Z" style="fill-rule:nonzero;"/><path d="M450.877,185.066l0,-16.556" style="fill:none;stroke:#000;stroke-width:0.46px;"/><path d="M446.442,188.371c2.04,0 4.555,-1.703 4.555,-3.446c0,-1.05 -0.931,-1.723 -2.258,-1.723c-2,-0 -4.515,1.663 -4.515,3.446c-0,1.089 0.97,1.723 2.218,1.723Z" style="fill-rule:nonzero;"/><path d="M35.267,261.813l-0,-16.556" style="fill:none;stroke:#000;stroke-width:0.46px;"/><path d="M30.832,265.118c2.04,-0 4.555,-1.703 4.555,-3.446c0,-1.05 -0.93,-1.723 -2.257,-1.723c-2.001,0 -4.516,1.663 -4.516,3.446c0,1.089 0.97,1.723 2.218,1.723Z" style="fill-rule:nonzero;"/><path d="M54.918,258.409l-0,16.556" style="fill:none;stroke:#000;stroke-width:0.46px;"/><path d="M56.982,260.167c2.04,0 4.555,-1.704 4.555,-3.447c-0,-1.049 -0.931,-1.723 -2.258,-1.723c-2,-0 -4.515,1.664 -4.515,3.447c-0,1.089 0.97,1.723 2.218,1.723Z" style="fill-rule:nonzero;"/><path d="M87.722,269.24l0,-16.556" style="fill:none;stroke:#000;stroke-width:0.46px;"/><path d="M83.286,272.545c2.04,-0 4.556,-1.703 4.556,-3.446c0,-1.05 -0.931,-1.723 -2.258,-1.723c-2.001,0 -4.516,1.664 -4.516,3.446c0,1.089 0.971,1.723 2.218,1.723Z" style="fill-rule:nonzero;"/><path d="M113.871,264.289l0,-16.556" style="fill:none;stroke:#000;stroke-width:0.46px;"/><path d="M109.436,267.594c2.04,-0 4.555,-1.704 4.555,-3.446c-0,-1.05 -0.931,-1.724 -2.258,-1.724c-2,-0 -4.515,1.664 -4.515,3.447c0,1.089 0.97,1.723 2.218,1.723Z" style="fill-rule:nonzero;"/><path d="M147.603,261.813l-0,-16.556" style="fill:none;stroke:#000;stroke-width:0.46px;"/><path d="M143.168,265.118c2.04,-0 4.555,-1.703 4.555,-3.446c0,-1.05 -0.931,-1.723 -2.258,-1.723c-2,0 -4.516,1.663 -4.516,3.446c0,1.089 0.971,1.723 2.219,1.723Z" style="fill-rule:nonzero;"/><path d="M173.752,269.24l-0,-16.556" style="fill:none;stroke:#000;stroke-width:0.46px;"/><path d="M169.317,272.545c2.04,-0 4.556,-1.703 4.556,-3.446c0,-1.05 -0.931,-1.723 -2.258,-1.723c-2.001,0 -4.516,1.664 -4.516,3.446c-0,1.089 0.97,1.723 2.218,1.723Z" style="fill-rule:nonzero;"/><path d="M199.902,261.813l-0,-16.556" style="fill:none;stroke:#000;stroke-width:0.46px;"/><path d="M195.467,265.118c2.04,-0 4.555,-1.703 4.555,-3.446c0,-1.05 -0.931,-1.723 -2.258,-1.723c-2,0 -4.515,1.663 -4.515,3.446c-0,1.089 0.97,1.723 2.218,1.723Z" style="fill-rule:nonzero;"/><path d="M219.708,258.409l-0,16.556" style="fill:none;stroke:#000;stroke-width:0.46px;"/><path d="M221.771,260.167c2.04,0 4.556,-1.704 4.556,-3.447c-0,-1.049 -0.931,-1.723 -2.258,-1.723c-2.001,-0 -4.516,1.664 -4.516,3.447c-0,1.089 0.971,1.723 2.218,1.723Z" style="fill-rule:nonzero;"/><path d="M253.285,255.933l0,16.557" style="fill:none;stroke:#000;stroke-width:0.46px;"/><path d="M255.348,257.691c2.04,-0 4.555,-1.703 4.555,-3.446c0,-1.05 -0.93,-1.723 -2.257,-1.723c-2.001,0 -4.516,1.663 -4.516,3.446c0,1.089 0.97,1.723 2.218,1.723Z" style="fill-rule:nonzero;"/><path d="M279.434,250.982l-0,16.556" style="fill:none;stroke:#000;stroke-width:0.46px;"/><path d="M281.498,252.74c2.04,0 4.555,-1.704 4.555,-3.447c0,-1.049 -0.931,-1.723 -2.258,-1.723c-2,0 -4.515,1.664 -4.515,3.446c-0,1.09 0.97,1.724 2.218,1.724Z" style="fill-rule:nonzero;"/><path d="M305.739,255.933l0,16.557" style="fill:none;stroke:#000;stroke-width:0.46px;"/><path d="M307.802,257.691c2.04,-0 4.556,-1.703 4.556,-3.446c0,-1.05 -0.931,-1.723 -2.258,-1.723c-2.001,0 -4.516,1.663 -4.516,3.446c0,1.089 0.97,1.723 2.218,1.723Z" style="fill-rule:nonzero;"/><path d="M331.888,258.409l0,16.556" style="fill:none;stroke:#000;stroke-width:0.46px;"/><path d="M333.952,260.167c2.04,0 4.555,-1.704 4.555,-3.447c-0,-1.049 -0.931,-1.723 -2.258,-1.723c-2,-0 -4.515,1.664 -4.515,3.447c0,1.089 0.97,1.723 2.218,1.723Z" style="fill-rule:nonzero;"/><path d="M372.119,261.813l-0,-16.556" style="fill:none;stroke:#000;stroke-width:0.46px;"/><path d="M367.684,265.118c2.039,-0 4.555,-1.703 4.555,-3.446c0,-1.05 -0.931,-1.723 -2.258,-1.723c-2,0 -4.516,1.663 -4.516,3.446c-0,1.089 0.971,1.723 2.219,1.723Z" style="fill-rule:nonzero;"/><path d="M398.268,266.765l0,-16.557" style="fill:none;stroke:#000;stroke-width:0.46px;"/><path d="M393.833,270.069c2.04,0 4.555,-1.703 4.555,-3.446c0,-1.049 -0.93,-1.723 -2.257,-1.723c-2.001,-0 -4.516,1.664 -4.516,3.446c-0,1.09 0.97,1.723 2.218,1.723Z" style="fill-rule:nonzero;"/><path d="M424.418,271.716l-0,-16.556" style="fill:none;stroke:#000;stroke-width:0.46px;"/><path d="M419.983,275.021c2.04,-0 4.555,-1.703 4.555,-3.446c-0,-1.05 -0.931,-1.723 -2.258,-1.723c-2,0 -4.515,1.663 -4.515,3.446c0,1.089 0.97,1.723 2.218,1.723Z" style="fill-rule:nonzero;"/><path d="M450.723,266.765l-0,-16.557" style="fill:none;stroke:#000;stroke-width:0.46px;"/><path d="M446.287,270.069c2.04,0 4.556,-1.703 4.556,-3.446c-0,-1.049 -0.931,-1.723 -2.258,-1.723c-2.001,-0 -4.516,1.664 -4.516,3.446c0,1.09 0.971,1.723 2.218,1.723Z" style="fill-rule:nonzero;"/><path d="M35.267,340.881l-0,-16.556" style="fill:none;stroke:#000;stroke-width:0.46px;"/><path d="M30.832,344.186c2.04,0 4.555,-1.703 4.555,-3.446c0,-1.05 -0.93,-1.723 -2.257,-1.723c-2.001,-0 -4.516,1.663 -4.516,3.446c0,1.089 0.97,1.723 2.218,1.723Z" style="fill-rule:nonzero;"/><path d="M61.727,345.833l0,-16.557" style="fill:none;stroke:#000;stroke-width:0.46px;"/><path d="M57.291,349.137c2.04,-0 4.556,-1.703 4.556,-3.446c0,-1.049 -0.931,-1.723 -2.258,-1.723c-2.001,0 -4.516,1.664 -4.516,3.446c0,1.09 0.971,1.723 2.218,1.723Z" style="fill-rule:nonzero;"/><path d="M79.83,354.033l10.522,0" style="fill:none;stroke:#000;stroke-width:0.77px;"/><path d="M88.34,353.26l-0,-16.557" style="fill:none;stroke:#000;stroke-width:0.46px;"/><path d="M83.905,356.565c2.04,0 4.556,-1.704 4.556,-3.447c-0,-1.049 -0.931,-1.723 -2.258,-1.723c-2.001,0 -4.516,1.664 -4.516,3.446c-0,1.09 0.97,1.724 2.218,1.724Z" style="fill-rule:nonzero;"/><path d="M114.8,345.833l0,-16.557" style="fill:none;stroke:#000;stroke-width:0.46px;"/><path d="M110.364,349.137c2.04,-0 4.556,-1.703 4.556,-3.446c-0,-1.049 -0.931,-1.723 -2.258,-1.723c-2.001,0 -4.516,1.664 -4.516,3.446c0,1.09 0.971,1.723 2.218,1.723Z" style="fill-rule:nonzero;"/><path d="M148.686,343.357l0,-16.556" style="fill:none;stroke:#000;stroke-width:0.46px;"/><path d="M144.251,346.662c2.04,0 4.555,-1.704 4.555,-3.446c-0,-1.05 -0.931,-1.724 -2.258,-1.724c-2,0 -4.516,1.664 -4.516,3.447c-0,1.089 0.971,1.723 2.219,1.723Z" style="fill-rule:nonzero;"/><path d="M168.801,339.953l-0,16.556" style="fill:none;stroke:#000;stroke-width:0.46px;"/><path d="M170.865,341.71c2.04,0 4.555,-1.703 4.555,-3.446c-0,-1.05 -0.931,-1.723 -2.258,-1.723c-2,0 -4.516,1.664 -4.516,3.446c-0,1.09 0.971,1.723 2.219,1.723Z" style="fill-rule:nonzero;"/><path d="M195.26,335.001l-0,16.557" style="fill:none;stroke:#000;stroke-width:0.46px;"/><path d="M197.324,336.759c2.04,0 4.555,-1.703 4.555,-3.446c-0,-1.05 -0.931,-1.723 -2.258,-1.723c-2,-0 -4.516,1.663 -4.516,3.446c-0,1.089 0.971,1.723 2.219,1.723Z" style="fill-rule:nonzero;"/><path d="M221.719,339.953l-0,16.556" style="fill:none;stroke:#000;stroke-width:0.46px;"/><path d="M223.783,341.71c2.04,0 4.555,-1.703 4.555,-3.446c-0,-1.05 -0.931,-1.723 -2.258,-1.723c-2,0 -4.515,1.664 -4.515,3.446c0,1.09 0.97,1.723 2.218,1.723Z" style="fill-rule:nonzero;"/><path d="M255.76,337.477l-0,16.556" style="fill:none;stroke:#000;stroke-width:0.46px;"/><path d="M257.824,339.235c2.04,0 4.555,-1.704 4.555,-3.447c-0,-1.049 -0.931,-1.723 -2.258,-1.723c-2,0 -4.515,1.664 -4.515,3.447c0,1.089 0.97,1.723 2.218,1.723Z" style="fill-rule:nonzero;"/><path d="M288.718,343.357l-0,-16.556" style="fill:none;stroke:#000;stroke-width:0.46px;"/><path d="M284.283,346.662c2.04,0 4.555,-1.704 4.555,-3.446c0,-1.05 -0.931,-1.724 -2.258,-1.724c-2,0 -4.515,1.664 -4.515,3.447c0,1.089 0.97,1.723 2.218,1.723Z" style="fill-rule:nonzero;"/><path d="M315.177,348.308l0,-16.556" style="fill:none;stroke:#000;stroke-width:0.46px;"/><path d="M310.742,351.613c2.04,0 4.555,-1.703 4.555,-3.446c-0,-1.05 -0.93,-1.723 -2.257,-1.723c-2.001,0 -4.516,1.664 -4.516,3.446c-0,1.089 0.97,1.723 2.218,1.723Z" style="fill-rule:nonzero;"/><path d="M341.637,343.357l-0,-16.556" style="fill:none;stroke:#000;stroke-width:0.46px;"/><path d="M337.201,346.662c2.04,0 4.556,-1.704 4.556,-3.446c-0,-1.05 -0.931,-1.724 -2.258,-1.724c-2.001,0 -4.516,1.664 -4.516,3.447c0,1.089 0.971,1.723 2.218,1.723Z" style="fill-rule:nonzero;"/><path d="M367.167,354.033l10.677,0" style="fill:none;stroke:#000;stroke-width:0.77px;"/><path d="M375.832,353.26l0,-16.557" style="fill:none;stroke:#000;stroke-width:0.46px;"/><path d="M369.024,354.901c-0,1.109 1.089,1.763 2.436,1.763c2.258,0 4.536,-1.506 4.536,-3.367c0,-1.268 -1.07,-2.001 -2.714,-2.001c-2.02,0 -4.258,1.783 -4.258,3.605Zm5.387,-3.011c0.753,-0 1.129,0.317 1.129,0.931c0,1.149 -3.525,3.248 -4.931,3.248c-0.753,0 -1.129,-0.316 -1.129,-0.93c0,-1.228 3.664,-3.249 4.931,-3.249Z" style="fill-rule:nonzero;"/><rect x="413.896" y="336.759" width="5.566" height="2.377" style="fill-rule:nonzero;"/><path d="M465.662,3.199c0.441,-0.298 0.858,-0.453 1.227,-0.453c0.775,0 1.371,0.631 1.371,1.513c0,1.251 -1.12,2.204 -2.479,2.204c-0.5,0 -0.893,-0.095 -1.465,-0.369l-0.238,0.345c0.428,0.322 1.191,0.537 1.894,0.537c1.847,0 3.407,-1.406 3.407,-2.991c-0,-1.025 -0.81,-2.037 -1.953,-1.87l-0.024,-0.024c1.012,-0.667 1.406,-1.144 1.406,-1.752c0,-0.834 -0.763,-1.417 -1.811,-1.417c-1.061,-0 -1.919,0.583 -2.741,1.691l0.334,0.262c0.703,-0.786 1.418,-1.203 2.061,-1.203c0.596,-0 1.037,0.441 1.037,0.989c-0,0.774 -0.727,1.311 -2.216,2.145l0.19,0.393Z" style="fill-rule:nonzero;"/></g></svg>